G04 #@! TF.GenerationSoftware,KiCad,Pcbnew,5.0.2-bee76a0~70~ubuntu18.04.1*
G04 #@! TF.CreationDate,2019-01-04T10:38:41+01:00*
G04 #@! TF.ProjectId,gsvesc,67737665-7363-42e6-9b69-6361645f7063,rev?*
G04 #@! TF.SameCoordinates,Original*
G04 #@! TF.FileFunction,Legend,Bot*
G04 #@! TF.FilePolarity,Positive*
%FSLAX45Y45*%
G04 Gerber Fmt 4.5, Leading zero omitted, Abs format (unit mm)*
G04 Created by KiCad (PCBNEW 5.0.2-bee76a0~70~ubuntu18.04.1) date Fr 04 Jan 2019 10:38:41 CET*
%MOMM*%
%LPD*%
G01*
G04 APERTURE LIST*
%ADD10C,0.100000*%
%ADD11C,0.150000*%
%ADD12C,0.300000*%
%ADD13C,0.400000*%
%ADD14C,0.200000*%
%ADD15C,0.120000*%
%ADD16C,0.127000*%
%ADD17C,0.050000*%
G04 APERTURE END LIST*
D10*
D11*
X17700220Y-16600720D02*
X17700220Y-19800720D01*
X28500220Y-19800720D01*
X28500220Y-16600720D01*
X17700220Y-16600720D01*
D10*
D11*
X1000000Y-1000000D02*
X1000000Y-20000720D01*
X28700220Y-20000720D01*
X28700220Y-1000000D01*
X1000000Y-1000000D01*
D10*
D11*
X1200000Y-1200000D02*
X1200000Y-19800720D01*
X28500220Y-19800720D01*
X28500220Y-1200000D01*
X1200000Y-1200000D01*
D10*
D11*
X6000000Y-1200000D02*
X6000000Y-1000000D01*
D10*
D11*
X11000000Y-1200000D02*
X11000000Y-1000000D01*
D10*
D11*
X16000000Y-1200000D02*
X16000000Y-1000000D01*
D10*
D11*
X21000000Y-1200000D02*
X21000000Y-1000000D01*
D10*
D11*
X26000000Y-1200000D02*
X26000000Y-1000000D01*
D10*
D11*
X3606548Y-1158810D02*
X3532262Y-1158810D01*
X3569405Y-1158810D02*
X3569405Y-1028809D01*
X3557024Y-1047381D01*
X3544643Y-1059762D01*
X3532262Y-1065952D01*
D10*
D11*
X8532262Y-1041190D02*
X8538452Y-1035000D01*
X8550833Y-1028809D01*
X8581786Y-1028809D01*
X8594167Y-1035000D01*
X8600357Y-1041190D01*
X8606548Y-1053571D01*
X8606548Y-1065952D01*
X8600357Y-1084524D01*
X8526071Y-1158810D01*
X8606548Y-1158810D01*
D10*
D11*
X13526071Y-1028809D02*
X13606548Y-1028809D01*
X13563214Y-1078333D01*
X13581786Y-1078333D01*
X13594167Y-1084524D01*
X13600357Y-1090714D01*
X13606548Y-1103095D01*
X13606548Y-1134048D01*
X13600357Y-1146429D01*
X13594167Y-1152619D01*
X13581786Y-1158810D01*
X13544643Y-1158810D01*
X13532262Y-1152619D01*
X13526071Y-1146429D01*
D10*
D11*
X18594167Y-1072143D02*
X18594167Y-1158810D01*
X18563214Y-1022619D02*
X18532262Y-1115476D01*
X18612738Y-1115476D01*
D10*
D11*
X23600357Y-1028809D02*
X23538452Y-1028809D01*
X23532262Y-1090714D01*
X23538452Y-1084524D01*
X23550833Y-1078333D01*
X23581786Y-1078333D01*
X23594167Y-1084524D01*
X23600357Y-1090714D01*
X23606548Y-1103095D01*
X23606548Y-1134048D01*
X23600357Y-1146429D01*
X23594167Y-1152619D01*
X23581786Y-1158810D01*
X23550833Y-1158810D01*
X23538452Y-1152619D01*
X23532262Y-1146429D01*
D10*
D11*
X28594167Y-1028809D02*
X28569405Y-1028809D01*
X28557024Y-1035000D01*
X28550833Y-1041190D01*
X28538452Y-1059762D01*
X28532262Y-1084524D01*
X28532262Y-1134048D01*
X28538452Y-1146429D01*
X28544643Y-1152619D01*
X28557024Y-1158810D01*
X28581786Y-1158810D01*
X28594167Y-1152619D01*
X28600357Y-1146429D01*
X28606548Y-1134048D01*
X28606548Y-1103095D01*
X28600357Y-1090714D01*
X28594167Y-1084524D01*
X28581786Y-1078333D01*
X28557024Y-1078333D01*
X28544643Y-1084524D01*
X28538452Y-1090714D01*
X28532262Y-1103095D01*
D10*
D11*
X6000000Y-19800720D02*
X6000000Y-20000720D01*
D10*
D11*
X11000000Y-19800720D02*
X11000000Y-20000720D01*
D10*
D11*
X16000000Y-19800720D02*
X16000000Y-20000720D01*
D10*
D11*
X21000000Y-19800720D02*
X21000000Y-20000720D01*
D10*
D11*
X26000000Y-19800720D02*
X26000000Y-20000720D01*
D10*
D11*
X3606548Y-19959530D02*
X3532262Y-19959530D01*
X3569405Y-19959530D02*
X3569405Y-19829530D01*
X3557024Y-19848101D01*
X3544643Y-19860482D01*
X3532262Y-19866672D01*
D10*
D11*
X8532262Y-19841910D02*
X8538452Y-19835720D01*
X8550833Y-19829530D01*
X8581786Y-19829530D01*
X8594167Y-19835720D01*
X8600357Y-19841910D01*
X8606548Y-19854291D01*
X8606548Y-19866672D01*
X8600357Y-19885244D01*
X8526071Y-19959530D01*
X8606548Y-19959530D01*
D10*
D11*
X13526071Y-19829530D02*
X13606548Y-19829530D01*
X13563214Y-19879053D01*
X13581786Y-19879053D01*
X13594167Y-19885244D01*
X13600357Y-19891434D01*
X13606548Y-19903815D01*
X13606548Y-19934768D01*
X13600357Y-19947149D01*
X13594167Y-19953339D01*
X13581786Y-19959530D01*
X13544643Y-19959530D01*
X13532262Y-19953339D01*
X13526071Y-19947149D01*
D10*
D11*
X18594167Y-19872863D02*
X18594167Y-19959530D01*
X18563214Y-19823339D02*
X18532262Y-19916196D01*
X18612738Y-19916196D01*
D10*
D11*
X23600357Y-19829530D02*
X23538452Y-19829530D01*
X23532262Y-19891434D01*
X23538452Y-19885244D01*
X23550833Y-19879053D01*
X23581786Y-19879053D01*
X23594167Y-19885244D01*
X23600357Y-19891434D01*
X23606548Y-19903815D01*
X23606548Y-19934768D01*
X23600357Y-19947149D01*
X23594167Y-19953339D01*
X23581786Y-19959530D01*
X23550833Y-19959530D01*
X23538452Y-19953339D01*
X23532262Y-19947149D01*
D10*
D11*
X28594167Y-19829530D02*
X28569405Y-19829530D01*
X28557024Y-19835720D01*
X28550833Y-19841910D01*
X28538452Y-19860482D01*
X28532262Y-19885244D01*
X28532262Y-19934768D01*
X28538452Y-19947149D01*
X28544643Y-19953339D01*
X28557024Y-19959530D01*
X28581786Y-19959530D01*
X28594167Y-19953339D01*
X28600357Y-19947149D01*
X28606548Y-19934768D01*
X28606548Y-19903815D01*
X28600357Y-19891434D01*
X28594167Y-19885244D01*
X28581786Y-19879053D01*
X28557024Y-19879053D01*
X28544643Y-19885244D01*
X28538452Y-19891434D01*
X28532262Y-19903815D01*
D10*
D11*
X1000000Y-6000000D02*
X1200000Y-6000000D01*
D10*
D11*
X1000000Y-11000000D02*
X1200000Y-11000000D01*
D10*
D11*
X1000000Y-16000000D02*
X1200000Y-16000000D01*
D10*
D11*
X1069048Y-3521667D02*
X1130952Y-3521667D01*
X1056667Y-3558809D02*
X1100000Y-3428809D01*
X1143333Y-3558809D01*
D10*
D11*
X1109286Y-8490714D02*
X1127857Y-8496905D01*
X1134048Y-8503095D01*
X1140238Y-8515476D01*
X1140238Y-8534048D01*
X1134048Y-8546429D01*
X1127857Y-8552619D01*
X1115476Y-8558810D01*
X1065952Y-8558810D01*
X1065952Y-8428810D01*
X1109286Y-8428810D01*
X1121667Y-8435000D01*
X1127857Y-8441190D01*
X1134048Y-8453571D01*
X1134048Y-8465952D01*
X1127857Y-8478333D01*
X1121667Y-8484524D01*
X1109286Y-8490714D01*
X1065952Y-8490714D01*
D10*
D11*
X1140238Y-13546428D02*
X1134048Y-13552619D01*
X1115476Y-13558809D01*
X1103095Y-13558809D01*
X1084524Y-13552619D01*
X1072143Y-13540238D01*
X1065952Y-13527857D01*
X1059762Y-13503095D01*
X1059762Y-13484524D01*
X1065952Y-13459762D01*
X1072143Y-13447381D01*
X1084524Y-13435000D01*
X1103095Y-13428809D01*
X1115476Y-13428809D01*
X1134048Y-13435000D01*
X1140238Y-13441190D01*
D10*
D11*
X1065952Y-18558810D02*
X1065952Y-18428810D01*
X1096905Y-18428810D01*
X1115476Y-18435000D01*
X1127857Y-18447381D01*
X1134048Y-18459762D01*
X1140238Y-18484524D01*
X1140238Y-18503095D01*
X1134048Y-18527857D01*
X1127857Y-18540238D01*
X1115476Y-18552619D01*
X1096905Y-18558810D01*
X1065952Y-18558810D01*
D10*
D11*
X28700220Y-6000000D02*
X28500220Y-6000000D01*
D10*
D11*
X28700220Y-11000000D02*
X28500220Y-11000000D01*
D10*
D11*
X28700220Y-16000000D02*
X28500220Y-16000000D01*
D10*
D11*
X28569268Y-3521667D02*
X28631172Y-3521667D01*
X28556887Y-3558809D02*
X28600220Y-3428809D01*
X28643553Y-3558809D01*
D10*
D11*
X28609506Y-8490714D02*
X28628077Y-8496905D01*
X28634268Y-8503095D01*
X28640458Y-8515476D01*
X28640458Y-8534048D01*
X28634268Y-8546429D01*
X28628077Y-8552619D01*
X28615696Y-8558810D01*
X28566172Y-8558810D01*
X28566172Y-8428810D01*
X28609506Y-8428810D01*
X28621887Y-8435000D01*
X28628077Y-8441190D01*
X28634268Y-8453571D01*
X28634268Y-8465952D01*
X28628077Y-8478333D01*
X28621887Y-8484524D01*
X28609506Y-8490714D01*
X28566172Y-8490714D01*
D10*
D11*
X28640458Y-13546428D02*
X28634268Y-13552619D01*
X28615696Y-13558809D01*
X28603315Y-13558809D01*
X28584744Y-13552619D01*
X28572363Y-13540238D01*
X28566172Y-13527857D01*
X28559982Y-13503095D01*
X28559982Y-13484524D01*
X28566172Y-13459762D01*
X28572363Y-13447381D01*
X28584744Y-13435000D01*
X28603315Y-13428809D01*
X28615696Y-13428809D01*
X28634268Y-13435000D01*
X28640458Y-13441190D01*
D10*
D11*
X28566172Y-18558810D02*
X28566172Y-18428810D01*
X28597125Y-18428810D01*
X28615696Y-18435000D01*
X28628077Y-18447381D01*
X28634268Y-18459762D01*
X28640458Y-18484524D01*
X28640458Y-18503095D01*
X28634268Y-18527857D01*
X28628077Y-18540238D01*
X28615696Y-18552619D01*
X28597125Y-18558810D01*
X28566172Y-18558810D01*
D10*
D11*
X20043434Y-19378577D02*
X20043434Y-19228577D01*
X20079149Y-19228577D01*
X20100577Y-19235720D01*
X20114863Y-19250006D01*
X20122006Y-19264291D01*
X20129149Y-19292863D01*
X20129149Y-19314291D01*
X20122006Y-19342863D01*
X20114863Y-19357149D01*
X20100577Y-19371434D01*
X20079149Y-19378577D01*
X20043434Y-19378577D01*
X20257720Y-19378577D02*
X20257720Y-19300006D01*
X20250577Y-19285720D01*
X20236291Y-19278577D01*
X20207720Y-19278577D01*
X20193434Y-19285720D01*
X20257720Y-19371434D02*
X20243434Y-19378577D01*
X20207720Y-19378577D01*
X20193434Y-19371434D01*
X20186291Y-19357149D01*
X20186291Y-19342863D01*
X20193434Y-19328577D01*
X20207720Y-19321434D01*
X20243434Y-19321434D01*
X20257720Y-19314291D01*
X20307720Y-19278577D02*
X20364863Y-19278577D01*
X20329149Y-19228577D02*
X20329149Y-19357149D01*
X20336291Y-19371434D01*
X20350577Y-19378577D01*
X20364863Y-19378577D01*
X20472006Y-19371434D02*
X20457720Y-19378577D01*
X20429149Y-19378577D01*
X20414863Y-19371434D01*
X20407720Y-19357149D01*
X20407720Y-19300006D01*
X20414863Y-19285720D01*
X20429149Y-19278577D01*
X20457720Y-19278577D01*
X20472006Y-19285720D01*
X20479149Y-19300006D01*
X20479149Y-19314291D01*
X20407720Y-19328577D01*
X20543434Y-19364291D02*
X20550577Y-19371434D01*
X20543434Y-19378577D01*
X20536291Y-19371434D01*
X20543434Y-19364291D01*
X20543434Y-19378577D01*
X20543434Y-19285720D02*
X20550577Y-19292863D01*
X20543434Y-19300006D01*
X20536291Y-19292863D01*
X20543434Y-19285720D01*
X20543434Y-19300006D01*
D10*
D11*
X17700220Y-19450720D02*
X28500220Y-19450720D01*
D10*
D11*
X17843434Y-19658577D02*
X17843434Y-19508577D01*
X17929149Y-19658577D02*
X17864863Y-19572863D01*
X17929149Y-19508577D02*
X17843434Y-19594291D01*
X17993434Y-19658577D02*
X17993434Y-19558577D01*
X17993434Y-19508577D02*
X17986291Y-19515720D01*
X17993434Y-19522863D01*
X18000577Y-19515720D01*
X17993434Y-19508577D01*
X17993434Y-19522863D01*
X18150577Y-19644291D02*
X18143434Y-19651434D01*
X18122006Y-19658577D01*
X18107720Y-19658577D01*
X18086291Y-19651434D01*
X18072006Y-19637149D01*
X18064863Y-19622863D01*
X18057720Y-19594291D01*
X18057720Y-19572863D01*
X18064863Y-19544291D01*
X18072006Y-19530006D01*
X18086291Y-19515720D01*
X18107720Y-19508577D01*
X18122006Y-19508577D01*
X18143434Y-19515720D01*
X18150577Y-19522863D01*
X18279149Y-19658577D02*
X18279149Y-19580006D01*
X18272006Y-19565720D01*
X18257720Y-19558577D01*
X18229149Y-19558577D01*
X18214863Y-19565720D01*
X18279149Y-19651434D02*
X18264863Y-19658577D01*
X18229149Y-19658577D01*
X18214863Y-19651434D01*
X18207720Y-19637149D01*
X18207720Y-19622863D01*
X18214863Y-19608577D01*
X18229149Y-19601434D01*
X18264863Y-19601434D01*
X18279149Y-19594291D01*
X18414863Y-19658577D02*
X18414863Y-19508577D01*
X18414863Y-19651434D02*
X18400577Y-19658577D01*
X18372006Y-19658577D01*
X18357720Y-19651434D01*
X18350577Y-19644291D01*
X18343434Y-19630006D01*
X18343434Y-19587149D01*
X18350577Y-19572863D01*
X18357720Y-19565720D01*
X18372006Y-19558577D01*
X18400577Y-19558577D01*
X18414863Y-19565720D01*
X18600577Y-19580006D02*
X18650577Y-19580006D01*
X18672006Y-19658577D02*
X18600577Y-19658577D01*
X18600577Y-19508577D01*
X18672006Y-19508577D01*
X18736291Y-19644291D02*
X18743434Y-19651434D01*
X18736291Y-19658577D01*
X18729149Y-19651434D01*
X18736291Y-19644291D01*
X18736291Y-19658577D01*
X18807720Y-19658577D02*
X18807720Y-19508577D01*
X18843434Y-19508577D01*
X18864863Y-19515720D01*
X18879149Y-19530006D01*
X18886291Y-19544291D01*
X18893434Y-19572863D01*
X18893434Y-19594291D01*
X18886291Y-19622863D01*
X18879149Y-19637149D01*
X18864863Y-19651434D01*
X18843434Y-19658577D01*
X18807720Y-19658577D01*
X18957720Y-19644291D02*
X18964863Y-19651434D01*
X18957720Y-19658577D01*
X18950577Y-19651434D01*
X18957720Y-19644291D01*
X18957720Y-19658577D01*
X19022006Y-19615720D02*
X19093434Y-19615720D01*
X19007720Y-19658577D02*
X19057720Y-19508577D01*
X19107720Y-19658577D01*
X19157720Y-19644291D02*
X19164863Y-19651434D01*
X19157720Y-19658577D01*
X19150577Y-19651434D01*
X19157720Y-19644291D01*
X19157720Y-19658577D01*
X19457720Y-19658577D02*
X19457720Y-19508577D01*
X19472006Y-19601434D02*
X19514863Y-19658577D01*
X19514863Y-19558577D02*
X19457720Y-19615720D01*
X19579149Y-19658577D02*
X19579149Y-19558577D01*
X19579149Y-19508577D02*
X19572006Y-19515720D01*
X19579149Y-19522863D01*
X19586291Y-19515720D01*
X19579149Y-19508577D01*
X19579149Y-19522863D01*
X19714863Y-19651434D02*
X19700577Y-19658577D01*
X19672006Y-19658577D01*
X19657720Y-19651434D01*
X19650577Y-19644291D01*
X19643434Y-19630006D01*
X19643434Y-19587149D01*
X19650577Y-19572863D01*
X19657720Y-19565720D01*
X19672006Y-19558577D01*
X19700577Y-19558577D01*
X19714863Y-19565720D01*
X19843434Y-19658577D02*
X19843434Y-19580006D01*
X19836291Y-19565720D01*
X19822006Y-19558577D01*
X19793434Y-19558577D01*
X19779149Y-19565720D01*
X19843434Y-19651434D02*
X19829149Y-19658577D01*
X19793434Y-19658577D01*
X19779149Y-19651434D01*
X19772006Y-19637149D01*
X19772006Y-19622863D01*
X19779149Y-19608577D01*
X19793434Y-19601434D01*
X19829149Y-19601434D01*
X19843434Y-19594291D01*
X19979149Y-19658577D02*
X19979149Y-19508577D01*
X19979149Y-19651434D02*
X19964863Y-19658577D01*
X19936291Y-19658577D01*
X19922006Y-19651434D01*
X19914863Y-19644291D01*
X19907720Y-19630006D01*
X19907720Y-19587149D01*
X19914863Y-19572863D01*
X19922006Y-19565720D01*
X19936291Y-19558577D01*
X19964863Y-19558577D01*
X19979149Y-19565720D01*
X20236291Y-19508577D02*
X20164863Y-19508577D01*
X20157720Y-19580006D01*
X20164863Y-19572863D01*
X20179149Y-19565720D01*
X20214863Y-19565720D01*
X20229149Y-19572863D01*
X20236291Y-19580006D01*
X20243434Y-19594291D01*
X20243434Y-19630006D01*
X20236291Y-19644291D01*
X20229149Y-19651434D01*
X20214863Y-19658577D01*
X20179149Y-19658577D01*
X20164863Y-19651434D01*
X20157720Y-19644291D01*
X20307720Y-19644291D02*
X20314863Y-19651434D01*
X20307720Y-19658577D01*
X20300577Y-19651434D01*
X20307720Y-19644291D01*
X20307720Y-19658577D01*
X20407720Y-19508577D02*
X20422006Y-19508577D01*
X20436291Y-19515720D01*
X20443434Y-19522863D01*
X20450577Y-19537149D01*
X20457720Y-19565720D01*
X20457720Y-19601434D01*
X20450577Y-19630006D01*
X20443434Y-19644291D01*
X20436291Y-19651434D01*
X20422006Y-19658577D01*
X20407720Y-19658577D01*
X20393434Y-19651434D01*
X20386291Y-19644291D01*
X20379149Y-19630006D01*
X20372006Y-19601434D01*
X20372006Y-19565720D01*
X20379149Y-19537149D01*
X20386291Y-19522863D01*
X20393434Y-19515720D01*
X20407720Y-19508577D01*
X20522006Y-19644291D02*
X20529149Y-19651434D01*
X20522006Y-19658577D01*
X20514863Y-19651434D01*
X20522006Y-19644291D01*
X20522006Y-19658577D01*
X20586291Y-19522863D02*
X20593434Y-19515720D01*
X20607720Y-19508577D01*
X20643434Y-19508577D01*
X20657720Y-19515720D01*
X20664863Y-19522863D01*
X20672006Y-19537149D01*
X20672006Y-19551434D01*
X20664863Y-19572863D01*
X20579149Y-19658577D01*
X20672006Y-19658577D01*
X20736291Y-19601434D02*
X20850577Y-19601434D01*
X20922006Y-19658577D02*
X20922006Y-19508577D01*
X20922006Y-19565720D02*
X20936291Y-19558577D01*
X20964863Y-19558577D01*
X20979149Y-19565720D01*
X20986291Y-19572863D01*
X20993434Y-19587149D01*
X20993434Y-19630006D01*
X20986291Y-19644291D01*
X20979149Y-19651434D01*
X20964863Y-19658577D01*
X20936291Y-19658577D01*
X20922006Y-19651434D01*
X21114863Y-19651434D02*
X21100577Y-19658577D01*
X21072006Y-19658577D01*
X21057720Y-19651434D01*
X21050577Y-19637149D01*
X21050577Y-19580006D01*
X21057720Y-19565720D01*
X21072006Y-19558577D01*
X21100577Y-19558577D01*
X21114863Y-19565720D01*
X21122006Y-19580006D01*
X21122006Y-19594291D01*
X21050577Y-19608577D01*
X21243434Y-19651434D02*
X21229149Y-19658577D01*
X21200577Y-19658577D01*
X21186291Y-19651434D01*
X21179149Y-19637149D01*
X21179149Y-19580006D01*
X21186291Y-19565720D01*
X21200577Y-19558577D01*
X21229149Y-19558577D01*
X21243434Y-19565720D01*
X21250577Y-19580006D01*
X21250577Y-19594291D01*
X21179149Y-19608577D01*
X21300577Y-19508577D02*
X21400577Y-19508577D01*
X21336291Y-19658577D01*
X21522006Y-19508577D02*
X21493434Y-19508577D01*
X21479149Y-19515720D01*
X21472006Y-19522863D01*
X21457720Y-19544291D01*
X21450577Y-19572863D01*
X21450577Y-19630006D01*
X21457720Y-19644291D01*
X21464863Y-19651434D01*
X21479149Y-19658577D01*
X21507720Y-19658577D01*
X21522006Y-19651434D01*
X21529149Y-19644291D01*
X21536291Y-19630006D01*
X21536291Y-19594291D01*
X21529149Y-19580006D01*
X21522006Y-19572863D01*
X21507720Y-19565720D01*
X21479149Y-19565720D01*
X21464863Y-19572863D01*
X21457720Y-19580006D01*
X21450577Y-19594291D01*
X21664863Y-19658577D02*
X21664863Y-19580006D01*
X21657720Y-19565720D01*
X21643434Y-19558577D01*
X21614863Y-19558577D01*
X21600577Y-19565720D01*
X21664863Y-19651434D02*
X21650577Y-19658577D01*
X21614863Y-19658577D01*
X21600577Y-19651434D01*
X21593434Y-19637149D01*
X21593434Y-19622863D01*
X21600577Y-19608577D01*
X21614863Y-19601434D01*
X21650577Y-19601434D01*
X21664863Y-19594291D01*
X21764863Y-19508577D02*
X21779149Y-19508577D01*
X21793434Y-19515720D01*
X21800577Y-19522863D01*
X21807720Y-19537149D01*
X21814863Y-19565720D01*
X21814863Y-19601434D01*
X21807720Y-19630006D01*
X21800577Y-19644291D01*
X21793434Y-19651434D01*
X21779149Y-19658577D01*
X21764863Y-19658577D01*
X21750577Y-19651434D01*
X21743434Y-19644291D01*
X21736291Y-19630006D01*
X21729149Y-19601434D01*
X21729149Y-19565720D01*
X21736291Y-19537149D01*
X21743434Y-19522863D01*
X21750577Y-19515720D01*
X21764863Y-19508577D01*
X21843434Y-19467720D02*
X21986291Y-19467720D01*
X21864863Y-19508577D02*
X21964863Y-19508577D01*
X21900577Y-19658577D01*
X21986291Y-19467720D02*
X22129149Y-19467720D01*
X22050577Y-19508577D02*
X22064863Y-19508577D01*
X22079149Y-19515720D01*
X22086291Y-19522863D01*
X22093434Y-19537149D01*
X22100577Y-19565720D01*
X22100577Y-19601434D01*
X22093434Y-19630006D01*
X22086291Y-19644291D01*
X22079149Y-19651434D01*
X22064863Y-19658577D01*
X22050577Y-19658577D01*
X22036291Y-19651434D01*
X22029149Y-19644291D01*
X22022006Y-19630006D01*
X22014863Y-19601434D01*
X22014863Y-19565720D01*
X22022006Y-19537149D01*
X22029149Y-19522863D01*
X22036291Y-19515720D01*
X22050577Y-19508577D01*
X22229149Y-19558577D02*
X22229149Y-19658577D01*
X22164863Y-19558577D02*
X22164863Y-19637149D01*
X22172006Y-19651434D01*
X22186291Y-19658577D01*
X22207720Y-19658577D01*
X22222006Y-19651434D01*
X22229149Y-19644291D01*
X22300577Y-19658577D02*
X22300577Y-19508577D01*
X22300577Y-19565720D02*
X22314863Y-19558577D01*
X22343434Y-19558577D01*
X22357720Y-19565720D01*
X22364863Y-19572863D01*
X22372006Y-19587149D01*
X22372006Y-19630006D01*
X22364863Y-19644291D01*
X22357720Y-19651434D01*
X22343434Y-19658577D01*
X22314863Y-19658577D01*
X22300577Y-19651434D01*
X22500577Y-19558577D02*
X22500577Y-19658577D01*
X22436291Y-19558577D02*
X22436291Y-19637149D01*
X22443434Y-19651434D01*
X22457720Y-19658577D01*
X22479148Y-19658577D01*
X22493434Y-19651434D01*
X22500577Y-19644291D01*
X22572006Y-19558577D02*
X22572006Y-19658577D01*
X22572006Y-19572863D02*
X22579148Y-19565720D01*
X22593434Y-19558577D01*
X22614863Y-19558577D01*
X22629148Y-19565720D01*
X22636291Y-19580006D01*
X22636291Y-19658577D01*
X22686291Y-19558577D02*
X22743434Y-19558577D01*
X22707720Y-19508577D02*
X22707720Y-19637149D01*
X22714863Y-19651434D01*
X22729148Y-19658577D01*
X22743434Y-19658577D01*
X22857720Y-19558577D02*
X22857720Y-19658577D01*
X22793434Y-19558577D02*
X22793434Y-19637149D01*
X22800577Y-19651434D01*
X22814863Y-19658577D01*
X22836291Y-19658577D01*
X22850577Y-19651434D01*
X22857720Y-19644291D01*
X23007720Y-19658577D02*
X22922006Y-19658577D01*
X22964863Y-19658577D02*
X22964863Y-19508577D01*
X22950577Y-19530006D01*
X22936291Y-19544291D01*
X22922006Y-19551434D01*
X23093434Y-19572863D02*
X23079148Y-19565720D01*
X23072006Y-19558577D01*
X23064863Y-19544291D01*
X23064863Y-19537149D01*
X23072006Y-19522863D01*
X23079148Y-19515720D01*
X23093434Y-19508577D01*
X23122006Y-19508577D01*
X23136291Y-19515720D01*
X23143434Y-19522863D01*
X23150577Y-19537149D01*
X23150577Y-19544291D01*
X23143434Y-19558577D01*
X23136291Y-19565720D01*
X23122006Y-19572863D01*
X23093434Y-19572863D01*
X23079148Y-19580006D01*
X23072006Y-19587149D01*
X23064863Y-19601434D01*
X23064863Y-19630006D01*
X23072006Y-19644291D01*
X23079148Y-19651434D01*
X23093434Y-19658577D01*
X23122006Y-19658577D01*
X23136291Y-19651434D01*
X23143434Y-19644291D01*
X23150577Y-19630006D01*
X23150577Y-19601434D01*
X23143434Y-19587149D01*
X23136291Y-19580006D01*
X23122006Y-19572863D01*
X23214863Y-19644291D02*
X23222006Y-19651434D01*
X23214863Y-19658577D01*
X23207720Y-19651434D01*
X23214863Y-19644291D01*
X23214863Y-19658577D01*
X23314863Y-19508577D02*
X23329148Y-19508577D01*
X23343434Y-19515720D01*
X23350577Y-19522863D01*
X23357720Y-19537149D01*
X23364863Y-19565720D01*
X23364863Y-19601434D01*
X23357720Y-19630006D01*
X23350577Y-19644291D01*
X23343434Y-19651434D01*
X23329148Y-19658577D01*
X23314863Y-19658577D01*
X23300577Y-19651434D01*
X23293434Y-19644291D01*
X23286291Y-19630006D01*
X23279148Y-19601434D01*
X23279148Y-19565720D01*
X23286291Y-19537149D01*
X23293434Y-19522863D01*
X23300577Y-19515720D01*
X23314863Y-19508577D01*
X23493434Y-19558577D02*
X23493434Y-19658577D01*
X23457720Y-19501434D02*
X23422006Y-19608577D01*
X23514863Y-19608577D01*
X23572006Y-19644291D02*
X23579148Y-19651434D01*
X23572006Y-19658577D01*
X23564863Y-19651434D01*
X23572006Y-19644291D01*
X23572006Y-19658577D01*
X23722006Y-19658577D02*
X23636291Y-19658577D01*
X23679148Y-19658577D02*
X23679148Y-19508577D01*
X23664863Y-19530006D01*
X23650577Y-19544291D01*
X23636291Y-19551434D01*
D10*
D11*
X17700220Y-19150720D02*
X28500220Y-19150720D01*
D10*
D12*
X26441148Y-19378577D02*
X26391148Y-19307149D01*
X26355434Y-19378577D02*
X26355434Y-19228577D01*
X26412577Y-19228577D01*
X26426863Y-19235720D01*
X26434006Y-19242863D01*
X26441148Y-19257149D01*
X26441148Y-19278577D01*
X26434006Y-19292863D01*
X26426863Y-19300006D01*
X26412577Y-19307149D01*
X26355434Y-19307149D01*
X26562577Y-19371434D02*
X26548291Y-19378577D01*
X26519720Y-19378577D01*
X26505434Y-19371434D01*
X26498291Y-19357149D01*
X26498291Y-19300006D01*
X26505434Y-19285720D01*
X26519720Y-19278577D01*
X26548291Y-19278577D01*
X26562577Y-19285720D01*
X26569720Y-19300006D01*
X26569720Y-19314291D01*
X26498291Y-19328577D01*
X26619720Y-19278577D02*
X26655434Y-19378577D01*
X26691148Y-19278577D01*
X26748291Y-19364291D02*
X26755434Y-19371434D01*
X26748291Y-19378577D01*
X26741148Y-19371434D01*
X26748291Y-19364291D01*
X26748291Y-19378577D01*
X26748291Y-19285720D02*
X26755434Y-19292863D01*
X26748291Y-19300006D01*
X26741148Y-19292863D01*
X26748291Y-19285720D01*
X26748291Y-19300006D01*
D10*
D11*
X17836291Y-19371434D02*
X17857720Y-19378577D01*
X17893434Y-19378577D01*
X17907720Y-19371434D01*
X17914863Y-19364291D01*
X17922006Y-19350006D01*
X17922006Y-19335720D01*
X17914863Y-19321434D01*
X17907720Y-19314291D01*
X17893434Y-19307149D01*
X17864863Y-19300006D01*
X17850577Y-19292863D01*
X17843434Y-19285720D01*
X17836291Y-19271434D01*
X17836291Y-19257149D01*
X17843434Y-19242863D01*
X17850577Y-19235720D01*
X17864863Y-19228577D01*
X17900577Y-19228577D01*
X17922006Y-19235720D01*
X17986291Y-19378577D02*
X17986291Y-19278577D01*
X17986291Y-19228577D02*
X17979149Y-19235720D01*
X17986291Y-19242863D01*
X17993434Y-19235720D01*
X17986291Y-19228577D01*
X17986291Y-19242863D01*
X18043434Y-19278577D02*
X18122006Y-19278577D01*
X18043434Y-19378577D01*
X18122006Y-19378577D01*
X18236291Y-19371434D02*
X18222006Y-19378577D01*
X18193434Y-19378577D01*
X18179149Y-19371434D01*
X18172006Y-19357149D01*
X18172006Y-19300006D01*
X18179149Y-19285720D01*
X18193434Y-19278577D01*
X18222006Y-19278577D01*
X18236291Y-19285720D01*
X18243434Y-19300006D01*
X18243434Y-19314291D01*
X18172006Y-19328577D01*
X18307720Y-19364291D02*
X18314863Y-19371434D01*
X18307720Y-19378577D01*
X18300577Y-19371434D01*
X18307720Y-19364291D01*
X18307720Y-19378577D01*
X18307720Y-19285720D02*
X18314863Y-19292863D01*
X18307720Y-19300006D01*
X18300577Y-19292863D01*
X18307720Y-19285720D01*
X18307720Y-19300006D01*
X18486291Y-19335720D02*
X18557720Y-19335720D01*
X18472006Y-19378577D02*
X18522006Y-19228577D01*
X18572006Y-19378577D01*
X18686291Y-19278577D02*
X18686291Y-19378577D01*
X18650577Y-19221434D02*
X18614863Y-19328577D01*
X18707720Y-19328577D01*
D10*
D11*
X26343434Y-19658577D02*
X26343434Y-19508577D01*
X26479148Y-19658577D02*
X26479148Y-19508577D01*
X26479148Y-19651434D02*
X26464863Y-19658577D01*
X26436291Y-19658577D01*
X26422006Y-19651434D01*
X26414863Y-19644291D01*
X26407720Y-19630006D01*
X26407720Y-19587149D01*
X26414863Y-19572863D01*
X26422006Y-19565720D01*
X26436291Y-19558577D01*
X26464863Y-19558577D01*
X26479148Y-19565720D01*
X26550577Y-19644291D02*
X26557720Y-19651434D01*
X26550577Y-19658577D01*
X26543434Y-19651434D01*
X26550577Y-19644291D01*
X26550577Y-19658577D01*
X26550577Y-19565720D02*
X26557720Y-19572863D01*
X26550577Y-19580006D01*
X26543434Y-19572863D01*
X26550577Y-19565720D01*
X26550577Y-19580006D01*
X26814863Y-19658577D02*
X26729148Y-19658577D01*
X26772006Y-19658577D02*
X26772006Y-19508577D01*
X26757720Y-19530006D01*
X26743434Y-19544291D01*
X26729148Y-19551434D01*
X26986291Y-19501434D02*
X26857720Y-19694291D01*
X27114863Y-19658577D02*
X27029148Y-19658577D01*
X27072006Y-19658577D02*
X27072006Y-19508577D01*
X27057720Y-19530006D01*
X27043434Y-19544291D01*
X27029148Y-19551434D01*
D10*
D11*
X17700220Y-18750720D02*
X28500220Y-18750720D01*
D10*
D13*
X17871458Y-18821196D02*
X17985744Y-18821196D01*
X17903601Y-19021196D02*
X17928601Y-18821196D01*
X18027410Y-19021196D02*
X18044077Y-18887863D01*
X18052410Y-18821196D02*
X18041696Y-18830720D01*
X18050030Y-18840244D01*
X18060744Y-18830720D01*
X18052410Y-18821196D01*
X18050030Y-18840244D01*
X18110744Y-18887863D02*
X18186934Y-18887863D01*
X18147649Y-18821196D02*
X18126220Y-18992625D01*
X18133363Y-19011672D01*
X18151220Y-19021196D01*
X18170268Y-19021196D01*
X18265506Y-19021196D02*
X18247649Y-19011672D01*
X18240506Y-18992625D01*
X18261934Y-18821196D01*
X18419077Y-19011672D02*
X18398839Y-19021196D01*
X18360744Y-19021196D01*
X18342887Y-19011672D01*
X18335744Y-18992625D01*
X18345268Y-18916434D01*
X18357172Y-18897387D01*
X18377410Y-18887863D01*
X18415506Y-18887863D01*
X18433363Y-18897387D01*
X18440506Y-18916434D01*
X18438125Y-18935482D01*
X18340506Y-18954530D01*
X18515506Y-19002149D02*
X18523839Y-19011672D01*
X18513125Y-19021196D01*
X18504791Y-19011672D01*
X18515506Y-19002149D01*
X18513125Y-19021196D01*
X18528601Y-18897387D02*
X18536934Y-18906910D01*
X18526220Y-18916434D01*
X18517887Y-18906910D01*
X18528601Y-18897387D01*
X18526220Y-18916434D01*
D10*
D11*
X17893434Y-18560006D02*
X17843434Y-18560006D01*
X17843434Y-18638577D02*
X17843434Y-18488577D01*
X17914863Y-18488577D01*
X17972006Y-18638577D02*
X17972006Y-18538577D01*
X17972006Y-18488577D02*
X17964863Y-18495720D01*
X17972006Y-18502863D01*
X17979149Y-18495720D01*
X17972006Y-18488577D01*
X17972006Y-18502863D01*
X18064863Y-18638577D02*
X18050577Y-18631434D01*
X18043434Y-18617149D01*
X18043434Y-18488577D01*
X18179149Y-18631434D02*
X18164863Y-18638577D01*
X18136291Y-18638577D01*
X18122006Y-18631434D01*
X18114863Y-18617149D01*
X18114863Y-18560006D01*
X18122006Y-18545720D01*
X18136291Y-18538577D01*
X18164863Y-18538577D01*
X18179149Y-18545720D01*
X18186291Y-18560006D01*
X18186291Y-18574291D01*
X18114863Y-18588577D01*
X18250577Y-18624291D02*
X18257720Y-18631434D01*
X18250577Y-18638577D01*
X18243434Y-18631434D01*
X18250577Y-18624291D01*
X18250577Y-18638577D01*
X18250577Y-18545720D02*
X18257720Y-18552863D01*
X18250577Y-18560006D01*
X18243434Y-18552863D01*
X18250577Y-18545720D01*
X18250577Y-18560006D01*
X18500577Y-18538577D02*
X18500577Y-18660006D01*
X18493434Y-18674291D01*
X18486291Y-18681434D01*
X18472006Y-18688577D01*
X18450577Y-18688577D01*
X18436291Y-18681434D01*
X18500577Y-18631434D02*
X18486291Y-18638577D01*
X18457720Y-18638577D01*
X18443434Y-18631434D01*
X18436291Y-18624291D01*
X18429149Y-18610006D01*
X18429149Y-18567149D01*
X18436291Y-18552863D01*
X18443434Y-18545720D01*
X18457720Y-18538577D01*
X18486291Y-18538577D01*
X18500577Y-18545720D01*
X18564863Y-18631434D02*
X18579149Y-18638577D01*
X18607720Y-18638577D01*
X18622006Y-18631434D01*
X18629149Y-18617149D01*
X18629149Y-18610006D01*
X18622006Y-18595720D01*
X18607720Y-18588577D01*
X18586291Y-18588577D01*
X18572006Y-18581434D01*
X18564863Y-18567149D01*
X18564863Y-18560006D01*
X18572006Y-18545720D01*
X18586291Y-18538577D01*
X18607720Y-18538577D01*
X18622006Y-18545720D01*
X18679149Y-18538577D02*
X18714863Y-18638577D01*
X18750577Y-18538577D01*
X18864863Y-18631434D02*
X18850577Y-18638577D01*
X18822006Y-18638577D01*
X18807720Y-18631434D01*
X18800577Y-18617149D01*
X18800577Y-18560006D01*
X18807720Y-18545720D01*
X18822006Y-18538577D01*
X18850577Y-18538577D01*
X18864863Y-18545720D01*
X18872006Y-18560006D01*
X18872006Y-18574291D01*
X18800577Y-18588577D01*
X18929149Y-18631434D02*
X18943434Y-18638577D01*
X18972006Y-18638577D01*
X18986291Y-18631434D01*
X18993434Y-18617149D01*
X18993434Y-18610006D01*
X18986291Y-18595720D01*
X18972006Y-18588577D01*
X18950577Y-18588577D01*
X18936291Y-18581434D01*
X18929149Y-18567149D01*
X18929149Y-18560006D01*
X18936291Y-18545720D01*
X18950577Y-18538577D01*
X18972006Y-18538577D01*
X18986291Y-18545720D01*
X19122006Y-18631434D02*
X19107720Y-18638577D01*
X19079149Y-18638577D01*
X19064863Y-18631434D01*
X19057720Y-18624291D01*
X19050577Y-18610006D01*
X19050577Y-18567149D01*
X19057720Y-18552863D01*
X19064863Y-18545720D01*
X19079149Y-18538577D01*
X19107720Y-18538577D01*
X19122006Y-18545720D01*
X19186291Y-18624291D02*
X19193434Y-18631434D01*
X19186291Y-18638577D01*
X19179149Y-18631434D01*
X19186291Y-18624291D01*
X19186291Y-18638577D01*
X19257720Y-18638577D02*
X19257720Y-18488577D01*
X19272006Y-18581434D02*
X19314863Y-18638577D01*
X19314863Y-18538577D02*
X19257720Y-18595720D01*
X19379149Y-18638577D02*
X19379149Y-18538577D01*
X19379149Y-18488577D02*
X19372006Y-18495720D01*
X19379149Y-18502863D01*
X19386291Y-18495720D01*
X19379149Y-18488577D01*
X19379149Y-18502863D01*
X19514863Y-18631434D02*
X19500577Y-18638577D01*
X19472006Y-18638577D01*
X19457720Y-18631434D01*
X19450577Y-18624291D01*
X19443434Y-18610006D01*
X19443434Y-18567149D01*
X19450577Y-18552863D01*
X19457720Y-18545720D01*
X19472006Y-18538577D01*
X19500577Y-18538577D01*
X19514863Y-18545720D01*
X19643434Y-18638577D02*
X19643434Y-18560006D01*
X19636291Y-18545720D01*
X19622006Y-18538577D01*
X19593434Y-18538577D01*
X19579149Y-18545720D01*
X19643434Y-18631434D02*
X19629149Y-18638577D01*
X19593434Y-18638577D01*
X19579149Y-18631434D01*
X19572006Y-18617149D01*
X19572006Y-18602863D01*
X19579149Y-18588577D01*
X19593434Y-18581434D01*
X19629149Y-18581434D01*
X19643434Y-18574291D01*
X19779149Y-18638577D02*
X19779149Y-18488577D01*
X19779149Y-18631434D02*
X19764863Y-18638577D01*
X19736291Y-18638577D01*
X19722006Y-18631434D01*
X19714863Y-18624291D01*
X19707720Y-18610006D01*
X19707720Y-18567149D01*
X19714863Y-18552863D01*
X19722006Y-18545720D01*
X19736291Y-18538577D01*
X19764863Y-18538577D01*
X19779149Y-18545720D01*
X19814863Y-18652863D02*
X19929149Y-18652863D01*
X19964863Y-18538577D02*
X19964863Y-18688577D01*
X19964863Y-18545720D02*
X19979149Y-18538577D01*
X20007720Y-18538577D01*
X20022006Y-18545720D01*
X20029149Y-18552863D01*
X20036291Y-18567149D01*
X20036291Y-18610006D01*
X20029149Y-18624291D01*
X20022006Y-18631434D01*
X20007720Y-18638577D01*
X19979149Y-18638577D01*
X19964863Y-18631434D01*
X20164863Y-18631434D02*
X20150577Y-18638577D01*
X20122006Y-18638577D01*
X20107720Y-18631434D01*
X20100577Y-18624291D01*
X20093434Y-18610006D01*
X20093434Y-18567149D01*
X20100577Y-18552863D01*
X20107720Y-18545720D01*
X20122006Y-18538577D01*
X20150577Y-18538577D01*
X20164863Y-18545720D01*
X20229149Y-18638577D02*
X20229149Y-18488577D01*
X20229149Y-18545720D02*
X20243434Y-18538577D01*
X20272006Y-18538577D01*
X20286291Y-18545720D01*
X20293434Y-18552863D01*
X20300577Y-18567149D01*
X20300577Y-18610006D01*
X20293434Y-18624291D01*
X20286291Y-18631434D01*
X20272006Y-18638577D01*
X20243434Y-18638577D01*
X20229149Y-18631434D01*
D10*
D11*
X17700220Y-18150720D02*
X28500220Y-18150720D01*
D10*
D11*
X17836291Y-18361434D02*
X17857720Y-18368577D01*
X17893434Y-18368577D01*
X17907720Y-18361434D01*
X17914863Y-18354291D01*
X17922006Y-18340006D01*
X17922006Y-18325720D01*
X17914863Y-18311434D01*
X17907720Y-18304291D01*
X17893434Y-18297149D01*
X17864863Y-18290006D01*
X17850577Y-18282863D01*
X17843434Y-18275720D01*
X17836291Y-18261434D01*
X17836291Y-18247149D01*
X17843434Y-18232863D01*
X17850577Y-18225720D01*
X17864863Y-18218577D01*
X17900577Y-18218577D01*
X17922006Y-18225720D01*
X17986291Y-18368577D02*
X17986291Y-18218577D01*
X18050577Y-18368577D02*
X18050577Y-18290006D01*
X18043434Y-18275720D01*
X18029149Y-18268577D01*
X18007720Y-18268577D01*
X17993434Y-18275720D01*
X17986291Y-18282863D01*
X18179149Y-18361434D02*
X18164863Y-18368577D01*
X18136291Y-18368577D01*
X18122006Y-18361434D01*
X18114863Y-18347149D01*
X18114863Y-18290006D01*
X18122006Y-18275720D01*
X18136291Y-18268577D01*
X18164863Y-18268577D01*
X18179149Y-18275720D01*
X18186291Y-18290006D01*
X18186291Y-18304291D01*
X18114863Y-18318577D01*
X18307720Y-18361434D02*
X18293434Y-18368577D01*
X18264863Y-18368577D01*
X18250577Y-18361434D01*
X18243434Y-18347149D01*
X18243434Y-18290006D01*
X18250577Y-18275720D01*
X18264863Y-18268577D01*
X18293434Y-18268577D01*
X18307720Y-18275720D01*
X18314863Y-18290006D01*
X18314863Y-18304291D01*
X18243434Y-18318577D01*
X18357720Y-18268577D02*
X18414863Y-18268577D01*
X18379149Y-18218577D02*
X18379149Y-18347149D01*
X18386291Y-18361434D01*
X18400577Y-18368577D01*
X18414863Y-18368577D01*
X18464863Y-18354291D02*
X18472006Y-18361434D01*
X18464863Y-18368577D01*
X18457720Y-18361434D01*
X18464863Y-18354291D01*
X18464863Y-18368577D01*
X18464863Y-18275720D02*
X18472006Y-18282863D01*
X18464863Y-18290006D01*
X18457720Y-18282863D01*
X18464863Y-18275720D01*
X18464863Y-18290006D01*
D10*
D11*
X19700220Y-19150720D02*
X19700220Y-19450720D01*
D10*
D11*
X26100220Y-19150720D02*
X26100220Y-19800720D01*
D14*
X11340000Y-9398000D02*
G75*
G03X11340000Y-9398000I-2450000J0D01*
G01*
X14440000Y-9398000D02*
G75*
G03X14440000Y-9398000I-5550000J0D01*
G01*
D15*
G04 #@! TO.C,C5*
X4224708Y-9596000D02*
X4172992Y-9596000D01*
X4224708Y-9454000D02*
X4172992Y-9454000D01*
G04 #@! TO.C,C7*
X5430292Y-9212700D02*
X5482008Y-9212700D01*
X5430292Y-9354700D02*
X5482008Y-9354700D01*
G04 #@! TO.C,C8*
X4693800Y-8910092D02*
X4693800Y-8961808D01*
X4551800Y-8910092D02*
X4551800Y-8961808D01*
G04 #@! TO.C,C9*
X4986708Y-9367400D02*
X4934992Y-9367400D01*
X4986708Y-9225400D02*
X4934992Y-9225400D01*
G04 #@! TO.C,C13*
X4172992Y-9682600D02*
X4224708Y-9682600D01*
X4172992Y-9824600D02*
X4224708Y-9824600D01*
G04 #@! TO.C,C15*
X5580608Y-7640200D02*
X5528892Y-7640200D01*
X5580608Y-7498200D02*
X5528892Y-7498200D01*
G04 #@! TO.C,C17*
X4807992Y-8057000D02*
X4859708Y-8057000D01*
X4807992Y-8199000D02*
X4859708Y-8199000D01*
G04 #@! TO.C,C18*
X5588458Y-7411600D02*
X5536742Y-7411600D01*
X5588458Y-7269600D02*
X5536742Y-7269600D01*
G04 #@! TO.C,C20*
X4807992Y-7828400D02*
X4859708Y-7828400D01*
X4807992Y-7970400D02*
X4859708Y-7970400D01*
G04 #@! TO.C,C36*
X10887600Y-5863806D02*
X10887600Y-5743394D01*
X11159600Y-5863806D02*
X11159600Y-5743394D01*
G04 #@! TO.C,C37*
X7915800Y-5863806D02*
X7915800Y-5743394D01*
X8187800Y-5863806D02*
X8187800Y-5743394D01*
G04 #@! TO.C,C43*
X9414400Y-5863806D02*
X9414400Y-5743394D01*
X9686400Y-5863806D02*
X9686400Y-5743394D01*
D14*
G04 #@! TO.C,Q7*
X10858250Y-6641600D02*
G75*
G03X10858250Y-6641600I-10000J0D01*
G01*
D16*
X11268250Y-6696600D02*
X11533250Y-6696600D01*
X10943250Y-6696600D02*
X11118250Y-6696600D01*
X11118250Y-6206600D02*
X10943250Y-6206600D01*
X11533250Y-6206600D02*
X11268250Y-6206600D01*
X11533250Y-6581600D02*
X11533250Y-6321600D01*
D14*
G04 #@! TO.C,Q1*
X9903800Y-5604400D02*
G75*
G03X9903800Y-5604400I-10000J0D01*
G01*
D16*
X9838800Y-6024400D02*
X9838800Y-6289400D01*
X9838800Y-5699400D02*
X9838800Y-5874400D01*
X10328800Y-5874400D02*
X10328800Y-5699400D01*
X10328800Y-6289400D02*
X10328800Y-6024400D01*
X9953800Y-6289400D02*
X10213800Y-6289400D01*
D14*
G04 #@! TO.C,Q2*
X9903800Y-4842400D02*
G75*
G03X9903800Y-4842400I-10000J0D01*
G01*
D16*
X9838800Y-5262400D02*
X9838800Y-5527400D01*
X9838800Y-4937400D02*
X9838800Y-5112400D01*
X10328800Y-5112400D02*
X10328800Y-4937400D01*
X10328800Y-5527400D02*
X10328800Y-5262400D01*
X9953800Y-5527400D02*
X10213800Y-5527400D01*
D14*
G04 #@! TO.C,Q3*
X6906600Y-5604500D02*
G75*
G03X6906600Y-5604500I-10000J0D01*
G01*
D16*
X6841600Y-6024500D02*
X6841600Y-6289500D01*
X6841600Y-5699500D02*
X6841600Y-5874500D01*
X7331600Y-5874500D02*
X7331600Y-5699500D01*
X7331600Y-6289500D02*
X7331600Y-6024500D01*
X6956600Y-6289500D02*
X7216600Y-6289500D01*
D14*
G04 #@! TO.C,Q4*
X6906600Y-4842400D02*
G75*
G03X6906600Y-4842400I-10000J0D01*
G01*
D16*
X6841600Y-5262400D02*
X6841600Y-5527400D01*
X6841600Y-4937400D02*
X6841600Y-5112400D01*
X7331600Y-5112400D02*
X7331600Y-4937400D01*
X7331600Y-5527400D02*
X7331600Y-5262400D01*
X6956600Y-5527400D02*
X7216600Y-5527400D01*
D14*
G04 #@! TO.C,Q5*
X8405200Y-5604400D02*
G75*
G03X8405200Y-5604400I-10000J0D01*
G01*
D16*
X8340200Y-6024400D02*
X8340200Y-6289400D01*
X8340200Y-5699400D02*
X8340200Y-5874400D01*
X8830200Y-5874400D02*
X8830200Y-5699400D01*
X8830200Y-6289400D02*
X8830200Y-6024400D01*
X8455200Y-6289400D02*
X8715200Y-6289400D01*
D14*
G04 #@! TO.C,Q6*
X8405200Y-4842400D02*
G75*
G03X8405200Y-4842400I-10000J0D01*
G01*
D16*
X8340200Y-5262400D02*
X8340200Y-5527400D01*
X8340200Y-4937400D02*
X8340200Y-5112400D01*
X8830200Y-5112400D02*
X8830200Y-4937400D01*
X8830200Y-5527400D02*
X8830200Y-5262400D01*
X8455200Y-5527400D02*
X8715200Y-5527400D01*
D15*
G04 #@! TO.C,R9*
X4396418Y-10521226D02*
X4445015Y-10503538D01*
X4444985Y-10654662D02*
X4493582Y-10636974D01*
G04 #@! TO.C,R10*
X4597415Y-10909938D02*
X4548818Y-10927626D01*
X4645982Y-11043374D02*
X4597385Y-11061062D01*
G04 #@! TO.C,R11*
X4569782Y-10840174D02*
X4521185Y-10857862D01*
X4521215Y-10706738D02*
X4472618Y-10724426D01*
G04 #@! TO.C,R14*
X5085200Y-8077658D02*
X5085200Y-8025942D01*
X5227200Y-8077658D02*
X5227200Y-8025942D01*
G04 #@! TO.C,R16*
X4807992Y-7741800D02*
X4859708Y-7741800D01*
X4807992Y-7599800D02*
X4859708Y-7599800D01*
G04 #@! TO.C,R19*
X5796400Y-6342608D02*
X5796400Y-6290892D01*
X5938400Y-6342608D02*
X5938400Y-6290892D01*
G04 #@! TO.C,R20*
X5796400Y-5859092D02*
X5796400Y-5910808D01*
X5938400Y-5859092D02*
X5938400Y-5910808D01*
G04 #@! TO.C,R21*
X6152000Y-6342608D02*
X6152000Y-6290892D01*
X6294000Y-6342608D02*
X6294000Y-6290892D01*
G04 #@! TO.C,R22*
X6152000Y-5859092D02*
X6152000Y-5910808D01*
X6294000Y-5859092D02*
X6294000Y-5910808D01*
G04 #@! TO.C,R23*
X6507600Y-6342608D02*
X6507600Y-6290892D01*
X6649600Y-6342608D02*
X6649600Y-6290892D01*
G04 #@! TO.C,R24*
X6507600Y-5859092D02*
X6507600Y-5910808D01*
X6649600Y-5859092D02*
X6649600Y-5910808D01*
G04 #@! TO.C,R31*
X10688200Y-5384342D02*
X10688200Y-5436058D01*
X10546200Y-5384342D02*
X10546200Y-5436058D01*
G04 #@! TO.C,R32*
X7716400Y-5399142D02*
X7716400Y-5450858D01*
X7574400Y-5399142D02*
X7574400Y-5450858D01*
G04 #@! TO.C,R37*
X9073000Y-5399142D02*
X9073000Y-5450858D01*
X9215000Y-5399142D02*
X9215000Y-5450858D01*
G04 #@! TO.C,R40*
X11469742Y-7183000D02*
X11521458Y-7183000D01*
X11469742Y-7041000D02*
X11521458Y-7041000D01*
G04 #@! TO.C,R41*
X6088500Y-12187608D02*
X6088500Y-12135892D01*
X6230500Y-12187608D02*
X6230500Y-12135892D01*
G04 #@! TD*
G04 #@! TO.C,C5*
D11*
X4215517Y-9395714D02*
X4220279Y-9400476D01*
X4234564Y-9405238D01*
X4244088Y-9405238D01*
X4258374Y-9400476D01*
X4267898Y-9390952D01*
X4272660Y-9381429D01*
X4277421Y-9362381D01*
X4277421Y-9348095D01*
X4272660Y-9329048D01*
X4267898Y-9319524D01*
X4258374Y-9310000D01*
X4244088Y-9305238D01*
X4234564Y-9305238D01*
X4220279Y-9310000D01*
X4215517Y-9314762D01*
X4125040Y-9305238D02*
X4172659Y-9305238D01*
X4177421Y-9352857D01*
X4172659Y-9348095D01*
X4163136Y-9343333D01*
X4139326Y-9343333D01*
X4129802Y-9348095D01*
X4125040Y-9352857D01*
X4120278Y-9362381D01*
X4120278Y-9386190D01*
X4125040Y-9395714D01*
X4129802Y-9400476D01*
X4139326Y-9405238D01*
X4163136Y-9405238D01*
X4172659Y-9400476D01*
X4177421Y-9395714D01*
G04 #@! TO.C,C7*
X5480207Y-9121294D02*
X5484969Y-9126056D01*
X5499254Y-9130818D01*
X5508778Y-9130818D01*
X5523064Y-9126056D01*
X5532588Y-9116532D01*
X5537350Y-9107009D01*
X5542111Y-9087961D01*
X5542111Y-9073675D01*
X5537350Y-9054628D01*
X5532588Y-9045104D01*
X5523064Y-9035580D01*
X5508778Y-9030818D01*
X5499254Y-9030818D01*
X5484969Y-9035580D01*
X5480207Y-9040342D01*
X5446873Y-9030818D02*
X5380207Y-9030818D01*
X5423064Y-9130818D01*
G04 #@! TO.C,C8*
X4493514Y-8919283D02*
X4498276Y-8914521D01*
X4503038Y-8900236D01*
X4503038Y-8890712D01*
X4498276Y-8876426D01*
X4488752Y-8866902D01*
X4479229Y-8862140D01*
X4460181Y-8857379D01*
X4445895Y-8857379D01*
X4426848Y-8862140D01*
X4417324Y-8866902D01*
X4407800Y-8876426D01*
X4403038Y-8890712D01*
X4403038Y-8900236D01*
X4407800Y-8914521D01*
X4412562Y-8919283D01*
X4445895Y-8976426D02*
X4441133Y-8966902D01*
X4436371Y-8962140D01*
X4426848Y-8957379D01*
X4422086Y-8957379D01*
X4412562Y-8962140D01*
X4407800Y-8966902D01*
X4403038Y-8976426D01*
X4403038Y-8995474D01*
X4407800Y-9004998D01*
X4412562Y-9009760D01*
X4422086Y-9014521D01*
X4426848Y-9014521D01*
X4436371Y-9009760D01*
X4441133Y-9004998D01*
X4445895Y-8995474D01*
X4445895Y-8976426D01*
X4450657Y-8966902D01*
X4455419Y-8962140D01*
X4464943Y-8957379D01*
X4483990Y-8957379D01*
X4493514Y-8962140D01*
X4498276Y-8966902D01*
X4503038Y-8976426D01*
X4503038Y-8995474D01*
X4498276Y-9004998D01*
X4493514Y-9009760D01*
X4483990Y-9014521D01*
X4464943Y-9014521D01*
X4455419Y-9009760D01*
X4450657Y-9004998D01*
X4445895Y-8995474D01*
G04 #@! TO.C,C9*
X4977517Y-9167114D02*
X4982279Y-9171876D01*
X4996564Y-9176638D01*
X5006088Y-9176638D01*
X5020374Y-9171876D01*
X5029898Y-9162352D01*
X5034660Y-9152829D01*
X5039421Y-9133781D01*
X5039421Y-9119495D01*
X5034660Y-9100448D01*
X5029898Y-9090924D01*
X5020374Y-9081400D01*
X5006088Y-9076638D01*
X4996564Y-9076638D01*
X4982279Y-9081400D01*
X4977517Y-9086162D01*
X4929898Y-9176638D02*
X4910850Y-9176638D01*
X4901326Y-9171876D01*
X4896564Y-9167114D01*
X4887040Y-9152829D01*
X4882279Y-9133781D01*
X4882279Y-9095686D01*
X4887040Y-9086162D01*
X4891802Y-9081400D01*
X4901326Y-9076638D01*
X4920374Y-9076638D01*
X4929898Y-9081400D01*
X4934660Y-9086162D01*
X4939421Y-9095686D01*
X4939421Y-9119495D01*
X4934660Y-9129019D01*
X4929898Y-9133781D01*
X4920374Y-9138543D01*
X4901326Y-9138543D01*
X4891802Y-9133781D01*
X4887040Y-9129019D01*
X4882279Y-9119495D01*
G04 #@! TO.C,C13*
X4263136Y-9954314D02*
X4267898Y-9959076D01*
X4282183Y-9963838D01*
X4291707Y-9963838D01*
X4305993Y-9959076D01*
X4315517Y-9949552D01*
X4320279Y-9940029D01*
X4325040Y-9920981D01*
X4325040Y-9906695D01*
X4320279Y-9887648D01*
X4315517Y-9878124D01*
X4305993Y-9868600D01*
X4291707Y-9863838D01*
X4282183Y-9863838D01*
X4267898Y-9868600D01*
X4263136Y-9873362D01*
X4167898Y-9963838D02*
X4225040Y-9963838D01*
X4196469Y-9963838D02*
X4196469Y-9863838D01*
X4205993Y-9878124D01*
X4215517Y-9887648D01*
X4225040Y-9892410D01*
X4134564Y-9863838D02*
X4072659Y-9863838D01*
X4105993Y-9901933D01*
X4091707Y-9901933D01*
X4082183Y-9906695D01*
X4077421Y-9911457D01*
X4072659Y-9920981D01*
X4072659Y-9944790D01*
X4077421Y-9954314D01*
X4082183Y-9959076D01*
X4091707Y-9963838D01*
X4120278Y-9963838D01*
X4129802Y-9959076D01*
X4134564Y-9954314D01*
G04 #@! TO.C,C15*
X5974866Y-7604914D02*
X5979628Y-7609676D01*
X5993913Y-7614438D01*
X6003437Y-7614438D01*
X6017723Y-7609676D01*
X6027247Y-7600152D01*
X6032008Y-7590628D01*
X6036770Y-7571581D01*
X6036770Y-7557295D01*
X6032008Y-7538248D01*
X6027247Y-7528724D01*
X6017723Y-7519200D01*
X6003437Y-7514438D01*
X5993913Y-7514438D01*
X5979628Y-7519200D01*
X5974866Y-7523962D01*
X5879628Y-7614438D02*
X5936770Y-7614438D01*
X5908199Y-7614438D02*
X5908199Y-7514438D01*
X5917723Y-7528724D01*
X5927247Y-7538248D01*
X5936770Y-7543009D01*
X5789151Y-7514438D02*
X5836770Y-7514438D01*
X5841532Y-7562057D01*
X5836770Y-7557295D01*
X5827247Y-7552533D01*
X5803437Y-7552533D01*
X5793913Y-7557295D01*
X5789151Y-7562057D01*
X5784389Y-7571581D01*
X5784389Y-7595390D01*
X5789151Y-7604914D01*
X5793913Y-7609676D01*
X5803437Y-7614438D01*
X5827247Y-7614438D01*
X5836770Y-7609676D01*
X5841532Y-7604914D01*
G04 #@! TO.C,C17*
X4557546Y-8156094D02*
X4562308Y-8160856D01*
X4576593Y-8165618D01*
X4586117Y-8165618D01*
X4600403Y-8160856D01*
X4609927Y-8151332D01*
X4614689Y-8141808D01*
X4619450Y-8122761D01*
X4619450Y-8108475D01*
X4614689Y-8089428D01*
X4609927Y-8079904D01*
X4600403Y-8070380D01*
X4586117Y-8065618D01*
X4576593Y-8065618D01*
X4562308Y-8070380D01*
X4557546Y-8075142D01*
X4462308Y-8165618D02*
X4519450Y-8165618D01*
X4490879Y-8165618D02*
X4490879Y-8065618D01*
X4500403Y-8079904D01*
X4509927Y-8089428D01*
X4519450Y-8094189D01*
X4428974Y-8065618D02*
X4362308Y-8065618D01*
X4405165Y-8165618D01*
G04 #@! TO.C,C18*
X5990106Y-7368694D02*
X5994868Y-7373456D01*
X6009153Y-7378218D01*
X6018677Y-7378218D01*
X6032963Y-7373456D01*
X6042487Y-7363932D01*
X6047248Y-7354408D01*
X6052010Y-7335361D01*
X6052010Y-7321075D01*
X6047248Y-7302028D01*
X6042487Y-7292504D01*
X6032963Y-7282980D01*
X6018677Y-7278218D01*
X6009153Y-7278218D01*
X5994868Y-7282980D01*
X5990106Y-7287742D01*
X5894868Y-7378218D02*
X5952010Y-7378218D01*
X5923439Y-7378218D02*
X5923439Y-7278218D01*
X5932963Y-7292504D01*
X5942487Y-7302028D01*
X5952010Y-7306789D01*
X5837725Y-7321075D02*
X5847248Y-7316313D01*
X5852010Y-7311551D01*
X5856772Y-7302028D01*
X5856772Y-7297266D01*
X5852010Y-7287742D01*
X5847248Y-7282980D01*
X5837725Y-7278218D01*
X5818677Y-7278218D01*
X5809153Y-7282980D01*
X5804391Y-7287742D01*
X5799629Y-7297266D01*
X5799629Y-7302028D01*
X5804391Y-7311551D01*
X5809153Y-7316313D01*
X5818677Y-7321075D01*
X5837725Y-7321075D01*
X5847248Y-7325837D01*
X5852010Y-7330599D01*
X5856772Y-7340123D01*
X5856772Y-7359170D01*
X5852010Y-7368694D01*
X5847248Y-7373456D01*
X5837725Y-7378218D01*
X5818677Y-7378218D01*
X5809153Y-7373456D01*
X5804391Y-7368694D01*
X5799629Y-7359170D01*
X5799629Y-7340123D01*
X5804391Y-7330599D01*
X5809153Y-7325837D01*
X5818677Y-7321075D01*
G04 #@! TO.C,C20*
X4544846Y-7940194D02*
X4549608Y-7944956D01*
X4563893Y-7949718D01*
X4573417Y-7949718D01*
X4587703Y-7944956D01*
X4597227Y-7935432D01*
X4601989Y-7925908D01*
X4606750Y-7906861D01*
X4606750Y-7892575D01*
X4601989Y-7873528D01*
X4597227Y-7864004D01*
X4587703Y-7854480D01*
X4573417Y-7849718D01*
X4563893Y-7849718D01*
X4549608Y-7854480D01*
X4544846Y-7859242D01*
X4506750Y-7859242D02*
X4501989Y-7854480D01*
X4492465Y-7849718D01*
X4468655Y-7849718D01*
X4459131Y-7854480D01*
X4454370Y-7859242D01*
X4449608Y-7868766D01*
X4449608Y-7878289D01*
X4454370Y-7892575D01*
X4511512Y-7949718D01*
X4449608Y-7949718D01*
X4387703Y-7849718D02*
X4378179Y-7849718D01*
X4368655Y-7854480D01*
X4363893Y-7859242D01*
X4359131Y-7868766D01*
X4354370Y-7887813D01*
X4354370Y-7911623D01*
X4359131Y-7930670D01*
X4363893Y-7940194D01*
X4368655Y-7944956D01*
X4378179Y-7949718D01*
X4387703Y-7949718D01*
X4397227Y-7944956D01*
X4401989Y-7940194D01*
X4406750Y-7930670D01*
X4411512Y-7911623D01*
X4411512Y-7887813D01*
X4406750Y-7868766D01*
X4401989Y-7859242D01*
X4397227Y-7854480D01*
X4387703Y-7849718D01*
G04 #@! TO.C,C36*
X11059946Y-5504334D02*
X11064708Y-5509096D01*
X11078993Y-5513858D01*
X11088517Y-5513858D01*
X11102803Y-5509096D01*
X11112327Y-5499572D01*
X11117089Y-5490049D01*
X11121850Y-5471001D01*
X11121850Y-5456715D01*
X11117089Y-5437668D01*
X11112327Y-5428144D01*
X11102803Y-5418620D01*
X11088517Y-5413858D01*
X11078993Y-5413858D01*
X11064708Y-5418620D01*
X11059946Y-5423382D01*
X11026612Y-5413858D02*
X10964708Y-5413858D01*
X10998041Y-5451953D01*
X10983755Y-5451953D01*
X10974231Y-5456715D01*
X10969470Y-5461477D01*
X10964708Y-5471001D01*
X10964708Y-5494810D01*
X10969470Y-5504334D01*
X10974231Y-5509096D01*
X10983755Y-5513858D01*
X11012327Y-5513858D01*
X11021850Y-5509096D01*
X11026612Y-5504334D01*
X10878993Y-5413858D02*
X10898041Y-5413858D01*
X10907565Y-5418620D01*
X10912327Y-5423382D01*
X10921850Y-5437668D01*
X10926612Y-5456715D01*
X10926612Y-5494810D01*
X10921850Y-5504334D01*
X10917089Y-5509096D01*
X10907565Y-5513858D01*
X10888517Y-5513858D01*
X10878993Y-5509096D01*
X10874231Y-5504334D01*
X10869470Y-5494810D01*
X10869470Y-5471001D01*
X10874231Y-5461477D01*
X10878993Y-5456715D01*
X10888517Y-5451953D01*
X10907565Y-5451953D01*
X10917089Y-5456715D01*
X10921850Y-5461477D01*
X10926612Y-5471001D01*
G04 #@! TO.C,C37*
X8113546Y-6169814D02*
X8118308Y-6174576D01*
X8132593Y-6179338D01*
X8142117Y-6179338D01*
X8156403Y-6174576D01*
X8165927Y-6165052D01*
X8170688Y-6155528D01*
X8175450Y-6136481D01*
X8175450Y-6122195D01*
X8170688Y-6103148D01*
X8165927Y-6093624D01*
X8156403Y-6084100D01*
X8142117Y-6079338D01*
X8132593Y-6079338D01*
X8118308Y-6084100D01*
X8113546Y-6088862D01*
X8080212Y-6079338D02*
X8018308Y-6079338D01*
X8051641Y-6117433D01*
X8037355Y-6117433D01*
X8027831Y-6122195D01*
X8023069Y-6126957D01*
X8018308Y-6136481D01*
X8018308Y-6160290D01*
X8023069Y-6169814D01*
X8027831Y-6174576D01*
X8037355Y-6179338D01*
X8065927Y-6179338D01*
X8075450Y-6174576D01*
X8080212Y-6169814D01*
X7984974Y-6079338D02*
X7918308Y-6079338D01*
X7961165Y-6179338D01*
G04 #@! TO.C,C43*
X9617226Y-6179974D02*
X9621988Y-6184736D01*
X9636273Y-6189498D01*
X9645797Y-6189498D01*
X9660083Y-6184736D01*
X9669607Y-6175212D01*
X9674369Y-6165688D01*
X9679130Y-6146641D01*
X9679130Y-6132355D01*
X9674369Y-6113308D01*
X9669607Y-6103784D01*
X9660083Y-6094260D01*
X9645797Y-6089498D01*
X9636273Y-6089498D01*
X9621988Y-6094260D01*
X9617226Y-6099022D01*
X9531511Y-6122831D02*
X9531511Y-6189498D01*
X9555321Y-6084736D02*
X9579130Y-6156165D01*
X9517226Y-6156165D01*
X9488654Y-6089498D02*
X9426750Y-6089498D01*
X9460083Y-6127593D01*
X9445797Y-6127593D01*
X9436273Y-6132355D01*
X9431511Y-6137117D01*
X9426750Y-6146641D01*
X9426750Y-6170450D01*
X9431511Y-6179974D01*
X9436273Y-6184736D01*
X9445797Y-6189498D01*
X9474369Y-6189498D01*
X9483892Y-6184736D01*
X9488654Y-6179974D01*
G04 #@! TO.C,Q7*
D17*
X11762832Y-6469086D02*
X11758067Y-6459557D01*
X11748538Y-6450027D01*
X11734243Y-6435733D01*
X11729479Y-6426203D01*
X11729479Y-6416673D01*
X11753303Y-6421438D02*
X11748538Y-6411909D01*
X11739008Y-6402379D01*
X11719949Y-6397614D01*
X11686595Y-6397614D01*
X11667536Y-6402379D01*
X11658006Y-6411909D01*
X11653242Y-6421438D01*
X11653242Y-6440497D01*
X11658006Y-6450027D01*
X11667536Y-6459557D01*
X11686595Y-6464321D01*
X11719949Y-6464321D01*
X11739008Y-6459557D01*
X11748538Y-6450027D01*
X11753303Y-6440497D01*
X11753303Y-6421438D01*
X11653242Y-6497675D02*
X11653242Y-6564382D01*
X11753303Y-6521499D01*
G04 #@! TO.C,Q1*
X10066314Y-6518982D02*
X10075843Y-6514217D01*
X10085373Y-6504688D01*
X10099667Y-6490393D01*
X10109197Y-6485629D01*
X10118727Y-6485629D01*
X10113962Y-6509453D02*
X10123491Y-6504688D01*
X10133021Y-6495158D01*
X10137786Y-6476099D01*
X10137786Y-6442745D01*
X10133021Y-6423686D01*
X10123491Y-6414156D01*
X10113962Y-6409392D01*
X10094902Y-6409392D01*
X10085373Y-6414156D01*
X10075843Y-6423686D01*
X10071078Y-6442745D01*
X10071078Y-6476099D01*
X10075843Y-6495158D01*
X10085373Y-6504688D01*
X10094902Y-6509453D01*
X10113962Y-6509453D01*
X9975782Y-6509453D02*
X10032960Y-6509453D01*
X10004371Y-6509453D02*
X10004371Y-6409392D01*
X10013901Y-6423686D01*
X10023430Y-6433216D01*
X10032960Y-6437980D01*
G04 #@! TO.C,Q2*
X10088250Y-4771575D02*
X10097779Y-4766811D01*
X10107309Y-4757281D01*
X10121603Y-4742986D01*
X10131133Y-4738222D01*
X10140663Y-4738222D01*
X10135898Y-4762046D02*
X10145427Y-4757281D01*
X10154957Y-4747751D01*
X10159722Y-4728692D01*
X10159722Y-4695338D01*
X10154957Y-4676279D01*
X10145427Y-4666750D01*
X10135898Y-4661985D01*
X10116838Y-4661985D01*
X10107309Y-4666750D01*
X10097779Y-4676279D01*
X10093014Y-4695338D01*
X10093014Y-4728692D01*
X10097779Y-4747751D01*
X10107309Y-4757281D01*
X10116838Y-4762046D01*
X10135898Y-4762046D01*
X10054896Y-4671514D02*
X10050131Y-4666750D01*
X10040602Y-4661985D01*
X10016777Y-4661985D01*
X10007248Y-4666750D01*
X10002483Y-4671514D01*
X9997718Y-4681044D01*
X9997718Y-4690574D01*
X10002483Y-4704868D01*
X10059661Y-4762046D01*
X9997718Y-4762046D01*
G04 #@! TO.C,Q3*
X7069114Y-6519082D02*
X7078643Y-6514317D01*
X7088173Y-6504788D01*
X7102467Y-6490493D01*
X7111997Y-6485729D01*
X7121526Y-6485729D01*
X7116762Y-6509553D02*
X7126291Y-6504788D01*
X7135821Y-6495258D01*
X7140586Y-6476199D01*
X7140586Y-6442845D01*
X7135821Y-6423786D01*
X7126291Y-6414256D01*
X7116762Y-6409492D01*
X7097702Y-6409492D01*
X7088173Y-6414256D01*
X7078643Y-6423786D01*
X7073878Y-6442845D01*
X7073878Y-6476199D01*
X7078643Y-6495258D01*
X7088173Y-6504788D01*
X7097702Y-6509553D01*
X7116762Y-6509553D01*
X7040525Y-6409492D02*
X6978582Y-6409492D01*
X7011936Y-6447610D01*
X6997641Y-6447610D01*
X6988112Y-6452375D01*
X6983347Y-6457140D01*
X6978582Y-6466669D01*
X6978582Y-6490493D01*
X6983347Y-6500023D01*
X6988112Y-6504788D01*
X6997641Y-6509553D01*
X7026230Y-6509553D01*
X7035760Y-6504788D01*
X7040525Y-6500023D01*
G04 #@! TO.C,Q4*
X7085970Y-4842695D02*
X7095499Y-4837931D01*
X7105029Y-4828401D01*
X7119323Y-4814106D01*
X7128853Y-4809342D01*
X7138382Y-4809342D01*
X7133618Y-4833166D02*
X7143147Y-4828401D01*
X7152677Y-4818871D01*
X7157442Y-4799812D01*
X7157442Y-4766458D01*
X7152677Y-4747399D01*
X7143147Y-4737870D01*
X7133618Y-4733105D01*
X7114558Y-4733105D01*
X7105029Y-4737870D01*
X7095499Y-4747399D01*
X7090734Y-4766458D01*
X7090734Y-4799812D01*
X7095499Y-4818871D01*
X7105029Y-4828401D01*
X7114558Y-4833166D01*
X7133618Y-4833166D01*
X7004968Y-4766458D02*
X7004968Y-4833166D01*
X7028792Y-4728340D02*
X7052616Y-4799812D01*
X6990673Y-4799812D01*
G04 #@! TO.C,Q5*
X8567714Y-6518982D02*
X8577243Y-6514217D01*
X8586773Y-6504688D01*
X8601067Y-6490393D01*
X8610597Y-6485629D01*
X8620127Y-6485629D01*
X8615362Y-6509453D02*
X8624891Y-6504688D01*
X8634421Y-6495158D01*
X8639186Y-6476099D01*
X8639186Y-6442745D01*
X8634421Y-6423686D01*
X8624891Y-6414156D01*
X8615362Y-6409392D01*
X8596302Y-6409392D01*
X8586773Y-6414156D01*
X8577243Y-6423686D01*
X8572478Y-6442745D01*
X8572478Y-6476099D01*
X8577243Y-6495158D01*
X8586773Y-6504688D01*
X8596302Y-6509453D01*
X8615362Y-6509453D01*
X8481947Y-6409392D02*
X8529595Y-6409392D01*
X8534360Y-6457040D01*
X8529595Y-6452275D01*
X8520066Y-6447510D01*
X8496241Y-6447510D01*
X8486712Y-6452275D01*
X8481947Y-6457040D01*
X8477182Y-6466569D01*
X8477182Y-6490393D01*
X8481947Y-6499923D01*
X8486712Y-6504688D01*
X8496241Y-6509453D01*
X8520066Y-6509453D01*
X8529595Y-6504688D01*
X8534360Y-6499923D01*
G04 #@! TO.C,Q6*
X8604890Y-4796975D02*
X8614419Y-4792211D01*
X8623949Y-4782681D01*
X8638243Y-4768386D01*
X8647773Y-4763622D01*
X8657303Y-4763622D01*
X8652538Y-4787446D02*
X8662067Y-4782681D01*
X8671597Y-4773151D01*
X8676362Y-4754092D01*
X8676362Y-4720738D01*
X8671597Y-4701679D01*
X8662067Y-4692150D01*
X8652538Y-4687385D01*
X8633478Y-4687385D01*
X8623949Y-4692150D01*
X8614419Y-4701679D01*
X8609654Y-4720738D01*
X8609654Y-4754092D01*
X8614419Y-4773151D01*
X8623949Y-4782681D01*
X8633478Y-4787446D01*
X8652538Y-4787446D01*
X8523888Y-4687385D02*
X8542947Y-4687385D01*
X8552477Y-4692150D01*
X8557242Y-4696914D01*
X8566771Y-4711209D01*
X8571536Y-4730268D01*
X8571536Y-4768386D01*
X8566771Y-4777916D01*
X8562006Y-4782681D01*
X8552477Y-4787446D01*
X8533417Y-4787446D01*
X8523888Y-4782681D01*
X8519123Y-4777916D01*
X8514358Y-4768386D01*
X8514358Y-4744562D01*
X8519123Y-4735033D01*
X8523888Y-4730268D01*
X8533417Y-4725503D01*
X8552477Y-4725503D01*
X8562006Y-4730268D01*
X8566771Y-4735033D01*
X8571536Y-4744562D01*
G04 #@! TO.C,R9*
D11*
X4824114Y-10483830D02*
X4839150Y-10427682D01*
X4877811Y-10464286D02*
X4843609Y-10370316D01*
X4807811Y-10383346D01*
X4800490Y-10391078D01*
X4797644Y-10397181D01*
X4796427Y-10407759D01*
X4801313Y-10421183D01*
X4809045Y-10428504D01*
X4815148Y-10431350D01*
X4825726Y-10432568D01*
X4861524Y-10419538D01*
X4779367Y-10500116D02*
X4761468Y-10506631D01*
X4750890Y-10505414D01*
X4744786Y-10502567D01*
X4730951Y-10492401D01*
X4719961Y-10476130D01*
X4706932Y-10440333D01*
X4708149Y-10429754D01*
X4710995Y-10423651D01*
X4718316Y-10415919D01*
X4736215Y-10409404D01*
X4746793Y-10410622D01*
X4752897Y-10413468D01*
X4760629Y-10420789D01*
X4768772Y-10443162D01*
X4767555Y-10453740D01*
X4764709Y-10459844D01*
X4757388Y-10467576D01*
X4739489Y-10474090D01*
X4728911Y-10472873D01*
X4722807Y-10470027D01*
X4715075Y-10462706D01*
G04 #@! TO.C,R10*
X5000941Y-10884103D02*
X5015978Y-10827955D01*
X5054638Y-10864559D02*
X5020436Y-10770590D01*
X4984638Y-10783619D01*
X4977317Y-10791351D01*
X4974471Y-10797454D01*
X4973254Y-10808033D01*
X4978140Y-10821457D01*
X4985872Y-10828778D01*
X4991975Y-10831624D01*
X5002553Y-10832841D01*
X5038351Y-10819812D01*
X4911447Y-10916676D02*
X4965143Y-10897132D01*
X4938295Y-10906904D02*
X4904093Y-10812935D01*
X4917928Y-10823102D01*
X4930135Y-10828794D01*
X4940713Y-10830011D01*
X4819073Y-10843880D02*
X4810124Y-10847137D01*
X4802803Y-10854869D01*
X4799957Y-10860972D01*
X4798739Y-10871551D01*
X4800779Y-10891078D01*
X4808923Y-10913452D01*
X4819912Y-10929722D01*
X4827644Y-10937043D01*
X4833748Y-10939889D01*
X4844326Y-10941106D01*
X4853275Y-10937849D01*
X4860596Y-10930117D01*
X4863442Y-10924013D01*
X4864659Y-10913435D01*
X4862619Y-10893908D01*
X4854476Y-10871534D01*
X4843487Y-10855264D01*
X4835755Y-10847943D01*
X4829651Y-10845097D01*
X4819073Y-10843880D01*
G04 #@! TO.C,R11*
X4904421Y-10675823D02*
X4919458Y-10619675D01*
X4958118Y-10656279D02*
X4923916Y-10562310D01*
X4888118Y-10575339D01*
X4880797Y-10583071D01*
X4877951Y-10589174D01*
X4876734Y-10599753D01*
X4881620Y-10613177D01*
X4889352Y-10620498D01*
X4895455Y-10623344D01*
X4906033Y-10624561D01*
X4941831Y-10611532D01*
X4814927Y-10708396D02*
X4868623Y-10688852D01*
X4841775Y-10698624D02*
X4807573Y-10604655D01*
X4821408Y-10614822D01*
X4833615Y-10620514D01*
X4844193Y-10621731D01*
X4725432Y-10740970D02*
X4779129Y-10721426D01*
X4752280Y-10731198D02*
X4718078Y-10637228D01*
X4731914Y-10647395D01*
X4744121Y-10653087D01*
X4754699Y-10654305D01*
G04 #@! TO.C,R14*
X5366438Y-7987514D02*
X5318819Y-7954181D01*
X5366438Y-7930371D02*
X5266438Y-7930371D01*
X5266438Y-7968467D01*
X5271200Y-7977990D01*
X5275962Y-7982752D01*
X5285486Y-7987514D01*
X5299771Y-7987514D01*
X5309295Y-7982752D01*
X5314057Y-7977990D01*
X5318819Y-7968467D01*
X5318819Y-7930371D01*
X5366438Y-8082752D02*
X5366438Y-8025609D01*
X5366438Y-8054181D02*
X5266438Y-8054181D01*
X5280724Y-8044657D01*
X5290248Y-8035133D01*
X5295010Y-8025609D01*
X5299771Y-8168467D02*
X5366438Y-8168467D01*
X5261676Y-8144657D02*
X5333105Y-8120848D01*
X5333105Y-8182752D01*
G04 #@! TO.C,R16*
X4534686Y-7723658D02*
X4568019Y-7676039D01*
X4591829Y-7723658D02*
X4591829Y-7623658D01*
X4553733Y-7623658D01*
X4544210Y-7628420D01*
X4539448Y-7633182D01*
X4534686Y-7642706D01*
X4534686Y-7656991D01*
X4539448Y-7666515D01*
X4544210Y-7671277D01*
X4553733Y-7676039D01*
X4591829Y-7676039D01*
X4439448Y-7723658D02*
X4496590Y-7723658D01*
X4468019Y-7723658D02*
X4468019Y-7623658D01*
X4477543Y-7637944D01*
X4487067Y-7647468D01*
X4496590Y-7652229D01*
X4353733Y-7623658D02*
X4372781Y-7623658D01*
X4382305Y-7628420D01*
X4387067Y-7633182D01*
X4396590Y-7647468D01*
X4401352Y-7666515D01*
X4401352Y-7704610D01*
X4396590Y-7714134D01*
X4391829Y-7718896D01*
X4382305Y-7723658D01*
X4363257Y-7723658D01*
X4353733Y-7718896D01*
X4348971Y-7714134D01*
X4344210Y-7704610D01*
X4344210Y-7680801D01*
X4348971Y-7671277D01*
X4353733Y-7666515D01*
X4363257Y-7661753D01*
X4382305Y-7661753D01*
X4391829Y-7666515D01*
X4396590Y-7671277D01*
X4401352Y-7680801D01*
G04 #@! TO.C,R19*
X6077638Y-6252464D02*
X6030019Y-6219131D01*
X6077638Y-6195321D02*
X5977638Y-6195321D01*
X5977638Y-6233417D01*
X5982400Y-6242940D01*
X5987162Y-6247702D01*
X5996686Y-6252464D01*
X6010971Y-6252464D01*
X6020495Y-6247702D01*
X6025257Y-6242940D01*
X6030019Y-6233417D01*
X6030019Y-6195321D01*
X6077638Y-6347702D02*
X6077638Y-6290559D01*
X6077638Y-6319131D02*
X5977638Y-6319131D01*
X5991924Y-6309607D01*
X6001448Y-6300083D01*
X6006209Y-6290559D01*
X6077638Y-6395321D02*
X6077638Y-6414369D01*
X6072876Y-6423893D01*
X6068114Y-6428655D01*
X6053828Y-6438178D01*
X6034781Y-6442940D01*
X5996686Y-6442940D01*
X5987162Y-6438178D01*
X5982400Y-6433417D01*
X5977638Y-6423893D01*
X5977638Y-6404845D01*
X5982400Y-6395321D01*
X5987162Y-6390559D01*
X5996686Y-6385798D01*
X6020495Y-6385798D01*
X6030019Y-6390559D01*
X6034781Y-6395321D01*
X6039543Y-6404845D01*
X6039543Y-6423893D01*
X6034781Y-6433417D01*
X6030019Y-6438178D01*
X6020495Y-6442940D01*
G04 #@! TO.C,R20*
X5747638Y-5820664D02*
X5700019Y-5787331D01*
X5747638Y-5763521D02*
X5647638Y-5763521D01*
X5647638Y-5801617D01*
X5652400Y-5811140D01*
X5657162Y-5815902D01*
X5666686Y-5820664D01*
X5680971Y-5820664D01*
X5690495Y-5815902D01*
X5695257Y-5811140D01*
X5700019Y-5801617D01*
X5700019Y-5763521D01*
X5657162Y-5858759D02*
X5652400Y-5863521D01*
X5647638Y-5873045D01*
X5647638Y-5896855D01*
X5652400Y-5906378D01*
X5657162Y-5911140D01*
X5666686Y-5915902D01*
X5676209Y-5915902D01*
X5690495Y-5911140D01*
X5747638Y-5853998D01*
X5747638Y-5915902D01*
X5647638Y-5977807D02*
X5647638Y-5987331D01*
X5652400Y-5996855D01*
X5657162Y-6001617D01*
X5666686Y-6006378D01*
X5685733Y-6011140D01*
X5709543Y-6011140D01*
X5728590Y-6006378D01*
X5738114Y-6001617D01*
X5742876Y-5996855D01*
X5747638Y-5987331D01*
X5747638Y-5977807D01*
X5742876Y-5968283D01*
X5738114Y-5963521D01*
X5728590Y-5958759D01*
X5709543Y-5953998D01*
X5685733Y-5953998D01*
X5666686Y-5958759D01*
X5657162Y-5963521D01*
X5652400Y-5968283D01*
X5647638Y-5977807D01*
G04 #@! TO.C,R21*
X6433238Y-6252464D02*
X6385619Y-6219131D01*
X6433238Y-6195321D02*
X6333238Y-6195321D01*
X6333238Y-6233417D01*
X6338000Y-6242940D01*
X6342762Y-6247702D01*
X6352286Y-6252464D01*
X6366571Y-6252464D01*
X6376095Y-6247702D01*
X6380857Y-6242940D01*
X6385619Y-6233417D01*
X6385619Y-6195321D01*
X6342762Y-6290559D02*
X6338000Y-6295321D01*
X6333238Y-6304845D01*
X6333238Y-6328655D01*
X6338000Y-6338178D01*
X6342762Y-6342940D01*
X6352286Y-6347702D01*
X6361809Y-6347702D01*
X6376095Y-6342940D01*
X6433238Y-6285798D01*
X6433238Y-6347702D01*
X6433238Y-6442940D02*
X6433238Y-6385798D01*
X6433238Y-6414369D02*
X6333238Y-6414369D01*
X6347524Y-6404845D01*
X6357048Y-6395321D01*
X6361809Y-6385798D01*
G04 #@! TO.C,R22*
X6103238Y-5820664D02*
X6055619Y-5787331D01*
X6103238Y-5763521D02*
X6003238Y-5763521D01*
X6003238Y-5801617D01*
X6008000Y-5811140D01*
X6012762Y-5815902D01*
X6022286Y-5820664D01*
X6036571Y-5820664D01*
X6046095Y-5815902D01*
X6050857Y-5811140D01*
X6055619Y-5801617D01*
X6055619Y-5763521D01*
X6012762Y-5858759D02*
X6008000Y-5863521D01*
X6003238Y-5873045D01*
X6003238Y-5896855D01*
X6008000Y-5906378D01*
X6012762Y-5911140D01*
X6022286Y-5915902D01*
X6031809Y-5915902D01*
X6046095Y-5911140D01*
X6103238Y-5853998D01*
X6103238Y-5915902D01*
X6012762Y-5953998D02*
X6008000Y-5958759D01*
X6003238Y-5968283D01*
X6003238Y-5992093D01*
X6008000Y-6001617D01*
X6012762Y-6006378D01*
X6022286Y-6011140D01*
X6031809Y-6011140D01*
X6046095Y-6006378D01*
X6103238Y-5949236D01*
X6103238Y-6011140D01*
G04 #@! TO.C,R23*
X6788838Y-6252464D02*
X6741219Y-6219131D01*
X6788838Y-6195321D02*
X6688838Y-6195321D01*
X6688838Y-6233417D01*
X6693600Y-6242940D01*
X6698362Y-6247702D01*
X6707886Y-6252464D01*
X6722171Y-6252464D01*
X6731695Y-6247702D01*
X6736457Y-6242940D01*
X6741219Y-6233417D01*
X6741219Y-6195321D01*
X6698362Y-6290559D02*
X6693600Y-6295321D01*
X6688838Y-6304845D01*
X6688838Y-6328655D01*
X6693600Y-6338178D01*
X6698362Y-6342940D01*
X6707886Y-6347702D01*
X6717409Y-6347702D01*
X6731695Y-6342940D01*
X6788838Y-6285798D01*
X6788838Y-6347702D01*
X6688838Y-6381036D02*
X6688838Y-6442940D01*
X6726933Y-6409607D01*
X6726933Y-6423893D01*
X6731695Y-6433417D01*
X6736457Y-6438178D01*
X6745981Y-6442940D01*
X6769790Y-6442940D01*
X6779314Y-6438178D01*
X6784076Y-6433417D01*
X6788838Y-6423893D01*
X6788838Y-6395321D01*
X6784076Y-6385798D01*
X6779314Y-6381036D01*
G04 #@! TO.C,R24*
X6458838Y-5820664D02*
X6411219Y-5787331D01*
X6458838Y-5763521D02*
X6358838Y-5763521D01*
X6358838Y-5801617D01*
X6363600Y-5811140D01*
X6368362Y-5815902D01*
X6377886Y-5820664D01*
X6392171Y-5820664D01*
X6401695Y-5815902D01*
X6406457Y-5811140D01*
X6411219Y-5801617D01*
X6411219Y-5763521D01*
X6368362Y-5858759D02*
X6363600Y-5863521D01*
X6358838Y-5873045D01*
X6358838Y-5896855D01*
X6363600Y-5906378D01*
X6368362Y-5911140D01*
X6377886Y-5915902D01*
X6387409Y-5915902D01*
X6401695Y-5911140D01*
X6458838Y-5853998D01*
X6458838Y-5915902D01*
X6392171Y-6001617D02*
X6458838Y-6001617D01*
X6354076Y-5977807D02*
X6425505Y-5953998D01*
X6425505Y-6015902D01*
G04 #@! TO.C,R31*
X10497438Y-5345914D02*
X10449819Y-5312581D01*
X10497438Y-5288771D02*
X10397438Y-5288771D01*
X10397438Y-5326867D01*
X10402200Y-5336390D01*
X10406962Y-5341152D01*
X10416486Y-5345914D01*
X10430771Y-5345914D01*
X10440295Y-5341152D01*
X10445057Y-5336390D01*
X10449819Y-5326867D01*
X10449819Y-5288771D01*
X10397438Y-5379248D02*
X10397438Y-5441152D01*
X10435533Y-5407819D01*
X10435533Y-5422105D01*
X10440295Y-5431629D01*
X10445057Y-5436390D01*
X10454581Y-5441152D01*
X10478390Y-5441152D01*
X10487914Y-5436390D01*
X10492676Y-5431629D01*
X10497438Y-5422105D01*
X10497438Y-5393533D01*
X10492676Y-5384010D01*
X10487914Y-5379248D01*
X10497438Y-5536390D02*
X10497438Y-5479248D01*
X10497438Y-5507819D02*
X10397438Y-5507819D01*
X10411724Y-5498295D01*
X10421248Y-5488771D01*
X10426010Y-5479248D01*
G04 #@! TO.C,R32*
X7525638Y-5360714D02*
X7478019Y-5327381D01*
X7525638Y-5303571D02*
X7425638Y-5303571D01*
X7425638Y-5341667D01*
X7430400Y-5351190D01*
X7435162Y-5355952D01*
X7444686Y-5360714D01*
X7458971Y-5360714D01*
X7468495Y-5355952D01*
X7473257Y-5351190D01*
X7478019Y-5341667D01*
X7478019Y-5303571D01*
X7425638Y-5394048D02*
X7425638Y-5455952D01*
X7463733Y-5422619D01*
X7463733Y-5436905D01*
X7468495Y-5446429D01*
X7473257Y-5451190D01*
X7482781Y-5455952D01*
X7506590Y-5455952D01*
X7516114Y-5451190D01*
X7520876Y-5446429D01*
X7525638Y-5436905D01*
X7525638Y-5408333D01*
X7520876Y-5398810D01*
X7516114Y-5394048D01*
X7435162Y-5494048D02*
X7430400Y-5498810D01*
X7425638Y-5508333D01*
X7425638Y-5532143D01*
X7430400Y-5541667D01*
X7435162Y-5546429D01*
X7444686Y-5551190D01*
X7454209Y-5551190D01*
X7468495Y-5546429D01*
X7525638Y-5489286D01*
X7525638Y-5551190D01*
G04 #@! TO.C,R37*
X9024238Y-5360714D02*
X8976619Y-5327381D01*
X9024238Y-5303571D02*
X8924238Y-5303571D01*
X8924238Y-5341667D01*
X8929000Y-5351190D01*
X8933762Y-5355952D01*
X8943286Y-5360714D01*
X8957571Y-5360714D01*
X8967095Y-5355952D01*
X8971857Y-5351190D01*
X8976619Y-5341667D01*
X8976619Y-5303571D01*
X8924238Y-5394048D02*
X8924238Y-5455952D01*
X8962333Y-5422619D01*
X8962333Y-5436905D01*
X8967095Y-5446429D01*
X8971857Y-5451190D01*
X8981381Y-5455952D01*
X9005190Y-5455952D01*
X9014714Y-5451190D01*
X9019476Y-5446429D01*
X9024238Y-5436905D01*
X9024238Y-5408333D01*
X9019476Y-5398810D01*
X9014714Y-5394048D01*
X8924238Y-5489286D02*
X8924238Y-5555952D01*
X9024238Y-5513095D01*
G04 #@! TO.C,R40*
X11559886Y-7322238D02*
X11593219Y-7274619D01*
X11617028Y-7322238D02*
X11617028Y-7222238D01*
X11578933Y-7222238D01*
X11569409Y-7227000D01*
X11564648Y-7231762D01*
X11559886Y-7241286D01*
X11559886Y-7255571D01*
X11564648Y-7265095D01*
X11569409Y-7269857D01*
X11578933Y-7274619D01*
X11617028Y-7274619D01*
X11474171Y-7255571D02*
X11474171Y-7322238D01*
X11497981Y-7217476D02*
X11521790Y-7288905D01*
X11459886Y-7288905D01*
X11402743Y-7222238D02*
X11393219Y-7222238D01*
X11383695Y-7227000D01*
X11378933Y-7231762D01*
X11374171Y-7241286D01*
X11369409Y-7260333D01*
X11369409Y-7284143D01*
X11374171Y-7303190D01*
X11378933Y-7312714D01*
X11383695Y-7317476D01*
X11393219Y-7322238D01*
X11402743Y-7322238D01*
X11412267Y-7317476D01*
X11417028Y-7312714D01*
X11421790Y-7303190D01*
X11426552Y-7284143D01*
X11426552Y-7260333D01*
X11421790Y-7241286D01*
X11417028Y-7231762D01*
X11412267Y-7227000D01*
X11402743Y-7222238D01*
G04 #@! TO.C,R41*
X6369738Y-12097464D02*
X6322119Y-12064131D01*
X6369738Y-12040321D02*
X6269738Y-12040321D01*
X6269738Y-12078417D01*
X6274500Y-12087940D01*
X6279262Y-12092702D01*
X6288786Y-12097464D01*
X6303071Y-12097464D01*
X6312595Y-12092702D01*
X6317357Y-12087940D01*
X6322119Y-12078417D01*
X6322119Y-12040321D01*
X6303071Y-12183178D02*
X6369738Y-12183178D01*
X6264976Y-12159369D02*
X6336405Y-12135559D01*
X6336405Y-12197464D01*
X6369738Y-12287940D02*
X6369738Y-12230798D01*
X6369738Y-12259369D02*
X6269738Y-12259369D01*
X6284024Y-12249845D01*
X6293548Y-12240321D01*
X6298309Y-12230798D01*
G04 #@! TD*
M02*
