%TF.GenerationSoftware,KiCad,Pcbnew,5.1.9+dfsg1-1*%
%TF.CreationDate,2021-08-29T13:30:48+02:00*%
%TF.ProjectId,gesc,67657363-2e6b-4696-9361-645f70636258,6*%
%TF.SameCoordinates,Original*%
%TF.FileFunction,Paste,Top*%
%TF.FilePolarity,Positive*%
%FSLAX46Y46*%
G04 Gerber Fmt 4.6, Leading zero omitted, Abs format (unit mm)*
G04 Created by KiCad (PCBNEW 5.1.9+dfsg1-1) date 2021-08-29 13:30:48*
%MOMM*%
%LPD*%
G01*
G04 APERTURE LIST*
%TA.AperFunction,Profile*%
%ADD10C,0.200000*%
%TD*%
%ADD11C,0.010000*%
%ADD12R,1.200000X0.900000*%
%ADD13R,1.950000X1.050000*%
%ADD14R,1.450000X0.850000*%
%ADD15R,1.050000X0.850000*%
%ADD16R,0.850000X1.450000*%
%ADD17R,0.850000X1.050000*%
%ADD18R,1.500000X2.000000*%
%ADD19R,3.800000X2.000000*%
%ADD20R,1.700000X1.300000*%
%ADD21R,2.400000X1.500000*%
%ADD22R,1.200000X0.800000*%
%ADD23R,0.568000X1.309599*%
%ADD24R,1.498600X0.457200*%
%ADD25R,2.400000X2.000000*%
%ADD26R,0.250000X1.000000*%
%ADD27R,1.000000X0.250000*%
%ADD28R,1.450000X0.450000*%
%ADD29R,2.500000X1.800000*%
G04 APERTURE END LIST*
D10*
X155499800Y-99999800D02*
G75*
G03*
X155499800Y-99999800I-55500000J0D01*
G01*
X124500000Y-100000000D02*
G75*
G03*
X124500000Y-100000000I-24500000J0D01*
G01*
D11*
G36*
X92390000Y-57836000D02*
G01*
X89410000Y-57836000D01*
X89410000Y-55464000D01*
X92390000Y-55464000D01*
X92390000Y-57836000D01*
G37*
X92390000Y-57836000D02*
X89410000Y-57836000D01*
X89410000Y-55464000D01*
X92390000Y-55464000D01*
X92390000Y-57836000D01*
G36*
X91160000Y-66764000D02*
G01*
X94140000Y-66764000D01*
X94140000Y-69136000D01*
X91160000Y-69136000D01*
X91160000Y-66764000D01*
G37*
X91160000Y-66764000D02*
X94140000Y-66764000D01*
X94140000Y-69136000D01*
X91160000Y-69136000D01*
X91160000Y-66764000D01*
G36*
X134664000Y-68440000D02*
G01*
X134664000Y-65460000D01*
X137036000Y-65460000D01*
X137036000Y-68440000D01*
X134664000Y-68440000D01*
G37*
X134664000Y-68440000D02*
X134664000Y-65460000D01*
X137036000Y-65460000D01*
X137036000Y-68440000D01*
X134664000Y-68440000D01*
G36*
X126086000Y-66210000D02*
G01*
X126086000Y-69190000D01*
X123714000Y-69190000D01*
X123714000Y-66210000D01*
X126086000Y-66210000D01*
G37*
X126086000Y-66210000D02*
X126086000Y-69190000D01*
X123714000Y-69190000D01*
X123714000Y-66210000D01*
X126086000Y-66210000D01*
G36*
X64940000Y-67136000D02*
G01*
X61960000Y-67136000D01*
X61960000Y-64764000D01*
X64940000Y-64764000D01*
X64940000Y-67136000D01*
G37*
X64940000Y-67136000D02*
X61960000Y-67136000D01*
X61960000Y-64764000D01*
X64940000Y-64764000D01*
X64940000Y-67136000D01*
G36*
X63360000Y-75914000D02*
G01*
X66340000Y-75914000D01*
X66340000Y-78286000D01*
X63360000Y-78286000D01*
X63360000Y-75914000D01*
G37*
X63360000Y-75914000D02*
X66340000Y-75914000D01*
X66340000Y-78286000D01*
X63360000Y-78286000D01*
X63360000Y-75914000D01*
G36*
X89325509Y-136899800D02*
G01*
X90075200Y-136899800D01*
X90075200Y-137349456D01*
X89325509Y-137349456D01*
X89325509Y-136899800D01*
G37*
X89325509Y-136899800D02*
X90075200Y-136899800D01*
X90075200Y-137349456D01*
X89325509Y-137349456D01*
X89325509Y-136899800D01*
G36*
X96005240Y-136774800D02*
G01*
X96750200Y-136774800D01*
X96750200Y-137224526D01*
X96005240Y-137224526D01*
X96005240Y-136774800D01*
G37*
X96005240Y-136774800D02*
X96750200Y-136774800D01*
X96750200Y-137224526D01*
X96005240Y-137224526D01*
X96005240Y-136774800D01*
G36*
X89325377Y-132749800D02*
G01*
X90075200Y-132749800D01*
X90075200Y-133196330D01*
X89325377Y-133196330D01*
X89325377Y-132749800D01*
G37*
X89325377Y-132749800D02*
X90075200Y-132749800D01*
X90075200Y-133196330D01*
X89325377Y-133196330D01*
X89325377Y-132749800D01*
G36*
X96002700Y-132874800D02*
G01*
X96750200Y-132874800D01*
X96750200Y-133323250D01*
X96002700Y-133323250D01*
X96002700Y-132874800D01*
G37*
X96002700Y-132874800D02*
X96750200Y-132874800D01*
X96750200Y-133323250D01*
X96002700Y-133323250D01*
X96002700Y-132874800D01*
G36*
X90551950Y-135674800D02*
G01*
X91250200Y-135674800D01*
X91250200Y-136022900D01*
X90551950Y-136022900D01*
X90551950Y-135674800D01*
G37*
X90551950Y-135674800D02*
X91250200Y-135674800D01*
X91250200Y-136022900D01*
X90551950Y-136022900D01*
X90551950Y-135674800D01*
G36*
X90551300Y-134874800D02*
G01*
X91250200Y-134874800D01*
X91250200Y-135222990D01*
X90551300Y-135222990D01*
X90551300Y-134874800D01*
G37*
X90551300Y-134874800D02*
X91250200Y-134874800D01*
X91250200Y-135222990D01*
X90551300Y-135222990D01*
X90551300Y-134874800D01*
G36*
X90552120Y-134074800D02*
G01*
X91250200Y-134074800D01*
X91250200Y-134420590D01*
X90552120Y-134420590D01*
X90552120Y-134074800D01*
G37*
X90552120Y-134074800D02*
X91250200Y-134074800D01*
X91250200Y-134420590D01*
X90552120Y-134420590D01*
X90552120Y-134074800D01*
G36*
X89350318Y-133674800D02*
G01*
X90050200Y-133674800D01*
X90050200Y-134023110D01*
X89350318Y-134023110D01*
X89350318Y-133674800D01*
G37*
X89350318Y-133674800D02*
X90050200Y-133674800D01*
X90050200Y-134023110D01*
X89350318Y-134023110D01*
X89350318Y-133674800D01*
G36*
X89350437Y-134474800D02*
G01*
X90050200Y-134474800D01*
X90050200Y-134822170D01*
X89350437Y-134822170D01*
X89350437Y-134474800D01*
G37*
X89350437Y-134474800D02*
X90050200Y-134474800D01*
X90050200Y-134822170D01*
X89350437Y-134822170D01*
X89350437Y-134474800D01*
G36*
X89350645Y-135274800D02*
G01*
X90050200Y-135274800D01*
X90050200Y-135621290D01*
X89350645Y-135621290D01*
X89350645Y-135274800D01*
G37*
X89350645Y-135274800D02*
X90050200Y-135274800D01*
X90050200Y-135621290D01*
X89350645Y-135621290D01*
X89350645Y-135274800D01*
G36*
X89350225Y-136074800D02*
G01*
X90050200Y-136074800D01*
X90050200Y-136424680D01*
X89350225Y-136424680D01*
X89350225Y-136074800D01*
G37*
X89350225Y-136074800D02*
X90050200Y-136074800D01*
X90050200Y-136424680D01*
X89350225Y-136424680D01*
X89350225Y-136074800D01*
G36*
X95761360Y-134474800D02*
G01*
X96450200Y-134474800D01*
X96450200Y-134820140D01*
X95761360Y-134820140D01*
X95761360Y-134474800D01*
G37*
X95761360Y-134474800D02*
X96450200Y-134474800D01*
X96450200Y-134820140D01*
X95761360Y-134820140D01*
X95761360Y-134474800D01*
G36*
X95337030Y-136649800D02*
G01*
X95675200Y-136649800D01*
X95675200Y-137349325D01*
X95337030Y-137349325D01*
X95337030Y-136649800D01*
G37*
X95337030Y-136649800D02*
X95675200Y-136649800D01*
X95675200Y-137349325D01*
X95337030Y-137349325D01*
X95337030Y-136649800D01*
G36*
X94528350Y-136649800D02*
G01*
X94875200Y-136649800D01*
X94875200Y-137349655D01*
X94528350Y-137349655D01*
X94528350Y-136649800D01*
G37*
X94528350Y-136649800D02*
X94875200Y-136649800D01*
X94875200Y-137349655D01*
X94528350Y-137349655D01*
X94528350Y-136649800D01*
G36*
X93731880Y-136649800D02*
G01*
X94075200Y-136649800D01*
X94075200Y-137349439D01*
X93731880Y-137349439D01*
X93731880Y-136649800D01*
G37*
X93731880Y-136649800D02*
X94075200Y-136649800D01*
X94075200Y-137349439D01*
X93731880Y-137349439D01*
X93731880Y-136649800D01*
G36*
X92928980Y-136649800D02*
G01*
X93275200Y-136649800D01*
X93275200Y-137349553D01*
X92928980Y-137349553D01*
X92928980Y-136649800D01*
G37*
X92928980Y-136649800D02*
X93275200Y-136649800D01*
X93275200Y-137349553D01*
X92928980Y-137349553D01*
X92928980Y-136649800D01*
G36*
X92129240Y-136649800D02*
G01*
X92475200Y-136649800D01*
X92475200Y-137349467D01*
X92129240Y-137349467D01*
X92129240Y-136649800D01*
G37*
X92129240Y-136649800D02*
X92475200Y-136649800D01*
X92475200Y-137349467D01*
X92129240Y-137349467D01*
X92129240Y-136649800D01*
G36*
X91325720Y-136649800D02*
G01*
X91675200Y-136649800D01*
X91675200Y-137349742D01*
X91325720Y-137349742D01*
X91325720Y-136649800D01*
G37*
X91325720Y-136649800D02*
X91675200Y-136649800D01*
X91675200Y-137349742D01*
X91325720Y-137349742D01*
X91325720Y-136649800D01*
G36*
X90527840Y-136649800D02*
G01*
X90875200Y-136649800D01*
X90875200Y-137349337D01*
X90527840Y-137349337D01*
X90527840Y-136649800D01*
G37*
X90527840Y-136649800D02*
X90875200Y-136649800D01*
X90875200Y-137349337D01*
X90527840Y-137349337D01*
X90527840Y-136649800D01*
G36*
X95332190Y-132749800D02*
G01*
X95675200Y-132749800D01*
X95675200Y-133445140D01*
X95332190Y-133445140D01*
X95332190Y-132749800D01*
G37*
X95332190Y-132749800D02*
X95675200Y-132749800D01*
X95675200Y-133445140D01*
X95332190Y-133445140D01*
X95332190Y-132749800D01*
G36*
X94527360Y-132749800D02*
G01*
X94875200Y-132749800D01*
X94875200Y-133448150D01*
X94527360Y-133448150D01*
X94527360Y-132749800D01*
G37*
X94527360Y-132749800D02*
X94875200Y-132749800D01*
X94875200Y-133448150D01*
X94527360Y-133448150D01*
X94527360Y-132749800D01*
G36*
X93733740Y-132749800D02*
G01*
X94075200Y-132749800D01*
X94075200Y-133442130D01*
X93733740Y-133442130D01*
X93733740Y-132749800D01*
G37*
X93733740Y-132749800D02*
X94075200Y-132749800D01*
X94075200Y-133442130D01*
X93733740Y-133442130D01*
X93733740Y-132749800D01*
G36*
X92931560Y-132749800D02*
G01*
X93275200Y-132749800D01*
X93275200Y-133442900D01*
X92931560Y-133442900D01*
X92931560Y-132749800D01*
G37*
X92931560Y-132749800D02*
X93275200Y-132749800D01*
X93275200Y-133442900D01*
X92931560Y-133442900D01*
X92931560Y-132749800D01*
G36*
X92129660Y-132749800D02*
G01*
X92475200Y-132749800D01*
X92475200Y-133443680D01*
X92129660Y-133443680D01*
X92129660Y-132749800D01*
G37*
X92129660Y-132749800D02*
X92475200Y-132749800D01*
X92475200Y-133443680D01*
X92129660Y-133443680D01*
X92129660Y-132749800D01*
G36*
X91328100Y-132749800D02*
G01*
X91675200Y-132749800D01*
X91675200Y-133444390D01*
X91328100Y-133444390D01*
X91328100Y-132749800D01*
G37*
X91328100Y-132749800D02*
X91675200Y-132749800D01*
X91675200Y-133444390D01*
X91328100Y-133444390D01*
X91328100Y-132749800D01*
G36*
X90526020Y-132749800D02*
G01*
X90875200Y-132749800D01*
X90875200Y-133447400D01*
X90526020Y-133447400D01*
X90526020Y-132749800D01*
G37*
X90526020Y-132749800D02*
X90875200Y-132749800D01*
X90875200Y-133447400D01*
X90526020Y-133447400D01*
X90526020Y-132749800D01*
G36*
X95756690Y-135274800D02*
G01*
X96450200Y-135274800D01*
X96450200Y-135622870D01*
X95756690Y-135622870D01*
X95756690Y-135274800D01*
G37*
X95756690Y-135274800D02*
X96450200Y-135274800D01*
X96450200Y-135622870D01*
X95756690Y-135622870D01*
X95756690Y-135274800D01*
G36*
X92201420Y-134449800D02*
G01*
X93300200Y-134449800D01*
X93300200Y-135649030D01*
X92201420Y-135649030D01*
X92201420Y-134449800D01*
G37*
X92201420Y-134449800D02*
X93300200Y-134449800D01*
X93300200Y-135649030D01*
X92201420Y-135649030D01*
X92201420Y-134449800D01*
G36*
X93704280Y-134449800D02*
G01*
X94800200Y-134449800D01*
X94800200Y-135648070D01*
X93704280Y-135648070D01*
X93704280Y-134449800D01*
G37*
X93704280Y-134449800D02*
X94800200Y-134449800D01*
X94800200Y-135648070D01*
X93704280Y-135648070D01*
X93704280Y-134449800D01*
D12*
X125150000Y-114050000D03*
X125150000Y-110750000D03*
D13*
X109200000Y-130600000D03*
X109200000Y-132600000D03*
X109200000Y-134600000D03*
X109200000Y-136600000D03*
X109200000Y-138600000D03*
X109200000Y-140600000D03*
X109200000Y-142600000D03*
X109200000Y-144600000D03*
X124000000Y-144600000D03*
X124000000Y-142600000D03*
X124000000Y-140600000D03*
X124000000Y-138600000D03*
X124000000Y-136600000D03*
X124000000Y-134600000D03*
X124000000Y-132600000D03*
X124000000Y-130600000D03*
D14*
X94200000Y-58555000D03*
X94200000Y-57285000D03*
X94200000Y-56015000D03*
X94200000Y-54745000D03*
D15*
X88500000Y-54745000D03*
X88500000Y-56015000D03*
X88500000Y-57285000D03*
X88500000Y-58555000D03*
D14*
X89350000Y-66045000D03*
X89350000Y-67315000D03*
X89350000Y-68585000D03*
X89350000Y-69855000D03*
D15*
X95050000Y-69855000D03*
X95050000Y-68585000D03*
X95050000Y-67315000D03*
X95050000Y-66045000D03*
D16*
X133945000Y-70250000D03*
X135215000Y-70250000D03*
X136485000Y-70250000D03*
X137755000Y-70250000D03*
D17*
X137755000Y-64550000D03*
X136485000Y-64550000D03*
X135215000Y-64550000D03*
X133945000Y-64550000D03*
D16*
X126805000Y-64400000D03*
X125535000Y-64400000D03*
X124265000Y-64400000D03*
X122995000Y-64400000D03*
D17*
X122995000Y-70100000D03*
X124265000Y-70100000D03*
X125535000Y-70100000D03*
X126805000Y-70100000D03*
D14*
X66750000Y-67855000D03*
X66750000Y-66585000D03*
X66750000Y-65315000D03*
X66750000Y-64045000D03*
D15*
X61050000Y-64045000D03*
X61050000Y-65315000D03*
X61050000Y-66585000D03*
X61050000Y-67855000D03*
D14*
X61550000Y-75195000D03*
X61550000Y-76465000D03*
X61550000Y-77735000D03*
X61550000Y-79005000D03*
D15*
X67250000Y-79005000D03*
X67250000Y-77735000D03*
X67250000Y-76465000D03*
X67250000Y-75195000D03*
D18*
X132900200Y-110850200D03*
X128300200Y-110850200D03*
X130600200Y-110850200D03*
D19*
X130600200Y-117150200D03*
G36*
G01*
X133212700Y-119906450D02*
X133212700Y-118993950D01*
G75*
G02*
X133456450Y-118750200I243750J0D01*
G01*
X133943950Y-118750200D01*
G75*
G02*
X134187700Y-118993950I0J-243750D01*
G01*
X134187700Y-119906450D01*
G75*
G02*
X133943950Y-120150200I-243750J0D01*
G01*
X133456450Y-120150200D01*
G75*
G02*
X133212700Y-119906450I0J243750D01*
G01*
G37*
G36*
G01*
X131337700Y-119906450D02*
X131337700Y-118993950D01*
G75*
G02*
X131581450Y-118750200I243750J0D01*
G01*
X132068950Y-118750200D01*
G75*
G02*
X132312700Y-118993950I0J-243750D01*
G01*
X132312700Y-119906450D01*
G75*
G02*
X132068950Y-120150200I-243750J0D01*
G01*
X131581450Y-120150200D01*
G75*
G02*
X131337700Y-119906450I0J243750D01*
G01*
G37*
G36*
G01*
X132356250Y-106412500D02*
X131443750Y-106412500D01*
G75*
G02*
X131200000Y-106168750I0J243750D01*
G01*
X131200000Y-105681250D01*
G75*
G02*
X131443750Y-105437500I243750J0D01*
G01*
X132356250Y-105437500D01*
G75*
G02*
X132600000Y-105681250I0J-243750D01*
G01*
X132600000Y-106168750D01*
G75*
G02*
X132356250Y-106412500I-243750J0D01*
G01*
G37*
G36*
G01*
X132356250Y-108287500D02*
X131443750Y-108287500D01*
G75*
G02*
X131200000Y-108043750I0J243750D01*
G01*
X131200000Y-107556250D01*
G75*
G02*
X131443750Y-107312500I243750J0D01*
G01*
X132356250Y-107312500D01*
G75*
G02*
X132600000Y-107556250I0J-243750D01*
G01*
X132600000Y-108043750D01*
G75*
G02*
X132356250Y-108287500I-243750J0D01*
G01*
G37*
G36*
G01*
X84800000Y-133350001D02*
X84800000Y-132049999D01*
G75*
G02*
X85049999Y-131800000I249999J0D01*
G01*
X85750001Y-131800000D01*
G75*
G02*
X86000000Y-132049999I0J-249999D01*
G01*
X86000000Y-133350001D01*
G75*
G02*
X85750001Y-133600000I-249999J0D01*
G01*
X85049999Y-133600000D01*
G75*
G02*
X84800000Y-133350001I0J249999D01*
G01*
G37*
G36*
G01*
X81200000Y-133350001D02*
X81200000Y-132049999D01*
G75*
G02*
X81449999Y-131800000I249999J0D01*
G01*
X82150001Y-131800000D01*
G75*
G02*
X82400000Y-132049999I0J-249999D01*
G01*
X82400000Y-133350001D01*
G75*
G02*
X82150001Y-133600000I-249999J0D01*
G01*
X81449999Y-133600000D01*
G75*
G02*
X81200000Y-133350001I0J249999D01*
G01*
G37*
G36*
G01*
X83800000Y-135850000D02*
X83800000Y-134600000D01*
G75*
G02*
X83950000Y-134450000I150000J0D01*
G01*
X84250000Y-134450000D01*
G75*
G02*
X84400000Y-134600000I0J-150000D01*
G01*
X84400000Y-135850000D01*
G75*
G02*
X84250000Y-136000000I-150000J0D01*
G01*
X83950000Y-136000000D01*
G75*
G02*
X83800000Y-135850000I0J150000D01*
G01*
G37*
G36*
G01*
X82800000Y-135850000D02*
X82800000Y-134600000D01*
G75*
G02*
X82950000Y-134450000I150000J0D01*
G01*
X83250000Y-134450000D01*
G75*
G02*
X83400000Y-134600000I0J-150000D01*
G01*
X83400000Y-135850000D01*
G75*
G02*
X83250000Y-136000000I-150000J0D01*
G01*
X82950000Y-136000000D01*
G75*
G02*
X82800000Y-135850000I0J150000D01*
G01*
G37*
G36*
G01*
X148055937Y-120160518D02*
X149252595Y-120668469D01*
G75*
G02*
X149385038Y-120996276I-97682J-230125D01*
G01*
X149111526Y-121640631D01*
G75*
G02*
X148783719Y-121773074I-230125J97682D01*
G01*
X147587061Y-121265123D01*
G75*
G02*
X147454618Y-120937316I97682J230125D01*
G01*
X147728130Y-120292961D01*
G75*
G02*
X148055937Y-120160518I230125J-97682D01*
G01*
G37*
G36*
G01*
X151025493Y-113164681D02*
X152222151Y-113672632D01*
G75*
G02*
X152354594Y-114000439I-97682J-230125D01*
G01*
X152081082Y-114644794D01*
G75*
G02*
X151753275Y-114777237I-230125J97682D01*
G01*
X150556617Y-114269286D01*
G75*
G02*
X150424174Y-113941479I97682J230125D01*
G01*
X150697686Y-113297124D01*
G75*
G02*
X151025493Y-113164681I230125J-97682D01*
G01*
G37*
G36*
G01*
X146145407Y-118263184D02*
X147296038Y-118751598D01*
G75*
G02*
X147375504Y-118948284I-58610J-138076D01*
G01*
X147258285Y-119224436D01*
G75*
G02*
X147061599Y-119303902I-138076J58610D01*
G01*
X145910968Y-118815488D01*
G75*
G02*
X145831502Y-118618802I58610J138076D01*
G01*
X145948721Y-118342650D01*
G75*
G02*
X146145407Y-118263184I138076J-58610D01*
G01*
G37*
G36*
G01*
X146536137Y-117342679D02*
X147686768Y-117831093D01*
G75*
G02*
X147766234Y-118027779I-58610J-138076D01*
G01*
X147649015Y-118303931D01*
G75*
G02*
X147452329Y-118383397I-138076J58610D01*
G01*
X146301698Y-117894983D01*
G75*
G02*
X146222232Y-117698297I58610J138076D01*
G01*
X146339451Y-117422145D01*
G75*
G02*
X146536137Y-117342679I138076J-58610D01*
G01*
G37*
G36*
G01*
X146926870Y-116422175D02*
X148077501Y-116910589D01*
G75*
G02*
X148156967Y-117107275I-58610J-138076D01*
G01*
X148039748Y-117383427D01*
G75*
G02*
X147843062Y-117462893I-138076J58610D01*
G01*
X146692431Y-116974479D01*
G75*
G02*
X146612965Y-116777793I58610J138076D01*
G01*
X146730184Y-116501641D01*
G75*
G02*
X146926870Y-116422175I138076J-58610D01*
G01*
G37*
G36*
G01*
X147317601Y-115501669D02*
X148468232Y-115990083D01*
G75*
G02*
X148547698Y-116186769I-58610J-138076D01*
G01*
X148430479Y-116462921D01*
G75*
G02*
X148233793Y-116542387I-138076J58610D01*
G01*
X147083162Y-116053973D01*
G75*
G02*
X147003696Y-115857287I58610J138076D01*
G01*
X147120915Y-115581135D01*
G75*
G02*
X147317601Y-115501669I138076J-58610D01*
G01*
G37*
G36*
G01*
X147708332Y-114581165D02*
X148858963Y-115069579D01*
G75*
G02*
X148938429Y-115266265I-58610J-138076D01*
G01*
X148821210Y-115542417D01*
G75*
G02*
X148624524Y-115621883I-138076J58610D01*
G01*
X147473893Y-115133469D01*
G75*
G02*
X147394427Y-114936783I58610J138076D01*
G01*
X147511646Y-114660631D01*
G75*
G02*
X147708332Y-114581165I138076J-58610D01*
G01*
G37*
G36*
G01*
X148099063Y-113660660D02*
X149249694Y-114149074D01*
G75*
G02*
X149329160Y-114345760I-58610J-138076D01*
G01*
X149211941Y-114621912D01*
G75*
G02*
X149015255Y-114701378I-138076J58610D01*
G01*
X147864624Y-114212964D01*
G75*
G02*
X147785158Y-114016278I58610J138076D01*
G01*
X147902377Y-113740126D01*
G75*
G02*
X148099063Y-113660660I138076J-58610D01*
G01*
G37*
G36*
G01*
X139756250Y-111450000D02*
X138843750Y-111450000D01*
G75*
G02*
X138600000Y-111206250I0J243750D01*
G01*
X138600000Y-110718750D01*
G75*
G02*
X138843750Y-110475000I243750J0D01*
G01*
X139756250Y-110475000D01*
G75*
G02*
X140000000Y-110718750I0J-243750D01*
G01*
X140000000Y-111206250D01*
G75*
G02*
X139756250Y-111450000I-243750J0D01*
G01*
G37*
G36*
G01*
X139756250Y-113325000D02*
X138843750Y-113325000D01*
G75*
G02*
X138600000Y-113081250I0J243750D01*
G01*
X138600000Y-112593750D01*
G75*
G02*
X138843750Y-112350000I243750J0D01*
G01*
X139756250Y-112350000D01*
G75*
G02*
X140000000Y-112593750I0J-243750D01*
G01*
X140000000Y-113081250D01*
G75*
G02*
X139756250Y-113325000I-243750J0D01*
G01*
G37*
D20*
X143900000Y-111050000D03*
X143900000Y-114550000D03*
G36*
G01*
X65950000Y-80843750D02*
X65950000Y-81756250D01*
G75*
G02*
X65706250Y-82000000I-243750J0D01*
G01*
X65218750Y-82000000D01*
G75*
G02*
X64975000Y-81756250I0J243750D01*
G01*
X64975000Y-80843750D01*
G75*
G02*
X65218750Y-80600000I243750J0D01*
G01*
X65706250Y-80600000D01*
G75*
G02*
X65950000Y-80843750I0J-243750D01*
G01*
G37*
G36*
G01*
X67825000Y-80843750D02*
X67825000Y-81756250D01*
G75*
G02*
X67581250Y-82000000I-243750J0D01*
G01*
X67093750Y-82000000D01*
G75*
G02*
X66850000Y-81756250I0J243750D01*
G01*
X66850000Y-80843750D01*
G75*
G02*
X67093750Y-80600000I243750J0D01*
G01*
X67581250Y-80600000D01*
G75*
G02*
X67825000Y-80843750I0J-243750D01*
G01*
G37*
G36*
G01*
X113260000Y-71730000D02*
X113260000Y-69730000D01*
G75*
G02*
X113510000Y-69480000I250000J0D01*
G01*
X117010000Y-69480000D01*
G75*
G02*
X117260000Y-69730000I0J-250000D01*
G01*
X117260000Y-71730000D01*
G75*
G02*
X117010000Y-71980000I-250000J0D01*
G01*
X113510000Y-71980000D01*
G75*
G02*
X113260000Y-71730000I0J250000D01*
G01*
G37*
G36*
G01*
X105260000Y-71730000D02*
X105260000Y-69730000D01*
G75*
G02*
X105510000Y-69480000I250000J0D01*
G01*
X109010000Y-69480000D01*
G75*
G02*
X109260000Y-69730000I0J-250000D01*
G01*
X109260000Y-71730000D01*
G75*
G02*
X109010000Y-71980000I-250000J0D01*
G01*
X105510000Y-71980000D01*
G75*
G02*
X105260000Y-71730000I0J250000D01*
G01*
G37*
G36*
G01*
X105500000Y-58400000D02*
X105500000Y-60400000D01*
G75*
G02*
X105250000Y-60650000I-250000J0D01*
G01*
X101750000Y-60650000D01*
G75*
G02*
X101500000Y-60400000I0J250000D01*
G01*
X101500000Y-58400000D01*
G75*
G02*
X101750000Y-58150000I250000J0D01*
G01*
X105250000Y-58150000D01*
G75*
G02*
X105500000Y-58400000I0J-250000D01*
G01*
G37*
G36*
G01*
X113500000Y-58400000D02*
X113500000Y-60400000D01*
G75*
G02*
X113250000Y-60650000I-250000J0D01*
G01*
X109750000Y-60650000D01*
G75*
G02*
X109500000Y-60400000I0J250000D01*
G01*
X109500000Y-58400000D01*
G75*
G02*
X109750000Y-58150000I250000J0D01*
G01*
X113250000Y-58150000D01*
G75*
G02*
X113500000Y-58400000I0J-250000D01*
G01*
G37*
G36*
G01*
X147350000Y-77750000D02*
X147350000Y-79750000D01*
G75*
G02*
X147100000Y-80000000I-250000J0D01*
G01*
X143600000Y-80000000D01*
G75*
G02*
X143350000Y-79750000I0J250000D01*
G01*
X143350000Y-77750000D01*
G75*
G02*
X143600000Y-77500000I250000J0D01*
G01*
X147100000Y-77500000D01*
G75*
G02*
X147350000Y-77750000I0J-250000D01*
G01*
G37*
G36*
G01*
X139350000Y-77750000D02*
X139350000Y-79750000D01*
G75*
G02*
X139100000Y-80000000I-250000J0D01*
G01*
X135600000Y-80000000D01*
G75*
G02*
X135350000Y-79750000I0J250000D01*
G01*
X135350000Y-77750000D01*
G75*
G02*
X135600000Y-77500000I250000J0D01*
G01*
X139100000Y-77500000D01*
G75*
G02*
X139350000Y-77750000I0J-250000D01*
G01*
G37*
G36*
G01*
X128150000Y-80450000D02*
X130150000Y-80450000D01*
G75*
G02*
X130400000Y-80700000I0J-250000D01*
G01*
X130400000Y-84200000D01*
G75*
G02*
X130150000Y-84450000I-250000J0D01*
G01*
X128150000Y-84450000D01*
G75*
G02*
X127900000Y-84200000I0J250000D01*
G01*
X127900000Y-80700000D01*
G75*
G02*
X128150000Y-80450000I250000J0D01*
G01*
G37*
G36*
G01*
X128150000Y-88450000D02*
X130150000Y-88450000D01*
G75*
G02*
X130400000Y-88700000I0J-250000D01*
G01*
X130400000Y-92200000D01*
G75*
G02*
X130150000Y-92450000I-250000J0D01*
G01*
X128150000Y-92450000D01*
G75*
G02*
X127900000Y-92200000I0J250000D01*
G01*
X127900000Y-88700000D01*
G75*
G02*
X128150000Y-88450000I250000J0D01*
G01*
G37*
G36*
G01*
X79100000Y-76525000D02*
X81100000Y-76525000D01*
G75*
G02*
X81350000Y-76775000I0J-250000D01*
G01*
X81350000Y-80275000D01*
G75*
G02*
X81100000Y-80525000I-250000J0D01*
G01*
X79100000Y-80525000D01*
G75*
G02*
X78850000Y-80275000I0J250000D01*
G01*
X78850000Y-76775000D01*
G75*
G02*
X79100000Y-76525000I250000J0D01*
G01*
G37*
G36*
G01*
X79100000Y-68525000D02*
X81100000Y-68525000D01*
G75*
G02*
X81350000Y-68775000I0J-250000D01*
G01*
X81350000Y-72275000D01*
G75*
G02*
X81100000Y-72525000I-250000J0D01*
G01*
X79100000Y-72525000D01*
G75*
G02*
X78850000Y-72275000I0J250000D01*
G01*
X78850000Y-68775000D01*
G75*
G02*
X79100000Y-68525000I250000J0D01*
G01*
G37*
G36*
G01*
X72300000Y-61400000D02*
X72300000Y-63400000D01*
G75*
G02*
X72050000Y-63650000I-250000J0D01*
G01*
X68550000Y-63650000D01*
G75*
G02*
X68300000Y-63400000I0J250000D01*
G01*
X68300000Y-61400000D01*
G75*
G02*
X68550000Y-61150000I250000J0D01*
G01*
X72050000Y-61150000D01*
G75*
G02*
X72300000Y-61400000I0J-250000D01*
G01*
G37*
G36*
G01*
X80300000Y-61400000D02*
X80300000Y-63400000D01*
G75*
G02*
X80050000Y-63650000I-250000J0D01*
G01*
X76550000Y-63650000D01*
G75*
G02*
X76300000Y-63400000I0J250000D01*
G01*
X76300000Y-61400000D01*
G75*
G02*
X76550000Y-61150000I250000J0D01*
G01*
X80050000Y-61150000D01*
G75*
G02*
X80300000Y-61400000I0J-250000D01*
G01*
G37*
G36*
G01*
X122065200Y-79956450D02*
X122065200Y-79043950D01*
G75*
G02*
X122308950Y-78800200I243750J0D01*
G01*
X122796450Y-78800200D01*
G75*
G02*
X123040200Y-79043950I0J-243750D01*
G01*
X123040200Y-79956450D01*
G75*
G02*
X122796450Y-80200200I-243750J0D01*
G01*
X122308950Y-80200200D01*
G75*
G02*
X122065200Y-79956450I0J243750D01*
G01*
G37*
G36*
G01*
X123940200Y-79956450D02*
X123940200Y-79043950D01*
G75*
G02*
X124183950Y-78800200I243750J0D01*
G01*
X124671450Y-78800200D01*
G75*
G02*
X124915200Y-79043950I0J-243750D01*
G01*
X124915200Y-79956450D01*
G75*
G02*
X124671450Y-80200200I-243750J0D01*
G01*
X124183950Y-80200200D01*
G75*
G02*
X123940200Y-79956450I0J243750D01*
G01*
G37*
G36*
G01*
X103666250Y-71075000D02*
X102753750Y-71075000D01*
G75*
G02*
X102510000Y-70831250I0J243750D01*
G01*
X102510000Y-70343750D01*
G75*
G02*
X102753750Y-70100000I243750J0D01*
G01*
X103666250Y-70100000D01*
G75*
G02*
X103910000Y-70343750I0J-243750D01*
G01*
X103910000Y-70831250D01*
G75*
G02*
X103666250Y-71075000I-243750J0D01*
G01*
G37*
G36*
G01*
X103666250Y-69200000D02*
X102753750Y-69200000D01*
G75*
G02*
X102510000Y-68956250I0J243750D01*
G01*
X102510000Y-68468750D01*
G75*
G02*
X102753750Y-68225000I243750J0D01*
G01*
X103666250Y-68225000D01*
G75*
G02*
X103910000Y-68468750I0J-243750D01*
G01*
X103910000Y-68956250D01*
G75*
G02*
X103666250Y-69200000I-243750J0D01*
G01*
G37*
G36*
G01*
X68525000Y-84518750D02*
X68525000Y-85431250D01*
G75*
G02*
X68281250Y-85675000I-243750J0D01*
G01*
X67793750Y-85675000D01*
G75*
G02*
X67550000Y-85431250I0J243750D01*
G01*
X67550000Y-84518750D01*
G75*
G02*
X67793750Y-84275000I243750J0D01*
G01*
X68281250Y-84275000D01*
G75*
G02*
X68525000Y-84518750I0J-243750D01*
G01*
G37*
G36*
G01*
X70400000Y-84518750D02*
X70400000Y-85431250D01*
G75*
G02*
X70156250Y-85675000I-243750J0D01*
G01*
X69668750Y-85675000D01*
G75*
G02*
X69425000Y-85431250I0J243750D01*
G01*
X69425000Y-84518750D01*
G75*
G02*
X69668750Y-84275000I243750J0D01*
G01*
X70156250Y-84275000D01*
G75*
G02*
X70400000Y-84518750I0J-243750D01*
G01*
G37*
D21*
X136549800Y-102400200D03*
X136549800Y-96900200D03*
G36*
G01*
X118490000Y-73575000D02*
X118490000Y-73275000D01*
G75*
G02*
X118640000Y-73125000I150000J0D01*
G01*
X120290000Y-73125000D01*
G75*
G02*
X120440000Y-73275000I0J-150000D01*
G01*
X120440000Y-73575000D01*
G75*
G02*
X120290000Y-73725000I-150000J0D01*
G01*
X118640000Y-73725000D01*
G75*
G02*
X118490000Y-73575000I0J150000D01*
G01*
G37*
G36*
G01*
X118490000Y-74845000D02*
X118490000Y-74545000D01*
G75*
G02*
X118640000Y-74395000I150000J0D01*
G01*
X120290000Y-74395000D01*
G75*
G02*
X120440000Y-74545000I0J-150000D01*
G01*
X120440000Y-74845000D01*
G75*
G02*
X120290000Y-74995000I-150000J0D01*
G01*
X118640000Y-74995000D01*
G75*
G02*
X118490000Y-74845000I0J150000D01*
G01*
G37*
G36*
G01*
X118490000Y-76115000D02*
X118490000Y-75815000D01*
G75*
G02*
X118640000Y-75665000I150000J0D01*
G01*
X120290000Y-75665000D01*
G75*
G02*
X120440000Y-75815000I0J-150000D01*
G01*
X120440000Y-76115000D01*
G75*
G02*
X120290000Y-76265000I-150000J0D01*
G01*
X118640000Y-76265000D01*
G75*
G02*
X118490000Y-76115000I0J150000D01*
G01*
G37*
G36*
G01*
X118490000Y-77385000D02*
X118490000Y-77085000D01*
G75*
G02*
X118640000Y-76935000I150000J0D01*
G01*
X120290000Y-76935000D01*
G75*
G02*
X120440000Y-77085000I0J-150000D01*
G01*
X120440000Y-77385000D01*
G75*
G02*
X120290000Y-77535000I-150000J0D01*
G01*
X118640000Y-77535000D01*
G75*
G02*
X118490000Y-77385000I0J150000D01*
G01*
G37*
G36*
G01*
X123440000Y-77385000D02*
X123440000Y-77085000D01*
G75*
G02*
X123590000Y-76935000I150000J0D01*
G01*
X125240000Y-76935000D01*
G75*
G02*
X125390000Y-77085000I0J-150000D01*
G01*
X125390000Y-77385000D01*
G75*
G02*
X125240000Y-77535000I-150000J0D01*
G01*
X123590000Y-77535000D01*
G75*
G02*
X123440000Y-77385000I0J150000D01*
G01*
G37*
G36*
G01*
X123440000Y-76115000D02*
X123440000Y-75815000D01*
G75*
G02*
X123590000Y-75665000I150000J0D01*
G01*
X125240000Y-75665000D01*
G75*
G02*
X125390000Y-75815000I0J-150000D01*
G01*
X125390000Y-76115000D01*
G75*
G02*
X125240000Y-76265000I-150000J0D01*
G01*
X123590000Y-76265000D01*
G75*
G02*
X123440000Y-76115000I0J150000D01*
G01*
G37*
G36*
G01*
X123440000Y-74845000D02*
X123440000Y-74545000D01*
G75*
G02*
X123590000Y-74395000I150000J0D01*
G01*
X125240000Y-74395000D01*
G75*
G02*
X125390000Y-74545000I0J-150000D01*
G01*
X125390000Y-74845000D01*
G75*
G02*
X125240000Y-74995000I-150000J0D01*
G01*
X123590000Y-74995000D01*
G75*
G02*
X123440000Y-74845000I0J150000D01*
G01*
G37*
G36*
G01*
X123440000Y-73575000D02*
X123440000Y-73275000D01*
G75*
G02*
X123590000Y-73125000I150000J0D01*
G01*
X125240000Y-73125000D01*
G75*
G02*
X125390000Y-73275000I0J-150000D01*
G01*
X125390000Y-73575000D01*
G75*
G02*
X125240000Y-73725000I-150000J0D01*
G01*
X123590000Y-73725000D01*
G75*
G02*
X123440000Y-73575000I0J150000D01*
G01*
G37*
G36*
G01*
X97445000Y-74720000D02*
X97145000Y-74720000D01*
G75*
G02*
X96995000Y-74570000I0J150000D01*
G01*
X96995000Y-72920000D01*
G75*
G02*
X97145000Y-72770000I150000J0D01*
G01*
X97445000Y-72770000D01*
G75*
G02*
X97595000Y-72920000I0J-150000D01*
G01*
X97595000Y-74570000D01*
G75*
G02*
X97445000Y-74720000I-150000J0D01*
G01*
G37*
G36*
G01*
X98715000Y-74720000D02*
X98415000Y-74720000D01*
G75*
G02*
X98265000Y-74570000I0J150000D01*
G01*
X98265000Y-72920000D01*
G75*
G02*
X98415000Y-72770000I150000J0D01*
G01*
X98715000Y-72770000D01*
G75*
G02*
X98865000Y-72920000I0J-150000D01*
G01*
X98865000Y-74570000D01*
G75*
G02*
X98715000Y-74720000I-150000J0D01*
G01*
G37*
G36*
G01*
X99985000Y-74720000D02*
X99685000Y-74720000D01*
G75*
G02*
X99535000Y-74570000I0J150000D01*
G01*
X99535000Y-72920000D01*
G75*
G02*
X99685000Y-72770000I150000J0D01*
G01*
X99985000Y-72770000D01*
G75*
G02*
X100135000Y-72920000I0J-150000D01*
G01*
X100135000Y-74570000D01*
G75*
G02*
X99985000Y-74720000I-150000J0D01*
G01*
G37*
G36*
G01*
X101255000Y-74720000D02*
X100955000Y-74720000D01*
G75*
G02*
X100805000Y-74570000I0J150000D01*
G01*
X100805000Y-72920000D01*
G75*
G02*
X100955000Y-72770000I150000J0D01*
G01*
X101255000Y-72770000D01*
G75*
G02*
X101405000Y-72920000I0J-150000D01*
G01*
X101405000Y-74570000D01*
G75*
G02*
X101255000Y-74720000I-150000J0D01*
G01*
G37*
G36*
G01*
X101255000Y-69770000D02*
X100955000Y-69770000D01*
G75*
G02*
X100805000Y-69620000I0J150000D01*
G01*
X100805000Y-67970000D01*
G75*
G02*
X100955000Y-67820000I150000J0D01*
G01*
X101255000Y-67820000D01*
G75*
G02*
X101405000Y-67970000I0J-150000D01*
G01*
X101405000Y-69620000D01*
G75*
G02*
X101255000Y-69770000I-150000J0D01*
G01*
G37*
G36*
G01*
X99985000Y-69770000D02*
X99685000Y-69770000D01*
G75*
G02*
X99535000Y-69620000I0J150000D01*
G01*
X99535000Y-67970000D01*
G75*
G02*
X99685000Y-67820000I150000J0D01*
G01*
X99985000Y-67820000D01*
G75*
G02*
X100135000Y-67970000I0J-150000D01*
G01*
X100135000Y-69620000D01*
G75*
G02*
X99985000Y-69770000I-150000J0D01*
G01*
G37*
G36*
G01*
X98715000Y-69770000D02*
X98415000Y-69770000D01*
G75*
G02*
X98265000Y-69620000I0J150000D01*
G01*
X98265000Y-67970000D01*
G75*
G02*
X98415000Y-67820000I150000J0D01*
G01*
X98715000Y-67820000D01*
G75*
G02*
X98865000Y-67970000I0J-150000D01*
G01*
X98865000Y-69620000D01*
G75*
G02*
X98715000Y-69770000I-150000J0D01*
G01*
G37*
G36*
G01*
X97445000Y-69770000D02*
X97145000Y-69770000D01*
G75*
G02*
X96995000Y-69620000I0J150000D01*
G01*
X96995000Y-67970000D01*
G75*
G02*
X97145000Y-67820000I150000J0D01*
G01*
X97445000Y-67820000D01*
G75*
G02*
X97595000Y-67970000I0J-150000D01*
G01*
X97595000Y-69620000D01*
G75*
G02*
X97445000Y-69770000I-150000J0D01*
G01*
G37*
G36*
G01*
X69320000Y-78500000D02*
X69020000Y-78500000D01*
G75*
G02*
X68870000Y-78350000I0J150000D01*
G01*
X68870000Y-76700000D01*
G75*
G02*
X69020000Y-76550000I150000J0D01*
G01*
X69320000Y-76550000D01*
G75*
G02*
X69470000Y-76700000I0J-150000D01*
G01*
X69470000Y-78350000D01*
G75*
G02*
X69320000Y-78500000I-150000J0D01*
G01*
G37*
G36*
G01*
X70590000Y-78500000D02*
X70290000Y-78500000D01*
G75*
G02*
X70140000Y-78350000I0J150000D01*
G01*
X70140000Y-76700000D01*
G75*
G02*
X70290000Y-76550000I150000J0D01*
G01*
X70590000Y-76550000D01*
G75*
G02*
X70740000Y-76700000I0J-150000D01*
G01*
X70740000Y-78350000D01*
G75*
G02*
X70590000Y-78500000I-150000J0D01*
G01*
G37*
G36*
G01*
X71860000Y-78500000D02*
X71560000Y-78500000D01*
G75*
G02*
X71410000Y-78350000I0J150000D01*
G01*
X71410000Y-76700000D01*
G75*
G02*
X71560000Y-76550000I150000J0D01*
G01*
X71860000Y-76550000D01*
G75*
G02*
X72010000Y-76700000I0J-150000D01*
G01*
X72010000Y-78350000D01*
G75*
G02*
X71860000Y-78500000I-150000J0D01*
G01*
G37*
G36*
G01*
X73130000Y-78500000D02*
X72830000Y-78500000D01*
G75*
G02*
X72680000Y-78350000I0J150000D01*
G01*
X72680000Y-76700000D01*
G75*
G02*
X72830000Y-76550000I150000J0D01*
G01*
X73130000Y-76550000D01*
G75*
G02*
X73280000Y-76700000I0J-150000D01*
G01*
X73280000Y-78350000D01*
G75*
G02*
X73130000Y-78500000I-150000J0D01*
G01*
G37*
G36*
G01*
X73130000Y-83450000D02*
X72830000Y-83450000D01*
G75*
G02*
X72680000Y-83300000I0J150000D01*
G01*
X72680000Y-81650000D01*
G75*
G02*
X72830000Y-81500000I150000J0D01*
G01*
X73130000Y-81500000D01*
G75*
G02*
X73280000Y-81650000I0J-150000D01*
G01*
X73280000Y-83300000D01*
G75*
G02*
X73130000Y-83450000I-150000J0D01*
G01*
G37*
G36*
G01*
X71860000Y-83450000D02*
X71560000Y-83450000D01*
G75*
G02*
X71410000Y-83300000I0J150000D01*
G01*
X71410000Y-81650000D01*
G75*
G02*
X71560000Y-81500000I150000J0D01*
G01*
X71860000Y-81500000D01*
G75*
G02*
X72010000Y-81650000I0J-150000D01*
G01*
X72010000Y-83300000D01*
G75*
G02*
X71860000Y-83450000I-150000J0D01*
G01*
G37*
G36*
G01*
X70590000Y-83450000D02*
X70290000Y-83450000D01*
G75*
G02*
X70140000Y-83300000I0J150000D01*
G01*
X70140000Y-81650000D01*
G75*
G02*
X70290000Y-81500000I150000J0D01*
G01*
X70590000Y-81500000D01*
G75*
G02*
X70740000Y-81650000I0J-150000D01*
G01*
X70740000Y-83300000D01*
G75*
G02*
X70590000Y-83450000I-150000J0D01*
G01*
G37*
G36*
G01*
X69320000Y-83450000D02*
X69020000Y-83450000D01*
G75*
G02*
X68870000Y-83300000I0J150000D01*
G01*
X68870000Y-81650000D01*
G75*
G02*
X69020000Y-81500000I150000J0D01*
G01*
X69320000Y-81500000D01*
G75*
G02*
X69470000Y-81650000I0J-150000D01*
G01*
X69470000Y-83300000D01*
G75*
G02*
X69320000Y-83450000I-150000J0D01*
G01*
G37*
G36*
G01*
X73450000Y-73525000D02*
X71300000Y-73525000D01*
G75*
G02*
X71050000Y-73275000I0J250000D01*
G01*
X71050000Y-72525000D01*
G75*
G02*
X71300000Y-72275000I250000J0D01*
G01*
X73450000Y-72275000D01*
G75*
G02*
X73700000Y-72525000I0J-250000D01*
G01*
X73700000Y-73275000D01*
G75*
G02*
X73450000Y-73525000I-250000J0D01*
G01*
G37*
G36*
G01*
X73450000Y-70725000D02*
X71300000Y-70725000D01*
G75*
G02*
X71050000Y-70475000I0J250000D01*
G01*
X71050000Y-69725000D01*
G75*
G02*
X71300000Y-69475000I250000J0D01*
G01*
X73450000Y-69475000D01*
G75*
G02*
X73700000Y-69725000I0J-250000D01*
G01*
X73700000Y-70475000D01*
G75*
G02*
X73450000Y-70725000I-250000J0D01*
G01*
G37*
G36*
G01*
X66300000Y-73525000D02*
X64150000Y-73525000D01*
G75*
G02*
X63900000Y-73275000I0J250000D01*
G01*
X63900000Y-72525000D01*
G75*
G02*
X64150000Y-72275000I250000J0D01*
G01*
X66300000Y-72275000D01*
G75*
G02*
X66550000Y-72525000I0J-250000D01*
G01*
X66550000Y-73275000D01*
G75*
G02*
X66300000Y-73525000I-250000J0D01*
G01*
G37*
G36*
G01*
X66300000Y-70725000D02*
X64150000Y-70725000D01*
G75*
G02*
X63900000Y-70475000I0J250000D01*
G01*
X63900000Y-69725000D01*
G75*
G02*
X64150000Y-69475000I250000J0D01*
G01*
X66300000Y-69475000D01*
G75*
G02*
X66550000Y-69725000I0J-250000D01*
G01*
X66550000Y-70475000D01*
G75*
G02*
X66300000Y-70725000I-250000J0D01*
G01*
G37*
D12*
X150349800Y-100500200D03*
X150349800Y-103800200D03*
D22*
X152500000Y-109770000D03*
X146500000Y-109770000D03*
X146500000Y-107230000D03*
X152500000Y-107230000D03*
D23*
X71981799Y-100761800D03*
X72931800Y-100761800D03*
X73881801Y-100761800D03*
X73881801Y-98374200D03*
X71981799Y-98374200D03*
X62727799Y-100685600D03*
X63677800Y-100685600D03*
X64627801Y-100685600D03*
X64627801Y-98298000D03*
X62727799Y-98298000D03*
X72755999Y-94893600D03*
X73706000Y-94893600D03*
X74656001Y-94893600D03*
X74656001Y-92506000D03*
X72755999Y-92506000D03*
X61949799Y-94693600D03*
X62899800Y-94693600D03*
X63849801Y-94693600D03*
X63849801Y-92306000D03*
X61949799Y-92306000D03*
X51949799Y-94893600D03*
X52899800Y-94893600D03*
X53849801Y-94893600D03*
X53849801Y-92506000D03*
X51949799Y-92506000D03*
D24*
X63499799Y-90074799D03*
X63499799Y-89424801D03*
X63499799Y-88774799D03*
X63499799Y-88124801D03*
X57699801Y-88124801D03*
X57699801Y-88774799D03*
X57699801Y-89424801D03*
X57699801Y-90074799D03*
X73799799Y-90074799D03*
X73799799Y-89424801D03*
X73799799Y-88774799D03*
X73799799Y-88124801D03*
X67999801Y-88124801D03*
X67999801Y-88774799D03*
X67999801Y-89424801D03*
X67999801Y-90074799D03*
X53499798Y-90099800D03*
X53499798Y-89449802D03*
X53499798Y-88799800D03*
X53499798Y-88149802D03*
X47699800Y-88149802D03*
X47699800Y-88799800D03*
X47699800Y-89449802D03*
X47699800Y-90099800D03*
D23*
X53049799Y-100761800D03*
X53999800Y-100761800D03*
X54949801Y-100761800D03*
X54949801Y-98374200D03*
X53049799Y-98374200D03*
G36*
G01*
X93754800Y-64294800D02*
X91604800Y-64294800D01*
G75*
G02*
X91354800Y-64044800I0J250000D01*
G01*
X91354800Y-63294800D01*
G75*
G02*
X91604800Y-63044800I250000J0D01*
G01*
X93754800Y-63044800D01*
G75*
G02*
X94004800Y-63294800I0J-250000D01*
G01*
X94004800Y-64044800D01*
G75*
G02*
X93754800Y-64294800I-250000J0D01*
G01*
G37*
G36*
G01*
X93754800Y-61494800D02*
X91604800Y-61494800D01*
G75*
G02*
X91354800Y-61244800I0J250000D01*
G01*
X91354800Y-60494800D01*
G75*
G02*
X91604800Y-60244800I250000J0D01*
G01*
X93754800Y-60244800D01*
G75*
G02*
X94004800Y-60494800I0J-250000D01*
G01*
X94004800Y-61244800D01*
G75*
G02*
X93754800Y-61494800I-250000J0D01*
G01*
G37*
G36*
G01*
X131287705Y-68839592D02*
X131287705Y-66689592D01*
G75*
G02*
X131537705Y-66439592I250000J0D01*
G01*
X132287705Y-66439592D01*
G75*
G02*
X132537705Y-66689592I0J-250000D01*
G01*
X132537705Y-68839592D01*
G75*
G02*
X132287705Y-69089592I-250000J0D01*
G01*
X131537705Y-69089592D01*
G75*
G02*
X131287705Y-68839592I0J250000D01*
G01*
G37*
G36*
G01*
X128487705Y-68839592D02*
X128487705Y-66689592D01*
G75*
G02*
X128737705Y-66439592I250000J0D01*
G01*
X129487705Y-66439592D01*
G75*
G02*
X129737705Y-66689592I0J-250000D01*
G01*
X129737705Y-68839592D01*
G75*
G02*
X129487705Y-69089592I-250000J0D01*
G01*
X128737705Y-69089592D01*
G75*
G02*
X128487705Y-68839592I0J250000D01*
G01*
G37*
G36*
G01*
X130012700Y-118993950D02*
X130012700Y-119906450D01*
G75*
G02*
X129768950Y-120150200I-243750J0D01*
G01*
X129281450Y-120150200D01*
G75*
G02*
X129037700Y-119906450I0J243750D01*
G01*
X129037700Y-118993950D01*
G75*
G02*
X129281450Y-118750200I243750J0D01*
G01*
X129768950Y-118750200D01*
G75*
G02*
X130012700Y-118993950I0J-243750D01*
G01*
G37*
G36*
G01*
X128137700Y-118993950D02*
X128137700Y-119906450D01*
G75*
G02*
X127893950Y-120150200I-243750J0D01*
G01*
X127406450Y-120150200D01*
G75*
G02*
X127162700Y-119906450I0J243750D01*
G01*
X127162700Y-118993950D01*
G75*
G02*
X127406450Y-118750200I243750J0D01*
G01*
X127893950Y-118750200D01*
G75*
G02*
X128137700Y-118993950I0J-243750D01*
G01*
G37*
G36*
G01*
X68443550Y-135112300D02*
X69356050Y-135112300D01*
G75*
G02*
X69599800Y-135356050I0J-243750D01*
G01*
X69599800Y-135843550D01*
G75*
G02*
X69356050Y-136087300I-243750J0D01*
G01*
X68443550Y-136087300D01*
G75*
G02*
X68199800Y-135843550I0J243750D01*
G01*
X68199800Y-135356050D01*
G75*
G02*
X68443550Y-135112300I243750J0D01*
G01*
G37*
G36*
G01*
X68443550Y-133237300D02*
X69356050Y-133237300D01*
G75*
G02*
X69599800Y-133481050I0J-243750D01*
G01*
X69599800Y-133968550D01*
G75*
G02*
X69356050Y-134212300I-243750J0D01*
G01*
X68443550Y-134212300D01*
G75*
G02*
X68199800Y-133968550I0J243750D01*
G01*
X68199800Y-133481050D01*
G75*
G02*
X68443550Y-133237300I243750J0D01*
G01*
G37*
G36*
G01*
X74843550Y-135149800D02*
X75756050Y-135149800D01*
G75*
G02*
X75999800Y-135393550I0J-243750D01*
G01*
X75999800Y-135881050D01*
G75*
G02*
X75756050Y-136124800I-243750J0D01*
G01*
X74843550Y-136124800D01*
G75*
G02*
X74599800Y-135881050I0J243750D01*
G01*
X74599800Y-135393550D01*
G75*
G02*
X74843550Y-135149800I243750J0D01*
G01*
G37*
G36*
G01*
X74843550Y-133274800D02*
X75756050Y-133274800D01*
G75*
G02*
X75999800Y-133518550I0J-243750D01*
G01*
X75999800Y-134006050D01*
G75*
G02*
X75756050Y-134249800I-243750J0D01*
G01*
X74843550Y-134249800D01*
G75*
G02*
X74599800Y-134006050I0J243750D01*
G01*
X74599800Y-133518550D01*
G75*
G02*
X74843550Y-133274800I243750J0D01*
G01*
G37*
G36*
G01*
X128724999Y-63865000D02*
X131575001Y-63865000D01*
G75*
G02*
X131825000Y-64114999I0J-249999D01*
G01*
X131825000Y-64965001D01*
G75*
G02*
X131575001Y-65215000I-249999J0D01*
G01*
X128724999Y-65215000D01*
G75*
G02*
X128475000Y-64965001I0J249999D01*
G01*
X128475000Y-64114999D01*
G75*
G02*
X128724999Y-63865000I249999J0D01*
G01*
G37*
G36*
G01*
X128724999Y-58065000D02*
X131575001Y-58065000D01*
G75*
G02*
X131825000Y-58314999I0J-249999D01*
G01*
X131825000Y-59165001D01*
G75*
G02*
X131575001Y-59415000I-249999J0D01*
G01*
X128724999Y-59415000D01*
G75*
G02*
X128475000Y-59165001I0J249999D01*
G01*
X128475000Y-58314999D01*
G75*
G02*
X128724999Y-58065000I249999J0D01*
G01*
G37*
G36*
G01*
X72643550Y-133287300D02*
X73556050Y-133287300D01*
G75*
G02*
X73799800Y-133531050I0J-243750D01*
G01*
X73799800Y-134018550D01*
G75*
G02*
X73556050Y-134262300I-243750J0D01*
G01*
X72643550Y-134262300D01*
G75*
G02*
X72399800Y-134018550I0J243750D01*
G01*
X72399800Y-133531050D01*
G75*
G02*
X72643550Y-133287300I243750J0D01*
G01*
G37*
G36*
G01*
X72643550Y-135162300D02*
X73556050Y-135162300D01*
G75*
G02*
X73799800Y-135406050I0J-243750D01*
G01*
X73799800Y-135893550D01*
G75*
G02*
X73556050Y-136137300I-243750J0D01*
G01*
X72643550Y-136137300D01*
G75*
G02*
X72399800Y-135893550I0J243750D01*
G01*
X72399800Y-135406050D01*
G75*
G02*
X72643550Y-135162300I243750J0D01*
G01*
G37*
G36*
G01*
X91256450Y-130824800D02*
X90343950Y-130824800D01*
G75*
G02*
X90100200Y-130581050I0J243750D01*
G01*
X90100200Y-130093550D01*
G75*
G02*
X90343950Y-129849800I243750J0D01*
G01*
X91256450Y-129849800D01*
G75*
G02*
X91500200Y-130093550I0J-243750D01*
G01*
X91500200Y-130581050D01*
G75*
G02*
X91256450Y-130824800I-243750J0D01*
G01*
G37*
G36*
G01*
X91256450Y-128949800D02*
X90343950Y-128949800D01*
G75*
G02*
X90100200Y-128706050I0J243750D01*
G01*
X90100200Y-128218550D01*
G75*
G02*
X90343950Y-127974800I243750J0D01*
G01*
X91256450Y-127974800D01*
G75*
G02*
X91500200Y-128218550I0J-243750D01*
G01*
X91500200Y-128706050D01*
G75*
G02*
X91256450Y-128949800I-243750J0D01*
G01*
G37*
G36*
G01*
X92837700Y-140656050D02*
X92837700Y-139743550D01*
G75*
G02*
X93081450Y-139499800I243750J0D01*
G01*
X93568950Y-139499800D01*
G75*
G02*
X93812700Y-139743550I0J-243750D01*
G01*
X93812700Y-140656050D01*
G75*
G02*
X93568950Y-140899800I-243750J0D01*
G01*
X93081450Y-140899800D01*
G75*
G02*
X92837700Y-140656050I0J243750D01*
G01*
G37*
G36*
G01*
X94712700Y-140656050D02*
X94712700Y-139743550D01*
G75*
G02*
X94956450Y-139499800I243750J0D01*
G01*
X95443950Y-139499800D01*
G75*
G02*
X95687700Y-139743550I0J-243750D01*
G01*
X95687700Y-140656050D01*
G75*
G02*
X95443950Y-140899800I-243750J0D01*
G01*
X94956450Y-140899800D01*
G75*
G02*
X94712700Y-140656050I0J243750D01*
G01*
G37*
G36*
G01*
X94256450Y-130762300D02*
X93343950Y-130762300D01*
G75*
G02*
X93100200Y-130518550I0J243750D01*
G01*
X93100200Y-130031050D01*
G75*
G02*
X93343950Y-129787300I243750J0D01*
G01*
X94256450Y-129787300D01*
G75*
G02*
X94500200Y-130031050I0J-243750D01*
G01*
X94500200Y-130518550D01*
G75*
G02*
X94256450Y-130762300I-243750J0D01*
G01*
G37*
G36*
G01*
X94256450Y-128887300D02*
X93343950Y-128887300D01*
G75*
G02*
X93100200Y-128643550I0J243750D01*
G01*
X93100200Y-128156050D01*
G75*
G02*
X93343950Y-127912300I243750J0D01*
G01*
X94256450Y-127912300D01*
G75*
G02*
X94500200Y-128156050I0J-243750D01*
G01*
X94500200Y-128643550D01*
G75*
G02*
X94256450Y-128887300I-243750J0D01*
G01*
G37*
G36*
G01*
X70593550Y-133274800D02*
X71506050Y-133274800D01*
G75*
G02*
X71749800Y-133518550I0J-243750D01*
G01*
X71749800Y-134006050D01*
G75*
G02*
X71506050Y-134249800I-243750J0D01*
G01*
X70593550Y-134249800D01*
G75*
G02*
X70349800Y-134006050I0J243750D01*
G01*
X70349800Y-133518550D01*
G75*
G02*
X70593550Y-133274800I243750J0D01*
G01*
G37*
G36*
G01*
X70593550Y-135149800D02*
X71506050Y-135149800D01*
G75*
G02*
X71749800Y-135393550I0J-243750D01*
G01*
X71749800Y-135881050D01*
G75*
G02*
X71506050Y-136124800I-243750J0D01*
G01*
X70593550Y-136124800D01*
G75*
G02*
X70349800Y-135881050I0J243750D01*
G01*
X70349800Y-135393550D01*
G75*
G02*
X70593550Y-135149800I243750J0D01*
G01*
G37*
G36*
G01*
X47912300Y-95543550D02*
X47912300Y-96456050D01*
G75*
G02*
X47668550Y-96699800I-243750J0D01*
G01*
X47181050Y-96699800D01*
G75*
G02*
X46937300Y-96456050I0J243750D01*
G01*
X46937300Y-95543550D01*
G75*
G02*
X47181050Y-95299800I243750J0D01*
G01*
X47668550Y-95299800D01*
G75*
G02*
X47912300Y-95543550I0J-243750D01*
G01*
G37*
G36*
G01*
X49787300Y-95543550D02*
X49787300Y-96456050D01*
G75*
G02*
X49543550Y-96699800I-243750J0D01*
G01*
X49056050Y-96699800D01*
G75*
G02*
X48812300Y-96456050I0J243750D01*
G01*
X48812300Y-95543550D01*
G75*
G02*
X49056050Y-95299800I243750J0D01*
G01*
X49543550Y-95299800D01*
G75*
G02*
X49787300Y-95543550I0J-243750D01*
G01*
G37*
G36*
G01*
X60262300Y-95443550D02*
X60262300Y-96356050D01*
G75*
G02*
X60018550Y-96599800I-243750J0D01*
G01*
X59531050Y-96599800D01*
G75*
G02*
X59287300Y-96356050I0J243750D01*
G01*
X59287300Y-95443550D01*
G75*
G02*
X59531050Y-95199800I243750J0D01*
G01*
X60018550Y-95199800D01*
G75*
G02*
X60262300Y-95443550I0J-243750D01*
G01*
G37*
G36*
G01*
X58387300Y-95443550D02*
X58387300Y-96356050D01*
G75*
G02*
X58143550Y-96599800I-243750J0D01*
G01*
X57656050Y-96599800D01*
G75*
G02*
X57412300Y-96356050I0J243750D01*
G01*
X57412300Y-95443550D01*
G75*
G02*
X57656050Y-95199800I243750J0D01*
G01*
X58143550Y-95199800D01*
G75*
G02*
X58387300Y-95443550I0J-243750D01*
G01*
G37*
G36*
G01*
X69012300Y-95543550D02*
X69012300Y-96456050D01*
G75*
G02*
X68768550Y-96699800I-243750J0D01*
G01*
X68281050Y-96699800D01*
G75*
G02*
X68037300Y-96456050I0J243750D01*
G01*
X68037300Y-95543550D01*
G75*
G02*
X68281050Y-95299800I243750J0D01*
G01*
X68768550Y-95299800D01*
G75*
G02*
X69012300Y-95543550I0J-243750D01*
G01*
G37*
G36*
G01*
X70887300Y-95543550D02*
X70887300Y-96456050D01*
G75*
G02*
X70643550Y-96699800I-243750J0D01*
G01*
X70156050Y-96699800D01*
G75*
G02*
X69912300Y-96456050I0J243750D01*
G01*
X69912300Y-95543550D01*
G75*
G02*
X70156050Y-95299800I243750J0D01*
G01*
X70643550Y-95299800D01*
G75*
G02*
X70887300Y-95543550I0J-243750D01*
G01*
G37*
G36*
G01*
X46743550Y-93612300D02*
X47656050Y-93612300D01*
G75*
G02*
X47899800Y-93856050I0J-243750D01*
G01*
X47899800Y-94343550D01*
G75*
G02*
X47656050Y-94587300I-243750J0D01*
G01*
X46743550Y-94587300D01*
G75*
G02*
X46499800Y-94343550I0J243750D01*
G01*
X46499800Y-93856050D01*
G75*
G02*
X46743550Y-93612300I243750J0D01*
G01*
G37*
G36*
G01*
X46743550Y-91737300D02*
X47656050Y-91737300D01*
G75*
G02*
X47899800Y-91981050I0J-243750D01*
G01*
X47899800Y-92468550D01*
G75*
G02*
X47656050Y-92712300I-243750J0D01*
G01*
X46743550Y-92712300D01*
G75*
G02*
X46499800Y-92468550I0J243750D01*
G01*
X46499800Y-91981050D01*
G75*
G02*
X46743550Y-91737300I243750J0D01*
G01*
G37*
G36*
G01*
X67543550Y-93512300D02*
X68456050Y-93512300D01*
G75*
G02*
X68699800Y-93756050I0J-243750D01*
G01*
X68699800Y-94243550D01*
G75*
G02*
X68456050Y-94487300I-243750J0D01*
G01*
X67543550Y-94487300D01*
G75*
G02*
X67299800Y-94243550I0J243750D01*
G01*
X67299800Y-93756050D01*
G75*
G02*
X67543550Y-93512300I243750J0D01*
G01*
G37*
G36*
G01*
X67543550Y-91637300D02*
X68456050Y-91637300D01*
G75*
G02*
X68699800Y-91881050I0J-243750D01*
G01*
X68699800Y-92368550D01*
G75*
G02*
X68456050Y-92612300I-243750J0D01*
G01*
X67543550Y-92612300D01*
G75*
G02*
X67299800Y-92368550I0J243750D01*
G01*
X67299800Y-91881050D01*
G75*
G02*
X67543550Y-91637300I243750J0D01*
G01*
G37*
G36*
G01*
X97054800Y-64294800D02*
X94904800Y-64294800D01*
G75*
G02*
X94654800Y-64044800I0J250000D01*
G01*
X94654800Y-63294800D01*
G75*
G02*
X94904800Y-63044800I250000J0D01*
G01*
X97054800Y-63044800D01*
G75*
G02*
X97304800Y-63294800I0J-250000D01*
G01*
X97304800Y-64044800D01*
G75*
G02*
X97054800Y-64294800I-250000J0D01*
G01*
G37*
G36*
G01*
X97054800Y-61494800D02*
X94904800Y-61494800D01*
G75*
G02*
X94654800Y-61244800I0J250000D01*
G01*
X94654800Y-60494800D01*
G75*
G02*
X94904800Y-60244800I250000J0D01*
G01*
X97054800Y-60244800D01*
G75*
G02*
X97304800Y-60494800I0J-250000D01*
G01*
X97304800Y-61244800D01*
G75*
G02*
X97054800Y-61494800I-250000J0D01*
G01*
G37*
G36*
G01*
X131287705Y-72339591D02*
X131287705Y-70189591D01*
G75*
G02*
X131537705Y-69939591I250000J0D01*
G01*
X132287705Y-69939591D01*
G75*
G02*
X132537705Y-70189591I0J-250000D01*
G01*
X132537705Y-72339591D01*
G75*
G02*
X132287705Y-72589591I-250000J0D01*
G01*
X131537705Y-72589591D01*
G75*
G02*
X131287705Y-72339591I0J250000D01*
G01*
G37*
G36*
G01*
X128487705Y-72339591D02*
X128487705Y-70189591D01*
G75*
G02*
X128737705Y-69939591I250000J0D01*
G01*
X129487705Y-69939591D01*
G75*
G02*
X129737705Y-70189591I0J-250000D01*
G01*
X129737705Y-72339591D01*
G75*
G02*
X129487705Y-72589591I-250000J0D01*
G01*
X128737705Y-72589591D01*
G75*
G02*
X128487705Y-72339591I0J250000D01*
G01*
G37*
G36*
G01*
X69925000Y-73525000D02*
X67775000Y-73525000D01*
G75*
G02*
X67525000Y-73275000I0J250000D01*
G01*
X67525000Y-72525000D01*
G75*
G02*
X67775000Y-72275000I250000J0D01*
G01*
X69925000Y-72275000D01*
G75*
G02*
X70175000Y-72525000I0J-250000D01*
G01*
X70175000Y-73275000D01*
G75*
G02*
X69925000Y-73525000I-250000J0D01*
G01*
G37*
G36*
G01*
X69925000Y-70725000D02*
X67775000Y-70725000D01*
G75*
G02*
X67525000Y-70475000I0J250000D01*
G01*
X67525000Y-69725000D01*
G75*
G02*
X67775000Y-69475000I250000J0D01*
G01*
X69925000Y-69475000D01*
G75*
G02*
X70175000Y-69725000I0J-250000D01*
G01*
X70175000Y-70475000D01*
G75*
G02*
X69925000Y-70725000I-250000J0D01*
G01*
G37*
G36*
G01*
X131287705Y-75839592D02*
X131287705Y-73689592D01*
G75*
G02*
X131537705Y-73439592I250000J0D01*
G01*
X132287705Y-73439592D01*
G75*
G02*
X132537705Y-73689592I0J-250000D01*
G01*
X132537705Y-75839592D01*
G75*
G02*
X132287705Y-76089592I-250000J0D01*
G01*
X131537705Y-76089592D01*
G75*
G02*
X131287705Y-75839592I0J250000D01*
G01*
G37*
G36*
G01*
X128487705Y-75839592D02*
X128487705Y-73689592D01*
G75*
G02*
X128737705Y-73439592I250000J0D01*
G01*
X129487705Y-73439592D01*
G75*
G02*
X129737705Y-73689592I0J-250000D01*
G01*
X129737705Y-75839592D01*
G75*
G02*
X129487705Y-76089592I-250000J0D01*
G01*
X128737705Y-76089592D01*
G75*
G02*
X128487705Y-75839592I0J250000D01*
G01*
G37*
G36*
G01*
X100354800Y-64294800D02*
X98204800Y-64294800D01*
G75*
G02*
X97954800Y-64044800I0J250000D01*
G01*
X97954800Y-63294800D01*
G75*
G02*
X98204800Y-63044800I250000J0D01*
G01*
X100354800Y-63044800D01*
G75*
G02*
X100604800Y-63294800I0J-250000D01*
G01*
X100604800Y-64044800D01*
G75*
G02*
X100354800Y-64294800I-250000J0D01*
G01*
G37*
G36*
G01*
X100354800Y-61494800D02*
X98204800Y-61494800D01*
G75*
G02*
X97954800Y-61244800I0J250000D01*
G01*
X97954800Y-60494800D01*
G75*
G02*
X98204800Y-60244800I250000J0D01*
G01*
X100354800Y-60244800D01*
G75*
G02*
X100604800Y-60494800I0J-250000D01*
G01*
X100604800Y-61244800D01*
G75*
G02*
X100354800Y-61494800I-250000J0D01*
G01*
G37*
G36*
G01*
X69843550Y-93512300D02*
X70756050Y-93512300D01*
G75*
G02*
X70999800Y-93756050I0J-243750D01*
G01*
X70999800Y-94243550D01*
G75*
G02*
X70756050Y-94487300I-243750J0D01*
G01*
X69843550Y-94487300D01*
G75*
G02*
X69599800Y-94243550I0J243750D01*
G01*
X69599800Y-93756050D01*
G75*
G02*
X69843550Y-93512300I243750J0D01*
G01*
G37*
G36*
G01*
X69843550Y-91637300D02*
X70756050Y-91637300D01*
G75*
G02*
X70999800Y-91881050I0J-243750D01*
G01*
X70999800Y-92368550D01*
G75*
G02*
X70756050Y-92612300I-243750J0D01*
G01*
X69843550Y-92612300D01*
G75*
G02*
X69599800Y-92368550I0J243750D01*
G01*
X69599800Y-91881050D01*
G75*
G02*
X69843550Y-91637300I243750J0D01*
G01*
G37*
G36*
G01*
X64112500Y-83043750D02*
X64112500Y-83956250D01*
G75*
G02*
X63868750Y-84200000I-243750J0D01*
G01*
X63381250Y-84200000D01*
G75*
G02*
X63137500Y-83956250I0J243750D01*
G01*
X63137500Y-83043750D01*
G75*
G02*
X63381250Y-82800000I243750J0D01*
G01*
X63868750Y-82800000D01*
G75*
G02*
X64112500Y-83043750I0J-243750D01*
G01*
G37*
G36*
G01*
X65987500Y-83043750D02*
X65987500Y-83956250D01*
G75*
G02*
X65743750Y-84200000I-243750J0D01*
G01*
X65256250Y-84200000D01*
G75*
G02*
X65012500Y-83956250I0J243750D01*
G01*
X65012500Y-83043750D01*
G75*
G02*
X65256250Y-82800000I243750J0D01*
G01*
X65743750Y-82800000D01*
G75*
G02*
X65987500Y-83043750I0J-243750D01*
G01*
G37*
G36*
G01*
X120163750Y-65840000D02*
X121076250Y-65840000D01*
G75*
G02*
X121320000Y-66083750I0J-243750D01*
G01*
X121320000Y-66571250D01*
G75*
G02*
X121076250Y-66815000I-243750J0D01*
G01*
X120163750Y-66815000D01*
G75*
G02*
X119920000Y-66571250I0J243750D01*
G01*
X119920000Y-66083750D01*
G75*
G02*
X120163750Y-65840000I243750J0D01*
G01*
G37*
G36*
G01*
X120163750Y-63965000D02*
X121076250Y-63965000D01*
G75*
G02*
X121320000Y-64208750I0J-243750D01*
G01*
X121320000Y-64696250D01*
G75*
G02*
X121076250Y-64940000I-243750J0D01*
G01*
X120163750Y-64940000D01*
G75*
G02*
X119920000Y-64696250I0J243750D01*
G01*
X119920000Y-64208750D01*
G75*
G02*
X120163750Y-63965000I243750J0D01*
G01*
G37*
G36*
G01*
X139693750Y-71612500D02*
X140606250Y-71612500D01*
G75*
G02*
X140850000Y-71856250I0J-243750D01*
G01*
X140850000Y-72343750D01*
G75*
G02*
X140606250Y-72587500I-243750J0D01*
G01*
X139693750Y-72587500D01*
G75*
G02*
X139450000Y-72343750I0J243750D01*
G01*
X139450000Y-71856250D01*
G75*
G02*
X139693750Y-71612500I243750J0D01*
G01*
G37*
G36*
G01*
X139693750Y-69737500D02*
X140606250Y-69737500D01*
G75*
G02*
X140850000Y-69981250I0J-243750D01*
G01*
X140850000Y-70468750D01*
G75*
G02*
X140606250Y-70712500I-243750J0D01*
G01*
X139693750Y-70712500D01*
G75*
G02*
X139450000Y-70468750I0J243750D01*
G01*
X139450000Y-69981250D01*
G75*
G02*
X139693750Y-69737500I243750J0D01*
G01*
G37*
G36*
G01*
X60975000Y-81731250D02*
X60975000Y-80818750D01*
G75*
G02*
X61218750Y-80575000I243750J0D01*
G01*
X61706250Y-80575000D01*
G75*
G02*
X61950000Y-80818750I0J-243750D01*
G01*
X61950000Y-81731250D01*
G75*
G02*
X61706250Y-81975000I-243750J0D01*
G01*
X61218750Y-81975000D01*
G75*
G02*
X60975000Y-81731250I0J243750D01*
G01*
G37*
G36*
G01*
X62850000Y-81731250D02*
X62850000Y-80818750D01*
G75*
G02*
X63093750Y-80575000I243750J0D01*
G01*
X63581250Y-80575000D01*
G75*
G02*
X63825000Y-80818750I0J-243750D01*
G01*
X63825000Y-81731250D01*
G75*
G02*
X63581250Y-81975000I-243750J0D01*
G01*
X63093750Y-81975000D01*
G75*
G02*
X62850000Y-81731250I0J243750D01*
G01*
G37*
G36*
G01*
X49143550Y-93549800D02*
X50056050Y-93549800D01*
G75*
G02*
X50299800Y-93793550I0J-243750D01*
G01*
X50299800Y-94281050D01*
G75*
G02*
X50056050Y-94524800I-243750J0D01*
G01*
X49143550Y-94524800D01*
G75*
G02*
X48899800Y-94281050I0J243750D01*
G01*
X48899800Y-93793550D01*
G75*
G02*
X49143550Y-93549800I243750J0D01*
G01*
G37*
G36*
G01*
X49143550Y-91674800D02*
X50056050Y-91674800D01*
G75*
G02*
X50299800Y-91918550I0J-243750D01*
G01*
X50299800Y-92406050D01*
G75*
G02*
X50056050Y-92649800I-243750J0D01*
G01*
X49143550Y-92649800D01*
G75*
G02*
X48899800Y-92406050I0J243750D01*
G01*
X48899800Y-91918550D01*
G75*
G02*
X49143550Y-91674800I243750J0D01*
G01*
G37*
G36*
G01*
X59243550Y-91537300D02*
X60156050Y-91537300D01*
G75*
G02*
X60399800Y-91781050I0J-243750D01*
G01*
X60399800Y-92268550D01*
G75*
G02*
X60156050Y-92512300I-243750J0D01*
G01*
X59243550Y-92512300D01*
G75*
G02*
X58999800Y-92268550I0J243750D01*
G01*
X58999800Y-91781050D01*
G75*
G02*
X59243550Y-91537300I243750J0D01*
G01*
G37*
G36*
G01*
X59243550Y-93412300D02*
X60156050Y-93412300D01*
G75*
G02*
X60399800Y-93656050I0J-243750D01*
G01*
X60399800Y-94143550D01*
G75*
G02*
X60156050Y-94387300I-243750J0D01*
G01*
X59243550Y-94387300D01*
G75*
G02*
X58999800Y-94143550I0J243750D01*
G01*
X58999800Y-93656050D01*
G75*
G02*
X59243550Y-93412300I243750J0D01*
G01*
G37*
G36*
G01*
X65512500Y-61443750D02*
X65512500Y-62356250D01*
G75*
G02*
X65268750Y-62600000I-243750J0D01*
G01*
X64781250Y-62600000D01*
G75*
G02*
X64537500Y-62356250I0J243750D01*
G01*
X64537500Y-61443750D01*
G75*
G02*
X64781250Y-61200000I243750J0D01*
G01*
X65268750Y-61200000D01*
G75*
G02*
X65512500Y-61443750I0J-243750D01*
G01*
G37*
G36*
G01*
X67387500Y-61443750D02*
X67387500Y-62356250D01*
G75*
G02*
X67143750Y-62600000I-243750J0D01*
G01*
X66656250Y-62600000D01*
G75*
G02*
X66412500Y-62356250I0J243750D01*
G01*
X66412500Y-61443750D01*
G75*
G02*
X66656250Y-61200000I243750J0D01*
G01*
X67143750Y-61200000D01*
G75*
G02*
X67387500Y-61443750I0J-243750D01*
G01*
G37*
G36*
G01*
X57043550Y-91474800D02*
X57956050Y-91474800D01*
G75*
G02*
X58199800Y-91718550I0J-243750D01*
G01*
X58199800Y-92206050D01*
G75*
G02*
X57956050Y-92449800I-243750J0D01*
G01*
X57043550Y-92449800D01*
G75*
G02*
X56799800Y-92206050I0J243750D01*
G01*
X56799800Y-91718550D01*
G75*
G02*
X57043550Y-91474800I243750J0D01*
G01*
G37*
G36*
G01*
X57043550Y-93349800D02*
X57956050Y-93349800D01*
G75*
G02*
X58199800Y-93593550I0J-243750D01*
G01*
X58199800Y-94081050D01*
G75*
G02*
X57956050Y-94324800I-243750J0D01*
G01*
X57043550Y-94324800D01*
G75*
G02*
X56799800Y-94081050I0J243750D01*
G01*
X56799800Y-93593550D01*
G75*
G02*
X57043550Y-93349800I243750J0D01*
G01*
G37*
G36*
G01*
X95812500Y-55256250D02*
X95812500Y-54343750D01*
G75*
G02*
X96056250Y-54100000I243750J0D01*
G01*
X96543750Y-54100000D01*
G75*
G02*
X96787500Y-54343750I0J-243750D01*
G01*
X96787500Y-55256250D01*
G75*
G02*
X96543750Y-55500000I-243750J0D01*
G01*
X96056250Y-55500000D01*
G75*
G02*
X95812500Y-55256250I0J243750D01*
G01*
G37*
G36*
G01*
X97687500Y-55256250D02*
X97687500Y-54343750D01*
G75*
G02*
X97931250Y-54100000I243750J0D01*
G01*
X98418750Y-54100000D01*
G75*
G02*
X98662500Y-54343750I0J-243750D01*
G01*
X98662500Y-55256250D01*
G75*
G02*
X98418750Y-55500000I-243750J0D01*
G01*
X97931250Y-55500000D01*
G75*
G02*
X97687500Y-55256250I0J243750D01*
G01*
G37*
G36*
G01*
X88787500Y-72656250D02*
X88787500Y-71743750D01*
G75*
G02*
X89031250Y-71500000I243750J0D01*
G01*
X89518750Y-71500000D01*
G75*
G02*
X89762500Y-71743750I0J-243750D01*
G01*
X89762500Y-72656250D01*
G75*
G02*
X89518750Y-72900000I-243750J0D01*
G01*
X89031250Y-72900000D01*
G75*
G02*
X88787500Y-72656250I0J243750D01*
G01*
G37*
G36*
G01*
X90662500Y-72656250D02*
X90662500Y-71743750D01*
G75*
G02*
X90906250Y-71500000I243750J0D01*
G01*
X91393750Y-71500000D01*
G75*
G02*
X91637500Y-71743750I0J-243750D01*
G01*
X91637500Y-72656250D01*
G75*
G02*
X91393750Y-72900000I-243750J0D01*
G01*
X90906250Y-72900000D01*
G75*
G02*
X90662500Y-72656250I0J243750D01*
G01*
G37*
G36*
G01*
X55175000Y-72925001D02*
X55175000Y-70074999D01*
G75*
G02*
X55424999Y-69825000I249999J0D01*
G01*
X56275001Y-69825000D01*
G75*
G02*
X56525000Y-70074999I0J-249999D01*
G01*
X56525000Y-72925001D01*
G75*
G02*
X56275001Y-73175000I-249999J0D01*
G01*
X55424999Y-73175000D01*
G75*
G02*
X55175000Y-72925001I0J249999D01*
G01*
G37*
G36*
G01*
X60975000Y-72925001D02*
X60975000Y-70074999D01*
G75*
G02*
X61224999Y-69825000I249999J0D01*
G01*
X62075001Y-69825000D01*
G75*
G02*
X62325000Y-70074999I0J-249999D01*
G01*
X62325000Y-72925001D01*
G75*
G02*
X62075001Y-73175000I-249999J0D01*
G01*
X61224999Y-73175000D01*
G75*
G02*
X60975000Y-72925001I0J249999D01*
G01*
G37*
G36*
G01*
X88745000Y-63865001D02*
X88745000Y-61014999D01*
G75*
G02*
X88994999Y-60765000I249999J0D01*
G01*
X89845001Y-60765000D01*
G75*
G02*
X90095000Y-61014999I0J-249999D01*
G01*
X90095000Y-63865001D01*
G75*
G02*
X89845001Y-64115000I-249999J0D01*
G01*
X88994999Y-64115000D01*
G75*
G02*
X88745000Y-63865001I0J249999D01*
G01*
G37*
G36*
G01*
X82945000Y-63865001D02*
X82945000Y-61014999D01*
G75*
G02*
X83194999Y-60765000I249999J0D01*
G01*
X84045001Y-60765000D01*
G75*
G02*
X84295000Y-61014999I0J-249999D01*
G01*
X84295000Y-63865001D01*
G75*
G02*
X84045001Y-64115000I-249999J0D01*
G01*
X83194999Y-64115000D01*
G75*
G02*
X82945000Y-63865001I0J249999D01*
G01*
G37*
G36*
G01*
X102743750Y-73830000D02*
X103656250Y-73830000D01*
G75*
G02*
X103900000Y-74073750I0J-243750D01*
G01*
X103900000Y-74561250D01*
G75*
G02*
X103656250Y-74805000I-243750J0D01*
G01*
X102743750Y-74805000D01*
G75*
G02*
X102500000Y-74561250I0J243750D01*
G01*
X102500000Y-74073750D01*
G75*
G02*
X102743750Y-73830000I243750J0D01*
G01*
G37*
G36*
G01*
X102743750Y-71955000D02*
X103656250Y-71955000D01*
G75*
G02*
X103900000Y-72198750I0J-243750D01*
G01*
X103900000Y-72686250D01*
G75*
G02*
X103656250Y-72930000I-243750J0D01*
G01*
X102743750Y-72930000D01*
G75*
G02*
X102500000Y-72686250I0J243750D01*
G01*
X102500000Y-72198750D01*
G75*
G02*
X102743750Y-71955000I243750J0D01*
G01*
G37*
G36*
G01*
X96837500Y-66636250D02*
X96837500Y-65723750D01*
G75*
G02*
X97081250Y-65480000I243750J0D01*
G01*
X97568750Y-65480000D01*
G75*
G02*
X97812500Y-65723750I0J-243750D01*
G01*
X97812500Y-66636250D01*
G75*
G02*
X97568750Y-66880000I-243750J0D01*
G01*
X97081250Y-66880000D01*
G75*
G02*
X96837500Y-66636250I0J243750D01*
G01*
G37*
G36*
G01*
X98712500Y-66636250D02*
X98712500Y-65723750D01*
G75*
G02*
X98956250Y-65480000I243750J0D01*
G01*
X99443750Y-65480000D01*
G75*
G02*
X99687500Y-65723750I0J-243750D01*
G01*
X99687500Y-66636250D01*
G75*
G02*
X99443750Y-66880000I-243750J0D01*
G01*
X98956250Y-66880000D01*
G75*
G02*
X98712500Y-66636250I0J243750D01*
G01*
G37*
G36*
G01*
X121277700Y-79043950D02*
X121277700Y-79956450D01*
G75*
G02*
X121033950Y-80200200I-243750J0D01*
G01*
X120546450Y-80200200D01*
G75*
G02*
X120302700Y-79956450I0J243750D01*
G01*
X120302700Y-79043950D01*
G75*
G02*
X120546450Y-78800200I243750J0D01*
G01*
X121033950Y-78800200D01*
G75*
G02*
X121277700Y-79043950I0J-243750D01*
G01*
G37*
G36*
G01*
X119402700Y-79043950D02*
X119402700Y-79956450D01*
G75*
G02*
X119158950Y-80200200I-243750J0D01*
G01*
X118671450Y-80200200D01*
G75*
G02*
X118427700Y-79956450I0J243750D01*
G01*
X118427700Y-79043950D01*
G75*
G02*
X118671450Y-78800200I243750J0D01*
G01*
X119158950Y-78800200D01*
G75*
G02*
X119402700Y-79043950I0J-243750D01*
G01*
G37*
G36*
G01*
X73150000Y-85456250D02*
X73150000Y-84543750D01*
G75*
G02*
X73393750Y-84300000I243750J0D01*
G01*
X73881250Y-84300000D01*
G75*
G02*
X74125000Y-84543750I0J-243750D01*
G01*
X74125000Y-85456250D01*
G75*
G02*
X73881250Y-85700000I-243750J0D01*
G01*
X73393750Y-85700000D01*
G75*
G02*
X73150000Y-85456250I0J243750D01*
G01*
G37*
G36*
G01*
X71275000Y-85456250D02*
X71275000Y-84543750D01*
G75*
G02*
X71518750Y-84300000I243750J0D01*
G01*
X72006250Y-84300000D01*
G75*
G02*
X72250000Y-84543750I0J-243750D01*
G01*
X72250000Y-85456250D01*
G75*
G02*
X72006250Y-85700000I-243750J0D01*
G01*
X71518750Y-85700000D01*
G75*
G02*
X71275000Y-85456250I0J243750D01*
G01*
G37*
G36*
G01*
X126523750Y-74770000D02*
X127436250Y-74770000D01*
G75*
G02*
X127680000Y-75013750I0J-243750D01*
G01*
X127680000Y-75501250D01*
G75*
G02*
X127436250Y-75745000I-243750J0D01*
G01*
X126523750Y-75745000D01*
G75*
G02*
X126280000Y-75501250I0J243750D01*
G01*
X126280000Y-75013750D01*
G75*
G02*
X126523750Y-74770000I243750J0D01*
G01*
G37*
G36*
G01*
X126523750Y-72895000D02*
X127436250Y-72895000D01*
G75*
G02*
X127680000Y-73138750I0J-243750D01*
G01*
X127680000Y-73626250D01*
G75*
G02*
X127436250Y-73870000I-243750J0D01*
G01*
X126523750Y-73870000D01*
G75*
G02*
X126280000Y-73626250I0J243750D01*
G01*
X126280000Y-73138750D01*
G75*
G02*
X126523750Y-72895000I243750J0D01*
G01*
G37*
G36*
G01*
X68712500Y-75581250D02*
X68712500Y-74668750D01*
G75*
G02*
X68956250Y-74425000I243750J0D01*
G01*
X69443750Y-74425000D01*
G75*
G02*
X69687500Y-74668750I0J-243750D01*
G01*
X69687500Y-75581250D01*
G75*
G02*
X69443750Y-75825000I-243750J0D01*
G01*
X68956250Y-75825000D01*
G75*
G02*
X68712500Y-75581250I0J243750D01*
G01*
G37*
G36*
G01*
X70587500Y-75581250D02*
X70587500Y-74668750D01*
G75*
G02*
X70831250Y-74425000I243750J0D01*
G01*
X71318750Y-74425000D01*
G75*
G02*
X71562500Y-74668750I0J-243750D01*
G01*
X71562500Y-75581250D01*
G75*
G02*
X71318750Y-75825000I-243750J0D01*
G01*
X70831250Y-75825000D01*
G75*
G02*
X70587500Y-75581250I0J243750D01*
G01*
G37*
D25*
X49825400Y-106299800D03*
X49825400Y-109999800D03*
D26*
X60321600Y-105281200D03*
X60821600Y-105281200D03*
X61321600Y-105281200D03*
X61821600Y-105281200D03*
X62321600Y-105281200D03*
X62821600Y-105281200D03*
X63321600Y-105281200D03*
X63821600Y-105281200D03*
X64321600Y-105281200D03*
X64821600Y-105281200D03*
X65321600Y-105281200D03*
X65821600Y-105281200D03*
X66321600Y-105281200D03*
X66821600Y-105281200D03*
X67321600Y-105281200D03*
X67821600Y-105281200D03*
D27*
X69771600Y-107231200D03*
X69771600Y-107731200D03*
X69771600Y-108231200D03*
X69771600Y-108731200D03*
X69771600Y-109231200D03*
X69771600Y-109731200D03*
X69771600Y-110231200D03*
X69771600Y-110731200D03*
X69771600Y-111231200D03*
X69771600Y-111731200D03*
X69771600Y-112231200D03*
X69771600Y-112731200D03*
X69771600Y-113231200D03*
X69771600Y-113731200D03*
X69771600Y-114231200D03*
X69771600Y-114731200D03*
D26*
X67821600Y-116681200D03*
X67321600Y-116681200D03*
X66821600Y-116681200D03*
X66321600Y-116681200D03*
X65821600Y-116681200D03*
X65321600Y-116681200D03*
X64821600Y-116681200D03*
X64321600Y-116681200D03*
X63821600Y-116681200D03*
X63321600Y-116681200D03*
X62821600Y-116681200D03*
X62321600Y-116681200D03*
X61821600Y-116681200D03*
X61321600Y-116681200D03*
X60821600Y-116681200D03*
X60321600Y-116681200D03*
D27*
X58371600Y-114731200D03*
X58371600Y-114231200D03*
X58371600Y-113731200D03*
X58371600Y-113231200D03*
X58371600Y-112731200D03*
X58371600Y-112231200D03*
X58371600Y-111731200D03*
X58371600Y-111231200D03*
X58371600Y-110731200D03*
X58371600Y-110231200D03*
X58371600Y-109731200D03*
X58371600Y-109231200D03*
X58371600Y-108731200D03*
X58371600Y-108231200D03*
X58371600Y-107731200D03*
X58371600Y-107231200D03*
G36*
G01*
X50487300Y-115456050D02*
X50487300Y-114543550D01*
G75*
G02*
X50731050Y-114299800I243750J0D01*
G01*
X51218550Y-114299800D01*
G75*
G02*
X51462300Y-114543550I0J-243750D01*
G01*
X51462300Y-115456050D01*
G75*
G02*
X51218550Y-115699800I-243750J0D01*
G01*
X50731050Y-115699800D01*
G75*
G02*
X50487300Y-115456050I0J243750D01*
G01*
G37*
G36*
G01*
X48612300Y-115456050D02*
X48612300Y-114543550D01*
G75*
G02*
X48856050Y-114299800I243750J0D01*
G01*
X49343550Y-114299800D01*
G75*
G02*
X49587300Y-114543550I0J-243750D01*
G01*
X49587300Y-115456050D01*
G75*
G02*
X49343550Y-115699800I-243750J0D01*
G01*
X48856050Y-115699800D01*
G75*
G02*
X48612300Y-115456050I0J243750D01*
G01*
G37*
G36*
G01*
X66603800Y-118528550D02*
X66603800Y-119441050D01*
G75*
G02*
X66360050Y-119684800I-243750J0D01*
G01*
X65872550Y-119684800D01*
G75*
G02*
X65628800Y-119441050I0J243750D01*
G01*
X65628800Y-118528550D01*
G75*
G02*
X65872550Y-118284800I243750J0D01*
G01*
X66360050Y-118284800D01*
G75*
G02*
X66603800Y-118528550I0J-243750D01*
G01*
G37*
G36*
G01*
X68478800Y-118528550D02*
X68478800Y-119441050D01*
G75*
G02*
X68235050Y-119684800I-243750J0D01*
G01*
X67747550Y-119684800D01*
G75*
G02*
X67503800Y-119441050I0J243750D01*
G01*
X67503800Y-118528550D01*
G75*
G02*
X67747550Y-118284800I243750J0D01*
G01*
X68235050Y-118284800D01*
G75*
G02*
X68478800Y-118528550I0J-243750D01*
G01*
G37*
G36*
G01*
X72497050Y-123605799D02*
X71584550Y-123605799D01*
G75*
G02*
X71340800Y-123362049I0J243750D01*
G01*
X71340800Y-122874549D01*
G75*
G02*
X71584550Y-122630799I243750J0D01*
G01*
X72497050Y-122630799D01*
G75*
G02*
X72740800Y-122874549I0J-243750D01*
G01*
X72740800Y-123362049D01*
G75*
G02*
X72497050Y-123605799I-243750J0D01*
G01*
G37*
G36*
G01*
X72497050Y-125480799D02*
X71584550Y-125480799D01*
G75*
G02*
X71340800Y-125237049I0J243750D01*
G01*
X71340800Y-124749549D01*
G75*
G02*
X71584550Y-124505799I243750J0D01*
G01*
X72497050Y-124505799D01*
G75*
G02*
X72740800Y-124749549I0J-243750D01*
G01*
X72740800Y-125237049D01*
G75*
G02*
X72497050Y-125480799I-243750J0D01*
G01*
G37*
G36*
G01*
X137106050Y-107012700D02*
X136193550Y-107012700D01*
G75*
G02*
X135949800Y-106768950I0J243750D01*
G01*
X135949800Y-106281450D01*
G75*
G02*
X136193550Y-106037700I243750J0D01*
G01*
X137106050Y-106037700D01*
G75*
G02*
X137349800Y-106281450I0J-243750D01*
G01*
X137349800Y-106768950D01*
G75*
G02*
X137106050Y-107012700I-243750J0D01*
G01*
G37*
G36*
G01*
X137106050Y-105137700D02*
X136193550Y-105137700D01*
G75*
G02*
X135949800Y-104893950I0J243750D01*
G01*
X135949800Y-104406450D01*
G75*
G02*
X136193550Y-104162700I243750J0D01*
G01*
X137106050Y-104162700D01*
G75*
G02*
X137349800Y-104406450I0J-243750D01*
G01*
X137349800Y-104893950D01*
G75*
G02*
X137106050Y-105137700I-243750J0D01*
G01*
G37*
G36*
G01*
X101253550Y-147189800D02*
X102166050Y-147189800D01*
G75*
G02*
X102409800Y-147433550I0J-243750D01*
G01*
X102409800Y-147921050D01*
G75*
G02*
X102166050Y-148164800I-243750J0D01*
G01*
X101253550Y-148164800D01*
G75*
G02*
X101009800Y-147921050I0J243750D01*
G01*
X101009800Y-147433550D01*
G75*
G02*
X101253550Y-147189800I243750J0D01*
G01*
G37*
G36*
G01*
X101253550Y-145314800D02*
X102166050Y-145314800D01*
G75*
G02*
X102409800Y-145558550I0J-243750D01*
G01*
X102409800Y-146046050D01*
G75*
G02*
X102166050Y-146289800I-243750J0D01*
G01*
X101253550Y-146289800D01*
G75*
G02*
X101009800Y-146046050I0J243750D01*
G01*
X101009800Y-145558550D01*
G75*
G02*
X101253550Y-145314800I243750J0D01*
G01*
G37*
G36*
G01*
X79391545Y-142237300D02*
X80304045Y-142237300D01*
G75*
G02*
X80547795Y-142481050I0J-243750D01*
G01*
X80547795Y-142968550D01*
G75*
G02*
X80304045Y-143212300I-243750J0D01*
G01*
X79391545Y-143212300D01*
G75*
G02*
X79147795Y-142968550I0J243750D01*
G01*
X79147795Y-142481050D01*
G75*
G02*
X79391545Y-142237300I243750J0D01*
G01*
G37*
G36*
G01*
X79391545Y-140362300D02*
X80304045Y-140362300D01*
G75*
G02*
X80547795Y-140606050I0J-243750D01*
G01*
X80547795Y-141093550D01*
G75*
G02*
X80304045Y-141337300I-243750J0D01*
G01*
X79391545Y-141337300D01*
G75*
G02*
X79147795Y-141093550I0J243750D01*
G01*
X79147795Y-140606050D01*
G75*
G02*
X79391545Y-140362300I243750J0D01*
G01*
G37*
G36*
G01*
X99153550Y-147212299D02*
X100066050Y-147212299D01*
G75*
G02*
X100309800Y-147456049I0J-243750D01*
G01*
X100309800Y-147943549D01*
G75*
G02*
X100066050Y-148187299I-243750J0D01*
G01*
X99153550Y-148187299D01*
G75*
G02*
X98909800Y-147943549I0J243750D01*
G01*
X98909800Y-147456049D01*
G75*
G02*
X99153550Y-147212299I243750J0D01*
G01*
G37*
G36*
G01*
X99153550Y-145337299D02*
X100066050Y-145337299D01*
G75*
G02*
X100309800Y-145581049I0J-243750D01*
G01*
X100309800Y-146068549D01*
G75*
G02*
X100066050Y-146312299I-243750J0D01*
G01*
X99153550Y-146312299D01*
G75*
G02*
X98909800Y-146068549I0J243750D01*
G01*
X98909800Y-145581049D01*
G75*
G02*
X99153550Y-145337299I243750J0D01*
G01*
G37*
G36*
G01*
X81693550Y-143087300D02*
X82606050Y-143087300D01*
G75*
G02*
X82849800Y-143331050I0J-243750D01*
G01*
X82849800Y-143818550D01*
G75*
G02*
X82606050Y-144062300I-243750J0D01*
G01*
X81693550Y-144062300D01*
G75*
G02*
X81449800Y-143818550I0J243750D01*
G01*
X81449800Y-143331050D01*
G75*
G02*
X81693550Y-143087300I243750J0D01*
G01*
G37*
G36*
G01*
X81693550Y-141212300D02*
X82606050Y-141212300D01*
G75*
G02*
X82849800Y-141456050I0J-243750D01*
G01*
X82849800Y-141943550D01*
G75*
G02*
X82606050Y-142187300I-243750J0D01*
G01*
X81693550Y-142187300D01*
G75*
G02*
X81449800Y-141943550I0J243750D01*
G01*
X81449800Y-141456050D01*
G75*
G02*
X81693550Y-141212300I243750J0D01*
G01*
G37*
G36*
G01*
X83968550Y-143912300D02*
X84881050Y-143912300D01*
G75*
G02*
X85124800Y-144156050I0J-243750D01*
G01*
X85124800Y-144643550D01*
G75*
G02*
X84881050Y-144887300I-243750J0D01*
G01*
X83968550Y-144887300D01*
G75*
G02*
X83724800Y-144643550I0J243750D01*
G01*
X83724800Y-144156050D01*
G75*
G02*
X83968550Y-143912300I243750J0D01*
G01*
G37*
G36*
G01*
X83968550Y-142037300D02*
X84881050Y-142037300D01*
G75*
G02*
X85124800Y-142281050I0J-243750D01*
G01*
X85124800Y-142768550D01*
G75*
G02*
X84881050Y-143012300I-243750J0D01*
G01*
X83968550Y-143012300D01*
G75*
G02*
X83724800Y-142768550I0J243750D01*
G01*
X83724800Y-142281050D01*
G75*
G02*
X83968550Y-142037300I243750J0D01*
G01*
G37*
G36*
G01*
X86293550Y-145112300D02*
X87206050Y-145112300D01*
G75*
G02*
X87449800Y-145356050I0J-243750D01*
G01*
X87449800Y-145843550D01*
G75*
G02*
X87206050Y-146087300I-243750J0D01*
G01*
X86293550Y-146087300D01*
G75*
G02*
X86049800Y-145843550I0J243750D01*
G01*
X86049800Y-145356050D01*
G75*
G02*
X86293550Y-145112300I243750J0D01*
G01*
G37*
G36*
G01*
X86293550Y-143237300D02*
X87206050Y-143237300D01*
G75*
G02*
X87449800Y-143481050I0J-243750D01*
G01*
X87449800Y-143968550D01*
G75*
G02*
X87206050Y-144212300I-243750J0D01*
G01*
X86293550Y-144212300D01*
G75*
G02*
X86049800Y-143968550I0J243750D01*
G01*
X86049800Y-143481050D01*
G75*
G02*
X86293550Y-143237300I243750J0D01*
G01*
G37*
G36*
G01*
X134906050Y-107025200D02*
X133993550Y-107025200D01*
G75*
G02*
X133749800Y-106781450I0J243750D01*
G01*
X133749800Y-106293950D01*
G75*
G02*
X133993550Y-106050200I243750J0D01*
G01*
X134906050Y-106050200D01*
G75*
G02*
X135149800Y-106293950I0J-243750D01*
G01*
X135149800Y-106781450D01*
G75*
G02*
X134906050Y-107025200I-243750J0D01*
G01*
G37*
G36*
G01*
X134906050Y-105150200D02*
X133993550Y-105150200D01*
G75*
G02*
X133749800Y-104906450I0J243750D01*
G01*
X133749800Y-104418950D01*
G75*
G02*
X133993550Y-104175200I243750J0D01*
G01*
X134906050Y-104175200D01*
G75*
G02*
X135149800Y-104418950I0J-243750D01*
G01*
X135149800Y-104906450D01*
G75*
G02*
X134906050Y-105150200I-243750J0D01*
G01*
G37*
G36*
G01*
X147293550Y-101425200D02*
X148206050Y-101425200D01*
G75*
G02*
X148449800Y-101668950I0J-243750D01*
G01*
X148449800Y-102156450D01*
G75*
G02*
X148206050Y-102400200I-243750J0D01*
G01*
X147293550Y-102400200D01*
G75*
G02*
X147049800Y-102156450I0J243750D01*
G01*
X147049800Y-101668950D01*
G75*
G02*
X147293550Y-101425200I243750J0D01*
G01*
G37*
G36*
G01*
X147293550Y-103300200D02*
X148206050Y-103300200D01*
G75*
G02*
X148449800Y-103543950I0J-243750D01*
G01*
X148449800Y-104031450D01*
G75*
G02*
X148206050Y-104275200I-243750J0D01*
G01*
X147293550Y-104275200D01*
G75*
G02*
X147049800Y-104031450I0J243750D01*
G01*
X147049800Y-103543950D01*
G75*
G02*
X147293550Y-103300200I243750J0D01*
G01*
G37*
G36*
G01*
X144056050Y-104275200D02*
X143143550Y-104275200D01*
G75*
G02*
X142899800Y-104031450I0J243750D01*
G01*
X142899800Y-103543950D01*
G75*
G02*
X143143550Y-103300200I243750J0D01*
G01*
X144056050Y-103300200D01*
G75*
G02*
X144299800Y-103543950I0J-243750D01*
G01*
X144299800Y-104031450D01*
G75*
G02*
X144056050Y-104275200I-243750J0D01*
G01*
G37*
G36*
G01*
X144056050Y-102400200D02*
X143143550Y-102400200D01*
G75*
G02*
X142899800Y-102156450I0J243750D01*
G01*
X142899800Y-101668950D01*
G75*
G02*
X143143550Y-101425200I243750J0D01*
G01*
X144056050Y-101425200D01*
G75*
G02*
X144299800Y-101668950I0J-243750D01*
G01*
X144299800Y-102156450D01*
G75*
G02*
X144056050Y-102400200I-243750J0D01*
G01*
G37*
G36*
G01*
X152724800Y-93343950D02*
X152724800Y-94256450D01*
G75*
G02*
X152481050Y-94500200I-243750J0D01*
G01*
X151993550Y-94500200D01*
G75*
G02*
X151749800Y-94256450I0J243750D01*
G01*
X151749800Y-93343950D01*
G75*
G02*
X151993550Y-93100200I243750J0D01*
G01*
X152481050Y-93100200D01*
G75*
G02*
X152724800Y-93343950I0J-243750D01*
G01*
G37*
G36*
G01*
X150849800Y-93343950D02*
X150849800Y-94256450D01*
G75*
G02*
X150606050Y-94500200I-243750J0D01*
G01*
X150118550Y-94500200D01*
G75*
G02*
X149874800Y-94256450I0J243750D01*
G01*
X149874800Y-93343950D01*
G75*
G02*
X150118550Y-93100200I243750J0D01*
G01*
X150606050Y-93100200D01*
G75*
G02*
X150849800Y-93343950I0J-243750D01*
G01*
G37*
G36*
G01*
X139306050Y-106975200D02*
X138393550Y-106975200D01*
G75*
G02*
X138149800Y-106731450I0J243750D01*
G01*
X138149800Y-106243950D01*
G75*
G02*
X138393550Y-106000200I243750J0D01*
G01*
X139306050Y-106000200D01*
G75*
G02*
X139549800Y-106243950I0J-243750D01*
G01*
X139549800Y-106731450D01*
G75*
G02*
X139306050Y-106975200I-243750J0D01*
G01*
G37*
G36*
G01*
X139306050Y-105100200D02*
X138393550Y-105100200D01*
G75*
G02*
X138149800Y-104856450I0J243750D01*
G01*
X138149800Y-104368950D01*
G75*
G02*
X138393550Y-104125200I243750J0D01*
G01*
X139306050Y-104125200D01*
G75*
G02*
X139549800Y-104368950I0J-243750D01*
G01*
X139549800Y-104856450D01*
G75*
G02*
X139306050Y-105100200I-243750J0D01*
G01*
G37*
G36*
G01*
X141506050Y-106925000D02*
X140593550Y-106925000D01*
G75*
G02*
X140349800Y-106681250I0J243750D01*
G01*
X140349800Y-106193750D01*
G75*
G02*
X140593550Y-105950000I243750J0D01*
G01*
X141506050Y-105950000D01*
G75*
G02*
X141749800Y-106193750I0J-243750D01*
G01*
X141749800Y-106681250D01*
G75*
G02*
X141506050Y-106925000I-243750J0D01*
G01*
G37*
G36*
G01*
X141506050Y-105050000D02*
X140593550Y-105050000D01*
G75*
G02*
X140349800Y-104806250I0J243750D01*
G01*
X140349800Y-104318750D01*
G75*
G02*
X140593550Y-104075000I243750J0D01*
G01*
X141506050Y-104075000D01*
G75*
G02*
X141749800Y-104318750I0J-243750D01*
G01*
X141749800Y-104806250D01*
G75*
G02*
X141506050Y-105050000I-243750J0D01*
G01*
G37*
D28*
X147749800Y-98025200D03*
X147749800Y-98675200D03*
X147749800Y-99325200D03*
X147749800Y-99975200D03*
X143349800Y-99975200D03*
X143349800Y-99325200D03*
X143349800Y-98675200D03*
X143349800Y-98025200D03*
G36*
G01*
X146156050Y-104275200D02*
X145243550Y-104275200D01*
G75*
G02*
X144999800Y-104031450I0J243750D01*
G01*
X144999800Y-103543950D01*
G75*
G02*
X145243550Y-103300200I243750J0D01*
G01*
X146156050Y-103300200D01*
G75*
G02*
X146399800Y-103543950I0J-243750D01*
G01*
X146399800Y-104031450D01*
G75*
G02*
X146156050Y-104275200I-243750J0D01*
G01*
G37*
G36*
G01*
X146156050Y-102400200D02*
X145243550Y-102400200D01*
G75*
G02*
X144999800Y-102156450I0J243750D01*
G01*
X144999800Y-101668950D01*
G75*
G02*
X145243550Y-101425200I243750J0D01*
G01*
X146156050Y-101425200D01*
G75*
G02*
X146399800Y-101668950I0J-243750D01*
G01*
X146399800Y-102156450D01*
G75*
G02*
X146156050Y-102400200I-243750J0D01*
G01*
G37*
G36*
G01*
X140693550Y-99525200D02*
X141606050Y-99525200D01*
G75*
G02*
X141849800Y-99768950I0J-243750D01*
G01*
X141849800Y-100256450D01*
G75*
G02*
X141606050Y-100500200I-243750J0D01*
G01*
X140693550Y-100500200D01*
G75*
G02*
X140449800Y-100256450I0J243750D01*
G01*
X140449800Y-99768950D01*
G75*
G02*
X140693550Y-99525200I243750J0D01*
G01*
G37*
G36*
G01*
X140693550Y-101400200D02*
X141606050Y-101400200D01*
G75*
G02*
X141849800Y-101643950I0J-243750D01*
G01*
X141849800Y-102131450D01*
G75*
G02*
X141606050Y-102375200I-243750J0D01*
G01*
X140693550Y-102375200D01*
G75*
G02*
X140449800Y-102131450I0J243750D01*
G01*
X140449800Y-101643950D01*
G75*
G02*
X140693550Y-101400200I243750J0D01*
G01*
G37*
G36*
G01*
X149874800Y-98556450D02*
X149874800Y-97643950D01*
G75*
G02*
X150118550Y-97400200I243750J0D01*
G01*
X150606050Y-97400200D01*
G75*
G02*
X150849800Y-97643950I0J-243750D01*
G01*
X150849800Y-98556450D01*
G75*
G02*
X150606050Y-98800200I-243750J0D01*
G01*
X150118550Y-98800200D01*
G75*
G02*
X149874800Y-98556450I0J243750D01*
G01*
G37*
G36*
G01*
X151749800Y-98556450D02*
X151749800Y-97643950D01*
G75*
G02*
X151993550Y-97400200I243750J0D01*
G01*
X152481050Y-97400200D01*
G75*
G02*
X152724800Y-97643950I0J-243750D01*
G01*
X152724800Y-98556450D01*
G75*
G02*
X152481050Y-98800200I-243750J0D01*
G01*
X151993550Y-98800200D01*
G75*
G02*
X151749800Y-98556450I0J243750D01*
G01*
G37*
G36*
G01*
X141606050Y-98712700D02*
X140693550Y-98712700D01*
G75*
G02*
X140449800Y-98468950I0J243750D01*
G01*
X140449800Y-97981450D01*
G75*
G02*
X140693550Y-97737700I243750J0D01*
G01*
X141606050Y-97737700D01*
G75*
G02*
X141849800Y-97981450I0J-243750D01*
G01*
X141849800Y-98468950D01*
G75*
G02*
X141606050Y-98712700I-243750J0D01*
G01*
G37*
G36*
G01*
X141606050Y-96837700D02*
X140693550Y-96837700D01*
G75*
G02*
X140449800Y-96593950I0J243750D01*
G01*
X140449800Y-96106450D01*
G75*
G02*
X140693550Y-95862700I243750J0D01*
G01*
X141606050Y-95862700D01*
G75*
G02*
X141849800Y-96106450I0J-243750D01*
G01*
X141849800Y-96593950D01*
G75*
G02*
X141606050Y-96837700I-243750J0D01*
G01*
G37*
G36*
G01*
X130156250Y-108287500D02*
X129243750Y-108287500D01*
G75*
G02*
X129000000Y-108043750I0J243750D01*
G01*
X129000000Y-107556250D01*
G75*
G02*
X129243750Y-107312500I243750J0D01*
G01*
X130156250Y-107312500D01*
G75*
G02*
X130400000Y-107556250I0J-243750D01*
G01*
X130400000Y-108043750D01*
G75*
G02*
X130156250Y-108287500I-243750J0D01*
G01*
G37*
G36*
G01*
X130156250Y-106412500D02*
X129243750Y-106412500D01*
G75*
G02*
X129000000Y-106168750I0J243750D01*
G01*
X129000000Y-105681250D01*
G75*
G02*
X129243750Y-105437500I243750J0D01*
G01*
X130156250Y-105437500D01*
G75*
G02*
X130400000Y-105681250I0J-243750D01*
G01*
X130400000Y-106168750D01*
G75*
G02*
X130156250Y-106412500I-243750J0D01*
G01*
G37*
G36*
G01*
X64218550Y-128537300D02*
X65131050Y-128537300D01*
G75*
G02*
X65374800Y-128781050I0J-243750D01*
G01*
X65374800Y-129268550D01*
G75*
G02*
X65131050Y-129512300I-243750J0D01*
G01*
X64218550Y-129512300D01*
G75*
G02*
X63974800Y-129268550I0J243750D01*
G01*
X63974800Y-128781050D01*
G75*
G02*
X64218550Y-128537300I243750J0D01*
G01*
G37*
G36*
G01*
X64218550Y-126662300D02*
X65131050Y-126662300D01*
G75*
G02*
X65374800Y-126906050I0J-243750D01*
G01*
X65374800Y-127393550D01*
G75*
G02*
X65131050Y-127637300I-243750J0D01*
G01*
X64218550Y-127637300D01*
G75*
G02*
X63974800Y-127393550I0J243750D01*
G01*
X63974800Y-126906050D01*
G75*
G02*
X64218550Y-126662300I243750J0D01*
G01*
G37*
G36*
G01*
X103249800Y-150124800D02*
X103249800Y-151374800D01*
G75*
G02*
X103099800Y-151524800I-150000J0D01*
G01*
X102799800Y-151524800D01*
G75*
G02*
X102649800Y-151374800I0J150000D01*
G01*
X102649800Y-150124800D01*
G75*
G02*
X102799800Y-149974800I150000J0D01*
G01*
X103099800Y-149974800D01*
G75*
G02*
X103249800Y-150124800I0J-150000D01*
G01*
G37*
G36*
G01*
X102249800Y-150124800D02*
X102249800Y-151374800D01*
G75*
G02*
X102099800Y-151524800I-150000J0D01*
G01*
X101799800Y-151524800D01*
G75*
G02*
X101649800Y-151374800I0J150000D01*
G01*
X101649800Y-150124800D01*
G75*
G02*
X101799800Y-149974800I150000J0D01*
G01*
X102099800Y-149974800D01*
G75*
G02*
X102249800Y-150124800I0J-150000D01*
G01*
G37*
G36*
G01*
X101249800Y-150124800D02*
X101249800Y-151374800D01*
G75*
G02*
X101099800Y-151524800I-150000J0D01*
G01*
X100799800Y-151524800D01*
G75*
G02*
X100649800Y-151374800I0J150000D01*
G01*
X100649800Y-150124800D01*
G75*
G02*
X100799800Y-149974800I150000J0D01*
G01*
X101099800Y-149974800D01*
G75*
G02*
X101249800Y-150124800I0J-150000D01*
G01*
G37*
G36*
G01*
X104849800Y-152624799D02*
X104849800Y-153924801D01*
G75*
G02*
X104599801Y-154174800I-249999J0D01*
G01*
X103899799Y-154174800D01*
G75*
G02*
X103649800Y-153924801I0J249999D01*
G01*
X103649800Y-152624799D01*
G75*
G02*
X103899799Y-152374800I249999J0D01*
G01*
X104599801Y-152374800D01*
G75*
G02*
X104849800Y-152624799I0J-249999D01*
G01*
G37*
G36*
G01*
X100249800Y-152624799D02*
X100249800Y-153924801D01*
G75*
G02*
X99999801Y-154174800I-249999J0D01*
G01*
X99299799Y-154174800D01*
G75*
G02*
X99049800Y-153924801I0J249999D01*
G01*
X99049800Y-152624799D01*
G75*
G02*
X99299799Y-152374800I249999J0D01*
G01*
X99999801Y-152374800D01*
G75*
G02*
X100249800Y-152624799I0J-249999D01*
G01*
G37*
G36*
G01*
X84426398Y-147265690D02*
X83958139Y-148424670D01*
G75*
G02*
X83762870Y-148507557I-139078J56191D01*
G01*
X83484715Y-148395175D01*
G75*
G02*
X83401828Y-148199906I56191J139078D01*
G01*
X83870087Y-147040926D01*
G75*
G02*
X84065356Y-146958039I139078J-56191D01*
G01*
X84343511Y-147070421D01*
G75*
G02*
X84426398Y-147265690I-56191J-139078D01*
G01*
G37*
G36*
G01*
X83499215Y-146891083D02*
X83030956Y-148050063D01*
G75*
G02*
X82835687Y-148132950I-139078J56191D01*
G01*
X82557532Y-148020568D01*
G75*
G02*
X82474645Y-147825299I56191J139078D01*
G01*
X82942904Y-146666319D01*
G75*
G02*
X83138173Y-146583432I139078J-56191D01*
G01*
X83416328Y-146695814D01*
G75*
G02*
X83499215Y-146891083I-56191J-139078D01*
G01*
G37*
G36*
G01*
X82572031Y-146516477D02*
X82103772Y-147675457D01*
G75*
G02*
X81908503Y-147758344I-139078J56191D01*
G01*
X81630348Y-147645962D01*
G75*
G02*
X81547461Y-147450693I56191J139078D01*
G01*
X82015720Y-146291713D01*
G75*
G02*
X82210989Y-146208826I139078J-56191D01*
G01*
X82489144Y-146321208D01*
G75*
G02*
X82572031Y-146516477I-56191J-139078D01*
G01*
G37*
G36*
G01*
X81644847Y-146141870D02*
X81176588Y-147300850D01*
G75*
G02*
X80981319Y-147383737I-139078J56191D01*
G01*
X80703164Y-147271355D01*
G75*
G02*
X80620277Y-147076086I56191J139078D01*
G01*
X81088536Y-145917106D01*
G75*
G02*
X81283805Y-145834219I139078J-56191D01*
G01*
X81561960Y-145946601D01*
G75*
G02*
X81644847Y-146141870I-56191J-139078D01*
G01*
G37*
G36*
G01*
X80717663Y-145767264D02*
X80249404Y-146926244D01*
G75*
G02*
X80054135Y-147009131I-139078J56191D01*
G01*
X79775980Y-146896749D01*
G75*
G02*
X79693093Y-146701480I56191J139078D01*
G01*
X80161352Y-145542500D01*
G75*
G02*
X80356621Y-145459613I139078J-56191D01*
G01*
X80634776Y-145571995D01*
G75*
G02*
X80717663Y-145767264I-56191J-139078D01*
G01*
G37*
G36*
G01*
X79790479Y-145392657D02*
X79322220Y-146551637D01*
G75*
G02*
X79126951Y-146634524I-139078J56191D01*
G01*
X78848796Y-146522142D01*
G75*
G02*
X78765909Y-146326873I56191J139078D01*
G01*
X79234168Y-145167893D01*
G75*
G02*
X79429437Y-145085006I139078J-56191D01*
G01*
X79707592Y-145197388D01*
G75*
G02*
X79790479Y-145392657I-56191J-139078D01*
G01*
G37*
G36*
G01*
X84973376Y-150183019D02*
X84486387Y-151388360D01*
G75*
G02*
X84160941Y-151526504I-231795J93651D01*
G01*
X83511910Y-151264279D01*
G75*
G02*
X83373766Y-150938833I93651J231795D01*
G01*
X83860755Y-149733492D01*
G75*
G02*
X84186201Y-149595348I231795J-93651D01*
G01*
X84835232Y-149857573D01*
G75*
G02*
X84973376Y-150183019I-93651J-231795D01*
G01*
G37*
G36*
G01*
X77926778Y-147336009D02*
X77439789Y-148541350D01*
G75*
G02*
X77114343Y-148679494I-231795J93651D01*
G01*
X76465312Y-148417269D01*
G75*
G02*
X76327168Y-148091823I93651J231795D01*
G01*
X76814157Y-146886482D01*
G75*
G02*
X77139603Y-146748338I231795J-93651D01*
G01*
X77788634Y-147010563D01*
G75*
G02*
X77926778Y-147336009I-93651J-231795D01*
G01*
G37*
G36*
G01*
X95145875Y-149665639D02*
X94928815Y-150896649D01*
G75*
G02*
X94755047Y-151018323I-147721J26047D01*
G01*
X94459605Y-150966229D01*
G75*
G02*
X94337931Y-150792461I26047J147721D01*
G01*
X94554991Y-149561451D01*
G75*
G02*
X94728759Y-149439777I147721J-26047D01*
G01*
X95024201Y-149491871D01*
G75*
G02*
X95145875Y-149665639I-26047J-147721D01*
G01*
G37*
G36*
G01*
X94161067Y-149491991D02*
X93944007Y-150723001D01*
G75*
G02*
X93770239Y-150844675I-147721J26047D01*
G01*
X93474797Y-150792581D01*
G75*
G02*
X93353123Y-150618813I26047J147721D01*
G01*
X93570183Y-149387803D01*
G75*
G02*
X93743951Y-149266129I147721J-26047D01*
G01*
X94039393Y-149318223D01*
G75*
G02*
X94161067Y-149491991I-26047J-147721D01*
G01*
G37*
G36*
G01*
X93176260Y-149318343D02*
X92959200Y-150549353D01*
G75*
G02*
X92785432Y-150671027I-147721J26047D01*
G01*
X92489990Y-150618933D01*
G75*
G02*
X92368316Y-150445165I26047J147721D01*
G01*
X92585376Y-149214155D01*
G75*
G02*
X92759144Y-149092481I147721J-26047D01*
G01*
X93054586Y-149144575D01*
G75*
G02*
X93176260Y-149318343I-26047J-147721D01*
G01*
G37*
G36*
G01*
X92191452Y-149144695D02*
X91974392Y-150375705D01*
G75*
G02*
X91800624Y-150497379I-147721J26047D01*
G01*
X91505182Y-150445285D01*
G75*
G02*
X91383508Y-150271517I26047J147721D01*
G01*
X91600568Y-149040507D01*
G75*
G02*
X91774336Y-148918833I147721J-26047D01*
G01*
X92069778Y-148970927D01*
G75*
G02*
X92191452Y-149144695I-26047J-147721D01*
G01*
G37*
G36*
G01*
X91206644Y-148971046D02*
X90989584Y-150202056D01*
G75*
G02*
X90815816Y-150323730I-147721J26047D01*
G01*
X90520374Y-150271636D01*
G75*
G02*
X90398700Y-150097868I26047J147721D01*
G01*
X90615760Y-148866858D01*
G75*
G02*
X90789528Y-148745184I147721J-26047D01*
G01*
X91084970Y-148797278D01*
G75*
G02*
X91206644Y-148971046I-26047J-147721D01*
G01*
G37*
G36*
G01*
X90221836Y-148797398D02*
X90004776Y-150028408D01*
G75*
G02*
X89831008Y-150150082I-147721J26047D01*
G01*
X89535566Y-150097988D01*
G75*
G02*
X89413892Y-149924220I26047J147721D01*
G01*
X89630952Y-148693210D01*
G75*
G02*
X89804720Y-148571536I147721J-26047D01*
G01*
X90100162Y-148623630D01*
G75*
G02*
X90221836Y-148797398I-26047J-147721D01*
G01*
G37*
G36*
G01*
X96287448Y-152405495D02*
X96061705Y-153685747D01*
G75*
G02*
X95772092Y-153888536I-246201J43412D01*
G01*
X95082725Y-153766982D01*
G75*
G02*
X94879936Y-153477369I43412J246201D01*
G01*
X95105679Y-152197117D01*
G75*
G02*
X95395292Y-151994328I246201J-43412D01*
G01*
X96084659Y-152115882D01*
G75*
G02*
X96287448Y-152405495I-43412J-246201D01*
G01*
G37*
G36*
G01*
X88802909Y-151085769D02*
X88577166Y-152366021D01*
G75*
G02*
X88287553Y-152568810I-246201J43412D01*
G01*
X87598186Y-152447256D01*
G75*
G02*
X87395397Y-152157643I43412J246201D01*
G01*
X87621140Y-150877391D01*
G75*
G02*
X87910753Y-150674602I246201J-43412D01*
G01*
X88600120Y-150796156D01*
G75*
G02*
X88802909Y-151085769I-43412J-246201D01*
G01*
G37*
G36*
G01*
X74636900Y-142608467D02*
X73919930Y-143632407D01*
G75*
G02*
X73711021Y-143669244I-122873J86036D01*
G01*
X73465275Y-143497172D01*
G75*
G02*
X73428438Y-143288263I86036J122873D01*
G01*
X74145408Y-142264323D01*
G75*
G02*
X74354317Y-142227486I122873J-86036D01*
G01*
X74600063Y-142399558D01*
G75*
G02*
X74636900Y-142608467I-86036J-122873D01*
G01*
G37*
G36*
G01*
X73817748Y-142034890D02*
X73100778Y-143058830D01*
G75*
G02*
X72891869Y-143095667I-122873J86036D01*
G01*
X72646123Y-142923595D01*
G75*
G02*
X72609286Y-142714686I86036J122873D01*
G01*
X73326256Y-141690746D01*
G75*
G02*
X73535165Y-141653909I122873J-86036D01*
G01*
X73780911Y-141825981D01*
G75*
G02*
X73817748Y-142034890I-86036J-122873D01*
G01*
G37*
G36*
G01*
X72998596Y-141461314D02*
X72281626Y-142485254D01*
G75*
G02*
X72072717Y-142522091I-122873J86036D01*
G01*
X71826971Y-142350019D01*
G75*
G02*
X71790134Y-142141110I86036J122873D01*
G01*
X72507104Y-141117170D01*
G75*
G02*
X72716013Y-141080333I122873J-86036D01*
G01*
X72961759Y-141252405D01*
G75*
G02*
X72998596Y-141461314I-86036J-122873D01*
G01*
G37*
G36*
G01*
X72179444Y-140887737D02*
X71462474Y-141911677D01*
G75*
G02*
X71253565Y-141948514I-122873J86036D01*
G01*
X71007819Y-141776442D01*
G75*
G02*
X70970982Y-141567533I86036J122873D01*
G01*
X71687952Y-140543593D01*
G75*
G02*
X71896861Y-140506756I122873J-86036D01*
G01*
X72142607Y-140678828D01*
G75*
G02*
X72179444Y-140887737I-86036J-122873D01*
G01*
G37*
G36*
G01*
X71360292Y-140314161D02*
X70643322Y-141338101D01*
G75*
G02*
X70434413Y-141374938I-122873J86036D01*
G01*
X70188667Y-141202866D01*
G75*
G02*
X70151830Y-140993957I86036J122873D01*
G01*
X70868800Y-139970017D01*
G75*
G02*
X71077709Y-139933180I122873J-86036D01*
G01*
X71323455Y-140105252D01*
G75*
G02*
X71360292Y-140314161I-86036J-122873D01*
G01*
G37*
G36*
G01*
X70541140Y-139740584D02*
X69824170Y-140764524D01*
G75*
G02*
X69615261Y-140801361I-122873J86036D01*
G01*
X69369515Y-140629289D01*
G75*
G02*
X69332678Y-140420380I86036J122873D01*
G01*
X70049648Y-139396440D01*
G75*
G02*
X70258557Y-139359603I122873J-86036D01*
G01*
X70504303Y-139531675D01*
G75*
G02*
X70541140Y-139740584I-86036J-122873D01*
G01*
G37*
G36*
G01*
X74513602Y-145574070D02*
X73767952Y-146638969D01*
G75*
G02*
X73419771Y-146700362I-204787J143394D01*
G01*
X72846363Y-146298857D01*
G75*
G02*
X72784970Y-145950676I143394J204787D01*
G01*
X73530620Y-144885777D01*
G75*
G02*
X73878801Y-144824384I204787J-143394D01*
G01*
X74452209Y-145225889D01*
G75*
G02*
X74513602Y-145574070I-143394J-204787D01*
G01*
G37*
G36*
G01*
X68288047Y-141214889D02*
X67542397Y-142279788D01*
G75*
G02*
X67194216Y-142341181I-204787J143394D01*
G01*
X66620808Y-141939676D01*
G75*
G02*
X66559415Y-141591495I143394J204787D01*
G01*
X67305065Y-140526596D01*
G75*
G02*
X67653246Y-140465203I204787J-143394D01*
G01*
X68226654Y-140866708D01*
G75*
G02*
X68288047Y-141214889I-143394J-204787D01*
G01*
G37*
G36*
G01*
X51356050Y-98912300D02*
X50443550Y-98912300D01*
G75*
G02*
X50199800Y-98668550I0J243750D01*
G01*
X50199800Y-98181050D01*
G75*
G02*
X50443550Y-97937300I243750J0D01*
G01*
X51356050Y-97937300D01*
G75*
G02*
X51599800Y-98181050I0J-243750D01*
G01*
X51599800Y-98668550D01*
G75*
G02*
X51356050Y-98912300I-243750J0D01*
G01*
G37*
G36*
G01*
X51356050Y-100787300D02*
X50443550Y-100787300D01*
G75*
G02*
X50199800Y-100543550I0J243750D01*
G01*
X50199800Y-100056050D01*
G75*
G02*
X50443550Y-99812300I243750J0D01*
G01*
X51356050Y-99812300D01*
G75*
G02*
X51599800Y-100056050I0J-243750D01*
G01*
X51599800Y-100543550D01*
G75*
G02*
X51356050Y-100787300I-243750J0D01*
G01*
G37*
G36*
G01*
X149874800Y-96356450D02*
X149874800Y-95443950D01*
G75*
G02*
X150118550Y-95200200I243750J0D01*
G01*
X150606050Y-95200200D01*
G75*
G02*
X150849800Y-95443950I0J-243750D01*
G01*
X150849800Y-96356450D01*
G75*
G02*
X150606050Y-96600200I-243750J0D01*
G01*
X150118550Y-96600200D01*
G75*
G02*
X149874800Y-96356450I0J243750D01*
G01*
G37*
G36*
G01*
X151749800Y-96356450D02*
X151749800Y-95443950D01*
G75*
G02*
X151993550Y-95200200I243750J0D01*
G01*
X152481050Y-95200200D01*
G75*
G02*
X152724800Y-95443950I0J-243750D01*
G01*
X152724800Y-96356450D01*
G75*
G02*
X152481050Y-96600200I-243750J0D01*
G01*
X151993550Y-96600200D01*
G75*
G02*
X151749800Y-96356450I0J243750D01*
G01*
G37*
G36*
G01*
X58988300Y-102591550D02*
X58988300Y-103504050D01*
G75*
G02*
X58744550Y-103747800I-243750J0D01*
G01*
X58257050Y-103747800D01*
G75*
G02*
X58013300Y-103504050I0J243750D01*
G01*
X58013300Y-102591550D01*
G75*
G02*
X58257050Y-102347800I243750J0D01*
G01*
X58744550Y-102347800D01*
G75*
G02*
X58988300Y-102591550I0J-243750D01*
G01*
G37*
G36*
G01*
X60863300Y-102591550D02*
X60863300Y-103504050D01*
G75*
G02*
X60619550Y-103747800I-243750J0D01*
G01*
X60132050Y-103747800D01*
G75*
G02*
X59888300Y-103504050I0J243750D01*
G01*
X59888300Y-102591550D01*
G75*
G02*
X60132050Y-102347800I243750J0D01*
G01*
X60619550Y-102347800D01*
G75*
G02*
X60863300Y-102591550I0J-243750D01*
G01*
G37*
G36*
G01*
X68795800Y-102571550D02*
X68795800Y-103484050D01*
G75*
G02*
X68552050Y-103727800I-243750J0D01*
G01*
X68064550Y-103727800D01*
G75*
G02*
X67820800Y-103484050I0J243750D01*
G01*
X67820800Y-102571550D01*
G75*
G02*
X68064550Y-102327800I243750J0D01*
G01*
X68552050Y-102327800D01*
G75*
G02*
X68795800Y-102571550I0J-243750D01*
G01*
G37*
G36*
G01*
X70670800Y-102571550D02*
X70670800Y-103484050D01*
G75*
G02*
X70427050Y-103727800I-243750J0D01*
G01*
X69939550Y-103727800D01*
G75*
G02*
X69695800Y-103484050I0J243750D01*
G01*
X69695800Y-102571550D01*
G75*
G02*
X69939550Y-102327800I243750J0D01*
G01*
X70427050Y-102327800D01*
G75*
G02*
X70670800Y-102571550I0J-243750D01*
G01*
G37*
G36*
G01*
X149074800Y-94175200D02*
X149074800Y-96325200D01*
G75*
G02*
X148824800Y-96575200I-250000J0D01*
G01*
X148074800Y-96575200D01*
G75*
G02*
X147824800Y-96325200I0J250000D01*
G01*
X147824800Y-94175200D01*
G75*
G02*
X148074800Y-93925200I250000J0D01*
G01*
X148824800Y-93925200D01*
G75*
G02*
X149074800Y-94175200I0J-250000D01*
G01*
G37*
G36*
G01*
X146274800Y-94175200D02*
X146274800Y-96325200D01*
G75*
G02*
X146024800Y-96575200I-250000J0D01*
G01*
X145274800Y-96575200D01*
G75*
G02*
X145024800Y-96325200I0J250000D01*
G01*
X145024800Y-94175200D01*
G75*
G02*
X145274800Y-93925200I250000J0D01*
G01*
X146024800Y-93925200D01*
G75*
G02*
X146274800Y-94175200I0J-250000D01*
G01*
G37*
D29*
X138449800Y-93700200D03*
X142449800Y-93700200D03*
G36*
G01*
X59919550Y-99981800D02*
X60832050Y-99981800D01*
G75*
G02*
X61075800Y-100225550I0J-243750D01*
G01*
X61075800Y-100713050D01*
G75*
G02*
X60832050Y-100956800I-243750J0D01*
G01*
X59919550Y-100956800D01*
G75*
G02*
X59675800Y-100713050I0J243750D01*
G01*
X59675800Y-100225550D01*
G75*
G02*
X59919550Y-99981800I243750J0D01*
G01*
G37*
G36*
G01*
X59919550Y-98106800D02*
X60832050Y-98106800D01*
G75*
G02*
X61075800Y-98350550I0J-243750D01*
G01*
X61075800Y-98838050D01*
G75*
G02*
X60832050Y-99081800I-243750J0D01*
G01*
X59919550Y-99081800D01*
G75*
G02*
X59675800Y-98838050I0J243750D01*
G01*
X59675800Y-98350550D01*
G75*
G02*
X59919550Y-98106800I243750J0D01*
G01*
G37*
G36*
G01*
X46243550Y-99812300D02*
X47156050Y-99812300D01*
G75*
G02*
X47399800Y-100056050I0J-243750D01*
G01*
X47399800Y-100543550D01*
G75*
G02*
X47156050Y-100787300I-243750J0D01*
G01*
X46243550Y-100787300D01*
G75*
G02*
X45999800Y-100543550I0J243750D01*
G01*
X45999800Y-100056050D01*
G75*
G02*
X46243550Y-99812300I243750J0D01*
G01*
G37*
G36*
G01*
X46243550Y-97937300D02*
X47156050Y-97937300D01*
G75*
G02*
X47399800Y-98181050I0J-243750D01*
G01*
X47399800Y-98668550D01*
G75*
G02*
X47156050Y-98912300I-243750J0D01*
G01*
X46243550Y-98912300D01*
G75*
G02*
X45999800Y-98668550I0J243750D01*
G01*
X45999800Y-98181050D01*
G75*
G02*
X46243550Y-97937300I243750J0D01*
G01*
G37*
G36*
G01*
X48343550Y-97937300D02*
X49256050Y-97937300D01*
G75*
G02*
X49499800Y-98181050I0J-243750D01*
G01*
X49499800Y-98668550D01*
G75*
G02*
X49256050Y-98912300I-243750J0D01*
G01*
X48343550Y-98912300D01*
G75*
G02*
X48099800Y-98668550I0J243750D01*
G01*
X48099800Y-98181050D01*
G75*
G02*
X48343550Y-97937300I243750J0D01*
G01*
G37*
G36*
G01*
X48343550Y-99812300D02*
X49256050Y-99812300D01*
G75*
G02*
X49499800Y-100056050I0J-243750D01*
G01*
X49499800Y-100543550D01*
G75*
G02*
X49256050Y-100787300I-243750J0D01*
G01*
X48343550Y-100787300D01*
G75*
G02*
X48099800Y-100543550I0J243750D01*
G01*
X48099800Y-100056050D01*
G75*
G02*
X48343550Y-99812300I243750J0D01*
G01*
G37*
G36*
G01*
X152243750Y-103050000D02*
X153156250Y-103050000D01*
G75*
G02*
X153400000Y-103293750I0J-243750D01*
G01*
X153400000Y-103781250D01*
G75*
G02*
X153156250Y-104025000I-243750J0D01*
G01*
X152243750Y-104025000D01*
G75*
G02*
X152000000Y-103781250I0J243750D01*
G01*
X152000000Y-103293750D01*
G75*
G02*
X152243750Y-103050000I243750J0D01*
G01*
G37*
G36*
G01*
X152243750Y-101175000D02*
X153156250Y-101175000D01*
G75*
G02*
X153400000Y-101418750I0J-243750D01*
G01*
X153400000Y-101906250D01*
G75*
G02*
X153156250Y-102150000I-243750J0D01*
G01*
X152243750Y-102150000D01*
G75*
G02*
X152000000Y-101906250I0J243750D01*
G01*
X152000000Y-101418750D01*
G75*
G02*
X152243750Y-101175000I243750J0D01*
G01*
G37*
G36*
G01*
X57633550Y-98106800D02*
X58546050Y-98106800D01*
G75*
G02*
X58789800Y-98350550I0J-243750D01*
G01*
X58789800Y-98838050D01*
G75*
G02*
X58546050Y-99081800I-243750J0D01*
G01*
X57633550Y-99081800D01*
G75*
G02*
X57389800Y-98838050I0J243750D01*
G01*
X57389800Y-98350550D01*
G75*
G02*
X57633550Y-98106800I243750J0D01*
G01*
G37*
G36*
G01*
X57633550Y-99981800D02*
X58546050Y-99981800D01*
G75*
G02*
X58789800Y-100225550I0J-243750D01*
G01*
X58789800Y-100713050D01*
G75*
G02*
X58546050Y-100956800I-243750J0D01*
G01*
X57633550Y-100956800D01*
G75*
G02*
X57389800Y-100713050I0J243750D01*
G01*
X57389800Y-100225550D01*
G75*
G02*
X57633550Y-99981800I243750J0D01*
G01*
G37*
G36*
G01*
X66905550Y-97988300D02*
X67818050Y-97988300D01*
G75*
G02*
X68061800Y-98232050I0J-243750D01*
G01*
X68061800Y-98719550D01*
G75*
G02*
X67818050Y-98963300I-243750J0D01*
G01*
X66905550Y-98963300D01*
G75*
G02*
X66661800Y-98719550I0J243750D01*
G01*
X66661800Y-98232050D01*
G75*
G02*
X66905550Y-97988300I243750J0D01*
G01*
G37*
G36*
G01*
X66905550Y-99863300D02*
X67818050Y-99863300D01*
G75*
G02*
X68061800Y-100107050I0J-243750D01*
G01*
X68061800Y-100594550D01*
G75*
G02*
X67818050Y-100838300I-243750J0D01*
G01*
X66905550Y-100838300D01*
G75*
G02*
X66661800Y-100594550I0J243750D01*
G01*
X66661800Y-100107050D01*
G75*
G02*
X66905550Y-99863300I243750J0D01*
G01*
G37*
G36*
G01*
X50487300Y-117656050D02*
X50487300Y-116743550D01*
G75*
G02*
X50731050Y-116499800I243750J0D01*
G01*
X51218550Y-116499800D01*
G75*
G02*
X51462300Y-116743550I0J-243750D01*
G01*
X51462300Y-117656050D01*
G75*
G02*
X51218550Y-117899800I-243750J0D01*
G01*
X50731050Y-117899800D01*
G75*
G02*
X50487300Y-117656050I0J243750D01*
G01*
G37*
G36*
G01*
X48612300Y-117656050D02*
X48612300Y-116743550D01*
G75*
G02*
X48856050Y-116499800I243750J0D01*
G01*
X49343550Y-116499800D01*
G75*
G02*
X49587300Y-116743550I0J-243750D01*
G01*
X49587300Y-117656050D01*
G75*
G02*
X49343550Y-117899800I-243750J0D01*
G01*
X48856050Y-117899800D01*
G75*
G02*
X48612300Y-117656050I0J243750D01*
G01*
G37*
G36*
G01*
X69317550Y-99863300D02*
X70230050Y-99863300D01*
G75*
G02*
X70473800Y-100107050I0J-243750D01*
G01*
X70473800Y-100594550D01*
G75*
G02*
X70230050Y-100838300I-243750J0D01*
G01*
X69317550Y-100838300D01*
G75*
G02*
X69073800Y-100594550I0J243750D01*
G01*
X69073800Y-100107050D01*
G75*
G02*
X69317550Y-99863300I243750J0D01*
G01*
G37*
G36*
G01*
X69317550Y-97988300D02*
X70230050Y-97988300D01*
G75*
G02*
X70473800Y-98232050I0J-243750D01*
G01*
X70473800Y-98719550D01*
G75*
G02*
X70230050Y-98963300I-243750J0D01*
G01*
X69317550Y-98963300D01*
G75*
G02*
X69073800Y-98719550I0J243750D01*
G01*
X69073800Y-98232050D01*
G75*
G02*
X69317550Y-97988300I243750J0D01*
G01*
G37*
G36*
G01*
X63861050Y-123669299D02*
X62948550Y-123669299D01*
G75*
G02*
X62704800Y-123425549I0J243750D01*
G01*
X62704800Y-122938049D01*
G75*
G02*
X62948550Y-122694299I243750J0D01*
G01*
X63861050Y-122694299D01*
G75*
G02*
X64104800Y-122938049I0J-243750D01*
G01*
X64104800Y-123425549D01*
G75*
G02*
X63861050Y-123669299I-243750J0D01*
G01*
G37*
G36*
G01*
X63861050Y-125544299D02*
X62948550Y-125544299D01*
G75*
G02*
X62704800Y-125300549I0J243750D01*
G01*
X62704800Y-124813049D01*
G75*
G02*
X62948550Y-124569299I243750J0D01*
G01*
X63861050Y-124569299D01*
G75*
G02*
X64104800Y-124813049I0J-243750D01*
G01*
X64104800Y-125300549D01*
G75*
G02*
X63861050Y-125544299I-243750J0D01*
G01*
G37*
G36*
G01*
X68179050Y-123605799D02*
X67266550Y-123605799D01*
G75*
G02*
X67022800Y-123362049I0J243750D01*
G01*
X67022800Y-122874549D01*
G75*
G02*
X67266550Y-122630799I243750J0D01*
G01*
X68179050Y-122630799D01*
G75*
G02*
X68422800Y-122874549I0J-243750D01*
G01*
X68422800Y-123362049D01*
G75*
G02*
X68179050Y-123605799I-243750J0D01*
G01*
G37*
G36*
G01*
X68179050Y-125480799D02*
X67266550Y-125480799D01*
G75*
G02*
X67022800Y-125237049I0J243750D01*
G01*
X67022800Y-124749549D01*
G75*
G02*
X67266550Y-124505799I243750J0D01*
G01*
X68179050Y-124505799D01*
G75*
G02*
X68422800Y-124749549I0J-243750D01*
G01*
X68422800Y-125237049D01*
G75*
G02*
X68179050Y-125480799I-243750J0D01*
G01*
G37*
G36*
G01*
X61702050Y-123669299D02*
X60789550Y-123669299D01*
G75*
G02*
X60545800Y-123425549I0J243750D01*
G01*
X60545800Y-122938049D01*
G75*
G02*
X60789550Y-122694299I243750J0D01*
G01*
X61702050Y-122694299D01*
G75*
G02*
X61945800Y-122938049I0J-243750D01*
G01*
X61945800Y-123425549D01*
G75*
G02*
X61702050Y-123669299I-243750J0D01*
G01*
G37*
G36*
G01*
X61702050Y-125544299D02*
X60789550Y-125544299D01*
G75*
G02*
X60545800Y-125300549I0J243750D01*
G01*
X60545800Y-124813049D01*
G75*
G02*
X60789550Y-124569299I243750J0D01*
G01*
X61702050Y-124569299D01*
G75*
G02*
X61945800Y-124813049I0J-243750D01*
G01*
X61945800Y-125300549D01*
G75*
G02*
X61702050Y-125544299I-243750J0D01*
G01*
G37*
G36*
G01*
X70338050Y-123567128D02*
X69425550Y-123567128D01*
G75*
G02*
X69181800Y-123323378I0J243750D01*
G01*
X69181800Y-122835878D01*
G75*
G02*
X69425550Y-122592128I243750J0D01*
G01*
X70338050Y-122592128D01*
G75*
G02*
X70581800Y-122835878I0J-243750D01*
G01*
X70581800Y-123323378D01*
G75*
G02*
X70338050Y-123567128I-243750J0D01*
G01*
G37*
G36*
G01*
X70338050Y-125442128D02*
X69425550Y-125442128D01*
G75*
G02*
X69181800Y-125198378I0J243750D01*
G01*
X69181800Y-124710878D01*
G75*
G02*
X69425550Y-124467128I243750J0D01*
G01*
X70338050Y-124467128D01*
G75*
G02*
X70581800Y-124710878I0J-243750D01*
G01*
X70581800Y-125198378D01*
G75*
G02*
X70338050Y-125442128I-243750J0D01*
G01*
G37*
G36*
G01*
X66020050Y-123605799D02*
X65107550Y-123605799D01*
G75*
G02*
X64863800Y-123362049I0J243750D01*
G01*
X64863800Y-122874549D01*
G75*
G02*
X65107550Y-122630799I243750J0D01*
G01*
X66020050Y-122630799D01*
G75*
G02*
X66263800Y-122874549I0J-243750D01*
G01*
X66263800Y-123362049D01*
G75*
G02*
X66020050Y-123605799I-243750J0D01*
G01*
G37*
G36*
G01*
X66020050Y-125480799D02*
X65107550Y-125480799D01*
G75*
G02*
X64863800Y-125237049I0J243750D01*
G01*
X64863800Y-124749549D01*
G75*
G02*
X65107550Y-124505799I243750J0D01*
G01*
X66020050Y-124505799D01*
G75*
G02*
X66263800Y-124749549I0J-243750D01*
G01*
X66263800Y-125237049D01*
G75*
G02*
X66020050Y-125480799I-243750J0D01*
G01*
G37*
G36*
G01*
X53632300Y-108026550D02*
X53632300Y-108939050D01*
G75*
G02*
X53388550Y-109182800I-243750J0D01*
G01*
X52901050Y-109182800D01*
G75*
G02*
X52657300Y-108939050I0J243750D01*
G01*
X52657300Y-108026550D01*
G75*
G02*
X52901050Y-107782800I243750J0D01*
G01*
X53388550Y-107782800D01*
G75*
G02*
X53632300Y-108026550I0J-243750D01*
G01*
G37*
G36*
G01*
X55507300Y-108026550D02*
X55507300Y-108939050D01*
G75*
G02*
X55263550Y-109182800I-243750J0D01*
G01*
X54776050Y-109182800D01*
G75*
G02*
X54532300Y-108939050I0J243750D01*
G01*
X54532300Y-108026550D01*
G75*
G02*
X54776050Y-107782800I243750J0D01*
G01*
X55263550Y-107782800D01*
G75*
G02*
X55507300Y-108026550I0J-243750D01*
G01*
G37*
G36*
G01*
X53632300Y-110185550D02*
X53632300Y-111098050D01*
G75*
G02*
X53388550Y-111341800I-243750J0D01*
G01*
X52901050Y-111341800D01*
G75*
G02*
X52657300Y-111098050I0J243750D01*
G01*
X52657300Y-110185550D01*
G75*
G02*
X52901050Y-109941800I243750J0D01*
G01*
X53388550Y-109941800D01*
G75*
G02*
X53632300Y-110185550I0J-243750D01*
G01*
G37*
G36*
G01*
X55507300Y-110185550D02*
X55507300Y-111098050D01*
G75*
G02*
X55263550Y-111341800I-243750J0D01*
G01*
X54776050Y-111341800D01*
G75*
G02*
X54532300Y-111098050I0J243750D01*
G01*
X54532300Y-110185550D01*
G75*
G02*
X54776050Y-109941800I243750J0D01*
G01*
X55263550Y-109941800D01*
G75*
G02*
X55507300Y-110185550I0J-243750D01*
G01*
G37*
G36*
G01*
X58914050Y-120338800D02*
X59826550Y-120338800D01*
G75*
G02*
X60070300Y-120582550I0J-243750D01*
G01*
X60070300Y-121070050D01*
G75*
G02*
X59826550Y-121313800I-243750J0D01*
G01*
X58914050Y-121313800D01*
G75*
G02*
X58670300Y-121070050I0J243750D01*
G01*
X58670300Y-120582550D01*
G75*
G02*
X58914050Y-120338800I243750J0D01*
G01*
G37*
G36*
G01*
X58914050Y-118463800D02*
X59826550Y-118463800D01*
G75*
G02*
X60070300Y-118707550I0J-243750D01*
G01*
X60070300Y-119195050D01*
G75*
G02*
X59826550Y-119438800I-243750J0D01*
G01*
X58914050Y-119438800D01*
G75*
G02*
X58670300Y-119195050I0J243750D01*
G01*
X58670300Y-118707550D01*
G75*
G02*
X58914050Y-118463800I243750J0D01*
G01*
G37*
G36*
G01*
X53632300Y-112344550D02*
X53632300Y-113257050D01*
G75*
G02*
X53388550Y-113500800I-243750J0D01*
G01*
X52901050Y-113500800D01*
G75*
G02*
X52657300Y-113257050I0J243750D01*
G01*
X52657300Y-112344550D01*
G75*
G02*
X52901050Y-112100800I243750J0D01*
G01*
X53388550Y-112100800D01*
G75*
G02*
X53632300Y-112344550I0J-243750D01*
G01*
G37*
G36*
G01*
X55507300Y-112344550D02*
X55507300Y-113257050D01*
G75*
G02*
X55263550Y-113500800I-243750J0D01*
G01*
X54776050Y-113500800D01*
G75*
G02*
X54532300Y-113257050I0J243750D01*
G01*
X54532300Y-112344550D01*
G75*
G02*
X54776050Y-112100800I243750J0D01*
G01*
X55263550Y-112100800D01*
G75*
G02*
X55507300Y-112344550I0J-243750D01*
G01*
G37*
G36*
G01*
X63041550Y-120323800D02*
X63954050Y-120323800D01*
G75*
G02*
X64197800Y-120567550I0J-243750D01*
G01*
X64197800Y-121055050D01*
G75*
G02*
X63954050Y-121298800I-243750J0D01*
G01*
X63041550Y-121298800D01*
G75*
G02*
X62797800Y-121055050I0J243750D01*
G01*
X62797800Y-120567550D01*
G75*
G02*
X63041550Y-120323800I243750J0D01*
G01*
G37*
G36*
G01*
X63041550Y-118448800D02*
X63954050Y-118448800D01*
G75*
G02*
X64197800Y-118692550I0J-243750D01*
G01*
X64197800Y-119180050D01*
G75*
G02*
X63954050Y-119423800I-243750J0D01*
G01*
X63041550Y-119423800D01*
G75*
G02*
X62797800Y-119180050I0J243750D01*
G01*
X62797800Y-118692550D01*
G75*
G02*
X63041550Y-118448800I243750J0D01*
G01*
G37*
G36*
G01*
X50495400Y-104156050D02*
X50495400Y-103243550D01*
G75*
G02*
X50739150Y-102999800I243750J0D01*
G01*
X51226650Y-102999800D01*
G75*
G02*
X51470400Y-103243550I0J-243750D01*
G01*
X51470400Y-104156050D01*
G75*
G02*
X51226650Y-104399800I-243750J0D01*
G01*
X50739150Y-104399800D01*
G75*
G02*
X50495400Y-104156050I0J243750D01*
G01*
G37*
G36*
G01*
X48620400Y-104156050D02*
X48620400Y-103243550D01*
G75*
G02*
X48864150Y-102999800I243750J0D01*
G01*
X49351650Y-102999800D01*
G75*
G02*
X49595400Y-103243550I0J-243750D01*
G01*
X49595400Y-104156050D01*
G75*
G02*
X49351650Y-104399800I-243750J0D01*
G01*
X48864150Y-104399800D01*
G75*
G02*
X48620400Y-104156050I0J243750D01*
G01*
G37*
G36*
G01*
X50495400Y-112979050D02*
X50495400Y-112066550D01*
G75*
G02*
X50739150Y-111822800I243750J0D01*
G01*
X51226650Y-111822800D01*
G75*
G02*
X51470400Y-112066550I0J-243750D01*
G01*
X51470400Y-112979050D01*
G75*
G02*
X51226650Y-113222800I-243750J0D01*
G01*
X50739150Y-113222800D01*
G75*
G02*
X50495400Y-112979050I0J243750D01*
G01*
G37*
G36*
G01*
X48620400Y-112979050D02*
X48620400Y-112066550D01*
G75*
G02*
X48864150Y-111822800I243750J0D01*
G01*
X49351650Y-111822800D01*
G75*
G02*
X49595400Y-112066550I0J-243750D01*
G01*
X49595400Y-112979050D01*
G75*
G02*
X49351650Y-113222800I-243750J0D01*
G01*
X48864150Y-113222800D01*
G75*
G02*
X48620400Y-112979050I0J243750D01*
G01*
G37*
G36*
G01*
X53623300Y-105732550D02*
X53623300Y-106645050D01*
G75*
G02*
X53379550Y-106888800I-243750J0D01*
G01*
X52892050Y-106888800D01*
G75*
G02*
X52648300Y-106645050I0J243750D01*
G01*
X52648300Y-105732550D01*
G75*
G02*
X52892050Y-105488800I243750J0D01*
G01*
X53379550Y-105488800D01*
G75*
G02*
X53623300Y-105732550I0J-243750D01*
G01*
G37*
G36*
G01*
X55498300Y-105732550D02*
X55498300Y-106645050D01*
G75*
G02*
X55254550Y-106888800I-243750J0D01*
G01*
X54767050Y-106888800D01*
G75*
G02*
X54523300Y-106645050I0J243750D01*
G01*
X54523300Y-105732550D01*
G75*
G02*
X54767050Y-105488800I243750J0D01*
G01*
X55254550Y-105488800D01*
G75*
G02*
X55498300Y-105732550I0J-243750D01*
G01*
G37*
G36*
G01*
X73459800Y-109163550D02*
X73459800Y-110076050D01*
G75*
G02*
X73216050Y-110319800I-243750J0D01*
G01*
X72728550Y-110319800D01*
G75*
G02*
X72484800Y-110076050I0J243750D01*
G01*
X72484800Y-109163550D01*
G75*
G02*
X72728550Y-108919800I243750J0D01*
G01*
X73216050Y-108919800D01*
G75*
G02*
X73459800Y-109163550I0J-243750D01*
G01*
G37*
G36*
G01*
X75334800Y-109163550D02*
X75334800Y-110076050D01*
G75*
G02*
X75091050Y-110319800I-243750J0D01*
G01*
X74603550Y-110319800D01*
G75*
G02*
X74359800Y-110076050I0J243750D01*
G01*
X74359800Y-109163550D01*
G75*
G02*
X74603550Y-108919800I243750J0D01*
G01*
X75091050Y-108919800D01*
G75*
G02*
X75334800Y-109163550I0J-243750D01*
G01*
G37*
G36*
G01*
X54523300Y-104486050D02*
X54523300Y-103573550D01*
G75*
G02*
X54767050Y-103329800I243750J0D01*
G01*
X55254550Y-103329800D01*
G75*
G02*
X55498300Y-103573550I0J-243750D01*
G01*
X55498300Y-104486050D01*
G75*
G02*
X55254550Y-104729800I-243750J0D01*
G01*
X54767050Y-104729800D01*
G75*
G02*
X54523300Y-104486050I0J243750D01*
G01*
G37*
G36*
G01*
X52648300Y-104486050D02*
X52648300Y-103573550D01*
G75*
G02*
X52892050Y-103329800I243750J0D01*
G01*
X53379550Y-103329800D01*
G75*
G02*
X53623300Y-103573550I0J-243750D01*
G01*
X53623300Y-104486050D01*
G75*
G02*
X53379550Y-104729800I-243750J0D01*
G01*
X52892050Y-104729800D01*
G75*
G02*
X52648300Y-104486050I0J243750D01*
G01*
G37*
G36*
G01*
X61922050Y-119438800D02*
X61009550Y-119438800D01*
G75*
G02*
X60765800Y-119195050I0J243750D01*
G01*
X60765800Y-118707550D01*
G75*
G02*
X61009550Y-118463800I243750J0D01*
G01*
X61922050Y-118463800D01*
G75*
G02*
X62165800Y-118707550I0J-243750D01*
G01*
X62165800Y-119195050D01*
G75*
G02*
X61922050Y-119438800I-243750J0D01*
G01*
G37*
G36*
G01*
X61922050Y-121313800D02*
X61009550Y-121313800D01*
G75*
G02*
X60765800Y-121070050I0J243750D01*
G01*
X60765800Y-120582550D01*
G75*
G02*
X61009550Y-120338800I243750J0D01*
G01*
X61922050Y-120338800D01*
G75*
G02*
X62165800Y-120582550I0J-243750D01*
G01*
X62165800Y-121070050D01*
G75*
G02*
X61922050Y-121313800I-243750J0D01*
G01*
G37*
G36*
G01*
X70271800Y-118528550D02*
X70271800Y-119441050D01*
G75*
G02*
X70028050Y-119684800I-243750J0D01*
G01*
X69540550Y-119684800D01*
G75*
G02*
X69296800Y-119441050I0J243750D01*
G01*
X69296800Y-118528550D01*
G75*
G02*
X69540550Y-118284800I243750J0D01*
G01*
X70028050Y-118284800D01*
G75*
G02*
X70271800Y-118528550I0J-243750D01*
G01*
G37*
G36*
G01*
X72146800Y-118528550D02*
X72146800Y-119441050D01*
G75*
G02*
X71903050Y-119684800I-243750J0D01*
G01*
X71415550Y-119684800D01*
G75*
G02*
X71171800Y-119441050I0J243750D01*
G01*
X71171800Y-118528550D01*
G75*
G02*
X71415550Y-118284800I243750J0D01*
G01*
X71903050Y-118284800D01*
G75*
G02*
X72146800Y-118528550I0J-243750D01*
G01*
G37*
G36*
G01*
X73489500Y-106844550D02*
X73489500Y-107757050D01*
G75*
G02*
X73245750Y-108000800I-243750J0D01*
G01*
X72758250Y-108000800D01*
G75*
G02*
X72514500Y-107757050I0J243750D01*
G01*
X72514500Y-106844550D01*
G75*
G02*
X72758250Y-106600800I243750J0D01*
G01*
X73245750Y-106600800D01*
G75*
G02*
X73489500Y-106844550I0J-243750D01*
G01*
G37*
G36*
G01*
X75364500Y-106844550D02*
X75364500Y-107757050D01*
G75*
G02*
X75120750Y-108000800I-243750J0D01*
G01*
X74633250Y-108000800D01*
G75*
G02*
X74389500Y-107757050I0J243750D01*
G01*
X74389500Y-106844550D01*
G75*
G02*
X74633250Y-106600800I243750J0D01*
G01*
X75120750Y-106600800D01*
G75*
G02*
X75364500Y-106844550I0J-243750D01*
G01*
G37*
G36*
G01*
X63149300Y-102591550D02*
X63149300Y-103504050D01*
G75*
G02*
X62905550Y-103747800I-243750J0D01*
G01*
X62418050Y-103747800D01*
G75*
G02*
X62174300Y-103504050I0J243750D01*
G01*
X62174300Y-102591550D01*
G75*
G02*
X62418050Y-102347800I243750J0D01*
G01*
X62905550Y-102347800D01*
G75*
G02*
X63149300Y-102591550I0J-243750D01*
G01*
G37*
G36*
G01*
X65024300Y-102591550D02*
X65024300Y-103504050D01*
G75*
G02*
X64780550Y-103747800I-243750J0D01*
G01*
X64293050Y-103747800D01*
G75*
G02*
X64049300Y-103504050I0J243750D01*
G01*
X64049300Y-102591550D01*
G75*
G02*
X64293050Y-102347800I243750J0D01*
G01*
X64780550Y-102347800D01*
G75*
G02*
X65024300Y-102591550I0J-243750D01*
G01*
G37*
G36*
G01*
X54595800Y-115416050D02*
X54595800Y-114503550D01*
G75*
G02*
X54839550Y-114259800I243750J0D01*
G01*
X55327050Y-114259800D01*
G75*
G02*
X55570800Y-114503550I0J-243750D01*
G01*
X55570800Y-115416050D01*
G75*
G02*
X55327050Y-115659800I-243750J0D01*
G01*
X54839550Y-115659800D01*
G75*
G02*
X54595800Y-115416050I0J243750D01*
G01*
G37*
G36*
G01*
X52720800Y-115416050D02*
X52720800Y-114503550D01*
G75*
G02*
X52964550Y-114259800I243750J0D01*
G01*
X53452050Y-114259800D01*
G75*
G02*
X53695800Y-114503550I0J-243750D01*
G01*
X53695800Y-115416050D01*
G75*
G02*
X53452050Y-115659800I-243750J0D01*
G01*
X52964550Y-115659800D01*
G75*
G02*
X52720800Y-115416050I0J243750D01*
G01*
G37*
G36*
G01*
X61918550Y-128587300D02*
X62831050Y-128587300D01*
G75*
G02*
X63074800Y-128831050I0J-243750D01*
G01*
X63074800Y-129318550D01*
G75*
G02*
X62831050Y-129562300I-243750J0D01*
G01*
X61918550Y-129562300D01*
G75*
G02*
X61674800Y-129318550I0J243750D01*
G01*
X61674800Y-128831050D01*
G75*
G02*
X61918550Y-128587300I243750J0D01*
G01*
G37*
G36*
G01*
X61918550Y-126712300D02*
X62831050Y-126712300D01*
G75*
G02*
X63074800Y-126956050I0J-243750D01*
G01*
X63074800Y-127443550D01*
G75*
G02*
X62831050Y-127687300I-243750J0D01*
G01*
X61918550Y-127687300D01*
G75*
G02*
X61674800Y-127443550I0J243750D01*
G01*
X61674800Y-126956050D01*
G75*
G02*
X61918550Y-126712300I243750J0D01*
G01*
G37*
M02*
