%TF.GenerationSoftware,KiCad,Pcbnew,5.1.6+dfsg1-1*%
%TF.CreationDate,2021-01-25T10:09:04+01:00*%
%TF.ProjectId,gesc,67657363-2e6b-4696-9361-645f70636258,rev?*%
%TF.SameCoordinates,Original*%
%TF.FileFunction,Legend,Top*%
%TF.FilePolarity,Positive*%
%FSLAX46Y46*%
G04 Gerber Fmt 4.6, Leading zero omitted, Abs format (unit mm)*
G04 Created by KiCad (PCBNEW 5.1.6+dfsg1-1) date 2021-01-25 10:09:04*
%MOMM*%
%LPD*%
G01*
G04 APERTURE LIST*
%ADD10C,0.150000*%
%ADD11C,0.300000*%
%TA.AperFunction,Profile*%
%ADD12C,0.200000*%
%TD*%
%ADD13C,0.200000*%
%ADD14C,0.120000*%
%ADD15C,0.127000*%
%ADD16C,0.152400*%
%ADD17C,0.015000*%
G04 APERTURE END LIST*
D10*
X77949800Y-73328371D02*
X78806942Y-73328371D01*
X78378371Y-74828371D02*
X78378371Y-73328371D01*
X79306942Y-74256942D02*
X80449800Y-74256942D01*
X81664085Y-74042657D02*
X81164085Y-74042657D01*
X81164085Y-74828371D02*
X81164085Y-73328371D01*
X81878371Y-73328371D01*
X82449800Y-74042657D02*
X82949800Y-74042657D01*
X83164085Y-74828371D02*
X82449800Y-74828371D01*
X82449800Y-73328371D01*
X83164085Y-73328371D01*
X83592657Y-73328371D02*
X84449800Y-73328371D01*
X84021228Y-74828371D02*
X84021228Y-73328371D01*
D11*
X80814085Y-52978371D02*
X80814085Y-51478371D01*
X81385514Y-51478371D01*
X81528371Y-51549800D01*
X81599800Y-51621228D01*
X81671228Y-51764085D01*
X81671228Y-51978371D01*
X81599800Y-52121228D01*
X81528371Y-52192657D01*
X81385514Y-52264085D01*
X80814085Y-52264085D01*
X82314085Y-52978371D02*
X82314085Y-51478371D01*
X82956942Y-52978371D02*
X82956942Y-52192657D01*
X82885514Y-52049800D01*
X82742657Y-51978371D01*
X82528371Y-51978371D01*
X82385514Y-52049800D01*
X82314085Y-52121228D01*
X84742657Y-52549800D02*
X85456942Y-52549800D01*
X84599800Y-52978371D02*
X85099800Y-51478371D01*
X85599800Y-52978371D01*
X101256942Y-53378371D02*
X101256942Y-51878371D01*
X101828371Y-51878371D01*
X101971228Y-51949800D01*
X102042657Y-52021228D01*
X102114085Y-52164085D01*
X102114085Y-52378371D01*
X102042657Y-52521228D01*
X101971228Y-52592657D01*
X101828371Y-52664085D01*
X101256942Y-52664085D01*
X102756942Y-53378371D02*
X102756942Y-51878371D01*
X103399800Y-53378371D02*
X103399800Y-52592657D01*
X103328371Y-52449800D01*
X103185514Y-52378371D01*
X102971228Y-52378371D01*
X102828371Y-52449800D01*
X102756942Y-52521228D01*
X105756942Y-52592657D02*
X105971228Y-52664085D01*
X106042657Y-52735514D01*
X106114085Y-52878371D01*
X106114085Y-53092657D01*
X106042657Y-53235514D01*
X105971228Y-53306942D01*
X105828371Y-53378371D01*
X105256942Y-53378371D01*
X105256942Y-51878371D01*
X105756942Y-51878371D01*
X105899800Y-51949800D01*
X105971228Y-52021228D01*
X106042657Y-52164085D01*
X106042657Y-52306942D01*
X105971228Y-52449800D01*
X105899800Y-52521228D01*
X105756942Y-52592657D01*
X105256942Y-52592657D01*
D12*
X155499800Y-99999800D02*
G75*
G03*
X155499800Y-99999800I-55500000J0D01*
G01*
D10*
X126185514Y-134142657D02*
X126685514Y-134142657D01*
X126899800Y-134928371D02*
X126185514Y-134928371D01*
X126185514Y-133428371D01*
X126899800Y-133428371D01*
X127399800Y-133428371D02*
X128399800Y-134928371D01*
X128399800Y-133428371D02*
X127399800Y-134928371D01*
X128756942Y-133428371D02*
X129614085Y-133428371D01*
X129185514Y-134928371D02*
X129185514Y-133428371D01*
X131471228Y-134928371D02*
X131328371Y-134856942D01*
X131256942Y-134785514D01*
X131185514Y-134642657D01*
X131185514Y-134214085D01*
X131256942Y-134071228D01*
X131328371Y-133999800D01*
X131471228Y-133928371D01*
X131685514Y-133928371D01*
X131828371Y-133999800D01*
X131899800Y-134071228D01*
X131971228Y-134214085D01*
X131971228Y-134642657D01*
X131899800Y-134785514D01*
X131828371Y-134856942D01*
X131685514Y-134928371D01*
X131471228Y-134928371D01*
X132399800Y-133928371D02*
X132971228Y-133928371D01*
X132614085Y-134928371D02*
X132614085Y-133642657D01*
X132685514Y-133499800D01*
X132828371Y-133428371D01*
X132971228Y-133428371D01*
X133256942Y-133928371D02*
X133828371Y-133928371D01*
X133471228Y-134928371D02*
X133471228Y-133642657D01*
X133542657Y-133499800D01*
X133685514Y-133428371D01*
X133828371Y-133428371D01*
D11*
X121906942Y-53578371D02*
X121906942Y-52078371D01*
X122478371Y-52078371D01*
X122621228Y-52149800D01*
X122692657Y-52221228D01*
X122764085Y-52364085D01*
X122764085Y-52578371D01*
X122692657Y-52721228D01*
X122621228Y-52792657D01*
X122478371Y-52864085D01*
X121906942Y-52864085D01*
X123406942Y-53578371D02*
X123406942Y-52078371D01*
X124049800Y-53578371D02*
X124049800Y-52792657D01*
X123978371Y-52649800D01*
X123835514Y-52578371D01*
X123621228Y-52578371D01*
X123478371Y-52649800D01*
X123406942Y-52721228D01*
X126764085Y-53435514D02*
X126692657Y-53506942D01*
X126478371Y-53578371D01*
X126335514Y-53578371D01*
X126121228Y-53506942D01*
X125978371Y-53364085D01*
X125906942Y-53221228D01*
X125835514Y-52935514D01*
X125835514Y-52721228D01*
X125906942Y-52435514D01*
X125978371Y-52292657D01*
X126121228Y-52149800D01*
X126335514Y-52078371D01*
X126478371Y-52078371D01*
X126692657Y-52149800D01*
X126764085Y-52221228D01*
X133056942Y-109049800D02*
X132914085Y-108978371D01*
X132699800Y-108978371D01*
X132485514Y-109049800D01*
X132342657Y-109192657D01*
X132271228Y-109335514D01*
X132199800Y-109621228D01*
X132199800Y-109835514D01*
X132271228Y-110121228D01*
X132342657Y-110264085D01*
X132485514Y-110406942D01*
X132699800Y-110478371D01*
X132842657Y-110478371D01*
X133056942Y-110406942D01*
X133128371Y-110335514D01*
X133128371Y-109835514D01*
X132842657Y-109835514D01*
X133771228Y-110478371D02*
X133771228Y-108978371D01*
X134628371Y-110478371D01*
X134628371Y-108978371D01*
X135342657Y-110478371D02*
X135342657Y-108978371D01*
X135699800Y-108978371D01*
X135914085Y-109049800D01*
X136056942Y-109192657D01*
X136128371Y-109335514D01*
X136199800Y-109621228D01*
X136199800Y-109835514D01*
X136128371Y-110121228D01*
X136056942Y-110264085D01*
X135914085Y-110406942D01*
X135699800Y-110478371D01*
X135342657Y-110478371D01*
X145135514Y-109078371D02*
X145635514Y-110578371D01*
X146135514Y-109078371D01*
X147135514Y-109792657D02*
X147349800Y-109864085D01*
X147421228Y-109935514D01*
X147492657Y-110078371D01*
X147492657Y-110292657D01*
X147421228Y-110435514D01*
X147349800Y-110506942D01*
X147206942Y-110578371D01*
X146635514Y-110578371D01*
X146635514Y-109078371D01*
X147135514Y-109078371D01*
X147278371Y-109149800D01*
X147349800Y-109221228D01*
X147421228Y-109364085D01*
X147421228Y-109506942D01*
X147349800Y-109649800D01*
X147278371Y-109721228D01*
X147135514Y-109792657D01*
X146635514Y-109792657D01*
X148064085Y-110149800D02*
X148778371Y-110149800D01*
X147921228Y-110578371D02*
X148421228Y-109078371D01*
X148921228Y-110578371D01*
X149206942Y-109078371D02*
X150064085Y-109078371D01*
X149635514Y-110578371D02*
X149635514Y-109078371D01*
D10*
X141928371Y-112992657D02*
X142142657Y-113064085D01*
X142214085Y-113135514D01*
X142285514Y-113278371D01*
X142285514Y-113492657D01*
X142214085Y-113635514D01*
X142142657Y-113706942D01*
X141999800Y-113778371D01*
X141428371Y-113778371D01*
X141428371Y-112278371D01*
X141928371Y-112278371D01*
X142071228Y-112349800D01*
X142142657Y-112421228D01*
X142214085Y-112564085D01*
X142214085Y-112706942D01*
X142142657Y-112849800D01*
X142071228Y-112921228D01*
X141928371Y-112992657D01*
X141428371Y-112992657D01*
X143642657Y-113778371D02*
X142928371Y-113778371D01*
X142928371Y-112278371D01*
X144142657Y-112992657D02*
X144642657Y-112992657D01*
X144856942Y-113778371D02*
X144142657Y-113778371D01*
X144142657Y-112278371D01*
X144856942Y-112278371D01*
X146571228Y-113706942D02*
X146785514Y-113778371D01*
X147142657Y-113778371D01*
X147285514Y-113706942D01*
X147356942Y-113635514D01*
X147428371Y-113492657D01*
X147428371Y-113349800D01*
X147356942Y-113206942D01*
X147285514Y-113135514D01*
X147142657Y-113064085D01*
X146856942Y-112992657D01*
X146714085Y-112921228D01*
X146642657Y-112849800D01*
X146571228Y-112706942D01*
X146571228Y-112564085D01*
X146642657Y-112421228D01*
X146714085Y-112349800D01*
X146856942Y-112278371D01*
X147214085Y-112278371D01*
X147428371Y-112349800D01*
X147928371Y-112278371D02*
X148285514Y-113778371D01*
X148571228Y-112706942D01*
X148856942Y-113778371D01*
X149214085Y-112278371D01*
X149785514Y-113778371D02*
X149785514Y-112278371D01*
X150142657Y-112278371D01*
X150356942Y-112349800D01*
X150499800Y-112492657D01*
X150571228Y-112635514D01*
X150642657Y-112921228D01*
X150642657Y-113135514D01*
X150571228Y-113421228D01*
X150499800Y-113564085D01*
X150356942Y-113706942D01*
X150142657Y-113778371D01*
X149785514Y-113778371D01*
X116064085Y-124342657D02*
X116278371Y-124414085D01*
X116349800Y-124485514D01*
X116421228Y-124628371D01*
X116421228Y-124842657D01*
X116349800Y-124985514D01*
X116278371Y-125056942D01*
X116135514Y-125128371D01*
X115564085Y-125128371D01*
X115564085Y-123628371D01*
X116064085Y-123628371D01*
X116206942Y-123699800D01*
X116278371Y-123771228D01*
X116349800Y-123914085D01*
X116349800Y-124056942D01*
X116278371Y-124199800D01*
X116206942Y-124271228D01*
X116064085Y-124342657D01*
X115564085Y-124342657D01*
X117778371Y-125128371D02*
X117064085Y-125128371D01*
X117064085Y-123628371D01*
X118278371Y-124342657D02*
X118778371Y-124342657D01*
X118992657Y-125128371D02*
X118278371Y-125128371D01*
X118278371Y-123628371D01*
X118992657Y-123628371D01*
X120778371Y-125128371D02*
X120778371Y-123628371D01*
X121278371Y-124699800D01*
X121778371Y-123628371D01*
X121778371Y-125128371D01*
X122706942Y-125128371D02*
X122564085Y-125056942D01*
X122492657Y-124985514D01*
X122421228Y-124842657D01*
X122421228Y-124414085D01*
X122492657Y-124271228D01*
X122564085Y-124199800D01*
X122706942Y-124128371D01*
X122921228Y-124128371D01*
X123064085Y-124199800D01*
X123135514Y-124271228D01*
X123206942Y-124414085D01*
X123206942Y-124842657D01*
X123135514Y-124985514D01*
X123064085Y-125056942D01*
X122921228Y-125128371D01*
X122706942Y-125128371D01*
X124492657Y-125128371D02*
X124492657Y-123628371D01*
X124492657Y-125056942D02*
X124349800Y-125128371D01*
X124064085Y-125128371D01*
X123921228Y-125056942D01*
X123849800Y-124985514D01*
X123778371Y-124842657D01*
X123778371Y-124414085D01*
X123849800Y-124271228D01*
X123921228Y-124199800D01*
X124064085Y-124128371D01*
X124349800Y-124128371D01*
X124492657Y-124199800D01*
X125849800Y-124128371D02*
X125849800Y-125128371D01*
X125206942Y-124128371D02*
X125206942Y-124914085D01*
X125278371Y-125056942D01*
X125421228Y-125128371D01*
X125635514Y-125128371D01*
X125778371Y-125056942D01*
X125849800Y-124985514D01*
X126778371Y-125128371D02*
X126635514Y-125056942D01*
X126564085Y-124914085D01*
X126564085Y-123628371D01*
X88335514Y-124578371D02*
X89192657Y-124578371D01*
X88764085Y-126078371D02*
X88764085Y-124578371D01*
X89692657Y-125506942D02*
X90835514Y-125506942D01*
X91549800Y-126078371D02*
X91549800Y-124578371D01*
X92049800Y-125649800D01*
X92549800Y-124578371D01*
X92549800Y-126078371D01*
X93478371Y-126078371D02*
X93335514Y-126006942D01*
X93264085Y-125935514D01*
X93192657Y-125792657D01*
X93192657Y-125364085D01*
X93264085Y-125221228D01*
X93335514Y-125149800D01*
X93478371Y-125078371D01*
X93692657Y-125078371D01*
X93835514Y-125149800D01*
X93906942Y-125221228D01*
X93978371Y-125364085D01*
X93978371Y-125792657D01*
X93906942Y-125935514D01*
X93835514Y-126006942D01*
X93692657Y-126078371D01*
X93478371Y-126078371D01*
X94406942Y-125078371D02*
X94978371Y-125078371D01*
X94621228Y-124578371D02*
X94621228Y-125864085D01*
X94692657Y-126006942D01*
X94835514Y-126078371D01*
X94978371Y-126078371D01*
X95692657Y-126078371D02*
X95549800Y-126006942D01*
X95478371Y-125935514D01*
X95406942Y-125792657D01*
X95406942Y-125364085D01*
X95478371Y-125221228D01*
X95549800Y-125149800D01*
X95692657Y-125078371D01*
X95906942Y-125078371D01*
X96049800Y-125149800D01*
X96121228Y-125221228D01*
X96192657Y-125364085D01*
X96192657Y-125792657D01*
X96121228Y-125935514D01*
X96049800Y-126006942D01*
X95906942Y-126078371D01*
X95692657Y-126078371D01*
X96835514Y-126078371D02*
X96835514Y-125078371D01*
X96835514Y-125364085D02*
X96906942Y-125221228D01*
X96978371Y-125149800D01*
X97121228Y-125078371D01*
X97264085Y-125078371D01*
X121883014Y-115521228D02*
X121954442Y-115449800D01*
X122097300Y-115378371D01*
X122454442Y-115378371D01*
X122597300Y-115449800D01*
X122668728Y-115521228D01*
X122740157Y-115664085D01*
X122740157Y-115806942D01*
X122668728Y-116021228D01*
X121811585Y-116878371D01*
X122740157Y-116878371D01*
X123668728Y-115378371D02*
X123811585Y-115378371D01*
X123954442Y-115449800D01*
X124025871Y-115521228D01*
X124097300Y-115664085D01*
X124168728Y-115949800D01*
X124168728Y-116306942D01*
X124097300Y-116592657D01*
X124025871Y-116735514D01*
X123954442Y-116806942D01*
X123811585Y-116878371D01*
X123668728Y-116878371D01*
X123525871Y-116806942D01*
X123454442Y-116735514D01*
X123383014Y-116592657D01*
X123311585Y-116306942D01*
X123311585Y-115949800D01*
X123383014Y-115664085D01*
X123454442Y-115521228D01*
X123525871Y-115449800D01*
X123668728Y-115378371D01*
X124740157Y-115521228D02*
X124811585Y-115449800D01*
X124954442Y-115378371D01*
X125311585Y-115378371D01*
X125454442Y-115449800D01*
X125525871Y-115521228D01*
X125597300Y-115664085D01*
X125597300Y-115806942D01*
X125525871Y-116021228D01*
X124668728Y-116878371D01*
X125597300Y-116878371D01*
X126525871Y-115378371D02*
X126668728Y-115378371D01*
X126811585Y-115449800D01*
X126883014Y-115521228D01*
X126954442Y-115664085D01*
X127025871Y-115949800D01*
X127025871Y-116306942D01*
X126954442Y-116592657D01*
X126883014Y-116735514D01*
X126811585Y-116806942D01*
X126668728Y-116878371D01*
X126525871Y-116878371D01*
X126383014Y-116806942D01*
X126311585Y-116735514D01*
X126240157Y-116592657D01*
X126168728Y-116306942D01*
X126168728Y-115949800D01*
X126240157Y-115664085D01*
X126311585Y-115521228D01*
X126383014Y-115449800D01*
X126525871Y-115378371D01*
X121883014Y-119206942D02*
X122025871Y-119278371D01*
X122311585Y-119278371D01*
X122454442Y-119206942D01*
X122525871Y-119064085D01*
X122525871Y-118992657D01*
X122454442Y-118849800D01*
X122311585Y-118778371D01*
X122097300Y-118778371D01*
X121954442Y-118706942D01*
X121883014Y-118564085D01*
X121883014Y-118492657D01*
X121954442Y-118349800D01*
X122097300Y-118278371D01*
X122311585Y-118278371D01*
X122454442Y-118349800D01*
X123811585Y-119206942D02*
X123668728Y-119278371D01*
X123383014Y-119278371D01*
X123240157Y-119206942D01*
X123168728Y-119135514D01*
X123097300Y-118992657D01*
X123097300Y-118564085D01*
X123168728Y-118421228D01*
X123240157Y-118349800D01*
X123383014Y-118278371D01*
X123668728Y-118278371D01*
X123811585Y-118349800D01*
X124454442Y-119278371D02*
X124454442Y-117778371D01*
X125097300Y-119278371D02*
X125097300Y-118492657D01*
X125025871Y-118349800D01*
X124883014Y-118278371D01*
X124668728Y-118278371D01*
X124525871Y-118349800D01*
X124454442Y-118421228D01*
X126454442Y-119278371D02*
X126454442Y-118492657D01*
X126383014Y-118349800D01*
X126240157Y-118278371D01*
X125954442Y-118278371D01*
X125811585Y-118349800D01*
X126454442Y-119206942D02*
X126311585Y-119278371D01*
X125954442Y-119278371D01*
X125811585Y-119206942D01*
X125740157Y-119064085D01*
X125740157Y-118921228D01*
X125811585Y-118778371D01*
X125954442Y-118706942D01*
X126311585Y-118706942D01*
X126454442Y-118635514D01*
X127168728Y-119278371D02*
X127168728Y-118278371D01*
X127168728Y-118564085D02*
X127240157Y-118421228D01*
X127311585Y-118349800D01*
X127454442Y-118278371D01*
X127597300Y-118278371D01*
X128740157Y-119278371D02*
X128740157Y-117778371D01*
X128740157Y-119206942D02*
X128597300Y-119278371D01*
X128311585Y-119278371D01*
X128168728Y-119206942D01*
X128097300Y-119135514D01*
X128025871Y-118992657D01*
X128025871Y-118564085D01*
X128097300Y-118421228D01*
X128168728Y-118349800D01*
X128311585Y-118278371D01*
X128597300Y-118278371D01*
X128740157Y-118349800D01*
X129240157Y-118278371D02*
X129811585Y-118278371D01*
X129454442Y-117778371D02*
X129454442Y-119064085D01*
X129525871Y-119206942D01*
X129668728Y-119278371D01*
X129811585Y-119278371D01*
X131240157Y-118564085D02*
X131168728Y-118492657D01*
X131025871Y-118421228D01*
X130883014Y-118421228D01*
X130740157Y-118492657D01*
X130668728Y-118564085D01*
X130597300Y-118706942D01*
X130597300Y-118849800D01*
X130668728Y-118992657D01*
X130740157Y-119064085D01*
X130883014Y-119135514D01*
X131025871Y-119135514D01*
X131168728Y-119064085D01*
X131240157Y-118992657D01*
X131240157Y-118421228D02*
X131240157Y-118992657D01*
X131311585Y-119064085D01*
X131383014Y-119064085D01*
X131525871Y-118992657D01*
X131597300Y-118849800D01*
X131597300Y-118492657D01*
X131454442Y-118278371D01*
X131240157Y-118135514D01*
X130954442Y-118064085D01*
X130668728Y-118135514D01*
X130454442Y-118278371D01*
X130311585Y-118492657D01*
X130240157Y-118778371D01*
X130311585Y-119064085D01*
X130454442Y-119278371D01*
X130668728Y-119421228D01*
X130954442Y-119492657D01*
X131240157Y-119421228D01*
X131454442Y-119278371D01*
X132025871Y-118278371D02*
X132597300Y-118278371D01*
X132240157Y-117778371D02*
X132240157Y-119064085D01*
X132311585Y-119206942D01*
X132454442Y-119278371D01*
X132597300Y-119278371D01*
X133668728Y-119206942D02*
X133525871Y-119278371D01*
X133240157Y-119278371D01*
X133097300Y-119206942D01*
X133025871Y-119064085D01*
X133025871Y-118492657D01*
X133097300Y-118349800D01*
X133240157Y-118278371D01*
X133525871Y-118278371D01*
X133668728Y-118349800D01*
X133740157Y-118492657D01*
X133740157Y-118635514D01*
X133025871Y-118778371D01*
X135025871Y-119278371D02*
X135025871Y-118492657D01*
X134954442Y-118349800D01*
X134811585Y-118278371D01*
X134525871Y-118278371D01*
X134383014Y-118349800D01*
X135025871Y-119206942D02*
X134883014Y-119278371D01*
X134525871Y-119278371D01*
X134383014Y-119206942D01*
X134311585Y-119064085D01*
X134311585Y-118921228D01*
X134383014Y-118778371D01*
X134525871Y-118706942D01*
X134883014Y-118706942D01*
X135025871Y-118635514D01*
X135740157Y-119278371D02*
X135740157Y-118278371D01*
X135740157Y-118421228D02*
X135811585Y-118349800D01*
X135954442Y-118278371D01*
X136168728Y-118278371D01*
X136311585Y-118349800D01*
X136383014Y-118492657D01*
X136383014Y-119278371D01*
X136383014Y-118492657D02*
X136454442Y-118349800D01*
X136597300Y-118278371D01*
X136811585Y-118278371D01*
X136954442Y-118349800D01*
X137025871Y-118492657D01*
X137025871Y-119278371D01*
X137740157Y-118706942D02*
X138883014Y-118706942D01*
X140240157Y-119206942D02*
X140097300Y-119278371D01*
X139811585Y-119278371D01*
X139668728Y-119206942D01*
X139597300Y-119135514D01*
X139525871Y-118992657D01*
X139525871Y-118564085D01*
X139597300Y-118421228D01*
X139668728Y-118349800D01*
X139811585Y-118278371D01*
X140097300Y-118278371D01*
X140240157Y-118349800D01*
X140668728Y-118278371D02*
X141240157Y-118278371D01*
X140883014Y-117778371D02*
X140883014Y-119064085D01*
X140954442Y-119206942D01*
X141097300Y-119278371D01*
X141240157Y-119278371D01*
X142311585Y-119206942D02*
X142168728Y-119278371D01*
X141883014Y-119278371D01*
X141740157Y-119206942D01*
X141668728Y-119064085D01*
X141668728Y-118492657D01*
X141740157Y-118349800D01*
X141883014Y-118278371D01*
X142168728Y-118278371D01*
X142311585Y-118349800D01*
X142383014Y-118492657D01*
X142383014Y-118635514D01*
X141668728Y-118778371D01*
X143668728Y-119206942D02*
X143525871Y-119278371D01*
X143240157Y-119278371D01*
X143097300Y-119206942D01*
X143025871Y-119135514D01*
X142954442Y-118992657D01*
X142954442Y-118564085D01*
X143025871Y-118421228D01*
X143097300Y-118349800D01*
X143240157Y-118278371D01*
X143525871Y-118278371D01*
X143668728Y-118349800D01*
X144311585Y-119278371D02*
X144311585Y-117778371D01*
X144954442Y-119278371D02*
X144954442Y-118492657D01*
X144883014Y-118349800D01*
X144740157Y-118278371D01*
X144525871Y-118278371D01*
X144383014Y-118349800D01*
X144311585Y-118421228D01*
X145668728Y-119135514D02*
X145740157Y-119206942D01*
X145668728Y-119278371D01*
X145597300Y-119206942D01*
X145668728Y-119135514D01*
X145668728Y-119278371D01*
X147025871Y-119278371D02*
X147025871Y-117778371D01*
X147025871Y-119206942D02*
X146883014Y-119278371D01*
X146597300Y-119278371D01*
X146454442Y-119206942D01*
X146383014Y-119135514D01*
X146311585Y-118992657D01*
X146311585Y-118564085D01*
X146383014Y-118421228D01*
X146454442Y-118349800D01*
X146597300Y-118278371D01*
X146883014Y-118278371D01*
X147025871Y-118349800D01*
X148311585Y-119206942D02*
X148168728Y-119278371D01*
X147883014Y-119278371D01*
X147740157Y-119206942D01*
X147668728Y-119064085D01*
X147668728Y-118492657D01*
X147740157Y-118349800D01*
X147883014Y-118278371D01*
X148168728Y-118278371D01*
X148311585Y-118349800D01*
X148383014Y-118492657D01*
X148383014Y-118635514D01*
X147668728Y-118778371D01*
D12*
X124500000Y-100000000D02*
G75*
G03*
X124500000Y-100000000I-24500000J0D01*
G01*
D13*
X129463800Y-53009800D02*
X129590800Y-53136800D01*
D10*
X63156942Y-130878371D02*
X63156942Y-132092657D01*
X63228371Y-132235514D01*
X63299800Y-132306942D01*
X63442657Y-132378371D01*
X63728371Y-132378371D01*
X63871228Y-132306942D01*
X63942657Y-132235514D01*
X64014085Y-132092657D01*
X64014085Y-130878371D01*
X64656942Y-132306942D02*
X64871228Y-132378371D01*
X65228371Y-132378371D01*
X65371228Y-132306942D01*
X65442657Y-132235514D01*
X65514085Y-132092657D01*
X65514085Y-131949800D01*
X65442657Y-131806942D01*
X65371228Y-131735514D01*
X65228371Y-131664085D01*
X64942657Y-131592657D01*
X64799800Y-131521228D01*
X64728371Y-131449800D01*
X64656942Y-131306942D01*
X64656942Y-131164085D01*
X64728371Y-131021228D01*
X64799800Y-130949800D01*
X64942657Y-130878371D01*
X65299800Y-130878371D01*
X65514085Y-130949800D01*
X66656942Y-131592657D02*
X66871228Y-131664085D01*
X66942657Y-131735514D01*
X67014085Y-131878371D01*
X67014085Y-132092657D01*
X66942657Y-132235514D01*
X66871228Y-132306942D01*
X66728371Y-132378371D01*
X66156942Y-132378371D01*
X66156942Y-130878371D01*
X66656942Y-130878371D01*
X66799800Y-130949800D01*
X66871228Y-131021228D01*
X66942657Y-131164085D01*
X66942657Y-131306942D01*
X66871228Y-131449800D01*
X66799800Y-131521228D01*
X66656942Y-131592657D01*
X66156942Y-131592657D01*
X73434085Y-113386942D02*
X73648371Y-113458371D01*
X74005514Y-113458371D01*
X74148371Y-113386942D01*
X74219800Y-113315514D01*
X74291228Y-113172657D01*
X74291228Y-113029800D01*
X74219800Y-112886942D01*
X74148371Y-112815514D01*
X74005514Y-112744085D01*
X73719800Y-112672657D01*
X73576942Y-112601228D01*
X73505514Y-112529800D01*
X73434085Y-112386942D01*
X73434085Y-112244085D01*
X73505514Y-112101228D01*
X73576942Y-112029800D01*
X73719800Y-111958371D01*
X74076942Y-111958371D01*
X74291228Y-112029800D01*
X74791228Y-111958371D02*
X75148371Y-113458371D01*
X75434085Y-112386942D01*
X75719800Y-113458371D01*
X76076942Y-111958371D01*
X76648371Y-113458371D02*
X76648371Y-111958371D01*
X77005514Y-111958371D01*
X77219800Y-112029800D01*
X77362657Y-112172657D01*
X77434085Y-112315514D01*
X77505514Y-112601228D01*
X77505514Y-112815514D01*
X77434085Y-113101228D01*
X77362657Y-113244085D01*
X77219800Y-113386942D01*
X77005514Y-113458371D01*
X76648371Y-113458371D01*
X106544085Y-152886942D02*
X106758371Y-152958371D01*
X107115514Y-152958371D01*
X107258371Y-152886942D01*
X107329800Y-152815514D01*
X107401228Y-152672657D01*
X107401228Y-152529800D01*
X107329800Y-152386942D01*
X107258371Y-152315514D01*
X107115514Y-152244085D01*
X106829800Y-152172657D01*
X106686942Y-152101228D01*
X106615514Y-152029800D01*
X106544085Y-151886942D01*
X106544085Y-151744085D01*
X106615514Y-151601228D01*
X106686942Y-151529800D01*
X106829800Y-151458371D01*
X107186942Y-151458371D01*
X107401228Y-151529800D01*
X108615514Y-152886942D02*
X108472657Y-152958371D01*
X108186942Y-152958371D01*
X108044085Y-152886942D01*
X107972657Y-152744085D01*
X107972657Y-152172657D01*
X108044085Y-152029800D01*
X108186942Y-151958371D01*
X108472657Y-151958371D01*
X108615514Y-152029800D01*
X108686942Y-152172657D01*
X108686942Y-152315514D01*
X107972657Y-152458371D01*
X109329800Y-152958371D02*
X109329800Y-151958371D01*
X109329800Y-152244085D02*
X109401228Y-152101228D01*
X109472657Y-152029800D01*
X109615514Y-151958371D01*
X109758371Y-151958371D01*
X110115514Y-151958371D02*
X110472657Y-152958371D01*
X110829800Y-151958371D01*
X111615514Y-152958371D02*
X111472657Y-152886942D01*
X111401228Y-152815514D01*
X111329800Y-152672657D01*
X111329800Y-152244085D01*
X111401228Y-152101228D01*
X111472657Y-152029800D01*
X111615514Y-151958371D01*
X111829800Y-151958371D01*
X111972657Y-152029800D01*
X112044085Y-152101228D01*
X112115514Y-152244085D01*
X112115514Y-152672657D01*
X112044085Y-152815514D01*
X111972657Y-152886942D01*
X111829800Y-152958371D01*
X111615514Y-152958371D01*
X90585514Y-147375514D02*
X90514085Y-147446942D01*
X90299800Y-147518371D01*
X90156942Y-147518371D01*
X89942657Y-147446942D01*
X89799800Y-147304085D01*
X89728371Y-147161228D01*
X89656942Y-146875514D01*
X89656942Y-146661228D01*
X89728371Y-146375514D01*
X89799800Y-146232657D01*
X89942657Y-146089800D01*
X90156942Y-146018371D01*
X90299800Y-146018371D01*
X90514085Y-146089800D01*
X90585514Y-146161228D01*
X91442657Y-147518371D02*
X91299800Y-147446942D01*
X91228371Y-147375514D01*
X91156942Y-147232657D01*
X91156942Y-146804085D01*
X91228371Y-146661228D01*
X91299800Y-146589800D01*
X91442657Y-146518371D01*
X91656942Y-146518371D01*
X91799800Y-146589800D01*
X91871228Y-146661228D01*
X91942657Y-146804085D01*
X91942657Y-147232657D01*
X91871228Y-147375514D01*
X91799800Y-147446942D01*
X91656942Y-147518371D01*
X91442657Y-147518371D01*
X92585514Y-147518371D02*
X92585514Y-146518371D01*
X92585514Y-146661228D02*
X92656942Y-146589800D01*
X92799800Y-146518371D01*
X93014085Y-146518371D01*
X93156942Y-146589800D01*
X93228371Y-146732657D01*
X93228371Y-147518371D01*
X93228371Y-146732657D02*
X93299800Y-146589800D01*
X93442657Y-146518371D01*
X93656942Y-146518371D01*
X93799800Y-146589800D01*
X93871228Y-146732657D01*
X93871228Y-147518371D01*
X94585514Y-147518371D02*
X94585514Y-146518371D01*
X94585514Y-146661228D02*
X94656942Y-146589800D01*
X94799800Y-146518371D01*
X95014085Y-146518371D01*
X95156942Y-146589800D01*
X95228371Y-146732657D01*
X95228371Y-147518371D01*
X95228371Y-146732657D02*
X95299800Y-146589800D01*
X95442657Y-146518371D01*
X95656942Y-146518371D01*
X95799800Y-146589800D01*
X95871228Y-146732657D01*
X95871228Y-147518371D01*
X76721228Y-139528371D02*
X76721228Y-138028371D01*
X76721228Y-138742657D02*
X77578371Y-138742657D01*
X77578371Y-139528371D02*
X77578371Y-138028371D01*
X78935514Y-139528371D02*
X78935514Y-138742657D01*
X78864085Y-138599800D01*
X78721228Y-138528371D01*
X78435514Y-138528371D01*
X78292657Y-138599800D01*
X78935514Y-139456942D02*
X78792657Y-139528371D01*
X78435514Y-139528371D01*
X78292657Y-139456942D01*
X78221228Y-139314085D01*
X78221228Y-139171228D01*
X78292657Y-139028371D01*
X78435514Y-138956942D01*
X78792657Y-138956942D01*
X78935514Y-138885514D01*
X79864085Y-139528371D02*
X79721228Y-139456942D01*
X79649800Y-139314085D01*
X79649800Y-138028371D01*
X80649800Y-139528371D02*
X80506942Y-139456942D01*
X80435514Y-139314085D01*
X80435514Y-138028371D01*
X82292657Y-137956942D02*
X81006942Y-139885514D01*
X82792657Y-138742657D02*
X83292657Y-138742657D01*
X83506942Y-139528371D02*
X82792657Y-139528371D01*
X82792657Y-138028371D01*
X83506942Y-138028371D01*
X84149800Y-138528371D02*
X84149800Y-139528371D01*
X84149800Y-138671228D02*
X84221228Y-138599800D01*
X84364085Y-138528371D01*
X84578371Y-138528371D01*
X84721228Y-138599800D01*
X84792657Y-138742657D01*
X84792657Y-139528371D01*
X86149800Y-139456942D02*
X86006942Y-139528371D01*
X85721228Y-139528371D01*
X85578371Y-139456942D01*
X85506942Y-139385514D01*
X85435514Y-139242657D01*
X85435514Y-138814085D01*
X85506942Y-138671228D01*
X85578371Y-138599800D01*
X85721228Y-138528371D01*
X86006942Y-138528371D01*
X86149800Y-138599800D01*
X68978371Y-130528371D02*
X69835514Y-130528371D01*
X69406942Y-132028371D02*
X69406942Y-130528371D01*
X70335514Y-132028371D02*
X70335514Y-131028371D01*
X70335514Y-131314085D02*
X70406942Y-131171228D01*
X70478371Y-131099800D01*
X70621228Y-131028371D01*
X70764085Y-131028371D01*
X71264085Y-132028371D02*
X71264085Y-131028371D01*
X71264085Y-130528371D02*
X71192657Y-130599800D01*
X71264085Y-130671228D01*
X71335514Y-130599800D01*
X71264085Y-130528371D01*
X71264085Y-130671228D01*
X72621228Y-131028371D02*
X72621228Y-132242657D01*
X72549800Y-132385514D01*
X72478371Y-132456942D01*
X72335514Y-132528371D01*
X72121228Y-132528371D01*
X71978371Y-132456942D01*
X72621228Y-131956942D02*
X72478371Y-132028371D01*
X72192657Y-132028371D01*
X72049800Y-131956942D01*
X71978371Y-131885514D01*
X71906942Y-131742657D01*
X71906942Y-131314085D01*
X71978371Y-131171228D01*
X72049800Y-131099800D01*
X72192657Y-131028371D01*
X72478371Y-131028371D01*
X72621228Y-131099800D01*
X74406942Y-130456942D02*
X73121228Y-132385514D01*
X74835514Y-131956942D02*
X75049800Y-132028371D01*
X75406942Y-132028371D01*
X75549800Y-131956942D01*
X75621228Y-131885514D01*
X75692657Y-131742657D01*
X75692657Y-131599800D01*
X75621228Y-131456942D01*
X75549800Y-131385514D01*
X75406942Y-131314085D01*
X75121228Y-131242657D01*
X74978371Y-131171228D01*
X74906942Y-131099800D01*
X74835514Y-130956942D01*
X74835514Y-130814085D01*
X74906942Y-130671228D01*
X74978371Y-130599800D01*
X75121228Y-130528371D01*
X75478371Y-130528371D01*
X75692657Y-130599800D01*
X76335514Y-131028371D02*
X76335514Y-132528371D01*
X76335514Y-131099800D02*
X76478371Y-131028371D01*
X76764085Y-131028371D01*
X76906942Y-131099800D01*
X76978371Y-131171228D01*
X77049800Y-131314085D01*
X77049800Y-131742657D01*
X76978371Y-131885514D01*
X76906942Y-131956942D01*
X76764085Y-132028371D01*
X76478371Y-132028371D01*
X76335514Y-131956942D01*
X78264085Y-131956942D02*
X78121228Y-132028371D01*
X77835514Y-132028371D01*
X77692657Y-131956942D01*
X77621228Y-131814085D01*
X77621228Y-131242657D01*
X77692657Y-131099800D01*
X77835514Y-131028371D01*
X78121228Y-131028371D01*
X78264085Y-131099800D01*
X78335514Y-131242657D01*
X78335514Y-131385514D01*
X77621228Y-131528371D01*
X79549800Y-131956942D02*
X79406942Y-132028371D01*
X79121228Y-132028371D01*
X78978371Y-131956942D01*
X78906942Y-131814085D01*
X78906942Y-131242657D01*
X78978371Y-131099800D01*
X79121228Y-131028371D01*
X79406942Y-131028371D01*
X79549800Y-131099800D01*
X79621228Y-131242657D01*
X79621228Y-131385514D01*
X78906942Y-131528371D01*
X80906942Y-132028371D02*
X80906942Y-130528371D01*
X80906942Y-131956942D02*
X80764085Y-132028371D01*
X80478371Y-132028371D01*
X80335514Y-131956942D01*
X80264085Y-131885514D01*
X80192657Y-131742657D01*
X80192657Y-131314085D01*
X80264085Y-131171228D01*
X80335514Y-131099800D01*
X80478371Y-131028371D01*
X80764085Y-131028371D01*
X80906942Y-131099800D01*
X122835514Y-113099800D02*
X122692657Y-113028371D01*
X122478371Y-113028371D01*
X122264085Y-113099800D01*
X122121228Y-113242657D01*
X122049800Y-113385514D01*
X121978371Y-113671228D01*
X121978371Y-113885514D01*
X122049800Y-114171228D01*
X122121228Y-114314085D01*
X122264085Y-114456942D01*
X122478371Y-114528371D01*
X122621228Y-114528371D01*
X122835514Y-114456942D01*
X122906942Y-114385514D01*
X122906942Y-113885514D01*
X122621228Y-113885514D01*
X123478371Y-114456942D02*
X123692657Y-114528371D01*
X124049800Y-114528371D01*
X124192657Y-114456942D01*
X124264085Y-114385514D01*
X124335514Y-114242657D01*
X124335514Y-114099800D01*
X124264085Y-113956942D01*
X124192657Y-113885514D01*
X124049800Y-113814085D01*
X123764085Y-113742657D01*
X123621228Y-113671228D01*
X123549800Y-113599800D01*
X123478371Y-113456942D01*
X123478371Y-113314085D01*
X123549800Y-113171228D01*
X123621228Y-113099800D01*
X123764085Y-113028371D01*
X124121228Y-113028371D01*
X124335514Y-113099800D01*
X124764085Y-113028371D02*
X125264085Y-114528371D01*
X125764085Y-113028371D01*
X126264085Y-113742657D02*
X126764085Y-113742657D01*
X126978371Y-114528371D02*
X126264085Y-114528371D01*
X126264085Y-113028371D01*
X126978371Y-113028371D01*
X127549800Y-114456942D02*
X127764085Y-114528371D01*
X128121228Y-114528371D01*
X128264085Y-114456942D01*
X128335514Y-114385514D01*
X128406942Y-114242657D01*
X128406942Y-114099800D01*
X128335514Y-113956942D01*
X128264085Y-113885514D01*
X128121228Y-113814085D01*
X127835514Y-113742657D01*
X127692657Y-113671228D01*
X127621228Y-113599800D01*
X127549800Y-113456942D01*
X127549800Y-113314085D01*
X127621228Y-113171228D01*
X127692657Y-113099800D01*
X127835514Y-113028371D01*
X128192657Y-113028371D01*
X128406942Y-113099800D01*
X129906942Y-114385514D02*
X129835514Y-114456942D01*
X129621228Y-114528371D01*
X129478371Y-114528371D01*
X129264085Y-114456942D01*
X129121228Y-114314085D01*
X129049800Y-114171228D01*
X128978371Y-113885514D01*
X128978371Y-113671228D01*
X129049800Y-113385514D01*
X129121228Y-113242657D01*
X129264085Y-113099800D01*
X129478371Y-113028371D01*
X129621228Y-113028371D01*
X129835514Y-113099800D01*
X129906942Y-113171228D01*
X132406942Y-113028371D02*
X131692657Y-113028371D01*
X131621228Y-113742657D01*
X131692657Y-113671228D01*
X131835514Y-113599800D01*
X132192657Y-113599800D01*
X132335514Y-113671228D01*
X132406942Y-113742657D01*
X132478371Y-113885514D01*
X132478371Y-114242657D01*
X132406942Y-114385514D01*
X132335514Y-114456942D01*
X132192657Y-114528371D01*
X131835514Y-114528371D01*
X131692657Y-114456942D01*
X131621228Y-114385514D01*
X133121228Y-114385514D02*
X133192657Y-114456942D01*
X133121228Y-114528371D01*
X133049800Y-114456942D01*
X133121228Y-114385514D01*
X133121228Y-114528371D01*
X134121228Y-113028371D02*
X134264085Y-113028371D01*
X134406942Y-113099800D01*
X134478371Y-113171228D01*
X134549800Y-113314085D01*
X134621228Y-113599800D01*
X134621228Y-113956942D01*
X134549800Y-114242657D01*
X134478371Y-114385514D01*
X134406942Y-114456942D01*
X134264085Y-114528371D01*
X134121228Y-114528371D01*
X133978371Y-114456942D01*
X133906942Y-114385514D01*
X133835514Y-114242657D01*
X133764085Y-113956942D01*
X133764085Y-113599800D01*
X133835514Y-113314085D01*
X133906942Y-113171228D01*
X133978371Y-113099800D01*
X134121228Y-113028371D01*
D14*
X97299800Y-136099800D02*
X97299800Y-132199800D01*
X99299800Y-136099800D02*
X99299800Y-132199800D01*
X97299800Y-136099800D02*
X99299800Y-136099800D01*
X115299800Y-147349800D02*
X115299800Y-151249800D01*
X113299800Y-147349800D02*
X113299800Y-151249800D01*
X115299800Y-147349800D02*
X113299800Y-147349800D01*
X101249800Y-140499800D02*
X105149800Y-140499800D01*
X101249800Y-142499800D02*
X105149800Y-142499800D01*
X101249800Y-140499800D02*
X101249800Y-142499800D01*
D13*
X93599800Y-137699800D02*
G75*
G03*
X93599800Y-137699800I-100000J0D01*
G01*
D15*
X95099800Y-140464800D02*
X96699800Y-140464800D01*
X95099800Y-137334800D02*
X96699800Y-137334800D01*
X128199800Y-131499800D02*
X128199800Y-120199800D01*
X128199800Y-120199800D02*
X133299800Y-120199800D01*
X133299800Y-120199800D02*
X133299800Y-131499800D01*
X133299800Y-131499800D02*
X128199800Y-131499800D01*
D11*
X134099800Y-130999800D02*
G75*
G03*
X134099800Y-130999800I-100000J0D01*
G01*
D14*
X123649800Y-141879800D02*
X123649800Y-143119800D01*
X128349800Y-141879800D02*
X128349800Y-143119800D01*
X128349800Y-144449800D02*
X128349800Y-144799800D01*
X128349800Y-144799800D02*
X123649800Y-144799800D01*
X123649800Y-144799800D02*
X123649800Y-144449800D01*
X128349800Y-144449800D02*
X129599800Y-144449800D01*
X128349800Y-140549800D02*
X128349800Y-140199800D01*
X128349800Y-140199800D02*
X123649800Y-140199800D01*
X123649800Y-140199800D02*
X123649800Y-140549800D01*
D16*
X74557400Y-100444300D02*
X74557400Y-98691700D01*
X73265061Y-98691700D02*
X72598539Y-98691700D01*
X71306200Y-98691700D02*
X71306200Y-100444300D01*
X65303400Y-100368100D02*
X65303400Y-98615500D01*
X64011061Y-98615500D02*
X63344539Y-98615500D01*
X62052200Y-98615500D02*
X62052200Y-100368100D01*
X75331600Y-94576100D02*
X75331600Y-92823500D01*
X74039261Y-92823500D02*
X73372739Y-92823500D01*
X72080400Y-92823500D02*
X72080400Y-94576100D01*
X64525400Y-94376100D02*
X64525400Y-92623500D01*
X63233061Y-92623500D02*
X62566539Y-92623500D01*
X61274200Y-92623500D02*
X61274200Y-94376100D01*
X54525400Y-94576100D02*
X54525400Y-92823500D01*
X53233061Y-92823500D02*
X52566539Y-92823500D01*
X51274200Y-92823500D02*
X51274200Y-94576100D01*
X62923900Y-87474200D02*
X58275700Y-87474200D01*
X58275700Y-90725400D02*
X62923900Y-90725400D01*
X64904300Y-90074800D02*
G75*
G03*
X64904300Y-90074800I-76200J0D01*
G01*
X73223900Y-87474200D02*
X68575700Y-87474200D01*
X68575700Y-90725400D02*
X73223900Y-90725400D01*
X75204300Y-90074800D02*
G75*
G03*
X75204300Y-90074800I-76200J0D01*
G01*
X52923899Y-87499201D02*
X48275699Y-87499201D01*
X48275699Y-90750401D02*
X52923899Y-90750401D01*
X54904299Y-90099801D02*
G75*
G03*
X54904299Y-90099801I-76200J0D01*
G01*
X55625400Y-100444300D02*
X55625400Y-98691700D01*
X54333061Y-98691700D02*
X53666539Y-98691700D01*
X52374200Y-98691700D02*
X52374200Y-100444300D01*
D14*
X87189800Y-138041222D02*
X87189800Y-138558378D01*
X88609800Y-138041222D02*
X88609800Y-138558378D01*
D13*
X91049800Y-66599800D02*
G75*
G03*
X91049800Y-66599800I-100000J0D01*
G01*
D15*
X92449800Y-65949800D02*
X97449800Y-65949800D01*
X92449800Y-71049800D02*
X97449800Y-71049800D01*
D13*
X99049800Y-59199800D02*
G75*
G03*
X99049800Y-59199800I-100000J0D01*
G01*
D15*
X97449800Y-59849800D02*
X92449800Y-59849800D01*
X97449800Y-54749800D02*
X92449800Y-54749800D01*
D13*
X111549800Y-66799800D02*
G75*
G03*
X111549800Y-66799800I-100000J0D01*
G01*
D15*
X112949800Y-66149800D02*
X117949800Y-66149800D01*
X112949800Y-71249800D02*
X117949800Y-71249800D01*
D13*
X119399800Y-59399800D02*
G75*
G03*
X119399800Y-59399800I-100000J0D01*
G01*
D15*
X117799800Y-60049800D02*
X112799800Y-60049800D01*
X117799800Y-54949800D02*
X112799800Y-54949800D01*
D13*
X70549800Y-66699800D02*
G75*
G03*
X70549800Y-66699800I-100000J0D01*
G01*
D15*
X71949800Y-66049800D02*
X76949800Y-66049800D01*
X71949800Y-71149800D02*
X76949800Y-71149800D01*
D13*
X78599800Y-59299800D02*
G75*
G03*
X78599800Y-59299800I-100000J0D01*
G01*
D15*
X76999800Y-59949800D02*
X71999800Y-59949800D01*
X76999800Y-54849800D02*
X71999800Y-54849800D01*
D14*
X93099800Y-131699800D02*
X93099800Y-132549800D01*
X85499800Y-131699800D02*
X85499800Y-132499800D01*
X118349800Y-126499800D02*
X118349800Y-129499800D01*
X105749800Y-126499800D02*
X118349800Y-126499800D01*
X105749800Y-129499800D02*
X105749800Y-126499800D01*
X105749800Y-139099800D02*
X105749800Y-136099800D01*
X118349800Y-139099800D02*
X105749800Y-139099800D01*
X118349800Y-136099800D02*
X118349800Y-139099800D01*
X79799800Y-73874800D02*
X80599800Y-73874800D01*
X82499800Y-76274800D02*
X81399800Y-76274800D01*
X82499800Y-75124800D02*
X82499800Y-76274800D01*
X79499800Y-76274800D02*
X80599800Y-76274800D01*
X79499800Y-75124800D02*
X79499800Y-76274800D01*
X101005800Y-60043800D02*
X101005800Y-54455800D01*
X106593800Y-60043800D02*
X101005800Y-60043800D01*
X106593800Y-54455800D02*
X106593800Y-60043800D01*
X101005800Y-54455800D02*
X106593800Y-54455800D01*
X127293800Y-54705800D02*
X127293800Y-60293800D01*
X121705800Y-54705800D02*
X127293800Y-54705800D01*
X121705800Y-60293800D02*
X121705800Y-54705800D01*
X127293800Y-60293800D02*
X121705800Y-60293800D01*
X80505800Y-54355800D02*
X86093800Y-54355800D01*
X80505800Y-59943800D02*
X80505800Y-54355800D01*
X86093800Y-59943800D02*
X80505800Y-59943800D01*
X86093800Y-54355800D02*
X86093800Y-59943800D01*
X131405800Y-102105800D02*
X136993800Y-102105800D01*
X131405800Y-107693800D02*
X131405800Y-102105800D01*
X136993800Y-107693800D02*
X131405800Y-107693800D01*
X136993800Y-102105800D02*
X136993800Y-107693800D01*
X150193800Y-101905800D02*
X150193800Y-107493800D01*
X144605800Y-101905800D02*
X150193800Y-101905800D01*
X144605800Y-107493800D02*
X144605800Y-101905800D01*
X150193800Y-107493800D02*
X144605800Y-107493800D01*
X93649800Y-136099800D02*
X93649800Y-130699800D01*
X96949800Y-136099800D02*
X96949800Y-130699800D01*
X93649800Y-136099800D02*
X96949800Y-136099800D01*
X87739800Y-62197736D02*
X87739800Y-63401864D01*
X90459800Y-62197736D02*
X90459800Y-63401864D01*
X107939800Y-62497736D02*
X107939800Y-63701864D01*
X110659800Y-62497736D02*
X110659800Y-63701864D01*
X67139800Y-62397736D02*
X67139800Y-63601864D01*
X69859800Y-62397736D02*
X69859800Y-63601864D01*
X83289800Y-132578722D02*
X83289800Y-133095878D01*
X84709800Y-132578722D02*
X84709800Y-133095878D01*
X84709800Y-127820878D02*
X84709800Y-127303722D01*
X83289800Y-127820878D02*
X83289800Y-127303722D01*
X93009800Y-138558378D02*
X93009800Y-138041222D01*
X91589800Y-138558378D02*
X91589800Y-138041222D01*
X68189800Y-134403722D02*
X68189800Y-134920878D01*
X69609800Y-134403722D02*
X69609800Y-134920878D01*
X74589800Y-134441222D02*
X74589800Y-134958378D01*
X76009800Y-134441222D02*
X76009800Y-134958378D01*
X147949800Y-99959800D02*
X147949800Y-97959800D01*
X148949800Y-98959800D02*
X146949800Y-98959800D01*
X146709800Y-84554237D02*
X145645363Y-83489800D01*
X146709800Y-99245363D02*
X145645363Y-100309800D01*
X146709800Y-99245363D02*
X146709800Y-96959800D01*
X146709800Y-84554237D02*
X146709800Y-86839800D01*
X145645363Y-83489800D02*
X129889800Y-83489800D01*
X145645363Y-100309800D02*
X129889800Y-100309800D01*
X129889800Y-100309800D02*
X129889800Y-96959800D01*
X129889800Y-83489800D02*
X129889800Y-86839800D01*
X125989800Y-65889800D02*
X125989800Y-69239800D01*
X125989800Y-82709800D02*
X125989800Y-79359800D01*
X141745363Y-82709800D02*
X125989800Y-82709800D01*
X141745363Y-65889800D02*
X125989800Y-65889800D01*
X142809800Y-66954237D02*
X142809800Y-69239800D01*
X142809800Y-81645363D02*
X142809800Y-79359800D01*
X142809800Y-81645363D02*
X141745363Y-82709800D01*
X142809800Y-66954237D02*
X141745363Y-65889800D01*
X145049800Y-81359800D02*
X143049800Y-81359800D01*
X144049800Y-82359800D02*
X144049800Y-80359800D01*
X124351864Y-61339800D02*
X120247736Y-61339800D01*
X124351864Y-64759800D02*
X120247736Y-64759800D01*
X73809800Y-134453722D02*
X73809800Y-134970878D01*
X72389800Y-134453722D02*
X72389800Y-134970878D01*
X146969800Y-121209800D02*
X149629800Y-121209800D01*
X146969800Y-116069800D02*
X146969800Y-121209800D01*
X149629800Y-116069800D02*
X149629800Y-121209800D01*
X146969800Y-116069800D02*
X149629800Y-116069800D01*
X146969800Y-114799800D02*
X146969800Y-113469800D01*
X146969800Y-113469800D02*
X148299800Y-113469800D01*
X125358378Y-130509800D02*
X124841222Y-130509800D01*
X125358378Y-129089800D02*
X124841222Y-129089800D01*
X135189800Y-126595878D02*
X135189800Y-126078722D01*
X136609800Y-126595878D02*
X136609800Y-126078722D01*
X124037300Y-127759800D02*
X126722300Y-127759800D01*
X126722300Y-127759800D02*
X126722300Y-125839800D01*
X126722300Y-125839800D02*
X124037300Y-125839800D01*
X139537325Y-136587953D02*
X135099632Y-140445580D01*
X132169718Y-138858475D02*
X132962163Y-138169613D01*
X132924186Y-139726391D02*
X132169718Y-138858475D01*
X137580986Y-134154532D02*
X136931487Y-133407369D01*
X138373431Y-133465670D02*
X137580986Y-134154532D01*
X139127899Y-134333586D02*
X138373431Y-133465670D01*
X83180668Y-119235155D02*
X84510029Y-120564516D01*
X83131171Y-123598004D02*
X82388709Y-122855542D01*
X83944344Y-122784831D02*
X83131171Y-123598004D01*
X80889642Y-121356475D02*
X80189607Y-122056511D01*
X80147180Y-120614013D02*
X80889642Y-121356475D01*
X80960353Y-119800840D02*
X80147180Y-120614013D01*
X71759800Y-134441222D02*
X71759800Y-134958378D01*
X70339800Y-134441222D02*
X70339800Y-134958378D01*
X48620878Y-95289800D02*
X48103722Y-95289800D01*
X48620878Y-96709800D02*
X48103722Y-96709800D01*
X59095878Y-96609800D02*
X58578722Y-96609800D01*
X59095878Y-95189800D02*
X58578722Y-95189800D01*
X69720878Y-95289800D02*
X69203722Y-95289800D01*
X69720878Y-96709800D02*
X69203722Y-96709800D01*
X46489800Y-92903722D02*
X46489800Y-93420878D01*
X47909800Y-92903722D02*
X47909800Y-93420878D01*
X67289800Y-92803722D02*
X67289800Y-93320878D01*
X68709800Y-92803722D02*
X68709800Y-93320878D01*
X94339800Y-62197736D02*
X94339800Y-63401864D01*
X97059800Y-62197736D02*
X97059800Y-63401864D01*
X111239800Y-62497736D02*
X111239800Y-63701864D01*
X113959800Y-62497736D02*
X113959800Y-63701864D01*
X70439800Y-62397736D02*
X70439800Y-63601864D01*
X73159800Y-62397736D02*
X73159800Y-63601864D01*
X114539800Y-62497736D02*
X114539800Y-63701864D01*
X117259800Y-62497736D02*
X117259800Y-63701864D01*
X91039800Y-62197736D02*
X91039800Y-63401864D01*
X93759800Y-62197736D02*
X93759800Y-63401864D01*
X73739800Y-62397736D02*
X73739800Y-63601864D01*
X76459800Y-62397736D02*
X76459800Y-63601864D01*
X69589800Y-92803722D02*
X69589800Y-93320878D01*
X71009800Y-92803722D02*
X71009800Y-93320878D01*
X81295878Y-77189800D02*
X80778722Y-77189800D01*
X81295878Y-78609800D02*
X80778722Y-78609800D01*
X117495878Y-52789800D02*
X116978722Y-52789800D01*
X117495878Y-54209800D02*
X116978722Y-54209800D01*
X109558378Y-70089800D02*
X109041222Y-70089800D01*
X109558378Y-71509800D02*
X109041222Y-71509800D01*
X76758378Y-52389800D02*
X76241222Y-52389800D01*
X76758378Y-53809800D02*
X76241222Y-53809800D01*
X48889800Y-92841222D02*
X48889800Y-93358378D01*
X50309800Y-92841222D02*
X50309800Y-93358378D01*
X60409800Y-92703722D02*
X60409800Y-93220878D01*
X58989800Y-92703722D02*
X58989800Y-93220878D01*
X68558378Y-69889800D02*
X68041222Y-69889800D01*
X68558378Y-71309800D02*
X68041222Y-71309800D01*
X58209800Y-92641222D02*
X58209800Y-93158378D01*
X56789800Y-92641222D02*
X56789800Y-93158378D01*
X89058378Y-69789800D02*
X88541222Y-69789800D01*
X89058378Y-71209800D02*
X88541222Y-71209800D01*
X96895878Y-52489800D02*
X96378722Y-52489800D01*
X96895878Y-53909800D02*
X96378722Y-53909800D01*
X83251864Y-61189800D02*
X79147736Y-61189800D01*
X83251864Y-64609800D02*
X79147736Y-64609800D01*
X103851864Y-64609800D02*
X99747736Y-64609800D01*
X103851864Y-61189800D02*
X99747736Y-61189800D01*
X62141222Y-78609800D02*
X62658378Y-78609800D01*
X62141222Y-77189800D02*
X62658378Y-77189800D01*
X67178722Y-78709800D02*
X67695878Y-78709800D01*
X67178722Y-77289800D02*
X67695878Y-77289800D01*
X71641222Y-78609800D02*
X72158378Y-78609800D01*
X71641222Y-77189800D02*
X72158378Y-77189800D01*
D10*
X71524800Y-79624800D02*
X70124800Y-79624800D01*
X71524800Y-84724800D02*
X75674800Y-84724800D01*
X71524800Y-79574800D02*
X75674800Y-79574800D01*
X71524800Y-84724800D02*
X71524800Y-84579800D01*
X75674800Y-84724800D02*
X75674800Y-84579800D01*
X75674800Y-79574800D02*
X75674800Y-79719800D01*
X71524800Y-79574800D02*
X71524800Y-79624800D01*
X62124800Y-79574800D02*
X60724800Y-79574800D01*
X62124800Y-84674800D02*
X66274800Y-84674800D01*
X62124800Y-79524800D02*
X66274800Y-79524800D01*
X62124800Y-84674800D02*
X62124800Y-84529800D01*
X66274800Y-84674800D02*
X66274800Y-84529800D01*
X66274800Y-79524800D02*
X66274800Y-79669800D01*
X62124800Y-79524800D02*
X62124800Y-79574800D01*
D14*
X52078722Y-78409800D02*
X52595878Y-78409800D01*
X52078722Y-76989800D02*
X52595878Y-76989800D01*
D10*
X52124800Y-79674800D02*
X50724800Y-79674800D01*
X52124800Y-84774800D02*
X56274800Y-84774800D01*
X52124800Y-79624800D02*
X56274800Y-79624800D01*
X52124800Y-84774800D02*
X52124800Y-84629800D01*
X56274800Y-84774800D02*
X56274800Y-84629800D01*
X56274800Y-79624800D02*
X56274800Y-79769800D01*
X52124800Y-79624800D02*
X52124800Y-79674800D01*
D14*
X76541222Y-78609800D02*
X77058378Y-78609800D01*
X76541222Y-77189800D02*
X77058378Y-77189800D01*
X57178722Y-78409800D02*
X57695878Y-78409800D01*
X57178722Y-76989800D02*
X57695878Y-76989800D01*
X74919800Y-114794800D02*
X76249800Y-114794800D01*
X74919800Y-116124800D02*
X74919800Y-114794800D01*
X74919800Y-117394800D02*
X77579800Y-117394800D01*
X77579800Y-117394800D02*
X77579800Y-127614800D01*
X74919800Y-117394800D02*
X74919800Y-127614800D01*
X74919800Y-127614800D02*
X77579800Y-127614800D01*
X51625400Y-110849800D02*
X51625400Y-105099800D01*
X51625400Y-105099800D02*
X48025400Y-105099800D01*
X48025400Y-105099800D02*
X48025400Y-110849800D01*
D10*
X58896600Y-106806200D02*
X57871600Y-106806200D01*
X69246600Y-105806200D02*
X68171600Y-105806200D01*
X69246600Y-116156200D02*
X68171600Y-116156200D01*
X58896600Y-116156200D02*
X59971600Y-116156200D01*
X58896600Y-105806200D02*
X59971600Y-105806200D01*
X58896600Y-116156200D02*
X58896600Y-115081200D01*
X69246600Y-116156200D02*
X69246600Y-115081200D01*
X69246600Y-105806200D02*
X69246600Y-106881200D01*
X58896600Y-105806200D02*
X58896600Y-106806200D01*
D14*
X49778722Y-115709800D02*
X50295878Y-115709800D01*
X49778722Y-114289800D02*
X50295878Y-114289800D01*
X67312378Y-118274800D02*
X66795222Y-118274800D01*
X67312378Y-119694800D02*
X66795222Y-119694800D01*
X72750800Y-124314377D02*
X72750800Y-123797221D01*
X71330800Y-124314377D02*
X71330800Y-123797221D01*
X102641222Y-132559800D02*
X103158378Y-132559800D01*
X102641222Y-131139800D02*
X103158378Y-131139800D01*
X98758378Y-141389800D02*
X98241222Y-141389800D01*
X98758378Y-142809800D02*
X98241222Y-142809800D01*
X89389800Y-138078722D02*
X89389800Y-138595878D01*
X90809800Y-138078722D02*
X90809800Y-138595878D01*
X100999800Y-146481222D02*
X100999800Y-146998378D01*
X102419800Y-146481222D02*
X102419800Y-146998378D01*
X79137795Y-141528722D02*
X79137795Y-142045878D01*
X80557795Y-141528722D02*
X80557795Y-142045878D01*
X98899800Y-146503721D02*
X98899800Y-147020877D01*
X100319800Y-146503721D02*
X100319800Y-147020877D01*
X81439800Y-142378722D02*
X81439800Y-142895878D01*
X82859800Y-142378722D02*
X82859800Y-142895878D01*
X83714800Y-143203722D02*
X83714800Y-143720878D01*
X85134800Y-143203722D02*
X85134800Y-143720878D01*
X86039800Y-144403722D02*
X86039800Y-144920878D01*
X87459800Y-144403722D02*
X87459800Y-144920878D01*
X102641222Y-130209800D02*
X103158378Y-130209800D01*
X102641222Y-128789800D02*
X103158378Y-128789800D01*
X109138379Y-147039800D02*
X108621223Y-147039800D01*
X109138379Y-148459800D02*
X108621223Y-148459800D01*
X108641222Y-144109800D02*
X109158378Y-144109800D01*
X108641222Y-142689800D02*
X109158378Y-142689800D01*
X119689800Y-141641222D02*
X119689800Y-142158378D01*
X121109800Y-141641222D02*
X121109800Y-142158378D01*
X102591222Y-134909800D02*
X103108378Y-134909800D01*
X102591222Y-133489800D02*
X103108378Y-133489800D01*
X102616222Y-137209800D02*
X103133378Y-137209800D01*
X102616222Y-135789800D02*
X103133378Y-135789800D01*
D10*
X114474800Y-141699800D02*
X114299800Y-141699800D01*
X114474800Y-145049800D02*
X114224800Y-145049800D01*
X111124800Y-145049800D02*
X111374800Y-145049800D01*
X111124800Y-141699800D02*
X111374800Y-141699800D01*
X114474800Y-141699800D02*
X114474800Y-145049800D01*
X111124800Y-141699800D02*
X111124800Y-145049800D01*
X114299800Y-141699800D02*
X114299800Y-140449800D01*
D14*
X108621223Y-146309800D02*
X109138379Y-146309800D01*
X108621223Y-144889800D02*
X109138379Y-144889800D01*
X109058378Y-140089800D02*
X108541222Y-140089800D01*
X109058378Y-141509800D02*
X108541222Y-141509800D01*
X111064800Y-148591222D02*
X111064800Y-149108378D01*
X112484800Y-148591222D02*
X112484800Y-149108378D01*
X116534800Y-142108378D02*
X116534800Y-141591222D01*
X115114800Y-142108378D02*
X115114800Y-141591222D01*
X102616222Y-139709800D02*
X103133378Y-139709800D01*
X102616222Y-138289800D02*
X103133378Y-138289800D01*
X63964800Y-127828722D02*
X63964800Y-128345878D01*
X65384800Y-127828722D02*
X65384800Y-128345878D01*
X104559800Y-152114800D02*
X104559800Y-150964800D01*
X104559800Y-150964800D02*
X103509800Y-150964800D01*
X103509800Y-150964800D02*
X103509800Y-149974800D01*
X99339800Y-152114800D02*
X99339800Y-150964800D01*
X99339800Y-150964800D02*
X100389800Y-150964800D01*
X103389800Y-154084800D02*
X100509800Y-154084800D01*
X84895540Y-149601520D02*
X85326339Y-148535259D01*
X85326339Y-148535259D02*
X84352796Y-148141922D01*
X84352796Y-148141922D02*
X84723656Y-147224010D01*
X77274090Y-146522254D02*
X77704888Y-145455993D01*
X77704888Y-145455993D02*
X78678431Y-145849330D01*
X83072761Y-150989783D02*
X77620920Y-148787096D01*
X96090414Y-151852886D02*
X96290109Y-150720357D01*
X96290109Y-150720357D02*
X95256061Y-150538027D01*
X95256061Y-150538027D02*
X95427973Y-149563067D01*
X87995294Y-150425498D02*
X88194990Y-149292969D01*
X88194990Y-149292969D02*
X89229038Y-149475300D01*
X94596102Y-153589789D02*
X88805432Y-152568738D01*
X74568572Y-144989965D02*
X75228185Y-144047940D01*
X75228185Y-144047940D02*
X74368075Y-143445685D01*
X74368075Y-143445685D02*
X74935916Y-142634725D01*
X67835142Y-140275167D02*
X68494755Y-139333142D01*
X68494755Y-139333142D02*
X69354865Y-139935397D01*
X72480218Y-145932610D02*
X67663604Y-142559981D01*
X51609800Y-99620878D02*
X51609800Y-99103722D01*
X50189800Y-99620878D02*
X50189800Y-99103722D01*
X118884800Y-142133378D02*
X118884800Y-141616222D01*
X117464800Y-142133378D02*
X117464800Y-141616222D01*
X59696878Y-102337800D02*
X59179722Y-102337800D01*
X59696878Y-103757800D02*
X59179722Y-103757800D01*
X69504378Y-102317800D02*
X68987222Y-102317800D01*
X69504378Y-103737800D02*
X68987222Y-103737800D01*
X116039800Y-146497736D02*
X116039800Y-147701864D01*
X118759800Y-146497736D02*
X118759800Y-147701864D01*
X119549800Y-139299800D02*
X119549800Y-133899800D01*
X122849800Y-139299800D02*
X122849800Y-133899800D01*
X119549800Y-139299800D02*
X122849800Y-139299800D01*
X59665800Y-99273222D02*
X59665800Y-99790378D01*
X61085800Y-99273222D02*
X61085800Y-99790378D01*
X45989800Y-99103722D02*
X45989800Y-99620878D01*
X47409800Y-99103722D02*
X47409800Y-99620878D01*
X48089800Y-99103722D02*
X48089800Y-99620878D01*
X49509800Y-99103722D02*
X49509800Y-99620878D01*
X119739800Y-146783378D02*
X119739800Y-146266222D01*
X121159800Y-146783378D02*
X121159800Y-146266222D01*
X57379800Y-99273222D02*
X57379800Y-99790378D01*
X58799800Y-99273222D02*
X58799800Y-99790378D01*
X66651800Y-99154722D02*
X66651800Y-99671878D01*
X68071800Y-99154722D02*
X68071800Y-99671878D01*
X49778722Y-117909800D02*
X50295878Y-117909800D01*
X49778722Y-116489800D02*
X50295878Y-116489800D01*
X69063800Y-99154722D02*
X69063800Y-99671878D01*
X70483800Y-99154722D02*
X70483800Y-99671878D01*
X64114800Y-124377877D02*
X64114800Y-123860721D01*
X62694800Y-124377877D02*
X62694800Y-123860721D01*
X68432800Y-124314377D02*
X68432800Y-123797221D01*
X67012800Y-124314377D02*
X67012800Y-123797221D01*
X62205800Y-125804299D02*
X62205800Y-123119299D01*
X60285800Y-125804299D02*
X62205800Y-125804299D01*
X60285800Y-123119299D02*
X60285800Y-125804299D01*
X70841800Y-125702128D02*
X70841800Y-123017128D01*
X68921800Y-125702128D02*
X70841800Y-125702128D01*
X68921800Y-123017128D02*
X68921800Y-125702128D01*
X66523800Y-125740799D02*
X66523800Y-123055799D01*
X64603800Y-125740799D02*
X66523800Y-125740799D01*
X64603800Y-123055799D02*
X64603800Y-125740799D01*
X54340878Y-107772800D02*
X53823722Y-107772800D01*
X54340878Y-109192800D02*
X53823722Y-109192800D01*
X54340878Y-109931800D02*
X53823722Y-109931800D01*
X54340878Y-111351800D02*
X53823722Y-111351800D01*
X58660300Y-119630222D02*
X58660300Y-120147378D01*
X60080300Y-119630222D02*
X60080300Y-120147378D01*
X54340878Y-112090800D02*
X53823722Y-112090800D01*
X54340878Y-113510800D02*
X53823722Y-113510800D01*
X62787800Y-119615222D02*
X62787800Y-120132378D01*
X64207800Y-119615222D02*
X64207800Y-120132378D01*
X49786822Y-104409800D02*
X50303978Y-104409800D01*
X49786822Y-102989800D02*
X50303978Y-102989800D01*
X49786822Y-113232800D02*
X50303978Y-113232800D01*
X49786822Y-111812800D02*
X50303978Y-111812800D01*
X54331878Y-105478800D02*
X53814722Y-105478800D01*
X54331878Y-106898800D02*
X53814722Y-106898800D01*
X74168378Y-108909800D02*
X73651222Y-108909800D01*
X74168378Y-110329800D02*
X73651222Y-110329800D01*
X53814722Y-104739800D02*
X54331878Y-104739800D01*
X53814722Y-103319800D02*
X54331878Y-103319800D01*
X62175800Y-120147378D02*
X62175800Y-119630222D01*
X60755800Y-120147378D02*
X60755800Y-119630222D01*
X70980378Y-118274800D02*
X70463222Y-118274800D01*
X70980378Y-119694800D02*
X70463222Y-119694800D01*
X74198078Y-106590800D02*
X73680922Y-106590800D01*
X74198078Y-108010800D02*
X73680922Y-108010800D01*
X63857878Y-102337800D02*
X63340722Y-102337800D01*
X63857878Y-103757800D02*
X63340722Y-103757800D01*
X53887222Y-115669800D02*
X54404378Y-115669800D01*
X53887222Y-114249800D02*
X54404378Y-114249800D01*
D10*
X61570447Y-137242084D02*
X60232186Y-135755795D01*
X59855562Y-130106843D02*
X59502568Y-130424680D01*
X65409346Y-136274945D02*
X59855562Y-130106843D01*
X65056352Y-136592782D02*
X65409346Y-136274945D01*
X57477498Y-132248061D02*
X57830492Y-131930224D01*
X63031282Y-138416163D02*
X57477498Y-132248061D01*
X63384276Y-138098326D02*
X63031282Y-138416163D01*
D14*
X61664800Y-127878722D02*
X61664800Y-128395878D01*
X63084800Y-127878722D02*
X63084800Y-128395878D01*
D10*
X96752180Y-134587895D02*
X95752180Y-134587895D01*
X95752180Y-134349800D01*
X95799800Y-134206942D01*
X95895038Y-134111704D01*
X95990276Y-134064085D01*
X96180752Y-134016466D01*
X96323609Y-134016466D01*
X96514085Y-134064085D01*
X96609323Y-134111704D01*
X96704561Y-134206942D01*
X96752180Y-134349800D01*
X96752180Y-134587895D01*
X95752180Y-133683133D02*
X95752180Y-133016466D01*
X96752180Y-133445038D01*
X116752180Y-150337895D02*
X115752180Y-150337895D01*
X115752180Y-150099800D01*
X115799800Y-149956942D01*
X115895038Y-149861704D01*
X115990276Y-149814085D01*
X116180752Y-149766466D01*
X116323609Y-149766466D01*
X116514085Y-149814085D01*
X116609323Y-149861704D01*
X116704561Y-149956942D01*
X116752180Y-150099800D01*
X116752180Y-150337895D01*
X115752180Y-148909323D02*
X115752180Y-149099800D01*
X115799800Y-149195038D01*
X115847419Y-149242657D01*
X115990276Y-149337895D01*
X116180752Y-149385514D01*
X116561704Y-149385514D01*
X116656942Y-149337895D01*
X116704561Y-149290276D01*
X116752180Y-149195038D01*
X116752180Y-149004561D01*
X116704561Y-148909323D01*
X116656942Y-148861704D01*
X116561704Y-148814085D01*
X116323609Y-148814085D01*
X116228371Y-148861704D01*
X116180752Y-148909323D01*
X116133133Y-149004561D01*
X116133133Y-149195038D01*
X116180752Y-149290276D01*
X116228371Y-149337895D01*
X116323609Y-149385514D01*
X102761704Y-139952180D02*
X102761704Y-138952180D01*
X102999800Y-138952180D01*
X103142657Y-138999800D01*
X103237895Y-139095038D01*
X103285514Y-139190276D01*
X103333133Y-139380752D01*
X103333133Y-139523609D01*
X103285514Y-139714085D01*
X103237895Y-139809323D01*
X103142657Y-139904561D01*
X102999800Y-139952180D01*
X102761704Y-139952180D01*
X104237895Y-138952180D02*
X103761704Y-138952180D01*
X103714085Y-139428371D01*
X103761704Y-139380752D01*
X103856942Y-139333133D01*
X104095038Y-139333133D01*
X104190276Y-139380752D01*
X104237895Y-139428371D01*
X104285514Y-139523609D01*
X104285514Y-139761704D01*
X104237895Y-139856942D01*
X104190276Y-139904561D01*
X104095038Y-139952180D01*
X103856942Y-139952180D01*
X103761704Y-139904561D01*
X103714085Y-139856942D01*
D17*
X95039419Y-136342923D02*
X95039419Y-136861019D01*
X95069895Y-136921971D01*
X95100371Y-136952447D01*
X95161323Y-136982923D01*
X95283228Y-136982923D01*
X95344180Y-136952447D01*
X95374657Y-136921971D01*
X95405133Y-136861019D01*
X95405133Y-136342923D01*
X96045133Y-136982923D02*
X95679419Y-136982923D01*
X95862276Y-136982923D02*
X95862276Y-136342923D01*
X95801323Y-136434352D01*
X95740371Y-136495304D01*
X95679419Y-136525780D01*
X96258466Y-136342923D02*
X96685133Y-136342923D01*
X96410847Y-136982923D01*
X125916337Y-129820092D02*
X126618367Y-129820092D01*
X126700958Y-129778796D01*
X126742254Y-129737500D01*
X126783550Y-129654908D01*
X126783550Y-129489725D01*
X126742254Y-129407133D01*
X126700958Y-129365837D01*
X126618367Y-129324542D01*
X125916337Y-129324542D01*
X126783550Y-128457329D02*
X126783550Y-128952879D01*
X126783550Y-128705104D02*
X125916337Y-128705104D01*
X126040225Y-128787695D01*
X126122816Y-128870287D01*
X126164112Y-128952879D01*
X125916337Y-127714003D02*
X125916337Y-127879187D01*
X125957633Y-127961778D01*
X125998929Y-128003074D01*
X126122816Y-128085666D01*
X126288000Y-128126962D01*
X126618367Y-128126962D01*
X126700958Y-128085666D01*
X126742254Y-128044370D01*
X126783550Y-127961778D01*
X126783550Y-127796595D01*
X126742254Y-127714003D01*
X126700958Y-127672707D01*
X126618367Y-127631411D01*
X126411887Y-127631411D01*
X126329296Y-127672707D01*
X126288000Y-127714003D01*
X126246704Y-127796595D01*
X126246704Y-127961778D01*
X126288000Y-128044370D01*
X126329296Y-128085666D01*
X126411887Y-128126962D01*
D10*
X124761704Y-145452180D02*
X124761704Y-146261704D01*
X124809323Y-146356942D01*
X124856942Y-146404561D01*
X124952180Y-146452180D01*
X125142657Y-146452180D01*
X125237895Y-146404561D01*
X125285514Y-146356942D01*
X125333133Y-146261704D01*
X125333133Y-145452180D01*
X126333133Y-146452180D02*
X125761704Y-146452180D01*
X126047419Y-146452180D02*
X126047419Y-145452180D01*
X125952180Y-145595038D01*
X125856942Y-145690276D01*
X125761704Y-145737895D01*
X127190276Y-145785514D02*
X127190276Y-146452180D01*
X126952180Y-145404561D02*
X126714085Y-146118847D01*
X127333133Y-146118847D01*
X72384180Y-100806095D02*
X73193704Y-100806095D01*
X73288942Y-100758476D01*
X73336561Y-100710857D01*
X73384180Y-100615619D01*
X73384180Y-100425142D01*
X73336561Y-100329904D01*
X73288942Y-100282285D01*
X73193704Y-100234666D01*
X72384180Y-100234666D01*
X73384180Y-99234666D02*
X73384180Y-99806095D01*
X73384180Y-99520380D02*
X72384180Y-99520380D01*
X72527038Y-99615619D01*
X72622276Y-99710857D01*
X72669895Y-99806095D01*
X72384180Y-98901333D02*
X72384180Y-98282285D01*
X72765133Y-98615619D01*
X72765133Y-98472761D01*
X72812752Y-98377523D01*
X72860371Y-98329904D01*
X72955609Y-98282285D01*
X73193704Y-98282285D01*
X73288942Y-98329904D01*
X73336561Y-98377523D01*
X73384180Y-98472761D01*
X73384180Y-98758476D01*
X73336561Y-98853714D01*
X73288942Y-98901333D01*
X73336561Y-106520380D02*
X73384180Y-106377523D01*
X73384180Y-106139428D01*
X73336561Y-106044190D01*
X73288942Y-105996571D01*
X73193704Y-105948952D01*
X73098466Y-105948952D01*
X73003228Y-105996571D01*
X72955609Y-106044190D01*
X72907990Y-106139428D01*
X72860371Y-106329904D01*
X72812752Y-106425142D01*
X72765133Y-106472761D01*
X72669895Y-106520380D01*
X72574657Y-106520380D01*
X72479419Y-106472761D01*
X72431800Y-106425142D01*
X72384180Y-106329904D01*
X72384180Y-106091809D01*
X72431800Y-105948952D01*
X73384180Y-105520380D02*
X72384180Y-105520380D01*
X73384180Y-104948952D01*
X72384180Y-104948952D01*
X72384180Y-104568000D02*
X72384180Y-103901333D01*
X73384180Y-104329904D01*
X72717514Y-103091809D02*
X73384180Y-103091809D01*
X72336561Y-103329904D02*
X73050847Y-103568000D01*
X73050847Y-102948952D01*
X73384180Y-102091809D02*
X73384180Y-102568000D01*
X72384180Y-102568000D01*
X72384180Y-101901333D02*
X73384180Y-101568000D01*
X72384180Y-101234666D01*
X73288942Y-100329904D02*
X73336561Y-100377523D01*
X73384180Y-100520380D01*
X73384180Y-100615619D01*
X73336561Y-100758476D01*
X73241323Y-100853714D01*
X73146085Y-100901333D01*
X72955609Y-100948952D01*
X72812752Y-100948952D01*
X72622276Y-100901333D01*
X72527038Y-100853714D01*
X72431800Y-100758476D01*
X72384180Y-100615619D01*
X72384180Y-100520380D01*
X72431800Y-100377523D01*
X72479419Y-100329904D01*
X73384180Y-99377523D02*
X73384180Y-99948952D01*
X73384180Y-99663238D02*
X72384180Y-99663238D01*
X72527038Y-99758476D01*
X72622276Y-99853714D01*
X72669895Y-99948952D01*
X72431800Y-98425142D02*
X72384180Y-98520380D01*
X72384180Y-98663238D01*
X72431800Y-98806095D01*
X72527038Y-98901333D01*
X72622276Y-98948952D01*
X72812752Y-98996571D01*
X72955609Y-98996571D01*
X73146085Y-98948952D01*
X73241323Y-98901333D01*
X73336561Y-98806095D01*
X73384180Y-98663238D01*
X73384180Y-98568000D01*
X73336561Y-98425142D01*
X73288942Y-98377523D01*
X72955609Y-98377523D01*
X72955609Y-98568000D01*
X72384180Y-97520380D02*
X72384180Y-97710857D01*
X72431800Y-97806095D01*
X72479419Y-97853714D01*
X72622276Y-97948952D01*
X72812752Y-97996571D01*
X73193704Y-97996571D01*
X73288942Y-97948952D01*
X73336561Y-97901333D01*
X73384180Y-97806095D01*
X73384180Y-97615619D01*
X73336561Y-97520380D01*
X73288942Y-97472761D01*
X73193704Y-97425142D01*
X72955609Y-97425142D01*
X72860371Y-97472761D01*
X72812752Y-97520380D01*
X72765133Y-97615619D01*
X72765133Y-97806095D01*
X72812752Y-97901333D01*
X72860371Y-97948952D01*
X72955609Y-97996571D01*
X72384180Y-96568000D02*
X72384180Y-96758476D01*
X72431800Y-96853714D01*
X72479419Y-96901333D01*
X72622276Y-96996571D01*
X72812752Y-97044190D01*
X73193704Y-97044190D01*
X73288942Y-96996571D01*
X73336561Y-96948952D01*
X73384180Y-96853714D01*
X73384180Y-96663238D01*
X73336561Y-96568000D01*
X73288942Y-96520380D01*
X73193704Y-96472761D01*
X72955609Y-96472761D01*
X72860371Y-96520380D01*
X72812752Y-96568000D01*
X72765133Y-96663238D01*
X72765133Y-96853714D01*
X72812752Y-96948952D01*
X72860371Y-96996571D01*
X72955609Y-97044190D01*
X73384180Y-96044190D02*
X72384180Y-96044190D01*
X72384180Y-95806095D01*
X72431800Y-95663238D01*
X72527038Y-95568000D01*
X72622276Y-95520380D01*
X72812752Y-95472761D01*
X72955609Y-95472761D01*
X73146085Y-95520380D01*
X73241323Y-95568000D01*
X73336561Y-95663238D01*
X73384180Y-95806095D01*
X73384180Y-96044190D01*
X72860371Y-94710857D02*
X72907990Y-94568000D01*
X72955609Y-94520380D01*
X73050847Y-94472761D01*
X73193704Y-94472761D01*
X73288942Y-94520380D01*
X73336561Y-94568000D01*
X73384180Y-94663238D01*
X73384180Y-95044190D01*
X72384180Y-95044190D01*
X72384180Y-94710857D01*
X72431800Y-94615619D01*
X72479419Y-94568000D01*
X72574657Y-94520380D01*
X72669895Y-94520380D01*
X72765133Y-94568000D01*
X72812752Y-94615619D01*
X72860371Y-94710857D01*
X72860371Y-95044190D01*
X72384180Y-94187047D02*
X73384180Y-93853714D01*
X72384180Y-93520380D01*
X73384180Y-92615619D02*
X72907990Y-92948952D01*
X73384180Y-93187047D02*
X72384180Y-93187047D01*
X72384180Y-92806095D01*
X72431800Y-92710857D01*
X72479419Y-92663238D01*
X72574657Y-92615619D01*
X72717514Y-92615619D01*
X72812752Y-92663238D01*
X72860371Y-92710857D01*
X72907990Y-92806095D01*
X72907990Y-93187047D01*
X69723180Y-101015800D02*
X69961276Y-101015800D01*
X69866038Y-101253895D02*
X69961276Y-101015800D01*
X69866038Y-100777704D01*
X70151752Y-101158657D02*
X69961276Y-101015800D01*
X70151752Y-100872942D01*
X69723180Y-101015800D02*
X69961276Y-101015800D01*
X69866038Y-101253895D02*
X69961276Y-101015800D01*
X69866038Y-100777704D01*
X70151752Y-101158657D02*
X69961276Y-101015800D01*
X70151752Y-100872942D01*
X63130180Y-100729895D02*
X63939704Y-100729895D01*
X64034942Y-100682276D01*
X64082561Y-100634657D01*
X64130180Y-100539419D01*
X64130180Y-100348942D01*
X64082561Y-100253704D01*
X64034942Y-100206085D01*
X63939704Y-100158466D01*
X63130180Y-100158466D01*
X64130180Y-99158466D02*
X64130180Y-99729895D01*
X64130180Y-99444180D02*
X63130180Y-99444180D01*
X63273038Y-99539419D01*
X63368276Y-99634657D01*
X63415895Y-99729895D01*
X64130180Y-98206085D02*
X64130180Y-98777514D01*
X64130180Y-98491800D02*
X63130180Y-98491800D01*
X63273038Y-98587038D01*
X63368276Y-98682276D01*
X63415895Y-98777514D01*
X64082561Y-106444180D02*
X64130180Y-106301323D01*
X64130180Y-106063228D01*
X64082561Y-105967990D01*
X64034942Y-105920371D01*
X63939704Y-105872752D01*
X63844466Y-105872752D01*
X63749228Y-105920371D01*
X63701609Y-105967990D01*
X63653990Y-106063228D01*
X63606371Y-106253704D01*
X63558752Y-106348942D01*
X63511133Y-106396561D01*
X63415895Y-106444180D01*
X63320657Y-106444180D01*
X63225419Y-106396561D01*
X63177800Y-106348942D01*
X63130180Y-106253704D01*
X63130180Y-106015609D01*
X63177800Y-105872752D01*
X64130180Y-105444180D02*
X63130180Y-105444180D01*
X64130180Y-104872752D01*
X63130180Y-104872752D01*
X63130180Y-104491800D02*
X63130180Y-103825133D01*
X64130180Y-104253704D01*
X63463514Y-103015609D02*
X64130180Y-103015609D01*
X63082561Y-103253704D02*
X63796847Y-103491800D01*
X63796847Y-102872752D01*
X64130180Y-102015609D02*
X64130180Y-102491800D01*
X63130180Y-102491800D01*
X63130180Y-101825133D02*
X64130180Y-101491800D01*
X63130180Y-101158466D01*
X64034942Y-100253704D02*
X64082561Y-100301323D01*
X64130180Y-100444180D01*
X64130180Y-100539419D01*
X64082561Y-100682276D01*
X63987323Y-100777514D01*
X63892085Y-100825133D01*
X63701609Y-100872752D01*
X63558752Y-100872752D01*
X63368276Y-100825133D01*
X63273038Y-100777514D01*
X63177800Y-100682276D01*
X63130180Y-100539419D01*
X63130180Y-100444180D01*
X63177800Y-100301323D01*
X63225419Y-100253704D01*
X64130180Y-99301323D02*
X64130180Y-99872752D01*
X64130180Y-99587038D02*
X63130180Y-99587038D01*
X63273038Y-99682276D01*
X63368276Y-99777514D01*
X63415895Y-99872752D01*
X63177800Y-98348942D02*
X63130180Y-98444180D01*
X63130180Y-98587038D01*
X63177800Y-98729895D01*
X63273038Y-98825133D01*
X63368276Y-98872752D01*
X63558752Y-98920371D01*
X63701609Y-98920371D01*
X63892085Y-98872752D01*
X63987323Y-98825133D01*
X64082561Y-98729895D01*
X64130180Y-98587038D01*
X64130180Y-98491800D01*
X64082561Y-98348942D01*
X64034942Y-98301323D01*
X63701609Y-98301323D01*
X63701609Y-98491800D01*
X63130180Y-97444180D02*
X63130180Y-97634657D01*
X63177800Y-97729895D01*
X63225419Y-97777514D01*
X63368276Y-97872752D01*
X63558752Y-97920371D01*
X63939704Y-97920371D01*
X64034942Y-97872752D01*
X64082561Y-97825133D01*
X64130180Y-97729895D01*
X64130180Y-97539419D01*
X64082561Y-97444180D01*
X64034942Y-97396561D01*
X63939704Y-97348942D01*
X63701609Y-97348942D01*
X63606371Y-97396561D01*
X63558752Y-97444180D01*
X63511133Y-97539419D01*
X63511133Y-97729895D01*
X63558752Y-97825133D01*
X63606371Y-97872752D01*
X63701609Y-97920371D01*
X63130180Y-96491800D02*
X63130180Y-96682276D01*
X63177800Y-96777514D01*
X63225419Y-96825133D01*
X63368276Y-96920371D01*
X63558752Y-96967990D01*
X63939704Y-96967990D01*
X64034942Y-96920371D01*
X64082561Y-96872752D01*
X64130180Y-96777514D01*
X64130180Y-96587038D01*
X64082561Y-96491800D01*
X64034942Y-96444180D01*
X63939704Y-96396561D01*
X63701609Y-96396561D01*
X63606371Y-96444180D01*
X63558752Y-96491800D01*
X63511133Y-96587038D01*
X63511133Y-96777514D01*
X63558752Y-96872752D01*
X63606371Y-96920371D01*
X63701609Y-96967990D01*
X64130180Y-95967990D02*
X63130180Y-95967990D01*
X63130180Y-95729895D01*
X63177800Y-95587038D01*
X63273038Y-95491800D01*
X63368276Y-95444180D01*
X63558752Y-95396561D01*
X63701609Y-95396561D01*
X63892085Y-95444180D01*
X63987323Y-95491800D01*
X64082561Y-95587038D01*
X64130180Y-95729895D01*
X64130180Y-95967990D01*
X63606371Y-94634657D02*
X63653990Y-94491800D01*
X63701609Y-94444180D01*
X63796847Y-94396561D01*
X63939704Y-94396561D01*
X64034942Y-94444180D01*
X64082561Y-94491800D01*
X64130180Y-94587038D01*
X64130180Y-94967990D01*
X63130180Y-94967990D01*
X63130180Y-94634657D01*
X63177800Y-94539419D01*
X63225419Y-94491800D01*
X63320657Y-94444180D01*
X63415895Y-94444180D01*
X63511133Y-94491800D01*
X63558752Y-94539419D01*
X63606371Y-94634657D01*
X63606371Y-94967990D01*
X63130180Y-94110847D02*
X64130180Y-93777514D01*
X63130180Y-93444180D01*
X64130180Y-92539419D02*
X63653990Y-92872752D01*
X64130180Y-93110847D02*
X63130180Y-93110847D01*
X63130180Y-92729895D01*
X63177800Y-92634657D01*
X63225419Y-92587038D01*
X63320657Y-92539419D01*
X63463514Y-92539419D01*
X63558752Y-92587038D01*
X63606371Y-92634657D01*
X63653990Y-92729895D01*
X63653990Y-93110847D01*
X60469180Y-100939600D02*
X60707276Y-100939600D01*
X60612038Y-101177695D02*
X60707276Y-100939600D01*
X60612038Y-100701504D01*
X60897752Y-101082457D02*
X60707276Y-100939600D01*
X60897752Y-100796742D01*
X60469180Y-100939600D02*
X60707276Y-100939600D01*
X60612038Y-101177695D02*
X60707276Y-100939600D01*
X60612038Y-100701504D01*
X60897752Y-101082457D02*
X60707276Y-100939600D01*
X60897752Y-100796742D01*
X73158380Y-94461704D02*
X73967904Y-94461704D01*
X74063142Y-94414085D01*
X74110761Y-94366466D01*
X74158380Y-94271228D01*
X74158380Y-94080752D01*
X74110761Y-93985514D01*
X74063142Y-93937895D01*
X73967904Y-93890276D01*
X73158380Y-93890276D01*
X74158380Y-93366466D02*
X74158380Y-93175990D01*
X74110761Y-93080752D01*
X74063142Y-93033133D01*
X73920285Y-92937895D01*
X73729809Y-92890276D01*
X73348857Y-92890276D01*
X73253619Y-92937895D01*
X73206000Y-92985514D01*
X73158380Y-93080752D01*
X73158380Y-93271228D01*
X73206000Y-93366466D01*
X73253619Y-93414085D01*
X73348857Y-93461704D01*
X73586952Y-93461704D01*
X73682190Y-93414085D01*
X73729809Y-93366466D01*
X73777428Y-93271228D01*
X73777428Y-93080752D01*
X73729809Y-92985514D01*
X73682190Y-92937895D01*
X73586952Y-92890276D01*
X74110761Y-100652180D02*
X74158380Y-100509323D01*
X74158380Y-100271228D01*
X74110761Y-100175990D01*
X74063142Y-100128371D01*
X73967904Y-100080752D01*
X73872666Y-100080752D01*
X73777428Y-100128371D01*
X73729809Y-100175990D01*
X73682190Y-100271228D01*
X73634571Y-100461704D01*
X73586952Y-100556942D01*
X73539333Y-100604561D01*
X73444095Y-100652180D01*
X73348857Y-100652180D01*
X73253619Y-100604561D01*
X73206000Y-100556942D01*
X73158380Y-100461704D01*
X73158380Y-100223609D01*
X73206000Y-100080752D01*
X74158380Y-99652180D02*
X73158380Y-99652180D01*
X74158380Y-99080752D01*
X73158380Y-99080752D01*
X73158380Y-98699800D02*
X73158380Y-98033133D01*
X74158380Y-98461704D01*
X73491714Y-97223609D02*
X74158380Y-97223609D01*
X73110761Y-97461704D02*
X73825047Y-97699800D01*
X73825047Y-97080752D01*
X74158380Y-96223609D02*
X74158380Y-96699800D01*
X73158380Y-96699800D01*
X73158380Y-96033133D02*
X74158380Y-95699800D01*
X73158380Y-95366466D01*
X74063142Y-94461704D02*
X74110761Y-94509323D01*
X74158380Y-94652180D01*
X74158380Y-94747419D01*
X74110761Y-94890276D01*
X74015523Y-94985514D01*
X73920285Y-95033133D01*
X73729809Y-95080752D01*
X73586952Y-95080752D01*
X73396476Y-95033133D01*
X73301238Y-94985514D01*
X73206000Y-94890276D01*
X73158380Y-94747419D01*
X73158380Y-94652180D01*
X73206000Y-94509323D01*
X73253619Y-94461704D01*
X74158380Y-93509323D02*
X74158380Y-94080752D01*
X74158380Y-93795038D02*
X73158380Y-93795038D01*
X73301238Y-93890276D01*
X73396476Y-93985514D01*
X73444095Y-94080752D01*
X73206000Y-92556942D02*
X73158380Y-92652180D01*
X73158380Y-92795038D01*
X73206000Y-92937895D01*
X73301238Y-93033133D01*
X73396476Y-93080752D01*
X73586952Y-93128371D01*
X73729809Y-93128371D01*
X73920285Y-93080752D01*
X74015523Y-93033133D01*
X74110761Y-92937895D01*
X74158380Y-92795038D01*
X74158380Y-92699800D01*
X74110761Y-92556942D01*
X74063142Y-92509323D01*
X73729809Y-92509323D01*
X73729809Y-92699800D01*
X73158380Y-91652180D02*
X73158380Y-91842657D01*
X73206000Y-91937895D01*
X73253619Y-91985514D01*
X73396476Y-92080752D01*
X73586952Y-92128371D01*
X73967904Y-92128371D01*
X74063142Y-92080752D01*
X74110761Y-92033133D01*
X74158380Y-91937895D01*
X74158380Y-91747419D01*
X74110761Y-91652180D01*
X74063142Y-91604561D01*
X73967904Y-91556942D01*
X73729809Y-91556942D01*
X73634571Y-91604561D01*
X73586952Y-91652180D01*
X73539333Y-91747419D01*
X73539333Y-91937895D01*
X73586952Y-92033133D01*
X73634571Y-92080752D01*
X73729809Y-92128371D01*
X73158380Y-90699800D02*
X73158380Y-90890276D01*
X73206000Y-90985514D01*
X73253619Y-91033133D01*
X73396476Y-91128371D01*
X73586952Y-91175990D01*
X73967904Y-91175990D01*
X74063142Y-91128371D01*
X74110761Y-91080752D01*
X74158380Y-90985514D01*
X74158380Y-90795038D01*
X74110761Y-90699800D01*
X74063142Y-90652180D01*
X73967904Y-90604561D01*
X73729809Y-90604561D01*
X73634571Y-90652180D01*
X73586952Y-90699800D01*
X73539333Y-90795038D01*
X73539333Y-90985514D01*
X73586952Y-91080752D01*
X73634571Y-91128371D01*
X73729809Y-91175990D01*
X74158380Y-90175990D02*
X73158380Y-90175990D01*
X73158380Y-89937895D01*
X73206000Y-89795038D01*
X73301238Y-89699800D01*
X73396476Y-89652180D01*
X73586952Y-89604561D01*
X73729809Y-89604561D01*
X73920285Y-89652180D01*
X74015523Y-89699800D01*
X74110761Y-89795038D01*
X74158380Y-89937895D01*
X74158380Y-90175990D01*
X73634571Y-88842657D02*
X73682190Y-88699800D01*
X73729809Y-88652180D01*
X73825047Y-88604561D01*
X73967904Y-88604561D01*
X74063142Y-88652180D01*
X74110761Y-88699800D01*
X74158380Y-88795038D01*
X74158380Y-89175990D01*
X73158380Y-89175990D01*
X73158380Y-88842657D01*
X73206000Y-88747419D01*
X73253619Y-88699800D01*
X73348857Y-88652180D01*
X73444095Y-88652180D01*
X73539333Y-88699800D01*
X73586952Y-88747419D01*
X73634571Y-88842657D01*
X73634571Y-89175990D01*
X73158380Y-88318847D02*
X74158380Y-87985514D01*
X73158380Y-87652180D01*
X74158380Y-86747419D02*
X73682190Y-87080752D01*
X74158380Y-87318847D02*
X73158380Y-87318847D01*
X73158380Y-86937895D01*
X73206000Y-86842657D01*
X73253619Y-86795038D01*
X73348857Y-86747419D01*
X73491714Y-86747419D01*
X73586952Y-86795038D01*
X73634571Y-86842657D01*
X73682190Y-86937895D01*
X73682190Y-87318847D01*
X70497380Y-95147600D02*
X70735476Y-95147600D01*
X70640238Y-95385695D02*
X70735476Y-95147600D01*
X70640238Y-94909504D01*
X70925952Y-95290457D02*
X70735476Y-95147600D01*
X70925952Y-95004742D01*
X70497380Y-95147600D02*
X70735476Y-95147600D01*
X70640238Y-95385695D02*
X70735476Y-95147600D01*
X70640238Y-94909504D01*
X70925952Y-95290457D02*
X70735476Y-95147600D01*
X70925952Y-95004742D01*
X62352180Y-94261704D02*
X63161704Y-94261704D01*
X63256942Y-94214085D01*
X63304561Y-94166466D01*
X63352180Y-94071228D01*
X63352180Y-93880752D01*
X63304561Y-93785514D01*
X63256942Y-93737895D01*
X63161704Y-93690276D01*
X62352180Y-93690276D01*
X62780752Y-93071228D02*
X62733133Y-93166466D01*
X62685514Y-93214085D01*
X62590276Y-93261704D01*
X62542657Y-93261704D01*
X62447419Y-93214085D01*
X62399800Y-93166466D01*
X62352180Y-93071228D01*
X62352180Y-92880752D01*
X62399800Y-92785514D01*
X62447419Y-92737895D01*
X62542657Y-92690276D01*
X62590276Y-92690276D01*
X62685514Y-92737895D01*
X62733133Y-92785514D01*
X62780752Y-92880752D01*
X62780752Y-93071228D01*
X62828371Y-93166466D01*
X62875990Y-93214085D01*
X62971228Y-93261704D01*
X63161704Y-93261704D01*
X63256942Y-93214085D01*
X63304561Y-93166466D01*
X63352180Y-93071228D01*
X63352180Y-92880752D01*
X63304561Y-92785514D01*
X63256942Y-92737895D01*
X63161704Y-92690276D01*
X62971228Y-92690276D01*
X62875990Y-92737895D01*
X62828371Y-92785514D01*
X62780752Y-92880752D01*
X63304561Y-100452180D02*
X63352180Y-100309323D01*
X63352180Y-100071228D01*
X63304561Y-99975990D01*
X63256942Y-99928371D01*
X63161704Y-99880752D01*
X63066466Y-99880752D01*
X62971228Y-99928371D01*
X62923609Y-99975990D01*
X62875990Y-100071228D01*
X62828371Y-100261704D01*
X62780752Y-100356942D01*
X62733133Y-100404561D01*
X62637895Y-100452180D01*
X62542657Y-100452180D01*
X62447419Y-100404561D01*
X62399800Y-100356942D01*
X62352180Y-100261704D01*
X62352180Y-100023609D01*
X62399800Y-99880752D01*
X63352180Y-99452180D02*
X62352180Y-99452180D01*
X63352180Y-98880752D01*
X62352180Y-98880752D01*
X62352180Y-98499800D02*
X62352180Y-97833133D01*
X63352180Y-98261704D01*
X62685514Y-97023609D02*
X63352180Y-97023609D01*
X62304561Y-97261704D02*
X63018847Y-97499800D01*
X63018847Y-96880752D01*
X63352180Y-96023609D02*
X63352180Y-96499800D01*
X62352180Y-96499800D01*
X62352180Y-95833133D02*
X63352180Y-95499800D01*
X62352180Y-95166466D01*
X63256942Y-94261704D02*
X63304561Y-94309323D01*
X63352180Y-94452180D01*
X63352180Y-94547419D01*
X63304561Y-94690276D01*
X63209323Y-94785514D01*
X63114085Y-94833133D01*
X62923609Y-94880752D01*
X62780752Y-94880752D01*
X62590276Y-94833133D01*
X62495038Y-94785514D01*
X62399800Y-94690276D01*
X62352180Y-94547419D01*
X62352180Y-94452180D01*
X62399800Y-94309323D01*
X62447419Y-94261704D01*
X63352180Y-93309323D02*
X63352180Y-93880752D01*
X63352180Y-93595038D02*
X62352180Y-93595038D01*
X62495038Y-93690276D01*
X62590276Y-93785514D01*
X62637895Y-93880752D01*
X62399800Y-92356942D02*
X62352180Y-92452180D01*
X62352180Y-92595038D01*
X62399800Y-92737895D01*
X62495038Y-92833133D01*
X62590276Y-92880752D01*
X62780752Y-92928371D01*
X62923609Y-92928371D01*
X63114085Y-92880752D01*
X63209323Y-92833133D01*
X63304561Y-92737895D01*
X63352180Y-92595038D01*
X63352180Y-92499800D01*
X63304561Y-92356942D01*
X63256942Y-92309323D01*
X62923609Y-92309323D01*
X62923609Y-92499800D01*
X62352180Y-91452180D02*
X62352180Y-91642657D01*
X62399800Y-91737895D01*
X62447419Y-91785514D01*
X62590276Y-91880752D01*
X62780752Y-91928371D01*
X63161704Y-91928371D01*
X63256942Y-91880752D01*
X63304561Y-91833133D01*
X63352180Y-91737895D01*
X63352180Y-91547419D01*
X63304561Y-91452180D01*
X63256942Y-91404561D01*
X63161704Y-91356942D01*
X62923609Y-91356942D01*
X62828371Y-91404561D01*
X62780752Y-91452180D01*
X62733133Y-91547419D01*
X62733133Y-91737895D01*
X62780752Y-91833133D01*
X62828371Y-91880752D01*
X62923609Y-91928371D01*
X62352180Y-90499800D02*
X62352180Y-90690276D01*
X62399800Y-90785514D01*
X62447419Y-90833133D01*
X62590276Y-90928371D01*
X62780752Y-90975990D01*
X63161704Y-90975990D01*
X63256942Y-90928371D01*
X63304561Y-90880752D01*
X63352180Y-90785514D01*
X63352180Y-90595038D01*
X63304561Y-90499800D01*
X63256942Y-90452180D01*
X63161704Y-90404561D01*
X62923609Y-90404561D01*
X62828371Y-90452180D01*
X62780752Y-90499800D01*
X62733133Y-90595038D01*
X62733133Y-90785514D01*
X62780752Y-90880752D01*
X62828371Y-90928371D01*
X62923609Y-90975990D01*
X63352180Y-89975990D02*
X62352180Y-89975990D01*
X62352180Y-89737895D01*
X62399800Y-89595038D01*
X62495038Y-89499800D01*
X62590276Y-89452180D01*
X62780752Y-89404561D01*
X62923609Y-89404561D01*
X63114085Y-89452180D01*
X63209323Y-89499800D01*
X63304561Y-89595038D01*
X63352180Y-89737895D01*
X63352180Y-89975990D01*
X62828371Y-88642657D02*
X62875990Y-88499800D01*
X62923609Y-88452180D01*
X63018847Y-88404561D01*
X63161704Y-88404561D01*
X63256942Y-88452180D01*
X63304561Y-88499800D01*
X63352180Y-88595038D01*
X63352180Y-88975990D01*
X62352180Y-88975990D01*
X62352180Y-88642657D01*
X62399800Y-88547419D01*
X62447419Y-88499800D01*
X62542657Y-88452180D01*
X62637895Y-88452180D01*
X62733133Y-88499800D01*
X62780752Y-88547419D01*
X62828371Y-88642657D01*
X62828371Y-88975990D01*
X62352180Y-88118847D02*
X63352180Y-87785514D01*
X62352180Y-87452180D01*
X63352180Y-86547419D02*
X62875990Y-86880752D01*
X63352180Y-87118847D02*
X62352180Y-87118847D01*
X62352180Y-86737895D01*
X62399800Y-86642657D01*
X62447419Y-86595038D01*
X62542657Y-86547419D01*
X62685514Y-86547419D01*
X62780752Y-86595038D01*
X62828371Y-86642657D01*
X62875990Y-86737895D01*
X62875990Y-87118847D01*
X59691180Y-94947600D02*
X59929276Y-94947600D01*
X59834038Y-95185695D02*
X59929276Y-94947600D01*
X59834038Y-94709504D01*
X60119752Y-95090457D02*
X59929276Y-94947600D01*
X60119752Y-94804742D01*
X59691180Y-94947600D02*
X59929276Y-94947600D01*
X59834038Y-95185695D02*
X59929276Y-94947600D01*
X59834038Y-94709504D01*
X60119752Y-95090457D02*
X59929276Y-94947600D01*
X60119752Y-94804742D01*
X52352180Y-94461704D02*
X53161704Y-94461704D01*
X53256942Y-94414085D01*
X53304561Y-94366466D01*
X53352180Y-94271228D01*
X53352180Y-94080752D01*
X53304561Y-93985514D01*
X53256942Y-93937895D01*
X53161704Y-93890276D01*
X52352180Y-93890276D01*
X52352180Y-93509323D02*
X52352180Y-92842657D01*
X53352180Y-93271228D01*
X53304561Y-100652180D02*
X53352180Y-100509323D01*
X53352180Y-100271228D01*
X53304561Y-100175990D01*
X53256942Y-100128371D01*
X53161704Y-100080752D01*
X53066466Y-100080752D01*
X52971228Y-100128371D01*
X52923609Y-100175990D01*
X52875990Y-100271228D01*
X52828371Y-100461704D01*
X52780752Y-100556942D01*
X52733133Y-100604561D01*
X52637895Y-100652180D01*
X52542657Y-100652180D01*
X52447419Y-100604561D01*
X52399800Y-100556942D01*
X52352180Y-100461704D01*
X52352180Y-100223609D01*
X52399800Y-100080752D01*
X53352180Y-99652180D02*
X52352180Y-99652180D01*
X53352180Y-99080752D01*
X52352180Y-99080752D01*
X52352180Y-98699800D02*
X52352180Y-98033133D01*
X53352180Y-98461704D01*
X52685514Y-97223609D02*
X53352180Y-97223609D01*
X52304561Y-97461704D02*
X53018847Y-97699800D01*
X53018847Y-97080752D01*
X53352180Y-96223609D02*
X53352180Y-96699800D01*
X52352180Y-96699800D01*
X52352180Y-96033133D02*
X53352180Y-95699800D01*
X52352180Y-95366466D01*
X53256942Y-94461704D02*
X53304561Y-94509323D01*
X53352180Y-94652180D01*
X53352180Y-94747419D01*
X53304561Y-94890276D01*
X53209323Y-94985514D01*
X53114085Y-95033133D01*
X52923609Y-95080752D01*
X52780752Y-95080752D01*
X52590276Y-95033133D01*
X52495038Y-94985514D01*
X52399800Y-94890276D01*
X52352180Y-94747419D01*
X52352180Y-94652180D01*
X52399800Y-94509323D01*
X52447419Y-94461704D01*
X53352180Y-93509323D02*
X53352180Y-94080752D01*
X53352180Y-93795038D02*
X52352180Y-93795038D01*
X52495038Y-93890276D01*
X52590276Y-93985514D01*
X52637895Y-94080752D01*
X52399800Y-92556942D02*
X52352180Y-92652180D01*
X52352180Y-92795038D01*
X52399800Y-92937895D01*
X52495038Y-93033133D01*
X52590276Y-93080752D01*
X52780752Y-93128371D01*
X52923609Y-93128371D01*
X53114085Y-93080752D01*
X53209323Y-93033133D01*
X53304561Y-92937895D01*
X53352180Y-92795038D01*
X53352180Y-92699800D01*
X53304561Y-92556942D01*
X53256942Y-92509323D01*
X52923609Y-92509323D01*
X52923609Y-92699800D01*
X52352180Y-91652180D02*
X52352180Y-91842657D01*
X52399800Y-91937895D01*
X52447419Y-91985514D01*
X52590276Y-92080752D01*
X52780752Y-92128371D01*
X53161704Y-92128371D01*
X53256942Y-92080752D01*
X53304561Y-92033133D01*
X53352180Y-91937895D01*
X53352180Y-91747419D01*
X53304561Y-91652180D01*
X53256942Y-91604561D01*
X53161704Y-91556942D01*
X52923609Y-91556942D01*
X52828371Y-91604561D01*
X52780752Y-91652180D01*
X52733133Y-91747419D01*
X52733133Y-91937895D01*
X52780752Y-92033133D01*
X52828371Y-92080752D01*
X52923609Y-92128371D01*
X52352180Y-90699800D02*
X52352180Y-90890276D01*
X52399800Y-90985514D01*
X52447419Y-91033133D01*
X52590276Y-91128371D01*
X52780752Y-91175990D01*
X53161704Y-91175990D01*
X53256942Y-91128371D01*
X53304561Y-91080752D01*
X53352180Y-90985514D01*
X53352180Y-90795038D01*
X53304561Y-90699800D01*
X53256942Y-90652180D01*
X53161704Y-90604561D01*
X52923609Y-90604561D01*
X52828371Y-90652180D01*
X52780752Y-90699800D01*
X52733133Y-90795038D01*
X52733133Y-90985514D01*
X52780752Y-91080752D01*
X52828371Y-91128371D01*
X52923609Y-91175990D01*
X53352180Y-90175990D02*
X52352180Y-90175990D01*
X52352180Y-89937895D01*
X52399800Y-89795038D01*
X52495038Y-89699800D01*
X52590276Y-89652180D01*
X52780752Y-89604561D01*
X52923609Y-89604561D01*
X53114085Y-89652180D01*
X53209323Y-89699800D01*
X53304561Y-89795038D01*
X53352180Y-89937895D01*
X53352180Y-90175990D01*
X52828371Y-88842657D02*
X52875990Y-88699800D01*
X52923609Y-88652180D01*
X53018847Y-88604561D01*
X53161704Y-88604561D01*
X53256942Y-88652180D01*
X53304561Y-88699800D01*
X53352180Y-88795038D01*
X53352180Y-89175990D01*
X52352180Y-89175990D01*
X52352180Y-88842657D01*
X52399800Y-88747419D01*
X52447419Y-88699800D01*
X52542657Y-88652180D01*
X52637895Y-88652180D01*
X52733133Y-88699800D01*
X52780752Y-88747419D01*
X52828371Y-88842657D01*
X52828371Y-89175990D01*
X52352180Y-88318847D02*
X53352180Y-87985514D01*
X52352180Y-87652180D01*
X53352180Y-86747419D02*
X52875990Y-87080752D01*
X53352180Y-87318847D02*
X52352180Y-87318847D01*
X52352180Y-86937895D01*
X52399800Y-86842657D01*
X52447419Y-86795038D01*
X52542657Y-86747419D01*
X52685514Y-86747419D01*
X52780752Y-86795038D01*
X52828371Y-86842657D01*
X52875990Y-86937895D01*
X52875990Y-87318847D01*
X49691180Y-95147600D02*
X49929276Y-95147600D01*
X49834038Y-95385695D02*
X49929276Y-95147600D01*
X49834038Y-94909504D01*
X50119752Y-95290457D02*
X49929276Y-95147600D01*
X50119752Y-95004742D01*
X49691180Y-95147600D02*
X49929276Y-95147600D01*
X49834038Y-95385695D02*
X49929276Y-95147600D01*
X49834038Y-94909504D01*
X50119752Y-95290457D02*
X49929276Y-95147600D01*
X50119752Y-95004742D01*
X59837895Y-88552180D02*
X59837895Y-89361704D01*
X59885514Y-89456942D01*
X59933133Y-89504561D01*
X60028371Y-89552180D01*
X60218847Y-89552180D01*
X60314085Y-89504561D01*
X60361704Y-89456942D01*
X60409323Y-89361704D01*
X60409323Y-88552180D01*
X61314085Y-88552180D02*
X61123609Y-88552180D01*
X61028371Y-88599800D01*
X60980752Y-88647419D01*
X60885514Y-88790276D01*
X60837895Y-88980752D01*
X60837895Y-89361704D01*
X60885514Y-89456942D01*
X60933133Y-89504561D01*
X61028371Y-89552180D01*
X61218847Y-89552180D01*
X61314085Y-89504561D01*
X61361704Y-89456942D01*
X61409323Y-89361704D01*
X61409323Y-89123609D01*
X61361704Y-89028371D01*
X61314085Y-88980752D01*
X61218847Y-88933133D01*
X61028371Y-88933133D01*
X60933133Y-88980752D01*
X60885514Y-89028371D01*
X60837895Y-89123609D01*
X57314085Y-89552180D02*
X57314085Y-88552180D01*
X57790276Y-89552180D02*
X57790276Y-88552180D01*
X58361704Y-89552180D01*
X58361704Y-88552180D01*
X58790276Y-89266466D02*
X59266466Y-89266466D01*
X58695038Y-89552180D02*
X59028371Y-88552180D01*
X59361704Y-89552180D01*
X59647419Y-88647419D02*
X59695038Y-88599800D01*
X59790276Y-88552180D01*
X60028371Y-88552180D01*
X60123609Y-88599800D01*
X60171228Y-88647419D01*
X60218847Y-88742657D01*
X60218847Y-88837895D01*
X60171228Y-88980752D01*
X59599800Y-89552180D01*
X60218847Y-89552180D01*
X61075990Y-88885514D02*
X61075990Y-89552180D01*
X60837895Y-88504561D02*
X60599800Y-89218847D01*
X61218847Y-89218847D01*
X61790276Y-88552180D02*
X61885514Y-88552180D01*
X61980752Y-88599800D01*
X62028371Y-88647419D01*
X62075990Y-88742657D01*
X62123609Y-88933133D01*
X62123609Y-89171228D01*
X62075990Y-89361704D01*
X62028371Y-89456942D01*
X61980752Y-89504561D01*
X61885514Y-89552180D01*
X61790276Y-89552180D01*
X61695038Y-89504561D01*
X61647419Y-89456942D01*
X61599800Y-89361704D01*
X61552180Y-89171228D01*
X61552180Y-88933133D01*
X61599800Y-88742657D01*
X61647419Y-88647419D01*
X61695038Y-88599800D01*
X61790276Y-88552180D01*
X62504561Y-89266466D02*
X62980752Y-89266466D01*
X62409323Y-89552180D02*
X62742657Y-88552180D01*
X63075990Y-89552180D01*
X63933133Y-89552180D02*
X63361704Y-89552180D01*
X63647419Y-89552180D02*
X63647419Y-88552180D01*
X63552180Y-88695038D01*
X63456942Y-88790276D01*
X63361704Y-88837895D01*
X60599800Y-88552180D02*
X60599800Y-88790276D01*
X60361704Y-88695038D02*
X60599800Y-88790276D01*
X60837895Y-88695038D01*
X60456942Y-88980752D02*
X60599800Y-88790276D01*
X60742657Y-88980752D01*
X70137895Y-88552180D02*
X70137895Y-89361704D01*
X70185514Y-89456942D01*
X70233133Y-89504561D01*
X70328371Y-89552180D01*
X70518847Y-89552180D01*
X70614085Y-89504561D01*
X70661704Y-89456942D01*
X70709323Y-89361704D01*
X70709323Y-88552180D01*
X71661704Y-88552180D02*
X71185514Y-88552180D01*
X71137895Y-89028371D01*
X71185514Y-88980752D01*
X71280752Y-88933133D01*
X71518847Y-88933133D01*
X71614085Y-88980752D01*
X71661704Y-89028371D01*
X71709323Y-89123609D01*
X71709323Y-89361704D01*
X71661704Y-89456942D01*
X71614085Y-89504561D01*
X71518847Y-89552180D01*
X71280752Y-89552180D01*
X71185514Y-89504561D01*
X71137895Y-89456942D01*
X67614085Y-89552180D02*
X67614085Y-88552180D01*
X68090276Y-89552180D02*
X68090276Y-88552180D01*
X68661704Y-89552180D01*
X68661704Y-88552180D01*
X69090276Y-89266466D02*
X69566466Y-89266466D01*
X68995038Y-89552180D02*
X69328371Y-88552180D01*
X69661704Y-89552180D01*
X69947419Y-88647419D02*
X69995038Y-88599800D01*
X70090276Y-88552180D01*
X70328371Y-88552180D01*
X70423609Y-88599800D01*
X70471228Y-88647419D01*
X70518847Y-88742657D01*
X70518847Y-88837895D01*
X70471228Y-88980752D01*
X69899800Y-89552180D01*
X70518847Y-89552180D01*
X71375990Y-88885514D02*
X71375990Y-89552180D01*
X71137895Y-88504561D02*
X70899800Y-89218847D01*
X71518847Y-89218847D01*
X72090276Y-88552180D02*
X72185514Y-88552180D01*
X72280752Y-88599800D01*
X72328371Y-88647419D01*
X72375990Y-88742657D01*
X72423609Y-88933133D01*
X72423609Y-89171228D01*
X72375990Y-89361704D01*
X72328371Y-89456942D01*
X72280752Y-89504561D01*
X72185514Y-89552180D01*
X72090276Y-89552180D01*
X71995038Y-89504561D01*
X71947419Y-89456942D01*
X71899800Y-89361704D01*
X71852180Y-89171228D01*
X71852180Y-88933133D01*
X71899800Y-88742657D01*
X71947419Y-88647419D01*
X71995038Y-88599800D01*
X72090276Y-88552180D01*
X72804561Y-89266466D02*
X73280752Y-89266466D01*
X72709323Y-89552180D02*
X73042657Y-88552180D01*
X73375990Y-89552180D01*
X74233133Y-89552180D02*
X73661704Y-89552180D01*
X73947419Y-89552180D02*
X73947419Y-88552180D01*
X73852180Y-88695038D01*
X73756942Y-88790276D01*
X73661704Y-88837895D01*
X70899800Y-88552180D02*
X70899800Y-88790276D01*
X70661704Y-88695038D02*
X70899800Y-88790276D01*
X71137895Y-88695038D01*
X70756942Y-88980752D02*
X70899800Y-88790276D01*
X71042657Y-88980752D01*
X49837894Y-88577181D02*
X49837894Y-89386705D01*
X49885513Y-89481943D01*
X49933132Y-89529562D01*
X50028370Y-89577181D01*
X50218846Y-89577181D01*
X50314084Y-89529562D01*
X50361703Y-89481943D01*
X50409322Y-89386705D01*
X50409322Y-88577181D01*
X51314084Y-88910515D02*
X51314084Y-89577181D01*
X51075989Y-88529562D02*
X50837894Y-89243848D01*
X51456941Y-89243848D01*
X47314084Y-89577181D02*
X47314084Y-88577181D01*
X47790275Y-89577181D02*
X47790275Y-88577181D01*
X48361703Y-89577181D01*
X48361703Y-88577181D01*
X48790275Y-89291467D02*
X49266465Y-89291467D01*
X48695037Y-89577181D02*
X49028370Y-88577181D01*
X49361703Y-89577181D01*
X49647418Y-88672420D02*
X49695037Y-88624801D01*
X49790275Y-88577181D01*
X50028370Y-88577181D01*
X50123608Y-88624801D01*
X50171227Y-88672420D01*
X50218846Y-88767658D01*
X50218846Y-88862896D01*
X50171227Y-89005753D01*
X49599799Y-89577181D01*
X50218846Y-89577181D01*
X51075989Y-88910515D02*
X51075989Y-89577181D01*
X50837894Y-88529562D02*
X50599799Y-89243848D01*
X51218846Y-89243848D01*
X51790275Y-88577181D02*
X51885513Y-88577181D01*
X51980751Y-88624801D01*
X52028370Y-88672420D01*
X52075989Y-88767658D01*
X52123608Y-88958134D01*
X52123608Y-89196229D01*
X52075989Y-89386705D01*
X52028370Y-89481943D01*
X51980751Y-89529562D01*
X51885513Y-89577181D01*
X51790275Y-89577181D01*
X51695037Y-89529562D01*
X51647418Y-89481943D01*
X51599799Y-89386705D01*
X51552179Y-89196229D01*
X51552179Y-88958134D01*
X51599799Y-88767658D01*
X51647418Y-88672420D01*
X51695037Y-88624801D01*
X51790275Y-88577181D01*
X52504560Y-89291467D02*
X52980751Y-89291467D01*
X52409322Y-89577181D02*
X52742656Y-88577181D01*
X53075989Y-89577181D01*
X53933132Y-89577181D02*
X53361703Y-89577181D01*
X53647418Y-89577181D02*
X53647418Y-88577181D01*
X53552179Y-88720039D01*
X53456941Y-88815277D01*
X53361703Y-88862896D01*
X50599799Y-88577181D02*
X50599799Y-88815277D01*
X50361703Y-88720039D02*
X50599799Y-88815277D01*
X50837894Y-88720039D01*
X50456941Y-89005753D02*
X50599799Y-88815277D01*
X50742656Y-89005753D01*
X53452180Y-100329904D02*
X54261704Y-100329904D01*
X54356942Y-100282285D01*
X54404561Y-100234666D01*
X54452180Y-100139428D01*
X54452180Y-99948952D01*
X54404561Y-99853714D01*
X54356942Y-99806095D01*
X54261704Y-99758476D01*
X53452180Y-99758476D01*
X53547419Y-99329904D02*
X53499800Y-99282285D01*
X53452180Y-99187047D01*
X53452180Y-98948952D01*
X53499800Y-98853714D01*
X53547419Y-98806095D01*
X53642657Y-98758476D01*
X53737895Y-98758476D01*
X53880752Y-98806095D01*
X54452180Y-99377523D01*
X54452180Y-98758476D01*
X54404561Y-106520380D02*
X54452180Y-106377523D01*
X54452180Y-106139428D01*
X54404561Y-106044190D01*
X54356942Y-105996571D01*
X54261704Y-105948952D01*
X54166466Y-105948952D01*
X54071228Y-105996571D01*
X54023609Y-106044190D01*
X53975990Y-106139428D01*
X53928371Y-106329904D01*
X53880752Y-106425142D01*
X53833133Y-106472761D01*
X53737895Y-106520380D01*
X53642657Y-106520380D01*
X53547419Y-106472761D01*
X53499800Y-106425142D01*
X53452180Y-106329904D01*
X53452180Y-106091809D01*
X53499800Y-105948952D01*
X54452180Y-105520380D02*
X53452180Y-105520380D01*
X54452180Y-104948952D01*
X53452180Y-104948952D01*
X53452180Y-104568000D02*
X53452180Y-103901333D01*
X54452180Y-104329904D01*
X53785514Y-103091809D02*
X54452180Y-103091809D01*
X53404561Y-103329904D02*
X54118847Y-103568000D01*
X54118847Y-102948952D01*
X54452180Y-102091809D02*
X54452180Y-102568000D01*
X53452180Y-102568000D01*
X53452180Y-101901333D02*
X54452180Y-101568000D01*
X53452180Y-101234666D01*
X54356942Y-100329904D02*
X54404561Y-100377523D01*
X54452180Y-100520380D01*
X54452180Y-100615619D01*
X54404561Y-100758476D01*
X54309323Y-100853714D01*
X54214085Y-100901333D01*
X54023609Y-100948952D01*
X53880752Y-100948952D01*
X53690276Y-100901333D01*
X53595038Y-100853714D01*
X53499800Y-100758476D01*
X53452180Y-100615619D01*
X53452180Y-100520380D01*
X53499800Y-100377523D01*
X53547419Y-100329904D01*
X54452180Y-99377523D02*
X54452180Y-99948952D01*
X54452180Y-99663238D02*
X53452180Y-99663238D01*
X53595038Y-99758476D01*
X53690276Y-99853714D01*
X53737895Y-99948952D01*
X53499800Y-98425142D02*
X53452180Y-98520380D01*
X53452180Y-98663238D01*
X53499800Y-98806095D01*
X53595038Y-98901333D01*
X53690276Y-98948952D01*
X53880752Y-98996571D01*
X54023609Y-98996571D01*
X54214085Y-98948952D01*
X54309323Y-98901333D01*
X54404561Y-98806095D01*
X54452180Y-98663238D01*
X54452180Y-98568000D01*
X54404561Y-98425142D01*
X54356942Y-98377523D01*
X54023609Y-98377523D01*
X54023609Y-98568000D01*
X53452180Y-97520380D02*
X53452180Y-97710857D01*
X53499800Y-97806095D01*
X53547419Y-97853714D01*
X53690276Y-97948952D01*
X53880752Y-97996571D01*
X54261704Y-97996571D01*
X54356942Y-97948952D01*
X54404561Y-97901333D01*
X54452180Y-97806095D01*
X54452180Y-97615619D01*
X54404561Y-97520380D01*
X54356942Y-97472761D01*
X54261704Y-97425142D01*
X54023609Y-97425142D01*
X53928371Y-97472761D01*
X53880752Y-97520380D01*
X53833133Y-97615619D01*
X53833133Y-97806095D01*
X53880752Y-97901333D01*
X53928371Y-97948952D01*
X54023609Y-97996571D01*
X53452180Y-96568000D02*
X53452180Y-96758476D01*
X53499800Y-96853714D01*
X53547419Y-96901333D01*
X53690276Y-96996571D01*
X53880752Y-97044190D01*
X54261704Y-97044190D01*
X54356942Y-96996571D01*
X54404561Y-96948952D01*
X54452180Y-96853714D01*
X54452180Y-96663238D01*
X54404561Y-96568000D01*
X54356942Y-96520380D01*
X54261704Y-96472761D01*
X54023609Y-96472761D01*
X53928371Y-96520380D01*
X53880752Y-96568000D01*
X53833133Y-96663238D01*
X53833133Y-96853714D01*
X53880752Y-96948952D01*
X53928371Y-96996571D01*
X54023609Y-97044190D01*
X54452180Y-96044190D02*
X53452180Y-96044190D01*
X53452180Y-95806095D01*
X53499800Y-95663238D01*
X53595038Y-95568000D01*
X53690276Y-95520380D01*
X53880752Y-95472761D01*
X54023609Y-95472761D01*
X54214085Y-95520380D01*
X54309323Y-95568000D01*
X54404561Y-95663238D01*
X54452180Y-95806095D01*
X54452180Y-96044190D01*
X53928371Y-94710857D02*
X53975990Y-94568000D01*
X54023609Y-94520380D01*
X54118847Y-94472761D01*
X54261704Y-94472761D01*
X54356942Y-94520380D01*
X54404561Y-94568000D01*
X54452180Y-94663238D01*
X54452180Y-95044190D01*
X53452180Y-95044190D01*
X53452180Y-94710857D01*
X53499800Y-94615619D01*
X53547419Y-94568000D01*
X53642657Y-94520380D01*
X53737895Y-94520380D01*
X53833133Y-94568000D01*
X53880752Y-94615619D01*
X53928371Y-94710857D01*
X53928371Y-95044190D01*
X53452180Y-94187047D02*
X54452180Y-93853714D01*
X53452180Y-93520380D01*
X54452180Y-92615619D02*
X53975990Y-92948952D01*
X54452180Y-93187047D02*
X53452180Y-93187047D01*
X53452180Y-92806095D01*
X53499800Y-92710857D01*
X53547419Y-92663238D01*
X53642657Y-92615619D01*
X53785514Y-92615619D01*
X53880752Y-92663238D01*
X53928371Y-92710857D01*
X53975990Y-92806095D01*
X53975990Y-93187047D01*
X50791180Y-101015800D02*
X51029276Y-101015800D01*
X50934038Y-101253895D02*
X51029276Y-101015800D01*
X50934038Y-100777704D01*
X51219752Y-101158657D02*
X51029276Y-101015800D01*
X51219752Y-100872942D01*
X50791180Y-101015800D02*
X51029276Y-101015800D01*
X50934038Y-101253895D02*
X51029276Y-101015800D01*
X50934038Y-100777704D01*
X51219752Y-101158657D02*
X51029276Y-101015800D01*
X51219752Y-100872942D01*
X90002180Y-138942657D02*
X89525990Y-139275990D01*
X90002180Y-139514085D02*
X89002180Y-139514085D01*
X89002180Y-139133133D01*
X89049800Y-139037895D01*
X89097419Y-138990276D01*
X89192657Y-138942657D01*
X89335514Y-138942657D01*
X89430752Y-138990276D01*
X89478371Y-139037895D01*
X89525990Y-139133133D01*
X89525990Y-139514085D01*
X89335514Y-138085514D02*
X90002180Y-138085514D01*
X88954561Y-138323609D02*
X89668847Y-138561704D01*
X89668847Y-137942657D01*
X89335514Y-137133133D02*
X90002180Y-137133133D01*
X88954561Y-137371228D02*
X89668847Y-137609323D01*
X89668847Y-136990276D01*
D17*
X93104847Y-65178876D02*
X93043895Y-65148400D01*
X92982942Y-65087447D01*
X92891514Y-64996019D01*
X92830561Y-64965542D01*
X92769609Y-64965542D01*
X92800085Y-65117923D02*
X92739133Y-65087447D01*
X92678180Y-65026495D01*
X92647704Y-64904590D01*
X92647704Y-64691257D01*
X92678180Y-64569352D01*
X92739133Y-64508400D01*
X92800085Y-64477923D01*
X92921990Y-64477923D01*
X92982942Y-64508400D01*
X93043895Y-64569352D01*
X93074371Y-64691257D01*
X93074371Y-64904590D01*
X93043895Y-65026495D01*
X92982942Y-65087447D01*
X92921990Y-65117923D01*
X92800085Y-65117923D01*
X93622942Y-64477923D02*
X93501038Y-64477923D01*
X93440085Y-64508400D01*
X93409609Y-64538876D01*
X93348657Y-64630304D01*
X93318180Y-64752209D01*
X93318180Y-64996019D01*
X93348657Y-65056971D01*
X93379133Y-65087447D01*
X93440085Y-65117923D01*
X93561990Y-65117923D01*
X93622942Y-65087447D01*
X93653419Y-65056971D01*
X93683895Y-64996019D01*
X93683895Y-64843638D01*
X93653419Y-64782685D01*
X93622942Y-64752209D01*
X93561990Y-64721733D01*
X93440085Y-64721733D01*
X93379133Y-64752209D01*
X93348657Y-64782685D01*
X93318180Y-64843638D01*
X96672847Y-61321676D02*
X96611895Y-61291200D01*
X96550942Y-61230247D01*
X96459514Y-61138819D01*
X96398561Y-61108342D01*
X96337609Y-61108342D01*
X96368085Y-61260723D02*
X96307133Y-61230247D01*
X96246180Y-61169295D01*
X96215704Y-61047390D01*
X96215704Y-60834057D01*
X96246180Y-60712152D01*
X96307133Y-60651200D01*
X96368085Y-60620723D01*
X96489990Y-60620723D01*
X96550942Y-60651200D01*
X96611895Y-60712152D01*
X96642371Y-60834057D01*
X96642371Y-61047390D01*
X96611895Y-61169295D01*
X96550942Y-61230247D01*
X96489990Y-61260723D01*
X96368085Y-61260723D01*
X97221419Y-60620723D02*
X96916657Y-60620723D01*
X96886180Y-60925485D01*
X96916657Y-60895009D01*
X96977609Y-60864533D01*
X97129990Y-60864533D01*
X97190942Y-60895009D01*
X97221419Y-60925485D01*
X97251895Y-60986438D01*
X97251895Y-61138819D01*
X97221419Y-61199771D01*
X97190942Y-61230247D01*
X97129990Y-61260723D01*
X96977609Y-61260723D01*
X96916657Y-61230247D01*
X96886180Y-61199771D01*
X113604847Y-65378876D02*
X113543895Y-65348400D01*
X113482942Y-65287447D01*
X113391514Y-65196019D01*
X113330561Y-65165542D01*
X113269609Y-65165542D01*
X113300085Y-65317923D02*
X113239133Y-65287447D01*
X113178180Y-65226495D01*
X113147704Y-65104590D01*
X113147704Y-64891257D01*
X113178180Y-64769352D01*
X113239133Y-64708400D01*
X113300085Y-64677923D01*
X113421990Y-64677923D01*
X113482942Y-64708400D01*
X113543895Y-64769352D01*
X113574371Y-64891257D01*
X113574371Y-65104590D01*
X113543895Y-65226495D01*
X113482942Y-65287447D01*
X113421990Y-65317923D01*
X113300085Y-65317923D01*
X114122942Y-64891257D02*
X114122942Y-65317923D01*
X113970561Y-64647447D02*
X113818180Y-65104590D01*
X114214371Y-65104590D01*
X117022847Y-61521676D02*
X116961895Y-61491200D01*
X116900942Y-61430247D01*
X116809514Y-61338819D01*
X116748561Y-61308342D01*
X116687609Y-61308342D01*
X116718085Y-61460723D02*
X116657133Y-61430247D01*
X116596180Y-61369295D01*
X116565704Y-61247390D01*
X116565704Y-61034057D01*
X116596180Y-60912152D01*
X116657133Y-60851200D01*
X116718085Y-60820723D01*
X116839990Y-60820723D01*
X116900942Y-60851200D01*
X116961895Y-60912152D01*
X116992371Y-61034057D01*
X116992371Y-61247390D01*
X116961895Y-61369295D01*
X116900942Y-61430247D01*
X116839990Y-61460723D01*
X116718085Y-61460723D01*
X117205704Y-60820723D02*
X117601895Y-60820723D01*
X117388561Y-61064533D01*
X117479990Y-61064533D01*
X117540942Y-61095009D01*
X117571419Y-61125485D01*
X117601895Y-61186438D01*
X117601895Y-61338819D01*
X117571419Y-61399771D01*
X117540942Y-61430247D01*
X117479990Y-61460723D01*
X117297133Y-61460723D01*
X117236180Y-61430247D01*
X117205704Y-61399771D01*
X72604847Y-65278876D02*
X72543895Y-65248400D01*
X72482942Y-65187447D01*
X72391514Y-65096019D01*
X72330561Y-65065542D01*
X72269609Y-65065542D01*
X72300085Y-65217923D02*
X72239133Y-65187447D01*
X72178180Y-65126495D01*
X72147704Y-65004590D01*
X72147704Y-64791257D01*
X72178180Y-64669352D01*
X72239133Y-64608400D01*
X72300085Y-64577923D01*
X72421990Y-64577923D01*
X72482942Y-64608400D01*
X72543895Y-64669352D01*
X72574371Y-64791257D01*
X72574371Y-65004590D01*
X72543895Y-65126495D01*
X72482942Y-65187447D01*
X72421990Y-65217923D01*
X72300085Y-65217923D01*
X72818180Y-64638876D02*
X72848657Y-64608400D01*
X72909609Y-64577923D01*
X73061990Y-64577923D01*
X73122942Y-64608400D01*
X73153419Y-64638876D01*
X73183895Y-64699828D01*
X73183895Y-64760780D01*
X73153419Y-64852209D01*
X72787704Y-65217923D01*
X73183895Y-65217923D01*
X76222847Y-61421676D02*
X76161895Y-61391200D01*
X76100942Y-61330247D01*
X76009514Y-61238819D01*
X75948561Y-61208342D01*
X75887609Y-61208342D01*
X75918085Y-61360723D02*
X75857133Y-61330247D01*
X75796180Y-61269295D01*
X75765704Y-61147390D01*
X75765704Y-60934057D01*
X75796180Y-60812152D01*
X75857133Y-60751200D01*
X75918085Y-60720723D01*
X76039990Y-60720723D01*
X76100942Y-60751200D01*
X76161895Y-60812152D01*
X76192371Y-60934057D01*
X76192371Y-61147390D01*
X76161895Y-61269295D01*
X76100942Y-61330247D01*
X76039990Y-61360723D01*
X75918085Y-61360723D01*
X76801895Y-61360723D02*
X76436180Y-61360723D01*
X76619038Y-61360723D02*
X76619038Y-60720723D01*
X76558085Y-60812152D01*
X76497133Y-60873104D01*
X76436180Y-60903580D01*
D10*
X94502180Y-132266466D02*
X94502180Y-132742657D01*
X93502180Y-132742657D01*
X93597419Y-131980752D02*
X93549800Y-131933133D01*
X93502180Y-131837895D01*
X93502180Y-131599800D01*
X93549800Y-131504561D01*
X93597419Y-131456942D01*
X93692657Y-131409323D01*
X93787895Y-131409323D01*
X93930752Y-131456942D01*
X94502180Y-132028371D01*
X94502180Y-131409323D01*
X111883133Y-124362180D02*
X111406942Y-124362180D01*
X111406942Y-123362180D01*
X112740276Y-124362180D02*
X112168847Y-124362180D01*
X112454561Y-124362180D02*
X112454561Y-123362180D01*
X112359323Y-123505038D01*
X112264085Y-123600276D01*
X112168847Y-123647895D01*
X80690276Y-72327180D02*
X80690276Y-73041466D01*
X80642657Y-73184323D01*
X80547419Y-73279561D01*
X80404561Y-73327180D01*
X80309323Y-73327180D01*
X81690276Y-73327180D02*
X81118847Y-73327180D01*
X81404561Y-73327180D02*
X81404561Y-72327180D01*
X81309323Y-72470038D01*
X81214085Y-72565276D01*
X81118847Y-72612895D01*
X82071228Y-72422419D02*
X82118847Y-72374800D01*
X82214085Y-72327180D01*
X82452180Y-72327180D01*
X82547419Y-72374800D01*
X82595038Y-72422419D01*
X82642657Y-72517657D01*
X82642657Y-72612895D01*
X82595038Y-72755752D01*
X82023609Y-73327180D01*
X82642657Y-73327180D01*
X101720276Y-52638180D02*
X101720276Y-53352466D01*
X101672657Y-53495323D01*
X101577419Y-53590561D01*
X101434561Y-53638180D01*
X101339323Y-53638180D01*
X102720276Y-53638180D02*
X102148847Y-53638180D01*
X102434561Y-53638180D02*
X102434561Y-52638180D01*
X102339323Y-52781038D01*
X102244085Y-52876276D01*
X102148847Y-52923895D01*
X103672657Y-53638180D02*
X103101228Y-53638180D01*
X103386942Y-53638180D02*
X103386942Y-52638180D01*
X103291704Y-52781038D01*
X103196466Y-52876276D01*
X103101228Y-52923895D01*
X124960276Y-61016180D02*
X124960276Y-61730466D01*
X124912657Y-61873323D01*
X124817419Y-61968561D01*
X124674561Y-62016180D01*
X124579323Y-62016180D01*
X125960276Y-62016180D02*
X125388847Y-62016180D01*
X125674561Y-62016180D02*
X125674561Y-61016180D01*
X125579323Y-61159038D01*
X125484085Y-61254276D01*
X125388847Y-61301895D01*
X126579323Y-61016180D02*
X126674561Y-61016180D01*
X126769800Y-61063800D01*
X126817419Y-61111419D01*
X126865038Y-61206657D01*
X126912657Y-61397133D01*
X126912657Y-61635228D01*
X126865038Y-61825704D01*
X126817419Y-61920942D01*
X126769800Y-61968561D01*
X126674561Y-62016180D01*
X126579323Y-62016180D01*
X126484085Y-61968561D01*
X126436466Y-61920942D01*
X126388847Y-61825704D01*
X126341228Y-61635228D01*
X126341228Y-61397133D01*
X126388847Y-61206657D01*
X126436466Y-61111419D01*
X126484085Y-61063800D01*
X126579323Y-61016180D01*
X86816180Y-56213133D02*
X87530466Y-56213133D01*
X87673323Y-56260752D01*
X87768561Y-56355990D01*
X87816180Y-56498847D01*
X87816180Y-56594085D01*
X87816180Y-55689323D02*
X87816180Y-55498847D01*
X87768561Y-55403609D01*
X87720942Y-55355990D01*
X87578085Y-55260752D01*
X87387609Y-55213133D01*
X87006657Y-55213133D01*
X86911419Y-55260752D01*
X86863800Y-55308371D01*
X86816180Y-55403609D01*
X86816180Y-55594085D01*
X86863800Y-55689323D01*
X86911419Y-55736942D01*
X87006657Y-55784561D01*
X87244752Y-55784561D01*
X87339990Y-55736942D01*
X87387609Y-55689323D01*
X87435228Y-55594085D01*
X87435228Y-55403609D01*
X87387609Y-55308371D01*
X87339990Y-55260752D01*
X87244752Y-55213133D01*
X137716180Y-103963133D02*
X138430466Y-103963133D01*
X138573323Y-104010752D01*
X138668561Y-104105990D01*
X138716180Y-104248847D01*
X138716180Y-104344085D01*
X138144752Y-103344085D02*
X138097133Y-103439323D01*
X138049514Y-103486942D01*
X137954276Y-103534561D01*
X137906657Y-103534561D01*
X137811419Y-103486942D01*
X137763800Y-103439323D01*
X137716180Y-103344085D01*
X137716180Y-103153609D01*
X137763800Y-103058371D01*
X137811419Y-103010752D01*
X137906657Y-102963133D01*
X137954276Y-102963133D01*
X138049514Y-103010752D01*
X138097133Y-103058371D01*
X138144752Y-103153609D01*
X138144752Y-103344085D01*
X138192371Y-103439323D01*
X138239990Y-103486942D01*
X138335228Y-103534561D01*
X138525704Y-103534561D01*
X138620942Y-103486942D01*
X138668561Y-103439323D01*
X138716180Y-103344085D01*
X138716180Y-103153609D01*
X138668561Y-103058371D01*
X138620942Y-103010752D01*
X138525704Y-102963133D01*
X138335228Y-102963133D01*
X138239990Y-103010752D01*
X138192371Y-103058371D01*
X138144752Y-103153609D01*
X148336466Y-108216180D02*
X148336466Y-108930466D01*
X148288847Y-109073323D01*
X148193609Y-109168561D01*
X148050752Y-109216180D01*
X147955514Y-109216180D01*
X148717419Y-108216180D02*
X149384085Y-108216180D01*
X148955514Y-109216180D01*
X93252180Y-133437895D02*
X92252180Y-133437895D01*
X92252180Y-133199800D01*
X92299800Y-133056942D01*
X92395038Y-132961704D01*
X92490276Y-132914085D01*
X92680752Y-132866466D01*
X92823609Y-132866466D01*
X93014085Y-132914085D01*
X93109323Y-132961704D01*
X93204561Y-133056942D01*
X93252180Y-133199800D01*
X93252180Y-133437895D01*
X92680752Y-132295038D02*
X92633133Y-132390276D01*
X92585514Y-132437895D01*
X92490276Y-132485514D01*
X92442657Y-132485514D01*
X92347419Y-132437895D01*
X92299800Y-132390276D01*
X92252180Y-132295038D01*
X92252180Y-132104561D01*
X92299800Y-132009323D01*
X92347419Y-131961704D01*
X92442657Y-131914085D01*
X92490276Y-131914085D01*
X92585514Y-131961704D01*
X92633133Y-132009323D01*
X92680752Y-132104561D01*
X92680752Y-132295038D01*
X92728371Y-132390276D01*
X92775990Y-132437895D01*
X92871228Y-132485514D01*
X93061704Y-132485514D01*
X93156942Y-132437895D01*
X93204561Y-132390276D01*
X93252180Y-132295038D01*
X93252180Y-132104561D01*
X93204561Y-132009323D01*
X93156942Y-131961704D01*
X93061704Y-131914085D01*
X92871228Y-131914085D01*
X92775990Y-131961704D01*
X92728371Y-132009323D01*
X92680752Y-132104561D01*
X91736942Y-63442657D02*
X91784561Y-63490276D01*
X91832180Y-63633133D01*
X91832180Y-63728371D01*
X91784561Y-63871228D01*
X91689323Y-63966466D01*
X91594085Y-64014085D01*
X91403609Y-64061704D01*
X91260752Y-64061704D01*
X91070276Y-64014085D01*
X90975038Y-63966466D01*
X90879800Y-63871228D01*
X90832180Y-63728371D01*
X90832180Y-63633133D01*
X90879800Y-63490276D01*
X90927419Y-63442657D01*
X90832180Y-62537895D02*
X90832180Y-63014085D01*
X91308371Y-63061704D01*
X91260752Y-63014085D01*
X91213133Y-62918847D01*
X91213133Y-62680752D01*
X91260752Y-62585514D01*
X91308371Y-62537895D01*
X91403609Y-62490276D01*
X91641704Y-62490276D01*
X91736942Y-62537895D01*
X91784561Y-62585514D01*
X91832180Y-62680752D01*
X91832180Y-62918847D01*
X91784561Y-63014085D01*
X91736942Y-63061704D01*
X90832180Y-62156942D02*
X90832180Y-61537895D01*
X91213133Y-61871228D01*
X91213133Y-61728371D01*
X91260752Y-61633133D01*
X91308371Y-61585514D01*
X91403609Y-61537895D01*
X91641704Y-61537895D01*
X91736942Y-61585514D01*
X91784561Y-61633133D01*
X91832180Y-61728371D01*
X91832180Y-62014085D01*
X91784561Y-62109323D01*
X91736942Y-62156942D01*
X111936942Y-63742657D02*
X111984561Y-63790276D01*
X112032180Y-63933133D01*
X112032180Y-64028371D01*
X111984561Y-64171228D01*
X111889323Y-64266466D01*
X111794085Y-64314085D01*
X111603609Y-64361704D01*
X111460752Y-64361704D01*
X111270276Y-64314085D01*
X111175038Y-64266466D01*
X111079800Y-64171228D01*
X111032180Y-64028371D01*
X111032180Y-63933133D01*
X111079800Y-63790276D01*
X111127419Y-63742657D01*
X111032180Y-62837895D02*
X111032180Y-63314085D01*
X111508371Y-63361704D01*
X111460752Y-63314085D01*
X111413133Y-63218847D01*
X111413133Y-62980752D01*
X111460752Y-62885514D01*
X111508371Y-62837895D01*
X111603609Y-62790276D01*
X111841704Y-62790276D01*
X111936942Y-62837895D01*
X111984561Y-62885514D01*
X112032180Y-62980752D01*
X112032180Y-63218847D01*
X111984561Y-63314085D01*
X111936942Y-63361704D01*
X111127419Y-62409323D02*
X111079800Y-62361704D01*
X111032180Y-62266466D01*
X111032180Y-62028371D01*
X111079800Y-61933133D01*
X111127419Y-61885514D01*
X111222657Y-61837895D01*
X111317895Y-61837895D01*
X111460752Y-61885514D01*
X112032180Y-62456942D01*
X112032180Y-61837895D01*
X71136942Y-63642657D02*
X71184561Y-63690276D01*
X71232180Y-63833133D01*
X71232180Y-63928371D01*
X71184561Y-64071228D01*
X71089323Y-64166466D01*
X70994085Y-64214085D01*
X70803609Y-64261704D01*
X70660752Y-64261704D01*
X70470276Y-64214085D01*
X70375038Y-64166466D01*
X70279800Y-64071228D01*
X70232180Y-63928371D01*
X70232180Y-63833133D01*
X70279800Y-63690276D01*
X70327419Y-63642657D01*
X70232180Y-62737895D02*
X70232180Y-63214085D01*
X70708371Y-63261704D01*
X70660752Y-63214085D01*
X70613133Y-63118847D01*
X70613133Y-62880752D01*
X70660752Y-62785514D01*
X70708371Y-62737895D01*
X70803609Y-62690276D01*
X71041704Y-62690276D01*
X71136942Y-62737895D01*
X71184561Y-62785514D01*
X71232180Y-62880752D01*
X71232180Y-63118847D01*
X71184561Y-63214085D01*
X71136942Y-63261704D01*
X71232180Y-61737895D02*
X71232180Y-62309323D01*
X71232180Y-62023609D02*
X70232180Y-62023609D01*
X70375038Y-62118847D01*
X70470276Y-62214085D01*
X70517895Y-62309323D01*
X86006942Y-133480157D02*
X86054561Y-133527776D01*
X86102180Y-133670633D01*
X86102180Y-133765871D01*
X86054561Y-133908728D01*
X85959323Y-134003966D01*
X85864085Y-134051585D01*
X85673609Y-134099204D01*
X85530752Y-134099204D01*
X85340276Y-134051585D01*
X85245038Y-134003966D01*
X85149800Y-133908728D01*
X85102180Y-133765871D01*
X85102180Y-133670633D01*
X85149800Y-133527776D01*
X85197419Y-133480157D01*
X85102180Y-132575395D02*
X85102180Y-133051585D01*
X85578371Y-133099204D01*
X85530752Y-133051585D01*
X85483133Y-132956347D01*
X85483133Y-132718252D01*
X85530752Y-132623014D01*
X85578371Y-132575395D01*
X85673609Y-132527776D01*
X85911704Y-132527776D01*
X86006942Y-132575395D01*
X86054561Y-132623014D01*
X86102180Y-132718252D01*
X86102180Y-132956347D01*
X86054561Y-133051585D01*
X86006942Y-133099204D01*
X85102180Y-131908728D02*
X85102180Y-131813490D01*
X85149800Y-131718252D01*
X85197419Y-131670633D01*
X85292657Y-131623014D01*
X85483133Y-131575395D01*
X85721228Y-131575395D01*
X85911704Y-131623014D01*
X86006942Y-131670633D01*
X86054561Y-131718252D01*
X86102180Y-131813490D01*
X86102180Y-131908728D01*
X86054561Y-132003966D01*
X86006942Y-132051585D01*
X85911704Y-132099204D01*
X85721228Y-132146823D01*
X85483133Y-132146823D01*
X85292657Y-132099204D01*
X85197419Y-132051585D01*
X85149800Y-132003966D01*
X85102180Y-131908728D01*
X82706942Y-128205157D02*
X82754561Y-128252776D01*
X82802180Y-128395633D01*
X82802180Y-128490871D01*
X82754561Y-128633728D01*
X82659323Y-128728966D01*
X82564085Y-128776585D01*
X82373609Y-128824204D01*
X82230752Y-128824204D01*
X82040276Y-128776585D01*
X81945038Y-128728966D01*
X81849800Y-128633728D01*
X81802180Y-128490871D01*
X81802180Y-128395633D01*
X81849800Y-128252776D01*
X81897419Y-128205157D01*
X81802180Y-127871823D02*
X81802180Y-127252776D01*
X82183133Y-127586109D01*
X82183133Y-127443252D01*
X82230752Y-127348014D01*
X82278371Y-127300395D01*
X82373609Y-127252776D01*
X82611704Y-127252776D01*
X82706942Y-127300395D01*
X82754561Y-127348014D01*
X82802180Y-127443252D01*
X82802180Y-127728966D01*
X82754561Y-127824204D01*
X82706942Y-127871823D01*
X82135514Y-126395633D02*
X82802180Y-126395633D01*
X81754561Y-126633728D02*
X82468847Y-126871823D01*
X82468847Y-126252776D01*
X91006942Y-138942657D02*
X91054561Y-138990276D01*
X91102180Y-139133133D01*
X91102180Y-139228371D01*
X91054561Y-139371228D01*
X90959323Y-139466466D01*
X90864085Y-139514085D01*
X90673609Y-139561704D01*
X90530752Y-139561704D01*
X90340276Y-139514085D01*
X90245038Y-139466466D01*
X90149800Y-139371228D01*
X90102180Y-139228371D01*
X90102180Y-139133133D01*
X90149800Y-138990276D01*
X90197419Y-138942657D01*
X90102180Y-138609323D02*
X90102180Y-137990276D01*
X90483133Y-138323609D01*
X90483133Y-138180752D01*
X90530752Y-138085514D01*
X90578371Y-138037895D01*
X90673609Y-137990276D01*
X90911704Y-137990276D01*
X91006942Y-138037895D01*
X91054561Y-138085514D01*
X91102180Y-138180752D01*
X91102180Y-138466466D01*
X91054561Y-138561704D01*
X91006942Y-138609323D01*
X90102180Y-137656942D02*
X90102180Y-137037895D01*
X90483133Y-137371228D01*
X90483133Y-137228371D01*
X90530752Y-137133133D01*
X90578371Y-137085514D01*
X90673609Y-137037895D01*
X90911704Y-137037895D01*
X91006942Y-137085514D01*
X91054561Y-137133133D01*
X91102180Y-137228371D01*
X91102180Y-137514085D01*
X91054561Y-137609323D01*
X91006942Y-137656942D01*
X71002180Y-135305157D02*
X70525990Y-135638490D01*
X71002180Y-135876585D02*
X70002180Y-135876585D01*
X70002180Y-135495633D01*
X70049800Y-135400395D01*
X70097419Y-135352776D01*
X70192657Y-135305157D01*
X70335514Y-135305157D01*
X70430752Y-135352776D01*
X70478371Y-135400395D01*
X70525990Y-135495633D01*
X70525990Y-135876585D01*
X70335514Y-134448014D02*
X71002180Y-134448014D01*
X69954561Y-134686109D02*
X70668847Y-134924204D01*
X70668847Y-134305157D01*
X71002180Y-133400395D02*
X71002180Y-133971823D01*
X71002180Y-133686109D02*
X70002180Y-133686109D01*
X70145038Y-133781347D01*
X70240276Y-133876585D01*
X70287895Y-133971823D01*
X77402180Y-135342657D02*
X76925990Y-135675990D01*
X77402180Y-135914085D02*
X76402180Y-135914085D01*
X76402180Y-135533133D01*
X76449800Y-135437895D01*
X76497419Y-135390276D01*
X76592657Y-135342657D01*
X76735514Y-135342657D01*
X76830752Y-135390276D01*
X76878371Y-135437895D01*
X76925990Y-135533133D01*
X76925990Y-135914085D01*
X76735514Y-134485514D02*
X77402180Y-134485514D01*
X76354561Y-134723609D02*
X77068847Y-134961704D01*
X77068847Y-134342657D01*
X76402180Y-133771228D02*
X76402180Y-133675990D01*
X76449800Y-133580752D01*
X76497419Y-133533133D01*
X76592657Y-133485514D01*
X76783133Y-133437895D01*
X77021228Y-133437895D01*
X77211704Y-133485514D01*
X77306942Y-133533133D01*
X77354561Y-133580752D01*
X77402180Y-133675990D01*
X77402180Y-133771228D01*
X77354561Y-133866466D01*
X77306942Y-133914085D01*
X77211704Y-133961704D01*
X77021228Y-134009323D01*
X76783133Y-134009323D01*
X76592657Y-133961704D01*
X76497419Y-133914085D01*
X76449800Y-133866466D01*
X76402180Y-133771228D01*
X137656942Y-101606942D02*
X137609323Y-101654561D01*
X137466466Y-101702180D01*
X137371228Y-101702180D01*
X137228371Y-101654561D01*
X137133133Y-101559323D01*
X137085514Y-101464085D01*
X137037895Y-101273609D01*
X137037895Y-101130752D01*
X137085514Y-100940276D01*
X137133133Y-100845038D01*
X137228371Y-100749800D01*
X137371228Y-100702180D01*
X137466466Y-100702180D01*
X137609323Y-100749800D01*
X137656942Y-100797419D01*
X138561704Y-100702180D02*
X138085514Y-100702180D01*
X138037895Y-101178371D01*
X138085514Y-101130752D01*
X138180752Y-101083133D01*
X138418847Y-101083133D01*
X138514085Y-101130752D01*
X138561704Y-101178371D01*
X138609323Y-101273609D01*
X138609323Y-101511704D01*
X138561704Y-101606942D01*
X138514085Y-101654561D01*
X138418847Y-101702180D01*
X138180752Y-101702180D01*
X138085514Y-101654561D01*
X138037895Y-101606942D01*
X139466466Y-100702180D02*
X139275990Y-100702180D01*
X139180752Y-100749800D01*
X139133133Y-100797419D01*
X139037895Y-100940276D01*
X138990276Y-101130752D01*
X138990276Y-101511704D01*
X139037895Y-101606942D01*
X139085514Y-101654561D01*
X139180752Y-101702180D01*
X139371228Y-101702180D01*
X139466466Y-101654561D01*
X139514085Y-101606942D01*
X139561704Y-101511704D01*
X139561704Y-101273609D01*
X139514085Y-101178371D01*
X139466466Y-101130752D01*
X139371228Y-101083133D01*
X139180752Y-101083133D01*
X139085514Y-101130752D01*
X139037895Y-101178371D01*
X138990276Y-101273609D01*
X133756942Y-84006942D02*
X133709323Y-84054561D01*
X133566466Y-84102180D01*
X133471228Y-84102180D01*
X133328371Y-84054561D01*
X133233133Y-83959323D01*
X133185514Y-83864085D01*
X133137895Y-83673609D01*
X133137895Y-83530752D01*
X133185514Y-83340276D01*
X133233133Y-83245038D01*
X133328371Y-83149800D01*
X133471228Y-83102180D01*
X133566466Y-83102180D01*
X133709323Y-83149800D01*
X133756942Y-83197419D01*
X134661704Y-83102180D02*
X134185514Y-83102180D01*
X134137895Y-83578371D01*
X134185514Y-83530752D01*
X134280752Y-83483133D01*
X134518847Y-83483133D01*
X134614085Y-83530752D01*
X134661704Y-83578371D01*
X134709323Y-83673609D01*
X134709323Y-83911704D01*
X134661704Y-84006942D01*
X134614085Y-84054561D01*
X134518847Y-84102180D01*
X134280752Y-84102180D01*
X134185514Y-84054561D01*
X134137895Y-84006942D01*
X135566466Y-83435514D02*
X135566466Y-84102180D01*
X135328371Y-83054561D02*
X135090276Y-83768847D01*
X135709323Y-83768847D01*
X147490276Y-111922180D02*
X147490276Y-112636466D01*
X147442657Y-112779323D01*
X147347419Y-112874561D01*
X147204561Y-112922180D01*
X147109323Y-112922180D01*
X148490276Y-112922180D02*
X147918847Y-112922180D01*
X148204561Y-112922180D02*
X148204561Y-111922180D01*
X148109323Y-112065038D01*
X148014085Y-112160276D01*
X147918847Y-112207895D01*
X149347419Y-112255514D02*
X149347419Y-112922180D01*
X149109323Y-111874561D02*
X148871228Y-112588847D01*
X149490276Y-112588847D01*
X137194569Y-139608144D02*
X137663182Y-140147222D01*
X137720966Y-140286278D01*
X137711571Y-140420637D01*
X137634996Y-140550299D01*
X137563119Y-140612780D01*
X138605337Y-139706794D02*
X138174075Y-140081685D01*
X138389706Y-139894240D02*
X137733647Y-139139530D01*
X137755493Y-139309827D01*
X137746097Y-139444186D01*
X137705461Y-139542607D01*
X138632111Y-138358507D02*
X138272725Y-138670916D01*
X138549196Y-139061543D01*
X138553893Y-138994363D01*
X138594530Y-138895943D01*
X138774222Y-138739738D01*
X138877340Y-138713195D01*
X138944520Y-138717893D01*
X139042940Y-138758529D01*
X139199145Y-138938222D01*
X139225688Y-139041340D01*
X139220990Y-139108519D01*
X139180354Y-139206940D01*
X139000661Y-139363144D01*
X138897543Y-139389687D01*
X138830364Y-139384990D01*
X79814605Y-123040155D02*
X79309529Y-123545231D01*
X79174842Y-123612574D01*
X79040155Y-123612574D01*
X78905468Y-123545231D01*
X78838124Y-123477887D01*
X79814605Y-124454368D02*
X79410544Y-124050307D01*
X79612574Y-124252338D02*
X80319681Y-123545231D01*
X80151322Y-123578903D01*
X80016635Y-123578903D01*
X79915620Y-123545231D01*
X80757414Y-123982964D02*
X81195147Y-124420696D01*
X80690070Y-124454368D01*
X80791086Y-124555383D01*
X80824757Y-124656399D01*
X80824757Y-124723742D01*
X80791086Y-124824757D01*
X80622727Y-124993116D01*
X80521712Y-125026788D01*
X80454368Y-125026788D01*
X80353353Y-124993116D01*
X80151322Y-124791086D01*
X80117651Y-124690070D01*
X80117651Y-124622727D01*
X104238466Y-148220180D02*
X104238466Y-148934466D01*
X104190847Y-149077323D01*
X104095609Y-149172561D01*
X103952752Y-149220180D01*
X103857514Y-149220180D01*
X105190847Y-148220180D02*
X104714657Y-148220180D01*
X104667038Y-148696371D01*
X104714657Y-148648752D01*
X104809895Y-148601133D01*
X105047990Y-148601133D01*
X105143228Y-148648752D01*
X105190847Y-148696371D01*
X105238466Y-148791609D01*
X105238466Y-149029704D01*
X105190847Y-149124942D01*
X105143228Y-149172561D01*
X105047990Y-149220180D01*
X104809895Y-149220180D01*
X104714657Y-149172561D01*
X104667038Y-149124942D01*
X85671880Y-151437187D02*
X85404304Y-152099461D01*
X85306637Y-152214078D01*
X85182657Y-152266704D01*
X85032364Y-152257340D01*
X84944060Y-152221664D01*
X86224457Y-152738978D02*
X85694638Y-152524917D01*
X85959548Y-152631947D02*
X86334154Y-151704763D01*
X86192336Y-151801541D01*
X86068356Y-151854168D01*
X85962214Y-151862642D01*
X96464623Y-147916617D02*
X96340589Y-148620051D01*
X96268886Y-148752469D01*
X96158557Y-148829723D01*
X96009601Y-148851811D01*
X95915810Y-148835273D01*
X96870146Y-148084829D02*
X96925310Y-148046203D01*
X97027371Y-148015845D01*
X97261849Y-148057190D01*
X97347371Y-148120623D01*
X97385998Y-148175788D01*
X97416355Y-148277848D01*
X97399817Y-148371639D01*
X97328115Y-148504057D01*
X96666140Y-148967577D01*
X97275783Y-149075073D01*
X69373048Y-144663226D02*
X68963351Y-145248335D01*
X68842404Y-145338043D01*
X68709763Y-145361431D01*
X68565428Y-145318499D01*
X68487414Y-145263873D01*
X69685106Y-144881731D02*
X70192200Y-145236803D01*
X69700644Y-145357668D01*
X69817666Y-145439608D01*
X69868367Y-145533241D01*
X69880061Y-145599562D01*
X69864442Y-145704889D01*
X69727876Y-145899926D01*
X69634243Y-145950627D01*
X69567922Y-145962321D01*
X69462595Y-145946702D01*
X69228551Y-145782823D01*
X69177850Y-145689189D01*
X69166156Y-145622869D01*
X56977934Y-129484417D02*
X57455884Y-130015235D01*
X57516087Y-130153261D01*
X57509038Y-130287764D01*
X57434737Y-130418742D01*
X57363962Y-130482468D01*
X57650303Y-128879013D02*
X57508752Y-129006466D01*
X57469839Y-129105581D01*
X57466315Y-129172832D01*
X57491129Y-129342722D01*
X57583195Y-129516137D01*
X57838102Y-129799240D01*
X57937216Y-129838152D01*
X58004467Y-129841677D01*
X58107107Y-129813338D01*
X58248658Y-129685884D01*
X58287570Y-129586770D01*
X58291095Y-129519519D01*
X58262756Y-129416880D01*
X58103439Y-129239940D01*
X58004324Y-129201028D01*
X57937073Y-129197504D01*
X57834434Y-129225842D01*
X57692883Y-129353296D01*
X57653970Y-129452410D01*
X57650446Y-129519662D01*
X57678785Y-129622301D01*
M02*
