%TF.GenerationSoftware,KiCad,Pcbnew,5.1.9+dfsg1-1*%
%TF.CreationDate,2021-08-29T13:30:48+02:00*%
%TF.ProjectId,gesc,67657363-2e6b-4696-9361-645f70636258,6*%
%TF.SameCoordinates,Original*%
%TF.FileFunction,Legend,Top*%
%TF.FilePolarity,Positive*%
%FSLAX46Y46*%
G04 Gerber Fmt 4.6, Leading zero omitted, Abs format (unit mm)*
G04 Created by KiCad (PCBNEW 5.1.9+dfsg1-1) date 2021-08-29 13:30:48*
%MOMM*%
%LPD*%
G01*
G04 APERTURE LIST*
%ADD10C,0.300000*%
%ADD11C,0.150000*%
%TA.AperFunction,Profile*%
%ADD12C,0.200000*%
%TD*%
%ADD13C,0.120000*%
%ADD14C,0.200000*%
%ADD15C,0.010000*%
%ADD16C,0.127000*%
%ADD17C,0.152400*%
G04 APERTURE END LIST*
D10*
X119500000Y-53878571D02*
X119500000Y-52378571D01*
X120071428Y-52378571D01*
X120214285Y-52450000D01*
X120285714Y-52521428D01*
X120357142Y-52664285D01*
X120357142Y-52878571D01*
X120285714Y-53021428D01*
X120214285Y-53092857D01*
X120071428Y-53164285D01*
X119500000Y-53164285D01*
X121000000Y-53878571D02*
X121000000Y-52378571D01*
X121000000Y-53092857D02*
X121857142Y-53092857D01*
X121857142Y-53878571D02*
X121857142Y-52378571D01*
X124571428Y-53735714D02*
X124500000Y-53807142D01*
X124285714Y-53878571D01*
X124142857Y-53878571D01*
X123928571Y-53807142D01*
X123785714Y-53664285D01*
X123714285Y-53521428D01*
X123642857Y-53235714D01*
X123642857Y-53021428D01*
X123714285Y-52735714D01*
X123785714Y-52592857D01*
X123928571Y-52450000D01*
X124142857Y-52378571D01*
X124285714Y-52378571D01*
X124500000Y-52450000D01*
X124571428Y-52521428D01*
X74420000Y-55318571D02*
X74420000Y-53818571D01*
X74991428Y-53818571D01*
X75134285Y-53890000D01*
X75205714Y-53961428D01*
X75277142Y-54104285D01*
X75277142Y-54318571D01*
X75205714Y-54461428D01*
X75134285Y-54532857D01*
X74991428Y-54604285D01*
X74420000Y-54604285D01*
X75920000Y-55318571D02*
X75920000Y-53818571D01*
X75920000Y-54532857D02*
X76777142Y-54532857D01*
X76777142Y-55318571D02*
X76777142Y-53818571D01*
X79134285Y-54532857D02*
X79348571Y-54604285D01*
X79420000Y-54675714D01*
X79491428Y-54818571D01*
X79491428Y-55032857D01*
X79420000Y-55175714D01*
X79348571Y-55247142D01*
X79205714Y-55318571D01*
X78634285Y-55318571D01*
X78634285Y-53818571D01*
X79134285Y-53818571D01*
X79277142Y-53890000D01*
X79348571Y-53961428D01*
X79420000Y-54104285D01*
X79420000Y-54247142D01*
X79348571Y-54390000D01*
X79277142Y-54461428D01*
X79134285Y-54532857D01*
X78634285Y-54532857D01*
X53627142Y-83468571D02*
X53627142Y-81968571D01*
X54198571Y-81968571D01*
X54341428Y-82040000D01*
X54412857Y-82111428D01*
X54484285Y-82254285D01*
X54484285Y-82468571D01*
X54412857Y-82611428D01*
X54341428Y-82682857D01*
X54198571Y-82754285D01*
X53627142Y-82754285D01*
X55127142Y-83468571D02*
X55127142Y-81968571D01*
X55127142Y-82682857D02*
X55984285Y-82682857D01*
X55984285Y-83468571D02*
X55984285Y-81968571D01*
X57770000Y-83040000D02*
X58484285Y-83040000D01*
X57627142Y-83468571D02*
X58127142Y-81968571D01*
X58627142Y-83468571D01*
D11*
X119483214Y-123921428D02*
X119554642Y-123850000D01*
X119697500Y-123778571D01*
X120054642Y-123778571D01*
X120197500Y-123850000D01*
X120268928Y-123921428D01*
X120340357Y-124064285D01*
X120340357Y-124207142D01*
X120268928Y-124421428D01*
X119411785Y-125278571D01*
X120340357Y-125278571D01*
X121268928Y-123778571D02*
X121411785Y-123778571D01*
X121554642Y-123850000D01*
X121626071Y-123921428D01*
X121697500Y-124064285D01*
X121768928Y-124350000D01*
X121768928Y-124707142D01*
X121697500Y-124992857D01*
X121626071Y-125135714D01*
X121554642Y-125207142D01*
X121411785Y-125278571D01*
X121268928Y-125278571D01*
X121126071Y-125207142D01*
X121054642Y-125135714D01*
X120983214Y-124992857D01*
X120911785Y-124707142D01*
X120911785Y-124350000D01*
X120983214Y-124064285D01*
X121054642Y-123921428D01*
X121126071Y-123850000D01*
X121268928Y-123778571D01*
X122340357Y-123921428D02*
X122411785Y-123850000D01*
X122554642Y-123778571D01*
X122911785Y-123778571D01*
X123054642Y-123850000D01*
X123126071Y-123921428D01*
X123197500Y-124064285D01*
X123197500Y-124207142D01*
X123126071Y-124421428D01*
X122268928Y-125278571D01*
X123197500Y-125278571D01*
X124626071Y-125278571D02*
X123768928Y-125278571D01*
X124197500Y-125278571D02*
X124197500Y-123778571D01*
X124054642Y-123992857D01*
X123911785Y-124135714D01*
X123768928Y-124207142D01*
D12*
X155499800Y-99999800D02*
G75*
G03*
X155499800Y-99999800I-55500000J0D01*
G01*
D11*
X135585714Y-118092857D02*
X136085714Y-118092857D01*
X136300000Y-118878571D02*
X135585714Y-118878571D01*
X135585714Y-117378571D01*
X136300000Y-117378571D01*
X136800000Y-117378571D02*
X137800000Y-118878571D01*
X137800000Y-117378571D02*
X136800000Y-118878571D01*
X138157142Y-117378571D02*
X139014285Y-117378571D01*
X138585714Y-118878571D02*
X138585714Y-117378571D01*
X140871428Y-118878571D02*
X140728571Y-118807142D01*
X140657142Y-118735714D01*
X140585714Y-118592857D01*
X140585714Y-118164285D01*
X140657142Y-118021428D01*
X140728571Y-117950000D01*
X140871428Y-117878571D01*
X141085714Y-117878571D01*
X141228571Y-117950000D01*
X141300000Y-118021428D01*
X141371428Y-118164285D01*
X141371428Y-118592857D01*
X141300000Y-118735714D01*
X141228571Y-118807142D01*
X141085714Y-118878571D01*
X140871428Y-118878571D01*
X141800000Y-117878571D02*
X142371428Y-117878571D01*
X142014285Y-118878571D02*
X142014285Y-117592857D01*
X142085714Y-117450000D01*
X142228571Y-117378571D01*
X142371428Y-117378571D01*
X142657142Y-117878571D02*
X143228571Y-117878571D01*
X142871428Y-118878571D02*
X142871428Y-117592857D01*
X142942857Y-117450000D01*
X143085714Y-117378571D01*
X143228571Y-117378571D01*
D10*
X84327142Y-48690000D02*
X84184285Y-48618571D01*
X83970000Y-48618571D01*
X83755714Y-48690000D01*
X83612857Y-48832857D01*
X83541428Y-48975714D01*
X83470000Y-49261428D01*
X83470000Y-49475714D01*
X83541428Y-49761428D01*
X83612857Y-49904285D01*
X83755714Y-50047142D01*
X83970000Y-50118571D01*
X84112857Y-50118571D01*
X84327142Y-50047142D01*
X84398571Y-49975714D01*
X84398571Y-49475714D01*
X84112857Y-49475714D01*
X85041428Y-50118571D02*
X85041428Y-48618571D01*
X85898571Y-50118571D01*
X85898571Y-48618571D01*
X86612857Y-50118571D02*
X86612857Y-48618571D01*
X86970000Y-48618571D01*
X87184285Y-48690000D01*
X87327142Y-48832857D01*
X87398571Y-48975714D01*
X87470000Y-49261428D01*
X87470000Y-49475714D01*
X87398571Y-49761428D01*
X87327142Y-49904285D01*
X87184285Y-50047142D01*
X86970000Y-50118571D01*
X86612857Y-50118571D01*
X113505714Y-49098571D02*
X114005714Y-50598571D01*
X114505714Y-49098571D01*
X115505714Y-49812857D02*
X115720000Y-49884285D01*
X115791428Y-49955714D01*
X115862857Y-50098571D01*
X115862857Y-50312857D01*
X115791428Y-50455714D01*
X115720000Y-50527142D01*
X115577142Y-50598571D01*
X115005714Y-50598571D01*
X115005714Y-49098571D01*
X115505714Y-49098571D01*
X115648571Y-49170000D01*
X115720000Y-49241428D01*
X115791428Y-49384285D01*
X115791428Y-49527142D01*
X115720000Y-49670000D01*
X115648571Y-49741428D01*
X115505714Y-49812857D01*
X115005714Y-49812857D01*
X116434285Y-50170000D02*
X117148571Y-50170000D01*
X116291428Y-50598571D02*
X116791428Y-49098571D01*
X117291428Y-50598571D01*
X117577142Y-49098571D02*
X118434285Y-49098571D01*
X118005714Y-50598571D02*
X118005714Y-49098571D01*
D11*
X84128571Y-124592857D02*
X84342857Y-124664285D01*
X84414285Y-124735714D01*
X84485714Y-124878571D01*
X84485714Y-125092857D01*
X84414285Y-125235714D01*
X84342857Y-125307142D01*
X84200000Y-125378571D01*
X83628571Y-125378571D01*
X83628571Y-123878571D01*
X84128571Y-123878571D01*
X84271428Y-123950000D01*
X84342857Y-124021428D01*
X84414285Y-124164285D01*
X84414285Y-124307142D01*
X84342857Y-124450000D01*
X84271428Y-124521428D01*
X84128571Y-124592857D01*
X83628571Y-124592857D01*
X85842857Y-125378571D02*
X85128571Y-125378571D01*
X85128571Y-123878571D01*
X86342857Y-124592857D02*
X86842857Y-124592857D01*
X87057142Y-125378571D02*
X86342857Y-125378571D01*
X86342857Y-123878571D01*
X87057142Y-123878571D01*
X88771428Y-125307142D02*
X88985714Y-125378571D01*
X89342857Y-125378571D01*
X89485714Y-125307142D01*
X89557142Y-125235714D01*
X89628571Y-125092857D01*
X89628571Y-124950000D01*
X89557142Y-124807142D01*
X89485714Y-124735714D01*
X89342857Y-124664285D01*
X89057142Y-124592857D01*
X88914285Y-124521428D01*
X88842857Y-124450000D01*
X88771428Y-124307142D01*
X88771428Y-124164285D01*
X88842857Y-124021428D01*
X88914285Y-123950000D01*
X89057142Y-123878571D01*
X89414285Y-123878571D01*
X89628571Y-123950000D01*
X90128571Y-123878571D02*
X90485714Y-125378571D01*
X90771428Y-124307142D01*
X91057142Y-125378571D01*
X91414285Y-123878571D01*
X91985714Y-125378571D02*
X91985714Y-123878571D01*
X92342857Y-123878571D01*
X92557142Y-123950000D01*
X92700000Y-124092857D01*
X92771428Y-124235714D01*
X92842857Y-124521428D01*
X92842857Y-124735714D01*
X92771428Y-125021428D01*
X92700000Y-125164285D01*
X92557142Y-125307142D01*
X92342857Y-125378571D01*
X91985714Y-125378571D01*
X96664285Y-130092857D02*
X96878571Y-130164285D01*
X96950000Y-130235714D01*
X97021428Y-130378571D01*
X97021428Y-130592857D01*
X96950000Y-130735714D01*
X96878571Y-130807142D01*
X96735714Y-130878571D01*
X96164285Y-130878571D01*
X96164285Y-129378571D01*
X96664285Y-129378571D01*
X96807142Y-129450000D01*
X96878571Y-129521428D01*
X96950000Y-129664285D01*
X96950000Y-129807142D01*
X96878571Y-129950000D01*
X96807142Y-130021428D01*
X96664285Y-130092857D01*
X96164285Y-130092857D01*
X98378571Y-130878571D02*
X97664285Y-130878571D01*
X97664285Y-129378571D01*
X98878571Y-130092857D02*
X99378571Y-130092857D01*
X99592857Y-130878571D02*
X98878571Y-130878571D01*
X98878571Y-129378571D01*
X99592857Y-129378571D01*
X101378571Y-130878571D02*
X101378571Y-129378571D01*
X101878571Y-130450000D01*
X102378571Y-129378571D01*
X102378571Y-130878571D01*
X103307142Y-130878571D02*
X103164285Y-130807142D01*
X103092857Y-130735714D01*
X103021428Y-130592857D01*
X103021428Y-130164285D01*
X103092857Y-130021428D01*
X103164285Y-129950000D01*
X103307142Y-129878571D01*
X103521428Y-129878571D01*
X103664285Y-129950000D01*
X103735714Y-130021428D01*
X103807142Y-130164285D01*
X103807142Y-130592857D01*
X103735714Y-130735714D01*
X103664285Y-130807142D01*
X103521428Y-130878571D01*
X103307142Y-130878571D01*
X105092857Y-130878571D02*
X105092857Y-129378571D01*
X105092857Y-130807142D02*
X104950000Y-130878571D01*
X104664285Y-130878571D01*
X104521428Y-130807142D01*
X104450000Y-130735714D01*
X104378571Y-130592857D01*
X104378571Y-130164285D01*
X104450000Y-130021428D01*
X104521428Y-129950000D01*
X104664285Y-129878571D01*
X104950000Y-129878571D01*
X105092857Y-129950000D01*
X106450000Y-129878571D02*
X106450000Y-130878571D01*
X105807142Y-129878571D02*
X105807142Y-130664285D01*
X105878571Y-130807142D01*
X106021428Y-130878571D01*
X106235714Y-130878571D01*
X106378571Y-130807142D01*
X106450000Y-130735714D01*
X107378571Y-130878571D02*
X107235714Y-130807142D01*
X107164285Y-130664285D01*
X107164285Y-129378571D01*
X79385514Y-129278571D02*
X80242657Y-129278571D01*
X79814085Y-130778571D02*
X79814085Y-129278571D01*
X80742657Y-130207142D02*
X81885514Y-130207142D01*
X82599800Y-130778571D02*
X82599800Y-129278571D01*
X83099800Y-130350000D01*
X83599800Y-129278571D01*
X83599800Y-130778571D01*
X84528371Y-130778571D02*
X84385514Y-130707142D01*
X84314085Y-130635714D01*
X84242657Y-130492857D01*
X84242657Y-130064285D01*
X84314085Y-129921428D01*
X84385514Y-129850000D01*
X84528371Y-129778571D01*
X84742657Y-129778571D01*
X84885514Y-129850000D01*
X84956942Y-129921428D01*
X85028371Y-130064285D01*
X85028371Y-130492857D01*
X84956942Y-130635714D01*
X84885514Y-130707142D01*
X84742657Y-130778571D01*
X84528371Y-130778571D01*
X85456942Y-129778571D02*
X86028371Y-129778571D01*
X85671228Y-129278571D02*
X85671228Y-130564285D01*
X85742657Y-130707142D01*
X85885514Y-130778571D01*
X86028371Y-130778571D01*
X86742657Y-130778571D02*
X86599800Y-130707142D01*
X86528371Y-130635714D01*
X86456942Y-130492857D01*
X86456942Y-130064285D01*
X86528371Y-129921428D01*
X86599800Y-129850000D01*
X86742657Y-129778571D01*
X86956942Y-129778571D01*
X87099800Y-129850000D01*
X87171228Y-129921428D01*
X87242657Y-130064285D01*
X87242657Y-130492857D01*
X87171228Y-130635714D01*
X87099800Y-130707142D01*
X86956942Y-130778571D01*
X86742657Y-130778571D01*
X87885514Y-130778571D02*
X87885514Y-129778571D01*
X87885514Y-130064285D02*
X87956942Y-129921428D01*
X88028371Y-129850000D01*
X88171228Y-129778571D01*
X88314085Y-129778571D01*
X109983214Y-128207142D02*
X110126071Y-128278571D01*
X110411785Y-128278571D01*
X110554642Y-128207142D01*
X110626071Y-128064285D01*
X110626071Y-127992857D01*
X110554642Y-127850000D01*
X110411785Y-127778571D01*
X110197500Y-127778571D01*
X110054642Y-127707142D01*
X109983214Y-127564285D01*
X109983214Y-127492857D01*
X110054642Y-127350000D01*
X110197500Y-127278571D01*
X110411785Y-127278571D01*
X110554642Y-127350000D01*
X111911785Y-128207142D02*
X111768928Y-128278571D01*
X111483214Y-128278571D01*
X111340357Y-128207142D01*
X111268928Y-128135714D01*
X111197500Y-127992857D01*
X111197500Y-127564285D01*
X111268928Y-127421428D01*
X111340357Y-127350000D01*
X111483214Y-127278571D01*
X111768928Y-127278571D01*
X111911785Y-127350000D01*
X112554642Y-128278571D02*
X112554642Y-126778571D01*
X113197500Y-128278571D02*
X113197500Y-127492857D01*
X113126071Y-127350000D01*
X112983214Y-127278571D01*
X112768928Y-127278571D01*
X112626071Y-127350000D01*
X112554642Y-127421428D01*
X114554642Y-128278571D02*
X114554642Y-127492857D01*
X114483214Y-127350000D01*
X114340357Y-127278571D01*
X114054642Y-127278571D01*
X113911785Y-127350000D01*
X114554642Y-128207142D02*
X114411785Y-128278571D01*
X114054642Y-128278571D01*
X113911785Y-128207142D01*
X113840357Y-128064285D01*
X113840357Y-127921428D01*
X113911785Y-127778571D01*
X114054642Y-127707142D01*
X114411785Y-127707142D01*
X114554642Y-127635714D01*
X115268928Y-128278571D02*
X115268928Y-127278571D01*
X115268928Y-127564285D02*
X115340357Y-127421428D01*
X115411785Y-127350000D01*
X115554642Y-127278571D01*
X115697500Y-127278571D01*
X116840357Y-128278571D02*
X116840357Y-126778571D01*
X116840357Y-128207142D02*
X116697500Y-128278571D01*
X116411785Y-128278571D01*
X116268928Y-128207142D01*
X116197500Y-128135714D01*
X116126071Y-127992857D01*
X116126071Y-127564285D01*
X116197500Y-127421428D01*
X116268928Y-127350000D01*
X116411785Y-127278571D01*
X116697500Y-127278571D01*
X116840357Y-127350000D01*
X117340357Y-127278571D02*
X117911785Y-127278571D01*
X117554642Y-126778571D02*
X117554642Y-128064285D01*
X117626071Y-128207142D01*
X117768928Y-128278571D01*
X117911785Y-128278571D01*
X119340357Y-127564285D02*
X119268928Y-127492857D01*
X119126071Y-127421428D01*
X118983214Y-127421428D01*
X118840357Y-127492857D01*
X118768928Y-127564285D01*
X118697500Y-127707142D01*
X118697500Y-127850000D01*
X118768928Y-127992857D01*
X118840357Y-128064285D01*
X118983214Y-128135714D01*
X119126071Y-128135714D01*
X119268928Y-128064285D01*
X119340357Y-127992857D01*
X119340357Y-127421428D02*
X119340357Y-127992857D01*
X119411785Y-128064285D01*
X119483214Y-128064285D01*
X119626071Y-127992857D01*
X119697500Y-127850000D01*
X119697500Y-127492857D01*
X119554642Y-127278571D01*
X119340357Y-127135714D01*
X119054642Y-127064285D01*
X118768928Y-127135714D01*
X118554642Y-127278571D01*
X118411785Y-127492857D01*
X118340357Y-127778571D01*
X118411785Y-128064285D01*
X118554642Y-128278571D01*
X118768928Y-128421428D01*
X119054642Y-128492857D01*
X119340357Y-128421428D01*
X119554642Y-128278571D01*
X120126071Y-127278571D02*
X120697500Y-127278571D01*
X120340357Y-126778571D02*
X120340357Y-128064285D01*
X120411785Y-128207142D01*
X120554642Y-128278571D01*
X120697500Y-128278571D01*
X121768928Y-128207142D02*
X121626071Y-128278571D01*
X121340357Y-128278571D01*
X121197500Y-128207142D01*
X121126071Y-128064285D01*
X121126071Y-127492857D01*
X121197500Y-127350000D01*
X121340357Y-127278571D01*
X121626071Y-127278571D01*
X121768928Y-127350000D01*
X121840357Y-127492857D01*
X121840357Y-127635714D01*
X121126071Y-127778571D01*
X123126071Y-128278571D02*
X123126071Y-127492857D01*
X123054642Y-127350000D01*
X122911785Y-127278571D01*
X122626071Y-127278571D01*
X122483214Y-127350000D01*
X123126071Y-128207142D02*
X122983214Y-128278571D01*
X122626071Y-128278571D01*
X122483214Y-128207142D01*
X122411785Y-128064285D01*
X122411785Y-127921428D01*
X122483214Y-127778571D01*
X122626071Y-127707142D01*
X122983214Y-127707142D01*
X123126071Y-127635714D01*
X123840357Y-128278571D02*
X123840357Y-127278571D01*
X123840357Y-127421428D02*
X123911785Y-127350000D01*
X124054642Y-127278571D01*
X124268928Y-127278571D01*
X124411785Y-127350000D01*
X124483214Y-127492857D01*
X124483214Y-128278571D01*
X124483214Y-127492857D02*
X124554642Y-127350000D01*
X124697500Y-127278571D01*
X124911785Y-127278571D01*
X125054642Y-127350000D01*
X125126071Y-127492857D01*
X125126071Y-128278571D01*
X125840357Y-127707142D02*
X126983214Y-127707142D01*
X128340357Y-128207142D02*
X128197500Y-128278571D01*
X127911785Y-128278571D01*
X127768928Y-128207142D01*
X127697500Y-128135714D01*
X127626071Y-127992857D01*
X127626071Y-127564285D01*
X127697500Y-127421428D01*
X127768928Y-127350000D01*
X127911785Y-127278571D01*
X128197500Y-127278571D01*
X128340357Y-127350000D01*
X128768928Y-127278571D02*
X129340357Y-127278571D01*
X128983214Y-126778571D02*
X128983214Y-128064285D01*
X129054642Y-128207142D01*
X129197500Y-128278571D01*
X129340357Y-128278571D01*
X130411785Y-128207142D02*
X130268928Y-128278571D01*
X129983214Y-128278571D01*
X129840357Y-128207142D01*
X129768928Y-128064285D01*
X129768928Y-127492857D01*
X129840357Y-127350000D01*
X129983214Y-127278571D01*
X130268928Y-127278571D01*
X130411785Y-127350000D01*
X130483214Y-127492857D01*
X130483214Y-127635714D01*
X129768928Y-127778571D01*
X131768928Y-128207142D02*
X131626071Y-128278571D01*
X131340357Y-128278571D01*
X131197500Y-128207142D01*
X131126071Y-128135714D01*
X131054642Y-127992857D01*
X131054642Y-127564285D01*
X131126071Y-127421428D01*
X131197500Y-127350000D01*
X131340357Y-127278571D01*
X131626071Y-127278571D01*
X131768928Y-127350000D01*
X132411785Y-128278571D02*
X132411785Y-126778571D01*
X133054642Y-128278571D02*
X133054642Y-127492857D01*
X132983214Y-127350000D01*
X132840357Y-127278571D01*
X132626071Y-127278571D01*
X132483214Y-127350000D01*
X132411785Y-127421428D01*
X133768928Y-128135714D02*
X133840357Y-128207142D01*
X133768928Y-128278571D01*
X133697500Y-128207142D01*
X133768928Y-128135714D01*
X133768928Y-128278571D01*
X135126071Y-128278571D02*
X135126071Y-126778571D01*
X135126071Y-128207142D02*
X134983214Y-128278571D01*
X134697500Y-128278571D01*
X134554642Y-128207142D01*
X134483214Y-128135714D01*
X134411785Y-127992857D01*
X134411785Y-127564285D01*
X134483214Y-127421428D01*
X134554642Y-127350000D01*
X134697500Y-127278571D01*
X134983214Y-127278571D01*
X135126071Y-127350000D01*
X136411785Y-128207142D02*
X136268928Y-128278571D01*
X135983214Y-128278571D01*
X135840357Y-128207142D01*
X135768928Y-128064285D01*
X135768928Y-127492857D01*
X135840357Y-127350000D01*
X135983214Y-127278571D01*
X136268928Y-127278571D01*
X136411785Y-127350000D01*
X136483214Y-127492857D01*
X136483214Y-127635714D01*
X135768928Y-127778571D01*
D12*
X124500000Y-100000000D02*
G75*
G03*
X124500000Y-100000000I-24500000J0D01*
G01*
D11*
X63156942Y-130878371D02*
X63156942Y-132092657D01*
X63228371Y-132235514D01*
X63299800Y-132306942D01*
X63442657Y-132378371D01*
X63728371Y-132378371D01*
X63871228Y-132306942D01*
X63942657Y-132235514D01*
X64014085Y-132092657D01*
X64014085Y-130878371D01*
X64656942Y-132306942D02*
X64871228Y-132378371D01*
X65228371Y-132378371D01*
X65371228Y-132306942D01*
X65442657Y-132235514D01*
X65514085Y-132092657D01*
X65514085Y-131949800D01*
X65442657Y-131806942D01*
X65371228Y-131735514D01*
X65228371Y-131664085D01*
X64942657Y-131592657D01*
X64799800Y-131521228D01*
X64728371Y-131449800D01*
X64656942Y-131306942D01*
X64656942Y-131164085D01*
X64728371Y-131021228D01*
X64799800Y-130949800D01*
X64942657Y-130878371D01*
X65299800Y-130878371D01*
X65514085Y-130949800D01*
X66656942Y-131592657D02*
X66871228Y-131664085D01*
X66942657Y-131735514D01*
X67014085Y-131878371D01*
X67014085Y-132092657D01*
X66942657Y-132235514D01*
X66871228Y-132306942D01*
X66728371Y-132378371D01*
X66156942Y-132378371D01*
X66156942Y-130878371D01*
X66656942Y-130878371D01*
X66799800Y-130949800D01*
X66871228Y-131021228D01*
X66942657Y-131164085D01*
X66942657Y-131306942D01*
X66871228Y-131449800D01*
X66799800Y-131521228D01*
X66656942Y-131592657D01*
X66156942Y-131592657D01*
X69864285Y-127907142D02*
X70078571Y-127978571D01*
X70435714Y-127978571D01*
X70578571Y-127907142D01*
X70650000Y-127835714D01*
X70721428Y-127692857D01*
X70721428Y-127550000D01*
X70650000Y-127407142D01*
X70578571Y-127335714D01*
X70435714Y-127264285D01*
X70150000Y-127192857D01*
X70007142Y-127121428D01*
X69935714Y-127050000D01*
X69864285Y-126907142D01*
X69864285Y-126764285D01*
X69935714Y-126621428D01*
X70007142Y-126550000D01*
X70150000Y-126478571D01*
X70507142Y-126478571D01*
X70721428Y-126550000D01*
X71221428Y-126478571D02*
X71578571Y-127978571D01*
X71864285Y-126907142D01*
X72150000Y-127978571D01*
X72507142Y-126478571D01*
X73078571Y-127978571D02*
X73078571Y-126478571D01*
X73435714Y-126478571D01*
X73650000Y-126550000D01*
X73792857Y-126692857D01*
X73864285Y-126835714D01*
X73935714Y-127121428D01*
X73935714Y-127335714D01*
X73864285Y-127621428D01*
X73792857Y-127764285D01*
X73650000Y-127907142D01*
X73435714Y-127978571D01*
X73078571Y-127978571D01*
X106544085Y-152886942D02*
X106758371Y-152958371D01*
X107115514Y-152958371D01*
X107258371Y-152886942D01*
X107329800Y-152815514D01*
X107401228Y-152672657D01*
X107401228Y-152529800D01*
X107329800Y-152386942D01*
X107258371Y-152315514D01*
X107115514Y-152244085D01*
X106829800Y-152172657D01*
X106686942Y-152101228D01*
X106615514Y-152029800D01*
X106544085Y-151886942D01*
X106544085Y-151744085D01*
X106615514Y-151601228D01*
X106686942Y-151529800D01*
X106829800Y-151458371D01*
X107186942Y-151458371D01*
X107401228Y-151529800D01*
X108615514Y-152886942D02*
X108472657Y-152958371D01*
X108186942Y-152958371D01*
X108044085Y-152886942D01*
X107972657Y-152744085D01*
X107972657Y-152172657D01*
X108044085Y-152029800D01*
X108186942Y-151958371D01*
X108472657Y-151958371D01*
X108615514Y-152029800D01*
X108686942Y-152172657D01*
X108686942Y-152315514D01*
X107972657Y-152458371D01*
X109329800Y-152958371D02*
X109329800Y-151958371D01*
X109329800Y-152244085D02*
X109401228Y-152101228D01*
X109472657Y-152029800D01*
X109615514Y-151958371D01*
X109758371Y-151958371D01*
X110115514Y-151958371D02*
X110472657Y-152958371D01*
X110829800Y-151958371D01*
X111615514Y-152958371D02*
X111472657Y-152886942D01*
X111401228Y-152815514D01*
X111329800Y-152672657D01*
X111329800Y-152244085D01*
X111401228Y-152101228D01*
X111472657Y-152029800D01*
X111615514Y-151958371D01*
X111829800Y-151958371D01*
X111972657Y-152029800D01*
X112044085Y-152101228D01*
X112115514Y-152244085D01*
X112115514Y-152672657D01*
X112044085Y-152815514D01*
X111972657Y-152886942D01*
X111829800Y-152958371D01*
X111615514Y-152958371D01*
X91185514Y-147085514D02*
X91114085Y-147156942D01*
X90899800Y-147228371D01*
X90756942Y-147228371D01*
X90542657Y-147156942D01*
X90399800Y-147014085D01*
X90328371Y-146871228D01*
X90256942Y-146585514D01*
X90256942Y-146371228D01*
X90328371Y-146085514D01*
X90399800Y-145942657D01*
X90542657Y-145799800D01*
X90756942Y-145728371D01*
X90899800Y-145728371D01*
X91114085Y-145799800D01*
X91185514Y-145871228D01*
X92042657Y-147228371D02*
X91899800Y-147156942D01*
X91828371Y-147085514D01*
X91756942Y-146942657D01*
X91756942Y-146514085D01*
X91828371Y-146371228D01*
X91899800Y-146299800D01*
X92042657Y-146228371D01*
X92256942Y-146228371D01*
X92399800Y-146299800D01*
X92471228Y-146371228D01*
X92542657Y-146514085D01*
X92542657Y-146942657D01*
X92471228Y-147085514D01*
X92399800Y-147156942D01*
X92256942Y-147228371D01*
X92042657Y-147228371D01*
X93185514Y-147228371D02*
X93185514Y-146228371D01*
X93185514Y-146371228D02*
X93256942Y-146299800D01*
X93399800Y-146228371D01*
X93614085Y-146228371D01*
X93756942Y-146299800D01*
X93828371Y-146442657D01*
X93828371Y-147228371D01*
X93828371Y-146442657D02*
X93899800Y-146299800D01*
X94042657Y-146228371D01*
X94256942Y-146228371D01*
X94399800Y-146299800D01*
X94471228Y-146442657D01*
X94471228Y-147228371D01*
X95185514Y-147228371D02*
X95185514Y-146228371D01*
X95185514Y-146371228D02*
X95256942Y-146299800D01*
X95399800Y-146228371D01*
X95614085Y-146228371D01*
X95756942Y-146299800D01*
X95828371Y-146442657D01*
X95828371Y-147228371D01*
X95828371Y-146442657D02*
X95899800Y-146299800D01*
X96042657Y-146228371D01*
X96256942Y-146228371D01*
X96399800Y-146299800D01*
X96471228Y-146442657D01*
X96471228Y-147228371D01*
X83471228Y-140678371D02*
X83471228Y-139178371D01*
X83471228Y-139892657D02*
X84328371Y-139892657D01*
X84328371Y-140678371D02*
X84328371Y-139178371D01*
X85685514Y-140678371D02*
X85685514Y-139892657D01*
X85614085Y-139749800D01*
X85471228Y-139678371D01*
X85185514Y-139678371D01*
X85042657Y-139749800D01*
X85685514Y-140606942D02*
X85542657Y-140678371D01*
X85185514Y-140678371D01*
X85042657Y-140606942D01*
X84971228Y-140464085D01*
X84971228Y-140321228D01*
X85042657Y-140178371D01*
X85185514Y-140106942D01*
X85542657Y-140106942D01*
X85685514Y-140035514D01*
X86614085Y-140678371D02*
X86471228Y-140606942D01*
X86399800Y-140464085D01*
X86399800Y-139178371D01*
X87399800Y-140678371D02*
X87256942Y-140606942D01*
X87185514Y-140464085D01*
X87185514Y-139178371D01*
X89042657Y-139106942D02*
X87756942Y-141035514D01*
X89542657Y-139892657D02*
X90042657Y-139892657D01*
X90256942Y-140678371D02*
X89542657Y-140678371D01*
X89542657Y-139178371D01*
X90256942Y-139178371D01*
X90899800Y-139678371D02*
X90899800Y-140678371D01*
X90899800Y-139821228D02*
X90971228Y-139749800D01*
X91114085Y-139678371D01*
X91328371Y-139678371D01*
X91471228Y-139749800D01*
X91542657Y-139892657D01*
X91542657Y-140678371D01*
X92899800Y-140606942D02*
X92756942Y-140678371D01*
X92471228Y-140678371D01*
X92328371Y-140606942D01*
X92256942Y-140535514D01*
X92185514Y-140392657D01*
X92185514Y-139964085D01*
X92256942Y-139821228D01*
X92328371Y-139749800D01*
X92471228Y-139678371D01*
X92756942Y-139678371D01*
X92899800Y-139749800D01*
X71928371Y-137228371D02*
X72785514Y-137228371D01*
X72356942Y-138728371D02*
X72356942Y-137228371D01*
X73285514Y-138728371D02*
X73285514Y-137728371D01*
X73285514Y-138014085D02*
X73356942Y-137871228D01*
X73428371Y-137799800D01*
X73571228Y-137728371D01*
X73714085Y-137728371D01*
X74214085Y-138728371D02*
X74214085Y-137728371D01*
X74214085Y-137228371D02*
X74142657Y-137299800D01*
X74214085Y-137371228D01*
X74285514Y-137299800D01*
X74214085Y-137228371D01*
X74214085Y-137371228D01*
X75571228Y-137728371D02*
X75571228Y-138942657D01*
X75499800Y-139085514D01*
X75428371Y-139156942D01*
X75285514Y-139228371D01*
X75071228Y-139228371D01*
X74928371Y-139156942D01*
X75571228Y-138656942D02*
X75428371Y-138728371D01*
X75142657Y-138728371D01*
X74999800Y-138656942D01*
X74928371Y-138585514D01*
X74856942Y-138442657D01*
X74856942Y-138014085D01*
X74928371Y-137871228D01*
X74999800Y-137799800D01*
X75142657Y-137728371D01*
X75428371Y-137728371D01*
X75571228Y-137799800D01*
X77356942Y-137156942D02*
X76071228Y-139085514D01*
X77785514Y-138656942D02*
X77999800Y-138728371D01*
X78356942Y-138728371D01*
X78499800Y-138656942D01*
X78571228Y-138585514D01*
X78642657Y-138442657D01*
X78642657Y-138299800D01*
X78571228Y-138156942D01*
X78499800Y-138085514D01*
X78356942Y-138014085D01*
X78071228Y-137942657D01*
X77928371Y-137871228D01*
X77856942Y-137799800D01*
X77785514Y-137656942D01*
X77785514Y-137514085D01*
X77856942Y-137371228D01*
X77928371Y-137299800D01*
X78071228Y-137228371D01*
X78428371Y-137228371D01*
X78642657Y-137299800D01*
X79285514Y-137728371D02*
X79285514Y-139228371D01*
X79285514Y-137799800D02*
X79428371Y-137728371D01*
X79714085Y-137728371D01*
X79856942Y-137799800D01*
X79928371Y-137871228D01*
X79999800Y-138014085D01*
X79999800Y-138442657D01*
X79928371Y-138585514D01*
X79856942Y-138656942D01*
X79714085Y-138728371D01*
X79428371Y-138728371D01*
X79285514Y-138656942D01*
X81214085Y-138656942D02*
X81071228Y-138728371D01*
X80785514Y-138728371D01*
X80642657Y-138656942D01*
X80571228Y-138514085D01*
X80571228Y-137942657D01*
X80642657Y-137799800D01*
X80785514Y-137728371D01*
X81071228Y-137728371D01*
X81214085Y-137799800D01*
X81285514Y-137942657D01*
X81285514Y-138085514D01*
X80571228Y-138228371D01*
X82499800Y-138656942D02*
X82356942Y-138728371D01*
X82071228Y-138728371D01*
X81928371Y-138656942D01*
X81856942Y-138514085D01*
X81856942Y-137942657D01*
X81928371Y-137799800D01*
X82071228Y-137728371D01*
X82356942Y-137728371D01*
X82499800Y-137799800D01*
X82571228Y-137942657D01*
X82571228Y-138085514D01*
X81856942Y-138228371D01*
X83856942Y-138728371D02*
X83856942Y-137228371D01*
X83856942Y-138656942D02*
X83714085Y-138728371D01*
X83428371Y-138728371D01*
X83285514Y-138656942D01*
X83214085Y-138585514D01*
X83142657Y-138442657D01*
X83142657Y-138014085D01*
X83214085Y-137871228D01*
X83285514Y-137799800D01*
X83428371Y-137728371D01*
X83714085Y-137728371D01*
X83856942Y-137799800D01*
X117540357Y-120850000D02*
X117397500Y-120778571D01*
X117183214Y-120778571D01*
X116968928Y-120850000D01*
X116826071Y-120992857D01*
X116754642Y-121135714D01*
X116683214Y-121421428D01*
X116683214Y-121635714D01*
X116754642Y-121921428D01*
X116826071Y-122064285D01*
X116968928Y-122207142D01*
X117183214Y-122278571D01*
X117326071Y-122278571D01*
X117540357Y-122207142D01*
X117611785Y-122135714D01*
X117611785Y-121635714D01*
X117326071Y-121635714D01*
X118254642Y-121492857D02*
X118754642Y-121492857D01*
X118968928Y-122278571D02*
X118254642Y-122278571D01*
X118254642Y-120778571D01*
X118968928Y-120778571D01*
X119540357Y-122207142D02*
X119754642Y-122278571D01*
X120111785Y-122278571D01*
X120254642Y-122207142D01*
X120326071Y-122135714D01*
X120397500Y-121992857D01*
X120397500Y-121850000D01*
X120326071Y-121707142D01*
X120254642Y-121635714D01*
X120111785Y-121564285D01*
X119826071Y-121492857D01*
X119683214Y-121421428D01*
X119611785Y-121350000D01*
X119540357Y-121207142D01*
X119540357Y-121064285D01*
X119611785Y-120921428D01*
X119683214Y-120850000D01*
X119826071Y-120778571D01*
X120183214Y-120778571D01*
X120397500Y-120850000D01*
X121897500Y-122135714D02*
X121826071Y-122207142D01*
X121611785Y-122278571D01*
X121468928Y-122278571D01*
X121254642Y-122207142D01*
X121111785Y-122064285D01*
X121040357Y-121921428D01*
X120968928Y-121635714D01*
X120968928Y-121421428D01*
X121040357Y-121135714D01*
X121111785Y-120992857D01*
X121254642Y-120850000D01*
X121468928Y-120778571D01*
X121611785Y-120778571D01*
X121826071Y-120850000D01*
X121897500Y-120921428D01*
X123540357Y-120778571D02*
X124540357Y-120778571D01*
X123897500Y-122278571D01*
X125111785Y-122135714D02*
X125183214Y-122207142D01*
X125111785Y-122278571D01*
X125040357Y-122207142D01*
X125111785Y-122135714D01*
X125111785Y-122278571D01*
X126111785Y-120778571D02*
X126254642Y-120778571D01*
X126397500Y-120850000D01*
X126468928Y-120921428D01*
X126540357Y-121064285D01*
X126611785Y-121350000D01*
X126611785Y-121707142D01*
X126540357Y-121992857D01*
X126468928Y-122135714D01*
X126397500Y-122207142D01*
X126254642Y-122278571D01*
X126111785Y-122278571D01*
X125968928Y-122207142D01*
X125897500Y-122135714D01*
X125826071Y-121992857D01*
X125754642Y-121707142D01*
X125754642Y-121350000D01*
X125826071Y-121064285D01*
X125897500Y-120921428D01*
X125968928Y-120850000D01*
X126111785Y-120778571D01*
D13*
X126150000Y-110150000D02*
X124150000Y-110150000D01*
X124150000Y-110150000D02*
X124150000Y-114050000D01*
X126150000Y-110150000D02*
X126150000Y-114050000D01*
X118000000Y-149200000D02*
G75*
G03*
X118000000Y-149200000I-1200000J0D01*
G01*
D14*
X108600000Y-129600000D02*
X124600000Y-129600000D01*
X124600000Y-145600000D02*
X108600000Y-145600000D01*
X107141547Y-130600000D02*
G75*
G03*
X107141547Y-130600000I-291547J0D01*
G01*
D15*
G36*
X106588500Y-130400000D02*
G01*
X107100000Y-130400000D01*
X107100000Y-130792200D01*
X106588500Y-130792200D01*
X106588500Y-130400000D01*
G37*
X106588500Y-130400000D02*
X107100000Y-130400000D01*
X107100000Y-130792200D01*
X106588500Y-130792200D01*
X106588500Y-130400000D01*
D14*
X95550000Y-58550000D02*
G75*
G03*
X95550000Y-58550000I-100000J0D01*
G01*
D16*
X93950000Y-59200000D02*
X88950000Y-59200000D01*
X93950000Y-54100000D02*
X88950000Y-54100000D01*
D14*
X88200000Y-66050000D02*
G75*
G03*
X88200000Y-66050000I-100000J0D01*
G01*
D16*
X89600000Y-65400000D02*
X94600000Y-65400000D01*
X89600000Y-70500000D02*
X94600000Y-70500000D01*
D14*
X134050000Y-71500000D02*
G75*
G03*
X134050000Y-71500000I-100000J0D01*
G01*
D16*
X133300000Y-70000000D02*
X133300000Y-65000000D01*
X138400000Y-70000000D02*
X138400000Y-65000000D01*
D14*
X126900000Y-63150000D02*
G75*
G03*
X126900000Y-63150000I-100000J0D01*
G01*
D16*
X127450000Y-64650000D02*
X127450000Y-69650000D01*
X122350000Y-64650000D02*
X122350000Y-69650000D01*
D14*
X68100000Y-67850000D02*
G75*
G03*
X68100000Y-67850000I-100000J0D01*
G01*
D16*
X66500000Y-68500000D02*
X61500000Y-68500000D01*
X66500000Y-63400000D02*
X61500000Y-63400000D01*
D14*
X60400000Y-75200000D02*
G75*
G03*
X60400000Y-75200000I-100000J0D01*
G01*
D16*
X61800000Y-74550000D02*
X66800000Y-74550000D01*
X61800000Y-79650000D02*
X66800000Y-79650000D01*
D13*
X134010200Y-109900200D02*
X134010200Y-115910200D01*
X127190200Y-112150200D02*
X127190200Y-115910200D01*
X134010200Y-115910200D02*
X132750200Y-115910200D01*
X127190200Y-115910200D02*
X128450200Y-115910200D01*
X132504122Y-120160200D02*
X133021278Y-120160200D01*
X132504122Y-118740200D02*
X133021278Y-118740200D01*
X132610000Y-107121078D02*
X132610000Y-106603922D01*
X131190000Y-107121078D02*
X131190000Y-106603922D01*
X82660000Y-131890000D02*
X84540000Y-131890000D01*
X85710000Y-135010000D02*
X84660000Y-135010000D01*
X85710000Y-133860000D02*
X85710000Y-135010000D01*
X82540000Y-135010000D02*
X82540000Y-136000000D01*
X81490000Y-135010000D02*
X82540000Y-135010000D01*
X81490000Y-133860000D02*
X81490000Y-135010000D01*
X151798964Y-115079085D02*
X149501465Y-120491654D01*
X146172335Y-120349563D02*
X146582602Y-119383033D01*
X147230915Y-120798904D02*
X146172335Y-120349563D01*
X148973877Y-113749544D02*
X148062577Y-113362720D01*
X149384145Y-112783013D02*
X148973877Y-113749544D01*
X150442725Y-113232354D02*
X149384145Y-112783013D01*
X138590000Y-112158578D02*
X138590000Y-111641422D01*
X140010000Y-112158578D02*
X140010000Y-111641422D01*
X142900000Y-111050000D02*
X142900000Y-115350000D01*
X142900000Y-115350000D02*
X144900000Y-115350000D01*
X144900000Y-115350000D02*
X144900000Y-111050000D01*
X66658578Y-80590000D02*
X66141422Y-80590000D01*
X66658578Y-82010000D02*
X66141422Y-82010000D01*
X105135000Y-67345000D02*
X105135000Y-68595000D01*
X104510000Y-67970000D02*
X105760000Y-67970000D01*
X106000000Y-74925563D02*
X107064437Y-75990000D01*
X106000000Y-66534437D02*
X107064437Y-65470000D01*
X106000000Y-66534437D02*
X106000000Y-69220000D01*
X106000000Y-74925563D02*
X106000000Y-72240000D01*
X107064437Y-75990000D02*
X116520000Y-75990000D01*
X107064437Y-65470000D02*
X116520000Y-65470000D01*
X116520000Y-65470000D02*
X116520000Y-69220000D01*
X116520000Y-75990000D02*
X116520000Y-72240000D01*
X113625000Y-62785000D02*
X113625000Y-61535000D01*
X114250000Y-62160000D02*
X113000000Y-62160000D01*
X112760000Y-55204437D02*
X111695563Y-54140000D01*
X112760000Y-63595563D02*
X111695563Y-64660000D01*
X112760000Y-63595563D02*
X112760000Y-60910000D01*
X112760000Y-55204437D02*
X112760000Y-57890000D01*
X111695563Y-54140000D02*
X102240000Y-54140000D01*
X111695563Y-64660000D02*
X102240000Y-64660000D01*
X102240000Y-64660000D02*
X102240000Y-60910000D01*
X102240000Y-54140000D02*
X102240000Y-57890000D01*
X136090000Y-73490000D02*
X136090000Y-77240000D01*
X136090000Y-84010000D02*
X136090000Y-80260000D01*
X145545563Y-84010000D02*
X136090000Y-84010000D01*
X145545563Y-73490000D02*
X136090000Y-73490000D01*
X146610000Y-74554437D02*
X146610000Y-77240000D01*
X146610000Y-82945563D02*
X146610000Y-80260000D01*
X146610000Y-82945563D02*
X145545563Y-84010000D01*
X146610000Y-74554437D02*
X145545563Y-73490000D01*
X148100000Y-81510000D02*
X146850000Y-81510000D01*
X147475000Y-82135000D02*
X147475000Y-80885000D01*
X123890000Y-91710000D02*
X127640000Y-91710000D01*
X134410000Y-91710000D02*
X130660000Y-91710000D01*
X134410000Y-82254437D02*
X134410000Y-91710000D01*
X123890000Y-82254437D02*
X123890000Y-91710000D01*
X124954437Y-81190000D02*
X127640000Y-81190000D01*
X133345563Y-81190000D02*
X130660000Y-81190000D01*
X133345563Y-81190000D02*
X134410000Y-82254437D01*
X124954437Y-81190000D02*
X123890000Y-82254437D01*
X131910000Y-79700000D02*
X131910000Y-80950000D01*
X132535000Y-80325000D02*
X131285000Y-80325000D01*
X83485000Y-68400000D02*
X82235000Y-68400000D01*
X82860000Y-67775000D02*
X82860000Y-69025000D01*
X75904437Y-69265000D02*
X74840000Y-70329437D01*
X84295563Y-69265000D02*
X85360000Y-70329437D01*
X84295563Y-69265000D02*
X81610000Y-69265000D01*
X75904437Y-69265000D02*
X78590000Y-69265000D01*
X74840000Y-70329437D02*
X74840000Y-79785000D01*
X85360000Y-70329437D02*
X85360000Y-79785000D01*
X85360000Y-79785000D02*
X81610000Y-79785000D01*
X74840000Y-79785000D02*
X78590000Y-79785000D01*
X80425000Y-65785000D02*
X80425000Y-64535000D01*
X81050000Y-65160000D02*
X79800000Y-65160000D01*
X79560000Y-58204437D02*
X78495563Y-57140000D01*
X79560000Y-66595563D02*
X78495563Y-67660000D01*
X79560000Y-66595563D02*
X79560000Y-63910000D01*
X79560000Y-58204437D02*
X79560000Y-60890000D01*
X78495563Y-57140000D02*
X69040000Y-57140000D01*
X78495563Y-67660000D02*
X69040000Y-67660000D01*
X69040000Y-67660000D02*
X69040000Y-63910000D01*
X69040000Y-57140000D02*
X69040000Y-60890000D01*
X123231622Y-78790200D02*
X123748778Y-78790200D01*
X123231622Y-80210200D02*
X123748778Y-80210200D01*
X102500000Y-69908578D02*
X102500000Y-69391422D01*
X103920000Y-69908578D02*
X103920000Y-69391422D01*
X69233578Y-84265000D02*
X68716422Y-84265000D01*
X69233578Y-85685000D02*
X68716422Y-85685000D01*
X138049800Y-96350200D02*
X139749800Y-96350200D01*
X139749800Y-96350200D02*
X139749800Y-102950200D01*
X139749800Y-102950200D02*
X138049800Y-102950200D01*
X135049800Y-102950200D02*
X133349800Y-102950200D01*
X133349800Y-102950200D02*
X133349800Y-96350200D01*
X133349800Y-96350200D02*
X135049800Y-96350200D01*
X121940000Y-77890000D02*
X123890000Y-77890000D01*
X121940000Y-77890000D02*
X119990000Y-77890000D01*
X121940000Y-72770000D02*
X123890000Y-72770000D01*
X121940000Y-72770000D02*
X118490000Y-72770000D01*
X101760000Y-71270000D02*
X101760000Y-69320000D01*
X101760000Y-71270000D02*
X101760000Y-73220000D01*
X96640000Y-71270000D02*
X96640000Y-69320000D01*
X96640000Y-71270000D02*
X96640000Y-74720000D01*
X68515000Y-80000000D02*
X68515000Y-83450000D01*
X68515000Y-80000000D02*
X68515000Y-78050000D01*
X73635000Y-80000000D02*
X73635000Y-81950000D01*
X73635000Y-80000000D02*
X73635000Y-78050000D01*
X71015000Y-72102064D02*
X71015000Y-70897936D01*
X73735000Y-72102064D02*
X73735000Y-70897936D01*
X63865000Y-72102064D02*
X63865000Y-70897936D01*
X66585000Y-72102064D02*
X66585000Y-70897936D01*
X151349800Y-99900200D02*
X149349800Y-99900200D01*
X149349800Y-99900200D02*
X149349800Y-103800200D01*
X151349800Y-99900200D02*
X151349800Y-103800200D01*
D16*
X89100200Y-132499800D02*
X100400200Y-132499800D01*
X100400200Y-132499800D02*
X100400200Y-137599800D01*
X100400200Y-137599800D02*
X89100200Y-137599800D01*
X89100200Y-137599800D02*
X89100200Y-132499800D01*
D10*
X89700200Y-138299800D02*
G75*
G03*
X89700200Y-138299800I-100000J0D01*
G01*
D13*
X151850000Y-109120000D02*
X151850000Y-107880000D01*
X147150000Y-109120000D02*
X147150000Y-107880000D01*
X147150000Y-106550000D02*
X147150000Y-106200000D01*
X147150000Y-106200000D02*
X151850000Y-106200000D01*
X151850000Y-106200000D02*
X151850000Y-106550000D01*
X147150000Y-106550000D02*
X145900000Y-106550000D01*
X147150000Y-110450000D02*
X147150000Y-110800000D01*
X147150000Y-110800000D02*
X151850000Y-110800000D01*
X151850000Y-110800000D02*
X151850000Y-110450000D01*
D17*
X74557400Y-100444300D02*
X74557400Y-98691700D01*
X73265061Y-98691700D02*
X72598539Y-98691700D01*
X71306200Y-98691700D02*
X71306200Y-100444300D01*
X65303400Y-100368100D02*
X65303400Y-98615500D01*
X64011061Y-98615500D02*
X63344539Y-98615500D01*
X62052200Y-98615500D02*
X62052200Y-100368100D01*
X75331600Y-94576100D02*
X75331600Y-92823500D01*
X74039261Y-92823500D02*
X73372739Y-92823500D01*
X72080400Y-92823500D02*
X72080400Y-94576100D01*
X64525400Y-94376100D02*
X64525400Y-92623500D01*
X63233061Y-92623500D02*
X62566539Y-92623500D01*
X61274200Y-92623500D02*
X61274200Y-94376100D01*
X54525400Y-94576100D02*
X54525400Y-92823500D01*
X53233061Y-92823500D02*
X52566539Y-92823500D01*
X51274200Y-92823500D02*
X51274200Y-94576100D01*
X62923900Y-87474200D02*
X58275700Y-87474200D01*
X58275700Y-90725400D02*
X62923900Y-90725400D01*
X64904300Y-90074800D02*
G75*
G03*
X64904300Y-90074800I-76200J0D01*
G01*
X73223900Y-87474200D02*
X68575700Y-87474200D01*
X68575700Y-90725400D02*
X73223900Y-90725400D01*
X75204300Y-90074800D02*
G75*
G03*
X75204300Y-90074800I-76200J0D01*
G01*
X52923899Y-87499201D02*
X48275699Y-87499201D01*
X48275699Y-90750401D02*
X52923899Y-90750401D01*
X54904299Y-90099801D02*
G75*
G03*
X54904299Y-90099801I-76200J0D01*
G01*
X55625400Y-100444300D02*
X55625400Y-98691700D01*
X54333061Y-98691700D02*
X53666539Y-98691700D01*
X52374200Y-98691700D02*
X52374200Y-100444300D01*
D13*
X80906000Y-53706000D02*
X86494000Y-53706000D01*
X86494000Y-53706000D02*
X86494000Y-59294000D01*
X86494000Y-59294000D02*
X80906000Y-59294000D01*
X80906000Y-59294000D02*
X80906000Y-53706000D01*
X121466000Y-60794000D02*
X121466000Y-55206000D01*
X127054000Y-60794000D02*
X121466000Y-60794000D01*
X127054000Y-55206000D02*
X127054000Y-60794000D01*
X121466000Y-55206000D02*
X127054000Y-55206000D01*
X53056000Y-74656000D02*
X58644000Y-74656000D01*
X58644000Y-74656000D02*
X58644000Y-80244000D01*
X58644000Y-80244000D02*
X53056000Y-80244000D01*
X53056000Y-80244000D02*
X53056000Y-74656000D01*
X88755800Y-47105800D02*
X94343800Y-47105800D01*
X88755800Y-52693800D02*
X88755800Y-47105800D01*
X94343800Y-52693800D02*
X88755800Y-52693800D01*
X94343800Y-47105800D02*
X94343800Y-52693800D01*
X112184000Y-47176000D02*
X112184000Y-52764000D01*
X106596000Y-47176000D02*
X112184000Y-47176000D01*
X106596000Y-52764000D02*
X106596000Y-47176000D01*
X112184000Y-52764000D02*
X106596000Y-52764000D01*
X91319800Y-62871864D02*
X91319800Y-61667736D01*
X94039800Y-62871864D02*
X94039800Y-61667736D01*
X129910641Y-69124592D02*
X131114769Y-69124592D01*
X129910641Y-66404592D02*
X131114769Y-66404592D01*
X128846278Y-120160200D02*
X128329122Y-120160200D01*
X128846278Y-118740200D02*
X128329122Y-118740200D01*
X68189800Y-134403722D02*
X68189800Y-134920878D01*
X69609800Y-134403722D02*
X69609800Y-134920878D01*
X74589800Y-134441222D02*
X74589800Y-134958378D01*
X76009800Y-134441222D02*
X76009800Y-134958378D01*
X128440000Y-59587936D02*
X128440000Y-63692064D01*
X131860000Y-59587936D02*
X131860000Y-63692064D01*
X73809800Y-134453722D02*
X73809800Y-134970878D01*
X72389800Y-134453722D02*
X72389800Y-134970878D01*
X78620000Y-125070000D02*
X81280000Y-125070000D01*
X78620000Y-119930000D02*
X78620000Y-125070000D01*
X81280000Y-119930000D02*
X81280000Y-125070000D01*
X78620000Y-119930000D02*
X81280000Y-119930000D01*
X78620000Y-118660000D02*
X78620000Y-117330000D01*
X78620000Y-117330000D02*
X79950000Y-117330000D01*
X90090200Y-129658378D02*
X90090200Y-129141222D01*
X91510200Y-129658378D02*
X91510200Y-129141222D01*
X94004122Y-139489800D02*
X94521278Y-139489800D01*
X94004122Y-140909800D02*
X94521278Y-140909800D01*
X92840200Y-128337300D02*
X92840200Y-131022300D01*
X92840200Y-131022300D02*
X94760200Y-131022300D01*
X94760200Y-131022300D02*
X94760200Y-128337300D01*
X71759800Y-134441222D02*
X71759800Y-134958378D01*
X70339800Y-134441222D02*
X70339800Y-134958378D01*
X48620878Y-95289800D02*
X48103722Y-95289800D01*
X48620878Y-96709800D02*
X48103722Y-96709800D01*
X59095878Y-96609800D02*
X58578722Y-96609800D01*
X59095878Y-95189800D02*
X58578722Y-95189800D01*
X69720878Y-95289800D02*
X69203722Y-95289800D01*
X69720878Y-96709800D02*
X69203722Y-96709800D01*
X46489800Y-92903722D02*
X46489800Y-93420878D01*
X47909800Y-92903722D02*
X47909800Y-93420878D01*
X67289800Y-92803722D02*
X67289800Y-93320878D01*
X68709800Y-92803722D02*
X68709800Y-93320878D01*
X94619800Y-62871864D02*
X94619800Y-61667736D01*
X97339800Y-62871864D02*
X97339800Y-61667736D01*
X129910641Y-72624591D02*
X131114769Y-72624591D01*
X129910641Y-69904591D02*
X131114769Y-69904591D01*
X67490000Y-72102064D02*
X67490000Y-70897936D01*
X70210000Y-72102064D02*
X70210000Y-70897936D01*
X129910641Y-76124592D02*
X131114769Y-76124592D01*
X129910641Y-73404592D02*
X131114769Y-73404592D01*
X97919800Y-62871864D02*
X97919800Y-61667736D01*
X100639800Y-62871864D02*
X100639800Y-61667736D01*
X69589800Y-92803722D02*
X69589800Y-93320878D01*
X71009800Y-92803722D02*
X71009800Y-93320878D01*
X64821078Y-82790000D02*
X64303922Y-82790000D01*
X64821078Y-84210000D02*
X64303922Y-84210000D01*
X119910000Y-65131422D02*
X119910000Y-65648578D01*
X121330000Y-65131422D02*
X121330000Y-65648578D01*
X139440000Y-70903922D02*
X139440000Y-71421078D01*
X140860000Y-70903922D02*
X140860000Y-71421078D01*
X62141422Y-80565000D02*
X62658578Y-80565000D01*
X62141422Y-81985000D02*
X62658578Y-81985000D01*
X48889800Y-92841222D02*
X48889800Y-93358378D01*
X50309800Y-92841222D02*
X50309800Y-93358378D01*
X60409800Y-92703722D02*
X60409800Y-93220878D01*
X58989800Y-92703722D02*
X58989800Y-93220878D01*
X66221078Y-61190000D02*
X65703922Y-61190000D01*
X66221078Y-62610000D02*
X65703922Y-62610000D01*
X58209800Y-92641222D02*
X58209800Y-93158378D01*
X56789800Y-92641222D02*
X56789800Y-93158378D01*
X96978922Y-54090000D02*
X97496078Y-54090000D01*
X96978922Y-55510000D02*
X97496078Y-55510000D01*
X89953922Y-71490000D02*
X90471078Y-71490000D01*
X89953922Y-72910000D02*
X90471078Y-72910000D01*
X56697936Y-69790000D02*
X60802064Y-69790000D01*
X56697936Y-73210000D02*
X60802064Y-73210000D01*
X84467936Y-64150000D02*
X88572064Y-64150000D01*
X84467936Y-60730000D02*
X88572064Y-60730000D01*
X102490000Y-73121422D02*
X102490000Y-73638578D01*
X103910000Y-73121422D02*
X103910000Y-73638578D01*
X98003922Y-65470000D02*
X98521078Y-65470000D01*
X98003922Y-66890000D02*
X98521078Y-66890000D01*
X120111278Y-80210200D02*
X119594122Y-80210200D01*
X120111278Y-78790200D02*
X119594122Y-78790200D01*
X72441422Y-85710000D02*
X72958578Y-85710000D01*
X72441422Y-84290000D02*
X72958578Y-84290000D01*
X126270000Y-74061422D02*
X126270000Y-74578578D01*
X127690000Y-74061422D02*
X127690000Y-74578578D01*
X69878922Y-74415000D02*
X70396078Y-74415000D01*
X69878922Y-75835000D02*
X70396078Y-75835000D01*
X74919800Y-114794800D02*
X76249800Y-114794800D01*
X74919800Y-116124800D02*
X74919800Y-114794800D01*
X74919800Y-117394800D02*
X77579800Y-117394800D01*
X77579800Y-117394800D02*
X77579800Y-127614800D01*
X74919800Y-117394800D02*
X74919800Y-127614800D01*
X74919800Y-127614800D02*
X77579800Y-127614800D01*
X51625400Y-110849800D02*
X51625400Y-105099800D01*
X51625400Y-105099800D02*
X48025400Y-105099800D01*
X48025400Y-105099800D02*
X48025400Y-110849800D01*
D11*
X58896600Y-106806200D02*
X57871600Y-106806200D01*
X69246600Y-105806200D02*
X68171600Y-105806200D01*
X69246600Y-116156200D02*
X68171600Y-116156200D01*
X58896600Y-116156200D02*
X59971600Y-116156200D01*
X58896600Y-105806200D02*
X59971600Y-105806200D01*
X58896600Y-116156200D02*
X58896600Y-115081200D01*
X69246600Y-116156200D02*
X69246600Y-115081200D01*
X69246600Y-105806200D02*
X69246600Y-106881200D01*
X58896600Y-105806200D02*
X58896600Y-106806200D01*
D13*
X49778722Y-115709800D02*
X50295878Y-115709800D01*
X49778722Y-114289800D02*
X50295878Y-114289800D01*
X67312378Y-118274800D02*
X66795222Y-118274800D01*
X67312378Y-119694800D02*
X66795222Y-119694800D01*
X72750800Y-124314377D02*
X72750800Y-123797221D01*
X71330800Y-124314377D02*
X71330800Y-123797221D01*
X135939800Y-105846278D02*
X135939800Y-105329122D01*
X137359800Y-105846278D02*
X137359800Y-105329122D01*
X100999800Y-146481222D02*
X100999800Y-146998378D01*
X102419800Y-146481222D02*
X102419800Y-146998378D01*
X79137795Y-141528722D02*
X79137795Y-142045878D01*
X80557795Y-141528722D02*
X80557795Y-142045878D01*
X98899800Y-146503721D02*
X98899800Y-147020877D01*
X100319800Y-146503721D02*
X100319800Y-147020877D01*
X81439800Y-142378722D02*
X81439800Y-142895878D01*
X82859800Y-142378722D02*
X82859800Y-142895878D01*
X83714800Y-143203722D02*
X83714800Y-143720878D01*
X85134800Y-143203722D02*
X85134800Y-143720878D01*
X86039800Y-144403722D02*
X86039800Y-144920878D01*
X87459800Y-144403722D02*
X87459800Y-144920878D01*
X133739800Y-105858778D02*
X133739800Y-105341622D01*
X135159800Y-105858778D02*
X135159800Y-105341622D01*
X148459800Y-102591622D02*
X148459800Y-103108778D01*
X147039800Y-102591622D02*
X147039800Y-103108778D01*
X142889800Y-103108778D02*
X142889800Y-102591622D01*
X144309800Y-103108778D02*
X144309800Y-102591622D01*
X151558378Y-94510200D02*
X151041222Y-94510200D01*
X151558378Y-93090200D02*
X151041222Y-93090200D01*
X138139800Y-105808778D02*
X138139800Y-105291622D01*
X139559800Y-105808778D02*
X139559800Y-105291622D01*
X140339800Y-105758578D02*
X140339800Y-105241422D01*
X141759800Y-105758578D02*
X141759800Y-105241422D01*
D11*
X143874800Y-97500200D02*
X142624800Y-97500200D01*
X143874800Y-100675200D02*
X147224800Y-100675200D01*
X143874800Y-97325200D02*
X147224800Y-97325200D01*
X143874800Y-100675200D02*
X143874800Y-100425200D01*
X147224800Y-100675200D02*
X147224800Y-100425200D01*
X147224800Y-97325200D02*
X147224800Y-97575200D01*
X143874800Y-97325200D02*
X143874800Y-97500200D01*
D13*
X144989800Y-103108778D02*
X144989800Y-102591622D01*
X146409800Y-103108778D02*
X146409800Y-102591622D01*
X141859800Y-100691622D02*
X141859800Y-101208778D01*
X140439800Y-100691622D02*
X140439800Y-101208778D01*
X151041222Y-97390200D02*
X151558378Y-97390200D01*
X151041222Y-98810200D02*
X151558378Y-98810200D01*
X140439800Y-97546278D02*
X140439800Y-97029122D01*
X141859800Y-97546278D02*
X141859800Y-97029122D01*
X128990000Y-107121078D02*
X128990000Y-106603922D01*
X130410000Y-107121078D02*
X130410000Y-106603922D01*
X63964800Y-127828722D02*
X63964800Y-128345878D01*
X65384800Y-127828722D02*
X65384800Y-128345878D01*
X104559800Y-152114800D02*
X104559800Y-150964800D01*
X104559800Y-150964800D02*
X103509800Y-150964800D01*
X103509800Y-150964800D02*
X103509800Y-149974800D01*
X99339800Y-152114800D02*
X99339800Y-150964800D01*
X99339800Y-150964800D02*
X100389800Y-150964800D01*
X103389800Y-154084800D02*
X100509800Y-154084800D01*
X84895540Y-149601520D02*
X85326339Y-148535259D01*
X85326339Y-148535259D02*
X84352796Y-148141922D01*
X84352796Y-148141922D02*
X84723656Y-147224010D01*
X77274090Y-146522254D02*
X77704888Y-145455993D01*
X77704888Y-145455993D02*
X78678431Y-145849330D01*
X83072761Y-150989783D02*
X77620920Y-148787096D01*
X96090414Y-151852886D02*
X96290109Y-150720357D01*
X96290109Y-150720357D02*
X95256061Y-150538027D01*
X95256061Y-150538027D02*
X95427973Y-149563067D01*
X87995294Y-150425498D02*
X88194990Y-149292969D01*
X88194990Y-149292969D02*
X89229038Y-149475300D01*
X94596102Y-153589789D02*
X88805432Y-152568738D01*
X74568572Y-144989965D02*
X75228185Y-144047940D01*
X75228185Y-144047940D02*
X74368075Y-143445685D01*
X74368075Y-143445685D02*
X74935916Y-142634725D01*
X67835142Y-140275167D02*
X68494755Y-139333142D01*
X68494755Y-139333142D02*
X69354865Y-139935397D01*
X72480218Y-145932610D02*
X67663604Y-142559981D01*
X51609800Y-99620878D02*
X51609800Y-99103722D01*
X50189800Y-99620878D02*
X50189800Y-99103722D01*
X151041222Y-95190200D02*
X151558378Y-95190200D01*
X151041222Y-96610200D02*
X151558378Y-96610200D01*
X59696878Y-102337800D02*
X59179722Y-102337800D01*
X59696878Y-103757800D02*
X59179722Y-103757800D01*
X69504378Y-102317800D02*
X68987222Y-102317800D01*
X69504378Y-103737800D02*
X68987222Y-103737800D01*
X147651864Y-96610200D02*
X146447736Y-96610200D01*
X147651864Y-93890200D02*
X146447736Y-93890200D01*
X137049800Y-92050200D02*
X137049800Y-95350200D01*
X137049800Y-95350200D02*
X142449800Y-95350200D01*
X137049800Y-92050200D02*
X142449800Y-92050200D01*
X59665800Y-99273222D02*
X59665800Y-99790378D01*
X61085800Y-99273222D02*
X61085800Y-99790378D01*
X45989800Y-99103722D02*
X45989800Y-99620878D01*
X47409800Y-99103722D02*
X47409800Y-99620878D01*
X49509800Y-99103722D02*
X49509800Y-99620878D01*
X48089800Y-99103722D02*
X48089800Y-99620878D01*
X151990000Y-102341422D02*
X151990000Y-102858578D01*
X153410000Y-102341422D02*
X153410000Y-102858578D01*
X58799800Y-99273222D02*
X58799800Y-99790378D01*
X57379800Y-99273222D02*
X57379800Y-99790378D01*
X68071800Y-99154722D02*
X68071800Y-99671878D01*
X66651800Y-99154722D02*
X66651800Y-99671878D01*
X49778722Y-117909800D02*
X50295878Y-117909800D01*
X49778722Y-116489800D02*
X50295878Y-116489800D01*
X69063800Y-99154722D02*
X69063800Y-99671878D01*
X70483800Y-99154722D02*
X70483800Y-99671878D01*
X64114800Y-124377877D02*
X64114800Y-123860721D01*
X62694800Y-124377877D02*
X62694800Y-123860721D01*
X68432800Y-124314377D02*
X68432800Y-123797221D01*
X67012800Y-124314377D02*
X67012800Y-123797221D01*
X62205800Y-125804299D02*
X62205800Y-123119299D01*
X60285800Y-125804299D02*
X62205800Y-125804299D01*
X60285800Y-123119299D02*
X60285800Y-125804299D01*
X70841800Y-125702128D02*
X70841800Y-123017128D01*
X68921800Y-125702128D02*
X70841800Y-125702128D01*
X68921800Y-123017128D02*
X68921800Y-125702128D01*
X66523800Y-125740799D02*
X66523800Y-123055799D01*
X64603800Y-125740799D02*
X66523800Y-125740799D01*
X64603800Y-123055799D02*
X64603800Y-125740799D01*
X54340878Y-107772800D02*
X53823722Y-107772800D01*
X54340878Y-109192800D02*
X53823722Y-109192800D01*
X54340878Y-109931800D02*
X53823722Y-109931800D01*
X54340878Y-111351800D02*
X53823722Y-111351800D01*
X58660300Y-119630222D02*
X58660300Y-120147378D01*
X60080300Y-119630222D02*
X60080300Y-120147378D01*
X54340878Y-112090800D02*
X53823722Y-112090800D01*
X54340878Y-113510800D02*
X53823722Y-113510800D01*
X62787800Y-119615222D02*
X62787800Y-120132378D01*
X64207800Y-119615222D02*
X64207800Y-120132378D01*
X49786822Y-104409800D02*
X50303978Y-104409800D01*
X49786822Y-102989800D02*
X50303978Y-102989800D01*
X49786822Y-113232800D02*
X50303978Y-113232800D01*
X49786822Y-111812800D02*
X50303978Y-111812800D01*
X54331878Y-105478800D02*
X53814722Y-105478800D01*
X54331878Y-106898800D02*
X53814722Y-106898800D01*
X74168378Y-108909800D02*
X73651222Y-108909800D01*
X74168378Y-110329800D02*
X73651222Y-110329800D01*
X53814722Y-104739800D02*
X54331878Y-104739800D01*
X53814722Y-103319800D02*
X54331878Y-103319800D01*
X62175800Y-120147378D02*
X62175800Y-119630222D01*
X60755800Y-120147378D02*
X60755800Y-119630222D01*
X70980378Y-118274800D02*
X70463222Y-118274800D01*
X70980378Y-119694800D02*
X70463222Y-119694800D01*
X74198078Y-106590800D02*
X73680922Y-106590800D01*
X74198078Y-108010800D02*
X73680922Y-108010800D01*
X63857878Y-102337800D02*
X63340722Y-102337800D01*
X63857878Y-103757800D02*
X63340722Y-103757800D01*
X53887222Y-115669800D02*
X54404378Y-115669800D01*
X53887222Y-114249800D02*
X54404378Y-114249800D01*
D11*
X61570447Y-137242084D02*
X60232186Y-135755795D01*
X59855562Y-130106843D02*
X59502568Y-130424680D01*
X65409346Y-136274945D02*
X59855562Y-130106843D01*
X65056352Y-136592782D02*
X65409346Y-136274945D01*
X57477498Y-132248061D02*
X57830492Y-131930224D01*
X63031282Y-138416163D02*
X57477498Y-132248061D01*
X63384276Y-138098326D02*
X63031282Y-138416163D01*
D13*
X61664800Y-127878722D02*
X61664800Y-128395878D01*
X63084800Y-127878722D02*
X63084800Y-128395878D01*
D11*
X115657142Y-147368666D02*
X116133333Y-147368666D01*
X115561904Y-147654380D02*
X115895238Y-146654380D01*
X116228571Y-147654380D01*
X116561904Y-147654380D02*
X116561904Y-146654380D01*
X117133333Y-147654380D01*
X117133333Y-146654380D01*
X117466666Y-146654380D02*
X118038095Y-146654380D01*
X117752380Y-147654380D02*
X117752380Y-146654380D01*
M02*
