%TF.GenerationSoftware,KiCad,Pcbnew,5.1.9+dfsg1-1*%
%TF.CreationDate,2021-07-20T12:06:00+02:00*%
%TF.ProjectId,gesc,67657363-2e6b-4696-9361-645f70636258,6*%
%TF.SameCoordinates,Original*%
%TF.FileFunction,Soldermask,Bot*%
%TF.FilePolarity,Negative*%
%FSLAX46Y46*%
G04 Gerber Fmt 4.6, Leading zero omitted, Abs format (unit mm)*
G04 Created by KiCad (PCBNEW 5.1.9+dfsg1-1) date 2021-07-20 12:06:00*
%MOMM*%
%LPD*%
G01*
G04 APERTURE LIST*
%TA.AperFunction,Profile*%
%ADD10C,0.200000*%
%TD*%
%ADD11R,1.700000X1.700000*%
%ADD12O,1.700000X1.700000*%
%ADD13C,3.200000*%
%ADD14C,1.850000*%
%ADD15C,0.840000*%
%ADD16C,0.100000*%
%ADD17C,0.254000*%
G04 APERTURE END LIST*
D10*
X155499800Y-99999800D02*
G75*
G03*
X155499800Y-99999800I-55500000J0D01*
G01*
X124500000Y-100000000D02*
G75*
G03*
X124500000Y-100000000I-24500000J0D01*
G01*
D11*
X79950000Y-118660000D03*
D12*
X79950000Y-121200000D03*
X79950000Y-123740000D03*
D13*
X100000000Y-48500000D03*
D12*
X76249800Y-126284800D03*
X76249800Y-123744800D03*
X76249800Y-121204800D03*
X76249800Y-118664800D03*
D11*
X76249800Y-116124800D03*
D13*
X55399692Y-125750000D03*
X144600308Y-125750000D03*
D14*
X59051280Y-131604760D03*
X63835564Y-136918246D03*
D15*
X60410060Y-133442623D03*
X61588140Y-133256537D03*
X61279930Y-134408712D03*
X62458010Y-134222625D03*
D16*
G36*
X62742956Y-135405886D02*
G01*
X62118714Y-135967956D01*
X61556644Y-135343714D01*
X62180886Y-134781644D01*
X62742956Y-135405886D01*
G37*
D17*
X101489864Y-44519806D02*
X102978853Y-44579810D01*
X104465695Y-44679769D01*
X105949317Y-44819611D01*
X107428649Y-44999235D01*
X108902626Y-45218510D01*
X110370185Y-45477281D01*
X111830267Y-45775358D01*
X113281819Y-46112529D01*
X114723797Y-46488550D01*
X116155159Y-46903149D01*
X117574874Y-47356027D01*
X118981918Y-47846860D01*
X120375277Y-48375291D01*
X121753947Y-48940941D01*
X123116933Y-49543401D01*
X124463253Y-50182238D01*
X125791936Y-50856991D01*
X127102024Y-51567172D01*
X128392574Y-52312271D01*
X129662653Y-53091750D01*
X130911348Y-53905047D01*
X132137757Y-54751576D01*
X133340996Y-55630727D01*
X134520198Y-56541865D01*
X135674512Y-57484333D01*
X136803108Y-58457453D01*
X137905170Y-59460523D01*
X138979904Y-60492820D01*
X140026536Y-61553598D01*
X141044311Y-62642095D01*
X142032495Y-63757524D01*
X142990375Y-64899082D01*
X143917262Y-66065945D01*
X144812487Y-67257273D01*
X145675405Y-68472207D01*
X146505392Y-69709870D01*
X147301852Y-70969370D01*
X148064210Y-72249800D01*
X148791916Y-73550236D01*
X149484445Y-74869741D01*
X150141299Y-76207363D01*
X150762004Y-77562138D01*
X151346111Y-78933089D01*
X151893201Y-80319229D01*
X152402879Y-81719557D01*
X152874777Y-83133064D01*
X153308555Y-84558731D01*
X153703901Y-85995530D01*
X154060528Y-87442425D01*
X154378181Y-88898374D01*
X154656630Y-90362326D01*
X154895675Y-91833226D01*
X155095143Y-93310014D01*
X155254889Y-94791625D01*
X155374801Y-96276991D01*
X155454789Y-97765040D01*
X155494798Y-99254701D01*
X155494798Y-100744899D01*
X155454789Y-102234560D01*
X155374801Y-103722609D01*
X155254889Y-105207975D01*
X155095143Y-106689586D01*
X154895675Y-108166374D01*
X154656630Y-109637274D01*
X154378181Y-111101226D01*
X154060528Y-112557175D01*
X153703901Y-114004070D01*
X153308555Y-115440869D01*
X152874777Y-116866536D01*
X152402879Y-118280043D01*
X151893201Y-119680371D01*
X151346111Y-121066511D01*
X150762004Y-122437462D01*
X150141299Y-123792237D01*
X149484445Y-125129859D01*
X148791916Y-126449364D01*
X148064210Y-127749800D01*
X147301852Y-129030230D01*
X146505392Y-130289730D01*
X145675405Y-131527393D01*
X144812487Y-132742327D01*
X143917262Y-133933655D01*
X142990375Y-135100518D01*
X142032495Y-136242076D01*
X141044311Y-137357505D01*
X140026536Y-138446002D01*
X138979904Y-139506780D01*
X137905170Y-140539077D01*
X136803108Y-141542147D01*
X135674512Y-142515267D01*
X134520198Y-143457735D01*
X133340996Y-144368873D01*
X132137757Y-145248024D01*
X130911348Y-146094553D01*
X129662653Y-146907850D01*
X128392574Y-147687329D01*
X127102024Y-148432428D01*
X125791936Y-149142609D01*
X124463253Y-149817362D01*
X123116933Y-150456199D01*
X121753947Y-151058659D01*
X120375277Y-151624309D01*
X118981918Y-152152740D01*
X117574874Y-152643573D01*
X116155159Y-153096451D01*
X114723797Y-153511050D01*
X113281819Y-153887071D01*
X111830267Y-154224242D01*
X110370185Y-154522319D01*
X108902626Y-154781090D01*
X107428649Y-155000365D01*
X105949317Y-155179989D01*
X104465695Y-155319831D01*
X102978853Y-155419790D01*
X101489864Y-155479794D01*
X99999800Y-155499800D01*
X98509736Y-155479794D01*
X97020747Y-155419790D01*
X95533905Y-155319831D01*
X94050283Y-155179989D01*
X92570951Y-155000365D01*
X91096974Y-154781090D01*
X89629415Y-154522319D01*
X88169333Y-154224242D01*
X86717781Y-153887071D01*
X85275803Y-153511050D01*
X83844441Y-153096451D01*
X82424726Y-152643573D01*
X81017682Y-152152740D01*
X79624323Y-151624309D01*
X78245653Y-151058659D01*
X76882667Y-150456199D01*
X75536347Y-149817362D01*
X74207664Y-149142609D01*
X72897576Y-148432428D01*
X71607026Y-147687329D01*
X70336947Y-146907850D01*
X69088252Y-146094553D01*
X67861843Y-145248024D01*
X66658604Y-144368873D01*
X65479402Y-143457735D01*
X64325088Y-142515267D01*
X63196492Y-141542147D01*
X62094430Y-140539077D01*
X61019696Y-139506780D01*
X59973064Y-138446002D01*
X58955289Y-137357505D01*
X57967105Y-136242076D01*
X57009225Y-135100518D01*
X56082338Y-133933655D01*
X55187113Y-132742327D01*
X54324195Y-131527393D01*
X53494208Y-130289730D01*
X52697748Y-129030230D01*
X51935390Y-127749800D01*
X51207684Y-126449364D01*
X50515155Y-125129859D01*
X49858301Y-123792237D01*
X49237596Y-122437462D01*
X48653489Y-121066511D01*
X48106399Y-119680371D01*
X47596721Y-118280043D01*
X47124823Y-116866536D01*
X46691045Y-115440869D01*
X46295699Y-114004070D01*
X45939072Y-112557175D01*
X45621419Y-111101226D01*
X45342970Y-109637274D01*
X45103925Y-108166374D01*
X44904457Y-106689586D01*
X44744711Y-105207975D01*
X44624799Y-103722609D01*
X44544811Y-102234560D01*
X44504802Y-100744899D01*
X44504802Y-99503460D01*
X75505032Y-99503460D01*
X75505032Y-100496540D01*
X75545277Y-101488805D01*
X75625702Y-102478624D01*
X75746173Y-103464370D01*
X75906493Y-104444425D01*
X76106398Y-105417177D01*
X76345561Y-106381029D01*
X76623588Y-107334397D01*
X76940023Y-108275714D01*
X77294344Y-109203434D01*
X77685972Y-110116034D01*
X78114261Y-111012012D01*
X78578508Y-111889898D01*
X79077951Y-112748249D01*
X79611768Y-113585654D01*
X80179084Y-114400739D01*
X80778965Y-115192163D01*
X81410426Y-115958626D01*
X82072430Y-116698869D01*
X82763889Y-117411676D01*
X83483666Y-118095876D01*
X84230580Y-118750344D01*
X85003403Y-119374006D01*
X85800866Y-119965836D01*
X86621658Y-120524862D01*
X87464430Y-121050166D01*
X88327798Y-121540884D01*
X89210343Y-121996211D01*
X90110616Y-122415398D01*
X91027137Y-122797757D01*
X91958401Y-123142659D01*
X92902877Y-123449538D01*
X93859013Y-123717889D01*
X94825239Y-123947272D01*
X95799967Y-124137310D01*
X96781596Y-124287690D01*
X97768512Y-124398165D01*
X98759095Y-124468554D01*
X99751717Y-124498742D01*
X100744747Y-124488678D01*
X101736553Y-124438379D01*
X102725506Y-124347928D01*
X103709981Y-124217474D01*
X104688360Y-124047230D01*
X105659036Y-123837477D01*
X106620415Y-123588559D01*
X107570916Y-123300885D01*
X108508979Y-122974927D01*
X109433061Y-122611222D01*
X110341644Y-122210367D01*
X111233237Y-121773020D01*
X112106373Y-121299900D01*
X112959618Y-120791784D01*
X113791571Y-120249508D01*
X114600864Y-119673962D01*
X115386168Y-119066091D01*
X116146193Y-118426895D01*
X116879690Y-117757423D01*
X117585453Y-117058776D01*
X118262323Y-116332102D01*
X118909188Y-115578594D01*
X119524986Y-114799490D01*
X120108704Y-113996071D01*
X120659384Y-113169657D01*
X121176120Y-112321604D01*
X121658064Y-111453308D01*
X122104424Y-110566193D01*
X122514466Y-109661718D01*
X122887518Y-108741370D01*
X123222965Y-107806659D01*
X123520256Y-106859121D01*
X123778904Y-105900315D01*
X123998484Y-104931814D01*
X124178633Y-103955210D01*
X124319058Y-102972108D01*
X124419526Y-101984122D01*
X124479873Y-100992877D01*
X124500000Y-100000000D01*
X124479873Y-99007123D01*
X124419526Y-98015878D01*
X124319058Y-97027892D01*
X124178633Y-96044790D01*
X123998484Y-95068186D01*
X123778904Y-94099685D01*
X123520256Y-93140879D01*
X123222965Y-92193341D01*
X122887518Y-91258630D01*
X122514466Y-90338282D01*
X122104424Y-89433807D01*
X121658064Y-88546692D01*
X121176120Y-87678396D01*
X120659384Y-86830343D01*
X120108704Y-86003929D01*
X119524986Y-85200510D01*
X118909188Y-84421406D01*
X118262323Y-83667898D01*
X117585453Y-82941224D01*
X116879690Y-82242577D01*
X116146193Y-81573105D01*
X115386168Y-80933909D01*
X114600864Y-80326038D01*
X113791571Y-79750492D01*
X112959618Y-79208216D01*
X112106373Y-78700100D01*
X111233237Y-78226980D01*
X110341644Y-77789633D01*
X109433061Y-77388778D01*
X108508979Y-77025073D01*
X107570916Y-76699115D01*
X106620415Y-76411441D01*
X105659036Y-76162523D01*
X104688360Y-75952770D01*
X103709981Y-75782526D01*
X102725506Y-75652072D01*
X101736553Y-75561621D01*
X100744747Y-75511322D01*
X99751717Y-75501258D01*
X98759095Y-75531446D01*
X97768512Y-75601835D01*
X96781596Y-75712310D01*
X95799967Y-75862690D01*
X94825239Y-76052728D01*
X93859013Y-76282111D01*
X92902877Y-76550462D01*
X91958401Y-76857341D01*
X91027137Y-77202243D01*
X90110616Y-77584602D01*
X89210343Y-78003789D01*
X88327798Y-78459116D01*
X87464430Y-78949834D01*
X86621658Y-79475138D01*
X85800866Y-80034164D01*
X85003403Y-80625994D01*
X84230580Y-81249656D01*
X83483666Y-81904124D01*
X82763889Y-82588324D01*
X82072430Y-83301131D01*
X81410426Y-84041374D01*
X80778965Y-84807837D01*
X80179084Y-85599261D01*
X79611768Y-86414346D01*
X79077951Y-87251751D01*
X78578508Y-88110102D01*
X78114261Y-88987988D01*
X77685972Y-89883966D01*
X77294344Y-90796566D01*
X76940023Y-91724286D01*
X76623588Y-92665603D01*
X76345561Y-93618971D01*
X76106398Y-94582823D01*
X75906493Y-95555575D01*
X75746173Y-96535630D01*
X75625702Y-97521376D01*
X75545277Y-98511195D01*
X75505032Y-99503460D01*
X44504802Y-99503460D01*
X44504802Y-99254701D01*
X44544811Y-97765040D01*
X44624799Y-96276991D01*
X44744711Y-94791625D01*
X44904457Y-93310014D01*
X45103925Y-91833226D01*
X45342970Y-90362326D01*
X45621419Y-88898374D01*
X45939072Y-87442425D01*
X46295699Y-85995530D01*
X46691045Y-84558731D01*
X47124823Y-83133064D01*
X47596721Y-81719557D01*
X48106399Y-80319229D01*
X48653489Y-78933089D01*
X49237596Y-77562138D01*
X49858301Y-76207363D01*
X50515155Y-74869741D01*
X51207684Y-73550236D01*
X51935390Y-72249800D01*
X52697748Y-70969370D01*
X53494208Y-69709870D01*
X54324195Y-68472207D01*
X55187113Y-67257273D01*
X56082338Y-66065945D01*
X57009225Y-64899082D01*
X57967105Y-63757524D01*
X58955289Y-62642095D01*
X59973064Y-61553598D01*
X61019696Y-60492820D01*
X62094430Y-59460523D01*
X63196492Y-58457453D01*
X64325088Y-57484333D01*
X65479402Y-56541865D01*
X66658604Y-55630727D01*
X67861843Y-54751576D01*
X69088252Y-53905047D01*
X70336947Y-53091750D01*
X71607026Y-52312271D01*
X72897576Y-51567172D01*
X74207664Y-50856991D01*
X75536347Y-50182238D01*
X76882667Y-49543401D01*
X78245653Y-48940941D01*
X79624323Y-48375291D01*
X81017682Y-47846860D01*
X82424726Y-47356027D01*
X83844441Y-46903149D01*
X85275803Y-46488550D01*
X86717781Y-46112529D01*
X88169333Y-45775358D01*
X89629415Y-45477281D01*
X91096974Y-45218510D01*
X92570951Y-44999235D01*
X94050283Y-44819611D01*
X95533905Y-44679769D01*
X97020747Y-44579810D01*
X98509736Y-44519806D01*
X99999800Y-44499800D01*
X101489864Y-44519806D01*
D16*
G36*
X101489864Y-44519806D02*
G01*
X102978853Y-44579810D01*
X104465695Y-44679769D01*
X105949317Y-44819611D01*
X107428649Y-44999235D01*
X108902626Y-45218510D01*
X110370185Y-45477281D01*
X111830267Y-45775358D01*
X113281819Y-46112529D01*
X114723797Y-46488550D01*
X116155159Y-46903149D01*
X117574874Y-47356027D01*
X118981918Y-47846860D01*
X120375277Y-48375291D01*
X121753947Y-48940941D01*
X123116933Y-49543401D01*
X124463253Y-50182238D01*
X125791936Y-50856991D01*
X127102024Y-51567172D01*
X128392574Y-52312271D01*
X129662653Y-53091750D01*
X130911348Y-53905047D01*
X132137757Y-54751576D01*
X133340996Y-55630727D01*
X134520198Y-56541865D01*
X135674512Y-57484333D01*
X136803108Y-58457453D01*
X137905170Y-59460523D01*
X138979904Y-60492820D01*
X140026536Y-61553598D01*
X141044311Y-62642095D01*
X142032495Y-63757524D01*
X142990375Y-64899082D01*
X143917262Y-66065945D01*
X144812487Y-67257273D01*
X145675405Y-68472207D01*
X146505392Y-69709870D01*
X147301852Y-70969370D01*
X148064210Y-72249800D01*
X148791916Y-73550236D01*
X149484445Y-74869741D01*
X150141299Y-76207363D01*
X150762004Y-77562138D01*
X151346111Y-78933089D01*
X151893201Y-80319229D01*
X152402879Y-81719557D01*
X152874777Y-83133064D01*
X153308555Y-84558731D01*
X153703901Y-85995530D01*
X154060528Y-87442425D01*
X154378181Y-88898374D01*
X154656630Y-90362326D01*
X154895675Y-91833226D01*
X155095143Y-93310014D01*
X155254889Y-94791625D01*
X155374801Y-96276991D01*
X155454789Y-97765040D01*
X155494798Y-99254701D01*
X155494798Y-100744899D01*
X155454789Y-102234560D01*
X155374801Y-103722609D01*
X155254889Y-105207975D01*
X155095143Y-106689586D01*
X154895675Y-108166374D01*
X154656630Y-109637274D01*
X154378181Y-111101226D01*
X154060528Y-112557175D01*
X153703901Y-114004070D01*
X153308555Y-115440869D01*
X152874777Y-116866536D01*
X152402879Y-118280043D01*
X151893201Y-119680371D01*
X151346111Y-121066511D01*
X150762004Y-122437462D01*
X150141299Y-123792237D01*
X149484445Y-125129859D01*
X148791916Y-126449364D01*
X148064210Y-127749800D01*
X147301852Y-129030230D01*
X146505392Y-130289730D01*
X145675405Y-131527393D01*
X144812487Y-132742327D01*
X143917262Y-133933655D01*
X142990375Y-135100518D01*
X142032495Y-136242076D01*
X141044311Y-137357505D01*
X140026536Y-138446002D01*
X138979904Y-139506780D01*
X137905170Y-140539077D01*
X136803108Y-141542147D01*
X135674512Y-142515267D01*
X134520198Y-143457735D01*
X133340996Y-144368873D01*
X132137757Y-145248024D01*
X130911348Y-146094553D01*
X129662653Y-146907850D01*
X128392574Y-147687329D01*
X127102024Y-148432428D01*
X125791936Y-149142609D01*
X124463253Y-149817362D01*
X123116933Y-150456199D01*
X121753947Y-151058659D01*
X120375277Y-151624309D01*
X118981918Y-152152740D01*
X117574874Y-152643573D01*
X116155159Y-153096451D01*
X114723797Y-153511050D01*
X113281819Y-153887071D01*
X111830267Y-154224242D01*
X110370185Y-154522319D01*
X108902626Y-154781090D01*
X107428649Y-155000365D01*
X105949317Y-155179989D01*
X104465695Y-155319831D01*
X102978853Y-155419790D01*
X101489864Y-155479794D01*
X99999800Y-155499800D01*
X98509736Y-155479794D01*
X97020747Y-155419790D01*
X95533905Y-155319831D01*
X94050283Y-155179989D01*
X92570951Y-155000365D01*
X91096974Y-154781090D01*
X89629415Y-154522319D01*
X88169333Y-154224242D01*
X86717781Y-153887071D01*
X85275803Y-153511050D01*
X83844441Y-153096451D01*
X82424726Y-152643573D01*
X81017682Y-152152740D01*
X79624323Y-151624309D01*
X78245653Y-151058659D01*
X76882667Y-150456199D01*
X75536347Y-149817362D01*
X74207664Y-149142609D01*
X72897576Y-148432428D01*
X71607026Y-147687329D01*
X70336947Y-146907850D01*
X69088252Y-146094553D01*
X67861843Y-145248024D01*
X66658604Y-144368873D01*
X65479402Y-143457735D01*
X64325088Y-142515267D01*
X63196492Y-141542147D01*
X62094430Y-140539077D01*
X61019696Y-139506780D01*
X59973064Y-138446002D01*
X58955289Y-137357505D01*
X57967105Y-136242076D01*
X57009225Y-135100518D01*
X56082338Y-133933655D01*
X55187113Y-132742327D01*
X54324195Y-131527393D01*
X53494208Y-130289730D01*
X52697748Y-129030230D01*
X51935390Y-127749800D01*
X51207684Y-126449364D01*
X50515155Y-125129859D01*
X49858301Y-123792237D01*
X49237596Y-122437462D01*
X48653489Y-121066511D01*
X48106399Y-119680371D01*
X47596721Y-118280043D01*
X47124823Y-116866536D01*
X46691045Y-115440869D01*
X46295699Y-114004070D01*
X45939072Y-112557175D01*
X45621419Y-111101226D01*
X45342970Y-109637274D01*
X45103925Y-108166374D01*
X44904457Y-106689586D01*
X44744711Y-105207975D01*
X44624799Y-103722609D01*
X44544811Y-102234560D01*
X44504802Y-100744899D01*
X44504802Y-99503460D01*
X75505032Y-99503460D01*
X75505032Y-100496540D01*
X75545277Y-101488805D01*
X75625702Y-102478624D01*
X75746173Y-103464370D01*
X75906493Y-104444425D01*
X76106398Y-105417177D01*
X76345561Y-106381029D01*
X76623588Y-107334397D01*
X76940023Y-108275714D01*
X77294344Y-109203434D01*
X77685972Y-110116034D01*
X78114261Y-111012012D01*
X78578508Y-111889898D01*
X79077951Y-112748249D01*
X79611768Y-113585654D01*
X80179084Y-114400739D01*
X80778965Y-115192163D01*
X81410426Y-115958626D01*
X82072430Y-116698869D01*
X82763889Y-117411676D01*
X83483666Y-118095876D01*
X84230580Y-118750344D01*
X85003403Y-119374006D01*
X85800866Y-119965836D01*
X86621658Y-120524862D01*
X87464430Y-121050166D01*
X88327798Y-121540884D01*
X89210343Y-121996211D01*
X90110616Y-122415398D01*
X91027137Y-122797757D01*
X91958401Y-123142659D01*
X92902877Y-123449538D01*
X93859013Y-123717889D01*
X94825239Y-123947272D01*
X95799967Y-124137310D01*
X96781596Y-124287690D01*
X97768512Y-124398165D01*
X98759095Y-124468554D01*
X99751717Y-124498742D01*
X100744747Y-124488678D01*
X101736553Y-124438379D01*
X102725506Y-124347928D01*
X103709981Y-124217474D01*
X104688360Y-124047230D01*
X105659036Y-123837477D01*
X106620415Y-123588559D01*
X107570916Y-123300885D01*
X108508979Y-122974927D01*
X109433061Y-122611222D01*
X110341644Y-122210367D01*
X111233237Y-121773020D01*
X112106373Y-121299900D01*
X112959618Y-120791784D01*
X113791571Y-120249508D01*
X114600864Y-119673962D01*
X115386168Y-119066091D01*
X116146193Y-118426895D01*
X116879690Y-117757423D01*
X117585453Y-117058776D01*
X118262323Y-116332102D01*
X118909188Y-115578594D01*
X119524986Y-114799490D01*
X120108704Y-113996071D01*
X120659384Y-113169657D01*
X121176120Y-112321604D01*
X121658064Y-111453308D01*
X122104424Y-110566193D01*
X122514466Y-109661718D01*
X122887518Y-108741370D01*
X123222965Y-107806659D01*
X123520256Y-106859121D01*
X123778904Y-105900315D01*
X123998484Y-104931814D01*
X124178633Y-103955210D01*
X124319058Y-102972108D01*
X124419526Y-101984122D01*
X124479873Y-100992877D01*
X124500000Y-100000000D01*
X124479873Y-99007123D01*
X124419526Y-98015878D01*
X124319058Y-97027892D01*
X124178633Y-96044790D01*
X123998484Y-95068186D01*
X123778904Y-94099685D01*
X123520256Y-93140879D01*
X123222965Y-92193341D01*
X122887518Y-91258630D01*
X122514466Y-90338282D01*
X122104424Y-89433807D01*
X121658064Y-88546692D01*
X121176120Y-87678396D01*
X120659384Y-86830343D01*
X120108704Y-86003929D01*
X119524986Y-85200510D01*
X118909188Y-84421406D01*
X118262323Y-83667898D01*
X117585453Y-82941224D01*
X116879690Y-82242577D01*
X116146193Y-81573105D01*
X115386168Y-80933909D01*
X114600864Y-80326038D01*
X113791571Y-79750492D01*
X112959618Y-79208216D01*
X112106373Y-78700100D01*
X111233237Y-78226980D01*
X110341644Y-77789633D01*
X109433061Y-77388778D01*
X108508979Y-77025073D01*
X107570916Y-76699115D01*
X106620415Y-76411441D01*
X105659036Y-76162523D01*
X104688360Y-75952770D01*
X103709981Y-75782526D01*
X102725506Y-75652072D01*
X101736553Y-75561621D01*
X100744747Y-75511322D01*
X99751717Y-75501258D01*
X98759095Y-75531446D01*
X97768512Y-75601835D01*
X96781596Y-75712310D01*
X95799967Y-75862690D01*
X94825239Y-76052728D01*
X93859013Y-76282111D01*
X92902877Y-76550462D01*
X91958401Y-76857341D01*
X91027137Y-77202243D01*
X90110616Y-77584602D01*
X89210343Y-78003789D01*
X88327798Y-78459116D01*
X87464430Y-78949834D01*
X86621658Y-79475138D01*
X85800866Y-80034164D01*
X85003403Y-80625994D01*
X84230580Y-81249656D01*
X83483666Y-81904124D01*
X82763889Y-82588324D01*
X82072430Y-83301131D01*
X81410426Y-84041374D01*
X80778965Y-84807837D01*
X80179084Y-85599261D01*
X79611768Y-86414346D01*
X79077951Y-87251751D01*
X78578508Y-88110102D01*
X78114261Y-88987988D01*
X77685972Y-89883966D01*
X77294344Y-90796566D01*
X76940023Y-91724286D01*
X76623588Y-92665603D01*
X76345561Y-93618971D01*
X76106398Y-94582823D01*
X75906493Y-95555575D01*
X75746173Y-96535630D01*
X75625702Y-97521376D01*
X75545277Y-98511195D01*
X75505032Y-99503460D01*
X44504802Y-99503460D01*
X44504802Y-99254701D01*
X44544811Y-97765040D01*
X44624799Y-96276991D01*
X44744711Y-94791625D01*
X44904457Y-93310014D01*
X45103925Y-91833226D01*
X45342970Y-90362326D01*
X45621419Y-88898374D01*
X45939072Y-87442425D01*
X46295699Y-85995530D01*
X46691045Y-84558731D01*
X47124823Y-83133064D01*
X47596721Y-81719557D01*
X48106399Y-80319229D01*
X48653489Y-78933089D01*
X49237596Y-77562138D01*
X49858301Y-76207363D01*
X50515155Y-74869741D01*
X51207684Y-73550236D01*
X51935390Y-72249800D01*
X52697748Y-70969370D01*
X53494208Y-69709870D01*
X54324195Y-68472207D01*
X55187113Y-67257273D01*
X56082338Y-66065945D01*
X57009225Y-64899082D01*
X57967105Y-63757524D01*
X58955289Y-62642095D01*
X59973064Y-61553598D01*
X61019696Y-60492820D01*
X62094430Y-59460523D01*
X63196492Y-58457453D01*
X64325088Y-57484333D01*
X65479402Y-56541865D01*
X66658604Y-55630727D01*
X67861843Y-54751576D01*
X69088252Y-53905047D01*
X70336947Y-53091750D01*
X71607026Y-52312271D01*
X72897576Y-51567172D01*
X74207664Y-50856991D01*
X75536347Y-50182238D01*
X76882667Y-49543401D01*
X78245653Y-48940941D01*
X79624323Y-48375291D01*
X81017682Y-47846860D01*
X82424726Y-47356027D01*
X83844441Y-46903149D01*
X85275803Y-46488550D01*
X86717781Y-46112529D01*
X88169333Y-45775358D01*
X89629415Y-45477281D01*
X91096974Y-45218510D01*
X92570951Y-44999235D01*
X94050283Y-44819611D01*
X95533905Y-44679769D01*
X97020747Y-44579810D01*
X98509736Y-44519806D01*
X99999800Y-44499800D01*
X101489864Y-44519806D01*
G37*
M02*
