M48
; DRILL file {KiCad 5.1.9+dfsg1-1} date Sun Aug 29 13:30:50 2021
; FORMAT={-:-/ absolute / inch / decimal}
; #@! TF.CreationDate,2021-08-29T13:30:50+02:00
; #@! TF.GenerationSoftware,Kicad,Pcbnew,5.1.9+dfsg1-1
; #@! TF.FileFunction,Plated,1,4,PTH
FMAT,2
INCH
T1C0.0079
T2C0.0173
T3C0.0394
T4C0.0531
%
G90
G05
T1
X1.8583Y-3.6693
X1.8937Y-3.3819
X1.8937Y-4.5276
X1.9213Y-4.0
X1.9252Y-3.8346
X1.9705Y-4.4795
X2.0Y-3.7023
X2.0039Y-4.2441
X2.0039Y-4.2716
X2.0183Y-3.6223
X2.1181Y-2.9705
X2.1181Y-3.002
X2.1181Y-3.0335
X2.1181Y-3.065
X2.1181Y-3.0964
X2.1181Y-3.1279
X2.121Y-3.873
X2.1283Y-4.0984
X2.1496Y-2.9705
X2.1496Y-3.002
X2.1496Y-3.0335
X2.1496Y-3.065
X2.1496Y-3.0964
X2.1496Y-3.1279
X2.1547Y-3.5247
X2.1614Y-3.9173
X2.1653Y-4.5831
X2.1722Y-3.4961
X2.1811Y-2.9705
X2.1811Y-3.002
X2.1811Y-3.0335
X2.1811Y-3.065
X2.1811Y-3.0964
X2.1811Y-3.1279
X2.1968Y-3.622
X2.2Y-4.4398
X2.2008Y-4.2728
X2.2008Y-4.3563
X2.2126Y-2.9705
X2.2126Y-3.002
X2.2126Y-3.0335
X2.2126Y-3.065
X2.2126Y-3.0964
X2.2126Y-3.1279
X2.2441Y-2.9705
X2.2441Y-3.002
X2.2441Y-3.0335
X2.2441Y-3.065
X2.2441Y-3.0964
X2.2441Y-3.1279
X2.2441Y-2.815
X2.2535Y-4.5008
X2.2559Y-4.2941
X2.2559Y-4.3197
X2.2756Y-2.9705
X2.2756Y-3.002
X2.2756Y-3.0335
X2.2756Y-3.065
X2.2756Y-3.0964
X2.2756Y-3.1279
X2.2874Y-3.8425
X2.3333Y-4.2805
X2.3378Y-4.3629
X2.3386Y-4.0551
X2.3393Y-4.6358
X2.3413Y-4.4795
X2.3464Y-4.5073
X2.3535Y-4.8512
X2.3701Y-4.2579
X2.3763Y-4.2331
X2.3819Y-2.815
X2.3957Y-3.7301
X2.4055Y-3.6339
X2.4123Y-4.1972
X2.4124Y-4.3996
X2.4163Y-4.7197
X2.4272Y-2.5177
X2.4272Y-2.5441
X2.4272Y-2.5705
X2.4272Y-2.5969
X2.4272Y-2.6232
X2.4272Y-2.6496
X2.4272Y-2.676
X2.4331Y-3.8701
X2.4397Y-4.1939
X2.4409Y-4.6339
X2.4535Y-2.5177
X2.4535Y-2.5441
X2.4535Y-2.5705
X2.4535Y-2.5969
X2.4535Y-2.6232
X2.4535Y-2.6496
X2.4535Y-2.676
X2.4567Y-4.5551
X2.46Y-3.0624
X2.4646Y-3.2874
X2.4685Y-4.6339
X2.4724Y-4.1102
X2.4799Y-2.5177
X2.4799Y-2.5441
X2.4799Y-2.5705
X2.4799Y-2.5969
X2.4799Y-2.6232
X2.4799Y-2.6496
X2.4799Y-2.676
X2.4839Y-4.9653
X2.4902Y-2.9567
X2.4902Y-2.9831
X2.4902Y-3.0094
X2.4902Y-3.0358
X2.4902Y-3.0622
X2.4902Y-3.0886
X2.4902Y-3.115
X2.4921Y-4.1811
X2.5039Y-4.0551
X2.5039Y-4.2697
X2.5039Y-4.2953
X2.5063Y-2.5177
X2.5063Y-2.5441
X2.5063Y-2.5705
X2.5063Y-2.5969
X2.5063Y-2.6232
X2.5063Y-2.6496
X2.5063Y-2.676
X2.5146Y-4.9669
X2.5157Y-2.437
X2.5165Y-2.9567
X2.5165Y-2.9831
X2.5165Y-3.0094
X2.5165Y-3.0358
X2.5165Y-3.0622
X2.5165Y-3.0886
X2.5165Y-3.115
X2.5197Y-4.1929
X2.5252Y-4.648
X2.5276Y-3.2008
X2.5276Y-4.1063
X2.5327Y-2.5177
X2.5327Y-2.5441
X2.5327Y-2.5705
X2.5327Y-2.5969
X2.5327Y-2.6232
X2.5327Y-2.6496
X2.5327Y-2.676
X2.5382Y-4.7185
X2.5413Y-3.2894
X2.5429Y-2.9567
X2.5429Y-2.9831
X2.5429Y-3.0094
X2.5429Y-3.0358
X2.5429Y-3.0622
X2.5429Y-3.0886
X2.5429Y-3.115
X2.5492Y-3.5197
X2.5512Y-4.185
X2.5591Y-2.5177
X2.5591Y-2.5441
X2.5591Y-2.5705
X2.5591Y-2.5969
X2.5591Y-2.6232
X2.5591Y-2.6496
X2.5591Y-2.676
X2.5627Y-5.1538
X2.564Y-4.0978
X2.565Y-5.1279
X2.5693Y-2.9567
X2.5693Y-2.9831
X2.5693Y-3.0094
X2.5693Y-3.0358
X2.5693Y-3.0622
X2.5693Y-3.0886
X2.5693Y-3.115
X2.5748Y-3.6378
X2.5748Y-3.4941
X2.5837Y-3.8746
X2.5837Y-4.0541
X2.5866Y-4.5073
X2.5957Y-2.9567
X2.5957Y-2.9831
X2.5957Y-3.0094
X2.5957Y-3.0358
X2.5957Y-3.0622
X2.5957Y-3.0886
X2.5957Y-3.115
X2.6034Y-4.5578
X2.6102Y-4.1988
X2.6123Y-4.6357
X2.6181Y-4.9921
X2.622Y-2.9567
X2.622Y-2.9831
X2.622Y-3.0094
X2.622Y-3.0358
X2.622Y-3.0622
X2.622Y-3.0886
X2.622Y-3.115
X2.6272Y-4.544
X2.6331Y-4.1874
X2.6417Y-5.185
X2.6496Y-5.0984
X2.6535Y-3.8386
X2.6575Y-5.0151
X2.6732Y-2.622
X2.6772Y-4.3425
X2.6772Y-5.063
X2.6791Y-3.4016
X2.6894Y-4.4453
X2.69Y-4.1535
X2.6969Y-3.248
X2.6978Y-4.252
X2.7008Y-5.0512
X2.703Y-4.3129
X2.7087Y-4.3937
X2.7096Y-5.2126
X2.7105Y-4.4945
X2.7149Y-4.4432
X2.7165Y-2.5669
X2.7165Y-2.5984
X2.7165Y-2.6299
X2.7165Y-2.6654
X2.7165Y-2.6969
X2.7195Y-3.627
X2.7205Y-4.7342
X2.7217Y-4.4186
X2.748Y-2.5669
X2.748Y-2.5984
X2.748Y-2.6299
X2.748Y-2.6654
X2.748Y-2.6969
X2.7677Y-3.9134
X2.7724Y-3.1228
X2.7756Y-3.1929
X2.7807Y-5.437
X2.7859Y-4.4141
X2.7874Y-2.6654
X2.7874Y-2.6969
X2.7884Y-4.3573
X2.7904Y-3.3455
X2.7953Y-5.2205
X2.8047Y-5.4677
X2.8061Y-3.7126
X2.8071Y-4.5157
X2.8078Y-4.4579
X2.8228Y-2.6654
X2.8228Y-2.6969
X2.8228Y-3.1102
X2.8287Y-4.3169
X2.8366Y-5.5027
X2.8504Y-4.1063
X2.8711Y-3.5984
X2.873Y-4.1663
X2.874Y-2.9843
X2.8779Y-3.9173
X2.8779Y-5.2244
X2.8779Y-3.874
X2.8941Y-5.5098
X2.9026Y-4.3779
X2.9035Y-3.2461
X2.9043Y-4.2693
X2.9114Y-4.2106
X2.9409Y-5.6468
X2.9508Y-4.1398
X2.9551Y-3.5207
X2.9685Y-5.2126
X2.9724Y-5.1181
X2.9862Y-3.4961
X3.0453Y-4.4872
X3.0512Y-3.0315
X3.0512Y-3.063
X3.0512Y-3.0945
X3.0512Y-3.1299
X3.0512Y-3.1614
X3.0705Y-4.4761
X3.0827Y-3.0315
X3.0827Y-3.063
X3.0827Y-3.0945
X3.0827Y-3.1299
X3.0827Y-3.1614
X3.0862Y-4.5122
X3.0905Y-4.5394
X3.1437Y-5.5039
X3.1657Y-5.6772
X3.2146Y-2.1457
X3.2146Y-2.1772
X3.2146Y-2.2087
X3.2146Y-2.2401
X3.2146Y-2.2716
X3.2146Y-2.3031
X3.2228Y-5.7039
X3.2244Y-3.0315
X3.2244Y-3.063
X3.2244Y-3.0945
X3.2244Y-3.1299
X3.2415Y-5.6089
X3.2461Y-2.1457
X3.2461Y-2.1772
X3.2461Y-2.2087
X3.2461Y-2.2401
X3.2461Y-2.2716
X3.2461Y-2.3031
X3.2559Y-3.0315
X3.2559Y-3.063
X3.2559Y-3.0945
X3.2559Y-3.1299
X3.2776Y-2.1457
X3.2776Y-2.1772
X3.2776Y-2.2087
X3.2776Y-2.2401
X3.2776Y-2.2716
X3.2776Y-2.3031
X3.2842Y-5.689
X3.3031Y-5.4882
X3.309Y-2.1457
X3.309Y-2.1772
X3.309Y-2.2087
X3.309Y-2.2401
X3.309Y-2.2716
X3.309Y-2.3031
X3.311Y-5.2717
X3.3238Y-5.5659
X3.3346Y-2.4587
X3.3405Y-2.1457
X3.3405Y-2.1772
X3.3405Y-2.2087
X3.3405Y-2.2401
X3.3405Y-2.2716
X3.3405Y-2.3031
X3.3464Y-5.8169
X3.3701Y-5.7323
X3.372Y-2.1457
X3.372Y-2.1772
X3.372Y-2.2087
X3.372Y-2.2401
X3.372Y-2.2716
X3.372Y-2.3031
X3.4152Y-5.6241
X3.4764Y-5.3031
X3.4783Y-2.4587
X3.4941Y-1.8543
X3.4941Y-1.8858
X3.4941Y-1.9173
X3.4941Y-1.9488
X3.4941Y-1.9803
X3.4941Y-2.0118
X3.4941Y-2.0433
X3.4941Y-2.0748
X3.4961Y-5.2677
X3.5079Y-2.1516
X3.5079Y-2.178
X3.5079Y-2.2043
X3.5079Y-2.2307
X3.5079Y-2.2571
X3.5079Y-2.2835
X3.5079Y-2.3098
X3.5256Y-1.8543
X3.5256Y-1.8858
X3.5256Y-1.9173
X3.5256Y-1.9488
X3.5256Y-1.9803
X3.5256Y-2.0118
X3.5256Y-2.0433
X3.5256Y-2.0748
X3.5343Y-2.1516
X3.5343Y-2.178
X3.5343Y-2.2043
X3.5343Y-2.2307
X3.5343Y-2.2571
X3.5343Y-2.2835
X3.5343Y-2.3098
X3.5413Y-5.8327
X3.5547Y-2.7004
X3.5571Y-1.8543
X3.5571Y-1.8858
X3.5571Y-1.9173
X3.5571Y-1.9488
X3.5571Y-1.9803
X3.5571Y-2.0118
X3.5571Y-2.0433
X3.5571Y-2.0748
X3.5606Y-2.1516
X3.5606Y-2.178
X3.5606Y-2.2043
X3.5606Y-2.2307
X3.5606Y-2.2571
X3.5606Y-2.2835
X3.5606Y-2.3098
X3.5827Y-5.8366
X3.5866Y-2.5945
X3.5866Y-2.6209
X3.5866Y-2.6472
X3.5866Y-2.6736
X3.5866Y-2.7
X3.5866Y-2.7264
X3.5866Y-2.7528
X3.587Y-2.1516
X3.587Y-2.178
X3.587Y-2.2043
X3.587Y-2.2307
X3.587Y-2.2571
X3.587Y-2.2835
X3.587Y-2.3098
X3.5886Y-1.8543
X3.5886Y-1.8858
X3.5886Y-1.9173
X3.5886Y-1.9488
X3.5886Y-1.9803
X3.5886Y-2.0118
X3.5886Y-2.0433
X3.5886Y-2.0748
X3.613Y-2.5945
X3.613Y-2.6209
X3.613Y-2.6472
X3.613Y-2.6736
X3.613Y-2.7
X3.613Y-2.7264
X3.613Y-2.7528
X3.6134Y-2.1516
X3.6134Y-2.178
X3.6134Y-2.2043
X3.6134Y-2.2307
X3.6134Y-2.2571
X3.6134Y-2.2835
X3.6134Y-2.3098
X3.6201Y-1.8543
X3.6201Y-1.8858
X3.6201Y-1.9173
X3.6201Y-1.9488
X3.6201Y-1.9803
X3.6201Y-2.0118
X3.6201Y-2.0433
X3.6201Y-2.0748
X3.6201Y-5.8386
X3.626Y-2.8425
X3.6394Y-2.5945
X3.6394Y-2.6209
X3.6394Y-2.6472
X3.6394Y-2.6736
X3.6394Y-2.7
X3.6394Y-2.7264
X3.6394Y-2.7528
X3.6398Y-2.1516
X3.6398Y-2.178
X3.6398Y-2.2043
X3.6398Y-2.2307
X3.6398Y-2.2571
X3.6398Y-2.2835
X3.6398Y-2.3098
X3.6516Y-1.8543
X3.6516Y-1.8858
X3.6516Y-1.9173
X3.6516Y-1.9488
X3.6516Y-1.9803
X3.6516Y-2.0118
X3.6516Y-2.0433
X3.6516Y-2.0748
X3.6575Y-5.8484
X3.6654Y-5.187
X3.6657Y-2.5945
X3.6657Y-2.6209
X3.6657Y-2.6472
X3.6657Y-2.6736
X3.6657Y-2.7
X3.6657Y-2.7264
X3.6657Y-2.7528
X3.6831Y-1.8543
X3.6831Y-1.8858
X3.6831Y-1.9173
X3.6831Y-1.9488
X3.6831Y-1.9803
X3.6831Y-2.0118
X3.6831Y-2.0433
X3.6831Y-2.0748
X3.685Y-5.5748
X3.6921Y-2.5945
X3.6921Y-2.6209
X3.6921Y-2.6472
X3.6921Y-2.6736
X3.6921Y-2.7
X3.6921Y-2.7264
X3.6921Y-2.7528
X3.6929Y-5.187
X3.7146Y-1.8543
X3.7146Y-1.8858
X3.7146Y-1.9173
X3.7146Y-1.9488
X3.7146Y-1.9803
X3.7146Y-2.0118
X3.7146Y-2.0433
X3.7146Y-2.0748
X3.7185Y-2.5945
X3.7185Y-2.6209
X3.7185Y-2.6472
X3.7185Y-2.6736
X3.7185Y-2.7
X3.7185Y-2.7264
X3.7185Y-2.7528
X3.7657Y-2.2087
X3.7657Y-2.2401
X3.7657Y-2.2716
X3.7657Y-2.3031
X3.7657Y-2.3346
X3.7772Y-5.9197
X3.7913Y-2.9134
X3.7972Y-2.2087
X3.7972Y-2.2401
X3.7972Y-2.2716
X3.7972Y-2.3031
X3.7972Y-2.3346
X3.8287Y-2.3031
X3.8287Y-2.3346
X3.8583Y-5.7441
X3.8602Y-2.3031
X3.8602Y-2.3346
X3.878Y-2.8425
X3.8819Y-2.7756
X3.8917Y-2.3031
X3.8917Y-2.3346
X3.9075Y-2.1654
X3.9232Y-2.3031
X3.9232Y-2.3346
X3.9311Y-2.7677
X3.9805Y-2.8407
X4.0079Y-2.7106
X4.0142Y-6.0
X4.0634Y-2.6728
X4.122Y-2.8543
X4.1974Y-1.8673
X4.1974Y-1.8988
X4.1974Y-1.9303
X4.1974Y-1.9618
X4.1974Y-1.9933
X4.1974Y-2.0248
X4.1974Y-2.0563
X4.1974Y-2.0878
X4.2289Y-1.8673
X4.2289Y-1.8988
X4.2289Y-1.9303
X4.2289Y-1.9618
X4.2289Y-1.9933
X4.2289Y-2.0248
X4.2289Y-2.0563
X4.2289Y-2.0878
X4.2323Y-5.5315
X4.2362Y-5.2205
X4.2604Y-1.8673
X4.2604Y-1.8988
X4.2604Y-1.9303
X4.2604Y-1.9618
X4.2604Y-1.9933
X4.2604Y-2.0248
X4.2604Y-2.0563
X4.2604Y-2.0878
X4.2919Y-1.8673
X4.2919Y-1.8988
X4.2919Y-1.9303
X4.2919Y-1.9618
X4.2919Y-1.9933
X4.2919Y-2.0248
X4.2919Y-2.0563
X4.2919Y-2.0878
X4.3234Y-1.8673
X4.3234Y-1.8988
X4.3234Y-1.9303
X4.3234Y-1.9618
X4.3234Y-1.9933
X4.3234Y-2.0248
X4.3234Y-2.0563
X4.3234Y-2.0878
X4.3549Y-1.8673
X4.3549Y-1.8988
X4.3549Y-1.9303
X4.3549Y-1.9618
X4.3549Y-1.9933
X4.3549Y-2.0248
X4.3549Y-2.0563
X4.3549Y-2.0878
X4.3583Y-5.3031
X4.36Y-5.4553
X4.3701Y-5.374
X4.3864Y-1.8673
X4.3864Y-1.8988
X4.3864Y-1.9303
X4.3864Y-1.9618
X4.3864Y-1.9933
X4.3864Y-2.0248
X4.3864Y-2.0563
X4.3864Y-2.0878
X4.4179Y-1.8673
X4.4179Y-1.8988
X4.4179Y-1.9303
X4.4179Y-1.9618
X4.4179Y-1.9933
X4.4179Y-2.0248
X4.4179Y-2.0563
X4.4179Y-2.0878
X4.4744Y-2.685
X4.4744Y-2.7165
X4.4744Y-2.8583
X4.4744Y-2.8898
X4.5059Y-2.685
X4.5059Y-2.7165
X4.5059Y-2.8583
X4.5059Y-2.8898
X4.5374Y-2.685
X4.5374Y-2.7165
X4.5374Y-2.8583
X4.5374Y-2.8898
X4.5728Y-2.685
X4.5728Y-2.7165
X4.5728Y-2.8583
X4.5728Y-2.8898
X4.6043Y-2.685
X4.6043Y-2.7165
X4.6043Y-2.8583
X4.6043Y-2.8898
X4.6378Y-2.9449
X4.6457Y-2.8898
X4.7488Y-2.6606
X4.7677Y-3.0413
X4.813Y-2.2027
X4.813Y-2.2342
X4.813Y-2.2657
X4.813Y-2.2972
X4.813Y-2.3287
X4.813Y-2.3602
X4.815Y-5.2992
X4.8268Y-3.2047
X4.8346Y-2.9409
X4.8372Y-2.9907
X4.8386Y-2.6043
X4.8386Y-2.6307
X4.8386Y-2.6571
X4.8386Y-2.6835
X4.8386Y-2.7098
X4.8386Y-2.7362
X4.8445Y-2.2027
X4.8445Y-2.2342
X4.8445Y-2.2657
X4.8445Y-2.2972
X4.8445Y-2.3287
X4.8445Y-2.3602
X4.865Y-2.6043
X4.865Y-2.6307
X4.865Y-2.6571
X4.865Y-2.6835
X4.865Y-2.7098
X4.865Y-2.7362
X4.876Y-2.2027
X4.876Y-2.2342
X4.876Y-2.2657
X4.876Y-2.2972
X4.876Y-2.3287
X4.876Y-2.3602
X4.8911Y-2.5734
X4.8913Y-2.6043
X4.8913Y-2.6307
X4.8913Y-2.6571
X4.8913Y-2.6835
X4.8913Y-2.7098
X4.8913Y-2.7362
X4.9075Y-2.2027
X4.9075Y-2.2342
X4.9075Y-2.2657
X4.9075Y-2.2972
X4.9075Y-2.3287
X4.9075Y-2.3602
X4.9177Y-2.6043
X4.9177Y-2.6307
X4.9177Y-2.6571
X4.9177Y-2.6835
X4.9177Y-2.7098
X4.9177Y-2.7362
X4.9291Y-4.5531
X4.939Y-2.2027
X4.939Y-2.2342
X4.939Y-2.2657
X4.939Y-2.2972
X4.939Y-2.3287
X4.939Y-2.3602
X4.9441Y-2.6043
X4.9441Y-2.6307
X4.9441Y-2.6571
X4.9441Y-2.6835
X4.9441Y-2.7098
X4.9441Y-2.7362
X4.9488Y-3.1299
X4.9567Y-3.0413
X4.9646Y-5.378
X4.9705Y-2.2027
X4.9705Y-2.2342
X4.9705Y-2.2657
X4.9705Y-2.2972
X4.9705Y-2.3287
X4.9705Y-2.3602
X4.9705Y-2.6043
X4.9705Y-2.6307
X4.9705Y-2.6571
X4.9705Y-2.6835
X4.9705Y-2.7098
X4.9705Y-2.7362
X4.9803Y-3.4941
X4.9803Y-3.5256
X4.9803Y-3.561
X4.9803Y-3.5925
X4.9803Y-3.624
X4.9969Y-2.6043
X4.9969Y-2.6307
X4.9969Y-2.6571
X4.9969Y-2.6835
X4.9969Y-2.7098
X4.9969Y-2.7362
X5.0118Y-3.4941
X5.0118Y-3.5256
X5.0118Y-3.561
X5.0118Y-3.5925
X5.0118Y-3.624
X5.0807Y-4.7599
X5.0807Y-4.7854
X5.1063Y-4.122
X5.1122Y-4.7599
X5.1122Y-4.7854
X5.124Y-2.3642
X5.126Y-2.4921
X5.1457Y-4.7599
X5.1457Y-4.7854
X5.1535Y-3.4941
X5.1535Y-3.5256
X5.1535Y-3.561
X5.1535Y-3.5925
X5.1535Y-3.624
X5.1772Y-4.7599
X5.1772Y-4.7854
X5.185Y-3.4941
X5.185Y-3.5256
X5.185Y-3.561
X5.185Y-3.5925
X5.185Y-3.624
X5.1929Y-4.126
X5.2087Y-4.7599
X5.2087Y-4.7854
X5.2539Y-2.8189
X5.2539Y-2.8504
X5.2539Y-2.8819
X5.2539Y-2.9134
X5.2539Y-2.9449
X5.2539Y-2.9764
X5.2539Y-3.0748
X5.2539Y-3.1063
X5.2539Y-3.1417
X5.2638Y-4.2441
X5.2697Y-2.5669
X5.2697Y-2.5933
X5.2697Y-2.6197
X5.2697Y-2.6461
X5.2697Y-2.6724
X5.2697Y-2.6988
X5.2854Y-2.8189
X5.2854Y-2.8504
X5.2854Y-2.8819
X5.2854Y-2.9134
X5.2854Y-2.9449
X5.2854Y-2.9764
X5.2854Y-3.0748
X5.2854Y-3.1063
X5.2854Y-3.1417
X5.2961Y-2.5669
X5.2961Y-2.5933
X5.2961Y-2.6197
X5.2961Y-2.6461
X5.2961Y-2.6724
X5.2961Y-2.6988
X5.2972Y-4.3642
X5.3169Y-2.8189
X5.3169Y-2.8504
X5.3224Y-2.5669
X5.3224Y-2.5933
X5.3224Y-2.6197
X5.3224Y-2.6461
X5.3224Y-2.6724
X5.3224Y-2.6988
X5.3484Y-2.8189
X5.3484Y-2.8504
X5.3488Y-2.5669
X5.3488Y-2.5933
X5.3488Y-2.6197
X5.3488Y-2.6461
X5.3488Y-2.6724
X5.3488Y-2.6988
X5.3752Y-2.5669
X5.3752Y-2.5933
X5.3752Y-2.6197
X5.3752Y-2.6461
X5.3752Y-2.6724
X5.3752Y-2.6988
X5.3799Y-2.8189
X5.3799Y-2.8504
X5.4016Y-2.5669
X5.4016Y-2.5933
X5.4016Y-2.6197
X5.4016Y-2.6461
X5.4016Y-2.6724
X5.4016Y-2.6988
X5.428Y-2.5669
X5.428Y-2.5933
X5.428Y-2.6197
X5.428Y-2.6461
X5.428Y-2.6724
X5.428Y-2.6988
X5.4606Y-2.8386
X5.5709Y-4.2441
X5.6063Y-4.1417
X5.6705Y-4.3217
X5.6831Y-3.6614
X5.6831Y-3.689
X5.6831Y-3.7165
X5.6831Y-3.7441
X5.6988Y-3.9055
X5.6988Y-3.937
X5.7035Y-4.2217
X5.7146Y-3.6614
X5.7283Y-3.9055
X5.7283Y-3.937
X5.7402Y-4.626
X5.7441Y-3.6614
X5.7579Y-3.9055
X5.7579Y-3.937
X5.7913Y-4.5039
X5.8189Y-4.1299
X5.874Y-4.5906
X5.9213Y-3.6378
X5.9213Y-4.1378
X5.9528Y-4.3228
X6.0354Y-3.8622
T2
X2.3783Y-5.2536
X2.4126Y-5.2917
X2.4247Y-5.2463
X2.4468Y-5.3297
X2.459Y-5.2844
T3
X3.002Y-4.5718
X3.002Y-4.6718
X3.002Y-4.7718
X3.002Y-4.8718
X3.002Y-4.9718
X3.1476Y-4.6717
X3.1476Y-4.7717
X3.1476Y-4.8717
T4
X2.3249Y-5.1813
X2.5132Y-5.3905
T0
M30
