M48
; DRILL file {KiCad 5.1.6+dfsg1-1} date Wed Jan 27 11:43:51 2021
; FORMAT={-:-/ absolute / inch / decimal}
; #@! TF.CreationDate,2021-01-27T11:43:51+01:00
; #@! TF.GenerationSoftware,Kicad,Pcbnew,5.1.6+dfsg1-1
; #@! TF.FileFunction,Plated,1,4,PTH
FMAT,2
INCH
T1C0.0079
T2C0.0173
T3C0.0394
T4C0.0531
%
G90
G05
T1
X1.8583Y-3.6693
X1.8937Y-4.5276
X1.9213Y-4.0
X1.9252Y-3.8346
X1.9409Y-3.185
X1.9527Y-3.2559
X1.9705Y-4.4795
X2.0Y-3.7023
X2.0039Y-4.2441
X2.0039Y-4.2716
X2.0183Y-3.6223
X2.0566Y-3.3282
X2.121Y-3.873
X2.1283Y-4.0984
X2.1417Y-3.0512
X2.1417Y-3.3819
X2.1535Y-3.496
X2.1614Y-3.9173
X2.1653Y-4.5831
X2.1713Y-3.5216
X2.189Y-3.0551
X2.189Y-3.3819
X2.1968Y-3.622
X2.2047Y-4.2728
X2.2087Y-4.3779
X2.2126Y-4.4398
X2.2264Y-4.5256
X2.2401Y-3.0512
X2.2535Y-4.5008
X2.2539Y-4.2382
X2.2559Y-4.2941
X2.2559Y-4.3197
X2.2795Y-3.3228
X2.2874Y-3.8425
X2.3333Y-4.2805
X2.3378Y-4.3629
X2.3386Y-4.0551
X2.3393Y-4.6358
X2.3413Y-4.4795
X2.3464Y-4.5073
X2.3535Y-4.8512
X2.3701Y-4.2579
X2.3763Y-4.2331
X2.3937Y-3.7281
X2.4055Y-3.6339
X2.4123Y-4.1972
X2.4124Y-4.3996
X2.4163Y-4.7197
X2.4321Y-3.3218
X2.4331Y-3.8701
X2.437Y-3.1772
X2.4397Y-4.1939
X2.4409Y-3.248
X2.4555Y-4.6386
X2.4724Y-4.1102
X2.4823Y-4.6449
X2.4839Y-4.9653
X2.4842Y-2.748
X2.5039Y-4.0551
X2.5039Y-4.2697
X2.5039Y-4.2953
X2.5144Y-3.0498
X2.5146Y-4.9669
X2.5354Y-3.374
X2.5382Y-4.7185
X2.539Y-4.6398
X2.5536Y-3.4912
X2.5627Y-5.1538
X2.564Y-4.0978
X2.5644Y-3.0526
X2.565Y-5.1279
X2.5703Y-3.3824
X2.5748Y-3.5118
X2.5748Y-3.6378
X2.5837Y-3.8746
X2.5837Y-4.0541
X2.5862Y-4.5073
X2.6034Y-4.5578
X2.6059Y-4.1988
X2.6142Y-3.0472
X2.6272Y-4.544
X2.6299Y-4.189
X2.6407Y-3.8309
X2.6417Y-5.2087
X2.6437Y-2.2087
X2.6437Y-2.2441
X2.6437Y-2.2795
X2.6437Y-2.315
X2.6575Y-3.3189
X2.6752Y-2.559
X2.6752Y-2.5945
X2.6752Y-2.6299
X2.6752Y-2.6653
X2.6752Y-2.6949
X2.6772Y-4.3425
X2.6772Y-5.063
X2.6791Y-2.2087
X2.6791Y-2.2441
X2.6791Y-2.2795
X2.6791Y-2.315
X2.6894Y-4.4453
X2.69Y-4.1535
X2.6978Y-4.252
X2.7008Y-5.0472
X2.703Y-4.3129
X2.7047Y-2.559
X2.7047Y-2.5945
X2.7047Y-2.6299
X2.7047Y-2.6653
X2.7047Y-2.6949
X2.7087Y-4.3937
X2.7096Y-4.7342
X2.7096Y-5.2126
X2.7105Y-4.4945
X2.7106Y-2.1732
X2.7106Y-2.2087
X2.7106Y-2.2441
X2.7106Y-2.2795
X2.7106Y-2.315
X2.7149Y-4.4432
X2.7195Y-3.627
X2.7217Y-4.4186
X2.7342Y-2.559
X2.7342Y-2.5945
X2.7342Y-2.6299
X2.7342Y-2.6653
X2.7342Y-2.6949
X2.7421Y-2.1732
X2.7421Y-2.2087
X2.7421Y-2.2441
X2.7421Y-2.2795
X2.7421Y-2.315
X2.7638Y-2.559
X2.7638Y-2.5945
X2.7638Y-2.6299
X2.7638Y-2.6653
X2.7638Y-2.6949
X2.7677Y-3.9134
X2.7807Y-5.437
X2.7859Y-4.4141
X2.7884Y-4.3573
X2.7913Y-3.185
X2.7992Y-3.3307
X2.8047Y-5.4677
X2.8061Y-3.7126
X2.8071Y-3.2559
X2.809Y-4.3012
X2.8228Y-5.2185
X2.8268Y-4.4527
X2.8366Y-5.5027
X2.8504Y-2.1535
X2.8504Y-2.185
X2.8504Y-2.2165
X2.8504Y-2.248
X2.8504Y-2.2795
X2.8504Y-2.311
X2.8504Y-5.2165
X2.8711Y-3.5984
X2.873Y-4.1663
X2.8779Y-3.9173
X2.8779Y-3.874
X2.8791Y-4.6744
X2.8819Y-2.1535
X2.8819Y-2.185
X2.8819Y-2.2165
X2.8819Y-2.248
X2.8819Y-2.2795
X2.8819Y-2.311
X2.8858Y-2.5945
X2.8858Y-2.626
X2.8858Y-2.6575
X2.8858Y-2.689
X2.8858Y-2.7205
X2.8858Y-2.752
X2.8858Y-3.0551
X2.8858Y-3.3858
X2.8941Y-5.5098
X2.9026Y-4.3779
X2.9043Y-4.2693
X2.9094Y-2.0669
X2.9114Y-4.2106
X2.9134Y-2.1535
X2.9134Y-2.185
X2.9134Y-2.2165
X2.9134Y-2.248
X2.9134Y-2.2795
X2.9134Y-2.311
X2.9173Y-2.5945
X2.9173Y-2.626
X2.9173Y-2.6575
X2.9173Y-2.689
X2.9173Y-2.7205
X2.9173Y-2.752
X2.9331Y-3.0512
X2.9358Y-3.387
X2.9409Y-5.6468
X2.9449Y-2.1535
X2.9449Y-2.185
X2.9449Y-2.2165
X2.9449Y-2.248
X2.9449Y-2.2795
X2.9449Y-2.311
X2.9488Y-2.5945
X2.9488Y-2.626
X2.9488Y-2.6575
X2.9488Y-2.689
X2.9488Y-2.7205
X2.9488Y-2.752
X2.9504Y-3.4838
X2.9508Y-4.1398
X2.9606Y-3.5197
X2.9651Y-3.4376
X2.9685Y-5.2126
X2.9764Y-2.1535
X2.9764Y-2.185
X2.9764Y-2.2165
X2.9764Y-2.248
X2.9764Y-2.2795
X2.9764Y-2.311
X2.9803Y-2.5945
X2.9803Y-2.626
X2.9803Y-2.6575
X2.9803Y-2.689
X2.9803Y-2.7205
X2.9803Y-2.752
X2.9842Y-3.0551
X3.0118Y-2.5945
X3.0118Y-2.626
X3.0118Y-2.6575
X3.0118Y-2.689
X3.0118Y-2.7205
X3.0118Y-2.752
X3.0315Y-3.3228
X3.0453Y-4.4872
X3.0705Y-4.4761
X3.0866Y-3.1142
X3.0908Y-4.545
X3.0945Y-3.2146
X3.0966Y-4.572
X3.1004Y-2.2067
X3.1437Y-5.5815
X3.1535Y-2.4488
X3.1657Y-5.6772
X3.185Y-4.8661
X3.1968Y-2.1437
X3.1968Y-2.1752
X3.1968Y-2.2067
X3.1968Y-2.2382
X3.1968Y-2.2697
X3.1968Y-2.3012
X3.2126Y-3.1142
X3.2228Y-5.7039
X3.2283Y-2.1437
X3.2283Y-2.1752
X3.2283Y-2.2067
X3.2283Y-2.2382
X3.2283Y-2.2697
X3.2283Y-2.3012
X3.2283Y-2.7441
X3.2342Y-5.613
X3.2598Y-2.1437
X3.2598Y-2.1752
X3.2598Y-2.2067
X3.2598Y-2.2382
X3.2598Y-2.2697
X3.2598Y-2.3012
X3.2638Y-2.4488
X3.2842Y-5.689
X3.2913Y-2.1437
X3.2913Y-2.1752
X3.2913Y-2.2067
X3.2913Y-2.2382
X3.2913Y-2.2697
X3.2913Y-2.3012
X3.3031Y-5.0945
X3.3031Y-5.1339
X3.3031Y-5.1732
X3.3031Y-5.2126
X3.3228Y-2.1437
X3.3228Y-2.1752
X3.3228Y-2.2067
X3.3228Y-2.2382
X3.3228Y-2.2697
X3.3228Y-2.3012
X3.3232Y-5.6453
X3.3327Y-5.0945
X3.3327Y-5.1339
X3.3327Y-5.1732
X3.3327Y-5.2126
X3.3382Y-5.8287
X3.3563Y-2.1437
X3.3563Y-2.1752
X3.3563Y-2.2067
X3.3563Y-2.2382
X3.3563Y-2.2697
X3.3563Y-2.3012
X3.3701Y-5.7323
X3.3976Y-5.4094
X3.4157Y-5.6957
X3.4547Y-2.1575
X3.4547Y-2.1929
X3.4547Y-2.2283
X3.4547Y-2.2638
X3.4547Y-2.2992
X3.4764Y-2.563
X3.4764Y-2.5984
X3.4764Y-2.6339
X3.4764Y-2.6693
X3.4764Y-2.7008
X3.4901Y-2.1575
X3.4901Y-2.1929
X3.4901Y-2.2283
X3.4901Y-2.2638
X3.4901Y-2.2992
X3.5079Y-2.563
X3.5079Y-2.5984
X3.5079Y-2.6339
X3.5079Y-2.6693
X3.5079Y-2.7008
X3.5256Y-2.1575
X3.5256Y-2.1929
X3.5256Y-2.2283
X3.5256Y-2.2638
X3.5256Y-2.2992
X3.5394Y-2.563
X3.5394Y-2.5984
X3.5394Y-2.6339
X3.5394Y-2.6693
X3.5394Y-2.7008
X3.5441Y-5.8153
X3.561Y-2.1575
X3.561Y-2.1929
X3.561Y-2.2283
X3.561Y-2.2638
X3.561Y-2.2992
X3.5709Y-2.563
X3.5709Y-2.5984
X3.5709Y-2.6339
X3.5709Y-2.6693
X3.5709Y-2.7008
X3.5839Y-5.8063
X3.6216Y-5.8043
X3.6575Y-2.1496
X3.6575Y-2.1811
X3.6575Y-2.2126
X3.6575Y-2.2441
X3.6575Y-2.2756
X3.6575Y-2.3071
X3.6587Y-5.8185
X3.689Y-2.1496
X3.689Y-2.1811
X3.689Y-2.2126
X3.689Y-2.2441
X3.689Y-2.2756
X3.689Y-2.3071
X3.6929Y-2.5905
X3.6929Y-2.622
X3.6929Y-2.6535
X3.6929Y-2.685
X3.6929Y-2.7165
X3.6929Y-2.748
X3.7008Y-5.0669
X3.7047Y-2.063
X3.7205Y-2.1496
X3.7205Y-2.1811
X3.7205Y-2.2126
X3.7205Y-2.2441
X3.7205Y-2.2756
X3.7205Y-2.3071
X3.7205Y-5.5512
X3.7244Y-2.5905
X3.7244Y-2.622
X3.7244Y-2.6535
X3.7244Y-2.685
X3.7244Y-2.7165
X3.7244Y-2.748
X3.7323Y-5.0669
X3.748Y-5.5512
X3.752Y-2.1496
X3.752Y-2.1811
X3.752Y-2.2126
X3.752Y-2.2441
X3.752Y-2.2756
X3.752Y-2.3071
X3.7559Y-2.5905
X3.7559Y-2.622
X3.7559Y-2.6535
X3.7559Y-2.685
X3.7559Y-2.7165
X3.7559Y-2.748
X3.7638Y-5.0669
X3.7756Y-5.5512
X3.7772Y-5.9197
X3.7835Y-2.1496
X3.7835Y-2.1811
X3.7835Y-2.2126
X3.7835Y-2.2441
X3.7835Y-2.2756
X3.7835Y-2.3071
X3.7874Y-2.5905
X3.7874Y-2.622
X3.7874Y-2.6535
X3.7874Y-2.685
X3.7874Y-2.7165
X3.7874Y-2.748
X3.7992Y-5.0669
X3.8189Y-2.5905
X3.8189Y-2.622
X3.8189Y-2.6535
X3.8189Y-2.685
X3.8189Y-2.7165
X3.8189Y-2.748
X3.8425Y-5.5433
X3.8701Y-5.1496
X3.8996Y-2.2047
X3.9213Y-5.6964
X3.9409Y-2.4488
X3.9567Y-5.0886
X3.9567Y-5.1378
X3.9567Y-5.187
X3.9567Y-5.2362
X3.9567Y-5.2854
X3.9567Y-5.3346
X3.9567Y-5.374
X4.0039Y-2.1437
X4.0039Y-2.1752
X4.0039Y-2.2067
X4.0039Y-2.2382
X4.0039Y-2.2697
X4.0039Y-2.3012
X4.0142Y-6.0
X4.0315Y-5.6496
X4.0354Y-2.1437
X4.0354Y-2.1752
X4.0354Y-2.2067
X4.0354Y-2.2382
X4.0354Y-2.2697
X4.0354Y-2.3012
X4.0669Y-2.1437
X4.0669Y-2.1752
X4.0669Y-2.2067
X4.0669Y-2.2382
X4.0669Y-2.2697
X4.0669Y-2.3012
X4.0709Y-2.7598
X4.0748Y-2.4488
X4.0984Y-2.1437
X4.0984Y-2.1752
X4.0984Y-2.2067
X4.0984Y-2.2382
X4.0984Y-2.2697
X4.0984Y-2.3012
X4.1299Y-2.1437
X4.1299Y-2.1752
X4.1299Y-2.2067
X4.1299Y-2.2382
X4.1299Y-2.2697
X4.1299Y-2.3012
X4.1417Y-5.6142
X4.1614Y-2.1437
X4.1614Y-2.1752
X4.1614Y-2.2067
X4.1614Y-2.2382
X4.1614Y-2.2697
X4.1614Y-2.3012
X4.252Y-2.1653
X4.252Y-2.2008
X4.252Y-2.2362
X4.252Y-2.2716
X4.252Y-2.3071
X4.2795Y-2.5669
X4.2795Y-2.6024
X4.2795Y-2.6378
X4.2795Y-2.6732
X4.2795Y-2.7047
X4.2874Y-2.1653
X4.2874Y-2.2008
X4.2874Y-2.2362
X4.2874Y-2.2716
X4.2874Y-2.3071
X4.311Y-2.5669
X4.311Y-2.6024
X4.311Y-2.6378
X4.311Y-2.6732
X4.311Y-2.7047
X4.3189Y-2.1653
X4.3189Y-2.2008
X4.3189Y-2.2362
X4.3189Y-2.2716
X4.3189Y-2.3071
X4.3425Y-2.5669
X4.3425Y-2.6024
X4.3425Y-2.6378
X4.3425Y-2.6732
X4.3425Y-2.7047
X4.3543Y-2.1653
X4.3543Y-2.2008
X4.3543Y-2.2362
X4.3543Y-2.2716
X4.3543Y-2.3071
X4.374Y-2.5669
X4.374Y-2.6024
X4.374Y-2.6378
X4.374Y-2.6732
X4.374Y-2.7047
X4.374Y-5.5079
X4.374Y-5.5354
X4.374Y-5.559
X4.4016Y-5.5079
X4.4281Y-5.6801
X4.4567Y-2.1575
X4.4567Y-2.189
X4.4567Y-2.2205
X4.4567Y-2.252
X4.4567Y-2.2835
X4.4567Y-2.315
X4.4783Y-5.6791
X4.4882Y-2.1575
X4.4882Y-2.189
X4.4882Y-2.2205
X4.4882Y-2.252
X4.4882Y-2.2835
X4.4882Y-2.315
X4.4961Y-5.9134
X4.5Y-2.5984
X4.5Y-2.6299
X4.5Y-2.6614
X4.5Y-2.6929
X4.5Y-2.7244
X4.5Y-2.7559
X4.5079Y-5.6791
X4.5197Y-2.0827
X4.5197Y-2.1575
X4.5197Y-2.189
X4.5197Y-2.2205
X4.5197Y-2.252
X4.5197Y-2.2835
X4.5197Y-2.315
X4.5315Y-2.5984
X4.5315Y-2.6299
X4.5315Y-2.6614
X4.5315Y-2.6929
X4.5315Y-2.7244
X4.5315Y-2.7559
X4.5374Y-5.6791
X4.5512Y-2.1575
X4.5512Y-2.189
X4.5512Y-2.2205
X4.5512Y-2.252
X4.5512Y-2.2835
X4.5512Y-2.315
X4.563Y-2.5984
X4.563Y-2.6299
X4.563Y-2.6614
X4.563Y-2.6929
X4.563Y-2.7244
X4.563Y-2.7559
X4.5669Y-5.6791
X4.5827Y-2.1575
X4.5827Y-2.189
X4.5827Y-2.2205
X4.5827Y-2.252
X4.5827Y-2.2835
X4.5827Y-2.315
X4.5945Y-2.5984
X4.5945Y-2.6299
X4.5945Y-2.6614
X4.5945Y-2.6929
X4.5945Y-2.7244
X4.5945Y-2.7559
X4.5964Y-5.6791
X4.622Y-5.8937
X4.626Y-2.5984
X4.626Y-2.6299
X4.626Y-2.6614
X4.626Y-2.6929
X4.626Y-2.7244
X4.626Y-2.7559
X4.626Y-5.6791
X4.6555Y-5.6791
X4.685Y-5.6791
X4.6937Y-5.8063
X4.7027Y-2.2146
X4.7146Y-5.6791
X4.7441Y-5.6791
X4.7461Y-2.4547
X4.7736Y-5.6791
X4.8228Y-2.1575
X4.8228Y-2.189
X4.8228Y-2.2205
X4.8228Y-2.252
X4.8228Y-2.2835
X4.8228Y-2.315
X4.8386Y-5.2401
X4.8386Y-5.2677
X4.8386Y-5.2953
X4.8386Y-5.3268
X4.8425Y-5.626
X4.8543Y-2.1575
X4.8543Y-2.189
X4.8543Y-2.2205
X4.8543Y-2.252
X4.8543Y-2.2835
X4.8543Y-2.315
X4.8839Y-2.4547
X4.8858Y-2.1575
X4.8858Y-2.189
X4.8858Y-2.2205
X4.8858Y-2.252
X4.8858Y-2.2835
X4.8858Y-2.315
X4.9016Y-2.7244
X4.9016Y-2.7559
X4.9016Y-2.7874
X4.9016Y-2.8189
X4.9016Y-2.8504
X4.9016Y-2.9094
X4.9016Y-2.9409
X4.9016Y-2.9724
X4.9016Y-3.0039
X4.9016Y-3.0354
X4.9016Y-3.0669
X4.9016Y-3.0984
X4.9173Y-2.1575
X4.9173Y-2.189
X4.9173Y-2.2205
X4.9173Y-2.252
X4.9173Y-2.2835
X4.9173Y-2.315
X4.9331Y-2.7244
X4.9331Y-2.7559
X4.9331Y-2.7874
X4.9331Y-2.8189
X4.9331Y-2.8504
X4.9331Y-2.9094
X4.9331Y-2.9409
X4.9331Y-2.9724
X4.9331Y-3.0039
X4.9331Y-3.0354
X4.9331Y-3.0669
X4.9331Y-3.0984
X4.9488Y-2.1575
X4.9488Y-2.189
X4.9488Y-2.2205
X4.9488Y-2.252
X4.9488Y-2.2835
X4.9488Y-2.315
X4.9646Y-2.7244
X4.9646Y-2.7559
X4.9646Y-2.7874
X4.9646Y-2.8189
X4.9646Y-2.8504
X4.9646Y-2.9094
X4.9646Y-2.9409
X4.9646Y-2.9724
X4.9646Y-3.0039
X4.9646Y-3.0354
X4.9646Y-3.0669
X4.9646Y-3.0984
X4.9803Y-2.1575
X4.9803Y-2.189
X4.9803Y-2.2205
X4.9803Y-2.252
X4.9803Y-2.2835
X4.9803Y-2.315
X4.9961Y-2.7244
X4.9961Y-2.7559
X4.9961Y-2.7874
X4.9961Y-2.8189
X4.9961Y-2.8504
X4.9961Y-2.9094
X4.9961Y-2.9409
X4.9961Y-2.9724
X4.9961Y-3.0039
X4.9961Y-3.0354
X4.9961Y-3.0669
X4.9961Y-3.0984
X5.0276Y-2.7244
X5.0276Y-2.7559
X5.0276Y-2.7874
X5.0276Y-2.8189
X5.0276Y-2.8504
X5.0276Y-2.9094
X5.0276Y-2.9409
X5.0276Y-2.9724
X5.0276Y-3.0039
X5.0276Y-3.0354
X5.0276Y-3.0669
X5.0276Y-3.0984
X5.0276Y-5.0512
X5.0354Y-5.0197
X5.059Y-2.7244
X5.059Y-2.7559
X5.059Y-2.7874
X5.059Y-2.8189
X5.059Y-2.8504
X5.059Y-2.9094
X5.059Y-2.9409
X5.059Y-2.9724
X5.059Y-3.0039
X5.059Y-3.0354
X5.059Y-3.0669
X5.059Y-3.0984
X5.063Y-3.4449
X5.063Y-3.4764
X5.063Y-3.5079
X5.063Y-3.5394
X5.063Y-3.5709
X5.063Y-3.6024
X5.063Y-3.6339
X5.063Y-3.6653
X5.063Y-3.6968
X5.063Y-3.7283
X5.063Y-3.7598
X5.063Y-3.7913
X5.0866Y-2.7244
X5.0866Y-2.7559
X5.0866Y-2.7874
X5.0866Y-2.8189
X5.0866Y-2.8504
X5.0866Y-2.9094
X5.0866Y-2.9409
X5.0866Y-2.9724
X5.0866Y-3.0039
X5.0866Y-3.0354
X5.0866Y-3.0669
X5.0866Y-3.0984
X5.0945Y-3.4449
X5.0945Y-3.4764
X5.0945Y-3.5079
X5.0945Y-3.5394
X5.0945Y-3.5709
X5.0945Y-3.6024
X5.0945Y-3.6339
X5.0945Y-3.6653
X5.0945Y-3.6968
X5.0945Y-3.7283
X5.0945Y-3.7598
X5.0945Y-3.7913
X5.0984Y-5.189
X5.1181Y-2.7244
X5.1181Y-2.7559
X5.1181Y-2.7874
X5.1181Y-2.8189
X5.1181Y-2.8504
X5.1181Y-2.9094
X5.1181Y-2.9409
X5.1181Y-2.9724
X5.1181Y-3.0039
X5.1181Y-3.0354
X5.1181Y-3.0669
X5.1181Y-3.0984
X5.126Y-3.4449
X5.126Y-3.4764
X5.126Y-3.5079
X5.126Y-3.5394
X5.126Y-3.5709
X5.126Y-3.6024
X5.126Y-3.6339
X5.126Y-3.6653
X5.126Y-3.6968
X5.126Y-3.7283
X5.126Y-3.7598
X5.126Y-3.7913
X5.1339Y-5.2087
X5.1496Y-2.752
X5.1496Y-2.7835
X5.1496Y-2.815
X5.1496Y-2.8464
X5.1496Y-2.8779
X5.1496Y-2.9094
X5.1496Y-2.9409
X5.1496Y-2.9724
X5.1496Y-3.0039
X5.1496Y-3.0354
X5.1496Y-3.0669
X5.1496Y-3.0984
X5.1575Y-3.4449
X5.1575Y-3.4764
X5.1575Y-3.5079
X5.1575Y-3.5394
X5.1575Y-3.5709
X5.1575Y-3.6024
X5.1575Y-3.6339
X5.1575Y-3.6653
X5.1575Y-3.6968
X5.1575Y-3.7283
X5.1575Y-3.7598
X5.1575Y-3.7913
X5.1732Y-4.0197
X5.1732Y-4.0512
X5.1732Y-4.0827
X5.1732Y-4.1142
X5.1732Y-4.1457
X5.1732Y-4.1772
X5.1732Y-4.2087
X5.1732Y-4.2401
X5.1811Y-2.752
X5.1811Y-2.7835
X5.1811Y-2.815
X5.1811Y-2.8464
X5.1811Y-2.8779
X5.1811Y-2.9094
X5.1811Y-2.9409
X5.1811Y-2.9724
X5.1811Y-3.0039
X5.1811Y-3.0354
X5.1811Y-3.0669
X5.1811Y-3.0984
X5.189Y-3.4449
X5.189Y-3.4764
X5.189Y-3.5079
X5.189Y-3.5394
X5.189Y-3.5709
X5.189Y-3.6024
X5.189Y-3.6339
X5.189Y-3.6653
X5.189Y-3.6968
X5.189Y-3.7283
X5.189Y-3.7598
X5.189Y-3.7913
X5.2047Y-4.0197
X5.2047Y-4.0512
X5.2047Y-4.0827
X5.2047Y-4.1142
X5.2047Y-4.1457
X5.2047Y-4.1772
X5.2047Y-4.2087
X5.2047Y-4.2401
X5.2205Y-3.4449
X5.2205Y-3.4764
X5.2205Y-3.5079
X5.2205Y-3.5394
X5.2205Y-3.5709
X5.2205Y-3.6024
X5.2205Y-3.6339
X5.2205Y-3.6653
X5.2205Y-3.6968
X5.2205Y-3.7283
X5.2205Y-3.7598
X5.2205Y-3.7913
X5.2244Y-5.3504
X5.2362Y-4.0197
X5.2362Y-4.0512
X5.2362Y-4.0827
X5.2362Y-4.1142
X5.2362Y-4.1457
X5.2362Y-4.1772
X5.2362Y-4.2087
X5.2362Y-4.2401
X5.248Y-3.4449
X5.248Y-3.4764
X5.248Y-3.5079
X5.248Y-3.5394
X5.248Y-3.5709
X5.248Y-3.6024
X5.248Y-3.6339
X5.248Y-3.6653
X5.248Y-3.6968
X5.248Y-3.7283
X5.248Y-3.7598
X5.248Y-3.7913
X5.2677Y-4.0197
X5.2677Y-4.0512
X5.2677Y-4.0827
X5.2677Y-4.1142
X5.2677Y-4.1457
X5.2677Y-4.1772
X5.2677Y-4.2087
X5.2677Y-4.2401
X5.2756Y-5.2992
X5.2795Y-3.4449
X5.2795Y-3.4764
X5.2795Y-3.5079
X5.2795Y-3.5394
X5.2795Y-3.5709
X5.2795Y-3.6024
X5.2795Y-3.6339
X5.2795Y-3.6653
X5.2795Y-3.6968
X5.2795Y-3.7283
X5.2795Y-3.7598
X5.2795Y-3.7913
X5.2992Y-4.0197
X5.2992Y-4.0512
X5.2992Y-4.0827
X5.2992Y-4.1142
X5.2992Y-4.1457
X5.2992Y-4.1772
X5.2992Y-4.2087
X5.2992Y-4.2401
X5.311Y-3.4449
X5.311Y-3.4764
X5.311Y-3.5079
X5.311Y-3.5394
X5.311Y-3.5709
X5.311Y-3.6024
X5.311Y-3.6339
X5.311Y-3.6653
X5.311Y-3.6968
X5.311Y-3.7283
X5.311Y-3.7598
X5.311Y-3.7913
X5.3307Y-4.0197
X5.3307Y-4.0512
X5.3307Y-4.0827
X5.3307Y-4.1142
X5.3307Y-4.1457
X5.3307Y-4.1772
X5.3307Y-4.2087
X5.3307Y-4.2401
X5.3425Y-3.4449
X5.3425Y-3.4764
X5.3425Y-3.5079
X5.3425Y-3.5394
X5.3425Y-3.5709
X5.3425Y-3.6024
X5.3425Y-3.6339
X5.3425Y-3.6653
X5.3425Y-3.6968
X5.3425Y-3.7283
X5.3425Y-3.7598
X5.3425Y-3.7913
X5.3543Y-5.0669
X5.3543Y-5.2362
X5.3622Y-4.0197
X5.3622Y-4.0512
X5.3622Y-4.0827
X5.3622Y-4.1142
X5.3622Y-4.1457
X5.3622Y-4.1772
X5.3622Y-4.2087
X5.3622Y-4.2401
X5.3937Y-2.752
X5.3937Y-2.7835
X5.3937Y-2.815
X5.3937Y-2.8464
X5.3937Y-2.8779
X5.3937Y-2.9094
X5.3937Y-2.9409
X5.3937Y-2.9724
X5.3937Y-3.0039
X5.3937Y-3.0394
X5.3937Y-3.0709
X5.3937Y-3.1024
X5.3937Y-4.0197
X5.3937Y-4.0512
X5.3937Y-4.0827
X5.3937Y-4.1142
X5.3937Y-4.1457
X5.3937Y-4.1772
X5.3937Y-4.2087
X5.3937Y-4.2401
X5.3976Y-5.3583
X5.4252Y-2.752
X5.4252Y-2.7835
X5.4252Y-2.815
X5.4252Y-2.8464
X5.4252Y-2.8779
X5.4252Y-2.9094
X5.4252Y-2.9409
X5.4252Y-2.9724
X5.4252Y-3.0039
X5.4252Y-3.0394
X5.4252Y-3.0709
X5.4252Y-3.1024
X5.4567Y-2.752
X5.4567Y-2.7835
X5.4567Y-2.815
X5.4567Y-2.8464
X5.4567Y-2.8779
X5.4567Y-2.9094
X5.4567Y-2.9409
X5.4567Y-2.9724
X5.4567Y-3.0039
X5.4567Y-3.0394
X5.4567Y-3.0709
X5.4567Y-3.1024
X5.4882Y-2.752
X5.4882Y-2.7835
X5.4882Y-2.815
X5.4882Y-2.8464
X5.4882Y-2.8779
X5.4882Y-2.9094
X5.4882Y-2.9409
X5.4882Y-2.9724
X5.4882Y-3.0039
X5.4882Y-3.0394
X5.4882Y-3.0709
X5.4882Y-3.1024
X5.4961Y-4.9862
X5.5197Y-2.752
X5.5197Y-2.7835
X5.5197Y-2.815
X5.5197Y-2.8464
X5.5197Y-2.8779
X5.5197Y-2.9094
X5.5197Y-2.9409
X5.5197Y-2.9724
X5.5197Y-3.0039
X5.5197Y-3.0394
X5.5197Y-3.0709
X5.5197Y-3.1024
X5.5512Y-2.752
X5.5512Y-2.7835
X5.5512Y-2.815
X5.5512Y-2.8464
X5.5512Y-2.8779
X5.5512Y-2.9094
X5.5512Y-2.9409
X5.5512Y-2.9724
X5.5512Y-3.0039
X5.5512Y-3.0394
X5.5512Y-3.0709
X5.5512Y-3.1024
X5.5551Y-3.4409
X5.5551Y-3.4724
X5.5551Y-3.5039
X5.5551Y-3.5354
X5.5551Y-3.5669
X5.5551Y-3.5984
X5.5551Y-3.6299
X5.5551Y-3.6614
X5.5551Y-3.6929
X5.5551Y-3.7283
X5.5551Y-3.7598
X5.5551Y-3.7913
X5.5827Y-2.752
X5.5827Y-2.7835
X5.5827Y-2.815
X5.5827Y-2.8464
X5.5827Y-2.8779
X5.5827Y-2.9094
X5.5827Y-2.9409
X5.5827Y-2.9724
X5.5827Y-3.0039
X5.5827Y-3.0394
X5.5827Y-3.0709
X5.5827Y-3.1024
X5.5866Y-3.4409
X5.5866Y-3.4724
X5.5866Y-3.5039
X5.5866Y-3.5354
X5.5866Y-3.5669
X5.5866Y-3.5984
X5.5866Y-3.6299
X5.5866Y-3.6614
X5.5866Y-3.6929
X5.5866Y-3.7283
X5.5866Y-3.7598
X5.5866Y-3.7913
X5.6142Y-2.752
X5.6142Y-2.7835
X5.6142Y-2.815
X5.6142Y-2.8464
X5.6142Y-2.8779
X5.6142Y-2.9094
X5.6142Y-2.9409
X5.6142Y-2.9724
X5.6142Y-3.0039
X5.6142Y-3.0394
X5.6142Y-3.0709
X5.6142Y-3.1024
X5.6181Y-3.4409
X5.6181Y-3.4724
X5.6181Y-3.5039
X5.6181Y-3.5354
X5.6181Y-3.5669
X5.6181Y-3.5984
X5.6181Y-3.6299
X5.6181Y-3.6614
X5.6181Y-3.6929
X5.6181Y-3.7283
X5.6181Y-3.7598
X5.6181Y-3.7913
X5.6457Y-2.752
X5.6457Y-2.7835
X5.6457Y-2.815
X5.6457Y-2.8464
X5.6457Y-2.8779
X5.6457Y-2.9094
X5.6457Y-2.9409
X5.6457Y-2.9724
X5.6457Y-3.0039
X5.6457Y-3.0394
X5.6457Y-3.0709
X5.6457Y-3.1024
X5.6496Y-3.4409
X5.6496Y-3.4724
X5.6496Y-3.5039
X5.6496Y-3.5354
X5.6496Y-3.5669
X5.6496Y-3.5984
X5.6496Y-3.6299
X5.6496Y-3.6614
X5.6496Y-3.6929
X5.6496Y-3.7283
X5.6496Y-3.7598
X5.6496Y-3.7913
X5.6772Y-2.752
X5.6772Y-2.7835
X5.6772Y-2.815
X5.6772Y-2.8464
X5.6772Y-2.8779
X5.6772Y-2.9094
X5.6772Y-2.9409
X5.6772Y-2.9724
X5.6772Y-3.0039
X5.6772Y-3.0394
X5.6772Y-3.0709
X5.6772Y-3.1024
X5.6811Y-3.4409
X5.6811Y-3.4724
X5.6811Y-3.5039
X5.6811Y-3.5354
X5.6811Y-3.5669
X5.6811Y-3.5984
X5.6811Y-3.6299
X5.6811Y-3.6614
X5.6811Y-3.6929
X5.6811Y-3.7283
X5.6811Y-3.7598
X5.6811Y-3.7913
X5.6929Y-4.0118
X5.6929Y-4.0433
X5.6929Y-4.0748
X5.6929Y-4.1063
X5.6929Y-4.1378
X5.6929Y-4.1693
X5.6929Y-4.2008
X5.6929Y-4.2323
X5.7126Y-3.4409
X5.7126Y-3.4724
X5.7126Y-3.5039
X5.7126Y-3.5354
X5.7126Y-3.5669
X5.7126Y-3.5984
X5.7126Y-3.6299
X5.7126Y-3.6614
X5.7126Y-3.6929
X5.7126Y-3.7283
X5.7126Y-3.7598
X5.7126Y-3.7913
X5.7244Y-4.0118
X5.7244Y-4.0433
X5.7244Y-4.0748
X5.7244Y-4.1063
X5.7244Y-4.1378
X5.7244Y-4.1693
X5.7244Y-4.2008
X5.7244Y-4.2323
X5.7441Y-3.4409
X5.7441Y-3.4724
X5.7441Y-3.5039
X5.7441Y-3.5354
X5.7441Y-3.5669
X5.7441Y-3.5984
X5.7441Y-3.6299
X5.7441Y-3.6614
X5.7441Y-3.6929
X5.7441Y-3.7283
X5.7441Y-3.7598
X5.7441Y-3.7913
X5.7559Y-4.0118
X5.7559Y-4.0433
X5.7559Y-4.0748
X5.7559Y-4.1063
X5.7559Y-4.1378
X5.7559Y-4.1693
X5.7559Y-4.2008
X5.7559Y-4.2323
X5.7756Y-3.4409
X5.7756Y-3.4724
X5.7756Y-3.5039
X5.7756Y-3.5354
X5.7756Y-3.5669
X5.7756Y-3.5984
X5.7756Y-3.6299
X5.7756Y-3.6614
X5.7756Y-3.6929
X5.7756Y-3.7283
X5.7756Y-3.7598
X5.7756Y-3.7913
X5.7874Y-4.0118
X5.7874Y-4.0433
X5.7874Y-4.0748
X5.7874Y-4.1063
X5.7874Y-4.1378
X5.7874Y-4.1693
X5.7874Y-4.2008
X5.7874Y-4.2323
X5.8071Y-3.4409
X5.8071Y-3.4724
X5.8071Y-3.5039
X5.8071Y-3.5354
X5.8071Y-3.5669
X5.8071Y-3.5984
X5.8071Y-3.6299
X5.8071Y-3.6614
X5.8071Y-3.6929
X5.8071Y-3.7283
X5.8071Y-3.7598
X5.8071Y-3.7913
X5.8189Y-4.0118
X5.8189Y-4.0433
X5.8189Y-4.0748
X5.8189Y-4.1063
X5.8189Y-4.1378
X5.8189Y-4.1693
X5.8189Y-4.2008
X5.8189Y-4.2323
X5.8386Y-3.4409
X5.8386Y-3.4724
X5.8386Y-3.5039
X5.8386Y-3.5354
X5.8386Y-3.5669
X5.8386Y-3.5984
X5.8386Y-3.6299
X5.8386Y-3.6614
X5.8386Y-3.6929
X5.8386Y-3.7283
X5.8386Y-3.7598
X5.8386Y-3.7913
X5.8504Y-4.0118
X5.8504Y-4.0433
X5.8504Y-4.0748
X5.8504Y-4.1063
X5.8504Y-4.1378
X5.8504Y-4.1693
X5.8504Y-4.2008
X5.8504Y-4.2323
X5.8819Y-4.0118
X5.8819Y-4.0433
X5.8819Y-4.0748
X5.8819Y-4.1063
X5.8819Y-4.1378
X5.8819Y-4.1693
X5.8819Y-4.2008
X5.8819Y-4.2323
X5.9134Y-4.0118
X5.9134Y-4.0433
X5.9134Y-4.0748
X5.9134Y-4.1063
X5.9134Y-4.1378
X5.9134Y-4.1693
X5.9134Y-4.2008
X5.9134Y-4.2323
T2
X2.3783Y-5.2536
X2.4126Y-5.2917
X2.4247Y-5.2463
X2.4468Y-5.3297
X2.459Y-5.2844
T3
X3.002Y-4.5718
X3.002Y-4.6718
X3.002Y-4.7718
X3.002Y-4.8718
X3.002Y-4.9718
X5.8386Y-4.5197
X5.8386Y-4.6197
X5.8386Y-4.7197
T4
X2.3249Y-5.1813
X2.5132Y-5.3905
T0
M30
