%TF.GenerationSoftware,KiCad,Pcbnew,5.1.6+dfsg1-1*%
%TF.CreationDate,2021-01-27T11:44:38+01:00*%
%TF.ProjectId,gesc,67657363-2e6b-4696-9361-645f70636258,6*%
%TF.SameCoordinates,Original*%
%TF.FileFunction,Paste,Top*%
%TF.FilePolarity,Positive*%
%FSLAX46Y46*%
G04 Gerber Fmt 4.6, Leading zero omitted, Abs format (unit mm)*
G04 Created by KiCad (PCBNEW 5.1.6+dfsg1-1) date 2021-01-27 11:44:38*
%MOMM*%
%LPD*%
G01*
G04 APERTURE LIST*
%TA.AperFunction,Profile*%
%ADD10C,0.200000*%
%TD*%
%ADD11C,0.010000*%
%ADD12R,0.750000X0.500000*%
%ADD13R,1.500000X1.500000*%
%ADD14R,0.750000X0.400000*%
%ADD15R,0.600000X1.550000*%
%ADD16R,2.500000X1.900000*%
%ADD17R,1.200000X0.900000*%
%ADD18R,0.900000X1.200000*%
%ADD19R,1.450000X0.590000*%
%ADD20R,1.200000X0.800000*%
%ADD21R,0.568000X1.309599*%
%ADD22R,1.498600X0.457200*%
%ADD23R,2.900000X5.400000*%
%ADD24R,1.800000X2.500000*%
%ADD25R,2.400000X2.000000*%
%ADD26R,0.250000X1.000000*%
%ADD27R,1.000000X0.250000*%
%ADD28R,0.450000X1.450000*%
G04 APERTURE END LIST*
D10*
X155499800Y-99999800D02*
G75*
G03*
X155499800Y-99999800I-55500000J0D01*
G01*
X124500000Y-100000000D02*
G75*
G03*
X124500000Y-100000000I-24500000J0D01*
G01*
D11*
G36*
X132599800Y-131274491D02*
G01*
X132599800Y-130524800D01*
X133049456Y-130524800D01*
X133049456Y-131274491D01*
X132599800Y-131274491D01*
G37*
X132599800Y-131274491D02*
X132599800Y-130524800D01*
X133049456Y-130524800D01*
X133049456Y-131274491D01*
X132599800Y-131274491D01*
G36*
X132474800Y-124594760D02*
G01*
X132474800Y-123849800D01*
X132924526Y-123849800D01*
X132924526Y-124594760D01*
X132474800Y-124594760D01*
G37*
X132474800Y-124594760D02*
X132474800Y-123849800D01*
X132924526Y-123849800D01*
X132924526Y-124594760D01*
X132474800Y-124594760D01*
G36*
X128449800Y-131274623D02*
G01*
X128449800Y-130524800D01*
X128896330Y-130524800D01*
X128896330Y-131274623D01*
X128449800Y-131274623D01*
G37*
X128449800Y-131274623D02*
X128449800Y-130524800D01*
X128896330Y-130524800D01*
X128896330Y-131274623D01*
X128449800Y-131274623D01*
G36*
X128574800Y-124597300D02*
G01*
X128574800Y-123849800D01*
X129023250Y-123849800D01*
X129023250Y-124597300D01*
X128574800Y-124597300D01*
G37*
X128574800Y-124597300D02*
X128574800Y-123849800D01*
X129023250Y-123849800D01*
X129023250Y-124597300D01*
X128574800Y-124597300D01*
G36*
X131374800Y-130048050D02*
G01*
X131374800Y-129349800D01*
X131722900Y-129349800D01*
X131722900Y-130048050D01*
X131374800Y-130048050D01*
G37*
X131374800Y-130048050D02*
X131374800Y-129349800D01*
X131722900Y-129349800D01*
X131722900Y-130048050D01*
X131374800Y-130048050D01*
G36*
X130574800Y-130048700D02*
G01*
X130574800Y-129349800D01*
X130922990Y-129349800D01*
X130922990Y-130048700D01*
X130574800Y-130048700D01*
G37*
X130574800Y-130048700D02*
X130574800Y-129349800D01*
X130922990Y-129349800D01*
X130922990Y-130048700D01*
X130574800Y-130048700D01*
G36*
X129774800Y-130047880D02*
G01*
X129774800Y-129349800D01*
X130120590Y-129349800D01*
X130120590Y-130047880D01*
X129774800Y-130047880D01*
G37*
X129774800Y-130047880D02*
X129774800Y-129349800D01*
X130120590Y-129349800D01*
X130120590Y-130047880D01*
X129774800Y-130047880D01*
G36*
X129374800Y-131249682D02*
G01*
X129374800Y-130549800D01*
X129723110Y-130549800D01*
X129723110Y-131249682D01*
X129374800Y-131249682D01*
G37*
X129374800Y-131249682D02*
X129374800Y-130549800D01*
X129723110Y-130549800D01*
X129723110Y-131249682D01*
X129374800Y-131249682D01*
G36*
X130174800Y-131249563D02*
G01*
X130174800Y-130549800D01*
X130522170Y-130549800D01*
X130522170Y-131249563D01*
X130174800Y-131249563D01*
G37*
X130174800Y-131249563D02*
X130174800Y-130549800D01*
X130522170Y-130549800D01*
X130522170Y-131249563D01*
X130174800Y-131249563D01*
G36*
X130974800Y-131249355D02*
G01*
X130974800Y-130549800D01*
X131321290Y-130549800D01*
X131321290Y-131249355D01*
X130974800Y-131249355D01*
G37*
X130974800Y-131249355D02*
X130974800Y-130549800D01*
X131321290Y-130549800D01*
X131321290Y-131249355D01*
X130974800Y-131249355D01*
G36*
X131774800Y-131249775D02*
G01*
X131774800Y-130549800D01*
X132124680Y-130549800D01*
X132124680Y-131249775D01*
X131774800Y-131249775D01*
G37*
X131774800Y-131249775D02*
X131774800Y-130549800D01*
X132124680Y-130549800D01*
X132124680Y-131249775D01*
X131774800Y-131249775D01*
G36*
X130174800Y-124838640D02*
G01*
X130174800Y-124149800D01*
X130520140Y-124149800D01*
X130520140Y-124838640D01*
X130174800Y-124838640D01*
G37*
X130174800Y-124838640D02*
X130174800Y-124149800D01*
X130520140Y-124149800D01*
X130520140Y-124838640D01*
X130174800Y-124838640D01*
G36*
X132349800Y-125262970D02*
G01*
X132349800Y-124924800D01*
X133049325Y-124924800D01*
X133049325Y-125262970D01*
X132349800Y-125262970D01*
G37*
X132349800Y-125262970D02*
X132349800Y-124924800D01*
X133049325Y-124924800D01*
X133049325Y-125262970D01*
X132349800Y-125262970D01*
G36*
X132349800Y-126071650D02*
G01*
X132349800Y-125724800D01*
X133049655Y-125724800D01*
X133049655Y-126071650D01*
X132349800Y-126071650D01*
G37*
X132349800Y-126071650D02*
X132349800Y-125724800D01*
X133049655Y-125724800D01*
X133049655Y-126071650D01*
X132349800Y-126071650D01*
G36*
X132349800Y-126868120D02*
G01*
X132349800Y-126524800D01*
X133049439Y-126524800D01*
X133049439Y-126868120D01*
X132349800Y-126868120D01*
G37*
X132349800Y-126868120D02*
X132349800Y-126524800D01*
X133049439Y-126524800D01*
X133049439Y-126868120D01*
X132349800Y-126868120D01*
G36*
X132349800Y-127671020D02*
G01*
X132349800Y-127324800D01*
X133049553Y-127324800D01*
X133049553Y-127671020D01*
X132349800Y-127671020D01*
G37*
X132349800Y-127671020D02*
X132349800Y-127324800D01*
X133049553Y-127324800D01*
X133049553Y-127671020D01*
X132349800Y-127671020D01*
G36*
X132349800Y-128470760D02*
G01*
X132349800Y-128124800D01*
X133049467Y-128124800D01*
X133049467Y-128470760D01*
X132349800Y-128470760D01*
G37*
X132349800Y-128470760D02*
X132349800Y-128124800D01*
X133049467Y-128124800D01*
X133049467Y-128470760D01*
X132349800Y-128470760D01*
G36*
X132349800Y-129274280D02*
G01*
X132349800Y-128924800D01*
X133049742Y-128924800D01*
X133049742Y-129274280D01*
X132349800Y-129274280D01*
G37*
X132349800Y-129274280D02*
X132349800Y-128924800D01*
X133049742Y-128924800D01*
X133049742Y-129274280D01*
X132349800Y-129274280D01*
G36*
X132349800Y-130072160D02*
G01*
X132349800Y-129724800D01*
X133049337Y-129724800D01*
X133049337Y-130072160D01*
X132349800Y-130072160D01*
G37*
X132349800Y-130072160D02*
X132349800Y-129724800D01*
X133049337Y-129724800D01*
X133049337Y-130072160D01*
X132349800Y-130072160D01*
G36*
X128449800Y-125267810D02*
G01*
X128449800Y-124924800D01*
X129145140Y-124924800D01*
X129145140Y-125267810D01*
X128449800Y-125267810D01*
G37*
X128449800Y-125267810D02*
X128449800Y-124924800D01*
X129145140Y-124924800D01*
X129145140Y-125267810D01*
X128449800Y-125267810D01*
G36*
X128449800Y-126072640D02*
G01*
X128449800Y-125724800D01*
X129148150Y-125724800D01*
X129148150Y-126072640D01*
X128449800Y-126072640D01*
G37*
X128449800Y-126072640D02*
X128449800Y-125724800D01*
X129148150Y-125724800D01*
X129148150Y-126072640D01*
X128449800Y-126072640D01*
G36*
X128449800Y-126866260D02*
G01*
X128449800Y-126524800D01*
X129142130Y-126524800D01*
X129142130Y-126866260D01*
X128449800Y-126866260D01*
G37*
X128449800Y-126866260D02*
X128449800Y-126524800D01*
X129142130Y-126524800D01*
X129142130Y-126866260D01*
X128449800Y-126866260D01*
G36*
X128449800Y-127668440D02*
G01*
X128449800Y-127324800D01*
X129142900Y-127324800D01*
X129142900Y-127668440D01*
X128449800Y-127668440D01*
G37*
X128449800Y-127668440D02*
X128449800Y-127324800D01*
X129142900Y-127324800D01*
X129142900Y-127668440D01*
X128449800Y-127668440D01*
G36*
X128449800Y-128470340D02*
G01*
X128449800Y-128124800D01*
X129143680Y-128124800D01*
X129143680Y-128470340D01*
X128449800Y-128470340D01*
G37*
X128449800Y-128470340D02*
X128449800Y-128124800D01*
X129143680Y-128124800D01*
X129143680Y-128470340D01*
X128449800Y-128470340D01*
G36*
X128449800Y-129271900D02*
G01*
X128449800Y-128924800D01*
X129144390Y-128924800D01*
X129144390Y-129271900D01*
X128449800Y-129271900D01*
G37*
X128449800Y-129271900D02*
X128449800Y-128924800D01*
X129144390Y-128924800D01*
X129144390Y-129271900D01*
X128449800Y-129271900D01*
G36*
X128449800Y-130073980D02*
G01*
X128449800Y-129724800D01*
X129147400Y-129724800D01*
X129147400Y-130073980D01*
X128449800Y-130073980D01*
G37*
X128449800Y-130073980D02*
X128449800Y-129724800D01*
X129147400Y-129724800D01*
X129147400Y-130073980D01*
X128449800Y-130073980D01*
G36*
X130974800Y-124843310D02*
G01*
X130974800Y-124149800D01*
X131322870Y-124149800D01*
X131322870Y-124843310D01*
X130974800Y-124843310D01*
G37*
X130974800Y-124843310D02*
X130974800Y-124149800D01*
X131322870Y-124149800D01*
X131322870Y-124843310D01*
X130974800Y-124843310D01*
G36*
X130149800Y-128398580D02*
G01*
X130149800Y-127299800D01*
X131349030Y-127299800D01*
X131349030Y-128398580D01*
X130149800Y-128398580D01*
G37*
X130149800Y-128398580D02*
X130149800Y-127299800D01*
X131349030Y-127299800D01*
X131349030Y-128398580D01*
X130149800Y-128398580D01*
G36*
X130149800Y-126895720D02*
G01*
X130149800Y-125799800D01*
X131348070Y-125799800D01*
X131348070Y-126895720D01*
X130149800Y-126895720D01*
G37*
X130149800Y-126895720D02*
X130149800Y-125799800D01*
X131348070Y-125799800D01*
X131348070Y-126895720D01*
X130149800Y-126895720D01*
D12*
X97704800Y-69704800D03*
X97704800Y-68434800D03*
X97704800Y-67164800D03*
X97704800Y-65894800D03*
D13*
X94599800Y-68649800D03*
X94599800Y-66949800D03*
X96299800Y-68649800D03*
X96299800Y-66949800D03*
D14*
X91899800Y-69704800D03*
X91899800Y-68434800D03*
X91899800Y-67164800D03*
X91899800Y-65894800D03*
D12*
X92244800Y-54694800D03*
X92244800Y-55964800D03*
X92244800Y-57234800D03*
X92244800Y-58504800D03*
D13*
X95349800Y-55749800D03*
X95349800Y-57449800D03*
X93649800Y-55749800D03*
X93649800Y-57449800D03*
D14*
X98049800Y-54694800D03*
X98049800Y-55964800D03*
X98049800Y-57234800D03*
X98049800Y-58504800D03*
D12*
X118154800Y-69904800D03*
X118154800Y-68634800D03*
X118154800Y-67364800D03*
X118154800Y-66094800D03*
D13*
X115049800Y-68849800D03*
X115049800Y-67149800D03*
X116749800Y-68849800D03*
X116749800Y-67149800D03*
D14*
X112349800Y-69904800D03*
X112349800Y-68634800D03*
X112349800Y-67364800D03*
X112349800Y-66094800D03*
D12*
X112494800Y-54944800D03*
X112494800Y-56214800D03*
X112494800Y-57484800D03*
X112494800Y-58754800D03*
D13*
X115599800Y-55999800D03*
X115599800Y-57699800D03*
X113899800Y-55999800D03*
X113899800Y-57699800D03*
D14*
X118299800Y-54944800D03*
X118299800Y-56214800D03*
X118299800Y-57484800D03*
X118299800Y-58754800D03*
D12*
X77254800Y-69804800D03*
X77254800Y-68534800D03*
X77254800Y-67264800D03*
X77254800Y-65994800D03*
D13*
X74149800Y-68749800D03*
X74149800Y-67049800D03*
X75849800Y-68749800D03*
X75849800Y-67049800D03*
D14*
X71449800Y-69804800D03*
X71449800Y-68534800D03*
X71449800Y-67264800D03*
X71449800Y-65994800D03*
D12*
X71744800Y-54794800D03*
X71744800Y-56064800D03*
X71744800Y-57334800D03*
X71744800Y-58604800D03*
D13*
X74849800Y-55849800D03*
X74849800Y-57549800D03*
X73149800Y-55849800D03*
X73149800Y-57549800D03*
D14*
X77549800Y-54794800D03*
X77549800Y-56064800D03*
X77549800Y-57334800D03*
X77549800Y-58604800D03*
D15*
X53094800Y-78999800D03*
X54364800Y-78999800D03*
X55634800Y-78999800D03*
X56904800Y-78999800D03*
X56904800Y-84399800D03*
X55634800Y-84399800D03*
X54364800Y-84399800D03*
X53094800Y-84399800D03*
D16*
X90299800Y-134949800D03*
X90299800Y-130849800D03*
D17*
X98299800Y-132199800D03*
X98299800Y-135499800D03*
X114299800Y-151249800D03*
X114299800Y-147949800D03*
D18*
X105149800Y-141499800D03*
X101849800Y-141499800D03*
D19*
X94744800Y-137949800D03*
X94744800Y-138899800D03*
X94744800Y-139849800D03*
X97054800Y-139849800D03*
X97054800Y-138899800D03*
X97054800Y-137949800D03*
D20*
X122999800Y-141229800D03*
X128999800Y-141229800D03*
X128999800Y-143769800D03*
X122999800Y-143769800D03*
D21*
X71981799Y-100761800D03*
X72931800Y-100761800D03*
X73881801Y-100761800D03*
X73881801Y-98374200D03*
X71981799Y-98374200D03*
X62727799Y-100685600D03*
X63677800Y-100685600D03*
X64627801Y-100685600D03*
X64627801Y-98298000D03*
X62727799Y-98298000D03*
X72755999Y-94893600D03*
X73706000Y-94893600D03*
X74656001Y-94893600D03*
X74656001Y-92506000D03*
X72755999Y-92506000D03*
X61949799Y-94693600D03*
X62899800Y-94693600D03*
X63849801Y-94693600D03*
X63849801Y-92306000D03*
X61949799Y-92306000D03*
X51949799Y-94893600D03*
X52899800Y-94893600D03*
X53849801Y-94893600D03*
X53849801Y-92506000D03*
X51949799Y-92506000D03*
D22*
X63499799Y-90074799D03*
X63499799Y-89424801D03*
X63499799Y-88774799D03*
X63499799Y-88124801D03*
X57699801Y-88124801D03*
X57699801Y-88774799D03*
X57699801Y-89424801D03*
X57699801Y-90074799D03*
X73799799Y-90074799D03*
X73799799Y-89424801D03*
X73799799Y-88774799D03*
X73799799Y-88124801D03*
X67999801Y-88124801D03*
X67999801Y-88774799D03*
X67999801Y-89424801D03*
X67999801Y-90074799D03*
X53499798Y-90099800D03*
X53499798Y-89449802D03*
X53499798Y-88799800D03*
X53499798Y-88149802D03*
X47699800Y-88149802D03*
X47699800Y-88799800D03*
X47699800Y-89449802D03*
X47699800Y-90099800D03*
D21*
X53049799Y-100761800D03*
X53999800Y-100761800D03*
X54949801Y-100761800D03*
X54949801Y-98374200D03*
X53049799Y-98374200D03*
G36*
G01*
X87443550Y-138749800D02*
X88356050Y-138749800D01*
G75*
G02*
X88599800Y-138993550I0J-243750D01*
G01*
X88599800Y-139481050D01*
G75*
G02*
X88356050Y-139724800I-243750J0D01*
G01*
X87443550Y-139724800D01*
G75*
G02*
X87199800Y-139481050I0J243750D01*
G01*
X87199800Y-138993550D01*
G75*
G02*
X87443550Y-138749800I243750J0D01*
G01*
G37*
G36*
G01*
X87443550Y-136874800D02*
X88356050Y-136874800D01*
G75*
G02*
X88599800Y-137118550I0J-243750D01*
G01*
X88599800Y-137606050D01*
G75*
G02*
X88356050Y-137849800I-243750J0D01*
G01*
X87443550Y-137849800D01*
G75*
G02*
X87199800Y-137606050I0J243750D01*
G01*
X87199800Y-137118550D01*
G75*
G02*
X87443550Y-136874800I243750J0D01*
G01*
G37*
D23*
X116999800Y-132799800D03*
X107099800Y-132799800D03*
G36*
G01*
X79899800Y-78149800D02*
X79899800Y-76649800D01*
G75*
G02*
X80149800Y-76399800I250000J0D01*
G01*
X80649800Y-76399800D01*
G75*
G02*
X80899800Y-76649800I0J-250000D01*
G01*
X80899800Y-78149800D01*
G75*
G02*
X80649800Y-78399800I-250000J0D01*
G01*
X80149800Y-78399800D01*
G75*
G02*
X79899800Y-78149800I0J250000D01*
G01*
G37*
G36*
G01*
X78299800Y-78149800D02*
X78299800Y-76649800D01*
G75*
G02*
X78549800Y-76399800I250000J0D01*
G01*
X79049800Y-76399800D01*
G75*
G02*
X79299800Y-76649800I0J-250000D01*
G01*
X79299800Y-78149800D01*
G75*
G02*
X79049800Y-78399800I-250000J0D01*
G01*
X78549800Y-78399800D01*
G75*
G02*
X78299800Y-78149800I0J250000D01*
G01*
G37*
D24*
X95299800Y-130699800D03*
X95299800Y-134699800D03*
G36*
G01*
X88024800Y-62874800D02*
X90174800Y-62874800D01*
G75*
G02*
X90424800Y-63124800I0J-250000D01*
G01*
X90424800Y-63874800D01*
G75*
G02*
X90174800Y-64124800I-250000J0D01*
G01*
X88024800Y-64124800D01*
G75*
G02*
X87774800Y-63874800I0J250000D01*
G01*
X87774800Y-63124800D01*
G75*
G02*
X88024800Y-62874800I250000J0D01*
G01*
G37*
G36*
G01*
X88024800Y-60074800D02*
X90174800Y-60074800D01*
G75*
G02*
X90424800Y-60324800I0J-250000D01*
G01*
X90424800Y-61074800D01*
G75*
G02*
X90174800Y-61324800I-250000J0D01*
G01*
X88024800Y-61324800D01*
G75*
G02*
X87774800Y-61074800I0J250000D01*
G01*
X87774800Y-60324800D01*
G75*
G02*
X88024800Y-60074800I250000J0D01*
G01*
G37*
G36*
G01*
X108224800Y-63174800D02*
X110374800Y-63174800D01*
G75*
G02*
X110624800Y-63424800I0J-250000D01*
G01*
X110624800Y-64174800D01*
G75*
G02*
X110374800Y-64424800I-250000J0D01*
G01*
X108224800Y-64424800D01*
G75*
G02*
X107974800Y-64174800I0J250000D01*
G01*
X107974800Y-63424800D01*
G75*
G02*
X108224800Y-63174800I250000J0D01*
G01*
G37*
G36*
G01*
X108224800Y-60374800D02*
X110374800Y-60374800D01*
G75*
G02*
X110624800Y-60624800I0J-250000D01*
G01*
X110624800Y-61374800D01*
G75*
G02*
X110374800Y-61624800I-250000J0D01*
G01*
X108224800Y-61624800D01*
G75*
G02*
X107974800Y-61374800I0J250000D01*
G01*
X107974800Y-60624800D01*
G75*
G02*
X108224800Y-60374800I250000J0D01*
G01*
G37*
G36*
G01*
X67424800Y-63074800D02*
X69574800Y-63074800D01*
G75*
G02*
X69824800Y-63324800I0J-250000D01*
G01*
X69824800Y-64074800D01*
G75*
G02*
X69574800Y-64324800I-250000J0D01*
G01*
X67424800Y-64324800D01*
G75*
G02*
X67174800Y-64074800I0J250000D01*
G01*
X67174800Y-63324800D01*
G75*
G02*
X67424800Y-63074800I250000J0D01*
G01*
G37*
G36*
G01*
X67424800Y-60274800D02*
X69574800Y-60274800D01*
G75*
G02*
X69824800Y-60524800I0J-250000D01*
G01*
X69824800Y-61274800D01*
G75*
G02*
X69574800Y-61524800I-250000J0D01*
G01*
X67424800Y-61524800D01*
G75*
G02*
X67174800Y-61274800I0J250000D01*
G01*
X67174800Y-60524800D01*
G75*
G02*
X67424800Y-60274800I250000J0D01*
G01*
G37*
G36*
G01*
X85643550Y-133212300D02*
X86556050Y-133212300D01*
G75*
G02*
X86799800Y-133456050I0J-243750D01*
G01*
X86799800Y-133943550D01*
G75*
G02*
X86556050Y-134187300I-243750J0D01*
G01*
X85643550Y-134187300D01*
G75*
G02*
X85399800Y-133943550I0J243750D01*
G01*
X85399800Y-133456050D01*
G75*
G02*
X85643550Y-133212300I243750J0D01*
G01*
G37*
G36*
G01*
X85643550Y-131337300D02*
X86556050Y-131337300D01*
G75*
G02*
X86799800Y-131581050I0J-243750D01*
G01*
X86799800Y-132068550D01*
G75*
G02*
X86556050Y-132312300I-243750J0D01*
G01*
X85643550Y-132312300D01*
G75*
G02*
X85399800Y-132068550I0J243750D01*
G01*
X85399800Y-131581050D01*
G75*
G02*
X85643550Y-131337300I243750J0D01*
G01*
G37*
G36*
G01*
X86556050Y-128612300D02*
X85643550Y-128612300D01*
G75*
G02*
X85399800Y-128368550I0J243750D01*
G01*
X85399800Y-127881050D01*
G75*
G02*
X85643550Y-127637300I243750J0D01*
G01*
X86556050Y-127637300D01*
G75*
G02*
X86799800Y-127881050I0J-243750D01*
G01*
X86799800Y-128368550D01*
G75*
G02*
X86556050Y-128612300I-243750J0D01*
G01*
G37*
G36*
G01*
X86556050Y-130487300D02*
X85643550Y-130487300D01*
G75*
G02*
X85399800Y-130243550I0J243750D01*
G01*
X85399800Y-129756050D01*
G75*
G02*
X85643550Y-129512300I243750J0D01*
G01*
X86556050Y-129512300D01*
G75*
G02*
X86799800Y-129756050I0J-243750D01*
G01*
X86799800Y-130243550D01*
G75*
G02*
X86556050Y-130487300I-243750J0D01*
G01*
G37*
G36*
G01*
X92756050Y-137849800D02*
X91843550Y-137849800D01*
G75*
G02*
X91599800Y-137606050I0J243750D01*
G01*
X91599800Y-137118550D01*
G75*
G02*
X91843550Y-136874800I243750J0D01*
G01*
X92756050Y-136874800D01*
G75*
G02*
X92999800Y-137118550I0J-243750D01*
G01*
X92999800Y-137606050D01*
G75*
G02*
X92756050Y-137849800I-243750J0D01*
G01*
G37*
G36*
G01*
X92756050Y-139724800D02*
X91843550Y-139724800D01*
G75*
G02*
X91599800Y-139481050I0J243750D01*
G01*
X91599800Y-138993550D01*
G75*
G02*
X91843550Y-138749800I243750J0D01*
G01*
X92756050Y-138749800D01*
G75*
G02*
X92999800Y-138993550I0J-243750D01*
G01*
X92999800Y-139481050D01*
G75*
G02*
X92756050Y-139724800I-243750J0D01*
G01*
G37*
G36*
G01*
X68443550Y-135112300D02*
X69356050Y-135112300D01*
G75*
G02*
X69599800Y-135356050I0J-243750D01*
G01*
X69599800Y-135843550D01*
G75*
G02*
X69356050Y-136087300I-243750J0D01*
G01*
X68443550Y-136087300D01*
G75*
G02*
X68199800Y-135843550I0J243750D01*
G01*
X68199800Y-135356050D01*
G75*
G02*
X68443550Y-135112300I243750J0D01*
G01*
G37*
G36*
G01*
X68443550Y-133237300D02*
X69356050Y-133237300D01*
G75*
G02*
X69599800Y-133481050I0J-243750D01*
G01*
X69599800Y-133968550D01*
G75*
G02*
X69356050Y-134212300I-243750J0D01*
G01*
X68443550Y-134212300D01*
G75*
G02*
X68199800Y-133968550I0J243750D01*
G01*
X68199800Y-133481050D01*
G75*
G02*
X68443550Y-133237300I243750J0D01*
G01*
G37*
G36*
G01*
X74843550Y-135149800D02*
X75756050Y-135149800D01*
G75*
G02*
X75999800Y-135393550I0J-243750D01*
G01*
X75999800Y-135881050D01*
G75*
G02*
X75756050Y-136124800I-243750J0D01*
G01*
X74843550Y-136124800D01*
G75*
G02*
X74599800Y-135881050I0J243750D01*
G01*
X74599800Y-135393550D01*
G75*
G02*
X74843550Y-135149800I243750J0D01*
G01*
G37*
G36*
G01*
X74843550Y-133274800D02*
X75756050Y-133274800D01*
G75*
G02*
X75999800Y-133518550I0J-243750D01*
G01*
X75999800Y-134006050D01*
G75*
G02*
X75756050Y-134249800I-243750J0D01*
G01*
X74843550Y-134249800D01*
G75*
G02*
X74599800Y-134006050I0J243750D01*
G01*
X74599800Y-133518550D01*
G75*
G02*
X74843550Y-133274800I243750J0D01*
G01*
G37*
G36*
G01*
X135949800Y-87349797D02*
X135949800Y-96449803D01*
G75*
G02*
X135699803Y-96699800I-249997J0D01*
G01*
X128399797Y-96699800D01*
G75*
G02*
X128149800Y-96449803I0J249997D01*
G01*
X128149800Y-87349797D01*
G75*
G02*
X128399797Y-87099800I249997J0D01*
G01*
X135699803Y-87099800D01*
G75*
G02*
X135949800Y-87349797I0J-249997D01*
G01*
G37*
G36*
G01*
X148449800Y-87349797D02*
X148449800Y-96449803D01*
G75*
G02*
X148199803Y-96699800I-249997J0D01*
G01*
X140899797Y-96699800D01*
G75*
G02*
X140649800Y-96449803I0J249997D01*
G01*
X140649800Y-87349797D01*
G75*
G02*
X140899797Y-87099800I249997J0D01*
G01*
X148199803Y-87099800D01*
G75*
G02*
X148449800Y-87349797I0J-249997D01*
G01*
G37*
G36*
G01*
X144549800Y-69749797D02*
X144549800Y-78849803D01*
G75*
G02*
X144299803Y-79099800I-249997J0D01*
G01*
X136999797Y-79099800D01*
G75*
G02*
X136749800Y-78849803I0J249997D01*
G01*
X136749800Y-69749797D01*
G75*
G02*
X136999797Y-69499800I249997J0D01*
G01*
X144299803Y-69499800D01*
G75*
G02*
X144549800Y-69749797I0J-249997D01*
G01*
G37*
G36*
G01*
X132049800Y-69749797D02*
X132049800Y-78849803D01*
G75*
G02*
X131799803Y-79099800I-249997J0D01*
G01*
X124499797Y-79099800D01*
G75*
G02*
X124249800Y-78849803I0J249997D01*
G01*
X124249800Y-69749797D01*
G75*
G02*
X124499797Y-69499800I249997J0D01*
G01*
X131799803Y-69499800D01*
G75*
G02*
X132049800Y-69749797I0J-249997D01*
G01*
G37*
G36*
G01*
X120074800Y-60924799D02*
X120074800Y-63774801D01*
G75*
G02*
X119824801Y-64024800I-249999J0D01*
G01*
X118974799Y-64024800D01*
G75*
G02*
X118724800Y-63774801I0J249999D01*
G01*
X118724800Y-60924799D01*
G75*
G02*
X118974799Y-60674800I249999J0D01*
G01*
X119824801Y-60674800D01*
G75*
G02*
X120074800Y-60924799I0J-249999D01*
G01*
G37*
G36*
G01*
X125874800Y-60924799D02*
X125874800Y-63774801D01*
G75*
G02*
X125624801Y-64024800I-249999J0D01*
G01*
X124774799Y-64024800D01*
G75*
G02*
X124524800Y-63774801I0J249999D01*
G01*
X124524800Y-60924799D01*
G75*
G02*
X124774799Y-60674800I249999J0D01*
G01*
X125624801Y-60674800D01*
G75*
G02*
X125874800Y-60924799I0J-249999D01*
G01*
G37*
G36*
G01*
X72643550Y-133287300D02*
X73556050Y-133287300D01*
G75*
G02*
X73799800Y-133531050I0J-243750D01*
G01*
X73799800Y-134018550D01*
G75*
G02*
X73556050Y-134262300I-243750J0D01*
G01*
X72643550Y-134262300D01*
G75*
G02*
X72399800Y-134018550I0J243750D01*
G01*
X72399800Y-133531050D01*
G75*
G02*
X72643550Y-133287300I243750J0D01*
G01*
G37*
G36*
G01*
X72643550Y-135162300D02*
X73556050Y-135162300D01*
G75*
G02*
X73799800Y-135406050I0J-243750D01*
G01*
X73799800Y-135893550D01*
G75*
G02*
X73556050Y-136137300I-243750J0D01*
G01*
X72643550Y-136137300D01*
G75*
G02*
X72399800Y-135893550I0J243750D01*
G01*
X72399800Y-135406050D01*
G75*
G02*
X72643550Y-135162300I243750J0D01*
G01*
G37*
G36*
G01*
X126524800Y-129343550D02*
X126524800Y-130256050D01*
G75*
G02*
X126281050Y-130499800I-243750J0D01*
G01*
X125793550Y-130499800D01*
G75*
G02*
X125549800Y-130256050I0J243750D01*
G01*
X125549800Y-129343550D01*
G75*
G02*
X125793550Y-129099800I243750J0D01*
G01*
X126281050Y-129099800D01*
G75*
G02*
X126524800Y-129343550I0J-243750D01*
G01*
G37*
G36*
G01*
X124649800Y-129343550D02*
X124649800Y-130256050D01*
G75*
G02*
X124406050Y-130499800I-243750J0D01*
G01*
X123918550Y-130499800D01*
G75*
G02*
X123674800Y-130256050I0J243750D01*
G01*
X123674800Y-129343550D01*
G75*
G02*
X123918550Y-129099800I243750J0D01*
G01*
X124406050Y-129099800D01*
G75*
G02*
X124649800Y-129343550I0J-243750D01*
G01*
G37*
G36*
G01*
X136356050Y-127762300D02*
X135443550Y-127762300D01*
G75*
G02*
X135199800Y-127518550I0J243750D01*
G01*
X135199800Y-127031050D01*
G75*
G02*
X135443550Y-126787300I243750J0D01*
G01*
X136356050Y-126787300D01*
G75*
G02*
X136599800Y-127031050I0J-243750D01*
G01*
X136599800Y-127518550D01*
G75*
G02*
X136356050Y-127762300I-243750J0D01*
G01*
G37*
G36*
G01*
X136356050Y-125887300D02*
X135443550Y-125887300D01*
G75*
G02*
X135199800Y-125643550I0J243750D01*
G01*
X135199800Y-125156050D01*
G75*
G02*
X135443550Y-124912300I243750J0D01*
G01*
X136356050Y-124912300D01*
G75*
G02*
X136599800Y-125156050I0J-243750D01*
G01*
X136599800Y-125643550D01*
G75*
G02*
X136356050Y-125887300I-243750J0D01*
G01*
G37*
G36*
G01*
X126462300Y-126343550D02*
X126462300Y-127256050D01*
G75*
G02*
X126218550Y-127499800I-243750J0D01*
G01*
X125731050Y-127499800D01*
G75*
G02*
X125487300Y-127256050I0J243750D01*
G01*
X125487300Y-126343550D01*
G75*
G02*
X125731050Y-126099800I243750J0D01*
G01*
X126218550Y-126099800D01*
G75*
G02*
X126462300Y-126343550I0J-243750D01*
G01*
G37*
G36*
G01*
X124587300Y-126343550D02*
X124587300Y-127256050D01*
G75*
G02*
X124343550Y-127499800I-243750J0D01*
G01*
X123856050Y-127499800D01*
G75*
G02*
X123612300Y-127256050I0J243750D01*
G01*
X123612300Y-126343550D01*
G75*
G02*
X123856050Y-126099800I243750J0D01*
G01*
X124343550Y-126099800D01*
G75*
G02*
X124587300Y-126343550I0J-243750D01*
G01*
G37*
G36*
G01*
X133945561Y-139514279D02*
X134798439Y-140495403D01*
G75*
G02*
X134773776Y-140848094I-188677J-164014D01*
G01*
X134245478Y-141307336D01*
G75*
G02*
X133892787Y-141282673I-164014J188677D01*
G01*
X133039909Y-140301549D01*
G75*
G02*
X133064572Y-139948858I188677J164014D01*
G01*
X133592870Y-139489616D01*
G75*
G02*
X133945561Y-139514279I164014J-188677D01*
G01*
G37*
G36*
G01*
X139681354Y-134528230D02*
X140534232Y-135509354D01*
G75*
G02*
X140509569Y-135862045I-188677J-164014D01*
G01*
X139981271Y-136321287D01*
G75*
G02*
X139628580Y-136296624I-164014J188677D01*
G01*
X138775702Y-135315500D01*
G75*
G02*
X138800365Y-134962809I188677J164014D01*
G01*
X139328663Y-134503567D01*
G75*
G02*
X139681354Y-134528230I164014J-188677D01*
G01*
G37*
G36*
G01*
X133060124Y-136971446D02*
X133880197Y-137914833D01*
G75*
G02*
X133865400Y-138126448I-113206J-98409D01*
G01*
X133638987Y-138323265D01*
G75*
G02*
X133427372Y-138308468I-98409J113206D01*
G01*
X132607299Y-137365081D01*
G75*
G02*
X132622096Y-137153466I113206J98409D01*
G01*
X132848509Y-136956649D01*
G75*
G02*
X133060124Y-136971446I98409J-113206D01*
G01*
G37*
G36*
G01*
X133814833Y-136315387D02*
X134634906Y-137258774D01*
G75*
G02*
X134620109Y-137470389I-113206J-98409D01*
G01*
X134393696Y-137667206D01*
G75*
G02*
X134182081Y-137652409I-98409J113206D01*
G01*
X133362008Y-136709022D01*
G75*
G02*
X133376805Y-136497407I113206J98409D01*
G01*
X133603218Y-136300590D01*
G75*
G02*
X133814833Y-136315387I98409J-113206D01*
G01*
G37*
G36*
G01*
X134569543Y-135659328D02*
X135389616Y-136602715D01*
G75*
G02*
X135374819Y-136814330I-113206J-98409D01*
G01*
X135148406Y-137011147D01*
G75*
G02*
X134936791Y-136996350I-98409J113206D01*
G01*
X134116718Y-136052963D01*
G75*
G02*
X134131515Y-135841348I113206J98409D01*
G01*
X134357928Y-135644531D01*
G75*
G02*
X134569543Y-135659328I98409J-113206D01*
G01*
G37*
G36*
G01*
X135324253Y-135003269D02*
X136144326Y-135946656D01*
G75*
G02*
X136129529Y-136158271I-113206J-98409D01*
G01*
X135903116Y-136355088D01*
G75*
G02*
X135691501Y-136340291I-98409J113206D01*
G01*
X134871428Y-135396904D01*
G75*
G02*
X134886225Y-135185289I113206J98409D01*
G01*
X135112638Y-134988472D01*
G75*
G02*
X135324253Y-135003269I98409J-113206D01*
G01*
G37*
G36*
G01*
X136078962Y-134347210D02*
X136899035Y-135290597D01*
G75*
G02*
X136884238Y-135502212I-113206J-98409D01*
G01*
X136657825Y-135699029D01*
G75*
G02*
X136446210Y-135684232I-98409J113206D01*
G01*
X135626137Y-134740845D01*
G75*
G02*
X135640934Y-134529230I113206J98409D01*
G01*
X135867347Y-134332413D01*
G75*
G02*
X136078962Y-134347210I98409J-113206D01*
G01*
G37*
G36*
G01*
X136833672Y-133691151D02*
X137653745Y-134634538D01*
G75*
G02*
X137638948Y-134846153I-113206J-98409D01*
G01*
X137412535Y-135042970D01*
G75*
G02*
X137200920Y-135028173I-98409J113206D01*
G01*
X136380847Y-134084786D01*
G75*
G02*
X136395644Y-133873171I113206J98409D01*
G01*
X136622057Y-133676354D01*
G75*
G02*
X136833672Y-133691151I98409J-113206D01*
G01*
G37*
G36*
G01*
X83661500Y-121780740D02*
X84580740Y-120861500D01*
G75*
G02*
X84934292Y-120861500I176776J-176776D01*
G01*
X85429268Y-121356476D01*
G75*
G02*
X85429268Y-121710028I-176776J-176776D01*
G01*
X84510028Y-122629268D01*
G75*
G02*
X84156476Y-122629268I-176776J176776D01*
G01*
X83661500Y-122134292D01*
G75*
G02*
X83661500Y-121780740I176776J176776D01*
G01*
G37*
G36*
G01*
X81115916Y-119235156D02*
X82035156Y-118315916D01*
G75*
G02*
X82388708Y-118315916I176776J-176776D01*
G01*
X82883684Y-118810892D01*
G75*
G02*
X82883684Y-119164444I-176776J-176776D01*
G01*
X81964444Y-120083684D01*
G75*
G02*
X81610892Y-120083684I-176776J176776D01*
G01*
X81115916Y-119588708D01*
G75*
G02*
X81115916Y-119235156I176776J176776D01*
G01*
G37*
G36*
G01*
X81186627Y-122841400D02*
X82070511Y-121957516D01*
G75*
G02*
X82282643Y-121957516I106066J-106066D01*
G01*
X82494775Y-122169648D01*
G75*
G02*
X82494775Y-122381780I-106066J-106066D01*
G01*
X81610891Y-123265664D01*
G75*
G02*
X81398759Y-123265664I-106066J106066D01*
G01*
X81186627Y-123053532D01*
G75*
G02*
X81186627Y-122841400I106066J106066D01*
G01*
G37*
G36*
G01*
X80479520Y-122134293D02*
X81363404Y-121250409D01*
G75*
G02*
X81575536Y-121250409I106066J-106066D01*
G01*
X81787668Y-121462541D01*
G75*
G02*
X81787668Y-121674673I-106066J-106066D01*
G01*
X80903784Y-122558557D01*
G75*
G02*
X80691652Y-122558557I-106066J106066D01*
G01*
X80479520Y-122346425D01*
G75*
G02*
X80479520Y-122134293I106066J106066D01*
G01*
G37*
G36*
G01*
X70593550Y-133274800D02*
X71506050Y-133274800D01*
G75*
G02*
X71749800Y-133518550I0J-243750D01*
G01*
X71749800Y-134006050D01*
G75*
G02*
X71506050Y-134249800I-243750J0D01*
G01*
X70593550Y-134249800D01*
G75*
G02*
X70349800Y-134006050I0J243750D01*
G01*
X70349800Y-133518550D01*
G75*
G02*
X70593550Y-133274800I243750J0D01*
G01*
G37*
G36*
G01*
X70593550Y-135149800D02*
X71506050Y-135149800D01*
G75*
G02*
X71749800Y-135393550I0J-243750D01*
G01*
X71749800Y-135881050D01*
G75*
G02*
X71506050Y-136124800I-243750J0D01*
G01*
X70593550Y-136124800D01*
G75*
G02*
X70349800Y-135881050I0J243750D01*
G01*
X70349800Y-135393550D01*
G75*
G02*
X70593550Y-135149800I243750J0D01*
G01*
G37*
G36*
G01*
X47912300Y-95543550D02*
X47912300Y-96456050D01*
G75*
G02*
X47668550Y-96699800I-243750J0D01*
G01*
X47181050Y-96699800D01*
G75*
G02*
X46937300Y-96456050I0J243750D01*
G01*
X46937300Y-95543550D01*
G75*
G02*
X47181050Y-95299800I243750J0D01*
G01*
X47668550Y-95299800D01*
G75*
G02*
X47912300Y-95543550I0J-243750D01*
G01*
G37*
G36*
G01*
X49787300Y-95543550D02*
X49787300Y-96456050D01*
G75*
G02*
X49543550Y-96699800I-243750J0D01*
G01*
X49056050Y-96699800D01*
G75*
G02*
X48812300Y-96456050I0J243750D01*
G01*
X48812300Y-95543550D01*
G75*
G02*
X49056050Y-95299800I243750J0D01*
G01*
X49543550Y-95299800D01*
G75*
G02*
X49787300Y-95543550I0J-243750D01*
G01*
G37*
G36*
G01*
X60262300Y-95443550D02*
X60262300Y-96356050D01*
G75*
G02*
X60018550Y-96599800I-243750J0D01*
G01*
X59531050Y-96599800D01*
G75*
G02*
X59287300Y-96356050I0J243750D01*
G01*
X59287300Y-95443550D01*
G75*
G02*
X59531050Y-95199800I243750J0D01*
G01*
X60018550Y-95199800D01*
G75*
G02*
X60262300Y-95443550I0J-243750D01*
G01*
G37*
G36*
G01*
X58387300Y-95443550D02*
X58387300Y-96356050D01*
G75*
G02*
X58143550Y-96599800I-243750J0D01*
G01*
X57656050Y-96599800D01*
G75*
G02*
X57412300Y-96356050I0J243750D01*
G01*
X57412300Y-95443550D01*
G75*
G02*
X57656050Y-95199800I243750J0D01*
G01*
X58143550Y-95199800D01*
G75*
G02*
X58387300Y-95443550I0J-243750D01*
G01*
G37*
G36*
G01*
X69012300Y-95543550D02*
X69012300Y-96456050D01*
G75*
G02*
X68768550Y-96699800I-243750J0D01*
G01*
X68281050Y-96699800D01*
G75*
G02*
X68037300Y-96456050I0J243750D01*
G01*
X68037300Y-95543550D01*
G75*
G02*
X68281050Y-95299800I243750J0D01*
G01*
X68768550Y-95299800D01*
G75*
G02*
X69012300Y-95543550I0J-243750D01*
G01*
G37*
G36*
G01*
X70887300Y-95543550D02*
X70887300Y-96456050D01*
G75*
G02*
X70643550Y-96699800I-243750J0D01*
G01*
X70156050Y-96699800D01*
G75*
G02*
X69912300Y-96456050I0J243750D01*
G01*
X69912300Y-95543550D01*
G75*
G02*
X70156050Y-95299800I243750J0D01*
G01*
X70643550Y-95299800D01*
G75*
G02*
X70887300Y-95543550I0J-243750D01*
G01*
G37*
G36*
G01*
X46743550Y-93612300D02*
X47656050Y-93612300D01*
G75*
G02*
X47899800Y-93856050I0J-243750D01*
G01*
X47899800Y-94343550D01*
G75*
G02*
X47656050Y-94587300I-243750J0D01*
G01*
X46743550Y-94587300D01*
G75*
G02*
X46499800Y-94343550I0J243750D01*
G01*
X46499800Y-93856050D01*
G75*
G02*
X46743550Y-93612300I243750J0D01*
G01*
G37*
G36*
G01*
X46743550Y-91737300D02*
X47656050Y-91737300D01*
G75*
G02*
X47899800Y-91981050I0J-243750D01*
G01*
X47899800Y-92468550D01*
G75*
G02*
X47656050Y-92712300I-243750J0D01*
G01*
X46743550Y-92712300D01*
G75*
G02*
X46499800Y-92468550I0J243750D01*
G01*
X46499800Y-91981050D01*
G75*
G02*
X46743550Y-91737300I243750J0D01*
G01*
G37*
G36*
G01*
X67543550Y-93512300D02*
X68456050Y-93512300D01*
G75*
G02*
X68699800Y-93756050I0J-243750D01*
G01*
X68699800Y-94243550D01*
G75*
G02*
X68456050Y-94487300I-243750J0D01*
G01*
X67543550Y-94487300D01*
G75*
G02*
X67299800Y-94243550I0J243750D01*
G01*
X67299800Y-93756050D01*
G75*
G02*
X67543550Y-93512300I243750J0D01*
G01*
G37*
G36*
G01*
X67543550Y-91637300D02*
X68456050Y-91637300D01*
G75*
G02*
X68699800Y-91881050I0J-243750D01*
G01*
X68699800Y-92368550D01*
G75*
G02*
X68456050Y-92612300I-243750J0D01*
G01*
X67543550Y-92612300D01*
G75*
G02*
X67299800Y-92368550I0J243750D01*
G01*
X67299800Y-91881050D01*
G75*
G02*
X67543550Y-91637300I243750J0D01*
G01*
G37*
G36*
G01*
X94624800Y-62874800D02*
X96774800Y-62874800D01*
G75*
G02*
X97024800Y-63124800I0J-250000D01*
G01*
X97024800Y-63874800D01*
G75*
G02*
X96774800Y-64124800I-250000J0D01*
G01*
X94624800Y-64124800D01*
G75*
G02*
X94374800Y-63874800I0J250000D01*
G01*
X94374800Y-63124800D01*
G75*
G02*
X94624800Y-62874800I250000J0D01*
G01*
G37*
G36*
G01*
X94624800Y-60074800D02*
X96774800Y-60074800D01*
G75*
G02*
X97024800Y-60324800I0J-250000D01*
G01*
X97024800Y-61074800D01*
G75*
G02*
X96774800Y-61324800I-250000J0D01*
G01*
X94624800Y-61324800D01*
G75*
G02*
X94374800Y-61074800I0J250000D01*
G01*
X94374800Y-60324800D01*
G75*
G02*
X94624800Y-60074800I250000J0D01*
G01*
G37*
G36*
G01*
X111524800Y-63174800D02*
X113674800Y-63174800D01*
G75*
G02*
X113924800Y-63424800I0J-250000D01*
G01*
X113924800Y-64174800D01*
G75*
G02*
X113674800Y-64424800I-250000J0D01*
G01*
X111524800Y-64424800D01*
G75*
G02*
X111274800Y-64174800I0J250000D01*
G01*
X111274800Y-63424800D01*
G75*
G02*
X111524800Y-63174800I250000J0D01*
G01*
G37*
G36*
G01*
X111524800Y-60374800D02*
X113674800Y-60374800D01*
G75*
G02*
X113924800Y-60624800I0J-250000D01*
G01*
X113924800Y-61374800D01*
G75*
G02*
X113674800Y-61624800I-250000J0D01*
G01*
X111524800Y-61624800D01*
G75*
G02*
X111274800Y-61374800I0J250000D01*
G01*
X111274800Y-60624800D01*
G75*
G02*
X111524800Y-60374800I250000J0D01*
G01*
G37*
G36*
G01*
X70724800Y-63074800D02*
X72874800Y-63074800D01*
G75*
G02*
X73124800Y-63324800I0J-250000D01*
G01*
X73124800Y-64074800D01*
G75*
G02*
X72874800Y-64324800I-250000J0D01*
G01*
X70724800Y-64324800D01*
G75*
G02*
X70474800Y-64074800I0J250000D01*
G01*
X70474800Y-63324800D01*
G75*
G02*
X70724800Y-63074800I250000J0D01*
G01*
G37*
G36*
G01*
X70724800Y-60274800D02*
X72874800Y-60274800D01*
G75*
G02*
X73124800Y-60524800I0J-250000D01*
G01*
X73124800Y-61274800D01*
G75*
G02*
X72874800Y-61524800I-250000J0D01*
G01*
X70724800Y-61524800D01*
G75*
G02*
X70474800Y-61274800I0J250000D01*
G01*
X70474800Y-60524800D01*
G75*
G02*
X70724800Y-60274800I250000J0D01*
G01*
G37*
G36*
G01*
X114824800Y-63174800D02*
X116974800Y-63174800D01*
G75*
G02*
X117224800Y-63424800I0J-250000D01*
G01*
X117224800Y-64174800D01*
G75*
G02*
X116974800Y-64424800I-250000J0D01*
G01*
X114824800Y-64424800D01*
G75*
G02*
X114574800Y-64174800I0J250000D01*
G01*
X114574800Y-63424800D01*
G75*
G02*
X114824800Y-63174800I250000J0D01*
G01*
G37*
G36*
G01*
X114824800Y-60374800D02*
X116974800Y-60374800D01*
G75*
G02*
X117224800Y-60624800I0J-250000D01*
G01*
X117224800Y-61374800D01*
G75*
G02*
X116974800Y-61624800I-250000J0D01*
G01*
X114824800Y-61624800D01*
G75*
G02*
X114574800Y-61374800I0J250000D01*
G01*
X114574800Y-60624800D01*
G75*
G02*
X114824800Y-60374800I250000J0D01*
G01*
G37*
G36*
G01*
X91324800Y-62874800D02*
X93474800Y-62874800D01*
G75*
G02*
X93724800Y-63124800I0J-250000D01*
G01*
X93724800Y-63874800D01*
G75*
G02*
X93474800Y-64124800I-250000J0D01*
G01*
X91324800Y-64124800D01*
G75*
G02*
X91074800Y-63874800I0J250000D01*
G01*
X91074800Y-63124800D01*
G75*
G02*
X91324800Y-62874800I250000J0D01*
G01*
G37*
G36*
G01*
X91324800Y-60074800D02*
X93474800Y-60074800D01*
G75*
G02*
X93724800Y-60324800I0J-250000D01*
G01*
X93724800Y-61074800D01*
G75*
G02*
X93474800Y-61324800I-250000J0D01*
G01*
X91324800Y-61324800D01*
G75*
G02*
X91074800Y-61074800I0J250000D01*
G01*
X91074800Y-60324800D01*
G75*
G02*
X91324800Y-60074800I250000J0D01*
G01*
G37*
G36*
G01*
X74024800Y-63074800D02*
X76174800Y-63074800D01*
G75*
G02*
X76424800Y-63324800I0J-250000D01*
G01*
X76424800Y-64074800D01*
G75*
G02*
X76174800Y-64324800I-250000J0D01*
G01*
X74024800Y-64324800D01*
G75*
G02*
X73774800Y-64074800I0J250000D01*
G01*
X73774800Y-63324800D01*
G75*
G02*
X74024800Y-63074800I250000J0D01*
G01*
G37*
G36*
G01*
X74024800Y-60274800D02*
X76174800Y-60274800D01*
G75*
G02*
X76424800Y-60524800I0J-250000D01*
G01*
X76424800Y-61274800D01*
G75*
G02*
X76174800Y-61524800I-250000J0D01*
G01*
X74024800Y-61524800D01*
G75*
G02*
X73774800Y-61274800I0J250000D01*
G01*
X73774800Y-60524800D01*
G75*
G02*
X74024800Y-60274800I250000J0D01*
G01*
G37*
G36*
G01*
X69843550Y-93512300D02*
X70756050Y-93512300D01*
G75*
G02*
X70999800Y-93756050I0J-243750D01*
G01*
X70999800Y-94243550D01*
G75*
G02*
X70756050Y-94487300I-243750J0D01*
G01*
X69843550Y-94487300D01*
G75*
G02*
X69599800Y-94243550I0J243750D01*
G01*
X69599800Y-93756050D01*
G75*
G02*
X69843550Y-93512300I243750J0D01*
G01*
G37*
G36*
G01*
X69843550Y-91637300D02*
X70756050Y-91637300D01*
G75*
G02*
X70999800Y-91881050I0J-243750D01*
G01*
X70999800Y-92368550D01*
G75*
G02*
X70756050Y-92612300I-243750J0D01*
G01*
X69843550Y-92612300D01*
G75*
G02*
X69599800Y-92368550I0J243750D01*
G01*
X69599800Y-91881050D01*
G75*
G02*
X69843550Y-91637300I243750J0D01*
G01*
G37*
G36*
G01*
X79112300Y-79943550D02*
X79112300Y-80856050D01*
G75*
G02*
X78868550Y-81099800I-243750J0D01*
G01*
X78381050Y-81099800D01*
G75*
G02*
X78137300Y-80856050I0J243750D01*
G01*
X78137300Y-79943550D01*
G75*
G02*
X78381050Y-79699800I243750J0D01*
G01*
X78868550Y-79699800D01*
G75*
G02*
X79112300Y-79943550I0J-243750D01*
G01*
G37*
G36*
G01*
X80987300Y-79943550D02*
X80987300Y-80856050D01*
G75*
G02*
X80743550Y-81099800I-243750J0D01*
G01*
X80256050Y-81099800D01*
G75*
G02*
X80012300Y-80856050I0J243750D01*
G01*
X80012300Y-79943550D01*
G75*
G02*
X80256050Y-79699800I243750J0D01*
G01*
X80743550Y-79699800D01*
G75*
G02*
X80987300Y-79943550I0J-243750D01*
G01*
G37*
G36*
G01*
X116787300Y-52343550D02*
X116787300Y-53256050D01*
G75*
G02*
X116543550Y-53499800I-243750J0D01*
G01*
X116056050Y-53499800D01*
G75*
G02*
X115812300Y-53256050I0J243750D01*
G01*
X115812300Y-52343550D01*
G75*
G02*
X116056050Y-52099800I243750J0D01*
G01*
X116543550Y-52099800D01*
G75*
G02*
X116787300Y-52343550I0J-243750D01*
G01*
G37*
G36*
G01*
X118662300Y-52343550D02*
X118662300Y-53256050D01*
G75*
G02*
X118418550Y-53499800I-243750J0D01*
G01*
X117931050Y-53499800D01*
G75*
G02*
X117687300Y-53256050I0J243750D01*
G01*
X117687300Y-52343550D01*
G75*
G02*
X117931050Y-52099800I243750J0D01*
G01*
X118418550Y-52099800D01*
G75*
G02*
X118662300Y-52343550I0J-243750D01*
G01*
G37*
G36*
G01*
X108849800Y-69643550D02*
X108849800Y-70556050D01*
G75*
G02*
X108606050Y-70799800I-243750J0D01*
G01*
X108118550Y-70799800D01*
G75*
G02*
X107874800Y-70556050I0J243750D01*
G01*
X107874800Y-69643550D01*
G75*
G02*
X108118550Y-69399800I243750J0D01*
G01*
X108606050Y-69399800D01*
G75*
G02*
X108849800Y-69643550I0J-243750D01*
G01*
G37*
G36*
G01*
X110724800Y-69643550D02*
X110724800Y-70556050D01*
G75*
G02*
X110481050Y-70799800I-243750J0D01*
G01*
X109993550Y-70799800D01*
G75*
G02*
X109749800Y-70556050I0J243750D01*
G01*
X109749800Y-69643550D01*
G75*
G02*
X109993550Y-69399800I243750J0D01*
G01*
X110481050Y-69399800D01*
G75*
G02*
X110724800Y-69643550I0J-243750D01*
G01*
G37*
G36*
G01*
X76049800Y-51943550D02*
X76049800Y-52856050D01*
G75*
G02*
X75806050Y-53099800I-243750J0D01*
G01*
X75318550Y-53099800D01*
G75*
G02*
X75074800Y-52856050I0J243750D01*
G01*
X75074800Y-51943550D01*
G75*
G02*
X75318550Y-51699800I243750J0D01*
G01*
X75806050Y-51699800D01*
G75*
G02*
X76049800Y-51943550I0J-243750D01*
G01*
G37*
G36*
G01*
X77924800Y-51943550D02*
X77924800Y-52856050D01*
G75*
G02*
X77681050Y-53099800I-243750J0D01*
G01*
X77193550Y-53099800D01*
G75*
G02*
X76949800Y-52856050I0J243750D01*
G01*
X76949800Y-51943550D01*
G75*
G02*
X77193550Y-51699800I243750J0D01*
G01*
X77681050Y-51699800D01*
G75*
G02*
X77924800Y-51943550I0J-243750D01*
G01*
G37*
G36*
G01*
X49143550Y-93549800D02*
X50056050Y-93549800D01*
G75*
G02*
X50299800Y-93793550I0J-243750D01*
G01*
X50299800Y-94281050D01*
G75*
G02*
X50056050Y-94524800I-243750J0D01*
G01*
X49143550Y-94524800D01*
G75*
G02*
X48899800Y-94281050I0J243750D01*
G01*
X48899800Y-93793550D01*
G75*
G02*
X49143550Y-93549800I243750J0D01*
G01*
G37*
G36*
G01*
X49143550Y-91674800D02*
X50056050Y-91674800D01*
G75*
G02*
X50299800Y-91918550I0J-243750D01*
G01*
X50299800Y-92406050D01*
G75*
G02*
X50056050Y-92649800I-243750J0D01*
G01*
X49143550Y-92649800D01*
G75*
G02*
X48899800Y-92406050I0J243750D01*
G01*
X48899800Y-91918550D01*
G75*
G02*
X49143550Y-91674800I243750J0D01*
G01*
G37*
G36*
G01*
X59243550Y-91537300D02*
X60156050Y-91537300D01*
G75*
G02*
X60399800Y-91781050I0J-243750D01*
G01*
X60399800Y-92268550D01*
G75*
G02*
X60156050Y-92512300I-243750J0D01*
G01*
X59243550Y-92512300D01*
G75*
G02*
X58999800Y-92268550I0J243750D01*
G01*
X58999800Y-91781050D01*
G75*
G02*
X59243550Y-91537300I243750J0D01*
G01*
G37*
G36*
G01*
X59243550Y-93412300D02*
X60156050Y-93412300D01*
G75*
G02*
X60399800Y-93656050I0J-243750D01*
G01*
X60399800Y-94143550D01*
G75*
G02*
X60156050Y-94387300I-243750J0D01*
G01*
X59243550Y-94387300D01*
G75*
G02*
X58999800Y-94143550I0J243750D01*
G01*
X58999800Y-93656050D01*
G75*
G02*
X59243550Y-93412300I243750J0D01*
G01*
G37*
G36*
G01*
X67849800Y-69443550D02*
X67849800Y-70356050D01*
G75*
G02*
X67606050Y-70599800I-243750J0D01*
G01*
X67118550Y-70599800D01*
G75*
G02*
X66874800Y-70356050I0J243750D01*
G01*
X66874800Y-69443550D01*
G75*
G02*
X67118550Y-69199800I243750J0D01*
G01*
X67606050Y-69199800D01*
G75*
G02*
X67849800Y-69443550I0J-243750D01*
G01*
G37*
G36*
G01*
X69724800Y-69443550D02*
X69724800Y-70356050D01*
G75*
G02*
X69481050Y-70599800I-243750J0D01*
G01*
X68993550Y-70599800D01*
G75*
G02*
X68749800Y-70356050I0J243750D01*
G01*
X68749800Y-69443550D01*
G75*
G02*
X68993550Y-69199800I243750J0D01*
G01*
X69481050Y-69199800D01*
G75*
G02*
X69724800Y-69443550I0J-243750D01*
G01*
G37*
G36*
G01*
X57043550Y-91474800D02*
X57956050Y-91474800D01*
G75*
G02*
X58199800Y-91718550I0J-243750D01*
G01*
X58199800Y-92206050D01*
G75*
G02*
X57956050Y-92449800I-243750J0D01*
G01*
X57043550Y-92449800D01*
G75*
G02*
X56799800Y-92206050I0J243750D01*
G01*
X56799800Y-91718550D01*
G75*
G02*
X57043550Y-91474800I243750J0D01*
G01*
G37*
G36*
G01*
X57043550Y-93349800D02*
X57956050Y-93349800D01*
G75*
G02*
X58199800Y-93593550I0J-243750D01*
G01*
X58199800Y-94081050D01*
G75*
G02*
X57956050Y-94324800I-243750J0D01*
G01*
X57043550Y-94324800D01*
G75*
G02*
X56799800Y-94081050I0J243750D01*
G01*
X56799800Y-93593550D01*
G75*
G02*
X57043550Y-93349800I243750J0D01*
G01*
G37*
G36*
G01*
X88349800Y-69343550D02*
X88349800Y-70256050D01*
G75*
G02*
X88106050Y-70499800I-243750J0D01*
G01*
X87618550Y-70499800D01*
G75*
G02*
X87374800Y-70256050I0J243750D01*
G01*
X87374800Y-69343550D01*
G75*
G02*
X87618550Y-69099800I243750J0D01*
G01*
X88106050Y-69099800D01*
G75*
G02*
X88349800Y-69343550I0J-243750D01*
G01*
G37*
G36*
G01*
X90224800Y-69343550D02*
X90224800Y-70256050D01*
G75*
G02*
X89981050Y-70499800I-243750J0D01*
G01*
X89493550Y-70499800D01*
G75*
G02*
X89249800Y-70256050I0J243750D01*
G01*
X89249800Y-69343550D01*
G75*
G02*
X89493550Y-69099800I243750J0D01*
G01*
X89981050Y-69099800D01*
G75*
G02*
X90224800Y-69343550I0J-243750D01*
G01*
G37*
G36*
G01*
X95687300Y-52043550D02*
X95687300Y-52956050D01*
G75*
G02*
X95443550Y-53199800I-243750J0D01*
G01*
X94956050Y-53199800D01*
G75*
G02*
X94712300Y-52956050I0J243750D01*
G01*
X94712300Y-52043550D01*
G75*
G02*
X94956050Y-51799800I243750J0D01*
G01*
X95443550Y-51799800D01*
G75*
G02*
X95687300Y-52043550I0J-243750D01*
G01*
G37*
G36*
G01*
X97562300Y-52043550D02*
X97562300Y-52956050D01*
G75*
G02*
X97318550Y-53199800I-243750J0D01*
G01*
X96831050Y-53199800D01*
G75*
G02*
X96587300Y-52956050I0J243750D01*
G01*
X96587300Y-52043550D01*
G75*
G02*
X96831050Y-51799800I243750J0D01*
G01*
X97318550Y-51799800D01*
G75*
G02*
X97562300Y-52043550I0J-243750D01*
G01*
G37*
G36*
G01*
X78974800Y-60774799D02*
X78974800Y-63624801D01*
G75*
G02*
X78724801Y-63874800I-249999J0D01*
G01*
X77874799Y-63874800D01*
G75*
G02*
X77624800Y-63624801I0J249999D01*
G01*
X77624800Y-60774799D01*
G75*
G02*
X77874799Y-60524800I249999J0D01*
G01*
X78724801Y-60524800D01*
G75*
G02*
X78974800Y-60774799I0J-249999D01*
G01*
G37*
G36*
G01*
X84774800Y-60774799D02*
X84774800Y-63624801D01*
G75*
G02*
X84524801Y-63874800I-249999J0D01*
G01*
X83674799Y-63874800D01*
G75*
G02*
X83424800Y-63624801I0J249999D01*
G01*
X83424800Y-60774799D01*
G75*
G02*
X83674799Y-60524800I249999J0D01*
G01*
X84524801Y-60524800D01*
G75*
G02*
X84774800Y-60774799I0J-249999D01*
G01*
G37*
G36*
G01*
X105374800Y-60774799D02*
X105374800Y-63624801D01*
G75*
G02*
X105124801Y-63874800I-249999J0D01*
G01*
X104274799Y-63874800D01*
G75*
G02*
X104024800Y-63624801I0J249999D01*
G01*
X104024800Y-60774799D01*
G75*
G02*
X104274799Y-60524800I249999J0D01*
G01*
X105124801Y-60524800D01*
G75*
G02*
X105374800Y-60774799I0J-249999D01*
G01*
G37*
G36*
G01*
X99574800Y-60774799D02*
X99574800Y-63624801D01*
G75*
G02*
X99324801Y-63874800I-249999J0D01*
G01*
X98474799Y-63874800D01*
G75*
G02*
X98224800Y-63624801I0J249999D01*
G01*
X98224800Y-60774799D01*
G75*
G02*
X98474799Y-60524800I249999J0D01*
G01*
X99324801Y-60524800D01*
G75*
G02*
X99574800Y-60774799I0J-249999D01*
G01*
G37*
G36*
G01*
X60956050Y-82987300D02*
X60043550Y-82987300D01*
G75*
G02*
X59799800Y-82743550I0J243750D01*
G01*
X59799800Y-82256050D01*
G75*
G02*
X60043550Y-82012300I243750J0D01*
G01*
X60956050Y-82012300D01*
G75*
G02*
X61199800Y-82256050I0J-243750D01*
G01*
X61199800Y-82743550D01*
G75*
G02*
X60956050Y-82987300I-243750J0D01*
G01*
G37*
G36*
G01*
X60956050Y-84862300D02*
X60043550Y-84862300D01*
G75*
G02*
X59799800Y-84618550I0J243750D01*
G01*
X59799800Y-84131050D01*
G75*
G02*
X60043550Y-83887300I243750J0D01*
G01*
X60956050Y-83887300D01*
G75*
G02*
X61199800Y-84131050I0J-243750D01*
G01*
X61199800Y-84618550D01*
G75*
G02*
X60956050Y-84862300I-243750J0D01*
G01*
G37*
G36*
G01*
X60043550Y-80212300D02*
X60956050Y-80212300D01*
G75*
G02*
X61199800Y-80456050I0J-243750D01*
G01*
X61199800Y-80943550D01*
G75*
G02*
X60956050Y-81187300I-243750J0D01*
G01*
X60043550Y-81187300D01*
G75*
G02*
X59799800Y-80943550I0J243750D01*
G01*
X59799800Y-80456050D01*
G75*
G02*
X60043550Y-80212300I243750J0D01*
G01*
G37*
G36*
G01*
X60043550Y-78337300D02*
X60956050Y-78337300D01*
G75*
G02*
X61199800Y-78581050I0J-243750D01*
G01*
X61199800Y-79068550D01*
G75*
G02*
X60956050Y-79312300I-243750J0D01*
G01*
X60043550Y-79312300D01*
G75*
G02*
X59799800Y-79068550I0J243750D01*
G01*
X59799800Y-78581050D01*
G75*
G02*
X60043550Y-78337300I243750J0D01*
G01*
G37*
G36*
G01*
X70356050Y-83212300D02*
X69443550Y-83212300D01*
G75*
G02*
X69199800Y-82968550I0J243750D01*
G01*
X69199800Y-82481050D01*
G75*
G02*
X69443550Y-82237300I243750J0D01*
G01*
X70356050Y-82237300D01*
G75*
G02*
X70599800Y-82481050I0J-243750D01*
G01*
X70599800Y-82968550D01*
G75*
G02*
X70356050Y-83212300I-243750J0D01*
G01*
G37*
G36*
G01*
X70356050Y-85087300D02*
X69443550Y-85087300D01*
G75*
G02*
X69199800Y-84843550I0J243750D01*
G01*
X69199800Y-84356050D01*
G75*
G02*
X69443550Y-84112300I243750J0D01*
G01*
X70356050Y-84112300D01*
G75*
G02*
X70599800Y-84356050I0J-243750D01*
G01*
X70599800Y-84843550D01*
G75*
G02*
X70356050Y-85087300I-243750J0D01*
G01*
G37*
D15*
X72029800Y-78999800D03*
X73299800Y-78999800D03*
X74569800Y-78999800D03*
X75839800Y-78999800D03*
X75839800Y-84399800D03*
X74569800Y-84399800D03*
X73299800Y-84399800D03*
X72029800Y-84399800D03*
X62594800Y-78899800D03*
X63864800Y-78899800D03*
X65134800Y-78899800D03*
X66404800Y-78899800D03*
X66404800Y-84299800D03*
X65134800Y-84299800D03*
X63864800Y-84299800D03*
X62594800Y-84299800D03*
G36*
G01*
X51356050Y-83149800D02*
X50443550Y-83149800D01*
G75*
G02*
X50199800Y-82906050I0J243750D01*
G01*
X50199800Y-82418550D01*
G75*
G02*
X50443550Y-82174800I243750J0D01*
G01*
X51356050Y-82174800D01*
G75*
G02*
X51599800Y-82418550I0J-243750D01*
G01*
X51599800Y-82906050D01*
G75*
G02*
X51356050Y-83149800I-243750J0D01*
G01*
G37*
G36*
G01*
X51356050Y-85024800D02*
X50443550Y-85024800D01*
G75*
G02*
X50199800Y-84781050I0J243750D01*
G01*
X50199800Y-84293550D01*
G75*
G02*
X50443550Y-84049800I243750J0D01*
G01*
X51356050Y-84049800D01*
G75*
G02*
X51599800Y-84293550I0J-243750D01*
G01*
X51599800Y-84781050D01*
G75*
G02*
X51356050Y-85024800I-243750J0D01*
G01*
G37*
G36*
G01*
X69443550Y-80412300D02*
X70356050Y-80412300D01*
G75*
G02*
X70599800Y-80656050I0J-243750D01*
G01*
X70599800Y-81143550D01*
G75*
G02*
X70356050Y-81387300I-243750J0D01*
G01*
X69443550Y-81387300D01*
G75*
G02*
X69199800Y-81143550I0J243750D01*
G01*
X69199800Y-80656050D01*
G75*
G02*
X69443550Y-80412300I243750J0D01*
G01*
G37*
G36*
G01*
X69443550Y-78537300D02*
X70356050Y-78537300D01*
G75*
G02*
X70599800Y-78781050I0J-243750D01*
G01*
X70599800Y-79268550D01*
G75*
G02*
X70356050Y-79512300I-243750J0D01*
G01*
X69443550Y-79512300D01*
G75*
G02*
X69199800Y-79268550I0J243750D01*
G01*
X69199800Y-78781050D01*
G75*
G02*
X69443550Y-78537300I243750J0D01*
G01*
G37*
G36*
G01*
X50443550Y-80287300D02*
X51356050Y-80287300D01*
G75*
G02*
X51599800Y-80531050I0J-243750D01*
G01*
X51599800Y-81018550D01*
G75*
G02*
X51356050Y-81262300I-243750J0D01*
G01*
X50443550Y-81262300D01*
G75*
G02*
X50199800Y-81018550I0J243750D01*
G01*
X50199800Y-80531050D01*
G75*
G02*
X50443550Y-80287300I243750J0D01*
G01*
G37*
G36*
G01*
X50443550Y-78412300D02*
X51356050Y-78412300D01*
G75*
G02*
X51599800Y-78656050I0J-243750D01*
G01*
X51599800Y-79143550D01*
G75*
G02*
X51356050Y-79387300I-243750J0D01*
G01*
X50443550Y-79387300D01*
G75*
G02*
X50199800Y-79143550I0J243750D01*
G01*
X50199800Y-78656050D01*
G75*
G02*
X50443550Y-78412300I243750J0D01*
G01*
G37*
D25*
X49825400Y-106299800D03*
X49825400Y-109999800D03*
D26*
X60321600Y-105281200D03*
X60821600Y-105281200D03*
X61321600Y-105281200D03*
X61821600Y-105281200D03*
X62321600Y-105281200D03*
X62821600Y-105281200D03*
X63321600Y-105281200D03*
X63821600Y-105281200D03*
X64321600Y-105281200D03*
X64821600Y-105281200D03*
X65321600Y-105281200D03*
X65821600Y-105281200D03*
X66321600Y-105281200D03*
X66821600Y-105281200D03*
X67321600Y-105281200D03*
X67821600Y-105281200D03*
D27*
X69771600Y-107231200D03*
X69771600Y-107731200D03*
X69771600Y-108231200D03*
X69771600Y-108731200D03*
X69771600Y-109231200D03*
X69771600Y-109731200D03*
X69771600Y-110231200D03*
X69771600Y-110731200D03*
X69771600Y-111231200D03*
X69771600Y-111731200D03*
X69771600Y-112231200D03*
X69771600Y-112731200D03*
X69771600Y-113231200D03*
X69771600Y-113731200D03*
X69771600Y-114231200D03*
X69771600Y-114731200D03*
D26*
X67821600Y-116681200D03*
X67321600Y-116681200D03*
X66821600Y-116681200D03*
X66321600Y-116681200D03*
X65821600Y-116681200D03*
X65321600Y-116681200D03*
X64821600Y-116681200D03*
X64321600Y-116681200D03*
X63821600Y-116681200D03*
X63321600Y-116681200D03*
X62821600Y-116681200D03*
X62321600Y-116681200D03*
X61821600Y-116681200D03*
X61321600Y-116681200D03*
X60821600Y-116681200D03*
X60321600Y-116681200D03*
D27*
X58371600Y-114731200D03*
X58371600Y-114231200D03*
X58371600Y-113731200D03*
X58371600Y-113231200D03*
X58371600Y-112731200D03*
X58371600Y-112231200D03*
X58371600Y-111731200D03*
X58371600Y-111231200D03*
X58371600Y-110731200D03*
X58371600Y-110231200D03*
X58371600Y-109731200D03*
X58371600Y-109231200D03*
X58371600Y-108731200D03*
X58371600Y-108231200D03*
X58371600Y-107731200D03*
X58371600Y-107231200D03*
G36*
G01*
X50487300Y-115456050D02*
X50487300Y-114543550D01*
G75*
G02*
X50731050Y-114299800I243750J0D01*
G01*
X51218550Y-114299800D01*
G75*
G02*
X51462300Y-114543550I0J-243750D01*
G01*
X51462300Y-115456050D01*
G75*
G02*
X51218550Y-115699800I-243750J0D01*
G01*
X50731050Y-115699800D01*
G75*
G02*
X50487300Y-115456050I0J243750D01*
G01*
G37*
G36*
G01*
X48612300Y-115456050D02*
X48612300Y-114543550D01*
G75*
G02*
X48856050Y-114299800I243750J0D01*
G01*
X49343550Y-114299800D01*
G75*
G02*
X49587300Y-114543550I0J-243750D01*
G01*
X49587300Y-115456050D01*
G75*
G02*
X49343550Y-115699800I-243750J0D01*
G01*
X48856050Y-115699800D01*
G75*
G02*
X48612300Y-115456050I0J243750D01*
G01*
G37*
G36*
G01*
X66603800Y-118528550D02*
X66603800Y-119441050D01*
G75*
G02*
X66360050Y-119684800I-243750J0D01*
G01*
X65872550Y-119684800D01*
G75*
G02*
X65628800Y-119441050I0J243750D01*
G01*
X65628800Y-118528550D01*
G75*
G02*
X65872550Y-118284800I243750J0D01*
G01*
X66360050Y-118284800D01*
G75*
G02*
X66603800Y-118528550I0J-243750D01*
G01*
G37*
G36*
G01*
X68478800Y-118528550D02*
X68478800Y-119441050D01*
G75*
G02*
X68235050Y-119684800I-243750J0D01*
G01*
X67747550Y-119684800D01*
G75*
G02*
X67503800Y-119441050I0J243750D01*
G01*
X67503800Y-118528550D01*
G75*
G02*
X67747550Y-118284800I243750J0D01*
G01*
X68235050Y-118284800D01*
G75*
G02*
X68478800Y-118528550I0J-243750D01*
G01*
G37*
G36*
G01*
X72497050Y-123605799D02*
X71584550Y-123605799D01*
G75*
G02*
X71340800Y-123362049I0J243750D01*
G01*
X71340800Y-122874549D01*
G75*
G02*
X71584550Y-122630799I243750J0D01*
G01*
X72497050Y-122630799D01*
G75*
G02*
X72740800Y-122874549I0J-243750D01*
G01*
X72740800Y-123362049D01*
G75*
G02*
X72497050Y-123605799I-243750J0D01*
G01*
G37*
G36*
G01*
X72497050Y-125480799D02*
X71584550Y-125480799D01*
G75*
G02*
X71340800Y-125237049I0J243750D01*
G01*
X71340800Y-124749549D01*
G75*
G02*
X71584550Y-124505799I243750J0D01*
G01*
X72497050Y-124505799D01*
G75*
G02*
X72740800Y-124749549I0J-243750D01*
G01*
X72740800Y-125237049D01*
G75*
G02*
X72497050Y-125480799I-243750J0D01*
G01*
G37*
G36*
G01*
X103349800Y-132306050D02*
X103349800Y-131393550D01*
G75*
G02*
X103593550Y-131149800I243750J0D01*
G01*
X104081050Y-131149800D01*
G75*
G02*
X104324800Y-131393550I0J-243750D01*
G01*
X104324800Y-132306050D01*
G75*
G02*
X104081050Y-132549800I-243750J0D01*
G01*
X103593550Y-132549800D01*
G75*
G02*
X103349800Y-132306050I0J243750D01*
G01*
G37*
G36*
G01*
X101474800Y-132306050D02*
X101474800Y-131393550D01*
G75*
G02*
X101718550Y-131149800I243750J0D01*
G01*
X102206050Y-131149800D01*
G75*
G02*
X102449800Y-131393550I0J-243750D01*
G01*
X102449800Y-132306050D01*
G75*
G02*
X102206050Y-132549800I-243750J0D01*
G01*
X101718550Y-132549800D01*
G75*
G02*
X101474800Y-132306050I0J243750D01*
G01*
G37*
G36*
G01*
X98049800Y-141643550D02*
X98049800Y-142556050D01*
G75*
G02*
X97806050Y-142799800I-243750J0D01*
G01*
X97318550Y-142799800D01*
G75*
G02*
X97074800Y-142556050I0J243750D01*
G01*
X97074800Y-141643550D01*
G75*
G02*
X97318550Y-141399800I243750J0D01*
G01*
X97806050Y-141399800D01*
G75*
G02*
X98049800Y-141643550I0J-243750D01*
G01*
G37*
G36*
G01*
X99924800Y-141643550D02*
X99924800Y-142556050D01*
G75*
G02*
X99681050Y-142799800I-243750J0D01*
G01*
X99193550Y-142799800D01*
G75*
G02*
X98949800Y-142556050I0J243750D01*
G01*
X98949800Y-141643550D01*
G75*
G02*
X99193550Y-141399800I243750J0D01*
G01*
X99681050Y-141399800D01*
G75*
G02*
X99924800Y-141643550I0J-243750D01*
G01*
G37*
G36*
G01*
X89643550Y-138787300D02*
X90556050Y-138787300D01*
G75*
G02*
X90799800Y-139031050I0J-243750D01*
G01*
X90799800Y-139518550D01*
G75*
G02*
X90556050Y-139762300I-243750J0D01*
G01*
X89643550Y-139762300D01*
G75*
G02*
X89399800Y-139518550I0J243750D01*
G01*
X89399800Y-139031050D01*
G75*
G02*
X89643550Y-138787300I243750J0D01*
G01*
G37*
G36*
G01*
X89643550Y-136912300D02*
X90556050Y-136912300D01*
G75*
G02*
X90799800Y-137156050I0J-243750D01*
G01*
X90799800Y-137643550D01*
G75*
G02*
X90556050Y-137887300I-243750J0D01*
G01*
X89643550Y-137887300D01*
G75*
G02*
X89399800Y-137643550I0J243750D01*
G01*
X89399800Y-137156050D01*
G75*
G02*
X89643550Y-136912300I243750J0D01*
G01*
G37*
G36*
G01*
X101253550Y-147189800D02*
X102166050Y-147189800D01*
G75*
G02*
X102409800Y-147433550I0J-243750D01*
G01*
X102409800Y-147921050D01*
G75*
G02*
X102166050Y-148164800I-243750J0D01*
G01*
X101253550Y-148164800D01*
G75*
G02*
X101009800Y-147921050I0J243750D01*
G01*
X101009800Y-147433550D01*
G75*
G02*
X101253550Y-147189800I243750J0D01*
G01*
G37*
G36*
G01*
X101253550Y-145314800D02*
X102166050Y-145314800D01*
G75*
G02*
X102409800Y-145558550I0J-243750D01*
G01*
X102409800Y-146046050D01*
G75*
G02*
X102166050Y-146289800I-243750J0D01*
G01*
X101253550Y-146289800D01*
G75*
G02*
X101009800Y-146046050I0J243750D01*
G01*
X101009800Y-145558550D01*
G75*
G02*
X101253550Y-145314800I243750J0D01*
G01*
G37*
G36*
G01*
X79391545Y-142237300D02*
X80304045Y-142237300D01*
G75*
G02*
X80547795Y-142481050I0J-243750D01*
G01*
X80547795Y-142968550D01*
G75*
G02*
X80304045Y-143212300I-243750J0D01*
G01*
X79391545Y-143212300D01*
G75*
G02*
X79147795Y-142968550I0J243750D01*
G01*
X79147795Y-142481050D01*
G75*
G02*
X79391545Y-142237300I243750J0D01*
G01*
G37*
G36*
G01*
X79391545Y-140362300D02*
X80304045Y-140362300D01*
G75*
G02*
X80547795Y-140606050I0J-243750D01*
G01*
X80547795Y-141093550D01*
G75*
G02*
X80304045Y-141337300I-243750J0D01*
G01*
X79391545Y-141337300D01*
G75*
G02*
X79147795Y-141093550I0J243750D01*
G01*
X79147795Y-140606050D01*
G75*
G02*
X79391545Y-140362300I243750J0D01*
G01*
G37*
G36*
G01*
X99153550Y-147212299D02*
X100066050Y-147212299D01*
G75*
G02*
X100309800Y-147456049I0J-243750D01*
G01*
X100309800Y-147943549D01*
G75*
G02*
X100066050Y-148187299I-243750J0D01*
G01*
X99153550Y-148187299D01*
G75*
G02*
X98909800Y-147943549I0J243750D01*
G01*
X98909800Y-147456049D01*
G75*
G02*
X99153550Y-147212299I243750J0D01*
G01*
G37*
G36*
G01*
X99153550Y-145337299D02*
X100066050Y-145337299D01*
G75*
G02*
X100309800Y-145581049I0J-243750D01*
G01*
X100309800Y-146068549D01*
G75*
G02*
X100066050Y-146312299I-243750J0D01*
G01*
X99153550Y-146312299D01*
G75*
G02*
X98909800Y-146068549I0J243750D01*
G01*
X98909800Y-145581049D01*
G75*
G02*
X99153550Y-145337299I243750J0D01*
G01*
G37*
G36*
G01*
X81693550Y-143087300D02*
X82606050Y-143087300D01*
G75*
G02*
X82849800Y-143331050I0J-243750D01*
G01*
X82849800Y-143818550D01*
G75*
G02*
X82606050Y-144062300I-243750J0D01*
G01*
X81693550Y-144062300D01*
G75*
G02*
X81449800Y-143818550I0J243750D01*
G01*
X81449800Y-143331050D01*
G75*
G02*
X81693550Y-143087300I243750J0D01*
G01*
G37*
G36*
G01*
X81693550Y-141212300D02*
X82606050Y-141212300D01*
G75*
G02*
X82849800Y-141456050I0J-243750D01*
G01*
X82849800Y-141943550D01*
G75*
G02*
X82606050Y-142187300I-243750J0D01*
G01*
X81693550Y-142187300D01*
G75*
G02*
X81449800Y-141943550I0J243750D01*
G01*
X81449800Y-141456050D01*
G75*
G02*
X81693550Y-141212300I243750J0D01*
G01*
G37*
G36*
G01*
X83968550Y-143912300D02*
X84881050Y-143912300D01*
G75*
G02*
X85124800Y-144156050I0J-243750D01*
G01*
X85124800Y-144643550D01*
G75*
G02*
X84881050Y-144887300I-243750J0D01*
G01*
X83968550Y-144887300D01*
G75*
G02*
X83724800Y-144643550I0J243750D01*
G01*
X83724800Y-144156050D01*
G75*
G02*
X83968550Y-143912300I243750J0D01*
G01*
G37*
G36*
G01*
X83968550Y-142037300D02*
X84881050Y-142037300D01*
G75*
G02*
X85124800Y-142281050I0J-243750D01*
G01*
X85124800Y-142768550D01*
G75*
G02*
X84881050Y-143012300I-243750J0D01*
G01*
X83968550Y-143012300D01*
G75*
G02*
X83724800Y-142768550I0J243750D01*
G01*
X83724800Y-142281050D01*
G75*
G02*
X83968550Y-142037300I243750J0D01*
G01*
G37*
G36*
G01*
X86293550Y-145112300D02*
X87206050Y-145112300D01*
G75*
G02*
X87449800Y-145356050I0J-243750D01*
G01*
X87449800Y-145843550D01*
G75*
G02*
X87206050Y-146087300I-243750J0D01*
G01*
X86293550Y-146087300D01*
G75*
G02*
X86049800Y-145843550I0J243750D01*
G01*
X86049800Y-145356050D01*
G75*
G02*
X86293550Y-145112300I243750J0D01*
G01*
G37*
G36*
G01*
X86293550Y-143237300D02*
X87206050Y-143237300D01*
G75*
G02*
X87449800Y-143481050I0J-243750D01*
G01*
X87449800Y-143968550D01*
G75*
G02*
X87206050Y-144212300I-243750J0D01*
G01*
X86293550Y-144212300D01*
G75*
G02*
X86049800Y-143968550I0J243750D01*
G01*
X86049800Y-143481050D01*
G75*
G02*
X86293550Y-143237300I243750J0D01*
G01*
G37*
G36*
G01*
X103349800Y-129956050D02*
X103349800Y-129043550D01*
G75*
G02*
X103593550Y-128799800I243750J0D01*
G01*
X104081050Y-128799800D01*
G75*
G02*
X104324800Y-129043550I0J-243750D01*
G01*
X104324800Y-129956050D01*
G75*
G02*
X104081050Y-130199800I-243750J0D01*
G01*
X103593550Y-130199800D01*
G75*
G02*
X103349800Y-129956050I0J243750D01*
G01*
G37*
G36*
G01*
X101474800Y-129956050D02*
X101474800Y-129043550D01*
G75*
G02*
X101718550Y-128799800I243750J0D01*
G01*
X102206050Y-128799800D01*
G75*
G02*
X102449800Y-129043550I0J-243750D01*
G01*
X102449800Y-129956050D01*
G75*
G02*
X102206050Y-130199800I-243750J0D01*
G01*
X101718550Y-130199800D01*
G75*
G02*
X101474800Y-129956050I0J243750D01*
G01*
G37*
G36*
G01*
X108429801Y-147293550D02*
X108429801Y-148206050D01*
G75*
G02*
X108186051Y-148449800I-243750J0D01*
G01*
X107698551Y-148449800D01*
G75*
G02*
X107454801Y-148206050I0J243750D01*
G01*
X107454801Y-147293550D01*
G75*
G02*
X107698551Y-147049800I243750J0D01*
G01*
X108186051Y-147049800D01*
G75*
G02*
X108429801Y-147293550I0J-243750D01*
G01*
G37*
G36*
G01*
X110304801Y-147293550D02*
X110304801Y-148206050D01*
G75*
G02*
X110061051Y-148449800I-243750J0D01*
G01*
X109573551Y-148449800D01*
G75*
G02*
X109329801Y-148206050I0J243750D01*
G01*
X109329801Y-147293550D01*
G75*
G02*
X109573551Y-147049800I243750J0D01*
G01*
X110061051Y-147049800D01*
G75*
G02*
X110304801Y-147293550I0J-243750D01*
G01*
G37*
G36*
G01*
X109349800Y-143856050D02*
X109349800Y-142943550D01*
G75*
G02*
X109593550Y-142699800I243750J0D01*
G01*
X110081050Y-142699800D01*
G75*
G02*
X110324800Y-142943550I0J-243750D01*
G01*
X110324800Y-143856050D01*
G75*
G02*
X110081050Y-144099800I-243750J0D01*
G01*
X109593550Y-144099800D01*
G75*
G02*
X109349800Y-143856050I0J243750D01*
G01*
G37*
G36*
G01*
X107474800Y-143856050D02*
X107474800Y-142943550D01*
G75*
G02*
X107718550Y-142699800I243750J0D01*
G01*
X108206050Y-142699800D01*
G75*
G02*
X108449800Y-142943550I0J-243750D01*
G01*
X108449800Y-143856050D01*
G75*
G02*
X108206050Y-144099800I-243750J0D01*
G01*
X107718550Y-144099800D01*
G75*
G02*
X107474800Y-143856050I0J243750D01*
G01*
G37*
G36*
G01*
X119943550Y-142349800D02*
X120856050Y-142349800D01*
G75*
G02*
X121099800Y-142593550I0J-243750D01*
G01*
X121099800Y-143081050D01*
G75*
G02*
X120856050Y-143324800I-243750J0D01*
G01*
X119943550Y-143324800D01*
G75*
G02*
X119699800Y-143081050I0J243750D01*
G01*
X119699800Y-142593550D01*
G75*
G02*
X119943550Y-142349800I243750J0D01*
G01*
G37*
G36*
G01*
X119943550Y-140474800D02*
X120856050Y-140474800D01*
G75*
G02*
X121099800Y-140718550I0J-243750D01*
G01*
X121099800Y-141206050D01*
G75*
G02*
X120856050Y-141449800I-243750J0D01*
G01*
X119943550Y-141449800D01*
G75*
G02*
X119699800Y-141206050I0J243750D01*
G01*
X119699800Y-140718550D01*
G75*
G02*
X119943550Y-140474800I243750J0D01*
G01*
G37*
G36*
G01*
X103299800Y-134656050D02*
X103299800Y-133743550D01*
G75*
G02*
X103543550Y-133499800I243750J0D01*
G01*
X104031050Y-133499800D01*
G75*
G02*
X104274800Y-133743550I0J-243750D01*
G01*
X104274800Y-134656050D01*
G75*
G02*
X104031050Y-134899800I-243750J0D01*
G01*
X103543550Y-134899800D01*
G75*
G02*
X103299800Y-134656050I0J243750D01*
G01*
G37*
G36*
G01*
X101424800Y-134656050D02*
X101424800Y-133743550D01*
G75*
G02*
X101668550Y-133499800I243750J0D01*
G01*
X102156050Y-133499800D01*
G75*
G02*
X102399800Y-133743550I0J-243750D01*
G01*
X102399800Y-134656050D01*
G75*
G02*
X102156050Y-134899800I-243750J0D01*
G01*
X101668550Y-134899800D01*
G75*
G02*
X101424800Y-134656050I0J243750D01*
G01*
G37*
G36*
G01*
X103324800Y-136956050D02*
X103324800Y-136043550D01*
G75*
G02*
X103568550Y-135799800I243750J0D01*
G01*
X104056050Y-135799800D01*
G75*
G02*
X104299800Y-136043550I0J-243750D01*
G01*
X104299800Y-136956050D01*
G75*
G02*
X104056050Y-137199800I-243750J0D01*
G01*
X103568550Y-137199800D01*
G75*
G02*
X103324800Y-136956050I0J243750D01*
G01*
G37*
G36*
G01*
X101449800Y-136956050D02*
X101449800Y-136043550D01*
G75*
G02*
X101693550Y-135799800I243750J0D01*
G01*
X102181050Y-135799800D01*
G75*
G02*
X102424800Y-136043550I0J-243750D01*
G01*
X102424800Y-136956050D01*
G75*
G02*
X102181050Y-137199800I-243750J0D01*
G01*
X101693550Y-137199800D01*
G75*
G02*
X101449800Y-136956050I0J243750D01*
G01*
G37*
D28*
X113774800Y-141174800D03*
X113124800Y-141174800D03*
X112474800Y-141174800D03*
X111824800Y-141174800D03*
X111824800Y-145574800D03*
X112474800Y-145574800D03*
X113124800Y-145574800D03*
X113774800Y-145574800D03*
G36*
G01*
X109329801Y-146056050D02*
X109329801Y-145143550D01*
G75*
G02*
X109573551Y-144899800I243750J0D01*
G01*
X110061051Y-144899800D01*
G75*
G02*
X110304801Y-145143550I0J-243750D01*
G01*
X110304801Y-146056050D01*
G75*
G02*
X110061051Y-146299800I-243750J0D01*
G01*
X109573551Y-146299800D01*
G75*
G02*
X109329801Y-146056050I0J243750D01*
G01*
G37*
G36*
G01*
X107454801Y-146056050D02*
X107454801Y-145143550D01*
G75*
G02*
X107698551Y-144899800I243750J0D01*
G01*
X108186051Y-144899800D01*
G75*
G02*
X108429801Y-145143550I0J-243750D01*
G01*
X108429801Y-146056050D01*
G75*
G02*
X108186051Y-146299800I-243750J0D01*
G01*
X107698551Y-146299800D01*
G75*
G02*
X107454801Y-146056050I0J243750D01*
G01*
G37*
G36*
G01*
X108349800Y-140343550D02*
X108349800Y-141256050D01*
G75*
G02*
X108106050Y-141499800I-243750J0D01*
G01*
X107618550Y-141499800D01*
G75*
G02*
X107374800Y-141256050I0J243750D01*
G01*
X107374800Y-140343550D01*
G75*
G02*
X107618550Y-140099800I243750J0D01*
G01*
X108106050Y-140099800D01*
G75*
G02*
X108349800Y-140343550I0J-243750D01*
G01*
G37*
G36*
G01*
X110224800Y-140343550D02*
X110224800Y-141256050D01*
G75*
G02*
X109981050Y-141499800I-243750J0D01*
G01*
X109493550Y-141499800D01*
G75*
G02*
X109249800Y-141256050I0J243750D01*
G01*
X109249800Y-140343550D01*
G75*
G02*
X109493550Y-140099800I243750J0D01*
G01*
X109981050Y-140099800D01*
G75*
G02*
X110224800Y-140343550I0J-243750D01*
G01*
G37*
G36*
G01*
X111318550Y-149299800D02*
X112231050Y-149299800D01*
G75*
G02*
X112474800Y-149543550I0J-243750D01*
G01*
X112474800Y-150031050D01*
G75*
G02*
X112231050Y-150274800I-243750J0D01*
G01*
X111318550Y-150274800D01*
G75*
G02*
X111074800Y-150031050I0J243750D01*
G01*
X111074800Y-149543550D01*
G75*
G02*
X111318550Y-149299800I243750J0D01*
G01*
G37*
G36*
G01*
X111318550Y-147424800D02*
X112231050Y-147424800D01*
G75*
G02*
X112474800Y-147668550I0J-243750D01*
G01*
X112474800Y-148156050D01*
G75*
G02*
X112231050Y-148399800I-243750J0D01*
G01*
X111318550Y-148399800D01*
G75*
G02*
X111074800Y-148156050I0J243750D01*
G01*
X111074800Y-147668550D01*
G75*
G02*
X111318550Y-147424800I243750J0D01*
G01*
G37*
G36*
G01*
X116281050Y-141399800D02*
X115368550Y-141399800D01*
G75*
G02*
X115124800Y-141156050I0J243750D01*
G01*
X115124800Y-140668550D01*
G75*
G02*
X115368550Y-140424800I243750J0D01*
G01*
X116281050Y-140424800D01*
G75*
G02*
X116524800Y-140668550I0J-243750D01*
G01*
X116524800Y-141156050D01*
G75*
G02*
X116281050Y-141399800I-243750J0D01*
G01*
G37*
G36*
G01*
X116281050Y-143274800D02*
X115368550Y-143274800D01*
G75*
G02*
X115124800Y-143031050I0J243750D01*
G01*
X115124800Y-142543550D01*
G75*
G02*
X115368550Y-142299800I243750J0D01*
G01*
X116281050Y-142299800D01*
G75*
G02*
X116524800Y-142543550I0J-243750D01*
G01*
X116524800Y-143031050D01*
G75*
G02*
X116281050Y-143274800I-243750J0D01*
G01*
G37*
G36*
G01*
X103324800Y-139456050D02*
X103324800Y-138543550D01*
G75*
G02*
X103568550Y-138299800I243750J0D01*
G01*
X104056050Y-138299800D01*
G75*
G02*
X104299800Y-138543550I0J-243750D01*
G01*
X104299800Y-139456050D01*
G75*
G02*
X104056050Y-139699800I-243750J0D01*
G01*
X103568550Y-139699800D01*
G75*
G02*
X103324800Y-139456050I0J243750D01*
G01*
G37*
G36*
G01*
X101449800Y-139456050D02*
X101449800Y-138543550D01*
G75*
G02*
X101693550Y-138299800I243750J0D01*
G01*
X102181050Y-138299800D01*
G75*
G02*
X102424800Y-138543550I0J-243750D01*
G01*
X102424800Y-139456050D01*
G75*
G02*
X102181050Y-139699800I-243750J0D01*
G01*
X101693550Y-139699800D01*
G75*
G02*
X101449800Y-139456050I0J243750D01*
G01*
G37*
G36*
G01*
X64218550Y-128537300D02*
X65131050Y-128537300D01*
G75*
G02*
X65374800Y-128781050I0J-243750D01*
G01*
X65374800Y-129268550D01*
G75*
G02*
X65131050Y-129512300I-243750J0D01*
G01*
X64218550Y-129512300D01*
G75*
G02*
X63974800Y-129268550I0J243750D01*
G01*
X63974800Y-128781050D01*
G75*
G02*
X64218550Y-128537300I243750J0D01*
G01*
G37*
G36*
G01*
X64218550Y-126662300D02*
X65131050Y-126662300D01*
G75*
G02*
X65374800Y-126906050I0J-243750D01*
G01*
X65374800Y-127393550D01*
G75*
G02*
X65131050Y-127637300I-243750J0D01*
G01*
X64218550Y-127637300D01*
G75*
G02*
X63974800Y-127393550I0J243750D01*
G01*
X63974800Y-126906050D01*
G75*
G02*
X64218550Y-126662300I243750J0D01*
G01*
G37*
G36*
G01*
X103249800Y-150124800D02*
X103249800Y-151374800D01*
G75*
G02*
X103099800Y-151524800I-150000J0D01*
G01*
X102799800Y-151524800D01*
G75*
G02*
X102649800Y-151374800I0J150000D01*
G01*
X102649800Y-150124800D01*
G75*
G02*
X102799800Y-149974800I150000J0D01*
G01*
X103099800Y-149974800D01*
G75*
G02*
X103249800Y-150124800I0J-150000D01*
G01*
G37*
G36*
G01*
X102249800Y-150124800D02*
X102249800Y-151374800D01*
G75*
G02*
X102099800Y-151524800I-150000J0D01*
G01*
X101799800Y-151524800D01*
G75*
G02*
X101649800Y-151374800I0J150000D01*
G01*
X101649800Y-150124800D01*
G75*
G02*
X101799800Y-149974800I150000J0D01*
G01*
X102099800Y-149974800D01*
G75*
G02*
X102249800Y-150124800I0J-150000D01*
G01*
G37*
G36*
G01*
X101249800Y-150124800D02*
X101249800Y-151374800D01*
G75*
G02*
X101099800Y-151524800I-150000J0D01*
G01*
X100799800Y-151524800D01*
G75*
G02*
X100649800Y-151374800I0J150000D01*
G01*
X100649800Y-150124800D01*
G75*
G02*
X100799800Y-149974800I150000J0D01*
G01*
X101099800Y-149974800D01*
G75*
G02*
X101249800Y-150124800I0J-150000D01*
G01*
G37*
G36*
G01*
X104849800Y-152624799D02*
X104849800Y-153924801D01*
G75*
G02*
X104599801Y-154174800I-249999J0D01*
G01*
X103899799Y-154174800D01*
G75*
G02*
X103649800Y-153924801I0J249999D01*
G01*
X103649800Y-152624799D01*
G75*
G02*
X103899799Y-152374800I249999J0D01*
G01*
X104599801Y-152374800D01*
G75*
G02*
X104849800Y-152624799I0J-249999D01*
G01*
G37*
G36*
G01*
X100249800Y-152624799D02*
X100249800Y-153924801D01*
G75*
G02*
X99999801Y-154174800I-249999J0D01*
G01*
X99299799Y-154174800D01*
G75*
G02*
X99049800Y-153924801I0J249999D01*
G01*
X99049800Y-152624799D01*
G75*
G02*
X99299799Y-152374800I249999J0D01*
G01*
X99999801Y-152374800D01*
G75*
G02*
X100249800Y-152624799I0J-249999D01*
G01*
G37*
G36*
G01*
X84426397Y-147265690D02*
X83958139Y-148424670D01*
G75*
G02*
X83762870Y-148507557I-139078J56191D01*
G01*
X83484715Y-148395175D01*
G75*
G02*
X83401828Y-148199906I56191J139078D01*
G01*
X83870087Y-147040926D01*
G75*
G02*
X84065356Y-146958039I139078J-56191D01*
G01*
X84343511Y-147070421D01*
G75*
G02*
X84426398Y-147265690I-56191J-139078D01*
G01*
G37*
G36*
G01*
X83499214Y-146891083D02*
X83030956Y-148050063D01*
G75*
G02*
X82835687Y-148132950I-139078J56191D01*
G01*
X82557532Y-148020568D01*
G75*
G02*
X82474645Y-147825299I56191J139078D01*
G01*
X82942904Y-146666319D01*
G75*
G02*
X83138173Y-146583432I139078J-56191D01*
G01*
X83416328Y-146695814D01*
G75*
G02*
X83499215Y-146891083I-56191J-139078D01*
G01*
G37*
G36*
G01*
X82572030Y-146516477D02*
X82103772Y-147675457D01*
G75*
G02*
X81908503Y-147758344I-139078J56191D01*
G01*
X81630348Y-147645962D01*
G75*
G02*
X81547461Y-147450693I56191J139078D01*
G01*
X82015720Y-146291713D01*
G75*
G02*
X82210989Y-146208826I139078J-56191D01*
G01*
X82489144Y-146321208D01*
G75*
G02*
X82572031Y-146516477I-56191J-139078D01*
G01*
G37*
G36*
G01*
X81644846Y-146141870D02*
X81176588Y-147300850D01*
G75*
G02*
X80981319Y-147383737I-139078J56191D01*
G01*
X80703164Y-147271355D01*
G75*
G02*
X80620277Y-147076086I56191J139078D01*
G01*
X81088536Y-145917106D01*
G75*
G02*
X81283805Y-145834219I139078J-56191D01*
G01*
X81561960Y-145946601D01*
G75*
G02*
X81644847Y-146141870I-56191J-139078D01*
G01*
G37*
G36*
G01*
X80717662Y-145767264D02*
X80249404Y-146926244D01*
G75*
G02*
X80054135Y-147009131I-139078J56191D01*
G01*
X79775980Y-146896749D01*
G75*
G02*
X79693093Y-146701480I56191J139078D01*
G01*
X80161352Y-145542500D01*
G75*
G02*
X80356621Y-145459613I139078J-56191D01*
G01*
X80634776Y-145571995D01*
G75*
G02*
X80717663Y-145767264I-56191J-139078D01*
G01*
G37*
G36*
G01*
X79790478Y-145392657D02*
X79322220Y-146551637D01*
G75*
G02*
X79126951Y-146634524I-139078J56191D01*
G01*
X78848796Y-146522142D01*
G75*
G02*
X78765909Y-146326873I56191J139078D01*
G01*
X79234168Y-145167893D01*
G75*
G02*
X79429437Y-145085006I139078J-56191D01*
G01*
X79707592Y-145197388D01*
G75*
G02*
X79790479Y-145392657I-56191J-139078D01*
G01*
G37*
G36*
G01*
X84973376Y-150183020D02*
X84486387Y-151388360D01*
G75*
G02*
X84160941Y-151526504I-231795J93651D01*
G01*
X83511910Y-151264279D01*
G75*
G02*
X83373766Y-150938833I93651J231795D01*
G01*
X83860755Y-149733492D01*
G75*
G02*
X84186201Y-149595348I231795J-93651D01*
G01*
X84835232Y-149857573D01*
G75*
G02*
X84973376Y-150183019I-93651J-231795D01*
G01*
G37*
G36*
G01*
X77926778Y-147336010D02*
X77439789Y-148541350D01*
G75*
G02*
X77114343Y-148679494I-231795J93651D01*
G01*
X76465312Y-148417269D01*
G75*
G02*
X76327168Y-148091823I93651J231795D01*
G01*
X76814157Y-146886482D01*
G75*
G02*
X77139603Y-146748338I231795J-93651D01*
G01*
X77788634Y-147010563D01*
G75*
G02*
X77926778Y-147336009I-93651J-231795D01*
G01*
G37*
G36*
G01*
X95145875Y-149665640D02*
X94928815Y-150896649D01*
G75*
G02*
X94755047Y-151018323I-147721J26047D01*
G01*
X94459605Y-150966229D01*
G75*
G02*
X94337931Y-150792461I26047J147721D01*
G01*
X94554991Y-149561451D01*
G75*
G02*
X94728759Y-149439777I147721J-26047D01*
G01*
X95024201Y-149491871D01*
G75*
G02*
X95145875Y-149665639I-26047J-147721D01*
G01*
G37*
G36*
G01*
X94161067Y-149491992D02*
X93944007Y-150723001D01*
G75*
G02*
X93770239Y-150844675I-147721J26047D01*
G01*
X93474797Y-150792581D01*
G75*
G02*
X93353123Y-150618813I26047J147721D01*
G01*
X93570183Y-149387803D01*
G75*
G02*
X93743951Y-149266129I147721J-26047D01*
G01*
X94039393Y-149318223D01*
G75*
G02*
X94161067Y-149491991I-26047J-147721D01*
G01*
G37*
G36*
G01*
X93176260Y-149318344D02*
X92959200Y-150549353D01*
G75*
G02*
X92785432Y-150671027I-147721J26047D01*
G01*
X92489990Y-150618933D01*
G75*
G02*
X92368316Y-150445165I26047J147721D01*
G01*
X92585376Y-149214155D01*
G75*
G02*
X92759144Y-149092481I147721J-26047D01*
G01*
X93054586Y-149144575D01*
G75*
G02*
X93176260Y-149318343I-26047J-147721D01*
G01*
G37*
G36*
G01*
X92191452Y-149144696D02*
X91974392Y-150375705D01*
G75*
G02*
X91800624Y-150497379I-147721J26047D01*
G01*
X91505182Y-150445285D01*
G75*
G02*
X91383508Y-150271517I26047J147721D01*
G01*
X91600568Y-149040507D01*
G75*
G02*
X91774336Y-148918833I147721J-26047D01*
G01*
X92069778Y-148970927D01*
G75*
G02*
X92191452Y-149144695I-26047J-147721D01*
G01*
G37*
G36*
G01*
X91206644Y-148971047D02*
X90989584Y-150202056D01*
G75*
G02*
X90815816Y-150323730I-147721J26047D01*
G01*
X90520374Y-150271636D01*
G75*
G02*
X90398700Y-150097868I26047J147721D01*
G01*
X90615760Y-148866858D01*
G75*
G02*
X90789528Y-148745184I147721J-26047D01*
G01*
X91084970Y-148797278D01*
G75*
G02*
X91206644Y-148971046I-26047J-147721D01*
G01*
G37*
G36*
G01*
X90221836Y-148797399D02*
X90004776Y-150028408D01*
G75*
G02*
X89831008Y-150150082I-147721J26047D01*
G01*
X89535566Y-150097988D01*
G75*
G02*
X89413892Y-149924220I26047J147721D01*
G01*
X89630952Y-148693210D01*
G75*
G02*
X89804720Y-148571536I147721J-26047D01*
G01*
X90100162Y-148623630D01*
G75*
G02*
X90221836Y-148797398I-26047J-147721D01*
G01*
G37*
G36*
G01*
X96287448Y-152405495D02*
X96061705Y-153685747D01*
G75*
G02*
X95772092Y-153888536I-246201J43412D01*
G01*
X95082725Y-153766982D01*
G75*
G02*
X94879936Y-153477369I43412J246201D01*
G01*
X95105679Y-152197117D01*
G75*
G02*
X95395292Y-151994328I246201J-43412D01*
G01*
X96084659Y-152115882D01*
G75*
G02*
X96287448Y-152405495I-43412J-246201D01*
G01*
G37*
G36*
G01*
X88802909Y-151085769D02*
X88577166Y-152366021D01*
G75*
G02*
X88287553Y-152568810I-246201J43412D01*
G01*
X87598186Y-152447256D01*
G75*
G02*
X87395397Y-152157643I43412J246201D01*
G01*
X87621140Y-150877391D01*
G75*
G02*
X87910753Y-150674602I246201J-43412D01*
G01*
X88600120Y-150796156D01*
G75*
G02*
X88802909Y-151085769I-43412J-246201D01*
G01*
G37*
G36*
G01*
X74636900Y-142608468D02*
X73919930Y-143632407D01*
G75*
G02*
X73711021Y-143669244I-122873J86036D01*
G01*
X73465275Y-143497172D01*
G75*
G02*
X73428438Y-143288263I86036J122873D01*
G01*
X74145408Y-142264323D01*
G75*
G02*
X74354317Y-142227486I122873J-86036D01*
G01*
X74600063Y-142399558D01*
G75*
G02*
X74636900Y-142608467I-86036J-122873D01*
G01*
G37*
G36*
G01*
X73817748Y-142034891D02*
X73100778Y-143058830D01*
G75*
G02*
X72891869Y-143095667I-122873J86036D01*
G01*
X72646123Y-142923595D01*
G75*
G02*
X72609286Y-142714686I86036J122873D01*
G01*
X73326256Y-141690746D01*
G75*
G02*
X73535165Y-141653909I122873J-86036D01*
G01*
X73780911Y-141825981D01*
G75*
G02*
X73817748Y-142034890I-86036J-122873D01*
G01*
G37*
G36*
G01*
X72998596Y-141461315D02*
X72281626Y-142485254D01*
G75*
G02*
X72072717Y-142522091I-122873J86036D01*
G01*
X71826971Y-142350019D01*
G75*
G02*
X71790134Y-142141110I86036J122873D01*
G01*
X72507104Y-141117170D01*
G75*
G02*
X72716013Y-141080333I122873J-86036D01*
G01*
X72961759Y-141252405D01*
G75*
G02*
X72998596Y-141461314I-86036J-122873D01*
G01*
G37*
G36*
G01*
X72179444Y-140887738D02*
X71462474Y-141911677D01*
G75*
G02*
X71253565Y-141948514I-122873J86036D01*
G01*
X71007819Y-141776442D01*
G75*
G02*
X70970982Y-141567533I86036J122873D01*
G01*
X71687952Y-140543593D01*
G75*
G02*
X71896861Y-140506756I122873J-86036D01*
G01*
X72142607Y-140678828D01*
G75*
G02*
X72179444Y-140887737I-86036J-122873D01*
G01*
G37*
G36*
G01*
X71360292Y-140314162D02*
X70643322Y-141338101D01*
G75*
G02*
X70434413Y-141374938I-122873J86036D01*
G01*
X70188667Y-141202866D01*
G75*
G02*
X70151830Y-140993957I86036J122873D01*
G01*
X70868800Y-139970017D01*
G75*
G02*
X71077709Y-139933180I122873J-86036D01*
G01*
X71323455Y-140105252D01*
G75*
G02*
X71360292Y-140314161I-86036J-122873D01*
G01*
G37*
G36*
G01*
X70541140Y-139740585D02*
X69824170Y-140764524D01*
G75*
G02*
X69615261Y-140801361I-122873J86036D01*
G01*
X69369515Y-140629289D01*
G75*
G02*
X69332678Y-140420380I86036J122873D01*
G01*
X70049648Y-139396440D01*
G75*
G02*
X70258557Y-139359603I122873J-86036D01*
G01*
X70504303Y-139531675D01*
G75*
G02*
X70541140Y-139740584I-86036J-122873D01*
G01*
G37*
G36*
G01*
X74513602Y-145574069D02*
X73767952Y-146638969D01*
G75*
G02*
X73419771Y-146700362I-204787J143394D01*
G01*
X72846363Y-146298857D01*
G75*
G02*
X72784970Y-145950676I143394J204787D01*
G01*
X73530620Y-144885777D01*
G75*
G02*
X73878801Y-144824384I204787J-143394D01*
G01*
X74452209Y-145225889D01*
G75*
G02*
X74513602Y-145574070I-143394J-204787D01*
G01*
G37*
G36*
G01*
X68288047Y-141214888D02*
X67542397Y-142279788D01*
G75*
G02*
X67194216Y-142341181I-204787J143394D01*
G01*
X66620808Y-141939676D01*
G75*
G02*
X66559415Y-141591495I143394J204787D01*
G01*
X67305065Y-140526596D01*
G75*
G02*
X67653246Y-140465203I204787J-143394D01*
G01*
X68226654Y-140866708D01*
G75*
G02*
X68288047Y-141214889I-143394J-204787D01*
G01*
G37*
G36*
G01*
X51356050Y-98912300D02*
X50443550Y-98912300D01*
G75*
G02*
X50199800Y-98668550I0J243750D01*
G01*
X50199800Y-98181050D01*
G75*
G02*
X50443550Y-97937300I243750J0D01*
G01*
X51356050Y-97937300D01*
G75*
G02*
X51599800Y-98181050I0J-243750D01*
G01*
X51599800Y-98668550D01*
G75*
G02*
X51356050Y-98912300I-243750J0D01*
G01*
G37*
G36*
G01*
X51356050Y-100787300D02*
X50443550Y-100787300D01*
G75*
G02*
X50199800Y-100543550I0J243750D01*
G01*
X50199800Y-100056050D01*
G75*
G02*
X50443550Y-99812300I243750J0D01*
G01*
X51356050Y-99812300D01*
G75*
G02*
X51599800Y-100056050I0J-243750D01*
G01*
X51599800Y-100543550D01*
G75*
G02*
X51356050Y-100787300I-243750J0D01*
G01*
G37*
G36*
G01*
X118631050Y-141424800D02*
X117718550Y-141424800D01*
G75*
G02*
X117474800Y-141181050I0J243750D01*
G01*
X117474800Y-140693550D01*
G75*
G02*
X117718550Y-140449800I243750J0D01*
G01*
X118631050Y-140449800D01*
G75*
G02*
X118874800Y-140693550I0J-243750D01*
G01*
X118874800Y-141181050D01*
G75*
G02*
X118631050Y-141424800I-243750J0D01*
G01*
G37*
G36*
G01*
X118631050Y-143299800D02*
X117718550Y-143299800D01*
G75*
G02*
X117474800Y-143056050I0J243750D01*
G01*
X117474800Y-142568550D01*
G75*
G02*
X117718550Y-142324800I243750J0D01*
G01*
X118631050Y-142324800D01*
G75*
G02*
X118874800Y-142568550I0J-243750D01*
G01*
X118874800Y-143056050D01*
G75*
G02*
X118631050Y-143299800I-243750J0D01*
G01*
G37*
G36*
G01*
X58988300Y-102591550D02*
X58988300Y-103504050D01*
G75*
G02*
X58744550Y-103747800I-243750J0D01*
G01*
X58257050Y-103747800D01*
G75*
G02*
X58013300Y-103504050I0J243750D01*
G01*
X58013300Y-102591550D01*
G75*
G02*
X58257050Y-102347800I243750J0D01*
G01*
X58744550Y-102347800D01*
G75*
G02*
X58988300Y-102591550I0J-243750D01*
G01*
G37*
G36*
G01*
X60863300Y-102591550D02*
X60863300Y-103504050D01*
G75*
G02*
X60619550Y-103747800I-243750J0D01*
G01*
X60132050Y-103747800D01*
G75*
G02*
X59888300Y-103504050I0J243750D01*
G01*
X59888300Y-102591550D01*
G75*
G02*
X60132050Y-102347800I243750J0D01*
G01*
X60619550Y-102347800D01*
G75*
G02*
X60863300Y-102591550I0J-243750D01*
G01*
G37*
G36*
G01*
X68795800Y-102571550D02*
X68795800Y-103484050D01*
G75*
G02*
X68552050Y-103727800I-243750J0D01*
G01*
X68064550Y-103727800D01*
G75*
G02*
X67820800Y-103484050I0J243750D01*
G01*
X67820800Y-102571550D01*
G75*
G02*
X68064550Y-102327800I243750J0D01*
G01*
X68552050Y-102327800D01*
G75*
G02*
X68795800Y-102571550I0J-243750D01*
G01*
G37*
G36*
G01*
X70670800Y-102571550D02*
X70670800Y-103484050D01*
G75*
G02*
X70427050Y-103727800I-243750J0D01*
G01*
X69939550Y-103727800D01*
G75*
G02*
X69695800Y-103484050I0J243750D01*
G01*
X69695800Y-102571550D01*
G75*
G02*
X69939550Y-102327800I243750J0D01*
G01*
X70427050Y-102327800D01*
G75*
G02*
X70670800Y-102571550I0J-243750D01*
G01*
G37*
G36*
G01*
X116324800Y-147874800D02*
X118474800Y-147874800D01*
G75*
G02*
X118724800Y-148124800I0J-250000D01*
G01*
X118724800Y-148874800D01*
G75*
G02*
X118474800Y-149124800I-250000J0D01*
G01*
X116324800Y-149124800D01*
G75*
G02*
X116074800Y-148874800I0J250000D01*
G01*
X116074800Y-148124800D01*
G75*
G02*
X116324800Y-147874800I250000J0D01*
G01*
G37*
G36*
G01*
X116324800Y-145074800D02*
X118474800Y-145074800D01*
G75*
G02*
X118724800Y-145324800I0J-250000D01*
G01*
X118724800Y-146074800D01*
G75*
G02*
X118474800Y-146324800I-250000J0D01*
G01*
X116324800Y-146324800D01*
G75*
G02*
X116074800Y-146074800I0J250000D01*
G01*
X116074800Y-145324800D01*
G75*
G02*
X116324800Y-145074800I250000J0D01*
G01*
G37*
D24*
X121199800Y-133899800D03*
X121199800Y-137899800D03*
G36*
G01*
X59919550Y-99981800D02*
X60832050Y-99981800D01*
G75*
G02*
X61075800Y-100225550I0J-243750D01*
G01*
X61075800Y-100713050D01*
G75*
G02*
X60832050Y-100956800I-243750J0D01*
G01*
X59919550Y-100956800D01*
G75*
G02*
X59675800Y-100713050I0J243750D01*
G01*
X59675800Y-100225550D01*
G75*
G02*
X59919550Y-99981800I243750J0D01*
G01*
G37*
G36*
G01*
X59919550Y-98106800D02*
X60832050Y-98106800D01*
G75*
G02*
X61075800Y-98350550I0J-243750D01*
G01*
X61075800Y-98838050D01*
G75*
G02*
X60832050Y-99081800I-243750J0D01*
G01*
X59919550Y-99081800D01*
G75*
G02*
X59675800Y-98838050I0J243750D01*
G01*
X59675800Y-98350550D01*
G75*
G02*
X59919550Y-98106800I243750J0D01*
G01*
G37*
G36*
G01*
X46243550Y-99812300D02*
X47156050Y-99812300D01*
G75*
G02*
X47399800Y-100056050I0J-243750D01*
G01*
X47399800Y-100543550D01*
G75*
G02*
X47156050Y-100787300I-243750J0D01*
G01*
X46243550Y-100787300D01*
G75*
G02*
X45999800Y-100543550I0J243750D01*
G01*
X45999800Y-100056050D01*
G75*
G02*
X46243550Y-99812300I243750J0D01*
G01*
G37*
G36*
G01*
X46243550Y-97937300D02*
X47156050Y-97937300D01*
G75*
G02*
X47399800Y-98181050I0J-243750D01*
G01*
X47399800Y-98668550D01*
G75*
G02*
X47156050Y-98912300I-243750J0D01*
G01*
X46243550Y-98912300D01*
G75*
G02*
X45999800Y-98668550I0J243750D01*
G01*
X45999800Y-98181050D01*
G75*
G02*
X46243550Y-97937300I243750J0D01*
G01*
G37*
G36*
G01*
X48343550Y-99812300D02*
X49256050Y-99812300D01*
G75*
G02*
X49499800Y-100056050I0J-243750D01*
G01*
X49499800Y-100543550D01*
G75*
G02*
X49256050Y-100787300I-243750J0D01*
G01*
X48343550Y-100787300D01*
G75*
G02*
X48099800Y-100543550I0J243750D01*
G01*
X48099800Y-100056050D01*
G75*
G02*
X48343550Y-99812300I243750J0D01*
G01*
G37*
G36*
G01*
X48343550Y-97937300D02*
X49256050Y-97937300D01*
G75*
G02*
X49499800Y-98181050I0J-243750D01*
G01*
X49499800Y-98668550D01*
G75*
G02*
X49256050Y-98912300I-243750J0D01*
G01*
X48343550Y-98912300D01*
G75*
G02*
X48099800Y-98668550I0J243750D01*
G01*
X48099800Y-98181050D01*
G75*
G02*
X48343550Y-97937300I243750J0D01*
G01*
G37*
G36*
G01*
X120906050Y-147949800D02*
X119993550Y-147949800D01*
G75*
G02*
X119749800Y-147706050I0J243750D01*
G01*
X119749800Y-147218550D01*
G75*
G02*
X119993550Y-146974800I243750J0D01*
G01*
X120906050Y-146974800D01*
G75*
G02*
X121149800Y-147218550I0J-243750D01*
G01*
X121149800Y-147706050D01*
G75*
G02*
X120906050Y-147949800I-243750J0D01*
G01*
G37*
G36*
G01*
X120906050Y-146074800D02*
X119993550Y-146074800D01*
G75*
G02*
X119749800Y-145831050I0J243750D01*
G01*
X119749800Y-145343550D01*
G75*
G02*
X119993550Y-145099800I243750J0D01*
G01*
X120906050Y-145099800D01*
G75*
G02*
X121149800Y-145343550I0J-243750D01*
G01*
X121149800Y-145831050D01*
G75*
G02*
X120906050Y-146074800I-243750J0D01*
G01*
G37*
G36*
G01*
X57633550Y-99981800D02*
X58546050Y-99981800D01*
G75*
G02*
X58789800Y-100225550I0J-243750D01*
G01*
X58789800Y-100713050D01*
G75*
G02*
X58546050Y-100956800I-243750J0D01*
G01*
X57633550Y-100956800D01*
G75*
G02*
X57389800Y-100713050I0J243750D01*
G01*
X57389800Y-100225550D01*
G75*
G02*
X57633550Y-99981800I243750J0D01*
G01*
G37*
G36*
G01*
X57633550Y-98106800D02*
X58546050Y-98106800D01*
G75*
G02*
X58789800Y-98350550I0J-243750D01*
G01*
X58789800Y-98838050D01*
G75*
G02*
X58546050Y-99081800I-243750J0D01*
G01*
X57633550Y-99081800D01*
G75*
G02*
X57389800Y-98838050I0J243750D01*
G01*
X57389800Y-98350550D01*
G75*
G02*
X57633550Y-98106800I243750J0D01*
G01*
G37*
G36*
G01*
X66905550Y-99863300D02*
X67818050Y-99863300D01*
G75*
G02*
X68061800Y-100107050I0J-243750D01*
G01*
X68061800Y-100594550D01*
G75*
G02*
X67818050Y-100838300I-243750J0D01*
G01*
X66905550Y-100838300D01*
G75*
G02*
X66661800Y-100594550I0J243750D01*
G01*
X66661800Y-100107050D01*
G75*
G02*
X66905550Y-99863300I243750J0D01*
G01*
G37*
G36*
G01*
X66905550Y-97988300D02*
X67818050Y-97988300D01*
G75*
G02*
X68061800Y-98232050I0J-243750D01*
G01*
X68061800Y-98719550D01*
G75*
G02*
X67818050Y-98963300I-243750J0D01*
G01*
X66905550Y-98963300D01*
G75*
G02*
X66661800Y-98719550I0J243750D01*
G01*
X66661800Y-98232050D01*
G75*
G02*
X66905550Y-97988300I243750J0D01*
G01*
G37*
G36*
G01*
X50487300Y-117656050D02*
X50487300Y-116743550D01*
G75*
G02*
X50731050Y-116499800I243750J0D01*
G01*
X51218550Y-116499800D01*
G75*
G02*
X51462300Y-116743550I0J-243750D01*
G01*
X51462300Y-117656050D01*
G75*
G02*
X51218550Y-117899800I-243750J0D01*
G01*
X50731050Y-117899800D01*
G75*
G02*
X50487300Y-117656050I0J243750D01*
G01*
G37*
G36*
G01*
X48612300Y-117656050D02*
X48612300Y-116743550D01*
G75*
G02*
X48856050Y-116499800I243750J0D01*
G01*
X49343550Y-116499800D01*
G75*
G02*
X49587300Y-116743550I0J-243750D01*
G01*
X49587300Y-117656050D01*
G75*
G02*
X49343550Y-117899800I-243750J0D01*
G01*
X48856050Y-117899800D01*
G75*
G02*
X48612300Y-117656050I0J243750D01*
G01*
G37*
G36*
G01*
X69317550Y-99863300D02*
X70230050Y-99863300D01*
G75*
G02*
X70473800Y-100107050I0J-243750D01*
G01*
X70473800Y-100594550D01*
G75*
G02*
X70230050Y-100838300I-243750J0D01*
G01*
X69317550Y-100838300D01*
G75*
G02*
X69073800Y-100594550I0J243750D01*
G01*
X69073800Y-100107050D01*
G75*
G02*
X69317550Y-99863300I243750J0D01*
G01*
G37*
G36*
G01*
X69317550Y-97988300D02*
X70230050Y-97988300D01*
G75*
G02*
X70473800Y-98232050I0J-243750D01*
G01*
X70473800Y-98719550D01*
G75*
G02*
X70230050Y-98963300I-243750J0D01*
G01*
X69317550Y-98963300D01*
G75*
G02*
X69073800Y-98719550I0J243750D01*
G01*
X69073800Y-98232050D01*
G75*
G02*
X69317550Y-97988300I243750J0D01*
G01*
G37*
G36*
G01*
X63861050Y-123669299D02*
X62948550Y-123669299D01*
G75*
G02*
X62704800Y-123425549I0J243750D01*
G01*
X62704800Y-122938049D01*
G75*
G02*
X62948550Y-122694299I243750J0D01*
G01*
X63861050Y-122694299D01*
G75*
G02*
X64104800Y-122938049I0J-243750D01*
G01*
X64104800Y-123425549D01*
G75*
G02*
X63861050Y-123669299I-243750J0D01*
G01*
G37*
G36*
G01*
X63861050Y-125544299D02*
X62948550Y-125544299D01*
G75*
G02*
X62704800Y-125300549I0J243750D01*
G01*
X62704800Y-124813049D01*
G75*
G02*
X62948550Y-124569299I243750J0D01*
G01*
X63861050Y-124569299D01*
G75*
G02*
X64104800Y-124813049I0J-243750D01*
G01*
X64104800Y-125300549D01*
G75*
G02*
X63861050Y-125544299I-243750J0D01*
G01*
G37*
G36*
G01*
X68179050Y-123605799D02*
X67266550Y-123605799D01*
G75*
G02*
X67022800Y-123362049I0J243750D01*
G01*
X67022800Y-122874549D01*
G75*
G02*
X67266550Y-122630799I243750J0D01*
G01*
X68179050Y-122630799D01*
G75*
G02*
X68422800Y-122874549I0J-243750D01*
G01*
X68422800Y-123362049D01*
G75*
G02*
X68179050Y-123605799I-243750J0D01*
G01*
G37*
G36*
G01*
X68179050Y-125480799D02*
X67266550Y-125480799D01*
G75*
G02*
X67022800Y-125237049I0J243750D01*
G01*
X67022800Y-124749549D01*
G75*
G02*
X67266550Y-124505799I243750J0D01*
G01*
X68179050Y-124505799D01*
G75*
G02*
X68422800Y-124749549I0J-243750D01*
G01*
X68422800Y-125237049D01*
G75*
G02*
X68179050Y-125480799I-243750J0D01*
G01*
G37*
G36*
G01*
X61702050Y-123669299D02*
X60789550Y-123669299D01*
G75*
G02*
X60545800Y-123425549I0J243750D01*
G01*
X60545800Y-122938049D01*
G75*
G02*
X60789550Y-122694299I243750J0D01*
G01*
X61702050Y-122694299D01*
G75*
G02*
X61945800Y-122938049I0J-243750D01*
G01*
X61945800Y-123425549D01*
G75*
G02*
X61702050Y-123669299I-243750J0D01*
G01*
G37*
G36*
G01*
X61702050Y-125544299D02*
X60789550Y-125544299D01*
G75*
G02*
X60545800Y-125300549I0J243750D01*
G01*
X60545800Y-124813049D01*
G75*
G02*
X60789550Y-124569299I243750J0D01*
G01*
X61702050Y-124569299D01*
G75*
G02*
X61945800Y-124813049I0J-243750D01*
G01*
X61945800Y-125300549D01*
G75*
G02*
X61702050Y-125544299I-243750J0D01*
G01*
G37*
G36*
G01*
X70338050Y-123567128D02*
X69425550Y-123567128D01*
G75*
G02*
X69181800Y-123323378I0J243750D01*
G01*
X69181800Y-122835878D01*
G75*
G02*
X69425550Y-122592128I243750J0D01*
G01*
X70338050Y-122592128D01*
G75*
G02*
X70581800Y-122835878I0J-243750D01*
G01*
X70581800Y-123323378D01*
G75*
G02*
X70338050Y-123567128I-243750J0D01*
G01*
G37*
G36*
G01*
X70338050Y-125442128D02*
X69425550Y-125442128D01*
G75*
G02*
X69181800Y-125198378I0J243750D01*
G01*
X69181800Y-124710878D01*
G75*
G02*
X69425550Y-124467128I243750J0D01*
G01*
X70338050Y-124467128D01*
G75*
G02*
X70581800Y-124710878I0J-243750D01*
G01*
X70581800Y-125198378D01*
G75*
G02*
X70338050Y-125442128I-243750J0D01*
G01*
G37*
G36*
G01*
X66020050Y-123605799D02*
X65107550Y-123605799D01*
G75*
G02*
X64863800Y-123362049I0J243750D01*
G01*
X64863800Y-122874549D01*
G75*
G02*
X65107550Y-122630799I243750J0D01*
G01*
X66020050Y-122630799D01*
G75*
G02*
X66263800Y-122874549I0J-243750D01*
G01*
X66263800Y-123362049D01*
G75*
G02*
X66020050Y-123605799I-243750J0D01*
G01*
G37*
G36*
G01*
X66020050Y-125480799D02*
X65107550Y-125480799D01*
G75*
G02*
X64863800Y-125237049I0J243750D01*
G01*
X64863800Y-124749549D01*
G75*
G02*
X65107550Y-124505799I243750J0D01*
G01*
X66020050Y-124505799D01*
G75*
G02*
X66263800Y-124749549I0J-243750D01*
G01*
X66263800Y-125237049D01*
G75*
G02*
X66020050Y-125480799I-243750J0D01*
G01*
G37*
G36*
G01*
X53632300Y-108026550D02*
X53632300Y-108939050D01*
G75*
G02*
X53388550Y-109182800I-243750J0D01*
G01*
X52901050Y-109182800D01*
G75*
G02*
X52657300Y-108939050I0J243750D01*
G01*
X52657300Y-108026550D01*
G75*
G02*
X52901050Y-107782800I243750J0D01*
G01*
X53388550Y-107782800D01*
G75*
G02*
X53632300Y-108026550I0J-243750D01*
G01*
G37*
G36*
G01*
X55507300Y-108026550D02*
X55507300Y-108939050D01*
G75*
G02*
X55263550Y-109182800I-243750J0D01*
G01*
X54776050Y-109182800D01*
G75*
G02*
X54532300Y-108939050I0J243750D01*
G01*
X54532300Y-108026550D01*
G75*
G02*
X54776050Y-107782800I243750J0D01*
G01*
X55263550Y-107782800D01*
G75*
G02*
X55507300Y-108026550I0J-243750D01*
G01*
G37*
G36*
G01*
X53632300Y-110185550D02*
X53632300Y-111098050D01*
G75*
G02*
X53388550Y-111341800I-243750J0D01*
G01*
X52901050Y-111341800D01*
G75*
G02*
X52657300Y-111098050I0J243750D01*
G01*
X52657300Y-110185550D01*
G75*
G02*
X52901050Y-109941800I243750J0D01*
G01*
X53388550Y-109941800D01*
G75*
G02*
X53632300Y-110185550I0J-243750D01*
G01*
G37*
G36*
G01*
X55507300Y-110185550D02*
X55507300Y-111098050D01*
G75*
G02*
X55263550Y-111341800I-243750J0D01*
G01*
X54776050Y-111341800D01*
G75*
G02*
X54532300Y-111098050I0J243750D01*
G01*
X54532300Y-110185550D01*
G75*
G02*
X54776050Y-109941800I243750J0D01*
G01*
X55263550Y-109941800D01*
G75*
G02*
X55507300Y-110185550I0J-243750D01*
G01*
G37*
G36*
G01*
X58914050Y-120338800D02*
X59826550Y-120338800D01*
G75*
G02*
X60070300Y-120582550I0J-243750D01*
G01*
X60070300Y-121070050D01*
G75*
G02*
X59826550Y-121313800I-243750J0D01*
G01*
X58914050Y-121313800D01*
G75*
G02*
X58670300Y-121070050I0J243750D01*
G01*
X58670300Y-120582550D01*
G75*
G02*
X58914050Y-120338800I243750J0D01*
G01*
G37*
G36*
G01*
X58914050Y-118463800D02*
X59826550Y-118463800D01*
G75*
G02*
X60070300Y-118707550I0J-243750D01*
G01*
X60070300Y-119195050D01*
G75*
G02*
X59826550Y-119438800I-243750J0D01*
G01*
X58914050Y-119438800D01*
G75*
G02*
X58670300Y-119195050I0J243750D01*
G01*
X58670300Y-118707550D01*
G75*
G02*
X58914050Y-118463800I243750J0D01*
G01*
G37*
G36*
G01*
X53632300Y-112344550D02*
X53632300Y-113257050D01*
G75*
G02*
X53388550Y-113500800I-243750J0D01*
G01*
X52901050Y-113500800D01*
G75*
G02*
X52657300Y-113257050I0J243750D01*
G01*
X52657300Y-112344550D01*
G75*
G02*
X52901050Y-112100800I243750J0D01*
G01*
X53388550Y-112100800D01*
G75*
G02*
X53632300Y-112344550I0J-243750D01*
G01*
G37*
G36*
G01*
X55507300Y-112344550D02*
X55507300Y-113257050D01*
G75*
G02*
X55263550Y-113500800I-243750J0D01*
G01*
X54776050Y-113500800D01*
G75*
G02*
X54532300Y-113257050I0J243750D01*
G01*
X54532300Y-112344550D01*
G75*
G02*
X54776050Y-112100800I243750J0D01*
G01*
X55263550Y-112100800D01*
G75*
G02*
X55507300Y-112344550I0J-243750D01*
G01*
G37*
G36*
G01*
X63041550Y-120323800D02*
X63954050Y-120323800D01*
G75*
G02*
X64197800Y-120567550I0J-243750D01*
G01*
X64197800Y-121055050D01*
G75*
G02*
X63954050Y-121298800I-243750J0D01*
G01*
X63041550Y-121298800D01*
G75*
G02*
X62797800Y-121055050I0J243750D01*
G01*
X62797800Y-120567550D01*
G75*
G02*
X63041550Y-120323800I243750J0D01*
G01*
G37*
G36*
G01*
X63041550Y-118448800D02*
X63954050Y-118448800D01*
G75*
G02*
X64197800Y-118692550I0J-243750D01*
G01*
X64197800Y-119180050D01*
G75*
G02*
X63954050Y-119423800I-243750J0D01*
G01*
X63041550Y-119423800D01*
G75*
G02*
X62797800Y-119180050I0J243750D01*
G01*
X62797800Y-118692550D01*
G75*
G02*
X63041550Y-118448800I243750J0D01*
G01*
G37*
G36*
G01*
X50495400Y-104156050D02*
X50495400Y-103243550D01*
G75*
G02*
X50739150Y-102999800I243750J0D01*
G01*
X51226650Y-102999800D01*
G75*
G02*
X51470400Y-103243550I0J-243750D01*
G01*
X51470400Y-104156050D01*
G75*
G02*
X51226650Y-104399800I-243750J0D01*
G01*
X50739150Y-104399800D01*
G75*
G02*
X50495400Y-104156050I0J243750D01*
G01*
G37*
G36*
G01*
X48620400Y-104156050D02*
X48620400Y-103243550D01*
G75*
G02*
X48864150Y-102999800I243750J0D01*
G01*
X49351650Y-102999800D01*
G75*
G02*
X49595400Y-103243550I0J-243750D01*
G01*
X49595400Y-104156050D01*
G75*
G02*
X49351650Y-104399800I-243750J0D01*
G01*
X48864150Y-104399800D01*
G75*
G02*
X48620400Y-104156050I0J243750D01*
G01*
G37*
G36*
G01*
X50495400Y-112979050D02*
X50495400Y-112066550D01*
G75*
G02*
X50739150Y-111822800I243750J0D01*
G01*
X51226650Y-111822800D01*
G75*
G02*
X51470400Y-112066550I0J-243750D01*
G01*
X51470400Y-112979050D01*
G75*
G02*
X51226650Y-113222800I-243750J0D01*
G01*
X50739150Y-113222800D01*
G75*
G02*
X50495400Y-112979050I0J243750D01*
G01*
G37*
G36*
G01*
X48620400Y-112979050D02*
X48620400Y-112066550D01*
G75*
G02*
X48864150Y-111822800I243750J0D01*
G01*
X49351650Y-111822800D01*
G75*
G02*
X49595400Y-112066550I0J-243750D01*
G01*
X49595400Y-112979050D01*
G75*
G02*
X49351650Y-113222800I-243750J0D01*
G01*
X48864150Y-113222800D01*
G75*
G02*
X48620400Y-112979050I0J243750D01*
G01*
G37*
G36*
G01*
X53623300Y-105732550D02*
X53623300Y-106645050D01*
G75*
G02*
X53379550Y-106888800I-243750J0D01*
G01*
X52892050Y-106888800D01*
G75*
G02*
X52648300Y-106645050I0J243750D01*
G01*
X52648300Y-105732550D01*
G75*
G02*
X52892050Y-105488800I243750J0D01*
G01*
X53379550Y-105488800D01*
G75*
G02*
X53623300Y-105732550I0J-243750D01*
G01*
G37*
G36*
G01*
X55498300Y-105732550D02*
X55498300Y-106645050D01*
G75*
G02*
X55254550Y-106888800I-243750J0D01*
G01*
X54767050Y-106888800D01*
G75*
G02*
X54523300Y-106645050I0J243750D01*
G01*
X54523300Y-105732550D01*
G75*
G02*
X54767050Y-105488800I243750J0D01*
G01*
X55254550Y-105488800D01*
G75*
G02*
X55498300Y-105732550I0J-243750D01*
G01*
G37*
G36*
G01*
X73459800Y-109163550D02*
X73459800Y-110076050D01*
G75*
G02*
X73216050Y-110319800I-243750J0D01*
G01*
X72728550Y-110319800D01*
G75*
G02*
X72484800Y-110076050I0J243750D01*
G01*
X72484800Y-109163550D01*
G75*
G02*
X72728550Y-108919800I243750J0D01*
G01*
X73216050Y-108919800D01*
G75*
G02*
X73459800Y-109163550I0J-243750D01*
G01*
G37*
G36*
G01*
X75334800Y-109163550D02*
X75334800Y-110076050D01*
G75*
G02*
X75091050Y-110319800I-243750J0D01*
G01*
X74603550Y-110319800D01*
G75*
G02*
X74359800Y-110076050I0J243750D01*
G01*
X74359800Y-109163550D01*
G75*
G02*
X74603550Y-108919800I243750J0D01*
G01*
X75091050Y-108919800D01*
G75*
G02*
X75334800Y-109163550I0J-243750D01*
G01*
G37*
G36*
G01*
X54523300Y-104486050D02*
X54523300Y-103573550D01*
G75*
G02*
X54767050Y-103329800I243750J0D01*
G01*
X55254550Y-103329800D01*
G75*
G02*
X55498300Y-103573550I0J-243750D01*
G01*
X55498300Y-104486050D01*
G75*
G02*
X55254550Y-104729800I-243750J0D01*
G01*
X54767050Y-104729800D01*
G75*
G02*
X54523300Y-104486050I0J243750D01*
G01*
G37*
G36*
G01*
X52648300Y-104486050D02*
X52648300Y-103573550D01*
G75*
G02*
X52892050Y-103329800I243750J0D01*
G01*
X53379550Y-103329800D01*
G75*
G02*
X53623300Y-103573550I0J-243750D01*
G01*
X53623300Y-104486050D01*
G75*
G02*
X53379550Y-104729800I-243750J0D01*
G01*
X52892050Y-104729800D01*
G75*
G02*
X52648300Y-104486050I0J243750D01*
G01*
G37*
G36*
G01*
X61922050Y-119438800D02*
X61009550Y-119438800D01*
G75*
G02*
X60765800Y-119195050I0J243750D01*
G01*
X60765800Y-118707550D01*
G75*
G02*
X61009550Y-118463800I243750J0D01*
G01*
X61922050Y-118463800D01*
G75*
G02*
X62165800Y-118707550I0J-243750D01*
G01*
X62165800Y-119195050D01*
G75*
G02*
X61922050Y-119438800I-243750J0D01*
G01*
G37*
G36*
G01*
X61922050Y-121313800D02*
X61009550Y-121313800D01*
G75*
G02*
X60765800Y-121070050I0J243750D01*
G01*
X60765800Y-120582550D01*
G75*
G02*
X61009550Y-120338800I243750J0D01*
G01*
X61922050Y-120338800D01*
G75*
G02*
X62165800Y-120582550I0J-243750D01*
G01*
X62165800Y-121070050D01*
G75*
G02*
X61922050Y-121313800I-243750J0D01*
G01*
G37*
G36*
G01*
X70271800Y-118528550D02*
X70271800Y-119441050D01*
G75*
G02*
X70028050Y-119684800I-243750J0D01*
G01*
X69540550Y-119684800D01*
G75*
G02*
X69296800Y-119441050I0J243750D01*
G01*
X69296800Y-118528550D01*
G75*
G02*
X69540550Y-118284800I243750J0D01*
G01*
X70028050Y-118284800D01*
G75*
G02*
X70271800Y-118528550I0J-243750D01*
G01*
G37*
G36*
G01*
X72146800Y-118528550D02*
X72146800Y-119441050D01*
G75*
G02*
X71903050Y-119684800I-243750J0D01*
G01*
X71415550Y-119684800D01*
G75*
G02*
X71171800Y-119441050I0J243750D01*
G01*
X71171800Y-118528550D01*
G75*
G02*
X71415550Y-118284800I243750J0D01*
G01*
X71903050Y-118284800D01*
G75*
G02*
X72146800Y-118528550I0J-243750D01*
G01*
G37*
G36*
G01*
X73489500Y-106844550D02*
X73489500Y-107757050D01*
G75*
G02*
X73245750Y-108000800I-243750J0D01*
G01*
X72758250Y-108000800D01*
G75*
G02*
X72514500Y-107757050I0J243750D01*
G01*
X72514500Y-106844550D01*
G75*
G02*
X72758250Y-106600800I243750J0D01*
G01*
X73245750Y-106600800D01*
G75*
G02*
X73489500Y-106844550I0J-243750D01*
G01*
G37*
G36*
G01*
X75364500Y-106844550D02*
X75364500Y-107757050D01*
G75*
G02*
X75120750Y-108000800I-243750J0D01*
G01*
X74633250Y-108000800D01*
G75*
G02*
X74389500Y-107757050I0J243750D01*
G01*
X74389500Y-106844550D01*
G75*
G02*
X74633250Y-106600800I243750J0D01*
G01*
X75120750Y-106600800D01*
G75*
G02*
X75364500Y-106844550I0J-243750D01*
G01*
G37*
G36*
G01*
X63149300Y-102591550D02*
X63149300Y-103504050D01*
G75*
G02*
X62905550Y-103747800I-243750J0D01*
G01*
X62418050Y-103747800D01*
G75*
G02*
X62174300Y-103504050I0J243750D01*
G01*
X62174300Y-102591550D01*
G75*
G02*
X62418050Y-102347800I243750J0D01*
G01*
X62905550Y-102347800D01*
G75*
G02*
X63149300Y-102591550I0J-243750D01*
G01*
G37*
G36*
G01*
X65024300Y-102591550D02*
X65024300Y-103504050D01*
G75*
G02*
X64780550Y-103747800I-243750J0D01*
G01*
X64293050Y-103747800D01*
G75*
G02*
X64049300Y-103504050I0J243750D01*
G01*
X64049300Y-102591550D01*
G75*
G02*
X64293050Y-102347800I243750J0D01*
G01*
X64780550Y-102347800D01*
G75*
G02*
X65024300Y-102591550I0J-243750D01*
G01*
G37*
G36*
G01*
X54595800Y-115416050D02*
X54595800Y-114503550D01*
G75*
G02*
X54839550Y-114259800I243750J0D01*
G01*
X55327050Y-114259800D01*
G75*
G02*
X55570800Y-114503550I0J-243750D01*
G01*
X55570800Y-115416050D01*
G75*
G02*
X55327050Y-115659800I-243750J0D01*
G01*
X54839550Y-115659800D01*
G75*
G02*
X54595800Y-115416050I0J243750D01*
G01*
G37*
G36*
G01*
X52720800Y-115416050D02*
X52720800Y-114503550D01*
G75*
G02*
X52964550Y-114259800I243750J0D01*
G01*
X53452050Y-114259800D01*
G75*
G02*
X53695800Y-114503550I0J-243750D01*
G01*
X53695800Y-115416050D01*
G75*
G02*
X53452050Y-115659800I-243750J0D01*
G01*
X52964550Y-115659800D01*
G75*
G02*
X52720800Y-115416050I0J243750D01*
G01*
G37*
G36*
G01*
X61918550Y-128587300D02*
X62831050Y-128587300D01*
G75*
G02*
X63074800Y-128831050I0J-243750D01*
G01*
X63074800Y-129318550D01*
G75*
G02*
X62831050Y-129562300I-243750J0D01*
G01*
X61918550Y-129562300D01*
G75*
G02*
X61674800Y-129318550I0J243750D01*
G01*
X61674800Y-128831050D01*
G75*
G02*
X61918550Y-128587300I243750J0D01*
G01*
G37*
G36*
G01*
X61918550Y-126712300D02*
X62831050Y-126712300D01*
G75*
G02*
X63074800Y-126956050I0J-243750D01*
G01*
X63074800Y-127443550D01*
G75*
G02*
X62831050Y-127687300I-243750J0D01*
G01*
X61918550Y-127687300D01*
G75*
G02*
X61674800Y-127443550I0J243750D01*
G01*
X61674800Y-126956050D01*
G75*
G02*
X61918550Y-126712300I243750J0D01*
G01*
G37*
M02*
