%TF.GenerationSoftware,KiCad,Pcbnew,5.0.2-bee76a0~70~ubuntu18.04.1*%
%TF.CreationDate,2020-08-10T14:48:16+02:00*%
%TF.ProjectId,gsvesc,67737665-7363-42e6-9b69-6361645f7063,rev?*%
%TF.SameCoordinates,Original*%
%TF.FileFunction,Copper,L3,Inr*%
%TF.FilePolarity,Positive*%
%FSLAX46Y46*%
G04 Gerber Fmt 4.6, Leading zero omitted, Abs format (unit mm)*
G04 Created by KiCad (PCBNEW 5.0.2-bee76a0~70~ubuntu18.04.1) date Mo 10 Aug 2020 14:48:16 CEST*
%MOMM*%
%LPD*%
G01*
G04 APERTURE LIST*
%ADD10C,0.200000*%
%ADD11R,1.700000X1.700000*%
%ADD12O,1.700000X1.700000*%
%ADD13C,0.600000*%
%ADD14C,1.850000*%
%ADD15C,0.840000*%
%ADD16C,0.100000*%
%ADD17C,0.500000*%
%ADD18C,0.150000*%
%ADD19C,0.600000*%
%ADD20C,0.254000*%
G04 APERTURE END LIST*
D10*
X155499800Y-99999800D02*
G75*
G03X155499800Y-99999800I-55500000J0D01*
G01*
X124500000Y-100000000D02*
G75*
G03X124500000Y-100000000I-24500000J0D01*
G01*
D11*
X143099800Y-116199800D03*
D12*
X145639800Y-116199800D03*
X148179800Y-116199800D03*
X76249800Y-126284800D03*
X76249800Y-123744800D03*
X76249800Y-121204800D03*
X76249800Y-118664800D03*
D11*
X76249800Y-116124800D03*
D13*
X94874800Y-137719800D03*
X94874800Y-138919800D03*
X96074800Y-138919800D03*
X96074800Y-137719800D03*
X94874800Y-141319800D03*
X94874800Y-140219800D03*
X96074800Y-140219800D03*
X96074800Y-141319800D03*
D14*
X59051280Y-131604760D03*
X63835564Y-136918246D03*
D15*
X60410060Y-133442623D03*
X61588140Y-133256537D03*
X61279930Y-134408712D03*
X62458010Y-134222625D03*
X62149800Y-135374800D03*
D16*
G36*
X62742956Y-135405886D02*
X62118714Y-135967956D01*
X61556644Y-135343714D01*
X62180886Y-134781644D01*
X62742956Y-135405886D01*
X62742956Y-135405886D01*
G37*
D17*
X74489800Y-104999800D03*
X99599800Y-144689800D03*
X62799800Y-104399800D03*
X98599800Y-128799800D03*
X97699800Y-128799800D03*
X96899800Y-128799800D03*
X96099800Y-128799800D03*
X116999800Y-140899800D03*
X117399800Y-149699778D03*
X111799800Y-142399800D03*
X53975800Y-100661800D03*
X110299800Y-66799800D03*
X110299800Y-65899800D03*
X111099800Y-65899800D03*
X110299800Y-68599800D03*
X111099800Y-68599800D03*
X111099800Y-66799800D03*
X110299800Y-67699800D03*
X111099800Y-67699800D03*
X89899800Y-67599800D03*
X89899800Y-66699800D03*
X89899800Y-68499800D03*
X90699800Y-67599800D03*
X90699800Y-65799800D03*
X89899800Y-65799800D03*
X90699800Y-68499800D03*
X90699800Y-66699800D03*
X70199800Y-68399800D03*
X70199800Y-67499800D03*
X70199800Y-65699800D03*
X70199800Y-66599800D03*
X131299800Y-102199800D03*
X132099800Y-102199800D03*
X132899800Y-102199800D03*
X133699800Y-102199800D03*
X134499800Y-102199800D03*
X135299800Y-102199800D03*
X136099800Y-102199800D03*
X136899800Y-102199800D03*
X131299800Y-102999800D03*
X132099800Y-102999800D03*
X132899800Y-102999800D03*
X133699800Y-102999800D03*
X134499800Y-102999800D03*
X135299800Y-102999800D03*
X136099800Y-102999800D03*
X136899800Y-102999800D03*
X131299800Y-103799800D03*
X132099800Y-103799800D03*
X132899800Y-103799800D03*
X133699800Y-103799800D03*
X134499800Y-103799800D03*
X135299800Y-103799800D03*
X136099800Y-103799800D03*
X136899800Y-103799800D03*
X131299800Y-104599800D03*
X132099800Y-104599800D03*
X132899800Y-104599800D03*
X133699800Y-104599800D03*
X134499800Y-104599800D03*
X135299800Y-104599800D03*
X136099800Y-104599800D03*
X136899800Y-104599800D03*
X131299800Y-105399800D03*
X132099800Y-105399800D03*
X132899800Y-105399800D03*
X133699800Y-105399800D03*
X134499800Y-105399800D03*
X135299800Y-105399800D03*
X136099800Y-105399800D03*
X136899800Y-105399800D03*
X131299800Y-106199800D03*
X132099800Y-106199800D03*
X132899800Y-106199800D03*
X133699800Y-106199800D03*
X134499800Y-106199800D03*
X135299800Y-106199800D03*
X136099800Y-106199800D03*
X136899800Y-106199800D03*
X131299800Y-106999800D03*
X132099800Y-106999800D03*
X132899800Y-106999800D03*
X133699800Y-106999800D03*
X134499800Y-106999800D03*
X135299800Y-106999800D03*
X136099800Y-106999800D03*
X136899800Y-106999800D03*
X131299800Y-107799800D03*
X132099800Y-107799800D03*
X132899800Y-107799800D03*
X133699800Y-107799800D03*
X134499800Y-107799800D03*
X135299800Y-107799800D03*
X136099800Y-107799800D03*
X136899800Y-107799800D03*
X131999800Y-99199800D03*
X131199800Y-95999800D03*
X130399800Y-95999800D03*
X130399800Y-99999800D03*
X131199800Y-99999800D03*
X131199800Y-98399800D03*
X131999800Y-98399800D03*
X131199800Y-99199800D03*
X130399800Y-97599800D03*
X131199800Y-97599800D03*
X130399800Y-96799800D03*
X131999800Y-99999800D03*
X130399800Y-98399800D03*
X131999800Y-96799800D03*
X131199800Y-96799800D03*
X131999800Y-97599800D03*
X131999800Y-95999800D03*
X130399800Y-99199800D03*
X137899800Y-97599800D03*
X136299800Y-99199800D03*
X137899800Y-98399800D03*
X137099800Y-97599800D03*
X136299800Y-96799800D03*
X137899800Y-99999800D03*
X136299800Y-95999800D03*
X137899800Y-99199800D03*
X137099800Y-95999800D03*
X137099800Y-99999800D03*
X136299800Y-99999800D03*
X137899800Y-96799800D03*
X136299800Y-97599800D03*
X137899800Y-95999800D03*
X137099800Y-96799800D03*
X137099800Y-99199800D03*
X137099800Y-98399800D03*
X136299800Y-98399800D03*
X126399800Y-74699800D03*
X124799800Y-76299800D03*
X126399800Y-75499800D03*
X125599800Y-74699800D03*
X124799800Y-73899800D03*
X126399800Y-77099800D03*
X124799800Y-73099800D03*
X126399800Y-76299800D03*
X125599800Y-73099800D03*
X125599800Y-77099800D03*
X124799800Y-77099800D03*
X126399800Y-73899800D03*
X124799800Y-74699800D03*
X126399800Y-73099800D03*
X125599800Y-73899800D03*
X125599800Y-76299800D03*
X125599800Y-75499800D03*
X124799800Y-75499800D03*
X122399800Y-77099800D03*
X123199800Y-77099800D03*
X123999800Y-76299800D03*
X122399800Y-76299800D03*
X123999800Y-73899800D03*
X122399800Y-73099800D03*
X123199800Y-76299800D03*
X123199800Y-73099800D03*
X123199800Y-73899800D03*
X123999800Y-77099800D03*
X123199800Y-74699800D03*
X123999800Y-74699800D03*
X122399800Y-74699800D03*
X123999800Y-75499800D03*
X123999800Y-73099800D03*
X123199800Y-75499800D03*
X122399800Y-75499800D03*
X122399800Y-73899800D03*
X126399800Y-79599800D03*
X126399800Y-78799800D03*
X125599800Y-77999800D03*
X125599800Y-79599800D03*
X123199800Y-77999800D03*
X122399800Y-79599800D03*
X125599800Y-78799800D03*
X122399800Y-78799800D03*
X123199800Y-78799800D03*
X126399800Y-77999800D03*
X123999800Y-78799800D03*
X123999800Y-77999800D03*
X123999800Y-79599800D03*
X124799800Y-77999800D03*
X122399800Y-77999800D03*
X124799800Y-78799800D03*
X124799800Y-79599800D03*
X123199800Y-79599800D03*
X69449800Y-68399800D03*
X69449800Y-67499800D03*
X69449800Y-65699800D03*
X69449800Y-66599800D03*
X68699800Y-68399800D03*
X68699800Y-67499800D03*
X68699800Y-65699800D03*
X68699800Y-66599800D03*
X67949800Y-67499800D03*
X67949800Y-65699800D03*
X67949800Y-68399800D03*
X67949800Y-66599800D03*
X70199800Y-69149800D03*
X68699800Y-69149800D03*
X69449800Y-69149800D03*
X67949800Y-69149800D03*
X72099800Y-64399800D03*
X72099800Y-63499800D03*
X71349800Y-64399800D03*
X71349800Y-63499800D03*
X72099800Y-65299800D03*
X71349800Y-65299800D03*
X89899800Y-69299800D03*
X90699800Y-69299800D03*
X88299800Y-67599800D03*
X88299800Y-66699800D03*
X88299800Y-68499800D03*
X89099800Y-67599800D03*
X89099800Y-65799800D03*
X88299800Y-65799800D03*
X89099800Y-68499800D03*
X89099800Y-66699800D03*
X88299800Y-69299800D03*
X89099800Y-69299800D03*
X92799800Y-63499800D03*
X92799800Y-65299800D03*
X92799800Y-64399800D03*
X108699800Y-66799800D03*
X108699800Y-65899800D03*
X109499800Y-65899800D03*
X108699800Y-68599800D03*
X109499800Y-68599800D03*
X109499800Y-66799800D03*
X108699800Y-67699800D03*
X109499800Y-67699800D03*
X110299800Y-69399800D03*
X111099800Y-69399800D03*
X108699800Y-69399800D03*
X109499800Y-69399800D03*
X112199800Y-64399800D03*
X112199800Y-63499800D03*
X112999800Y-63499800D03*
X112999800Y-64399800D03*
X112199800Y-65299800D03*
X112999800Y-65299800D03*
X91999800Y-63499800D03*
X91999800Y-65299800D03*
X91999800Y-64399800D03*
X72674800Y-77924800D03*
X62899800Y-85599800D03*
X62937304Y-77962296D03*
X52837300Y-78062300D03*
X52999800Y-85699800D03*
X78699800Y-80199800D03*
X50199800Y-85699800D03*
X60299800Y-85599800D03*
X50299800Y-78099800D03*
X60659057Y-77962295D03*
X71199800Y-77099800D03*
X72399800Y-85654800D03*
X70899800Y-86299776D03*
X85599800Y-145599800D03*
X64469800Y-119849800D03*
X79999796Y-123199800D03*
X50899800Y-107799800D03*
X57299790Y-109069891D03*
X73899800Y-110999800D03*
X59636549Y-110699790D03*
X53874200Y-98374200D03*
X63599800Y-102999800D03*
X59779800Y-123219800D03*
X54059800Y-104099800D03*
X54999800Y-116409800D03*
X74699800Y-143429800D03*
X79849800Y-141769800D03*
X82149800Y-142569800D03*
X84409800Y-143389800D03*
X86759800Y-144669800D03*
X84789800Y-148049800D03*
X95939800Y-150359800D03*
X101959800Y-152399800D03*
X82499800Y-131999800D03*
X83249800Y-131999800D03*
X83249800Y-130999800D03*
X82499800Y-130999800D03*
X83249800Y-129999800D03*
X82499800Y-129999800D03*
X83249800Y-128999800D03*
X82499800Y-128999800D03*
X83249800Y-127999800D03*
X82499800Y-127999800D03*
X61799800Y-98299800D03*
X68924790Y-120249800D03*
X133999800Y-134599800D03*
X73099808Y-98399800D03*
X47399800Y-97299800D03*
X68499800Y-97299800D03*
X64199800Y-88499800D03*
X74999800Y-88699800D03*
X135999800Y-128699800D03*
X58099800Y-97299800D03*
X61424790Y-119879800D03*
X54049800Y-88899800D03*
X72974821Y-105824790D03*
X79799800Y-78899800D03*
X55999790Y-108529800D03*
X51099800Y-87899800D03*
X60699800Y-87999800D03*
X56099800Y-111199800D03*
X61899800Y-111299800D03*
X56199800Y-112769800D03*
X69299800Y-87799800D03*
X68828439Y-111342568D03*
X59370300Y-117749800D03*
X73129300Y-118729300D03*
X81574800Y-78899800D03*
X83419800Y-144499800D03*
X70779068Y-111995386D03*
X81859800Y-144879800D03*
X68899800Y-112199800D03*
X80409800Y-144199800D03*
X68799800Y-112899798D03*
X77995086Y-113699980D03*
X66699987Y-115490928D03*
X92929800Y-147789800D03*
X78570683Y-115378917D03*
X62319800Y-117819798D03*
X91989800Y-147429800D03*
X78639800Y-116059800D03*
X62956832Y-117959053D03*
X91029800Y-147479800D03*
X66148370Y-115834779D03*
X77349800Y-113954779D03*
X90019800Y-147709800D03*
X70629800Y-138099800D03*
X60358786Y-107519531D03*
X71239800Y-138879800D03*
X60199800Y-108149800D03*
X72049802Y-139769800D03*
X59199810Y-108789549D03*
X68324779Y-105499800D03*
X73949800Y-106949800D03*
X68524779Y-107999800D03*
X73770212Y-108439388D03*
X127699800Y-128299800D03*
X63089800Y-126119800D03*
X63579336Y-108941302D03*
X63869800Y-126159800D03*
X63614801Y-109590346D03*
X73509800Y-139949800D03*
X64489800Y-117849800D03*
X52899800Y-83299800D03*
X57299789Y-108399800D03*
X68099800Y-110499800D03*
X62864800Y-83064800D03*
X68599800Y-109999800D03*
X71424790Y-110499800D03*
X71993405Y-83177962D03*
X71424790Y-109698896D03*
X81199800Y-59149800D03*
X82799800Y-57549800D03*
X81199800Y-58349800D03*
X84399800Y-55149800D03*
X84399800Y-56749800D03*
X84399800Y-58349800D03*
X81199800Y-57549800D03*
X82799800Y-56749800D03*
X81199800Y-55949800D03*
X81999800Y-57549800D03*
X81999800Y-56749800D03*
X81999800Y-58349800D03*
X82799800Y-55149800D03*
X84399800Y-57549800D03*
X82799800Y-59149800D03*
X81199800Y-56749800D03*
X81999800Y-59149800D03*
X83599800Y-59149800D03*
X81999800Y-55149800D03*
X83599800Y-55949800D03*
X83599800Y-55149800D03*
X81999800Y-55949800D03*
X82799800Y-55949800D03*
X83599800Y-57549800D03*
X84399800Y-59149800D03*
X82799800Y-58349800D03*
X83599800Y-56749800D03*
X81199800Y-55149800D03*
X83599800Y-58349800D03*
X84399800Y-55949800D03*
X85249800Y-55149800D03*
X85249800Y-59149800D03*
X85249800Y-55949800D03*
X85249800Y-57549800D03*
X85249800Y-56749800D03*
X85249800Y-58349800D03*
X105699800Y-56749800D03*
X104899800Y-58349800D03*
X104899800Y-57549800D03*
X101699800Y-59149800D03*
X101699800Y-56749800D03*
X105699800Y-59149800D03*
X101699800Y-57549800D03*
X104099800Y-56749800D03*
X104099800Y-59149800D03*
X102499800Y-56749800D03*
X104099800Y-55949800D03*
X104899800Y-55149800D03*
X103299800Y-55149800D03*
X103299800Y-55949800D03*
X101699800Y-58349800D03*
X104099800Y-58349800D03*
X102499800Y-59149800D03*
X104099800Y-57549800D03*
X101699800Y-55149800D03*
X105699800Y-55949800D03*
X104899800Y-59149800D03*
X104899800Y-55949800D03*
X103299800Y-57549800D03*
X102499800Y-57549800D03*
X102499800Y-58349800D03*
X102499800Y-55149800D03*
X104899800Y-56749800D03*
X104099800Y-55149800D03*
X105699800Y-57549800D03*
X103299800Y-58349800D03*
X102499800Y-55949800D03*
X105699800Y-58349800D03*
X101699800Y-55949800D03*
X103299800Y-56749800D03*
X103299800Y-59149800D03*
X105699800Y-55149800D03*
X66189800Y-106648331D03*
X67999800Y-128599800D03*
X130399800Y-132299800D03*
X68599800Y-128199800D03*
X66799800Y-106399800D03*
X129499800Y-131799800D03*
X65399790Y-104083186D03*
X63099800Y-89699800D03*
X64899799Y-93899800D03*
X73899800Y-89899800D03*
X54949800Y-88849800D03*
X124899800Y-55499800D03*
X123299800Y-57899800D03*
X126499800Y-57899800D03*
X122499800Y-58699800D03*
X125699800Y-55499800D03*
X126499800Y-55499800D03*
X123299800Y-59499800D03*
X124099800Y-59499800D03*
X124899800Y-59499800D03*
X125699800Y-59499800D03*
X126499800Y-59499800D03*
X122499800Y-57099800D03*
X123299800Y-57099800D03*
X124099800Y-57099800D03*
X124899800Y-57099800D03*
X122499800Y-57899800D03*
X124099800Y-57899800D03*
X124899800Y-57899800D03*
X125699800Y-57899800D03*
X122499800Y-56299800D03*
X126499800Y-58699800D03*
X122499800Y-59499800D03*
X123299800Y-58699800D03*
X124099800Y-58699800D03*
X124899800Y-58699800D03*
X125699800Y-58699800D03*
X125699800Y-56299800D03*
X126499800Y-56299800D03*
X123299800Y-55499800D03*
X122499800Y-55499800D03*
X123299800Y-56299800D03*
X124099800Y-56299800D03*
X124899800Y-56299800D03*
X124099800Y-55499800D03*
X125699800Y-57099800D03*
X126499800Y-57099800D03*
X146299800Y-101999800D03*
X147099800Y-107599800D03*
X147899800Y-107599800D03*
X148699800Y-107599800D03*
X149499800Y-107599800D03*
X147099800Y-102799800D03*
X145499800Y-105199800D03*
X144699800Y-101999800D03*
X147099800Y-101999800D03*
X143899800Y-101999800D03*
X147899800Y-101999800D03*
X148699800Y-105199800D03*
X149499800Y-105199800D03*
X143899800Y-105999800D03*
X144699800Y-105999800D03*
X147899800Y-102799800D03*
X148699800Y-102799800D03*
X145499800Y-106799800D03*
X146299800Y-106799800D03*
X147099800Y-106799800D03*
X147899800Y-106799800D03*
X148699800Y-106799800D03*
X144699800Y-104399800D03*
X145499800Y-104399800D03*
X146299800Y-104399800D03*
X147099800Y-104399800D03*
X144699800Y-105199800D03*
X146299800Y-105199800D03*
X147099800Y-105199800D03*
X147899800Y-105199800D03*
X143899800Y-103599800D03*
X144699800Y-103599800D03*
X143899800Y-102799800D03*
X148699800Y-105999800D03*
X149499800Y-105999800D03*
X143899800Y-106799800D03*
X144699800Y-106799800D03*
X149499800Y-106799800D03*
X143899800Y-107599800D03*
X144699800Y-107599800D03*
X145499800Y-107599800D03*
X146299800Y-107599800D03*
X145499800Y-105999800D03*
X146299800Y-105999800D03*
X147099800Y-105999800D03*
X147899800Y-105999800D03*
X147899800Y-103599800D03*
X148699800Y-103599800D03*
X149499800Y-103599800D03*
X143899800Y-104399800D03*
X145499800Y-102799800D03*
X144699800Y-102799800D03*
X148699800Y-101999800D03*
X145499800Y-103599800D03*
X146299800Y-103599800D03*
X147099800Y-103599800D03*
X146299800Y-102799800D03*
X145499800Y-101999800D03*
X147899800Y-104399800D03*
X148699800Y-104399800D03*
X149499800Y-104399800D03*
X143899800Y-105199800D03*
X149499800Y-101999800D03*
X149499800Y-102799800D03*
X48099800Y-115119800D03*
X118999800Y-144249800D03*
X118249800Y-144249800D03*
X117499800Y-144249800D03*
X113749800Y-144249800D03*
X114499800Y-144249800D03*
X115249800Y-144249800D03*
X115999800Y-144249800D03*
X116749800Y-144249800D03*
X121249800Y-144249800D03*
X120499800Y-144249800D03*
X119749800Y-144249800D03*
X135999800Y-132999800D03*
X109899800Y-55699800D03*
X109899800Y-56599800D03*
X109899800Y-58399800D03*
X110799800Y-58399800D03*
X110799800Y-55699800D03*
X110799800Y-59299800D03*
X109899800Y-57499800D03*
X110799800Y-57499800D03*
X110799800Y-56599800D03*
X109899800Y-59299800D03*
X90399800Y-59199800D03*
X89499800Y-56499800D03*
X89499800Y-59199800D03*
X89499800Y-55599800D03*
X90399800Y-57399800D03*
X90399800Y-56499800D03*
X89499800Y-57399800D03*
X89499800Y-58299800D03*
X90399800Y-55599800D03*
X90399800Y-58299800D03*
X69099800Y-56499800D03*
X69099800Y-55599800D03*
X69099800Y-59199800D03*
X69999800Y-58299800D03*
X69999800Y-59199800D03*
X69999800Y-57399800D03*
X69099800Y-57399800D03*
X69999800Y-55599800D03*
X69099800Y-58299800D03*
X69999800Y-56499800D03*
X149699800Y-90699800D03*
X151299800Y-90699800D03*
X151299800Y-91499800D03*
X150499800Y-88299800D03*
X149699800Y-89899800D03*
X149699800Y-91499800D03*
X151299800Y-88299800D03*
X150499800Y-87499800D03*
X150499800Y-91499800D03*
X150499800Y-89899800D03*
X151299800Y-89899800D03*
X150499800Y-90699800D03*
X149699800Y-89099800D03*
X151299800Y-87499800D03*
X149699800Y-88299800D03*
X149699800Y-87499800D03*
X150499800Y-89099800D03*
X151299800Y-89099800D03*
X144699800Y-87899800D03*
X143099800Y-87899800D03*
X144699800Y-89499800D03*
X144699800Y-88699800D03*
X142299800Y-88699800D03*
X142299800Y-87899800D03*
X140699800Y-88699800D03*
X140699800Y-89499800D03*
X143099800Y-89499800D03*
X141499800Y-88699800D03*
X143099800Y-88699800D03*
X142299800Y-89499800D03*
X140699800Y-87899800D03*
X141499800Y-89499800D03*
X143899800Y-87899800D03*
X143899800Y-88699800D03*
X141499800Y-87899800D03*
X143899800Y-89499800D03*
X143899800Y-83899800D03*
X144699800Y-86299800D03*
X143899800Y-83099800D03*
X145499800Y-85499800D03*
X145499800Y-82299800D03*
X145499800Y-83099800D03*
X144699800Y-85499800D03*
X144699800Y-84699800D03*
X144699800Y-83099800D03*
X143899800Y-84699800D03*
X144699800Y-83899800D03*
X144699800Y-82299800D03*
X145499800Y-84699800D03*
X145499800Y-86299800D03*
X143899800Y-82299800D03*
X143899800Y-85499800D03*
X145499800Y-83899800D03*
X143899800Y-86299800D03*
X138699800Y-85699800D03*
X137899800Y-83299800D03*
X138699800Y-83299800D03*
X139499800Y-83299800D03*
X139499800Y-82499800D03*
X137899800Y-82499800D03*
X137899800Y-85699800D03*
X137899800Y-84899800D03*
X138699800Y-86499800D03*
X139499800Y-84899800D03*
X138699800Y-82499800D03*
X139499800Y-86499800D03*
X139499800Y-84099800D03*
X137899800Y-86499800D03*
X138699800Y-84899800D03*
X138699800Y-84099800D03*
X139499800Y-85699800D03*
X137899800Y-84099800D03*
X113199800Y-56299800D03*
X113999800Y-59499800D03*
X115599800Y-57899800D03*
X116399800Y-58699800D03*
X113999800Y-55499800D03*
X114799800Y-58699800D03*
X115599800Y-57099800D03*
X114799800Y-55499800D03*
X115599800Y-56299800D03*
X113199800Y-55499800D03*
X113199800Y-57099800D03*
X114799800Y-56299800D03*
X115599800Y-59499800D03*
X116399800Y-55499800D03*
X114799800Y-57099800D03*
X113999800Y-58699800D03*
X113999800Y-57899800D03*
X116399800Y-59499800D03*
X116399800Y-56299800D03*
X115599800Y-58699800D03*
X113999800Y-56299800D03*
X113199800Y-57899800D03*
X114799800Y-57899800D03*
X115599800Y-55499800D03*
X116399800Y-57899800D03*
X114799800Y-59499800D03*
X113199800Y-59499800D03*
X116399800Y-57099800D03*
X113199800Y-58699800D03*
X113999800Y-57099800D03*
X94499800Y-55299800D03*
X92899800Y-56099800D03*
X93699800Y-55299800D03*
X92899800Y-56899800D03*
X94499800Y-56899800D03*
X96099800Y-55299800D03*
X92899800Y-59299800D03*
X96099800Y-59299800D03*
X96099800Y-57699800D03*
X92899800Y-57699800D03*
X93699800Y-59299800D03*
X95299800Y-56099800D03*
X95299800Y-58499800D03*
X96099800Y-56899800D03*
X95299800Y-56899800D03*
X93699800Y-56899800D03*
X95299800Y-57699800D03*
X93699800Y-57699800D03*
X94499800Y-58499800D03*
X94499800Y-57699800D03*
X95299800Y-59299800D03*
X93699800Y-56099800D03*
X94499800Y-56099800D03*
X92899800Y-58499800D03*
X96099800Y-56099800D03*
X93699800Y-58499800D03*
X95299800Y-55299800D03*
X94499800Y-59299800D03*
X96099800Y-58499800D03*
X92899800Y-55299800D03*
X74799800Y-59399800D03*
X72399800Y-56199800D03*
X73199800Y-55399800D03*
X73199800Y-57799800D03*
X75599800Y-56999800D03*
X73199800Y-56999800D03*
X75599800Y-58599800D03*
X72399800Y-58599800D03*
X75599800Y-55399800D03*
X72399800Y-57799800D03*
X73999800Y-59399800D03*
X74799800Y-57799800D03*
X75599800Y-59399800D03*
X73199800Y-58599800D03*
X72399800Y-55399800D03*
X73999800Y-57799800D03*
X72399800Y-56999800D03*
X73999800Y-55399800D03*
X74799800Y-58599800D03*
X73199800Y-59399800D03*
X74799800Y-56199800D03*
X73999800Y-58599800D03*
X73999800Y-56199800D03*
X73199800Y-56199800D03*
X74799800Y-55399800D03*
X74799800Y-56999800D03*
X75599800Y-57799800D03*
X75599800Y-56199800D03*
X73999800Y-56999800D03*
X72399800Y-59399800D03*
X139599800Y-126649800D03*
X115099800Y-69099800D03*
X116699800Y-66699800D03*
X115099800Y-69899800D03*
X117499800Y-69099800D03*
X114299800Y-66699800D03*
X115899800Y-69099800D03*
X117499800Y-68299800D03*
X116699800Y-67499800D03*
X116699800Y-68299800D03*
X115899800Y-66699800D03*
X115099800Y-70699800D03*
X117499800Y-70699800D03*
X117499800Y-69899800D03*
X115099800Y-67499800D03*
X114299800Y-69899800D03*
X116699800Y-69899800D03*
X114299800Y-70699800D03*
X115899800Y-69899800D03*
X115899800Y-70699800D03*
X114299800Y-67499800D03*
X115899800Y-67499800D03*
X117499800Y-67499800D03*
X114299800Y-69099800D03*
X116699800Y-70699800D03*
X114299800Y-68299800D03*
X115899800Y-68299800D03*
X115099800Y-66699800D03*
X117499800Y-66699800D03*
X115099800Y-68299800D03*
X116699800Y-69099800D03*
X77799800Y-83899800D03*
X67399800Y-97299800D03*
X75076417Y-92551416D03*
X95399800Y-67299800D03*
X96199800Y-69699800D03*
X96199800Y-68099800D03*
X96999800Y-70499800D03*
X94599800Y-70499800D03*
X96999800Y-66499800D03*
X96999800Y-69699800D03*
X96999800Y-68899800D03*
X95399800Y-70499800D03*
X96199800Y-68899800D03*
X96999800Y-68099800D03*
X95399800Y-68099800D03*
X93799800Y-66499800D03*
X95399800Y-66499800D03*
X94599800Y-67299800D03*
X94599800Y-69699800D03*
X94599800Y-66499800D03*
X93799800Y-69699800D03*
X96199800Y-70499800D03*
X93799800Y-68099800D03*
X96199800Y-67299800D03*
X96199800Y-66499800D03*
X93799800Y-67299800D03*
X93799800Y-70499800D03*
X94599800Y-68099800D03*
X95399800Y-69699800D03*
X93799800Y-68899800D03*
X94599800Y-68899800D03*
X96999800Y-67299800D03*
X95399800Y-68899800D03*
X68499800Y-84399800D03*
X58685110Y-97889259D03*
X62199800Y-92599800D03*
X76499800Y-68199800D03*
X73299800Y-68199800D03*
X73299800Y-67399800D03*
X76499800Y-69799800D03*
X73299800Y-69799800D03*
X76499800Y-68999800D03*
X74899800Y-70599800D03*
X75699800Y-69799800D03*
X74099800Y-68999800D03*
X75699800Y-67399800D03*
X76499800Y-70599800D03*
X74899800Y-67399800D03*
X73299800Y-70599800D03*
X74899800Y-66599800D03*
X74099800Y-70599800D03*
X75699800Y-68199800D03*
X74099800Y-66599800D03*
X74899800Y-69799800D03*
X74899800Y-68999800D03*
X75699800Y-68999800D03*
X74899800Y-68199800D03*
X74099800Y-69799800D03*
X75699800Y-66599800D03*
X76499800Y-67399800D03*
X75699800Y-70599800D03*
X74099800Y-67399800D03*
X73299800Y-68999800D03*
X73299800Y-66599800D03*
X76499800Y-66599800D03*
X74099800Y-68199800D03*
X48899800Y-97399800D03*
X58299800Y-84499800D03*
X52299800Y-92599812D03*
X54899796Y-99499800D03*
X70269800Y-99399800D03*
X73099800Y-99499800D03*
X65799800Y-98399800D03*
X70850844Y-111349349D03*
X94599800Y-53099800D03*
X65299800Y-83099800D03*
X100499800Y-136499800D03*
X100499800Y-135499800D03*
X100499800Y-134249800D03*
X100499800Y-132999800D03*
X100499800Y-131749800D03*
X100499800Y-130499800D03*
X100499800Y-129249800D03*
X137099800Y-136099800D03*
X114199800Y-150199802D03*
X50237257Y-79937257D03*
X102399800Y-142949810D03*
X68799800Y-133999800D03*
X61699800Y-78949800D03*
X71299800Y-78899800D03*
X67599800Y-72399800D03*
X58299804Y-85699800D03*
X73899800Y-53199800D03*
X55199800Y-83199800D03*
X77594762Y-85704800D03*
X108599800Y-72499800D03*
X114799800Y-53599800D03*
X74899800Y-83199800D03*
X65689800Y-114484800D03*
X59599800Y-114484800D03*
X66499780Y-102974924D03*
X59399800Y-102999800D03*
X57239800Y-114319800D03*
X48799800Y-101599806D03*
X59469804Y-113779804D03*
X50049800Y-113779800D03*
X86837299Y-72337299D03*
X68599800Y-85599800D03*
X122299800Y-143999800D03*
X99999800Y-141399790D03*
X62883251Y-84455017D03*
X67799800Y-113624802D03*
X68799800Y-114099802D03*
X56599800Y-115199800D03*
X52863916Y-84035682D03*
X72499800Y-84399800D03*
X72199800Y-112499800D03*
X50899800Y-108499800D03*
X57299790Y-109719904D03*
X127899800Y-127499800D03*
X70949800Y-132349800D03*
X65099800Y-130899800D03*
X61249800Y-106599796D03*
X65699800Y-130399800D03*
X72949800Y-132449800D03*
X61899800Y-106549800D03*
X119219800Y-147479800D03*
X112474800Y-144274800D03*
X132699800Y-135899800D03*
D18*
X74489800Y-106689800D02*
X74489800Y-105353353D01*
X75599800Y-107799800D02*
X74489800Y-106689800D01*
X76099800Y-108331014D02*
X75599800Y-107831014D01*
X75599800Y-107831014D02*
X75599800Y-107799800D01*
X78499800Y-113199800D02*
X76099800Y-110799800D01*
X76099800Y-110799800D02*
X76099800Y-108331014D01*
X99599800Y-140996798D02*
X99599800Y-135299800D01*
X99349801Y-144439801D02*
X99349801Y-141246797D01*
X99599800Y-135299800D02*
X78499800Y-114199800D01*
X99599800Y-144689800D02*
X99349801Y-144439801D01*
X99349801Y-141246797D02*
X99599800Y-140996798D01*
X74489800Y-105353353D02*
X74489800Y-104999800D01*
X78499800Y-114199800D02*
X78499800Y-113199800D01*
X85599800Y-145599800D02*
X85599800Y-143529800D01*
X79999796Y-123553353D02*
X79999796Y-123199800D01*
X79999796Y-137929796D02*
X79999796Y-123553353D01*
X85599800Y-143529800D02*
X79999796Y-137929796D01*
X74209800Y-111309800D02*
X73899800Y-110999800D01*
X74209800Y-124244800D02*
X74209800Y-111309800D01*
X76249800Y-126284800D02*
X74209800Y-124244800D01*
D10*
X74999800Y-88346247D02*
X74999800Y-88699800D01*
X74999800Y-84639802D02*
X74999800Y-88346247D01*
X79799800Y-79839802D02*
X74999800Y-84639802D01*
X79799800Y-78899800D02*
X79799800Y-79839802D01*
X55999790Y-97199800D02*
X55999790Y-97099790D01*
X55999790Y-108529800D02*
X55999790Y-97199800D01*
X51366570Y-87899800D02*
X51099800Y-87899800D01*
X55999800Y-92533030D02*
X51366570Y-87899800D01*
X55999790Y-97199800D02*
X55999800Y-97199790D01*
X55999800Y-97199790D02*
X55999800Y-92533030D01*
X61899800Y-108039802D02*
X61899800Y-110946247D01*
X60699800Y-87999800D02*
X60699800Y-106839802D01*
X60699800Y-106839802D02*
X61899800Y-108039802D01*
X61899800Y-110946247D02*
X61899800Y-111299800D01*
X69549799Y-110621208D02*
X69078438Y-111092569D01*
X69299800Y-87799800D02*
X69549799Y-88049799D01*
X69549799Y-88049799D02*
X69549799Y-110621208D01*
X69078438Y-111092569D02*
X68828439Y-111342568D01*
X73129300Y-118729300D02*
X73129300Y-106415323D01*
X81574800Y-82964802D02*
X81574800Y-79253353D01*
X81574800Y-79253353D02*
X81574800Y-78899800D01*
X73749800Y-90789802D02*
X81574800Y-82964802D01*
X73749800Y-105794823D02*
X73749800Y-90789802D01*
X73129300Y-106415323D02*
X73749800Y-105794823D01*
D18*
X70699800Y-129109800D02*
X70699800Y-112428207D01*
X83419800Y-141829800D02*
X70699800Y-129109800D01*
X70699800Y-112428207D02*
X70779068Y-112348939D01*
X83419800Y-144499800D02*
X83419800Y-141829800D01*
X70779068Y-112348939D02*
X70779068Y-111995386D01*
X69699800Y-112999800D02*
X68899800Y-112199800D01*
X81859800Y-144879800D02*
X69699800Y-132719800D01*
X69699800Y-132719800D02*
X69699800Y-112999800D01*
X69399800Y-113499798D02*
X68799800Y-112899798D01*
X69399800Y-133189800D02*
X69399800Y-113499798D01*
X80409800Y-144199800D02*
X69399800Y-133189800D01*
X77995086Y-114119364D02*
X77995086Y-113699980D01*
X92929800Y-147789800D02*
X92929800Y-129054078D01*
X92929800Y-129054078D02*
X77995086Y-114119364D01*
X91989800Y-147429800D02*
X91989800Y-128719800D01*
X78648917Y-115378917D02*
X78570683Y-115378917D01*
X91989800Y-128719800D02*
X78648917Y-115378917D01*
X91029800Y-147479800D02*
X91029800Y-145042636D01*
X80969844Y-134982680D02*
X80969844Y-123557037D01*
X80969844Y-123557037D02*
X80974812Y-123552069D01*
X80974812Y-123552069D02*
X80974812Y-118394812D01*
X91029800Y-145042636D02*
X80969844Y-134982680D01*
X78889799Y-116309799D02*
X78639800Y-116059800D01*
X80974812Y-118394812D02*
X78889799Y-116309799D01*
X80669833Y-123432769D02*
X80674801Y-123427801D01*
X90019800Y-144456915D02*
X80669833Y-135106948D01*
X80669833Y-135106948D02*
X80669833Y-123432769D01*
X80674801Y-122971799D02*
X80669833Y-122966831D01*
X80674801Y-123427801D02*
X80674801Y-122971799D01*
X77349800Y-115659800D02*
X77349800Y-114308332D01*
X77349800Y-114308332D02*
X77349800Y-113954779D01*
X80669833Y-122966831D02*
X80669833Y-118979833D01*
X80669833Y-118979833D02*
X77349800Y-115659800D01*
X90019800Y-147709800D02*
X90019800Y-144456915D01*
X60949789Y-108110534D02*
X60608785Y-107769530D01*
X60608785Y-107769530D02*
X60358786Y-107519531D01*
X60949789Y-128419789D02*
X60949789Y-108110534D01*
X70629800Y-138099800D02*
X60949789Y-128419789D01*
X60449799Y-108399799D02*
X60199800Y-108149800D01*
X69425521Y-138879800D02*
X60639789Y-130094068D01*
X60639789Y-108589789D02*
X60449799Y-108399799D01*
X71239800Y-138879800D02*
X69425521Y-138879800D01*
X60639789Y-130094068D02*
X60639789Y-108589789D01*
X72049802Y-139769800D02*
X69820752Y-139769800D01*
X58607657Y-109381702D02*
X58949811Y-109039548D01*
X58607657Y-111494401D02*
X58607657Y-109381702D01*
X69820752Y-139769800D02*
X58892739Y-128841787D01*
X58892739Y-128841787D02*
X58892739Y-111779483D01*
X58949811Y-109039548D02*
X59199810Y-108789549D01*
X58892739Y-111779483D02*
X58607657Y-111494401D01*
X76249800Y-118664800D02*
X74809822Y-117224822D01*
X74809822Y-107809822D02*
X74199799Y-107199799D01*
X74199799Y-107199799D02*
X73949800Y-106949800D01*
X74809822Y-117224822D02*
X74809822Y-107809822D01*
X74509811Y-122004811D02*
X74509811Y-109178987D01*
X76249800Y-123744800D02*
X74509811Y-122004811D01*
X74020211Y-108689387D02*
X73770212Y-108439388D01*
X74509811Y-109178987D02*
X74020211Y-108689387D01*
X63329337Y-109191301D02*
X63579336Y-108941302D01*
X63529800Y-117829019D02*
X63299800Y-117599019D01*
X63139800Y-109380838D02*
X63329337Y-109191301D01*
X63139800Y-109818347D02*
X63139800Y-109380838D01*
X63089800Y-126119800D02*
X63529800Y-125679800D01*
X63529800Y-125679800D02*
X63529800Y-117829019D01*
X63299800Y-117599019D02*
X63299800Y-109978347D01*
X63299800Y-109978347D02*
X63139800Y-109818347D01*
X63614801Y-109943899D02*
X63614801Y-109590346D01*
X63614801Y-117489741D02*
X63614801Y-109943899D01*
X63869800Y-126159800D02*
X63869800Y-117744740D01*
X63869800Y-117744740D02*
X63614801Y-117489741D01*
X66249800Y-132689800D02*
X73259801Y-139699801D01*
X64489800Y-117849800D02*
X66249800Y-119609800D01*
X73259801Y-139699801D02*
X73509800Y-139949800D01*
X66249800Y-119609800D02*
X66249800Y-132689800D01*
X57199800Y-108399800D02*
X57299789Y-108399800D01*
X57299789Y-89827092D02*
X57299789Y-108046247D01*
X57299789Y-108046247D02*
X57299789Y-108399800D01*
X57874812Y-89252069D02*
X57299789Y-89827092D01*
X52899800Y-83299800D02*
X57874812Y-88274812D01*
X57874812Y-88274812D02*
X57874812Y-89252069D01*
X62864800Y-83064800D02*
X63114799Y-83314799D01*
X63114799Y-83314799D02*
X63114799Y-84014799D01*
X63114799Y-84014799D02*
X65799800Y-86699800D01*
X68199800Y-109999800D02*
X68599800Y-109999800D01*
X67703344Y-109503344D02*
X68199800Y-109999800D01*
X68727801Y-89627801D02*
X68727801Y-96824799D01*
X65799800Y-86699800D02*
X68727801Y-89627801D01*
X68727801Y-96824799D02*
X68974801Y-97071799D01*
X68974801Y-97071799D02*
X68974801Y-105724799D01*
X68974801Y-105724799D02*
X67703344Y-106996256D01*
X67703344Y-106996256D02*
X67703344Y-109503344D01*
X65899800Y-86799800D02*
X70799800Y-86799800D01*
X70799800Y-86799800D02*
X71274811Y-87274811D01*
X71274811Y-87274811D02*
X71274811Y-109145871D01*
X71274811Y-109145871D02*
X70949788Y-109470894D01*
X70949788Y-110024798D02*
X71174791Y-110249801D01*
X70949788Y-109470894D02*
X70949788Y-110024798D01*
X65799800Y-86699800D02*
X65899800Y-86799800D01*
X71174791Y-110249801D02*
X71424790Y-110499800D01*
X71993405Y-83177962D02*
X71599789Y-83571578D01*
X71599789Y-109523897D02*
X71424790Y-109698896D01*
X71599789Y-83571578D02*
X71599789Y-109523897D01*
D10*
X67999800Y-128246247D02*
X67999800Y-128599800D01*
X67999800Y-115199800D02*
X67999800Y-128246247D01*
X66399800Y-113599800D02*
X67999800Y-115199800D01*
X66189800Y-106648331D02*
X66399800Y-106858331D01*
X66399800Y-106858331D02*
X66399800Y-113599800D01*
X68349801Y-115054811D02*
X66799800Y-113504810D01*
X66799800Y-106753353D02*
X66799800Y-106399800D01*
X68349801Y-127949801D02*
X68349801Y-115054811D01*
X66799800Y-113504810D02*
X66799800Y-106753353D01*
X68599800Y-128199800D02*
X68349801Y-127949801D01*
X65199832Y-100439854D02*
X65199832Y-96553353D01*
X65399790Y-100639812D02*
X65199832Y-100439854D01*
X65399790Y-104083186D02*
X65399790Y-100639812D01*
X65199832Y-96553353D02*
X64899799Y-96253320D01*
X64899799Y-96253320D02*
X64899799Y-93899800D01*
X64899799Y-93899800D02*
X64899799Y-91499799D01*
X64899799Y-91499799D02*
X63099800Y-89699800D01*
X70850844Y-110995796D02*
X70850844Y-111349349D01*
X70399800Y-110544752D02*
X70850844Y-110995796D01*
X70269800Y-99399800D02*
X70399800Y-99529800D01*
X70399800Y-99529800D02*
X70399800Y-110544752D01*
X67099800Y-130299800D02*
X67099800Y-130399800D01*
D19*
X67099800Y-130399800D02*
X67099800Y-132299800D01*
X67099800Y-132299800D02*
X68549801Y-133749801D01*
X68549801Y-133749801D02*
X68799800Y-133999800D01*
X60712343Y-79937257D02*
X61699800Y-78949800D01*
X50237257Y-79937257D02*
X60712343Y-79937257D01*
X71249800Y-78949800D02*
X71299800Y-78899800D01*
X61699800Y-78949800D02*
X71249800Y-78949800D01*
X61499800Y-96199800D02*
X61499800Y-79149800D01*
X67099800Y-130299800D02*
X67099800Y-118099800D01*
X64314811Y-99014811D02*
X61499800Y-96199800D01*
X67099800Y-118099800D02*
X64314811Y-115314811D01*
X64314811Y-115314811D02*
X64314811Y-99014811D01*
X61499800Y-79149800D02*
X61699800Y-78949800D01*
D10*
X65689800Y-114484800D02*
X65689800Y-105709800D01*
X66499780Y-104899820D02*
X66499780Y-102974924D01*
X65689800Y-105709800D02*
X66499780Y-104899820D01*
X57239800Y-114319800D02*
X58099799Y-113459801D01*
X58099799Y-113459801D02*
X58099799Y-104299801D01*
X59149801Y-103249799D02*
X59399800Y-102999800D01*
X58099799Y-104299801D02*
X59149801Y-103249799D01*
X50049800Y-113779800D02*
X50049800Y-102849806D01*
X50049800Y-102849806D02*
X48799800Y-101599806D01*
D18*
X67724802Y-113624802D02*
X67799800Y-113624802D01*
X63055017Y-84455017D02*
X68024799Y-89424799D01*
X68024799Y-89424799D02*
X68024799Y-105096778D01*
X62883251Y-84455017D02*
X63055017Y-84455017D01*
X68024799Y-105096778D02*
X67399800Y-105721777D01*
X67399800Y-105721777D02*
X67399800Y-113299800D01*
X67399800Y-113299800D02*
X67724802Y-113624802D01*
X56674801Y-110441799D02*
X56599800Y-110366798D01*
X53385681Y-84285681D02*
X53113915Y-84285681D01*
X53113915Y-84285681D02*
X52863916Y-84035682D01*
X56674801Y-114771246D02*
X56674801Y-110441799D01*
X56599800Y-87499800D02*
X53385681Y-84285681D01*
X56599800Y-110366798D02*
X56599800Y-87499800D01*
X56599800Y-114846247D02*
X56674801Y-114771246D01*
X56599800Y-115199800D02*
X56599800Y-114846247D01*
X71899800Y-111699802D02*
X72449799Y-112249801D01*
X72449799Y-112249801D02*
X72199800Y-112499800D01*
X71899800Y-91099800D02*
X71899800Y-111699802D01*
X71899800Y-91099800D02*
X71899800Y-84999800D01*
X71899800Y-84999800D02*
X72499800Y-84399800D01*
X61899800Y-119349800D02*
X61449800Y-118899800D01*
X61899800Y-127699800D02*
X61899800Y-119349800D01*
X61499799Y-106849795D02*
X61249800Y-106599796D01*
X61449800Y-118899800D02*
X61449800Y-116974801D01*
X61449800Y-116974801D02*
X62374801Y-116049800D01*
X62374801Y-116049800D02*
X62374801Y-107724797D01*
X62374801Y-107724797D02*
X61499799Y-106849795D01*
X65099800Y-130899800D02*
X61899800Y-127699800D01*
X62199800Y-126899800D02*
X62199800Y-119049800D01*
X61844799Y-118694799D02*
X61844799Y-117204823D01*
X61844799Y-117204823D02*
X62674811Y-116374811D01*
X62149799Y-106799799D02*
X61899800Y-106549800D01*
X62674811Y-107324811D02*
X62149799Y-106799799D01*
X62199800Y-119049800D02*
X61844799Y-118694799D01*
X65699800Y-130399800D02*
X62199800Y-126899800D01*
X62674811Y-116374811D02*
X62674811Y-107324811D01*
D20*
G36*
X113572800Y-71699800D02*
X113582467Y-71748401D01*
X113609997Y-71789603D01*
X113651199Y-71817133D01*
X113699800Y-71826800D01*
X128818855Y-71826800D01*
X139672800Y-95127929D01*
X139672800Y-111672800D01*
X122042019Y-111672800D01*
X122108121Y-111557846D01*
X122963835Y-109747569D01*
X123671610Y-107874497D01*
X124226887Y-105950694D01*
X124626088Y-103988556D01*
X124866643Y-102000723D01*
X124947000Y-100000000D01*
X124941529Y-99477549D01*
X124819289Y-97478949D01*
X124537157Y-95496589D01*
X124096952Y-93543241D01*
X123501507Y-91631490D01*
X122754661Y-89773650D01*
X121861223Y-87981691D01*
X120826950Y-86267157D01*
X119658504Y-84641093D01*
X118363414Y-83113975D01*
X116950022Y-81695641D01*
X115427434Y-80395228D01*
X113805459Y-79221114D01*
X112094546Y-78180862D01*
X110305716Y-77281175D01*
X108450495Y-76527847D01*
X106540833Y-75925734D01*
X104589034Y-75478712D01*
X102607672Y-75189662D01*
X100609510Y-75060447D01*
X98607421Y-75091898D01*
X96614304Y-75283814D01*
X94642998Y-75634957D01*
X92706203Y-76143065D01*
X91764628Y-76472800D01*
X50225564Y-76472800D01*
X50929398Y-74997181D01*
X52305183Y-72463300D01*
X52414428Y-72285028D01*
X67022800Y-72285028D01*
X67022800Y-72514572D01*
X67110643Y-72726644D01*
X67272956Y-72888957D01*
X67485028Y-72976800D01*
X67714572Y-72976800D01*
X67926644Y-72888957D01*
X68088957Y-72726644D01*
X68176800Y-72514572D01*
X68176800Y-72285028D01*
X68150912Y-72222527D01*
X86260299Y-72222527D01*
X86260299Y-72452071D01*
X86348142Y-72664143D01*
X86510455Y-72826456D01*
X86722527Y-72914299D01*
X86952071Y-72914299D01*
X87164143Y-72826456D01*
X87326456Y-72664143D01*
X87414299Y-72452071D01*
X87414299Y-72385028D01*
X108022800Y-72385028D01*
X108022800Y-72614572D01*
X108110643Y-72826644D01*
X108272956Y-72988957D01*
X108485028Y-73076800D01*
X108714572Y-73076800D01*
X108926644Y-72988957D01*
X109088957Y-72826644D01*
X109176800Y-72614572D01*
X109176800Y-72385028D01*
X109088957Y-72172956D01*
X108926644Y-72010643D01*
X108714572Y-71922800D01*
X108485028Y-71922800D01*
X108272956Y-72010643D01*
X108110643Y-72172956D01*
X108022800Y-72385028D01*
X87414299Y-72385028D01*
X87414299Y-72222527D01*
X87326456Y-72010455D01*
X87164143Y-71848142D01*
X86952071Y-71760299D01*
X86722527Y-71760299D01*
X86510455Y-71848142D01*
X86348142Y-72010455D01*
X86260299Y-72222527D01*
X68150912Y-72222527D01*
X68088957Y-72072956D01*
X67926644Y-71910643D01*
X67714572Y-71822800D01*
X67485028Y-71822800D01*
X67272956Y-71910643D01*
X67110643Y-72072956D01*
X67022800Y-72285028D01*
X52414428Y-72285028D01*
X53811696Y-70004894D01*
X55444807Y-67628703D01*
X56322379Y-66485028D01*
X72722800Y-66485028D01*
X72722800Y-66714572D01*
X72810643Y-66926644D01*
X72883799Y-66999800D01*
X72810643Y-67072956D01*
X72722800Y-67285028D01*
X72722800Y-67514572D01*
X72810643Y-67726644D01*
X72883799Y-67799800D01*
X72810643Y-67872956D01*
X72722800Y-68085028D01*
X72722800Y-68314572D01*
X72810643Y-68526644D01*
X72883799Y-68599800D01*
X72810643Y-68672956D01*
X72722800Y-68885028D01*
X72722800Y-69114572D01*
X72810643Y-69326644D01*
X72883799Y-69399800D01*
X72810643Y-69472956D01*
X72722800Y-69685028D01*
X72722800Y-69914572D01*
X72810643Y-70126644D01*
X72883799Y-70199800D01*
X72810643Y-70272956D01*
X72722800Y-70485028D01*
X72722800Y-70714572D01*
X72810643Y-70926644D01*
X72972956Y-71088957D01*
X73185028Y-71176800D01*
X73414572Y-71176800D01*
X73626644Y-71088957D01*
X73699800Y-71015801D01*
X73772956Y-71088957D01*
X73985028Y-71176800D01*
X74214572Y-71176800D01*
X74426644Y-71088957D01*
X74499800Y-71015801D01*
X74572956Y-71088957D01*
X74785028Y-71176800D01*
X75014572Y-71176800D01*
X75226644Y-71088957D01*
X75299800Y-71015801D01*
X75372956Y-71088957D01*
X75585028Y-71176800D01*
X75814572Y-71176800D01*
X76026644Y-71088957D01*
X76099800Y-71015801D01*
X76172956Y-71088957D01*
X76385028Y-71176800D01*
X76614572Y-71176800D01*
X76826644Y-71088957D01*
X76988957Y-70926644D01*
X77076800Y-70714572D01*
X77076800Y-70485028D01*
X76988957Y-70272956D01*
X76915801Y-70199800D01*
X76988957Y-70126644D01*
X77076800Y-69914572D01*
X77076800Y-69685028D01*
X76988957Y-69472956D01*
X76915801Y-69399800D01*
X76988957Y-69326644D01*
X77076800Y-69114572D01*
X77076800Y-68885028D01*
X76988957Y-68672956D01*
X76915801Y-68599800D01*
X76988957Y-68526644D01*
X77076800Y-68314572D01*
X77076800Y-68085028D01*
X76988957Y-67872956D01*
X76915801Y-67799800D01*
X76988957Y-67726644D01*
X77076800Y-67514572D01*
X77076800Y-67285028D01*
X76988957Y-67072956D01*
X76915801Y-66999800D01*
X76988957Y-66926644D01*
X77076800Y-66714572D01*
X77076800Y-66485028D01*
X77035379Y-66385028D01*
X93222800Y-66385028D01*
X93222800Y-66614572D01*
X93310643Y-66826644D01*
X93383799Y-66899800D01*
X93310643Y-66972956D01*
X93222800Y-67185028D01*
X93222800Y-67414572D01*
X93310643Y-67626644D01*
X93383799Y-67699800D01*
X93310643Y-67772956D01*
X93222800Y-67985028D01*
X93222800Y-68214572D01*
X93310643Y-68426644D01*
X93383799Y-68499800D01*
X93310643Y-68572956D01*
X93222800Y-68785028D01*
X93222800Y-69014572D01*
X93310643Y-69226644D01*
X93383799Y-69299800D01*
X93310643Y-69372956D01*
X93222800Y-69585028D01*
X93222800Y-69814572D01*
X93310643Y-70026644D01*
X93383799Y-70099800D01*
X93310643Y-70172956D01*
X93222800Y-70385028D01*
X93222800Y-70614572D01*
X93310643Y-70826644D01*
X93472956Y-70988957D01*
X93685028Y-71076800D01*
X93914572Y-71076800D01*
X94126644Y-70988957D01*
X94199800Y-70915801D01*
X94272956Y-70988957D01*
X94485028Y-71076800D01*
X94714572Y-71076800D01*
X94926644Y-70988957D01*
X94999800Y-70915801D01*
X95072956Y-70988957D01*
X95285028Y-71076800D01*
X95514572Y-71076800D01*
X95726644Y-70988957D01*
X95799800Y-70915801D01*
X95872956Y-70988957D01*
X96085028Y-71076800D01*
X96314572Y-71076800D01*
X96526644Y-70988957D01*
X96599800Y-70915801D01*
X96672956Y-70988957D01*
X96885028Y-71076800D01*
X97114572Y-71076800D01*
X97326644Y-70988957D01*
X97488957Y-70826644D01*
X97576800Y-70614572D01*
X97576800Y-70385028D01*
X97488957Y-70172956D01*
X97415801Y-70099800D01*
X97488957Y-70026644D01*
X97576800Y-69814572D01*
X97576800Y-69585028D01*
X97488957Y-69372956D01*
X97415801Y-69299800D01*
X97488957Y-69226644D01*
X97576800Y-69014572D01*
X97576800Y-68785028D01*
X97488957Y-68572956D01*
X97415801Y-68499800D01*
X97488957Y-68426644D01*
X97576800Y-68214572D01*
X97576800Y-67985028D01*
X97488957Y-67772956D01*
X97415801Y-67699800D01*
X97488957Y-67626644D01*
X97576800Y-67414572D01*
X97576800Y-67185028D01*
X97488957Y-66972956D01*
X97415801Y-66899800D01*
X97488957Y-66826644D01*
X97576800Y-66614572D01*
X97576800Y-66385028D01*
X97488957Y-66172956D01*
X97326644Y-66010643D01*
X97114572Y-65922800D01*
X96885028Y-65922800D01*
X96672956Y-66010643D01*
X96599800Y-66083799D01*
X96526644Y-66010643D01*
X96314572Y-65922800D01*
X96085028Y-65922800D01*
X95872956Y-66010643D01*
X95799800Y-66083799D01*
X95726644Y-66010643D01*
X95514572Y-65922800D01*
X95285028Y-65922800D01*
X95072956Y-66010643D01*
X94999800Y-66083799D01*
X94926644Y-66010643D01*
X94714572Y-65922800D01*
X94485028Y-65922800D01*
X94272956Y-66010643D01*
X94199800Y-66083799D01*
X94126644Y-66010643D01*
X93914572Y-65922800D01*
X93685028Y-65922800D01*
X93472956Y-66010643D01*
X93310643Y-66172956D01*
X93222800Y-66385028D01*
X77035379Y-66385028D01*
X76988957Y-66272956D01*
X76826644Y-66110643D01*
X76614572Y-66022800D01*
X76385028Y-66022800D01*
X76172956Y-66110643D01*
X76099800Y-66183799D01*
X76026644Y-66110643D01*
X75814572Y-66022800D01*
X75585028Y-66022800D01*
X75372956Y-66110643D01*
X75299800Y-66183799D01*
X75226644Y-66110643D01*
X75014572Y-66022800D01*
X74785028Y-66022800D01*
X74572956Y-66110643D01*
X74499800Y-66183799D01*
X74426644Y-66110643D01*
X74214572Y-66022800D01*
X73985028Y-66022800D01*
X73772956Y-66110643D01*
X73699800Y-66183799D01*
X73626644Y-66110643D01*
X73414572Y-66022800D01*
X73185028Y-66022800D01*
X72972956Y-66110643D01*
X72810643Y-66272956D01*
X72722800Y-66485028D01*
X56322379Y-66485028D01*
X57200040Y-65341238D01*
X59048645Y-63176800D01*
X113572800Y-63176800D01*
X113572800Y-71699800D01*
X113572800Y-71699800D01*
G37*
X113572800Y-71699800D02*
X113582467Y-71748401D01*
X113609997Y-71789603D01*
X113651199Y-71817133D01*
X113699800Y-71826800D01*
X128818855Y-71826800D01*
X139672800Y-95127929D01*
X139672800Y-111672800D01*
X122042019Y-111672800D01*
X122108121Y-111557846D01*
X122963835Y-109747569D01*
X123671610Y-107874497D01*
X124226887Y-105950694D01*
X124626088Y-103988556D01*
X124866643Y-102000723D01*
X124947000Y-100000000D01*
X124941529Y-99477549D01*
X124819289Y-97478949D01*
X124537157Y-95496589D01*
X124096952Y-93543241D01*
X123501507Y-91631490D01*
X122754661Y-89773650D01*
X121861223Y-87981691D01*
X120826950Y-86267157D01*
X119658504Y-84641093D01*
X118363414Y-83113975D01*
X116950022Y-81695641D01*
X115427434Y-80395228D01*
X113805459Y-79221114D01*
X112094546Y-78180862D01*
X110305716Y-77281175D01*
X108450495Y-76527847D01*
X106540833Y-75925734D01*
X104589034Y-75478712D01*
X102607672Y-75189662D01*
X100609510Y-75060447D01*
X98607421Y-75091898D01*
X96614304Y-75283814D01*
X94642998Y-75634957D01*
X92706203Y-76143065D01*
X91764628Y-76472800D01*
X50225564Y-76472800D01*
X50929398Y-74997181D01*
X52305183Y-72463300D01*
X52414428Y-72285028D01*
X67022800Y-72285028D01*
X67022800Y-72514572D01*
X67110643Y-72726644D01*
X67272956Y-72888957D01*
X67485028Y-72976800D01*
X67714572Y-72976800D01*
X67926644Y-72888957D01*
X68088957Y-72726644D01*
X68176800Y-72514572D01*
X68176800Y-72285028D01*
X68150912Y-72222527D01*
X86260299Y-72222527D01*
X86260299Y-72452071D01*
X86348142Y-72664143D01*
X86510455Y-72826456D01*
X86722527Y-72914299D01*
X86952071Y-72914299D01*
X87164143Y-72826456D01*
X87326456Y-72664143D01*
X87414299Y-72452071D01*
X87414299Y-72385028D01*
X108022800Y-72385028D01*
X108022800Y-72614572D01*
X108110643Y-72826644D01*
X108272956Y-72988957D01*
X108485028Y-73076800D01*
X108714572Y-73076800D01*
X108926644Y-72988957D01*
X109088957Y-72826644D01*
X109176800Y-72614572D01*
X109176800Y-72385028D01*
X109088957Y-72172956D01*
X108926644Y-72010643D01*
X108714572Y-71922800D01*
X108485028Y-71922800D01*
X108272956Y-72010643D01*
X108110643Y-72172956D01*
X108022800Y-72385028D01*
X87414299Y-72385028D01*
X87414299Y-72222527D01*
X87326456Y-72010455D01*
X87164143Y-71848142D01*
X86952071Y-71760299D01*
X86722527Y-71760299D01*
X86510455Y-71848142D01*
X86348142Y-72010455D01*
X86260299Y-72222527D01*
X68150912Y-72222527D01*
X68088957Y-72072956D01*
X67926644Y-71910643D01*
X67714572Y-71822800D01*
X67485028Y-71822800D01*
X67272956Y-71910643D01*
X67110643Y-72072956D01*
X67022800Y-72285028D01*
X52414428Y-72285028D01*
X53811696Y-70004894D01*
X55444807Y-67628703D01*
X56322379Y-66485028D01*
X72722800Y-66485028D01*
X72722800Y-66714572D01*
X72810643Y-66926644D01*
X72883799Y-66999800D01*
X72810643Y-67072956D01*
X72722800Y-67285028D01*
X72722800Y-67514572D01*
X72810643Y-67726644D01*
X72883799Y-67799800D01*
X72810643Y-67872956D01*
X72722800Y-68085028D01*
X72722800Y-68314572D01*
X72810643Y-68526644D01*
X72883799Y-68599800D01*
X72810643Y-68672956D01*
X72722800Y-68885028D01*
X72722800Y-69114572D01*
X72810643Y-69326644D01*
X72883799Y-69399800D01*
X72810643Y-69472956D01*
X72722800Y-69685028D01*
X72722800Y-69914572D01*
X72810643Y-70126644D01*
X72883799Y-70199800D01*
X72810643Y-70272956D01*
X72722800Y-70485028D01*
X72722800Y-70714572D01*
X72810643Y-70926644D01*
X72972956Y-71088957D01*
X73185028Y-71176800D01*
X73414572Y-71176800D01*
X73626644Y-71088957D01*
X73699800Y-71015801D01*
X73772956Y-71088957D01*
X73985028Y-71176800D01*
X74214572Y-71176800D01*
X74426644Y-71088957D01*
X74499800Y-71015801D01*
X74572956Y-71088957D01*
X74785028Y-71176800D01*
X75014572Y-71176800D01*
X75226644Y-71088957D01*
X75299800Y-71015801D01*
X75372956Y-71088957D01*
X75585028Y-71176800D01*
X75814572Y-71176800D01*
X76026644Y-71088957D01*
X76099800Y-71015801D01*
X76172956Y-71088957D01*
X76385028Y-71176800D01*
X76614572Y-71176800D01*
X76826644Y-71088957D01*
X76988957Y-70926644D01*
X77076800Y-70714572D01*
X77076800Y-70485028D01*
X76988957Y-70272956D01*
X76915801Y-70199800D01*
X76988957Y-70126644D01*
X77076800Y-69914572D01*
X77076800Y-69685028D01*
X76988957Y-69472956D01*
X76915801Y-69399800D01*
X76988957Y-69326644D01*
X77076800Y-69114572D01*
X77076800Y-68885028D01*
X76988957Y-68672956D01*
X76915801Y-68599800D01*
X76988957Y-68526644D01*
X77076800Y-68314572D01*
X77076800Y-68085028D01*
X76988957Y-67872956D01*
X76915801Y-67799800D01*
X76988957Y-67726644D01*
X77076800Y-67514572D01*
X77076800Y-67285028D01*
X76988957Y-67072956D01*
X76915801Y-66999800D01*
X76988957Y-66926644D01*
X77076800Y-66714572D01*
X77076800Y-66485028D01*
X77035379Y-66385028D01*
X93222800Y-66385028D01*
X93222800Y-66614572D01*
X93310643Y-66826644D01*
X93383799Y-66899800D01*
X93310643Y-66972956D01*
X93222800Y-67185028D01*
X93222800Y-67414572D01*
X93310643Y-67626644D01*
X93383799Y-67699800D01*
X93310643Y-67772956D01*
X93222800Y-67985028D01*
X93222800Y-68214572D01*
X93310643Y-68426644D01*
X93383799Y-68499800D01*
X93310643Y-68572956D01*
X93222800Y-68785028D01*
X93222800Y-69014572D01*
X93310643Y-69226644D01*
X93383799Y-69299800D01*
X93310643Y-69372956D01*
X93222800Y-69585028D01*
X93222800Y-69814572D01*
X93310643Y-70026644D01*
X93383799Y-70099800D01*
X93310643Y-70172956D01*
X93222800Y-70385028D01*
X93222800Y-70614572D01*
X93310643Y-70826644D01*
X93472956Y-70988957D01*
X93685028Y-71076800D01*
X93914572Y-71076800D01*
X94126644Y-70988957D01*
X94199800Y-70915801D01*
X94272956Y-70988957D01*
X94485028Y-71076800D01*
X94714572Y-71076800D01*
X94926644Y-70988957D01*
X94999800Y-70915801D01*
X95072956Y-70988957D01*
X95285028Y-71076800D01*
X95514572Y-71076800D01*
X95726644Y-70988957D01*
X95799800Y-70915801D01*
X95872956Y-70988957D01*
X96085028Y-71076800D01*
X96314572Y-71076800D01*
X96526644Y-70988957D01*
X96599800Y-70915801D01*
X96672956Y-70988957D01*
X96885028Y-71076800D01*
X97114572Y-71076800D01*
X97326644Y-70988957D01*
X97488957Y-70826644D01*
X97576800Y-70614572D01*
X97576800Y-70385028D01*
X97488957Y-70172956D01*
X97415801Y-70099800D01*
X97488957Y-70026644D01*
X97576800Y-69814572D01*
X97576800Y-69585028D01*
X97488957Y-69372956D01*
X97415801Y-69299800D01*
X97488957Y-69226644D01*
X97576800Y-69014572D01*
X97576800Y-68785028D01*
X97488957Y-68572956D01*
X97415801Y-68499800D01*
X97488957Y-68426644D01*
X97576800Y-68214572D01*
X97576800Y-67985028D01*
X97488957Y-67772956D01*
X97415801Y-67699800D01*
X97488957Y-67626644D01*
X97576800Y-67414572D01*
X97576800Y-67185028D01*
X97488957Y-66972956D01*
X97415801Y-66899800D01*
X97488957Y-66826644D01*
X97576800Y-66614572D01*
X97576800Y-66385028D01*
X97488957Y-66172956D01*
X97326644Y-66010643D01*
X97114572Y-65922800D01*
X96885028Y-65922800D01*
X96672956Y-66010643D01*
X96599800Y-66083799D01*
X96526644Y-66010643D01*
X96314572Y-65922800D01*
X96085028Y-65922800D01*
X95872956Y-66010643D01*
X95799800Y-66083799D01*
X95726644Y-66010643D01*
X95514572Y-65922800D01*
X95285028Y-65922800D01*
X95072956Y-66010643D01*
X94999800Y-66083799D01*
X94926644Y-66010643D01*
X94714572Y-65922800D01*
X94485028Y-65922800D01*
X94272956Y-66010643D01*
X94199800Y-66083799D01*
X94126644Y-66010643D01*
X93914572Y-65922800D01*
X93685028Y-65922800D01*
X93472956Y-66010643D01*
X93310643Y-66172956D01*
X93222800Y-66385028D01*
X77035379Y-66385028D01*
X76988957Y-66272956D01*
X76826644Y-66110643D01*
X76614572Y-66022800D01*
X76385028Y-66022800D01*
X76172956Y-66110643D01*
X76099800Y-66183799D01*
X76026644Y-66110643D01*
X75814572Y-66022800D01*
X75585028Y-66022800D01*
X75372956Y-66110643D01*
X75299800Y-66183799D01*
X75226644Y-66110643D01*
X75014572Y-66022800D01*
X74785028Y-66022800D01*
X74572956Y-66110643D01*
X74499800Y-66183799D01*
X74426644Y-66110643D01*
X74214572Y-66022800D01*
X73985028Y-66022800D01*
X73772956Y-66110643D01*
X73699800Y-66183799D01*
X73626644Y-66110643D01*
X73414572Y-66022800D01*
X73185028Y-66022800D01*
X72972956Y-66110643D01*
X72810643Y-66272956D01*
X72722800Y-66485028D01*
X56322379Y-66485028D01*
X57200040Y-65341238D01*
X59048645Y-63176800D01*
X113572800Y-63176800D01*
X113572800Y-71699800D01*
G36*
X102882098Y-45002276D02*
X105756496Y-45228496D01*
X108615115Y-45604840D01*
X111450121Y-46130277D01*
X114253741Y-46803367D01*
X117018293Y-47622264D01*
X119736198Y-48584725D01*
X122400007Y-49688111D01*
X125002419Y-50929398D01*
X127536300Y-52305183D01*
X129994706Y-53811696D01*
X132370897Y-55444807D01*
X134658362Y-57200040D01*
X136850830Y-59072585D01*
X138942292Y-61057308D01*
X140927015Y-63148770D01*
X142799560Y-65341238D01*
X144554793Y-67628703D01*
X146187904Y-70004894D01*
X147694417Y-72463300D01*
X149070202Y-74997181D01*
X150311489Y-77599593D01*
X151414875Y-80263402D01*
X152377336Y-82981307D01*
X153196233Y-85745859D01*
X153869323Y-88549479D01*
X154394760Y-91384485D01*
X154771104Y-94243104D01*
X154997324Y-97117502D01*
X155072800Y-99999800D01*
X154997324Y-102882098D01*
X154771104Y-105756496D01*
X154394760Y-108615115D01*
X153869323Y-111450121D01*
X153815862Y-111672800D01*
X140176800Y-111672800D01*
X140176800Y-94949800D01*
X140165010Y-94896362D01*
X129265010Y-71396362D01*
X129235791Y-71356341D01*
X129193480Y-71330548D01*
X129149800Y-71322800D01*
X114076637Y-71322800D01*
X114076520Y-71231855D01*
X114185028Y-71276800D01*
X114414572Y-71276800D01*
X114626644Y-71188957D01*
X114699800Y-71115801D01*
X114772956Y-71188957D01*
X114985028Y-71276800D01*
X115214572Y-71276800D01*
X115426644Y-71188957D01*
X115499800Y-71115801D01*
X115572956Y-71188957D01*
X115785028Y-71276800D01*
X116014572Y-71276800D01*
X116226644Y-71188957D01*
X116299800Y-71115801D01*
X116372956Y-71188957D01*
X116585028Y-71276800D01*
X116814572Y-71276800D01*
X117026644Y-71188957D01*
X117099800Y-71115801D01*
X117172956Y-71188957D01*
X117385028Y-71276800D01*
X117614572Y-71276800D01*
X117826644Y-71188957D01*
X117988957Y-71026644D01*
X118076800Y-70814572D01*
X118076800Y-70585028D01*
X117988957Y-70372956D01*
X117915801Y-70299800D01*
X117988957Y-70226644D01*
X118076800Y-70014572D01*
X118076800Y-69785028D01*
X117988957Y-69572956D01*
X117915801Y-69499800D01*
X117988957Y-69426644D01*
X118076800Y-69214572D01*
X118076800Y-68985028D01*
X117988957Y-68772956D01*
X117915801Y-68699800D01*
X117988957Y-68626644D01*
X118076800Y-68414572D01*
X118076800Y-68185028D01*
X117988957Y-67972956D01*
X117915801Y-67899800D01*
X117988957Y-67826644D01*
X118076800Y-67614572D01*
X118076800Y-67385028D01*
X117988957Y-67172956D01*
X117915801Y-67099800D01*
X117988957Y-67026644D01*
X118076800Y-66814572D01*
X118076800Y-66585028D01*
X117988957Y-66372956D01*
X117826644Y-66210643D01*
X117614572Y-66122800D01*
X117385028Y-66122800D01*
X117172956Y-66210643D01*
X117099800Y-66283799D01*
X117026644Y-66210643D01*
X116814572Y-66122800D01*
X116585028Y-66122800D01*
X116372956Y-66210643D01*
X116299800Y-66283799D01*
X116226644Y-66210643D01*
X116014572Y-66122800D01*
X115785028Y-66122800D01*
X115572956Y-66210643D01*
X115499800Y-66283799D01*
X115426644Y-66210643D01*
X115214572Y-66122800D01*
X114985028Y-66122800D01*
X114772956Y-66210643D01*
X114699800Y-66283799D01*
X114626644Y-66210643D01*
X114414572Y-66122800D01*
X114185028Y-66122800D01*
X114070014Y-66170440D01*
X114065681Y-62799637D01*
X114055951Y-62751048D01*
X114028368Y-62709882D01*
X113987131Y-62682405D01*
X113938888Y-62672800D01*
X59608234Y-62584313D01*
X61057308Y-61057308D01*
X63148770Y-59072585D01*
X65341238Y-57200040D01*
X67628703Y-55444807D01*
X68224935Y-55035028D01*
X80622800Y-55035028D01*
X80622800Y-55264572D01*
X80710643Y-55476644D01*
X80783799Y-55549800D01*
X80710643Y-55622956D01*
X80622800Y-55835028D01*
X80622800Y-56064572D01*
X80710643Y-56276644D01*
X80783799Y-56349800D01*
X80710643Y-56422956D01*
X80622800Y-56635028D01*
X80622800Y-56864572D01*
X80710643Y-57076644D01*
X80783799Y-57149800D01*
X80710643Y-57222956D01*
X80622800Y-57435028D01*
X80622800Y-57664572D01*
X80710643Y-57876644D01*
X80783799Y-57949800D01*
X80710643Y-58022956D01*
X80622800Y-58235028D01*
X80622800Y-58464572D01*
X80710643Y-58676644D01*
X80783799Y-58749800D01*
X80710643Y-58822956D01*
X80622800Y-59035028D01*
X80622800Y-59264572D01*
X80710643Y-59476644D01*
X80872956Y-59638957D01*
X81085028Y-59726800D01*
X81314572Y-59726800D01*
X81526644Y-59638957D01*
X81599800Y-59565801D01*
X81672956Y-59638957D01*
X81885028Y-59726800D01*
X82114572Y-59726800D01*
X82326644Y-59638957D01*
X82399800Y-59565801D01*
X82472956Y-59638957D01*
X82685028Y-59726800D01*
X82914572Y-59726800D01*
X83126644Y-59638957D01*
X83199800Y-59565801D01*
X83272956Y-59638957D01*
X83485028Y-59726800D01*
X83714572Y-59726800D01*
X83926644Y-59638957D01*
X83999800Y-59565801D01*
X84072956Y-59638957D01*
X84285028Y-59726800D01*
X84514572Y-59726800D01*
X84726644Y-59638957D01*
X84824800Y-59540801D01*
X84922956Y-59638957D01*
X85135028Y-59726800D01*
X85364572Y-59726800D01*
X85576644Y-59638957D01*
X85738957Y-59476644D01*
X85826800Y-59264572D01*
X85826800Y-59035028D01*
X85738957Y-58822956D01*
X85665801Y-58749800D01*
X85738957Y-58676644D01*
X85826800Y-58464572D01*
X85826800Y-58235028D01*
X85738957Y-58022956D01*
X85665801Y-57949800D01*
X85738957Y-57876644D01*
X85826800Y-57664572D01*
X85826800Y-57435028D01*
X85738957Y-57222956D01*
X85665801Y-57149800D01*
X85738957Y-57076644D01*
X85826800Y-56864572D01*
X85826800Y-56635028D01*
X85738957Y-56422956D01*
X85665801Y-56349800D01*
X85738957Y-56276644D01*
X85826800Y-56064572D01*
X85826800Y-55835028D01*
X85738957Y-55622956D01*
X85665801Y-55549800D01*
X85738957Y-55476644D01*
X85826800Y-55264572D01*
X85826800Y-55035028D01*
X101122800Y-55035028D01*
X101122800Y-55264572D01*
X101210643Y-55476644D01*
X101283799Y-55549800D01*
X101210643Y-55622956D01*
X101122800Y-55835028D01*
X101122800Y-56064572D01*
X101210643Y-56276644D01*
X101283799Y-56349800D01*
X101210643Y-56422956D01*
X101122800Y-56635028D01*
X101122800Y-56864572D01*
X101210643Y-57076644D01*
X101283799Y-57149800D01*
X101210643Y-57222956D01*
X101122800Y-57435028D01*
X101122800Y-57664572D01*
X101210643Y-57876644D01*
X101283799Y-57949800D01*
X101210643Y-58022956D01*
X101122800Y-58235028D01*
X101122800Y-58464572D01*
X101210643Y-58676644D01*
X101283799Y-58749800D01*
X101210643Y-58822956D01*
X101122800Y-59035028D01*
X101122800Y-59264572D01*
X101210643Y-59476644D01*
X101372956Y-59638957D01*
X101585028Y-59726800D01*
X101814572Y-59726800D01*
X102026644Y-59638957D01*
X102099800Y-59565801D01*
X102172956Y-59638957D01*
X102385028Y-59726800D01*
X102614572Y-59726800D01*
X102826644Y-59638957D01*
X102899800Y-59565801D01*
X102972956Y-59638957D01*
X103185028Y-59726800D01*
X103414572Y-59726800D01*
X103626644Y-59638957D01*
X103699800Y-59565801D01*
X103772956Y-59638957D01*
X103985028Y-59726800D01*
X104214572Y-59726800D01*
X104426644Y-59638957D01*
X104499800Y-59565801D01*
X104572956Y-59638957D01*
X104785028Y-59726800D01*
X105014572Y-59726800D01*
X105226644Y-59638957D01*
X105299800Y-59565801D01*
X105372956Y-59638957D01*
X105585028Y-59726800D01*
X105814572Y-59726800D01*
X106026644Y-59638957D01*
X106188957Y-59476644D01*
X106276800Y-59264572D01*
X106276800Y-59035028D01*
X106188957Y-58822956D01*
X106115801Y-58749800D01*
X106188957Y-58676644D01*
X106276800Y-58464572D01*
X106276800Y-58235028D01*
X106188957Y-58022956D01*
X106115801Y-57949800D01*
X106188957Y-57876644D01*
X106276800Y-57664572D01*
X106276800Y-57435028D01*
X106188957Y-57222956D01*
X106115801Y-57149800D01*
X106188957Y-57076644D01*
X106276800Y-56864572D01*
X106276800Y-56635028D01*
X106188957Y-56422956D01*
X106115801Y-56349800D01*
X106188957Y-56276644D01*
X106276800Y-56064572D01*
X106276800Y-55835028D01*
X106188957Y-55622956D01*
X106115801Y-55549800D01*
X106188957Y-55476644D01*
X106226905Y-55385028D01*
X121922800Y-55385028D01*
X121922800Y-55614572D01*
X122010643Y-55826644D01*
X122083799Y-55899800D01*
X122010643Y-55972956D01*
X121922800Y-56185028D01*
X121922800Y-56414572D01*
X122010643Y-56626644D01*
X122083799Y-56699800D01*
X122010643Y-56772956D01*
X121922800Y-56985028D01*
X121922800Y-57214572D01*
X122010643Y-57426644D01*
X122083799Y-57499800D01*
X122010643Y-57572956D01*
X121922800Y-57785028D01*
X121922800Y-58014572D01*
X122010643Y-58226644D01*
X122083799Y-58299800D01*
X122010643Y-58372956D01*
X121922800Y-58585028D01*
X121922800Y-58814572D01*
X122010643Y-59026644D01*
X122083799Y-59099800D01*
X122010643Y-59172956D01*
X121922800Y-59385028D01*
X121922800Y-59614572D01*
X122010643Y-59826644D01*
X122172956Y-59988957D01*
X122385028Y-60076800D01*
X122614572Y-60076800D01*
X122826644Y-59988957D01*
X122899800Y-59915801D01*
X122972956Y-59988957D01*
X123185028Y-60076800D01*
X123414572Y-60076800D01*
X123626644Y-59988957D01*
X123699800Y-59915801D01*
X123772956Y-59988957D01*
X123985028Y-60076800D01*
X124214572Y-60076800D01*
X124426644Y-59988957D01*
X124499800Y-59915801D01*
X124572956Y-59988957D01*
X124785028Y-60076800D01*
X125014572Y-60076800D01*
X125226644Y-59988957D01*
X125299800Y-59915801D01*
X125372956Y-59988957D01*
X125585028Y-60076800D01*
X125814572Y-60076800D01*
X126026644Y-59988957D01*
X126099800Y-59915801D01*
X126172956Y-59988957D01*
X126385028Y-60076800D01*
X126614572Y-60076800D01*
X126826644Y-59988957D01*
X126988957Y-59826644D01*
X127076800Y-59614572D01*
X127076800Y-59385028D01*
X126988957Y-59172956D01*
X126915801Y-59099800D01*
X126988957Y-59026644D01*
X127076800Y-58814572D01*
X127076800Y-58585028D01*
X126988957Y-58372956D01*
X126915801Y-58299800D01*
X126988957Y-58226644D01*
X127076800Y-58014572D01*
X127076800Y-57785028D01*
X126988957Y-57572956D01*
X126915801Y-57499800D01*
X126988957Y-57426644D01*
X127076800Y-57214572D01*
X127076800Y-56985028D01*
X126988957Y-56772956D01*
X126915801Y-56699800D01*
X126988957Y-56626644D01*
X127076800Y-56414572D01*
X127076800Y-56185028D01*
X126988957Y-55972956D01*
X126915801Y-55899800D01*
X126988957Y-55826644D01*
X127076800Y-55614572D01*
X127076800Y-55385028D01*
X126988957Y-55172956D01*
X126826644Y-55010643D01*
X126614572Y-54922800D01*
X126385028Y-54922800D01*
X126172956Y-55010643D01*
X126099800Y-55083799D01*
X126026644Y-55010643D01*
X125814572Y-54922800D01*
X125585028Y-54922800D01*
X125372956Y-55010643D01*
X125299800Y-55083799D01*
X125226644Y-55010643D01*
X125014572Y-54922800D01*
X124785028Y-54922800D01*
X124572956Y-55010643D01*
X124499800Y-55083799D01*
X124426644Y-55010643D01*
X124214572Y-54922800D01*
X123985028Y-54922800D01*
X123772956Y-55010643D01*
X123699800Y-55083799D01*
X123626644Y-55010643D01*
X123414572Y-54922800D01*
X123185028Y-54922800D01*
X122972956Y-55010643D01*
X122899800Y-55083799D01*
X122826644Y-55010643D01*
X122614572Y-54922800D01*
X122385028Y-54922800D01*
X122172956Y-55010643D01*
X122010643Y-55172956D01*
X121922800Y-55385028D01*
X106226905Y-55385028D01*
X106276800Y-55264572D01*
X106276800Y-55035028D01*
X106188957Y-54822956D01*
X106026644Y-54660643D01*
X105814572Y-54572800D01*
X105585028Y-54572800D01*
X105372956Y-54660643D01*
X105299800Y-54733799D01*
X105226644Y-54660643D01*
X105014572Y-54572800D01*
X104785028Y-54572800D01*
X104572956Y-54660643D01*
X104499800Y-54733799D01*
X104426644Y-54660643D01*
X104214572Y-54572800D01*
X103985028Y-54572800D01*
X103772956Y-54660643D01*
X103699800Y-54733799D01*
X103626644Y-54660643D01*
X103414572Y-54572800D01*
X103185028Y-54572800D01*
X102972956Y-54660643D01*
X102899800Y-54733799D01*
X102826644Y-54660643D01*
X102614572Y-54572800D01*
X102385028Y-54572800D01*
X102172956Y-54660643D01*
X102099800Y-54733799D01*
X102026644Y-54660643D01*
X101814572Y-54572800D01*
X101585028Y-54572800D01*
X101372956Y-54660643D01*
X101210643Y-54822956D01*
X101122800Y-55035028D01*
X85826800Y-55035028D01*
X85738957Y-54822956D01*
X85576644Y-54660643D01*
X85364572Y-54572800D01*
X85135028Y-54572800D01*
X84922956Y-54660643D01*
X84824800Y-54758799D01*
X84726644Y-54660643D01*
X84514572Y-54572800D01*
X84285028Y-54572800D01*
X84072956Y-54660643D01*
X83999800Y-54733799D01*
X83926644Y-54660643D01*
X83714572Y-54572800D01*
X83485028Y-54572800D01*
X83272956Y-54660643D01*
X83199800Y-54733799D01*
X83126644Y-54660643D01*
X82914572Y-54572800D01*
X82685028Y-54572800D01*
X82472956Y-54660643D01*
X82399800Y-54733799D01*
X82326644Y-54660643D01*
X82114572Y-54572800D01*
X81885028Y-54572800D01*
X81672956Y-54660643D01*
X81599800Y-54733799D01*
X81526644Y-54660643D01*
X81314572Y-54572800D01*
X81085028Y-54572800D01*
X80872956Y-54660643D01*
X80710643Y-54822956D01*
X80622800Y-55035028D01*
X68224935Y-55035028D01*
X70004894Y-53811696D01*
X71190708Y-53085028D01*
X73322800Y-53085028D01*
X73322800Y-53314572D01*
X73410643Y-53526644D01*
X73572956Y-53688957D01*
X73785028Y-53776800D01*
X74014572Y-53776800D01*
X74226644Y-53688957D01*
X74388957Y-53526644D01*
X74476800Y-53314572D01*
X74476800Y-53085028D01*
X74435379Y-52985028D01*
X94022800Y-52985028D01*
X94022800Y-53214572D01*
X94110643Y-53426644D01*
X94272956Y-53588957D01*
X94485028Y-53676800D01*
X94714572Y-53676800D01*
X94926644Y-53588957D01*
X95030573Y-53485028D01*
X114222800Y-53485028D01*
X114222800Y-53714572D01*
X114310643Y-53926644D01*
X114472956Y-54088957D01*
X114685028Y-54176800D01*
X114914572Y-54176800D01*
X115126644Y-54088957D01*
X115288957Y-53926644D01*
X115376800Y-53714572D01*
X115376800Y-53485028D01*
X115288957Y-53272956D01*
X115126644Y-53110643D01*
X114914572Y-53022800D01*
X114685028Y-53022800D01*
X114472956Y-53110643D01*
X114310643Y-53272956D01*
X114222800Y-53485028D01*
X95030573Y-53485028D01*
X95088957Y-53426644D01*
X95176800Y-53214572D01*
X95176800Y-52985028D01*
X95088957Y-52772956D01*
X94926644Y-52610643D01*
X94714572Y-52522800D01*
X94485028Y-52522800D01*
X94272956Y-52610643D01*
X94110643Y-52772956D01*
X94022800Y-52985028D01*
X74435379Y-52985028D01*
X74388957Y-52872956D01*
X74226644Y-52710643D01*
X74014572Y-52622800D01*
X73785028Y-52622800D01*
X73572956Y-52710643D01*
X73410643Y-52872956D01*
X73322800Y-53085028D01*
X71190708Y-53085028D01*
X72463300Y-52305183D01*
X74997181Y-50929398D01*
X77599593Y-49688111D01*
X80263402Y-48584725D01*
X81585074Y-48116696D01*
X98073000Y-48116696D01*
X98073000Y-48883304D01*
X98366368Y-49591558D01*
X98908442Y-50133632D01*
X99616696Y-50427000D01*
X100383304Y-50427000D01*
X101091558Y-50133632D01*
X101633632Y-49591558D01*
X101927000Y-48883304D01*
X101927000Y-48116696D01*
X101633632Y-47408442D01*
X101091558Y-46866368D01*
X100383304Y-46573000D01*
X99616696Y-46573000D01*
X98908442Y-46866368D01*
X98366368Y-47408442D01*
X98073000Y-48116696D01*
X81585074Y-48116696D01*
X82981307Y-47622264D01*
X85745859Y-46803367D01*
X88549479Y-46130277D01*
X91384485Y-45604840D01*
X94243104Y-45228496D01*
X97117502Y-45002276D01*
X99999800Y-44926800D01*
X102882098Y-45002276D01*
X102882098Y-45002276D01*
G37*
X102882098Y-45002276D02*
X105756496Y-45228496D01*
X108615115Y-45604840D01*
X111450121Y-46130277D01*
X114253741Y-46803367D01*
X117018293Y-47622264D01*
X119736198Y-48584725D01*
X122400007Y-49688111D01*
X125002419Y-50929398D01*
X127536300Y-52305183D01*
X129994706Y-53811696D01*
X132370897Y-55444807D01*
X134658362Y-57200040D01*
X136850830Y-59072585D01*
X138942292Y-61057308D01*
X140927015Y-63148770D01*
X142799560Y-65341238D01*
X144554793Y-67628703D01*
X146187904Y-70004894D01*
X147694417Y-72463300D01*
X149070202Y-74997181D01*
X150311489Y-77599593D01*
X151414875Y-80263402D01*
X152377336Y-82981307D01*
X153196233Y-85745859D01*
X153869323Y-88549479D01*
X154394760Y-91384485D01*
X154771104Y-94243104D01*
X154997324Y-97117502D01*
X155072800Y-99999800D01*
X154997324Y-102882098D01*
X154771104Y-105756496D01*
X154394760Y-108615115D01*
X153869323Y-111450121D01*
X153815862Y-111672800D01*
X140176800Y-111672800D01*
X140176800Y-94949800D01*
X140165010Y-94896362D01*
X129265010Y-71396362D01*
X129235791Y-71356341D01*
X129193480Y-71330548D01*
X129149800Y-71322800D01*
X114076637Y-71322800D01*
X114076520Y-71231855D01*
X114185028Y-71276800D01*
X114414572Y-71276800D01*
X114626644Y-71188957D01*
X114699800Y-71115801D01*
X114772956Y-71188957D01*
X114985028Y-71276800D01*
X115214572Y-71276800D01*
X115426644Y-71188957D01*
X115499800Y-71115801D01*
X115572956Y-71188957D01*
X115785028Y-71276800D01*
X116014572Y-71276800D01*
X116226644Y-71188957D01*
X116299800Y-71115801D01*
X116372956Y-71188957D01*
X116585028Y-71276800D01*
X116814572Y-71276800D01*
X117026644Y-71188957D01*
X117099800Y-71115801D01*
X117172956Y-71188957D01*
X117385028Y-71276800D01*
X117614572Y-71276800D01*
X117826644Y-71188957D01*
X117988957Y-71026644D01*
X118076800Y-70814572D01*
X118076800Y-70585028D01*
X117988957Y-70372956D01*
X117915801Y-70299800D01*
X117988957Y-70226644D01*
X118076800Y-70014572D01*
X118076800Y-69785028D01*
X117988957Y-69572956D01*
X117915801Y-69499800D01*
X117988957Y-69426644D01*
X118076800Y-69214572D01*
X118076800Y-68985028D01*
X117988957Y-68772956D01*
X117915801Y-68699800D01*
X117988957Y-68626644D01*
X118076800Y-68414572D01*
X118076800Y-68185028D01*
X117988957Y-67972956D01*
X117915801Y-67899800D01*
X117988957Y-67826644D01*
X118076800Y-67614572D01*
X118076800Y-67385028D01*
X117988957Y-67172956D01*
X117915801Y-67099800D01*
X117988957Y-67026644D01*
X118076800Y-66814572D01*
X118076800Y-66585028D01*
X117988957Y-66372956D01*
X117826644Y-66210643D01*
X117614572Y-66122800D01*
X117385028Y-66122800D01*
X117172956Y-66210643D01*
X117099800Y-66283799D01*
X117026644Y-66210643D01*
X116814572Y-66122800D01*
X116585028Y-66122800D01*
X116372956Y-66210643D01*
X116299800Y-66283799D01*
X116226644Y-66210643D01*
X116014572Y-66122800D01*
X115785028Y-66122800D01*
X115572956Y-66210643D01*
X115499800Y-66283799D01*
X115426644Y-66210643D01*
X115214572Y-66122800D01*
X114985028Y-66122800D01*
X114772956Y-66210643D01*
X114699800Y-66283799D01*
X114626644Y-66210643D01*
X114414572Y-66122800D01*
X114185028Y-66122800D01*
X114070014Y-66170440D01*
X114065681Y-62799637D01*
X114055951Y-62751048D01*
X114028368Y-62709882D01*
X113987131Y-62682405D01*
X113938888Y-62672800D01*
X59608234Y-62584313D01*
X61057308Y-61057308D01*
X63148770Y-59072585D01*
X65341238Y-57200040D01*
X67628703Y-55444807D01*
X68224935Y-55035028D01*
X80622800Y-55035028D01*
X80622800Y-55264572D01*
X80710643Y-55476644D01*
X80783799Y-55549800D01*
X80710643Y-55622956D01*
X80622800Y-55835028D01*
X80622800Y-56064572D01*
X80710643Y-56276644D01*
X80783799Y-56349800D01*
X80710643Y-56422956D01*
X80622800Y-56635028D01*
X80622800Y-56864572D01*
X80710643Y-57076644D01*
X80783799Y-57149800D01*
X80710643Y-57222956D01*
X80622800Y-57435028D01*
X80622800Y-57664572D01*
X80710643Y-57876644D01*
X80783799Y-57949800D01*
X80710643Y-58022956D01*
X80622800Y-58235028D01*
X80622800Y-58464572D01*
X80710643Y-58676644D01*
X80783799Y-58749800D01*
X80710643Y-58822956D01*
X80622800Y-59035028D01*
X80622800Y-59264572D01*
X80710643Y-59476644D01*
X80872956Y-59638957D01*
X81085028Y-59726800D01*
X81314572Y-59726800D01*
X81526644Y-59638957D01*
X81599800Y-59565801D01*
X81672956Y-59638957D01*
X81885028Y-59726800D01*
X82114572Y-59726800D01*
X82326644Y-59638957D01*
X82399800Y-59565801D01*
X82472956Y-59638957D01*
X82685028Y-59726800D01*
X82914572Y-59726800D01*
X83126644Y-59638957D01*
X83199800Y-59565801D01*
X83272956Y-59638957D01*
X83485028Y-59726800D01*
X83714572Y-59726800D01*
X83926644Y-59638957D01*
X83999800Y-59565801D01*
X84072956Y-59638957D01*
X84285028Y-59726800D01*
X84514572Y-59726800D01*
X84726644Y-59638957D01*
X84824800Y-59540801D01*
X84922956Y-59638957D01*
X85135028Y-59726800D01*
X85364572Y-59726800D01*
X85576644Y-59638957D01*
X85738957Y-59476644D01*
X85826800Y-59264572D01*
X85826800Y-59035028D01*
X85738957Y-58822956D01*
X85665801Y-58749800D01*
X85738957Y-58676644D01*
X85826800Y-58464572D01*
X85826800Y-58235028D01*
X85738957Y-58022956D01*
X85665801Y-57949800D01*
X85738957Y-57876644D01*
X85826800Y-57664572D01*
X85826800Y-57435028D01*
X85738957Y-57222956D01*
X85665801Y-57149800D01*
X85738957Y-57076644D01*
X85826800Y-56864572D01*
X85826800Y-56635028D01*
X85738957Y-56422956D01*
X85665801Y-56349800D01*
X85738957Y-56276644D01*
X85826800Y-56064572D01*
X85826800Y-55835028D01*
X85738957Y-55622956D01*
X85665801Y-55549800D01*
X85738957Y-55476644D01*
X85826800Y-55264572D01*
X85826800Y-55035028D01*
X101122800Y-55035028D01*
X101122800Y-55264572D01*
X101210643Y-55476644D01*
X101283799Y-55549800D01*
X101210643Y-55622956D01*
X101122800Y-55835028D01*
X101122800Y-56064572D01*
X101210643Y-56276644D01*
X101283799Y-56349800D01*
X101210643Y-56422956D01*
X101122800Y-56635028D01*
X101122800Y-56864572D01*
X101210643Y-57076644D01*
X101283799Y-57149800D01*
X101210643Y-57222956D01*
X101122800Y-57435028D01*
X101122800Y-57664572D01*
X101210643Y-57876644D01*
X101283799Y-57949800D01*
X101210643Y-58022956D01*
X101122800Y-58235028D01*
X101122800Y-58464572D01*
X101210643Y-58676644D01*
X101283799Y-58749800D01*
X101210643Y-58822956D01*
X101122800Y-59035028D01*
X101122800Y-59264572D01*
X101210643Y-59476644D01*
X101372956Y-59638957D01*
X101585028Y-59726800D01*
X101814572Y-59726800D01*
X102026644Y-59638957D01*
X102099800Y-59565801D01*
X102172956Y-59638957D01*
X102385028Y-59726800D01*
X102614572Y-59726800D01*
X102826644Y-59638957D01*
X102899800Y-59565801D01*
X102972956Y-59638957D01*
X103185028Y-59726800D01*
X103414572Y-59726800D01*
X103626644Y-59638957D01*
X103699800Y-59565801D01*
X103772956Y-59638957D01*
X103985028Y-59726800D01*
X104214572Y-59726800D01*
X104426644Y-59638957D01*
X104499800Y-59565801D01*
X104572956Y-59638957D01*
X104785028Y-59726800D01*
X105014572Y-59726800D01*
X105226644Y-59638957D01*
X105299800Y-59565801D01*
X105372956Y-59638957D01*
X105585028Y-59726800D01*
X105814572Y-59726800D01*
X106026644Y-59638957D01*
X106188957Y-59476644D01*
X106276800Y-59264572D01*
X106276800Y-59035028D01*
X106188957Y-58822956D01*
X106115801Y-58749800D01*
X106188957Y-58676644D01*
X106276800Y-58464572D01*
X106276800Y-58235028D01*
X106188957Y-58022956D01*
X106115801Y-57949800D01*
X106188957Y-57876644D01*
X106276800Y-57664572D01*
X106276800Y-57435028D01*
X106188957Y-57222956D01*
X106115801Y-57149800D01*
X106188957Y-57076644D01*
X106276800Y-56864572D01*
X106276800Y-56635028D01*
X106188957Y-56422956D01*
X106115801Y-56349800D01*
X106188957Y-56276644D01*
X106276800Y-56064572D01*
X106276800Y-55835028D01*
X106188957Y-55622956D01*
X106115801Y-55549800D01*
X106188957Y-55476644D01*
X106226905Y-55385028D01*
X121922800Y-55385028D01*
X121922800Y-55614572D01*
X122010643Y-55826644D01*
X122083799Y-55899800D01*
X122010643Y-55972956D01*
X121922800Y-56185028D01*
X121922800Y-56414572D01*
X122010643Y-56626644D01*
X122083799Y-56699800D01*
X122010643Y-56772956D01*
X121922800Y-56985028D01*
X121922800Y-57214572D01*
X122010643Y-57426644D01*
X122083799Y-57499800D01*
X122010643Y-57572956D01*
X121922800Y-57785028D01*
X121922800Y-58014572D01*
X122010643Y-58226644D01*
X122083799Y-58299800D01*
X122010643Y-58372956D01*
X121922800Y-58585028D01*
X121922800Y-58814572D01*
X122010643Y-59026644D01*
X122083799Y-59099800D01*
X122010643Y-59172956D01*
X121922800Y-59385028D01*
X121922800Y-59614572D01*
X122010643Y-59826644D01*
X122172956Y-59988957D01*
X122385028Y-60076800D01*
X122614572Y-60076800D01*
X122826644Y-59988957D01*
X122899800Y-59915801D01*
X122972956Y-59988957D01*
X123185028Y-60076800D01*
X123414572Y-60076800D01*
X123626644Y-59988957D01*
X123699800Y-59915801D01*
X123772956Y-59988957D01*
X123985028Y-60076800D01*
X124214572Y-60076800D01*
X124426644Y-59988957D01*
X124499800Y-59915801D01*
X124572956Y-59988957D01*
X124785028Y-60076800D01*
X125014572Y-60076800D01*
X125226644Y-59988957D01*
X125299800Y-59915801D01*
X125372956Y-59988957D01*
X125585028Y-60076800D01*
X125814572Y-60076800D01*
X126026644Y-59988957D01*
X126099800Y-59915801D01*
X126172956Y-59988957D01*
X126385028Y-60076800D01*
X126614572Y-60076800D01*
X126826644Y-59988957D01*
X126988957Y-59826644D01*
X127076800Y-59614572D01*
X127076800Y-59385028D01*
X126988957Y-59172956D01*
X126915801Y-59099800D01*
X126988957Y-59026644D01*
X127076800Y-58814572D01*
X127076800Y-58585028D01*
X126988957Y-58372956D01*
X126915801Y-58299800D01*
X126988957Y-58226644D01*
X127076800Y-58014572D01*
X127076800Y-57785028D01*
X126988957Y-57572956D01*
X126915801Y-57499800D01*
X126988957Y-57426644D01*
X127076800Y-57214572D01*
X127076800Y-56985028D01*
X126988957Y-56772956D01*
X126915801Y-56699800D01*
X126988957Y-56626644D01*
X127076800Y-56414572D01*
X127076800Y-56185028D01*
X126988957Y-55972956D01*
X126915801Y-55899800D01*
X126988957Y-55826644D01*
X127076800Y-55614572D01*
X127076800Y-55385028D01*
X126988957Y-55172956D01*
X126826644Y-55010643D01*
X126614572Y-54922800D01*
X126385028Y-54922800D01*
X126172956Y-55010643D01*
X126099800Y-55083799D01*
X126026644Y-55010643D01*
X125814572Y-54922800D01*
X125585028Y-54922800D01*
X125372956Y-55010643D01*
X125299800Y-55083799D01*
X125226644Y-55010643D01*
X125014572Y-54922800D01*
X124785028Y-54922800D01*
X124572956Y-55010643D01*
X124499800Y-55083799D01*
X124426644Y-55010643D01*
X124214572Y-54922800D01*
X123985028Y-54922800D01*
X123772956Y-55010643D01*
X123699800Y-55083799D01*
X123626644Y-55010643D01*
X123414572Y-54922800D01*
X123185028Y-54922800D01*
X122972956Y-55010643D01*
X122899800Y-55083799D01*
X122826644Y-55010643D01*
X122614572Y-54922800D01*
X122385028Y-54922800D01*
X122172956Y-55010643D01*
X122010643Y-55172956D01*
X121922800Y-55385028D01*
X106226905Y-55385028D01*
X106276800Y-55264572D01*
X106276800Y-55035028D01*
X106188957Y-54822956D01*
X106026644Y-54660643D01*
X105814572Y-54572800D01*
X105585028Y-54572800D01*
X105372956Y-54660643D01*
X105299800Y-54733799D01*
X105226644Y-54660643D01*
X105014572Y-54572800D01*
X104785028Y-54572800D01*
X104572956Y-54660643D01*
X104499800Y-54733799D01*
X104426644Y-54660643D01*
X104214572Y-54572800D01*
X103985028Y-54572800D01*
X103772956Y-54660643D01*
X103699800Y-54733799D01*
X103626644Y-54660643D01*
X103414572Y-54572800D01*
X103185028Y-54572800D01*
X102972956Y-54660643D01*
X102899800Y-54733799D01*
X102826644Y-54660643D01*
X102614572Y-54572800D01*
X102385028Y-54572800D01*
X102172956Y-54660643D01*
X102099800Y-54733799D01*
X102026644Y-54660643D01*
X101814572Y-54572800D01*
X101585028Y-54572800D01*
X101372956Y-54660643D01*
X101210643Y-54822956D01*
X101122800Y-55035028D01*
X85826800Y-55035028D01*
X85738957Y-54822956D01*
X85576644Y-54660643D01*
X85364572Y-54572800D01*
X85135028Y-54572800D01*
X84922956Y-54660643D01*
X84824800Y-54758799D01*
X84726644Y-54660643D01*
X84514572Y-54572800D01*
X84285028Y-54572800D01*
X84072956Y-54660643D01*
X83999800Y-54733799D01*
X83926644Y-54660643D01*
X83714572Y-54572800D01*
X83485028Y-54572800D01*
X83272956Y-54660643D01*
X83199800Y-54733799D01*
X83126644Y-54660643D01*
X82914572Y-54572800D01*
X82685028Y-54572800D01*
X82472956Y-54660643D01*
X82399800Y-54733799D01*
X82326644Y-54660643D01*
X82114572Y-54572800D01*
X81885028Y-54572800D01*
X81672956Y-54660643D01*
X81599800Y-54733799D01*
X81526644Y-54660643D01*
X81314572Y-54572800D01*
X81085028Y-54572800D01*
X80872956Y-54660643D01*
X80710643Y-54822956D01*
X80622800Y-55035028D01*
X68224935Y-55035028D01*
X70004894Y-53811696D01*
X71190708Y-53085028D01*
X73322800Y-53085028D01*
X73322800Y-53314572D01*
X73410643Y-53526644D01*
X73572956Y-53688957D01*
X73785028Y-53776800D01*
X74014572Y-53776800D01*
X74226644Y-53688957D01*
X74388957Y-53526644D01*
X74476800Y-53314572D01*
X74476800Y-53085028D01*
X74435379Y-52985028D01*
X94022800Y-52985028D01*
X94022800Y-53214572D01*
X94110643Y-53426644D01*
X94272956Y-53588957D01*
X94485028Y-53676800D01*
X94714572Y-53676800D01*
X94926644Y-53588957D01*
X95030573Y-53485028D01*
X114222800Y-53485028D01*
X114222800Y-53714572D01*
X114310643Y-53926644D01*
X114472956Y-54088957D01*
X114685028Y-54176800D01*
X114914572Y-54176800D01*
X115126644Y-54088957D01*
X115288957Y-53926644D01*
X115376800Y-53714572D01*
X115376800Y-53485028D01*
X115288957Y-53272956D01*
X115126644Y-53110643D01*
X114914572Y-53022800D01*
X114685028Y-53022800D01*
X114472956Y-53110643D01*
X114310643Y-53272956D01*
X114222800Y-53485028D01*
X95030573Y-53485028D01*
X95088957Y-53426644D01*
X95176800Y-53214572D01*
X95176800Y-52985028D01*
X95088957Y-52772956D01*
X94926644Y-52610643D01*
X94714572Y-52522800D01*
X94485028Y-52522800D01*
X94272956Y-52610643D01*
X94110643Y-52772956D01*
X94022800Y-52985028D01*
X74435379Y-52985028D01*
X74388957Y-52872956D01*
X74226644Y-52710643D01*
X74014572Y-52622800D01*
X73785028Y-52622800D01*
X73572956Y-52710643D01*
X73410643Y-52872956D01*
X73322800Y-53085028D01*
X71190708Y-53085028D01*
X72463300Y-52305183D01*
X74997181Y-50929398D01*
X77599593Y-49688111D01*
X80263402Y-48584725D01*
X81585074Y-48116696D01*
X98073000Y-48116696D01*
X98073000Y-48883304D01*
X98366368Y-49591558D01*
X98908442Y-50133632D01*
X99616696Y-50427000D01*
X100383304Y-50427000D01*
X101091558Y-50133632D01*
X101633632Y-49591558D01*
X101927000Y-48883304D01*
X101927000Y-48116696D01*
X101633632Y-47408442D01*
X101091558Y-46866368D01*
X100383304Y-46573000D01*
X99616696Y-46573000D01*
X98908442Y-46866368D01*
X98366368Y-47408442D01*
X98073000Y-48116696D01*
X81585074Y-48116696D01*
X82981307Y-47622264D01*
X85745859Y-46803367D01*
X88549479Y-46130277D01*
X91384485Y-45604840D01*
X94243104Y-45228496D01*
X97117502Y-45002276D01*
X99999800Y-44926800D01*
X102882098Y-45002276D01*
M02*
