%TF.GenerationSoftware,KiCad,Pcbnew,5.0.2-bee76a0~70~ubuntu18.04.1*%
%TF.CreationDate,2020-08-08T14:08:23+02:00*%
%TF.ProjectId,gsvesc,67737665-7363-42e6-9b69-6361645f7063,rev?*%
%TF.SameCoordinates,Original*%
%TF.FileFunction,Legend,Top*%
%TF.FilePolarity,Positive*%
%FSLAX46Y46*%
G04 Gerber Fmt 4.6, Leading zero omitted, Abs format (unit mm)*
G04 Created by KiCad (PCBNEW 5.0.2-bee76a0~70~ubuntu18.04.1) date Sa 08 Aug 2020 14:08:23 CEST*
%MOMM*%
%LPD*%
G01*
G04 APERTURE LIST*
%ADD10C,0.200000*%
%ADD11C,0.150000*%
%ADD12C,0.300000*%
%ADD13C,0.120000*%
%ADD14C,0.152400*%
%ADD15C,0.127000*%
%ADD16C,0.015000*%
G04 APERTURE END LIST*
D10*
X155499800Y-99999800D02*
G75*
G03X155499800Y-99999800I-55500000J0D01*
G01*
D11*
X126985514Y-132492657D02*
X127485514Y-132492657D01*
X127699800Y-133278371D02*
X126985514Y-133278371D01*
X126985514Y-131778371D01*
X127699800Y-131778371D01*
X128199800Y-131778371D02*
X129199800Y-133278371D01*
X129199800Y-131778371D02*
X128199800Y-133278371D01*
X129556942Y-131778371D02*
X130414085Y-131778371D01*
X129985514Y-133278371D02*
X129985514Y-131778371D01*
X132271228Y-133278371D02*
X132128371Y-133206942D01*
X132056942Y-133135514D01*
X131985514Y-132992657D01*
X131985514Y-132564085D01*
X132056942Y-132421228D01*
X132128371Y-132349800D01*
X132271228Y-132278371D01*
X132485514Y-132278371D01*
X132628371Y-132349800D01*
X132699800Y-132421228D01*
X132771228Y-132564085D01*
X132771228Y-132992657D01*
X132699800Y-133135514D01*
X132628371Y-133206942D01*
X132485514Y-133278371D01*
X132271228Y-133278371D01*
X133199800Y-132278371D02*
X133771228Y-132278371D01*
X133414085Y-133278371D02*
X133414085Y-131992657D01*
X133485514Y-131849800D01*
X133628371Y-131778371D01*
X133771228Y-131778371D01*
X134056942Y-132278371D02*
X134628371Y-132278371D01*
X134271228Y-133278371D02*
X134271228Y-131992657D01*
X134342657Y-131849800D01*
X134485514Y-131778371D01*
X134628371Y-131778371D01*
D12*
X90006942Y-48878371D02*
X90006942Y-47378371D01*
X90578371Y-47378371D01*
X90721228Y-47449800D01*
X90792657Y-47521228D01*
X90864085Y-47664085D01*
X90864085Y-47878371D01*
X90792657Y-48021228D01*
X90721228Y-48092657D01*
X90578371Y-48164085D01*
X90006942Y-48164085D01*
X91506942Y-48878371D02*
X91506942Y-47378371D01*
X92149800Y-48878371D02*
X92149800Y-48092657D01*
X92078371Y-47949800D01*
X91935514Y-47878371D01*
X91721228Y-47878371D01*
X91578371Y-47949800D01*
X91506942Y-48021228D01*
X94864085Y-48735514D02*
X94792657Y-48806942D01*
X94578371Y-48878371D01*
X94435514Y-48878371D01*
X94221228Y-48806942D01*
X94078371Y-48664085D01*
X94006942Y-48521228D01*
X93935514Y-48235514D01*
X93935514Y-48021228D01*
X94006942Y-47735514D01*
X94078371Y-47592657D01*
X94221228Y-47449800D01*
X94435514Y-47378371D01*
X94578371Y-47378371D01*
X94792657Y-47449800D01*
X94864085Y-47521228D01*
X120456942Y-64849800D02*
X120314085Y-64778371D01*
X120099800Y-64778371D01*
X119885514Y-64849800D01*
X119742657Y-64992657D01*
X119671228Y-65135514D01*
X119599800Y-65421228D01*
X119599800Y-65635514D01*
X119671228Y-65921228D01*
X119742657Y-66064085D01*
X119885514Y-66206942D01*
X120099800Y-66278371D01*
X120242657Y-66278371D01*
X120456942Y-66206942D01*
X120528371Y-66135514D01*
X120528371Y-65635514D01*
X120242657Y-65635514D01*
X121171228Y-66278371D02*
X121171228Y-64778371D01*
X122028371Y-66278371D01*
X122028371Y-64778371D01*
X122742657Y-66278371D02*
X122742657Y-64778371D01*
X123099800Y-64778371D01*
X123314085Y-64849800D01*
X123456942Y-64992657D01*
X123528371Y-65135514D01*
X123599800Y-65421228D01*
X123599800Y-65635514D01*
X123528371Y-65921228D01*
X123456942Y-66064085D01*
X123314085Y-66206942D01*
X123099800Y-66278371D01*
X122742657Y-66278371D01*
X119535514Y-54378371D02*
X120035514Y-55878371D01*
X120535514Y-54378371D01*
X121535514Y-55092657D02*
X121749800Y-55164085D01*
X121821228Y-55235514D01*
X121892657Y-55378371D01*
X121892657Y-55592657D01*
X121821228Y-55735514D01*
X121749800Y-55806942D01*
X121606942Y-55878371D01*
X121035514Y-55878371D01*
X121035514Y-54378371D01*
X121535514Y-54378371D01*
X121678371Y-54449800D01*
X121749800Y-54521228D01*
X121821228Y-54664085D01*
X121821228Y-54806942D01*
X121749800Y-54949800D01*
X121678371Y-55021228D01*
X121535514Y-55092657D01*
X121035514Y-55092657D01*
X122464085Y-55449800D02*
X123178371Y-55449800D01*
X122321228Y-55878371D02*
X122821228Y-54378371D01*
X123321228Y-55878371D01*
X123606942Y-54378371D02*
X124464085Y-54378371D01*
X124035514Y-55878371D02*
X124035514Y-54378371D01*
D11*
X139428371Y-84392657D02*
X139642657Y-84464085D01*
X139714085Y-84535514D01*
X139785514Y-84678371D01*
X139785514Y-84892657D01*
X139714085Y-85035514D01*
X139642657Y-85106942D01*
X139499800Y-85178371D01*
X138928371Y-85178371D01*
X138928371Y-83678371D01*
X139428371Y-83678371D01*
X139571228Y-83749800D01*
X139642657Y-83821228D01*
X139714085Y-83964085D01*
X139714085Y-84106942D01*
X139642657Y-84249800D01*
X139571228Y-84321228D01*
X139428371Y-84392657D01*
X138928371Y-84392657D01*
X141142657Y-85178371D02*
X140428371Y-85178371D01*
X140428371Y-83678371D01*
X141642657Y-84392657D02*
X142142657Y-84392657D01*
X142356942Y-85178371D02*
X141642657Y-85178371D01*
X141642657Y-83678371D01*
X142356942Y-83678371D01*
X144071228Y-85106942D02*
X144285514Y-85178371D01*
X144642657Y-85178371D01*
X144785514Y-85106942D01*
X144856942Y-85035514D01*
X144928371Y-84892657D01*
X144928371Y-84749800D01*
X144856942Y-84606942D01*
X144785514Y-84535514D01*
X144642657Y-84464085D01*
X144356942Y-84392657D01*
X144214085Y-84321228D01*
X144142657Y-84249800D01*
X144071228Y-84106942D01*
X144071228Y-83964085D01*
X144142657Y-83821228D01*
X144214085Y-83749800D01*
X144356942Y-83678371D01*
X144714085Y-83678371D01*
X144928371Y-83749800D01*
X145428371Y-83678371D02*
X145785514Y-85178371D01*
X146071228Y-84106942D01*
X146356942Y-85178371D01*
X146714085Y-83678371D01*
X147285514Y-85178371D02*
X147285514Y-83678371D01*
X147642657Y-83678371D01*
X147856942Y-83749800D01*
X147999800Y-83892657D01*
X148071228Y-84035514D01*
X148142657Y-84321228D01*
X148142657Y-84535514D01*
X148071228Y-84821228D01*
X147999800Y-84964085D01*
X147856942Y-85106942D01*
X147642657Y-85178371D01*
X147285514Y-85178371D01*
X134664085Y-106592657D02*
X134878371Y-106664085D01*
X134949800Y-106735514D01*
X135021228Y-106878371D01*
X135021228Y-107092657D01*
X134949800Y-107235514D01*
X134878371Y-107306942D01*
X134735514Y-107378371D01*
X134164085Y-107378371D01*
X134164085Y-105878371D01*
X134664085Y-105878371D01*
X134806942Y-105949800D01*
X134878371Y-106021228D01*
X134949800Y-106164085D01*
X134949800Y-106306942D01*
X134878371Y-106449800D01*
X134806942Y-106521228D01*
X134664085Y-106592657D01*
X134164085Y-106592657D01*
X136378371Y-107378371D02*
X135664085Y-107378371D01*
X135664085Y-105878371D01*
X136878371Y-106592657D02*
X137378371Y-106592657D01*
X137592657Y-107378371D02*
X136878371Y-107378371D01*
X136878371Y-105878371D01*
X137592657Y-105878371D01*
X139378371Y-107378371D02*
X139378371Y-105878371D01*
X139878371Y-106949800D01*
X140378371Y-105878371D01*
X140378371Y-107378371D01*
X141306942Y-107378371D02*
X141164085Y-107306942D01*
X141092657Y-107235514D01*
X141021228Y-107092657D01*
X141021228Y-106664085D01*
X141092657Y-106521228D01*
X141164085Y-106449800D01*
X141306942Y-106378371D01*
X141521228Y-106378371D01*
X141664085Y-106449800D01*
X141735514Y-106521228D01*
X141806942Y-106664085D01*
X141806942Y-107092657D01*
X141735514Y-107235514D01*
X141664085Y-107306942D01*
X141521228Y-107378371D01*
X141306942Y-107378371D01*
X143092657Y-107378371D02*
X143092657Y-105878371D01*
X143092657Y-107306942D02*
X142949800Y-107378371D01*
X142664085Y-107378371D01*
X142521228Y-107306942D01*
X142449800Y-107235514D01*
X142378371Y-107092657D01*
X142378371Y-106664085D01*
X142449800Y-106521228D01*
X142521228Y-106449800D01*
X142664085Y-106378371D01*
X142949800Y-106378371D01*
X143092657Y-106449800D01*
X144449800Y-106378371D02*
X144449800Y-107378371D01*
X143806942Y-106378371D02*
X143806942Y-107164085D01*
X143878371Y-107306942D01*
X144021228Y-107378371D01*
X144235514Y-107378371D01*
X144378371Y-107306942D01*
X144449800Y-107235514D01*
X145378371Y-107378371D02*
X145235514Y-107306942D01*
X145164085Y-107164085D01*
X145164085Y-105878371D01*
X88335514Y-124578371D02*
X89192657Y-124578371D01*
X88764085Y-126078371D02*
X88764085Y-124578371D01*
X89692657Y-125506942D02*
X90835514Y-125506942D01*
X91549800Y-126078371D02*
X91549800Y-124578371D01*
X92049800Y-125649800D01*
X92549800Y-124578371D01*
X92549800Y-126078371D01*
X93478371Y-126078371D02*
X93335514Y-126006942D01*
X93264085Y-125935514D01*
X93192657Y-125792657D01*
X93192657Y-125364085D01*
X93264085Y-125221228D01*
X93335514Y-125149800D01*
X93478371Y-125078371D01*
X93692657Y-125078371D01*
X93835514Y-125149800D01*
X93906942Y-125221228D01*
X93978371Y-125364085D01*
X93978371Y-125792657D01*
X93906942Y-125935514D01*
X93835514Y-126006942D01*
X93692657Y-126078371D01*
X93478371Y-126078371D01*
X94406942Y-125078371D02*
X94978371Y-125078371D01*
X94621228Y-124578371D02*
X94621228Y-125864085D01*
X94692657Y-126006942D01*
X94835514Y-126078371D01*
X94978371Y-126078371D01*
X95692657Y-126078371D02*
X95549800Y-126006942D01*
X95478371Y-125935514D01*
X95406942Y-125792657D01*
X95406942Y-125364085D01*
X95478371Y-125221228D01*
X95549800Y-125149800D01*
X95692657Y-125078371D01*
X95906942Y-125078371D01*
X96049800Y-125149800D01*
X96121228Y-125221228D01*
X96192657Y-125364085D01*
X96192657Y-125792657D01*
X96121228Y-125935514D01*
X96049800Y-126006942D01*
X95906942Y-126078371D01*
X95692657Y-126078371D01*
X96835514Y-126078371D02*
X96835514Y-125078371D01*
X96835514Y-125364085D02*
X96906942Y-125221228D01*
X96978371Y-125149800D01*
X97121228Y-125078371D01*
X97264085Y-125078371D01*
X123423014Y-116431228D02*
X123494442Y-116359800D01*
X123637300Y-116288371D01*
X123994442Y-116288371D01*
X124137300Y-116359800D01*
X124208728Y-116431228D01*
X124280157Y-116574085D01*
X124280157Y-116716942D01*
X124208728Y-116931228D01*
X123351585Y-117788371D01*
X124280157Y-117788371D01*
X125208728Y-116288371D02*
X125351585Y-116288371D01*
X125494442Y-116359800D01*
X125565871Y-116431228D01*
X125637300Y-116574085D01*
X125708728Y-116859800D01*
X125708728Y-117216942D01*
X125637300Y-117502657D01*
X125565871Y-117645514D01*
X125494442Y-117716942D01*
X125351585Y-117788371D01*
X125208728Y-117788371D01*
X125065871Y-117716942D01*
X124994442Y-117645514D01*
X124923014Y-117502657D01*
X124851585Y-117216942D01*
X124851585Y-116859800D01*
X124923014Y-116574085D01*
X124994442Y-116431228D01*
X125065871Y-116359800D01*
X125208728Y-116288371D01*
X126280157Y-116431228D02*
X126351585Y-116359800D01*
X126494442Y-116288371D01*
X126851585Y-116288371D01*
X126994442Y-116359800D01*
X127065871Y-116431228D01*
X127137300Y-116574085D01*
X127137300Y-116716942D01*
X127065871Y-116931228D01*
X126208728Y-117788371D01*
X127137300Y-117788371D01*
X128065871Y-116288371D02*
X128208728Y-116288371D01*
X128351585Y-116359800D01*
X128423014Y-116431228D01*
X128494442Y-116574085D01*
X128565871Y-116859800D01*
X128565871Y-117216942D01*
X128494442Y-117502657D01*
X128423014Y-117645514D01*
X128351585Y-117716942D01*
X128208728Y-117788371D01*
X128065871Y-117788371D01*
X127923014Y-117716942D01*
X127851585Y-117645514D01*
X127780157Y-117502657D01*
X127708728Y-117216942D01*
X127708728Y-116859800D01*
X127780157Y-116574085D01*
X127851585Y-116431228D01*
X127923014Y-116359800D01*
X128065871Y-116288371D01*
X123423014Y-120116942D02*
X123565871Y-120188371D01*
X123851585Y-120188371D01*
X123994442Y-120116942D01*
X124065871Y-119974085D01*
X124065871Y-119902657D01*
X123994442Y-119759800D01*
X123851585Y-119688371D01*
X123637300Y-119688371D01*
X123494442Y-119616942D01*
X123423014Y-119474085D01*
X123423014Y-119402657D01*
X123494442Y-119259800D01*
X123637300Y-119188371D01*
X123851585Y-119188371D01*
X123994442Y-119259800D01*
X125351585Y-120116942D02*
X125208728Y-120188371D01*
X124923014Y-120188371D01*
X124780157Y-120116942D01*
X124708728Y-120045514D01*
X124637300Y-119902657D01*
X124637300Y-119474085D01*
X124708728Y-119331228D01*
X124780157Y-119259800D01*
X124923014Y-119188371D01*
X125208728Y-119188371D01*
X125351585Y-119259800D01*
X125994442Y-120188371D02*
X125994442Y-118688371D01*
X126637300Y-120188371D02*
X126637300Y-119402657D01*
X126565871Y-119259800D01*
X126423014Y-119188371D01*
X126208728Y-119188371D01*
X126065871Y-119259800D01*
X125994442Y-119331228D01*
X127994442Y-120188371D02*
X127994442Y-119402657D01*
X127923014Y-119259800D01*
X127780157Y-119188371D01*
X127494442Y-119188371D01*
X127351585Y-119259800D01*
X127994442Y-120116942D02*
X127851585Y-120188371D01*
X127494442Y-120188371D01*
X127351585Y-120116942D01*
X127280157Y-119974085D01*
X127280157Y-119831228D01*
X127351585Y-119688371D01*
X127494442Y-119616942D01*
X127851585Y-119616942D01*
X127994442Y-119545514D01*
X128708728Y-120188371D02*
X128708728Y-119188371D01*
X128708728Y-119474085D02*
X128780157Y-119331228D01*
X128851585Y-119259800D01*
X128994442Y-119188371D01*
X129137300Y-119188371D01*
X130280157Y-120188371D02*
X130280157Y-118688371D01*
X130280157Y-120116942D02*
X130137300Y-120188371D01*
X129851585Y-120188371D01*
X129708728Y-120116942D01*
X129637300Y-120045514D01*
X129565871Y-119902657D01*
X129565871Y-119474085D01*
X129637300Y-119331228D01*
X129708728Y-119259800D01*
X129851585Y-119188371D01*
X130137300Y-119188371D01*
X130280157Y-119259800D01*
X130780157Y-119188371D02*
X131351585Y-119188371D01*
X130994442Y-118688371D02*
X130994442Y-119974085D01*
X131065871Y-120116942D01*
X131208728Y-120188371D01*
X131351585Y-120188371D01*
X132780157Y-119474085D02*
X132708728Y-119402657D01*
X132565871Y-119331228D01*
X132423014Y-119331228D01*
X132280157Y-119402657D01*
X132208728Y-119474085D01*
X132137300Y-119616942D01*
X132137300Y-119759800D01*
X132208728Y-119902657D01*
X132280157Y-119974085D01*
X132423014Y-120045514D01*
X132565871Y-120045514D01*
X132708728Y-119974085D01*
X132780157Y-119902657D01*
X132780157Y-119331228D02*
X132780157Y-119902657D01*
X132851585Y-119974085D01*
X132923014Y-119974085D01*
X133065871Y-119902657D01*
X133137300Y-119759800D01*
X133137300Y-119402657D01*
X132994442Y-119188371D01*
X132780157Y-119045514D01*
X132494442Y-118974085D01*
X132208728Y-119045514D01*
X131994442Y-119188371D01*
X131851585Y-119402657D01*
X131780157Y-119688371D01*
X131851585Y-119974085D01*
X131994442Y-120188371D01*
X132208728Y-120331228D01*
X132494442Y-120402657D01*
X132780157Y-120331228D01*
X132994442Y-120188371D01*
X133565871Y-119188371D02*
X134137300Y-119188371D01*
X133780157Y-118688371D02*
X133780157Y-119974085D01*
X133851585Y-120116942D01*
X133994442Y-120188371D01*
X134137300Y-120188371D01*
X135208728Y-120116942D02*
X135065871Y-120188371D01*
X134780157Y-120188371D01*
X134637300Y-120116942D01*
X134565871Y-119974085D01*
X134565871Y-119402657D01*
X134637300Y-119259800D01*
X134780157Y-119188371D01*
X135065871Y-119188371D01*
X135208728Y-119259800D01*
X135280157Y-119402657D01*
X135280157Y-119545514D01*
X134565871Y-119688371D01*
X136565871Y-120188371D02*
X136565871Y-119402657D01*
X136494442Y-119259800D01*
X136351585Y-119188371D01*
X136065871Y-119188371D01*
X135923014Y-119259800D01*
X136565871Y-120116942D02*
X136423014Y-120188371D01*
X136065871Y-120188371D01*
X135923014Y-120116942D01*
X135851585Y-119974085D01*
X135851585Y-119831228D01*
X135923014Y-119688371D01*
X136065871Y-119616942D01*
X136423014Y-119616942D01*
X136565871Y-119545514D01*
X137280157Y-120188371D02*
X137280157Y-119188371D01*
X137280157Y-119331228D02*
X137351585Y-119259800D01*
X137494442Y-119188371D01*
X137708728Y-119188371D01*
X137851585Y-119259800D01*
X137923014Y-119402657D01*
X137923014Y-120188371D01*
X137923014Y-119402657D02*
X137994442Y-119259800D01*
X138137300Y-119188371D01*
X138351585Y-119188371D01*
X138494442Y-119259800D01*
X138565871Y-119402657D01*
X138565871Y-120188371D01*
X139280157Y-119616942D02*
X140423014Y-119616942D01*
X141780157Y-120116942D02*
X141637300Y-120188371D01*
X141351585Y-120188371D01*
X141208728Y-120116942D01*
X141137300Y-120045514D01*
X141065871Y-119902657D01*
X141065871Y-119474085D01*
X141137300Y-119331228D01*
X141208728Y-119259800D01*
X141351585Y-119188371D01*
X141637300Y-119188371D01*
X141780157Y-119259800D01*
X142208728Y-119188371D02*
X142780157Y-119188371D01*
X142423014Y-118688371D02*
X142423014Y-119974085D01*
X142494442Y-120116942D01*
X142637300Y-120188371D01*
X142780157Y-120188371D01*
X143851585Y-120116942D02*
X143708728Y-120188371D01*
X143423014Y-120188371D01*
X143280157Y-120116942D01*
X143208728Y-119974085D01*
X143208728Y-119402657D01*
X143280157Y-119259800D01*
X143423014Y-119188371D01*
X143708728Y-119188371D01*
X143851585Y-119259800D01*
X143923014Y-119402657D01*
X143923014Y-119545514D01*
X143208728Y-119688371D01*
X145208728Y-120116942D02*
X145065871Y-120188371D01*
X144780157Y-120188371D01*
X144637300Y-120116942D01*
X144565871Y-120045514D01*
X144494442Y-119902657D01*
X144494442Y-119474085D01*
X144565871Y-119331228D01*
X144637300Y-119259800D01*
X144780157Y-119188371D01*
X145065871Y-119188371D01*
X145208728Y-119259800D01*
X145851585Y-120188371D02*
X145851585Y-118688371D01*
X146494442Y-120188371D02*
X146494442Y-119402657D01*
X146423014Y-119259800D01*
X146280157Y-119188371D01*
X146065871Y-119188371D01*
X145923014Y-119259800D01*
X145851585Y-119331228D01*
X147208728Y-120045514D02*
X147280157Y-120116942D01*
X147208728Y-120188371D01*
X147137300Y-120116942D01*
X147208728Y-120045514D01*
X147208728Y-120188371D01*
X148565871Y-120188371D02*
X148565871Y-118688371D01*
X148565871Y-120116942D02*
X148423014Y-120188371D01*
X148137300Y-120188371D01*
X147994442Y-120116942D01*
X147923014Y-120045514D01*
X147851585Y-119902657D01*
X147851585Y-119474085D01*
X147923014Y-119331228D01*
X147994442Y-119259800D01*
X148137300Y-119188371D01*
X148423014Y-119188371D01*
X148565871Y-119259800D01*
X149851585Y-120116942D02*
X149708728Y-120188371D01*
X149423014Y-120188371D01*
X149280157Y-120116942D01*
X149208728Y-119974085D01*
X149208728Y-119402657D01*
X149280157Y-119259800D01*
X149423014Y-119188371D01*
X149708728Y-119188371D01*
X149851585Y-119259800D01*
X149923014Y-119402657D01*
X149923014Y-119545514D01*
X149208728Y-119688371D01*
D10*
X124500000Y-100000000D02*
G75*
G03X124500000Y-100000000I-24500000J0D01*
G01*
X129463800Y-53009800D02*
X129590800Y-53136800D01*
D11*
X61706942Y-130198371D02*
X61706942Y-131412657D01*
X61778371Y-131555514D01*
X61849800Y-131626942D01*
X61992657Y-131698371D01*
X62278371Y-131698371D01*
X62421228Y-131626942D01*
X62492657Y-131555514D01*
X62564085Y-131412657D01*
X62564085Y-130198371D01*
X63206942Y-131626942D02*
X63421228Y-131698371D01*
X63778371Y-131698371D01*
X63921228Y-131626942D01*
X63992657Y-131555514D01*
X64064085Y-131412657D01*
X64064085Y-131269800D01*
X63992657Y-131126942D01*
X63921228Y-131055514D01*
X63778371Y-130984085D01*
X63492657Y-130912657D01*
X63349800Y-130841228D01*
X63278371Y-130769800D01*
X63206942Y-130626942D01*
X63206942Y-130484085D01*
X63278371Y-130341228D01*
X63349800Y-130269800D01*
X63492657Y-130198371D01*
X63849800Y-130198371D01*
X64064085Y-130269800D01*
X65206942Y-130912657D02*
X65421228Y-130984085D01*
X65492657Y-131055514D01*
X65564085Y-131198371D01*
X65564085Y-131412657D01*
X65492657Y-131555514D01*
X65421228Y-131626942D01*
X65278371Y-131698371D01*
X64706942Y-131698371D01*
X64706942Y-130198371D01*
X65206942Y-130198371D01*
X65349800Y-130269800D01*
X65421228Y-130341228D01*
X65492657Y-130484085D01*
X65492657Y-130626942D01*
X65421228Y-130769800D01*
X65349800Y-130841228D01*
X65206942Y-130912657D01*
X64706942Y-130912657D01*
X73434085Y-113386942D02*
X73648371Y-113458371D01*
X74005514Y-113458371D01*
X74148371Y-113386942D01*
X74219800Y-113315514D01*
X74291228Y-113172657D01*
X74291228Y-113029800D01*
X74219800Y-112886942D01*
X74148371Y-112815514D01*
X74005514Y-112744085D01*
X73719800Y-112672657D01*
X73576942Y-112601228D01*
X73505514Y-112529800D01*
X73434085Y-112386942D01*
X73434085Y-112244085D01*
X73505514Y-112101228D01*
X73576942Y-112029800D01*
X73719800Y-111958371D01*
X74076942Y-111958371D01*
X74291228Y-112029800D01*
X74791228Y-111958371D02*
X75148371Y-113458371D01*
X75434085Y-112386942D01*
X75719800Y-113458371D01*
X76076942Y-111958371D01*
X76648371Y-113458371D02*
X76648371Y-111958371D01*
X77005514Y-111958371D01*
X77219800Y-112029800D01*
X77362657Y-112172657D01*
X77434085Y-112315514D01*
X77505514Y-112601228D01*
X77505514Y-112815514D01*
X77434085Y-113101228D01*
X77362657Y-113244085D01*
X77219800Y-113386942D01*
X77005514Y-113458371D01*
X76648371Y-113458371D01*
X106544085Y-152886942D02*
X106758371Y-152958371D01*
X107115514Y-152958371D01*
X107258371Y-152886942D01*
X107329800Y-152815514D01*
X107401228Y-152672657D01*
X107401228Y-152529800D01*
X107329800Y-152386942D01*
X107258371Y-152315514D01*
X107115514Y-152244085D01*
X106829800Y-152172657D01*
X106686942Y-152101228D01*
X106615514Y-152029800D01*
X106544085Y-151886942D01*
X106544085Y-151744085D01*
X106615514Y-151601228D01*
X106686942Y-151529800D01*
X106829800Y-151458371D01*
X107186942Y-151458371D01*
X107401228Y-151529800D01*
X108615514Y-152886942D02*
X108472657Y-152958371D01*
X108186942Y-152958371D01*
X108044085Y-152886942D01*
X107972657Y-152744085D01*
X107972657Y-152172657D01*
X108044085Y-152029800D01*
X108186942Y-151958371D01*
X108472657Y-151958371D01*
X108615514Y-152029800D01*
X108686942Y-152172657D01*
X108686942Y-152315514D01*
X107972657Y-152458371D01*
X109329800Y-152958371D02*
X109329800Y-151958371D01*
X109329800Y-152244085D02*
X109401228Y-152101228D01*
X109472657Y-152029800D01*
X109615514Y-151958371D01*
X109758371Y-151958371D01*
X110115514Y-151958371D02*
X110472657Y-152958371D01*
X110829800Y-151958371D01*
X111615514Y-152958371D02*
X111472657Y-152886942D01*
X111401228Y-152815514D01*
X111329800Y-152672657D01*
X111329800Y-152244085D01*
X111401228Y-152101228D01*
X111472657Y-152029800D01*
X111615514Y-151958371D01*
X111829800Y-151958371D01*
X111972657Y-152029800D01*
X112044085Y-152101228D01*
X112115514Y-152244085D01*
X112115514Y-152672657D01*
X112044085Y-152815514D01*
X111972657Y-152886942D01*
X111829800Y-152958371D01*
X111615514Y-152958371D01*
X90585514Y-147375514D02*
X90514085Y-147446942D01*
X90299800Y-147518371D01*
X90156942Y-147518371D01*
X89942657Y-147446942D01*
X89799800Y-147304085D01*
X89728371Y-147161228D01*
X89656942Y-146875514D01*
X89656942Y-146661228D01*
X89728371Y-146375514D01*
X89799800Y-146232657D01*
X89942657Y-146089800D01*
X90156942Y-146018371D01*
X90299800Y-146018371D01*
X90514085Y-146089800D01*
X90585514Y-146161228D01*
X91442657Y-147518371D02*
X91299800Y-147446942D01*
X91228371Y-147375514D01*
X91156942Y-147232657D01*
X91156942Y-146804085D01*
X91228371Y-146661228D01*
X91299800Y-146589800D01*
X91442657Y-146518371D01*
X91656942Y-146518371D01*
X91799800Y-146589800D01*
X91871228Y-146661228D01*
X91942657Y-146804085D01*
X91942657Y-147232657D01*
X91871228Y-147375514D01*
X91799800Y-147446942D01*
X91656942Y-147518371D01*
X91442657Y-147518371D01*
X92585514Y-147518371D02*
X92585514Y-146518371D01*
X92585514Y-146661228D02*
X92656942Y-146589800D01*
X92799800Y-146518371D01*
X93014085Y-146518371D01*
X93156942Y-146589800D01*
X93228371Y-146732657D01*
X93228371Y-147518371D01*
X93228371Y-146732657D02*
X93299800Y-146589800D01*
X93442657Y-146518371D01*
X93656942Y-146518371D01*
X93799800Y-146589800D01*
X93871228Y-146732657D01*
X93871228Y-147518371D01*
X94585514Y-147518371D02*
X94585514Y-146518371D01*
X94585514Y-146661228D02*
X94656942Y-146589800D01*
X94799800Y-146518371D01*
X95014085Y-146518371D01*
X95156942Y-146589800D01*
X95228371Y-146732657D01*
X95228371Y-147518371D01*
X95228371Y-146732657D02*
X95299800Y-146589800D01*
X95442657Y-146518371D01*
X95656942Y-146518371D01*
X95799800Y-146589800D01*
X95871228Y-146732657D01*
X95871228Y-147518371D01*
X76321228Y-138878371D02*
X76321228Y-137378371D01*
X76321228Y-138092657D02*
X77178371Y-138092657D01*
X77178371Y-138878371D02*
X77178371Y-137378371D01*
X78535514Y-138878371D02*
X78535514Y-138092657D01*
X78464085Y-137949800D01*
X78321228Y-137878371D01*
X78035514Y-137878371D01*
X77892657Y-137949800D01*
X78535514Y-138806942D02*
X78392657Y-138878371D01*
X78035514Y-138878371D01*
X77892657Y-138806942D01*
X77821228Y-138664085D01*
X77821228Y-138521228D01*
X77892657Y-138378371D01*
X78035514Y-138306942D01*
X78392657Y-138306942D01*
X78535514Y-138235514D01*
X79464085Y-138878371D02*
X79321228Y-138806942D01*
X79249800Y-138664085D01*
X79249800Y-137378371D01*
X80249800Y-138878371D02*
X80106942Y-138806942D01*
X80035514Y-138664085D01*
X80035514Y-137378371D01*
X81892657Y-137306942D02*
X80606942Y-139235514D01*
X82392657Y-138092657D02*
X82892657Y-138092657D01*
X83106942Y-138878371D02*
X82392657Y-138878371D01*
X82392657Y-137378371D01*
X83106942Y-137378371D01*
X83749800Y-137878371D02*
X83749800Y-138878371D01*
X83749800Y-138021228D02*
X83821228Y-137949800D01*
X83964085Y-137878371D01*
X84178371Y-137878371D01*
X84321228Y-137949800D01*
X84392657Y-138092657D01*
X84392657Y-138878371D01*
X85749800Y-138806942D02*
X85606942Y-138878371D01*
X85321228Y-138878371D01*
X85178371Y-138806942D01*
X85106942Y-138735514D01*
X85035514Y-138592657D01*
X85035514Y-138164085D01*
X85106942Y-138021228D01*
X85178371Y-137949800D01*
X85321228Y-137878371D01*
X85606942Y-137878371D01*
X85749800Y-137949800D01*
X68428371Y-134778371D02*
X69285514Y-134778371D01*
X68856942Y-136278371D02*
X68856942Y-134778371D01*
X69785514Y-136278371D02*
X69785514Y-135278371D01*
X69785514Y-135564085D02*
X69856942Y-135421228D01*
X69928371Y-135349800D01*
X70071228Y-135278371D01*
X70214085Y-135278371D01*
X70714085Y-136278371D02*
X70714085Y-135278371D01*
X70714085Y-134778371D02*
X70642657Y-134849800D01*
X70714085Y-134921228D01*
X70785514Y-134849800D01*
X70714085Y-134778371D01*
X70714085Y-134921228D01*
X72071228Y-135278371D02*
X72071228Y-136492657D01*
X71999800Y-136635514D01*
X71928371Y-136706942D01*
X71785514Y-136778371D01*
X71571228Y-136778371D01*
X71428371Y-136706942D01*
X72071228Y-136206942D02*
X71928371Y-136278371D01*
X71642657Y-136278371D01*
X71499800Y-136206942D01*
X71428371Y-136135514D01*
X71356942Y-135992657D01*
X71356942Y-135564085D01*
X71428371Y-135421228D01*
X71499800Y-135349800D01*
X71642657Y-135278371D01*
X71928371Y-135278371D01*
X72071228Y-135349800D01*
X73856942Y-134706942D02*
X72571228Y-136635514D01*
X74285514Y-136206942D02*
X74499800Y-136278371D01*
X74856942Y-136278371D01*
X74999800Y-136206942D01*
X75071228Y-136135514D01*
X75142657Y-135992657D01*
X75142657Y-135849800D01*
X75071228Y-135706942D01*
X74999800Y-135635514D01*
X74856942Y-135564085D01*
X74571228Y-135492657D01*
X74428371Y-135421228D01*
X74356942Y-135349800D01*
X74285514Y-135206942D01*
X74285514Y-135064085D01*
X74356942Y-134921228D01*
X74428371Y-134849800D01*
X74571228Y-134778371D01*
X74928371Y-134778371D01*
X75142657Y-134849800D01*
X75785514Y-135278371D02*
X75785514Y-136778371D01*
X75785514Y-135349800D02*
X75928371Y-135278371D01*
X76214085Y-135278371D01*
X76356942Y-135349800D01*
X76428371Y-135421228D01*
X76499800Y-135564085D01*
X76499800Y-135992657D01*
X76428371Y-136135514D01*
X76356942Y-136206942D01*
X76214085Y-136278371D01*
X75928371Y-136278371D01*
X75785514Y-136206942D01*
X77714085Y-136206942D02*
X77571228Y-136278371D01*
X77285514Y-136278371D01*
X77142657Y-136206942D01*
X77071228Y-136064085D01*
X77071228Y-135492657D01*
X77142657Y-135349800D01*
X77285514Y-135278371D01*
X77571228Y-135278371D01*
X77714085Y-135349800D01*
X77785514Y-135492657D01*
X77785514Y-135635514D01*
X77071228Y-135778371D01*
X78999800Y-136206942D02*
X78856942Y-136278371D01*
X78571228Y-136278371D01*
X78428371Y-136206942D01*
X78356942Y-136064085D01*
X78356942Y-135492657D01*
X78428371Y-135349800D01*
X78571228Y-135278371D01*
X78856942Y-135278371D01*
X78999800Y-135349800D01*
X79071228Y-135492657D01*
X79071228Y-135635514D01*
X78356942Y-135778371D01*
X80356942Y-136278371D02*
X80356942Y-134778371D01*
X80356942Y-136206942D02*
X80214085Y-136278371D01*
X79928371Y-136278371D01*
X79785514Y-136206942D01*
X79714085Y-136135514D01*
X79642657Y-135992657D01*
X79642657Y-135564085D01*
X79714085Y-135421228D01*
X79785514Y-135349800D01*
X79928371Y-135278371D01*
X80214085Y-135278371D01*
X80356942Y-135349800D01*
X124245514Y-113819800D02*
X124102657Y-113748371D01*
X123888371Y-113748371D01*
X123674085Y-113819800D01*
X123531228Y-113962657D01*
X123459800Y-114105514D01*
X123388371Y-114391228D01*
X123388371Y-114605514D01*
X123459800Y-114891228D01*
X123531228Y-115034085D01*
X123674085Y-115176942D01*
X123888371Y-115248371D01*
X124031228Y-115248371D01*
X124245514Y-115176942D01*
X124316942Y-115105514D01*
X124316942Y-114605514D01*
X124031228Y-114605514D01*
X124888371Y-115176942D02*
X125102657Y-115248371D01*
X125459800Y-115248371D01*
X125602657Y-115176942D01*
X125674085Y-115105514D01*
X125745514Y-114962657D01*
X125745514Y-114819800D01*
X125674085Y-114676942D01*
X125602657Y-114605514D01*
X125459800Y-114534085D01*
X125174085Y-114462657D01*
X125031228Y-114391228D01*
X124959800Y-114319800D01*
X124888371Y-114176942D01*
X124888371Y-114034085D01*
X124959800Y-113891228D01*
X125031228Y-113819800D01*
X125174085Y-113748371D01*
X125531228Y-113748371D01*
X125745514Y-113819800D01*
X126174085Y-113748371D02*
X126674085Y-115248371D01*
X127174085Y-113748371D01*
X127674085Y-114462657D02*
X128174085Y-114462657D01*
X128388371Y-115248371D02*
X127674085Y-115248371D01*
X127674085Y-113748371D01*
X128388371Y-113748371D01*
X128959800Y-115176942D02*
X129174085Y-115248371D01*
X129531228Y-115248371D01*
X129674085Y-115176942D01*
X129745514Y-115105514D01*
X129816942Y-114962657D01*
X129816942Y-114819800D01*
X129745514Y-114676942D01*
X129674085Y-114605514D01*
X129531228Y-114534085D01*
X129245514Y-114462657D01*
X129102657Y-114391228D01*
X129031228Y-114319800D01*
X128959800Y-114176942D01*
X128959800Y-114034085D01*
X129031228Y-113891228D01*
X129102657Y-113819800D01*
X129245514Y-113748371D01*
X129602657Y-113748371D01*
X129816942Y-113819800D01*
X131316942Y-115105514D02*
X131245514Y-115176942D01*
X131031228Y-115248371D01*
X130888371Y-115248371D01*
X130674085Y-115176942D01*
X130531228Y-115034085D01*
X130459800Y-114891228D01*
X130388371Y-114605514D01*
X130388371Y-114391228D01*
X130459800Y-114105514D01*
X130531228Y-113962657D01*
X130674085Y-113819800D01*
X130888371Y-113748371D01*
X131031228Y-113748371D01*
X131245514Y-113819800D01*
X131316942Y-113891228D01*
X133745514Y-114248371D02*
X133745514Y-115248371D01*
X133388371Y-113676942D02*
X133031228Y-114748371D01*
X133959800Y-114748371D01*
X134531228Y-115105514D02*
X134602657Y-115176942D01*
X134531228Y-115248371D01*
X134459800Y-115176942D01*
X134531228Y-115105514D01*
X134531228Y-115248371D01*
X135531228Y-113748371D02*
X135674085Y-113748371D01*
X135816942Y-113819800D01*
X135888371Y-113891228D01*
X135959800Y-114034085D01*
X136031228Y-114319800D01*
X136031228Y-114676942D01*
X135959800Y-114962657D01*
X135888371Y-115105514D01*
X135816942Y-115176942D01*
X135674085Y-115248371D01*
X135531228Y-115248371D01*
X135388371Y-115176942D01*
X135316942Y-115105514D01*
X135245514Y-114962657D01*
X135174085Y-114676942D01*
X135174085Y-114319800D01*
X135245514Y-114034085D01*
X135316942Y-113891228D01*
X135388371Y-113819800D01*
X135531228Y-113748371D01*
D13*
X73809800Y-134453722D02*
X73809800Y-134970878D01*
X72389800Y-134453722D02*
X72389800Y-134970878D01*
D14*
X65303400Y-100368100D02*
X65303400Y-98615500D01*
X64011061Y-98615500D02*
X63344539Y-98615500D01*
X62052200Y-98615500D02*
X62052200Y-100368100D01*
D13*
X149509800Y-117529800D02*
X149509800Y-114869800D01*
X144369800Y-117529800D02*
X149509800Y-117529800D01*
X144369800Y-114869800D02*
X149509800Y-114869800D01*
X144369800Y-117529800D02*
X144369800Y-114869800D01*
X143099800Y-117529800D02*
X141769800Y-117529800D01*
X141769800Y-117529800D02*
X141769800Y-116199800D01*
X150884800Y-87474800D02*
X149634800Y-87474800D01*
X150259800Y-86849800D02*
X150259800Y-88099800D01*
X143204237Y-88339800D02*
X142139800Y-89404237D01*
X151795363Y-88339800D02*
X152859800Y-89404237D01*
X151795363Y-88339800D02*
X149009800Y-88339800D01*
X143204237Y-88339800D02*
X145989800Y-88339800D01*
X142139800Y-89404237D02*
X142139800Y-99059800D01*
X152859800Y-89404237D02*
X152859800Y-99059800D01*
X152859800Y-99059800D02*
X149009800Y-99059800D01*
X142139800Y-99059800D02*
X145989800Y-99059800D01*
X128739800Y-99059800D02*
X132589800Y-99059800D01*
X139459800Y-99059800D02*
X135609800Y-99059800D01*
X139459800Y-89404237D02*
X139459800Y-99059800D01*
X128739800Y-89404237D02*
X128739800Y-99059800D01*
X129804237Y-88339800D02*
X132589800Y-88339800D01*
X138395363Y-88339800D02*
X135609800Y-88339800D01*
X138395363Y-88339800D02*
X139459800Y-89404237D01*
X129804237Y-88339800D02*
X128739800Y-89404237D01*
X136859800Y-86849800D02*
X136859800Y-88099800D01*
X137484800Y-87474800D02*
X136234800Y-87474800D01*
X125514800Y-86524800D02*
X126764800Y-86524800D01*
X126139800Y-87149800D02*
X126139800Y-85899800D01*
X133195363Y-85659800D02*
X134259800Y-84595363D01*
X124604237Y-85659800D02*
X123539800Y-84595363D01*
X124604237Y-85659800D02*
X127389800Y-85659800D01*
X133195363Y-85659800D02*
X130409800Y-85659800D01*
X134259800Y-84595363D02*
X134259800Y-74939800D01*
X123539800Y-84595363D02*
X123539800Y-74939800D01*
X123539800Y-74939800D02*
X127389800Y-74939800D01*
X134259800Y-74939800D02*
X130409800Y-74939800D01*
X147159800Y-75039800D02*
X143309800Y-75039800D01*
X136439800Y-75039800D02*
X140289800Y-75039800D01*
X136439800Y-84695363D02*
X136439800Y-75039800D01*
X147159800Y-84695363D02*
X147159800Y-75039800D01*
X146095363Y-85759800D02*
X143309800Y-85759800D01*
X137504237Y-85759800D02*
X140289800Y-85759800D01*
X137504237Y-85759800D02*
X136439800Y-84695363D01*
X146095363Y-85759800D02*
X147159800Y-84695363D01*
X139039800Y-87249800D02*
X139039800Y-85999800D01*
X138414800Y-86624800D02*
X139664800Y-86624800D01*
X98359800Y-62497736D02*
X98359800Y-63701864D01*
X95639800Y-62497736D02*
X95639800Y-63701864D01*
X116139800Y-62497736D02*
X116139800Y-63701864D01*
X118859800Y-62497736D02*
X118859800Y-63701864D01*
X125358378Y-130509800D02*
X124841222Y-130509800D01*
X125358378Y-129089800D02*
X124841222Y-129089800D01*
D12*
X134099800Y-130999800D02*
G75*
G03X134099800Y-130999800I-100000J0D01*
G01*
D15*
X133299800Y-131499800D02*
X128199800Y-131499800D01*
X133299800Y-120199800D02*
X133299800Y-131499800D01*
X128199800Y-120199800D02*
X133299800Y-120199800D01*
X128199800Y-131499800D02*
X128199800Y-120199800D01*
D13*
X135189800Y-126595878D02*
X135189800Y-126078722D01*
X136609800Y-126595878D02*
X136609800Y-126078722D01*
X124037300Y-127759800D02*
X126722300Y-127759800D01*
X126722300Y-127759800D02*
X126722300Y-125839800D01*
X126722300Y-125839800D02*
X124037300Y-125839800D01*
X77959800Y-62397736D02*
X77959800Y-63601864D01*
X75239800Y-62397736D02*
X75239800Y-63601864D01*
X123849800Y-140499800D02*
X123849800Y-140849800D01*
X128549800Y-140499800D02*
X123849800Y-140499800D01*
X128549800Y-140849800D02*
X128549800Y-140499800D01*
X128549800Y-144749800D02*
X129799800Y-144749800D01*
X123849800Y-145099800D02*
X123849800Y-144749800D01*
X128549800Y-145099800D02*
X123849800Y-145099800D01*
X128549800Y-144749800D02*
X128549800Y-145099800D01*
X128549800Y-142179800D02*
X128549800Y-143419800D01*
X123849800Y-142179800D02*
X123849800Y-143419800D01*
X139537325Y-136587953D02*
X135099632Y-140445580D01*
X132169718Y-138858475D02*
X132962163Y-138169613D01*
X132924186Y-139726391D02*
X132169718Y-138858475D01*
X137580986Y-134154532D02*
X136931487Y-133407369D01*
X138373431Y-133465670D02*
X137580986Y-134154532D01*
X139127899Y-134333586D02*
X138373431Y-133465670D01*
X83180668Y-119235155D02*
X84510029Y-120564516D01*
X83131171Y-123598004D02*
X82388709Y-122855542D01*
X83944344Y-122784831D02*
X83131171Y-123598004D01*
X80889642Y-121356475D02*
X80189607Y-122056511D01*
X80147180Y-120614013D02*
X80889642Y-121356475D01*
X80960353Y-119800840D02*
X80147180Y-120614013D01*
X71759800Y-134441222D02*
X71759800Y-134958378D01*
X70339800Y-134441222D02*
X70339800Y-134958378D01*
D14*
X75204300Y-93874800D02*
G75*
G03X75204300Y-93874800I-76200J0D01*
G01*
X68575700Y-94525400D02*
X73223900Y-94525400D01*
X73223900Y-91274200D02*
X68575700Y-91274200D01*
X63023900Y-91274200D02*
X58375700Y-91274200D01*
X58375700Y-94525400D02*
X63023900Y-94525400D01*
X65004300Y-93874800D02*
G75*
G03X65004300Y-93874800I-76200J0D01*
G01*
X54904300Y-93874800D02*
G75*
G03X54904300Y-93874800I-76200J0D01*
G01*
X48275700Y-94525400D02*
X52923900Y-94525400D01*
X52923900Y-91274200D02*
X48275700Y-91274200D01*
D13*
X46889800Y-88503722D02*
X46889800Y-89020878D01*
X48309800Y-88503722D02*
X48309800Y-89020878D01*
X57809800Y-88641222D02*
X57809800Y-89158378D01*
X56389800Y-88641222D02*
X56389800Y-89158378D01*
X67389800Y-88603722D02*
X67389800Y-89120878D01*
X68809800Y-88603722D02*
X68809800Y-89120878D01*
X48078722Y-96709800D02*
X48595878Y-96709800D01*
X48078722Y-95289800D02*
X48595878Y-95289800D01*
X68478722Y-96809800D02*
X68995878Y-96809800D01*
X68478722Y-95389800D02*
X68995878Y-95389800D01*
X92239800Y-62497736D02*
X92239800Y-63701864D01*
X94959800Y-62497736D02*
X94959800Y-63701864D01*
X109339800Y-62497736D02*
X109339800Y-63701864D01*
X112059800Y-62497736D02*
X112059800Y-63701864D01*
X68439800Y-62397736D02*
X68439800Y-63601864D01*
X71159800Y-62397736D02*
X71159800Y-63601864D01*
X112739800Y-62497736D02*
X112739800Y-63701864D01*
X115459800Y-62497736D02*
X115459800Y-63701864D01*
X88839800Y-62497736D02*
X88839800Y-63701864D01*
X91559800Y-62497736D02*
X91559800Y-63701864D01*
X76499800Y-75574800D02*
X75699800Y-75574800D01*
X73799800Y-73174800D02*
X74899800Y-73174800D01*
X73799800Y-74324800D02*
X73799800Y-73174800D01*
X76799800Y-73174800D02*
X75699800Y-73174800D01*
X76799800Y-74324800D02*
X76799800Y-73174800D01*
X75779800Y-78039800D02*
X75779800Y-79499800D01*
X72619800Y-78039800D02*
X72619800Y-80199800D01*
X72619800Y-78039800D02*
X73549800Y-78039800D01*
X75779800Y-78039800D02*
X74849800Y-78039800D01*
D10*
X70549800Y-66699800D02*
G75*
G03X70549800Y-66699800I-100000J0D01*
G01*
D15*
X71949800Y-66049800D02*
X76949800Y-66049800D01*
X71949800Y-71149800D02*
X76949800Y-71149800D01*
D13*
X71839800Y-62397736D02*
X71839800Y-63601864D01*
X74559800Y-62397736D02*
X74559800Y-63601864D01*
X71109800Y-89020878D02*
X71109800Y-88503722D01*
X69689800Y-89020878D02*
X69689800Y-88503722D01*
X71670878Y-73539800D02*
X71153722Y-73539800D01*
X71670878Y-74959800D02*
X71153722Y-74959800D01*
X117495878Y-52789800D02*
X116978722Y-52789800D01*
X117495878Y-54209800D02*
X116978722Y-54209800D01*
X109689800Y-71341222D02*
X109689800Y-71858378D01*
X111109800Y-71341222D02*
X111109800Y-71858378D01*
X76758378Y-52389800D02*
X76241222Y-52389800D01*
X76758378Y-53809800D02*
X76241222Y-53809800D01*
X50609800Y-89020878D02*
X50609800Y-88503722D01*
X49189800Y-89020878D02*
X49189800Y-88503722D01*
X58689800Y-89095878D02*
X58689800Y-88578722D01*
X60109800Y-89095878D02*
X60109800Y-88578722D01*
X68689800Y-71141222D02*
X68689800Y-71658378D01*
X70109800Y-71141222D02*
X70109800Y-71658378D01*
X126151864Y-67489800D02*
X122047736Y-67489800D01*
X126151864Y-70909800D02*
X122047736Y-70909800D01*
D14*
X52623500Y-90425400D02*
X54376100Y-90425400D01*
X54376100Y-89133061D02*
X54376100Y-88466539D01*
X54376100Y-87174200D02*
X52623500Y-87174200D01*
X63869900Y-87174200D02*
X62117300Y-87174200D01*
X63869900Y-89133061D02*
X63869900Y-88466539D01*
X62117300Y-90425400D02*
X63869900Y-90425400D01*
X72923500Y-90525400D02*
X74676100Y-90525400D01*
X74676100Y-89233061D02*
X74676100Y-88566539D01*
X74676100Y-87274200D02*
X72923500Y-87274200D01*
D13*
X128493800Y-60505800D02*
X128493800Y-66093800D01*
X122905800Y-60505800D02*
X128493800Y-60505800D01*
X122905800Y-66093800D02*
X122905800Y-60505800D01*
X128493800Y-66093800D02*
X122905800Y-66093800D01*
X102705800Y-66193800D02*
X102705800Y-60605800D01*
X108293800Y-66193800D02*
X102705800Y-66193800D01*
X108293800Y-60605800D02*
X108293800Y-66193800D01*
X102705800Y-60605800D02*
X108293800Y-60605800D01*
X149493800Y-107593800D02*
X143905800Y-107593800D01*
X143905800Y-107593800D02*
X143905800Y-102005800D01*
X143905800Y-102005800D02*
X149493800Y-102005800D01*
X149493800Y-102005800D02*
X149493800Y-107593800D01*
X131305800Y-102205800D02*
X136893800Y-102205800D01*
X131305800Y-107793800D02*
X131305800Y-102205800D01*
X136893800Y-107793800D02*
X131305800Y-107793800D01*
X136893800Y-102205800D02*
X136893800Y-107793800D01*
X58178722Y-95289800D02*
X58695878Y-95289800D01*
X58178722Y-96709800D02*
X58695878Y-96709800D01*
X89189800Y-71141222D02*
X89189800Y-71658378D01*
X90609800Y-71141222D02*
X90609800Y-71658378D01*
X96895878Y-52489800D02*
X96378722Y-52489800D01*
X96895878Y-53909800D02*
X96378722Y-53909800D01*
X85251864Y-67389800D02*
X81147736Y-67389800D01*
X85251864Y-70809800D02*
X81147736Y-70809800D01*
X105751864Y-71009800D02*
X101647736Y-71009800D01*
X105751864Y-67589800D02*
X101647736Y-67589800D01*
X82105800Y-60505800D02*
X87693800Y-60505800D01*
X82105800Y-66093800D02*
X82105800Y-60505800D01*
X87693800Y-66093800D02*
X82105800Y-66093800D01*
X87693800Y-60505800D02*
X87693800Y-66093800D01*
X62409800Y-79158378D02*
X62409800Y-78641222D01*
X60989800Y-79158378D02*
X60989800Y-78641222D01*
X67389800Y-78641222D02*
X67389800Y-79158378D01*
X68809800Y-78641222D02*
X68809800Y-79158378D01*
X71909800Y-79120878D02*
X71909800Y-78603722D01*
X70489800Y-79120878D02*
X70489800Y-78603722D01*
D11*
X71324800Y-81274800D02*
X69924800Y-81274800D01*
X71324800Y-86374800D02*
X75474800Y-86374800D01*
X71324800Y-81224800D02*
X75474800Y-81224800D01*
X71324800Y-86374800D02*
X71324800Y-86229800D01*
X75474800Y-86374800D02*
X75474800Y-86229800D01*
X75474800Y-81224800D02*
X75474800Y-81369800D01*
X71324800Y-81224800D02*
X71324800Y-81274800D01*
X62124800Y-81174800D02*
X60724800Y-81174800D01*
X62124800Y-86274800D02*
X66274800Y-86274800D01*
X62124800Y-81124800D02*
X66274800Y-81124800D01*
X62124800Y-86274800D02*
X62124800Y-86129800D01*
X66274800Y-86274800D02*
X66274800Y-86129800D01*
X66274800Y-81124800D02*
X66274800Y-81269800D01*
X62124800Y-81124800D02*
X62124800Y-81174800D01*
D13*
X52209800Y-79258378D02*
X52209800Y-78741222D01*
X50789800Y-79258378D02*
X50789800Y-78741222D01*
D11*
X52124800Y-81274800D02*
X50724800Y-81274800D01*
X52124800Y-86374800D02*
X56274800Y-86374800D01*
X52124800Y-81224800D02*
X56274800Y-81224800D01*
X52124800Y-86374800D02*
X52124800Y-86229800D01*
X56274800Y-86374800D02*
X56274800Y-86229800D01*
X56274800Y-81224800D02*
X56274800Y-81369800D01*
X52124800Y-81224800D02*
X52124800Y-81274800D01*
D13*
X76689800Y-78503722D02*
X76689800Y-79020878D01*
X78109800Y-78503722D02*
X78109800Y-79020878D01*
X57489800Y-78703722D02*
X57489800Y-79220878D01*
X58909800Y-78703722D02*
X58909800Y-79220878D01*
X66479800Y-78139800D02*
X66479800Y-79599800D01*
X63319800Y-78139800D02*
X63319800Y-80299800D01*
X63319800Y-78139800D02*
X64249800Y-78139800D01*
X66479800Y-78139800D02*
X65549800Y-78139800D01*
X56379800Y-78239800D02*
X55449800Y-78239800D01*
X53219800Y-78239800D02*
X54149800Y-78239800D01*
X53219800Y-78239800D02*
X53219800Y-80399800D01*
X56379800Y-78239800D02*
X56379800Y-79699800D01*
D10*
X111549800Y-66799800D02*
G75*
G03X111549800Y-66799800I-100000J0D01*
G01*
D15*
X112949800Y-66149800D02*
X117949800Y-66149800D01*
X112949800Y-71249800D02*
X117949800Y-71249800D01*
D10*
X78599800Y-59299800D02*
G75*
G03X78599800Y-59299800I-100000J0D01*
G01*
D15*
X76999800Y-59949800D02*
X71999800Y-59949800D01*
X76999800Y-54849800D02*
X71999800Y-54849800D01*
D10*
X119399800Y-59399800D02*
G75*
G03X119399800Y-59399800I-100000J0D01*
G01*
D15*
X117799800Y-60049800D02*
X112799800Y-60049800D01*
X117799800Y-54949800D02*
X112799800Y-54949800D01*
X97449800Y-54749800D02*
X92449800Y-54749800D01*
X97449800Y-59849800D02*
X92449800Y-59849800D01*
D10*
X99049800Y-59199800D02*
G75*
G03X99049800Y-59199800I-100000J0D01*
G01*
D15*
X92449800Y-71049800D02*
X97449800Y-71049800D01*
X92449800Y-65949800D02*
X97449800Y-65949800D01*
D10*
X91049800Y-66599800D02*
G75*
G03X91049800Y-66599800I-100000J0D01*
G01*
D13*
X74919800Y-114794800D02*
X76249800Y-114794800D01*
X74919800Y-116124800D02*
X74919800Y-114794800D01*
X74919800Y-117394800D02*
X77579800Y-117394800D01*
X77579800Y-117394800D02*
X77579800Y-127614800D01*
X74919800Y-117394800D02*
X74919800Y-127614800D01*
X74919800Y-127614800D02*
X77579800Y-127614800D01*
X51625400Y-110849800D02*
X51625400Y-105099800D01*
X51625400Y-105099800D02*
X48025400Y-105099800D01*
X48025400Y-105099800D02*
X48025400Y-110849800D01*
D11*
X58896600Y-106806200D02*
X57871600Y-106806200D01*
X69246600Y-105806200D02*
X68171600Y-105806200D01*
X69246600Y-116156200D02*
X68171600Y-116156200D01*
X58896600Y-116156200D02*
X59971600Y-116156200D01*
X58896600Y-105806200D02*
X59971600Y-105806200D01*
X58896600Y-116156200D02*
X58896600Y-115081200D01*
X69246600Y-116156200D02*
X69246600Y-115081200D01*
X69246600Y-105806200D02*
X69246600Y-106881200D01*
X58896600Y-105806200D02*
X58896600Y-106806200D01*
D13*
X49778722Y-115709800D02*
X50295878Y-115709800D01*
X49778722Y-114289800D02*
X50295878Y-114289800D01*
X67312378Y-118274800D02*
X66795222Y-118274800D01*
X67312378Y-119694800D02*
X66795222Y-119694800D01*
X87009800Y-129497300D02*
X87009800Y-125287300D01*
X83989800Y-129497300D02*
X87009800Y-129497300D01*
X83989800Y-125287300D02*
X83989800Y-129497300D01*
X95224800Y-135749800D02*
X92924800Y-135749800D01*
X95224800Y-128349800D02*
X95224800Y-135749800D01*
X92924800Y-128349800D02*
X95224800Y-128349800D01*
X87824800Y-128349800D02*
X90124800Y-128349800D01*
X87824800Y-135749800D02*
X87824800Y-128349800D01*
X90124800Y-135749800D02*
X87824800Y-135749800D01*
X72750800Y-124314377D02*
X72750800Y-123797221D01*
X71330800Y-124314377D02*
X71330800Y-123797221D01*
X95849800Y-136149800D02*
X95849800Y-130749800D01*
X99149800Y-136149800D02*
X99149800Y-130749800D01*
X95849800Y-136149800D02*
X99149800Y-136149800D01*
X102641222Y-132559800D02*
X103158378Y-132559800D01*
X102641222Y-131139800D02*
X103158378Y-131139800D01*
X87079800Y-137878722D02*
X87079800Y-138395878D01*
X88499800Y-137878722D02*
X88499800Y-138395878D01*
X89689800Y-141938722D02*
X89689800Y-142455878D01*
X91109800Y-141938722D02*
X91109800Y-142455878D01*
X100999800Y-146481222D02*
X100999800Y-146998378D01*
X102419800Y-146481222D02*
X102419800Y-146998378D01*
X79137795Y-141528722D02*
X79137795Y-142045878D01*
X80557795Y-141528722D02*
X80557795Y-142045878D01*
X98899800Y-146503721D02*
X98899800Y-147020877D01*
X100319800Y-146503721D02*
X100319800Y-147020877D01*
X81439800Y-142378722D02*
X81439800Y-142895878D01*
X82859800Y-142378722D02*
X82859800Y-142895878D01*
X83714800Y-143203722D02*
X83714800Y-143720878D01*
X85134800Y-143203722D02*
X85134800Y-143720878D01*
X86039800Y-144403722D02*
X86039800Y-144920878D01*
X87459800Y-144403722D02*
X87459800Y-144920878D01*
X102641222Y-130209800D02*
X103158378Y-130209800D01*
X102641222Y-128789800D02*
X103158378Y-128789800D01*
X109138379Y-147039800D02*
X108621223Y-147039800D01*
X109138379Y-148459800D02*
X108621223Y-148459800D01*
X108641222Y-144109800D02*
X109158378Y-144109800D01*
X108641222Y-142689800D02*
X109158378Y-142689800D01*
X89789800Y-137928722D02*
X89789800Y-138445878D01*
X91209800Y-137928722D02*
X91209800Y-138445878D01*
D11*
X93399800Y-136944800D02*
X93399800Y-136994800D01*
X97549800Y-136944800D02*
X97549800Y-137089800D01*
X97549800Y-142094800D02*
X97549800Y-141949800D01*
X93399800Y-142094800D02*
X93399800Y-141949800D01*
X93399800Y-136944800D02*
X97549800Y-136944800D01*
X93399800Y-142094800D02*
X97549800Y-142094800D01*
X93399800Y-136994800D02*
X91999800Y-136994800D01*
D13*
X102591222Y-134909800D02*
X103108378Y-134909800D01*
X102591222Y-133489800D02*
X103108378Y-133489800D01*
X83989800Y-130077300D02*
X83989800Y-134287300D01*
X87009800Y-130077300D02*
X83989800Y-130077300D01*
X87009800Y-134287300D02*
X87009800Y-130077300D01*
X102616222Y-137209800D02*
X103133378Y-137209800D01*
X102616222Y-135789800D02*
X103133378Y-135789800D01*
D11*
X114474800Y-141699800D02*
X114299800Y-141699800D01*
X114474800Y-145049800D02*
X114224800Y-145049800D01*
X111124800Y-145049800D02*
X111374800Y-145049800D01*
X111124800Y-141699800D02*
X111374800Y-141699800D01*
X114474800Y-141699800D02*
X114474800Y-145049800D01*
X111124800Y-141699800D02*
X111124800Y-145049800D01*
X114299800Y-141699800D02*
X114299800Y-140449800D01*
D13*
X108621223Y-146309800D02*
X109138379Y-146309800D01*
X108621223Y-144889800D02*
X109138379Y-144889800D01*
X109058378Y-140489800D02*
X108541222Y-140489800D01*
X109058378Y-141909800D02*
X108541222Y-141909800D01*
X111064800Y-148591222D02*
X111064800Y-149108378D01*
X112484800Y-148591222D02*
X112484800Y-149108378D01*
X116534800Y-142108378D02*
X116534800Y-141591222D01*
X115114800Y-142108378D02*
X115114800Y-141591222D01*
X102616222Y-139709800D02*
X103133378Y-139709800D01*
X102616222Y-138289800D02*
X103133378Y-138289800D01*
X115199800Y-147249800D02*
X115199800Y-151149800D01*
X113199800Y-147249800D02*
X113199800Y-151149800D01*
X115199800Y-147249800D02*
X113199800Y-147249800D01*
X63964800Y-127828722D02*
X63964800Y-128345878D01*
X65384800Y-127828722D02*
X65384800Y-128345878D01*
X104559800Y-152114800D02*
X104559800Y-150964800D01*
X104559800Y-150964800D02*
X103509800Y-150964800D01*
X103509800Y-150964800D02*
X103509800Y-149974800D01*
X99339800Y-152114800D02*
X99339800Y-150964800D01*
X99339800Y-150964800D02*
X100389800Y-150964800D01*
X103389800Y-154084800D02*
X100509800Y-154084800D01*
X84895540Y-149601520D02*
X85326339Y-148535259D01*
X85326339Y-148535259D02*
X84352796Y-148141922D01*
X84352796Y-148141922D02*
X84723656Y-147224010D01*
X77274090Y-146522254D02*
X77704888Y-145455993D01*
X77704888Y-145455993D02*
X78678431Y-145849330D01*
X83072761Y-150989783D02*
X77620920Y-148787096D01*
X96090414Y-151852886D02*
X96290109Y-150720357D01*
X96290109Y-150720357D02*
X95256061Y-150538027D01*
X95256061Y-150538027D02*
X95427973Y-149563067D01*
X87995294Y-150425498D02*
X88194990Y-149292969D01*
X88194990Y-149292969D02*
X89229038Y-149475300D01*
X94596102Y-153589789D02*
X88805432Y-152568738D01*
X74568572Y-144989965D02*
X75228185Y-144047940D01*
X75228185Y-144047940D02*
X74368075Y-143445685D01*
X74368075Y-143445685D02*
X74935916Y-142634725D01*
X67835142Y-140275167D02*
X68494755Y-139333142D01*
X68494755Y-139333142D02*
X69354865Y-139935397D01*
X72480218Y-145932610D02*
X67663604Y-142559981D01*
X51609800Y-99620878D02*
X51609800Y-99103722D01*
X50189800Y-99620878D02*
X50189800Y-99103722D01*
X118884800Y-142133378D02*
X118884800Y-141616222D01*
X117464800Y-142133378D02*
X117464800Y-141616222D01*
X59696878Y-102337800D02*
X59179722Y-102337800D01*
X59696878Y-103757800D02*
X59179722Y-103757800D01*
X69504378Y-102317800D02*
X68987222Y-102317800D01*
X69504378Y-103737800D02*
X68987222Y-103737800D01*
X116039800Y-146497736D02*
X116039800Y-147701864D01*
X118759800Y-146497736D02*
X118759800Y-147701864D01*
X119549800Y-139299800D02*
X119549800Y-133899800D01*
X122849800Y-139299800D02*
X122849800Y-133899800D01*
X119549800Y-139299800D02*
X122849800Y-139299800D01*
X118349800Y-126499800D02*
X118349800Y-129499800D01*
X105749800Y-126499800D02*
X118349800Y-126499800D01*
X105749800Y-129499800D02*
X105749800Y-126499800D01*
X105749800Y-139099800D02*
X105749800Y-136099800D01*
X118349800Y-139099800D02*
X105749800Y-139099800D01*
X118349800Y-136099800D02*
X118349800Y-139099800D01*
X59665800Y-99273222D02*
X59665800Y-99790378D01*
X61085800Y-99273222D02*
X61085800Y-99790378D01*
X45989800Y-99103722D02*
X45989800Y-99620878D01*
X47409800Y-99103722D02*
X47409800Y-99620878D01*
X48089800Y-99103722D02*
X48089800Y-99620878D01*
X49509800Y-99103722D02*
X49509800Y-99620878D01*
X119739800Y-146783378D02*
X119739800Y-146266222D01*
X121159800Y-146783378D02*
X121159800Y-146266222D01*
X57379800Y-99273222D02*
X57379800Y-99790378D01*
X58799800Y-99273222D02*
X58799800Y-99790378D01*
X66651800Y-99154722D02*
X66651800Y-99671878D01*
X68071800Y-99154722D02*
X68071800Y-99671878D01*
X49778722Y-117909800D02*
X50295878Y-117909800D01*
X49778722Y-116489800D02*
X50295878Y-116489800D01*
X69063800Y-99154722D02*
X69063800Y-99671878D01*
X70483800Y-99154722D02*
X70483800Y-99671878D01*
D14*
X55625400Y-100444300D02*
X55625400Y-98691700D01*
X54333061Y-98691700D02*
X53666539Y-98691700D01*
X52374200Y-98691700D02*
X52374200Y-100444300D01*
X74557400Y-100444300D02*
X74557400Y-98691700D01*
X73265061Y-98691700D02*
X72598539Y-98691700D01*
X71306200Y-98691700D02*
X71306200Y-100444300D01*
D13*
X64114800Y-124377877D02*
X64114800Y-123860721D01*
X62694800Y-124377877D02*
X62694800Y-123860721D01*
X68432800Y-124314377D02*
X68432800Y-123797221D01*
X67012800Y-124314377D02*
X67012800Y-123797221D01*
X62205800Y-125804299D02*
X62205800Y-123119299D01*
X60285800Y-125804299D02*
X62205800Y-125804299D01*
X60285800Y-123119299D02*
X60285800Y-125804299D01*
X70841800Y-125702128D02*
X70841800Y-123017128D01*
X68921800Y-125702128D02*
X70841800Y-125702128D01*
X68921800Y-123017128D02*
X68921800Y-125702128D01*
X66523800Y-125740799D02*
X66523800Y-123055799D01*
X64603800Y-125740799D02*
X66523800Y-125740799D01*
X64603800Y-123055799D02*
X64603800Y-125740799D01*
X54340878Y-107772800D02*
X53823722Y-107772800D01*
X54340878Y-109192800D02*
X53823722Y-109192800D01*
X54340878Y-109931800D02*
X53823722Y-109931800D01*
X54340878Y-111351800D02*
X53823722Y-111351800D01*
X58660300Y-119630222D02*
X58660300Y-120147378D01*
X60080300Y-119630222D02*
X60080300Y-120147378D01*
X54340878Y-112090800D02*
X53823722Y-112090800D01*
X54340878Y-113510800D02*
X53823722Y-113510800D01*
X62787800Y-119615222D02*
X62787800Y-120132378D01*
X64207800Y-119615222D02*
X64207800Y-120132378D01*
X49786822Y-104409800D02*
X50303978Y-104409800D01*
X49786822Y-102989800D02*
X50303978Y-102989800D01*
X49786822Y-113232800D02*
X50303978Y-113232800D01*
X49786822Y-111812800D02*
X50303978Y-111812800D01*
X54331878Y-105478800D02*
X53814722Y-105478800D01*
X54331878Y-106898800D02*
X53814722Y-106898800D01*
X74168378Y-108909800D02*
X73651222Y-108909800D01*
X74168378Y-110329800D02*
X73651222Y-110329800D01*
X53814722Y-104739800D02*
X54331878Y-104739800D01*
X53814722Y-103319800D02*
X54331878Y-103319800D01*
X62175800Y-120147378D02*
X62175800Y-119630222D01*
X60755800Y-120147378D02*
X60755800Y-119630222D01*
X70980378Y-118274800D02*
X70463222Y-118274800D01*
X70980378Y-119694800D02*
X70463222Y-119694800D01*
X74198078Y-106590800D02*
X73680922Y-106590800D01*
X74198078Y-108010800D02*
X73680922Y-108010800D01*
X63857878Y-102337800D02*
X63340722Y-102337800D01*
X63857878Y-103757800D02*
X63340722Y-103757800D01*
X53887222Y-115669800D02*
X54404378Y-115669800D01*
X53887222Y-114249800D02*
X54404378Y-114249800D01*
D11*
X61570447Y-137242084D02*
X60232186Y-135755795D01*
X59855562Y-130106843D02*
X59502568Y-130424680D01*
X65409346Y-136274945D02*
X59855562Y-130106843D01*
X65056352Y-136592782D02*
X65409346Y-136274945D01*
X57477498Y-132248061D02*
X57830492Y-131930224D01*
X63031282Y-138416163D02*
X57477498Y-132248061D01*
X63384276Y-138098326D02*
X63031282Y-138416163D01*
D13*
X61664800Y-127878722D02*
X61664800Y-128395878D01*
X63084800Y-127878722D02*
X63084800Y-128395878D01*
D11*
X75202180Y-134878966D02*
X74725990Y-135212300D01*
X75202180Y-135450395D02*
X74202180Y-135450395D01*
X74202180Y-135069442D01*
X74249800Y-134974204D01*
X74297419Y-134926585D01*
X74392657Y-134878966D01*
X74535514Y-134878966D01*
X74630752Y-134926585D01*
X74678371Y-134974204D01*
X74725990Y-135069442D01*
X74725990Y-135450395D01*
X75202180Y-133926585D02*
X75202180Y-134498014D01*
X75202180Y-134212300D02*
X74202180Y-134212300D01*
X74345038Y-134307538D01*
X74440276Y-134402776D01*
X74487895Y-134498014D01*
X63529704Y-101747980D02*
X63529704Y-102557504D01*
X63577323Y-102652742D01*
X63624942Y-102700361D01*
X63720180Y-102747980D01*
X63910657Y-102747980D01*
X64005895Y-102700361D01*
X64053514Y-102652742D01*
X64101133Y-102557504D01*
X64101133Y-101747980D01*
X65101133Y-102747980D02*
X64529704Y-102747980D01*
X64815419Y-102747980D02*
X64815419Y-101747980D01*
X64720180Y-101890838D01*
X64624942Y-101986076D01*
X64529704Y-102033695D01*
X66053514Y-102747980D02*
X65482085Y-102747980D01*
X65767800Y-102747980D02*
X65767800Y-101747980D01*
X65672561Y-101890838D01*
X65577323Y-101986076D01*
X65482085Y-102033695D01*
X140222180Y-117009323D02*
X140936466Y-117009323D01*
X141079323Y-117056942D01*
X141174561Y-117152180D01*
X141222180Y-117295038D01*
X141222180Y-117390276D01*
X141222180Y-116009323D02*
X141222180Y-116580752D01*
X141222180Y-116295038D02*
X140222180Y-116295038D01*
X140365038Y-116390276D01*
X140460276Y-116485514D01*
X140507895Y-116580752D01*
X140555514Y-115152180D02*
X141222180Y-115152180D01*
X140174561Y-115390276D02*
X140888847Y-115628371D01*
X140888847Y-115009323D01*
X154156942Y-94342657D02*
X154204561Y-94390276D01*
X154252180Y-94533133D01*
X154252180Y-94628371D01*
X154204561Y-94771228D01*
X154109323Y-94866466D01*
X154014085Y-94914085D01*
X153823609Y-94961704D01*
X153680752Y-94961704D01*
X153490276Y-94914085D01*
X153395038Y-94866466D01*
X153299800Y-94771228D01*
X153252180Y-94628371D01*
X153252180Y-94533133D01*
X153299800Y-94390276D01*
X153347419Y-94342657D01*
X153252180Y-93437895D02*
X153252180Y-93914085D01*
X153728371Y-93961704D01*
X153680752Y-93914085D01*
X153633133Y-93818847D01*
X153633133Y-93580752D01*
X153680752Y-93485514D01*
X153728371Y-93437895D01*
X153823609Y-93390276D01*
X154061704Y-93390276D01*
X154156942Y-93437895D01*
X154204561Y-93485514D01*
X154252180Y-93580752D01*
X154252180Y-93818847D01*
X154204561Y-93914085D01*
X154156942Y-93961704D01*
X153252180Y-92533133D02*
X153252180Y-92723609D01*
X153299800Y-92818847D01*
X153347419Y-92866466D01*
X153490276Y-92961704D01*
X153680752Y-93009323D01*
X154061704Y-93009323D01*
X154156942Y-92961704D01*
X154204561Y-92914085D01*
X154252180Y-92818847D01*
X154252180Y-92628371D01*
X154204561Y-92533133D01*
X154156942Y-92485514D01*
X154061704Y-92437895D01*
X153823609Y-92437895D01*
X153728371Y-92485514D01*
X153680752Y-92533133D01*
X153633133Y-92628371D01*
X153633133Y-92818847D01*
X153680752Y-92914085D01*
X153728371Y-92961704D01*
X153823609Y-93009323D01*
X140756942Y-94342657D02*
X140804561Y-94390276D01*
X140852180Y-94533133D01*
X140852180Y-94628371D01*
X140804561Y-94771228D01*
X140709323Y-94866466D01*
X140614085Y-94914085D01*
X140423609Y-94961704D01*
X140280752Y-94961704D01*
X140090276Y-94914085D01*
X139995038Y-94866466D01*
X139899800Y-94771228D01*
X139852180Y-94628371D01*
X139852180Y-94533133D01*
X139899800Y-94390276D01*
X139947419Y-94342657D01*
X139852180Y-93437895D02*
X139852180Y-93914085D01*
X140328371Y-93961704D01*
X140280752Y-93914085D01*
X140233133Y-93818847D01*
X140233133Y-93580752D01*
X140280752Y-93485514D01*
X140328371Y-93437895D01*
X140423609Y-93390276D01*
X140661704Y-93390276D01*
X140756942Y-93437895D01*
X140804561Y-93485514D01*
X140852180Y-93580752D01*
X140852180Y-93818847D01*
X140804561Y-93914085D01*
X140756942Y-93961704D01*
X139852180Y-92485514D02*
X139852180Y-92961704D01*
X140328371Y-93009323D01*
X140280752Y-92961704D01*
X140233133Y-92866466D01*
X140233133Y-92628371D01*
X140280752Y-92533133D01*
X140328371Y-92485514D01*
X140423609Y-92437895D01*
X140661704Y-92437895D01*
X140756942Y-92485514D01*
X140804561Y-92533133D01*
X140852180Y-92628371D01*
X140852180Y-92866466D01*
X140804561Y-92961704D01*
X140756942Y-93009323D01*
X122956942Y-80942657D02*
X123004561Y-80990276D01*
X123052180Y-81133133D01*
X123052180Y-81228371D01*
X123004561Y-81371228D01*
X122909323Y-81466466D01*
X122814085Y-81514085D01*
X122623609Y-81561704D01*
X122480752Y-81561704D01*
X122290276Y-81514085D01*
X122195038Y-81466466D01*
X122099800Y-81371228D01*
X122052180Y-81228371D01*
X122052180Y-81133133D01*
X122099800Y-80990276D01*
X122147419Y-80942657D01*
X122052180Y-80037895D02*
X122052180Y-80514085D01*
X122528371Y-80561704D01*
X122480752Y-80514085D01*
X122433133Y-80418847D01*
X122433133Y-80180752D01*
X122480752Y-80085514D01*
X122528371Y-80037895D01*
X122623609Y-79990276D01*
X122861704Y-79990276D01*
X122956942Y-80037895D01*
X123004561Y-80085514D01*
X123052180Y-80180752D01*
X123052180Y-80418847D01*
X123004561Y-80514085D01*
X122956942Y-80561704D01*
X122385514Y-79133133D02*
X123052180Y-79133133D01*
X122004561Y-79371228D02*
X122718847Y-79609323D01*
X122718847Y-78990276D01*
X135856942Y-81042657D02*
X135904561Y-81090276D01*
X135952180Y-81233133D01*
X135952180Y-81328371D01*
X135904561Y-81471228D01*
X135809323Y-81566466D01*
X135714085Y-81614085D01*
X135523609Y-81661704D01*
X135380752Y-81661704D01*
X135190276Y-81614085D01*
X135095038Y-81566466D01*
X134999800Y-81471228D01*
X134952180Y-81328371D01*
X134952180Y-81233133D01*
X134999800Y-81090276D01*
X135047419Y-81042657D01*
X134952180Y-80137895D02*
X134952180Y-80614085D01*
X135428371Y-80661704D01*
X135380752Y-80614085D01*
X135333133Y-80518847D01*
X135333133Y-80280752D01*
X135380752Y-80185514D01*
X135428371Y-80137895D01*
X135523609Y-80090276D01*
X135761704Y-80090276D01*
X135856942Y-80137895D01*
X135904561Y-80185514D01*
X135952180Y-80280752D01*
X135952180Y-80518847D01*
X135904561Y-80614085D01*
X135856942Y-80661704D01*
X134952180Y-79756942D02*
X134952180Y-79137895D01*
X135333133Y-79471228D01*
X135333133Y-79328371D01*
X135380752Y-79233133D01*
X135428371Y-79185514D01*
X135523609Y-79137895D01*
X135761704Y-79137895D01*
X135856942Y-79185514D01*
X135904561Y-79233133D01*
X135952180Y-79328371D01*
X135952180Y-79614085D01*
X135904561Y-79709323D01*
X135856942Y-79756942D01*
X99636942Y-63742657D02*
X99684561Y-63790276D01*
X99732180Y-63933133D01*
X99732180Y-64028371D01*
X99684561Y-64171228D01*
X99589323Y-64266466D01*
X99494085Y-64314085D01*
X99303609Y-64361704D01*
X99160752Y-64361704D01*
X98970276Y-64314085D01*
X98875038Y-64266466D01*
X98779800Y-64171228D01*
X98732180Y-64028371D01*
X98732180Y-63933133D01*
X98779800Y-63790276D01*
X98827419Y-63742657D01*
X98732180Y-62837895D02*
X98732180Y-63314085D01*
X99208371Y-63361704D01*
X99160752Y-63314085D01*
X99113133Y-63218847D01*
X99113133Y-62980752D01*
X99160752Y-62885514D01*
X99208371Y-62837895D01*
X99303609Y-62790276D01*
X99541704Y-62790276D01*
X99636942Y-62837895D01*
X99684561Y-62885514D01*
X99732180Y-62980752D01*
X99732180Y-63218847D01*
X99684561Y-63314085D01*
X99636942Y-63361704D01*
X98827419Y-62409323D02*
X98779800Y-62361704D01*
X98732180Y-62266466D01*
X98732180Y-62028371D01*
X98779800Y-61933133D01*
X98827419Y-61885514D01*
X98922657Y-61837895D01*
X99017895Y-61837895D01*
X99160752Y-61885514D01*
X99732180Y-62456942D01*
X99732180Y-61837895D01*
X120136942Y-63742657D02*
X120184561Y-63790276D01*
X120232180Y-63933133D01*
X120232180Y-64028371D01*
X120184561Y-64171228D01*
X120089323Y-64266466D01*
X119994085Y-64314085D01*
X119803609Y-64361704D01*
X119660752Y-64361704D01*
X119470276Y-64314085D01*
X119375038Y-64266466D01*
X119279800Y-64171228D01*
X119232180Y-64028371D01*
X119232180Y-63933133D01*
X119279800Y-63790276D01*
X119327419Y-63742657D01*
X119232180Y-62837895D02*
X119232180Y-63314085D01*
X119708371Y-63361704D01*
X119660752Y-63314085D01*
X119613133Y-63218847D01*
X119613133Y-62980752D01*
X119660752Y-62885514D01*
X119708371Y-62837895D01*
X119803609Y-62790276D01*
X120041704Y-62790276D01*
X120136942Y-62837895D01*
X120184561Y-62885514D01*
X120232180Y-62980752D01*
X120232180Y-63218847D01*
X120184561Y-63314085D01*
X120136942Y-63361704D01*
X120232180Y-61837895D02*
X120232180Y-62409323D01*
X120232180Y-62123609D02*
X119232180Y-62123609D01*
X119375038Y-62218847D01*
X119470276Y-62314085D01*
X119517895Y-62409323D01*
D16*
X132424897Y-134373492D02*
X133126927Y-134373492D01*
X133209518Y-134332196D01*
X133250814Y-134290900D01*
X133292110Y-134208308D01*
X133292110Y-134043125D01*
X133250814Y-133960533D01*
X133209518Y-133919237D01*
X133126927Y-133877942D01*
X132424897Y-133877942D01*
X133292110Y-133010729D02*
X133292110Y-133506279D01*
X133292110Y-133258504D02*
X132424897Y-133258504D01*
X132548785Y-133341095D01*
X132631376Y-133423687D01*
X132672672Y-133506279D01*
X132424897Y-132267403D02*
X132424897Y-132432587D01*
X132466193Y-132515178D01*
X132507489Y-132556474D01*
X132631376Y-132639066D01*
X132796560Y-132680362D01*
X133126927Y-132680362D01*
X133209518Y-132639066D01*
X133250814Y-132597770D01*
X133292110Y-132515178D01*
X133292110Y-132349995D01*
X133250814Y-132267403D01*
X133209518Y-132226107D01*
X133126927Y-132184811D01*
X132920447Y-132184811D01*
X132837856Y-132226107D01*
X132796560Y-132267403D01*
X132755264Y-132349995D01*
X132755264Y-132515178D01*
X132796560Y-132597770D01*
X132837856Y-132639066D01*
X132920447Y-132680362D01*
D11*
X79236942Y-63642657D02*
X79284561Y-63690276D01*
X79332180Y-63833133D01*
X79332180Y-63928371D01*
X79284561Y-64071228D01*
X79189323Y-64166466D01*
X79094085Y-64214085D01*
X78903609Y-64261704D01*
X78760752Y-64261704D01*
X78570276Y-64214085D01*
X78475038Y-64166466D01*
X78379800Y-64071228D01*
X78332180Y-63928371D01*
X78332180Y-63833133D01*
X78379800Y-63690276D01*
X78427419Y-63642657D01*
X78332180Y-62737895D02*
X78332180Y-63214085D01*
X78808371Y-63261704D01*
X78760752Y-63214085D01*
X78713133Y-63118847D01*
X78713133Y-62880752D01*
X78760752Y-62785514D01*
X78808371Y-62737895D01*
X78903609Y-62690276D01*
X79141704Y-62690276D01*
X79236942Y-62737895D01*
X79284561Y-62785514D01*
X79332180Y-62880752D01*
X79332180Y-63118847D01*
X79284561Y-63214085D01*
X79236942Y-63261704D01*
X78332180Y-62071228D02*
X78332180Y-61975990D01*
X78379800Y-61880752D01*
X78427419Y-61833133D01*
X78522657Y-61785514D01*
X78713133Y-61737895D01*
X78951228Y-61737895D01*
X79141704Y-61785514D01*
X79236942Y-61833133D01*
X79284561Y-61880752D01*
X79332180Y-61975990D01*
X79332180Y-62071228D01*
X79284561Y-62166466D01*
X79236942Y-62214085D01*
X79141704Y-62261704D01*
X78951228Y-62309323D01*
X78713133Y-62309323D01*
X78522657Y-62261704D01*
X78427419Y-62214085D01*
X78379800Y-62166466D01*
X78332180Y-62071228D01*
X124961704Y-145752180D02*
X124961704Y-146561704D01*
X125009323Y-146656942D01*
X125056942Y-146704561D01*
X125152180Y-146752180D01*
X125342657Y-146752180D01*
X125437895Y-146704561D01*
X125485514Y-146656942D01*
X125533133Y-146561704D01*
X125533133Y-145752180D01*
X126533133Y-146752180D02*
X125961704Y-146752180D01*
X126247419Y-146752180D02*
X126247419Y-145752180D01*
X126152180Y-145895038D01*
X126056942Y-145990276D01*
X125961704Y-146037895D01*
X127104561Y-146180752D02*
X127009323Y-146133133D01*
X126961704Y-146085514D01*
X126914085Y-145990276D01*
X126914085Y-145942657D01*
X126961704Y-145847419D01*
X127009323Y-145799800D01*
X127104561Y-145752180D01*
X127295038Y-145752180D01*
X127390276Y-145799800D01*
X127437895Y-145847419D01*
X127485514Y-145942657D01*
X127485514Y-145990276D01*
X127437895Y-146085514D01*
X127390276Y-146133133D01*
X127295038Y-146180752D01*
X127104561Y-146180752D01*
X127009323Y-146228371D01*
X126961704Y-146275990D01*
X126914085Y-146371228D01*
X126914085Y-146561704D01*
X126961704Y-146656942D01*
X127009323Y-146704561D01*
X127104561Y-146752180D01*
X127295038Y-146752180D01*
X127390276Y-146704561D01*
X127437895Y-146656942D01*
X127485514Y-146561704D01*
X127485514Y-146371228D01*
X127437895Y-146275990D01*
X127390276Y-146228371D01*
X127295038Y-146180752D01*
X137194569Y-139608144D02*
X137663182Y-140147222D01*
X137720966Y-140286278D01*
X137711571Y-140420637D01*
X137634996Y-140550299D01*
X137563119Y-140612780D01*
X138605337Y-139706794D02*
X138174075Y-140081685D01*
X138389706Y-139894240D02*
X137733647Y-139139530D01*
X137755493Y-139309827D01*
X137746097Y-139444186D01*
X137705461Y-139542607D01*
X138632111Y-138358507D02*
X138272725Y-138670916D01*
X138549196Y-139061543D01*
X138553893Y-138994363D01*
X138594530Y-138895943D01*
X138774222Y-138739738D01*
X138877340Y-138713195D01*
X138944520Y-138717893D01*
X139042940Y-138758529D01*
X139199145Y-138938222D01*
X139225688Y-139041340D01*
X139220990Y-139108519D01*
X139180354Y-139206940D01*
X139000661Y-139363144D01*
X138897543Y-139389687D01*
X138830364Y-139384990D01*
X84572321Y-118028023D02*
X84067245Y-118533099D01*
X83932558Y-118600442D01*
X83797871Y-118600442D01*
X83663184Y-118533099D01*
X83595840Y-118465755D01*
X84572321Y-119442236D02*
X84168260Y-119038175D01*
X84370290Y-119240206D02*
X85077397Y-118533099D01*
X84909038Y-118566771D01*
X84774351Y-118566771D01*
X84673336Y-118533099D01*
X85515130Y-118970832D02*
X85952863Y-119408564D01*
X85447786Y-119442236D01*
X85548802Y-119543251D01*
X85582473Y-119644267D01*
X85582473Y-119711610D01*
X85548802Y-119812625D01*
X85380443Y-119980984D01*
X85279428Y-120014656D01*
X85212084Y-120014656D01*
X85111069Y-119980984D01*
X84909038Y-119778954D01*
X84875367Y-119677938D01*
X84875367Y-119610595D01*
X73152180Y-135342657D02*
X72675990Y-135675990D01*
X73152180Y-135914085D02*
X72152180Y-135914085D01*
X72152180Y-135533133D01*
X72199800Y-135437895D01*
X72247419Y-135390276D01*
X72342657Y-135342657D01*
X72485514Y-135342657D01*
X72580752Y-135390276D01*
X72628371Y-135437895D01*
X72675990Y-135533133D01*
X72675990Y-135914085D01*
X72152180Y-135009323D02*
X72152180Y-134390276D01*
X72533133Y-134723609D01*
X72533133Y-134580752D01*
X72580752Y-134485514D01*
X72628371Y-134437895D01*
X72723609Y-134390276D01*
X72961704Y-134390276D01*
X73056942Y-134437895D01*
X73104561Y-134485514D01*
X73152180Y-134580752D01*
X73152180Y-134866466D01*
X73104561Y-134961704D01*
X73056942Y-135009323D01*
X72152180Y-134056942D02*
X72152180Y-133390276D01*
X73152180Y-133818847D01*
X74787519Y-94919195D02*
X73977995Y-94919195D01*
X73882757Y-94966814D01*
X73835138Y-95014433D01*
X73787519Y-95109671D01*
X73787519Y-95300147D01*
X73835138Y-95395385D01*
X73882757Y-95443004D01*
X73977995Y-95490623D01*
X74787519Y-95490623D01*
X74787519Y-96443004D02*
X74787519Y-95966814D01*
X74311328Y-95919195D01*
X74358947Y-95966814D01*
X74406566Y-96062052D01*
X74406566Y-96300147D01*
X74358947Y-96395385D01*
X74311328Y-96443004D01*
X74216090Y-96490623D01*
X73977995Y-96490623D01*
X73882757Y-96443004D01*
X73835138Y-96395385D01*
X73787519Y-96300147D01*
X73787519Y-96062052D01*
X73835138Y-95966814D01*
X73882757Y-95919195D01*
X74221400Y-93479179D02*
X74221400Y-93717275D01*
X73983304Y-93622037D02*
X74221400Y-93717275D01*
X74459495Y-93622037D01*
X74078542Y-93907751D02*
X74221400Y-93717275D01*
X74364257Y-93907751D01*
X65984519Y-91236195D02*
X65174995Y-91236195D01*
X65079757Y-91283814D01*
X65032138Y-91331433D01*
X64984519Y-91426671D01*
X64984519Y-91617147D01*
X65032138Y-91712385D01*
X65079757Y-91760004D01*
X65174995Y-91807623D01*
X65984519Y-91807623D01*
X65984519Y-92712385D02*
X65984519Y-92521909D01*
X65936900Y-92426671D01*
X65889280Y-92379052D01*
X65746423Y-92283814D01*
X65555947Y-92236195D01*
X65174995Y-92236195D01*
X65079757Y-92283814D01*
X65032138Y-92331433D01*
X64984519Y-92426671D01*
X64984519Y-92617147D01*
X65032138Y-92712385D01*
X65079757Y-92760004D01*
X65174995Y-92807623D01*
X65413090Y-92807623D01*
X65508328Y-92760004D01*
X65555947Y-92712385D01*
X65603566Y-92617147D01*
X65603566Y-92426671D01*
X65555947Y-92331433D01*
X65508328Y-92283814D01*
X65413090Y-92236195D01*
X63833400Y-92908980D02*
X63833400Y-93147076D01*
X63595304Y-93051838D02*
X63833400Y-93147076D01*
X64071495Y-93051838D01*
X63690542Y-93337552D02*
X63833400Y-93147076D01*
X63976257Y-93337552D01*
X56049619Y-91477495D02*
X55240095Y-91477495D01*
X55144857Y-91525114D01*
X55097238Y-91572733D01*
X55049619Y-91667971D01*
X55049619Y-91858447D01*
X55097238Y-91953685D01*
X55144857Y-92001304D01*
X55240095Y-92048923D01*
X56049619Y-92048923D01*
X55716285Y-92953685D02*
X55049619Y-92953685D01*
X56097238Y-92715590D02*
X55382952Y-92477495D01*
X55382952Y-93096542D01*
X50599800Y-92352180D02*
X50599800Y-92590276D01*
X50361704Y-92495038D02*
X50599800Y-92590276D01*
X50837895Y-92495038D01*
X50456942Y-92780752D02*
X50599800Y-92590276D01*
X50742657Y-92780752D01*
X77402776Y-73474680D02*
X77402776Y-74188966D01*
X77355157Y-74331823D01*
X77259919Y-74427061D01*
X77117061Y-74474680D01*
X77021823Y-74474680D01*
X78402776Y-74474680D02*
X77831347Y-74474680D01*
X78117061Y-74474680D02*
X78117061Y-73474680D01*
X78021823Y-73617538D01*
X77926585Y-73712776D01*
X77831347Y-73760395D01*
X78783728Y-73569919D02*
X78831347Y-73522300D01*
X78926585Y-73474680D01*
X79164680Y-73474680D01*
X79259919Y-73522300D01*
X79307538Y-73569919D01*
X79355157Y-73665157D01*
X79355157Y-73760395D01*
X79307538Y-73903252D01*
X78736109Y-74474680D01*
X79355157Y-74474680D01*
X72152180Y-79537895D02*
X71152180Y-79537895D01*
X71152180Y-79299800D01*
X71199800Y-79156942D01*
X71295038Y-79061704D01*
X71390276Y-79014085D01*
X71580752Y-78966466D01*
X71723609Y-78966466D01*
X71914085Y-79014085D01*
X72009323Y-79061704D01*
X72104561Y-79156942D01*
X72152180Y-79299800D01*
X72152180Y-79537895D01*
X71580752Y-78395038D02*
X71533133Y-78490276D01*
X71485514Y-78537895D01*
X71390276Y-78585514D01*
X71342657Y-78585514D01*
X71247419Y-78537895D01*
X71199800Y-78490276D01*
X71152180Y-78395038D01*
X71152180Y-78204561D01*
X71199800Y-78109323D01*
X71247419Y-78061704D01*
X71342657Y-78014085D01*
X71390276Y-78014085D01*
X71485514Y-78061704D01*
X71533133Y-78109323D01*
X71580752Y-78204561D01*
X71580752Y-78395038D01*
X71628371Y-78490276D01*
X71675990Y-78537895D01*
X71771228Y-78585514D01*
X71961704Y-78585514D01*
X72056942Y-78537895D01*
X72104561Y-78490276D01*
X72152180Y-78395038D01*
X72152180Y-78204561D01*
X72104561Y-78109323D01*
X72056942Y-78061704D01*
X71961704Y-78014085D01*
X71771228Y-78014085D01*
X71675990Y-78061704D01*
X71628371Y-78109323D01*
X71580752Y-78204561D01*
X70513245Y-68782768D02*
X70465626Y-68878006D01*
X70370387Y-68973244D01*
X70227530Y-69116101D01*
X70179911Y-69211339D01*
X70179911Y-69306577D01*
X70418006Y-69258958D02*
X70370387Y-69354196D01*
X70275149Y-69449434D01*
X70084673Y-69497053D01*
X69751340Y-69497053D01*
X69560864Y-69449434D01*
X69465626Y-69354196D01*
X69418006Y-69258958D01*
X69418006Y-69068482D01*
X69465626Y-68973244D01*
X69560864Y-68878006D01*
X69751340Y-68830387D01*
X70084673Y-68830387D01*
X70275149Y-68878006D01*
X70370387Y-68973244D01*
X70418006Y-69068482D01*
X70418006Y-69258958D01*
X69513245Y-68449434D02*
X69465626Y-68401815D01*
X69418006Y-68306577D01*
X69418006Y-68068482D01*
X69465626Y-67973244D01*
X69513245Y-67925625D01*
X69608483Y-67878006D01*
X69703721Y-67878006D01*
X69846578Y-67925625D01*
X70418006Y-68497053D01*
X70418006Y-67878006D01*
X49816895Y-90792180D02*
X49816895Y-91601704D01*
X49864514Y-91696942D01*
X49912133Y-91744561D01*
X50007371Y-91792180D01*
X50197847Y-91792180D01*
X50293085Y-91744561D01*
X50340704Y-91696942D01*
X50388323Y-91601704D01*
X50388323Y-90792180D01*
X50769276Y-90792180D02*
X51435942Y-90792180D01*
X51007371Y-91792180D01*
X52052000Y-85591180D02*
X52052000Y-85829276D01*
X51813904Y-85734038D02*
X52052000Y-85829276D01*
X52290095Y-85734038D01*
X51909142Y-86019752D02*
X52052000Y-85829276D01*
X52194857Y-86019752D01*
X52052000Y-85591180D02*
X52052000Y-85829276D01*
X51813904Y-85734038D02*
X52052000Y-85829276D01*
X52290095Y-85734038D01*
X51909142Y-86019752D02*
X52052000Y-85829276D01*
X52194857Y-86019752D01*
X65443180Y-89686205D02*
X66252704Y-89686205D01*
X66347942Y-89638586D01*
X66395561Y-89590967D01*
X66443180Y-89495729D01*
X66443180Y-89305253D01*
X66395561Y-89210015D01*
X66347942Y-89162396D01*
X66252704Y-89114777D01*
X65443180Y-89114777D01*
X65871752Y-88495729D02*
X65824133Y-88590967D01*
X65776514Y-88638586D01*
X65681276Y-88686205D01*
X65633657Y-88686205D01*
X65538419Y-88638586D01*
X65490800Y-88590967D01*
X65443180Y-88495729D01*
X65443180Y-88305253D01*
X65490800Y-88210015D01*
X65538419Y-88162396D01*
X65633657Y-88114777D01*
X65681276Y-88114777D01*
X65776514Y-88162396D01*
X65824133Y-88210015D01*
X65871752Y-88305253D01*
X65871752Y-88495729D01*
X65919371Y-88590967D01*
X65966990Y-88638586D01*
X66062228Y-88686205D01*
X66252704Y-88686205D01*
X66347942Y-88638586D01*
X66395561Y-88590967D01*
X66443180Y-88495729D01*
X66443180Y-88305253D01*
X66395561Y-88210015D01*
X66347942Y-88162396D01*
X66252704Y-88114777D01*
X66062228Y-88114777D01*
X65966990Y-88162396D01*
X65919371Y-88210015D01*
X65871752Y-88305253D01*
X61545800Y-85591180D02*
X61545800Y-85829276D01*
X61307704Y-85734038D02*
X61545800Y-85829276D01*
X61783895Y-85734038D01*
X61402942Y-86019752D02*
X61545800Y-85829276D01*
X61688657Y-86019752D01*
X61545800Y-85591180D02*
X61545800Y-85829276D01*
X61307704Y-85734038D02*
X61545800Y-85829276D01*
X61783895Y-85734038D01*
X61402942Y-86019752D02*
X61545800Y-85829276D01*
X61688657Y-86019752D01*
X73037895Y-90958179D02*
X73037895Y-91767703D01*
X73085514Y-91862941D01*
X73133133Y-91910560D01*
X73228371Y-91958179D01*
X73418847Y-91958179D01*
X73514085Y-91910560D01*
X73561704Y-91862941D01*
X73609323Y-91767703D01*
X73609323Y-90958179D01*
X74133133Y-91958179D02*
X74323609Y-91958179D01*
X74418847Y-91910560D01*
X74466466Y-91862941D01*
X74561704Y-91720084D01*
X74609323Y-91529608D01*
X74609323Y-91148656D01*
X74561704Y-91053418D01*
X74514085Y-91005799D01*
X74418847Y-90958179D01*
X74228371Y-90958179D01*
X74133133Y-91005799D01*
X74085514Y-91053418D01*
X74037895Y-91148656D01*
X74037895Y-91386751D01*
X74085514Y-91481989D01*
X74133133Y-91529608D01*
X74228371Y-91577227D01*
X74418847Y-91577227D01*
X74514085Y-91529608D01*
X74561704Y-91481989D01*
X74609323Y-91386751D01*
X72352000Y-85691180D02*
X72352000Y-85929276D01*
X72113904Y-85834038D02*
X72352000Y-85929276D01*
X72590095Y-85834038D01*
X72209142Y-86119752D02*
X72352000Y-85929276D01*
X72494857Y-86119752D01*
X72352000Y-85691180D02*
X72352000Y-85929276D01*
X72113904Y-85834038D02*
X72352000Y-85929276D01*
X72590095Y-85834038D01*
X72209142Y-86119752D02*
X72352000Y-85929276D01*
X72494857Y-86119752D01*
X147636466Y-108316180D02*
X147636466Y-109030466D01*
X147588847Y-109173323D01*
X147493609Y-109268561D01*
X147350752Y-109316180D01*
X147255514Y-109316180D01*
X148017419Y-108316180D02*
X148684085Y-108316180D01*
X148255514Y-109316180D01*
X137616180Y-104063133D02*
X138330466Y-104063133D01*
X138473323Y-104110752D01*
X138568561Y-104205990D01*
X138616180Y-104348847D01*
X138616180Y-104444085D01*
X138044752Y-103444085D02*
X137997133Y-103539323D01*
X137949514Y-103586942D01*
X137854276Y-103634561D01*
X137806657Y-103634561D01*
X137711419Y-103586942D01*
X137663800Y-103539323D01*
X137616180Y-103444085D01*
X137616180Y-103253609D01*
X137663800Y-103158371D01*
X137711419Y-103110752D01*
X137806657Y-103063133D01*
X137854276Y-103063133D01*
X137949514Y-103110752D01*
X137997133Y-103158371D01*
X138044752Y-103253609D01*
X138044752Y-103444085D01*
X138092371Y-103539323D01*
X138139990Y-103586942D01*
X138235228Y-103634561D01*
X138425704Y-103634561D01*
X138520942Y-103586942D01*
X138568561Y-103539323D01*
X138616180Y-103444085D01*
X138616180Y-103253609D01*
X138568561Y-103158371D01*
X138520942Y-103110752D01*
X138425704Y-103063133D01*
X138235228Y-103063133D01*
X138139990Y-103110752D01*
X138092371Y-103158371D01*
X138044752Y-103253609D01*
X87162619Y-68418842D02*
X87638809Y-68085509D01*
X87162619Y-67847414D02*
X88162619Y-67847414D01*
X88162619Y-68228366D01*
X88115000Y-68323604D01*
X88067380Y-68371223D01*
X87972142Y-68418842D01*
X87829285Y-68418842D01*
X87734047Y-68371223D01*
X87686428Y-68323604D01*
X87638809Y-68228366D01*
X87638809Y-67847414D01*
X87829285Y-69275985D02*
X87162619Y-69275985D01*
X88210238Y-69037890D02*
X87495952Y-68799795D01*
X87495952Y-69418842D01*
X88162619Y-70275985D02*
X88162619Y-69799795D01*
X87686428Y-69752176D01*
X87734047Y-69799795D01*
X87781666Y-69895033D01*
X87781666Y-70133128D01*
X87734047Y-70228366D01*
X87686428Y-70275985D01*
X87591190Y-70323604D01*
X87353095Y-70323604D01*
X87257857Y-70275985D01*
X87210238Y-70228366D01*
X87162619Y-70133128D01*
X87162619Y-69895033D01*
X87210238Y-69799795D01*
X87257857Y-69752176D01*
X98357919Y-68402942D02*
X98834109Y-68069609D01*
X98357919Y-67831514D02*
X99357919Y-67831514D01*
X99357919Y-68212466D01*
X99310300Y-68307704D01*
X99262680Y-68355323D01*
X99167442Y-68402942D01*
X99024585Y-68402942D01*
X98929347Y-68355323D01*
X98881728Y-68307704D01*
X98834109Y-68212466D01*
X98834109Y-67831514D01*
X99024585Y-69260085D02*
X98357919Y-69260085D01*
X99405538Y-69021990D02*
X98691252Y-68783895D01*
X98691252Y-69402942D01*
X99357919Y-70212466D02*
X99357919Y-70021990D01*
X99310300Y-69926752D01*
X99262680Y-69879133D01*
X99119823Y-69783895D01*
X98929347Y-69736276D01*
X98548395Y-69736276D01*
X98453157Y-69783895D01*
X98405538Y-69831514D01*
X98357919Y-69926752D01*
X98357919Y-70117228D01*
X98405538Y-70212466D01*
X98453157Y-70260085D01*
X98548395Y-70307704D01*
X98786490Y-70307704D01*
X98881728Y-70260085D01*
X98929347Y-70212466D01*
X98976966Y-70117228D01*
X98976966Y-69926752D01*
X98929347Y-69831514D01*
X98881728Y-69783895D01*
X98786490Y-69736276D01*
X78567419Y-84216704D02*
X77757895Y-84216704D01*
X77662657Y-84264323D01*
X77615038Y-84311942D01*
X77567419Y-84407180D01*
X77567419Y-84597657D01*
X77615038Y-84692895D01*
X77662657Y-84740514D01*
X77757895Y-84788133D01*
X78567419Y-84788133D01*
X77567419Y-85788133D02*
X77567419Y-85216704D01*
X77567419Y-85502419D02*
X78567419Y-85502419D01*
X78424561Y-85407180D01*
X78329323Y-85311942D01*
X78281704Y-85216704D01*
X78567419Y-86692895D02*
X78567419Y-86216704D01*
X78091228Y-86169085D01*
X78138847Y-86216704D01*
X78186466Y-86311942D01*
X78186466Y-86550038D01*
X78138847Y-86645276D01*
X78091228Y-86692895D01*
X77995990Y-86740514D01*
X77757895Y-86740514D01*
X77662657Y-86692895D01*
X77615038Y-86645276D01*
X77567419Y-86550038D01*
X77567419Y-86311942D01*
X77615038Y-86216704D01*
X77662657Y-86169085D01*
X68172180Y-84987895D02*
X68981704Y-84987895D01*
X69076942Y-84940276D01*
X69124561Y-84892657D01*
X69172180Y-84797419D01*
X69172180Y-84606942D01*
X69124561Y-84511704D01*
X69076942Y-84464085D01*
X68981704Y-84416466D01*
X68172180Y-84416466D01*
X69172180Y-83416466D02*
X69172180Y-83987895D01*
X69172180Y-83702180D02*
X68172180Y-83702180D01*
X68315038Y-83797419D01*
X68410276Y-83892657D01*
X68457895Y-83987895D01*
X68267419Y-83035514D02*
X68219800Y-82987895D01*
X68172180Y-82892657D01*
X68172180Y-82654561D01*
X68219800Y-82559323D01*
X68267419Y-82511704D01*
X68362657Y-82464085D01*
X68457895Y-82464085D01*
X68600752Y-82511704D01*
X69172180Y-83083133D01*
X69172180Y-82464085D01*
X59067419Y-82812895D02*
X58257895Y-82812895D01*
X58162657Y-82860514D01*
X58115038Y-82908133D01*
X58067419Y-83003371D01*
X58067419Y-83193847D01*
X58115038Y-83289085D01*
X58162657Y-83336704D01*
X58257895Y-83384323D01*
X59067419Y-83384323D01*
X59067419Y-83765276D02*
X59067419Y-84384323D01*
X58686466Y-84050990D01*
X58686466Y-84193847D01*
X58638847Y-84289085D01*
X58591228Y-84336704D01*
X58495990Y-84384323D01*
X58257895Y-84384323D01*
X58162657Y-84336704D01*
X58115038Y-84289085D01*
X58067419Y-84193847D01*
X58067419Y-83908133D01*
X58115038Y-83812895D01*
X58162657Y-83765276D01*
X62852180Y-80114085D02*
X61852180Y-80114085D01*
X61852180Y-79875990D01*
X61899800Y-79733133D01*
X61995038Y-79637895D01*
X62090276Y-79590276D01*
X62280752Y-79542657D01*
X62423609Y-79542657D01*
X62614085Y-79590276D01*
X62709323Y-79637895D01*
X62804561Y-79733133D01*
X62852180Y-79875990D01*
X62852180Y-80114085D01*
X62852180Y-78590276D02*
X62852180Y-79161704D01*
X62852180Y-78875990D02*
X61852180Y-78875990D01*
X61995038Y-78971228D01*
X62090276Y-79066466D01*
X62137895Y-79161704D01*
X61852180Y-77971228D02*
X61852180Y-77875990D01*
X61899800Y-77780752D01*
X61947419Y-77733133D01*
X62042657Y-77685514D01*
X62233133Y-77637895D01*
X62471228Y-77637895D01*
X62661704Y-77685514D01*
X62756942Y-77733133D01*
X62804561Y-77780752D01*
X62852180Y-77875990D01*
X62852180Y-77971228D01*
X62804561Y-78066466D01*
X62756942Y-78114085D01*
X62661704Y-78161704D01*
X62471228Y-78209323D01*
X62233133Y-78209323D01*
X62042657Y-78161704D01*
X61947419Y-78114085D01*
X61899800Y-78066466D01*
X61852180Y-77971228D01*
X52752180Y-79737895D02*
X51752180Y-79737895D01*
X51752180Y-79499800D01*
X51799800Y-79356942D01*
X51895038Y-79261704D01*
X51990276Y-79214085D01*
X52180752Y-79166466D01*
X52323609Y-79166466D01*
X52514085Y-79214085D01*
X52609323Y-79261704D01*
X52704561Y-79356942D01*
X52752180Y-79499800D01*
X52752180Y-79737895D01*
X52752180Y-78690276D02*
X52752180Y-78499800D01*
X52704561Y-78404561D01*
X52656942Y-78356942D01*
X52514085Y-78261704D01*
X52323609Y-78214085D01*
X51942657Y-78214085D01*
X51847419Y-78261704D01*
X51799800Y-78309323D01*
X51752180Y-78404561D01*
X51752180Y-78595038D01*
X51799800Y-78690276D01*
X51847419Y-78737895D01*
X51942657Y-78785514D01*
X52180752Y-78785514D01*
X52275990Y-78737895D01*
X52323609Y-78690276D01*
X52371228Y-78595038D01*
X52371228Y-78404561D01*
X52323609Y-78309323D01*
X52275990Y-78261704D01*
X52180752Y-78214085D01*
X111429319Y-65975638D02*
X111381700Y-66070876D01*
X111286461Y-66166114D01*
X111143604Y-66308971D01*
X111095985Y-66404209D01*
X111095985Y-66499447D01*
X111334080Y-66451828D02*
X111286461Y-66547066D01*
X111191223Y-66642304D01*
X111000747Y-66689923D01*
X110667414Y-66689923D01*
X110476938Y-66642304D01*
X110381700Y-66547066D01*
X110334080Y-66451828D01*
X110334080Y-66261352D01*
X110381700Y-66166114D01*
X110476938Y-66070876D01*
X110667414Y-66023257D01*
X111000747Y-66023257D01*
X111191223Y-66070876D01*
X111286461Y-66166114D01*
X111334080Y-66261352D01*
X111334080Y-66451828D01*
X110667414Y-65166114D02*
X111334080Y-65166114D01*
X110286461Y-65404209D02*
X111000747Y-65642304D01*
X111000747Y-65023257D01*
X70683593Y-56962808D02*
X70635974Y-57058046D01*
X70540735Y-57153284D01*
X70397878Y-57296141D01*
X70350259Y-57391379D01*
X70350259Y-57486617D01*
X70588354Y-57438998D02*
X70540735Y-57534236D01*
X70445497Y-57629474D01*
X70255021Y-57677093D01*
X69921688Y-57677093D01*
X69731212Y-57629474D01*
X69635974Y-57534236D01*
X69588354Y-57438998D01*
X69588354Y-57248522D01*
X69635974Y-57153284D01*
X69731212Y-57058046D01*
X69921688Y-57010427D01*
X70255021Y-57010427D01*
X70445497Y-57058046D01*
X70540735Y-57153284D01*
X70588354Y-57248522D01*
X70588354Y-57438998D01*
X70588354Y-56058046D02*
X70588354Y-56629474D01*
X70588354Y-56343760D02*
X69588354Y-56343760D01*
X69731212Y-56438998D01*
X69826450Y-56534236D01*
X69874069Y-56629474D01*
X111389719Y-59144438D02*
X111342100Y-59239676D01*
X111246861Y-59334914D01*
X111104004Y-59477771D01*
X111056385Y-59573009D01*
X111056385Y-59668247D01*
X111294480Y-59620628D02*
X111246861Y-59715866D01*
X111151623Y-59811104D01*
X110961147Y-59858723D01*
X110627814Y-59858723D01*
X110437338Y-59811104D01*
X110342100Y-59715866D01*
X110294480Y-59620628D01*
X110294480Y-59430152D01*
X110342100Y-59334914D01*
X110437338Y-59239676D01*
X110627814Y-59192057D01*
X110961147Y-59192057D01*
X111151623Y-59239676D01*
X111246861Y-59334914D01*
X111294480Y-59430152D01*
X111294480Y-59620628D01*
X110294480Y-58858723D02*
X110294480Y-58239676D01*
X110675433Y-58573009D01*
X110675433Y-58430152D01*
X110723052Y-58334914D01*
X110770671Y-58287295D01*
X110865909Y-58239676D01*
X111104004Y-58239676D01*
X111199242Y-58287295D01*
X111246861Y-58334914D01*
X111294480Y-58430152D01*
X111294480Y-58715866D01*
X111246861Y-58811104D01*
X111199242Y-58858723D01*
X91103219Y-58792038D02*
X91055600Y-58887276D01*
X90960361Y-58982514D01*
X90817504Y-59125371D01*
X90769885Y-59220609D01*
X90769885Y-59315847D01*
X91007980Y-59268228D02*
X90960361Y-59363466D01*
X90865123Y-59458704D01*
X90674647Y-59506323D01*
X90341314Y-59506323D01*
X90150838Y-59458704D01*
X90055600Y-59363466D01*
X90007980Y-59268228D01*
X90007980Y-59077752D01*
X90055600Y-58982514D01*
X90150838Y-58887276D01*
X90341314Y-58839657D01*
X90674647Y-58839657D01*
X90865123Y-58887276D01*
X90960361Y-58982514D01*
X91007980Y-59077752D01*
X91007980Y-59268228D01*
X90007980Y-57934895D02*
X90007980Y-58411085D01*
X90484171Y-58458704D01*
X90436552Y-58411085D01*
X90388933Y-58315847D01*
X90388933Y-58077752D01*
X90436552Y-57982514D01*
X90484171Y-57934895D01*
X90579409Y-57887276D01*
X90817504Y-57887276D01*
X90912742Y-57934895D01*
X90960361Y-57982514D01*
X91007980Y-58077752D01*
X91007980Y-58315847D01*
X90960361Y-58411085D01*
X90912742Y-58458704D01*
X90366619Y-67388538D02*
X90319000Y-67483776D01*
X90223761Y-67579014D01*
X90080904Y-67721871D01*
X90033285Y-67817109D01*
X90033285Y-67912347D01*
X90271380Y-67864728D02*
X90223761Y-67959966D01*
X90128523Y-68055204D01*
X89938047Y-68102823D01*
X89604714Y-68102823D01*
X89414238Y-68055204D01*
X89319000Y-67959966D01*
X89271380Y-67864728D01*
X89271380Y-67674252D01*
X89319000Y-67579014D01*
X89414238Y-67483776D01*
X89604714Y-67436157D01*
X89938047Y-67436157D01*
X90128523Y-67483776D01*
X90223761Y-67579014D01*
X90271380Y-67674252D01*
X90271380Y-67864728D01*
X89271380Y-66579014D02*
X89271380Y-66769490D01*
X89319000Y-66864728D01*
X89366619Y-66912347D01*
X89509476Y-67007585D01*
X89699952Y-67055204D01*
X90080904Y-67055204D01*
X90176142Y-67007585D01*
X90223761Y-66959966D01*
X90271380Y-66864728D01*
X90271380Y-66674252D01*
X90223761Y-66579014D01*
X90176142Y-66531395D01*
X90080904Y-66483776D01*
X89842809Y-66483776D01*
X89747571Y-66531395D01*
X89699952Y-66579014D01*
X89652333Y-66674252D01*
X89652333Y-66864728D01*
X89699952Y-66959966D01*
X89747571Y-67007585D01*
X89842809Y-67055204D01*
X52601590Y-108625990D02*
X53077780Y-108625990D01*
X52077780Y-108959323D02*
X52601590Y-108625990D01*
X52077780Y-108292657D01*
X53077780Y-107435514D02*
X53077780Y-108006942D01*
X53077780Y-107721228D02*
X52077780Y-107721228D01*
X52220638Y-107816466D01*
X52315876Y-107911704D01*
X52363495Y-108006942D01*
X63309695Y-103233580D02*
X63309695Y-104043104D01*
X63357314Y-104138342D01*
X63404933Y-104185961D01*
X63500171Y-104233580D01*
X63690647Y-104233580D01*
X63785885Y-104185961D01*
X63833504Y-104138342D01*
X63881123Y-104043104D01*
X63881123Y-103233580D01*
X64881123Y-104233580D02*
X64309695Y-104233580D01*
X64595409Y-104233580D02*
X64595409Y-103233580D01*
X64500171Y-103376438D01*
X64404933Y-103471676D01*
X64309695Y-103519295D01*
X91733133Y-127152180D02*
X91256942Y-127152180D01*
X91256942Y-126152180D01*
X92018847Y-126247419D02*
X92066466Y-126199800D01*
X92161704Y-126152180D01*
X92399800Y-126152180D01*
X92495038Y-126199800D01*
X92542657Y-126247419D01*
X92590276Y-126342657D01*
X92590276Y-126437895D01*
X92542657Y-126580752D01*
X91971228Y-127152180D01*
X92590276Y-127152180D01*
X96661704Y-127752180D02*
X96661704Y-126752180D01*
X96899800Y-126752180D01*
X97042657Y-126799800D01*
X97137895Y-126895038D01*
X97185514Y-126990276D01*
X97233133Y-127180752D01*
X97233133Y-127323609D01*
X97185514Y-127514085D01*
X97137895Y-127609323D01*
X97042657Y-127704561D01*
X96899800Y-127752180D01*
X96661704Y-127752180D01*
X98137895Y-126752180D02*
X97661704Y-126752180D01*
X97614085Y-127228371D01*
X97661704Y-127180752D01*
X97756942Y-127133133D01*
X97995038Y-127133133D01*
X98090276Y-127180752D01*
X98137895Y-127228371D01*
X98185514Y-127323609D01*
X98185514Y-127561704D01*
X98137895Y-127656942D01*
X98090276Y-127704561D01*
X97995038Y-127752180D01*
X97756942Y-127752180D01*
X97661704Y-127704561D01*
X97614085Y-127656942D01*
X94381704Y-142782180D02*
X94381704Y-143591704D01*
X94429323Y-143686942D01*
X94476942Y-143734561D01*
X94572180Y-143782180D01*
X94762657Y-143782180D01*
X94857895Y-143734561D01*
X94905514Y-143686942D01*
X94953133Y-143591704D01*
X94953133Y-142782180D01*
X95953133Y-143782180D02*
X95381704Y-143782180D01*
X95667419Y-143782180D02*
X95667419Y-142782180D01*
X95572180Y-142925038D01*
X95476942Y-143020276D01*
X95381704Y-143067895D01*
X96810276Y-143115514D02*
X96810276Y-143782180D01*
X96572180Y-142734561D02*
X96334085Y-143448847D01*
X96953133Y-143448847D01*
X114821704Y-143502180D02*
X114821704Y-144311704D01*
X114869323Y-144406942D01*
X114916942Y-144454561D01*
X115012180Y-144502180D01*
X115202657Y-144502180D01*
X115297895Y-144454561D01*
X115345514Y-144406942D01*
X115393133Y-144311704D01*
X115393133Y-143502180D01*
X116393133Y-144502180D02*
X115821704Y-144502180D01*
X116107419Y-144502180D02*
X116107419Y-143502180D01*
X116012180Y-143645038D01*
X115916942Y-143740276D01*
X115821704Y-143787895D01*
X117012180Y-143502180D02*
X117107419Y-143502180D01*
X117202657Y-143549800D01*
X117250276Y-143597419D01*
X117297895Y-143692657D01*
X117345514Y-143883133D01*
X117345514Y-144121228D01*
X117297895Y-144311704D01*
X117250276Y-144406942D01*
X117202657Y-144454561D01*
X117107419Y-144502180D01*
X117012180Y-144502180D01*
X116916942Y-144454561D01*
X116869323Y-144406942D01*
X116821704Y-144311704D01*
X116774085Y-144121228D01*
X116774085Y-143883133D01*
X116821704Y-143692657D01*
X116869323Y-143597419D01*
X116916942Y-143549800D01*
X117012180Y-143502180D01*
X116181704Y-151692180D02*
X116181704Y-150692180D01*
X116419800Y-150692180D01*
X116562657Y-150739800D01*
X116657895Y-150835038D01*
X116705514Y-150930276D01*
X116753133Y-151120752D01*
X116753133Y-151263609D01*
X116705514Y-151454085D01*
X116657895Y-151549323D01*
X116562657Y-151644561D01*
X116419800Y-151692180D01*
X116181704Y-151692180D01*
X117610276Y-150692180D02*
X117419800Y-150692180D01*
X117324561Y-150739800D01*
X117276942Y-150787419D01*
X117181704Y-150930276D01*
X117134085Y-151120752D01*
X117134085Y-151501704D01*
X117181704Y-151596942D01*
X117229323Y-151644561D01*
X117324561Y-151692180D01*
X117515038Y-151692180D01*
X117610276Y-151644561D01*
X117657895Y-151596942D01*
X117705514Y-151501704D01*
X117705514Y-151263609D01*
X117657895Y-151168371D01*
X117610276Y-151120752D01*
X117515038Y-151073133D01*
X117324561Y-151073133D01*
X117229323Y-151120752D01*
X117181704Y-151168371D01*
X117134085Y-151263609D01*
X104238466Y-148220180D02*
X104238466Y-148934466D01*
X104190847Y-149077323D01*
X104095609Y-149172561D01*
X103952752Y-149220180D01*
X103857514Y-149220180D01*
X105190847Y-148220180D02*
X104714657Y-148220180D01*
X104667038Y-148696371D01*
X104714657Y-148648752D01*
X104809895Y-148601133D01*
X105047990Y-148601133D01*
X105143228Y-148648752D01*
X105190847Y-148696371D01*
X105238466Y-148791609D01*
X105238466Y-149029704D01*
X105190847Y-149124942D01*
X105143228Y-149172561D01*
X105047990Y-149220180D01*
X104809895Y-149220180D01*
X104714657Y-149172561D01*
X104667038Y-149124942D01*
X85671880Y-151437187D02*
X85404304Y-152099461D01*
X85306637Y-152214078D01*
X85182657Y-152266704D01*
X85032364Y-152257340D01*
X84944060Y-152221664D01*
X86224457Y-152738978D02*
X85694638Y-152524917D01*
X85959548Y-152631947D02*
X86334154Y-151704763D01*
X86192336Y-151801541D01*
X86068356Y-151854168D01*
X85962214Y-151862642D01*
X96464623Y-147916617D02*
X96340589Y-148620051D01*
X96268886Y-148752469D01*
X96158557Y-148829723D01*
X96009601Y-148851811D01*
X95915810Y-148835273D01*
X96870146Y-148084829D02*
X96925310Y-148046203D01*
X97027371Y-148015845D01*
X97261849Y-148057190D01*
X97347371Y-148120623D01*
X97385998Y-148175788D01*
X97416355Y-148277848D01*
X97399817Y-148371639D01*
X97328115Y-148504057D01*
X96666140Y-148967577D01*
X97275783Y-149075073D01*
X69373048Y-144663226D02*
X68963351Y-145248335D01*
X68842404Y-145338043D01*
X68709763Y-145361431D01*
X68565428Y-145318499D01*
X68487414Y-145263873D01*
X69685106Y-144881731D02*
X70192200Y-145236803D01*
X69700644Y-145357668D01*
X69817666Y-145439608D01*
X69868367Y-145533241D01*
X69880061Y-145599562D01*
X69864442Y-145704889D01*
X69727876Y-145899926D01*
X69634243Y-145950627D01*
X69567922Y-145962321D01*
X69462595Y-145946702D01*
X69228551Y-145782823D01*
X69177850Y-145689189D01*
X69166156Y-145622869D01*
X120261704Y-131772180D02*
X120261704Y-130772180D01*
X120499800Y-130772180D01*
X120642657Y-130819800D01*
X120737895Y-130915038D01*
X120785514Y-131010276D01*
X120833133Y-131200752D01*
X120833133Y-131343609D01*
X120785514Y-131534085D01*
X120737895Y-131629323D01*
X120642657Y-131724561D01*
X120499800Y-131772180D01*
X120261704Y-131772180D01*
X121690276Y-131105514D02*
X121690276Y-131772180D01*
X121452180Y-130724561D02*
X121214085Y-131438847D01*
X121833133Y-131438847D01*
X112243133Y-125312180D02*
X111766942Y-125312180D01*
X111766942Y-124312180D01*
X113100276Y-125312180D02*
X112528847Y-125312180D01*
X112814561Y-125312180D02*
X112814561Y-124312180D01*
X112719323Y-124455038D01*
X112624085Y-124550276D01*
X112528847Y-124597895D01*
X53437895Y-101880380D02*
X53437895Y-102689904D01*
X53485514Y-102785142D01*
X53533133Y-102832761D01*
X53628371Y-102880380D01*
X53818847Y-102880380D01*
X53914085Y-102832761D01*
X53961704Y-102785142D01*
X54009323Y-102689904D01*
X54009323Y-101880380D01*
X54437895Y-101975619D02*
X54485514Y-101928000D01*
X54580752Y-101880380D01*
X54818847Y-101880380D01*
X54914085Y-101928000D01*
X54961704Y-101975619D01*
X55009323Y-102070857D01*
X55009323Y-102166095D01*
X54961704Y-102308952D01*
X54390276Y-102880380D01*
X55009323Y-102880380D01*
X72783704Y-102140380D02*
X72783704Y-102949904D01*
X72831323Y-103045142D01*
X72878942Y-103092761D01*
X72974180Y-103140380D01*
X73164657Y-103140380D01*
X73259895Y-103092761D01*
X73307514Y-103045142D01*
X73355133Y-102949904D01*
X73355133Y-102140380D01*
X74355133Y-103140380D02*
X73783704Y-103140380D01*
X74069419Y-103140380D02*
X74069419Y-102140380D01*
X73974180Y-102283238D01*
X73878942Y-102378476D01*
X73783704Y-102426095D01*
X74688466Y-102140380D02*
X75307514Y-102140380D01*
X74974180Y-102521333D01*
X75117038Y-102521333D01*
X75212276Y-102568952D01*
X75259895Y-102616571D01*
X75307514Y-102711809D01*
X75307514Y-102949904D01*
X75259895Y-103045142D01*
X75212276Y-103092761D01*
X75117038Y-103140380D01*
X74831323Y-103140380D01*
X74736085Y-103092761D01*
X74688466Y-103045142D01*
X56977934Y-129484417D02*
X57455884Y-130015235D01*
X57516087Y-130153261D01*
X57509038Y-130287764D01*
X57434737Y-130418742D01*
X57363962Y-130482468D01*
X57650303Y-128879013D02*
X57508752Y-129006466D01*
X57469839Y-129105581D01*
X57466315Y-129172832D01*
X57491129Y-129342722D01*
X57583195Y-129516137D01*
X57838102Y-129799240D01*
X57937216Y-129838152D01*
X58004467Y-129841677D01*
X58107107Y-129813338D01*
X58248658Y-129685884D01*
X58287570Y-129586770D01*
X58291095Y-129519519D01*
X58262756Y-129416880D01*
X58103439Y-129239940D01*
X58004324Y-129201028D01*
X57937073Y-129197504D01*
X57834434Y-129225842D01*
X57692883Y-129353296D01*
X57653970Y-129452410D01*
X57650446Y-129519662D01*
X57678785Y-129622301D01*
M02*
