%TF.GenerationSoftware,KiCad,Pcbnew,5.0.2-bee76a0~70~ubuntu18.04.1*%
%TF.CreationDate,2020-02-12T14:16:48+01:00*%
%TF.ProjectId,gsvesc,67737665-7363-42e6-9b69-6361645f7063,rev?*%
%TF.SameCoordinates,Original*%
%TF.FileFunction,Legend,Top*%
%TF.FilePolarity,Positive*%
%FSLAX45Y45*%
G04 Gerber Fmt 4.5, Leading zero omitted, Abs format (unit mm)*
G04 Created by KiCad (PCBNEW 5.0.2-bee76a0~70~ubuntu18.04.1) date Mi 12 Feb 2020 14:16:48 CET*
%MOMM*%
%LPD*%
G01*
G04 APERTURE LIST*
%ADD10C,0.150000*%
%ADD11C,0.200000*%
%ADD12C,0.127000*%
%ADD13C,0.120000*%
%ADD14C,0.152400*%
G04 APERTURE END LIST*
D10*
X7730680Y-5305337D02*
X7730680Y-5155337D01*
X7787823Y-5155337D01*
X7802108Y-5162480D01*
X7809251Y-5169623D01*
X7816394Y-5183909D01*
X7816394Y-5205337D01*
X7809251Y-5219623D01*
X7802108Y-5226766D01*
X7787823Y-5233909D01*
X7730680Y-5233909D01*
X7880680Y-5305337D02*
X7880680Y-5155337D01*
X7880680Y-5226766D02*
X7966394Y-5226766D01*
X7966394Y-5305337D02*
X7966394Y-5155337D01*
X8202108Y-5226766D02*
X8223537Y-5233909D01*
X8230680Y-5241051D01*
X8237823Y-5255337D01*
X8237823Y-5276766D01*
X8230680Y-5291051D01*
X8223537Y-5298194D01*
X8209251Y-5305337D01*
X8152108Y-5305337D01*
X8152108Y-5155337D01*
X8202108Y-5155337D01*
X8216394Y-5162480D01*
X8223537Y-5169623D01*
X8230680Y-5183909D01*
X8230680Y-5198194D01*
X8223537Y-5212480D01*
X8216394Y-5219623D01*
X8202108Y-5226766D01*
X8152108Y-5226766D01*
D11*
X12450000Y-10000000D02*
G75*
G03X12450000Y-10000000I-2450000J0D01*
G01*
X15550000Y-10000000D02*
G75*
G03X15550000Y-10000000I-5550000J0D01*
G01*
X12946380Y-5300980D02*
X12959080Y-5313680D01*
D10*
X10423080Y-5203737D02*
X10423080Y-5053737D01*
X10480223Y-5053737D01*
X10494509Y-5060880D01*
X10501651Y-5068023D01*
X10508794Y-5082309D01*
X10508794Y-5103737D01*
X10501651Y-5118023D01*
X10494509Y-5125166D01*
X10480223Y-5132309D01*
X10423080Y-5132309D01*
X10573080Y-5203737D02*
X10573080Y-5053737D01*
X10573080Y-5125166D02*
X10658794Y-5125166D01*
X10658794Y-5203737D02*
X10658794Y-5053737D01*
X10930223Y-5189451D02*
X10923080Y-5196594D01*
X10901651Y-5203737D01*
X10887366Y-5203737D01*
X10865937Y-5196594D01*
X10851651Y-5182309D01*
X10844509Y-5168023D01*
X10837366Y-5139451D01*
X10837366Y-5118023D01*
X10844509Y-5089451D01*
X10851651Y-5075166D01*
X10865937Y-5060880D01*
X10887366Y-5053737D01*
X10901651Y-5053737D01*
X10923080Y-5060880D01*
X10930223Y-5068023D01*
X6204694Y-6156237D02*
X6204694Y-6006237D01*
X6261837Y-6006237D01*
X6276123Y-6013380D01*
X6283266Y-6020523D01*
X6290408Y-6034808D01*
X6290408Y-6056237D01*
X6283266Y-6070523D01*
X6276123Y-6077666D01*
X6261837Y-6084808D01*
X6204694Y-6084808D01*
X6354694Y-6156237D02*
X6354694Y-6006237D01*
X6354694Y-6077666D02*
X6440408Y-6077666D01*
X6440408Y-6156237D02*
X6440408Y-6006237D01*
X6618980Y-6113380D02*
X6690408Y-6113380D01*
X6604694Y-6156237D02*
X6654694Y-6006237D01*
X6704694Y-6156237D01*
X6026094Y-13226187D02*
X6026094Y-13347616D01*
X6033237Y-13361901D01*
X6040380Y-13369044D01*
X6054666Y-13376187D01*
X6083237Y-13376187D01*
X6097523Y-13369044D01*
X6104666Y-13361901D01*
X6111808Y-13347616D01*
X6111808Y-13226187D01*
X6176094Y-13369044D02*
X6197523Y-13376187D01*
X6233237Y-13376187D01*
X6247523Y-13369044D01*
X6254666Y-13361901D01*
X6261808Y-13347616D01*
X6261808Y-13333330D01*
X6254666Y-13319044D01*
X6247523Y-13311901D01*
X6233237Y-13304758D01*
X6204666Y-13297616D01*
X6190380Y-13290473D01*
X6183237Y-13283330D01*
X6176094Y-13269044D01*
X6176094Y-13254758D01*
X6183237Y-13240473D01*
X6190380Y-13233330D01*
X6204666Y-13226187D01*
X6240380Y-13226187D01*
X6261808Y-13233330D01*
X6376094Y-13297616D02*
X6397523Y-13304758D01*
X6404666Y-13311901D01*
X6411808Y-13326187D01*
X6411808Y-13347616D01*
X6404666Y-13361901D01*
X6397523Y-13369044D01*
X6383237Y-13376187D01*
X6326094Y-13376187D01*
X6326094Y-13226187D01*
X6376094Y-13226187D01*
X6390380Y-13233330D01*
X6397523Y-13240473D01*
X6404666Y-13254758D01*
X6404666Y-13269044D01*
X6397523Y-13283330D01*
X6390380Y-13290473D01*
X6376094Y-13297616D01*
X6326094Y-13297616D01*
X10475859Y-12695944D02*
X10497287Y-12703087D01*
X10533001Y-12703087D01*
X10547287Y-12695944D01*
X10554430Y-12688801D01*
X10561573Y-12674516D01*
X10561573Y-12660230D01*
X10554430Y-12645944D01*
X10547287Y-12638801D01*
X10533001Y-12631658D01*
X10504430Y-12624516D01*
X10490144Y-12617373D01*
X10483001Y-12610230D01*
X10475859Y-12595944D01*
X10475859Y-12581658D01*
X10483001Y-12567373D01*
X10490144Y-12560230D01*
X10504430Y-12553087D01*
X10540144Y-12553087D01*
X10561573Y-12560230D01*
X10611573Y-12553087D02*
X10647287Y-12703087D01*
X10675859Y-12595944D01*
X10704430Y-12703087D01*
X10740144Y-12553087D01*
X10797287Y-12703087D02*
X10797287Y-12553087D01*
X10833001Y-12553087D01*
X10854430Y-12560230D01*
X10868716Y-12574516D01*
X10875859Y-12588801D01*
X10883001Y-12617373D01*
X10883001Y-12638801D01*
X10875859Y-12667373D01*
X10868716Y-12681658D01*
X10854430Y-12695944D01*
X10833001Y-12703087D01*
X10797287Y-12703087D01*
X12490008Y-12892794D02*
X12511437Y-12899937D01*
X12547151Y-12899937D01*
X12561437Y-12892794D01*
X12568580Y-12885651D01*
X12575723Y-12871366D01*
X12575723Y-12857080D01*
X12568580Y-12842794D01*
X12561437Y-12835651D01*
X12547151Y-12828508D01*
X12518580Y-12821366D01*
X12504294Y-12814223D01*
X12497151Y-12807080D01*
X12490008Y-12792794D01*
X12490008Y-12778508D01*
X12497151Y-12764223D01*
X12504294Y-12757080D01*
X12518580Y-12749937D01*
X12554294Y-12749937D01*
X12575723Y-12757080D01*
X12697151Y-12892794D02*
X12682866Y-12899937D01*
X12654294Y-12899937D01*
X12640008Y-12892794D01*
X12632866Y-12878508D01*
X12632866Y-12821366D01*
X12640008Y-12807080D01*
X12654294Y-12799937D01*
X12682866Y-12799937D01*
X12697151Y-12807080D01*
X12704294Y-12821366D01*
X12704294Y-12835651D01*
X12632866Y-12849937D01*
X12768580Y-12899937D02*
X12768580Y-12799937D01*
X12768580Y-12828508D02*
X12775723Y-12814223D01*
X12782866Y-12807080D01*
X12797151Y-12799937D01*
X12811437Y-12799937D01*
X12847151Y-12799937D02*
X12882866Y-12899937D01*
X12918580Y-12799937D01*
X12997151Y-12899937D02*
X12982866Y-12892794D01*
X12975723Y-12885651D01*
X12968580Y-12871366D01*
X12968580Y-12828508D01*
X12975723Y-12814223D01*
X12982866Y-12807080D01*
X12997151Y-12799937D01*
X13018580Y-12799937D01*
X13032866Y-12807080D01*
X13040008Y-12814223D01*
X13047151Y-12828508D01*
X13047151Y-12871366D01*
X13040008Y-12885651D01*
X13032866Y-12892794D01*
X13018580Y-12899937D01*
X12997151Y-12899937D01*
X11785151Y-13761951D02*
X11778008Y-13769094D01*
X11756580Y-13776237D01*
X11742294Y-13776237D01*
X11720866Y-13769094D01*
X11706580Y-13754808D01*
X11699437Y-13740523D01*
X11692294Y-13711951D01*
X11692294Y-13690523D01*
X11699437Y-13661951D01*
X11706580Y-13647666D01*
X11720866Y-13633380D01*
X11742294Y-13626237D01*
X11756580Y-13626237D01*
X11778008Y-13633380D01*
X11785151Y-13640523D01*
X11870866Y-13776237D02*
X11856580Y-13769094D01*
X11849437Y-13761951D01*
X11842294Y-13747666D01*
X11842294Y-13704808D01*
X11849437Y-13690523D01*
X11856580Y-13683380D01*
X11870866Y-13676237D01*
X11892294Y-13676237D01*
X11906580Y-13683380D01*
X11913723Y-13690523D01*
X11920866Y-13704808D01*
X11920866Y-13747666D01*
X11913723Y-13761951D01*
X11906580Y-13769094D01*
X11892294Y-13776237D01*
X11870866Y-13776237D01*
X11985151Y-13776237D02*
X11985151Y-13676237D01*
X11985151Y-13690523D02*
X11992294Y-13683380D01*
X12006580Y-13676237D01*
X12028008Y-13676237D01*
X12042294Y-13683380D01*
X12049437Y-13697666D01*
X12049437Y-13776237D01*
X12049437Y-13697666D02*
X12056580Y-13683380D01*
X12070866Y-13676237D01*
X12092294Y-13676237D01*
X12106580Y-13683380D01*
X12113723Y-13697666D01*
X12113723Y-13776237D01*
X12185151Y-13776237D02*
X12185151Y-13676237D01*
X12185151Y-13690523D02*
X12192294Y-13683380D01*
X12206580Y-13676237D01*
X12228008Y-13676237D01*
X12242294Y-13683380D01*
X12249437Y-13697666D01*
X12249437Y-13776237D01*
X12249437Y-13697666D02*
X12256580Y-13683380D01*
X12270866Y-13676237D01*
X12292294Y-13676237D01*
X12306580Y-13683380D01*
X12313723Y-13697666D01*
X12313723Y-13776237D01*
X10624323Y-13947687D02*
X10624323Y-13797687D01*
X10624323Y-13869116D02*
X10710037Y-13869116D01*
X10710037Y-13947687D02*
X10710037Y-13797687D01*
X10845751Y-13947687D02*
X10845751Y-13869116D01*
X10838609Y-13854830D01*
X10824323Y-13847687D01*
X10795751Y-13847687D01*
X10781466Y-13854830D01*
X10845751Y-13940544D02*
X10831466Y-13947687D01*
X10795751Y-13947687D01*
X10781466Y-13940544D01*
X10774323Y-13926258D01*
X10774323Y-13911973D01*
X10781466Y-13897687D01*
X10795751Y-13890544D01*
X10831466Y-13890544D01*
X10845751Y-13883401D01*
X10938609Y-13947687D02*
X10924323Y-13940544D01*
X10917180Y-13926258D01*
X10917180Y-13797687D01*
X11017180Y-13947687D02*
X11002894Y-13940544D01*
X10995751Y-13926258D01*
X10995751Y-13797687D01*
X11181466Y-13790544D02*
X11052894Y-13983401D01*
X11231466Y-13869116D02*
X11281466Y-13869116D01*
X11302894Y-13947687D02*
X11231466Y-13947687D01*
X11231466Y-13797687D01*
X11302894Y-13797687D01*
X11367180Y-13847687D02*
X11367180Y-13947687D01*
X11367180Y-13861973D02*
X11374323Y-13854830D01*
X11388608Y-13847687D01*
X11410037Y-13847687D01*
X11424323Y-13854830D01*
X11431466Y-13869116D01*
X11431466Y-13947687D01*
X11567180Y-13940544D02*
X11552894Y-13947687D01*
X11524323Y-13947687D01*
X11510037Y-13940544D01*
X11502894Y-13933401D01*
X11495751Y-13919116D01*
X11495751Y-13876258D01*
X11502894Y-13861973D01*
X11510037Y-13854830D01*
X11524323Y-13847687D01*
X11552894Y-13847687D01*
X11567180Y-13854830D01*
X8764187Y-14223137D02*
X8849901Y-14223137D01*
X8807044Y-14373137D02*
X8807044Y-14223137D01*
X8899901Y-14373137D02*
X8899901Y-14273137D01*
X8899901Y-14301708D02*
X8907044Y-14287423D01*
X8914187Y-14280280D01*
X8928473Y-14273137D01*
X8942759Y-14273137D01*
X8992759Y-14373137D02*
X8992759Y-14273137D01*
X8992759Y-14223137D02*
X8985616Y-14230280D01*
X8992759Y-14237423D01*
X8999901Y-14230280D01*
X8992759Y-14223137D01*
X8992759Y-14237423D01*
X9128473Y-14273137D02*
X9128473Y-14394566D01*
X9121330Y-14408851D01*
X9114187Y-14415994D01*
X9099901Y-14423137D01*
X9078473Y-14423137D01*
X9064187Y-14415994D01*
X9128473Y-14365994D02*
X9114187Y-14373137D01*
X9085616Y-14373137D01*
X9071330Y-14365994D01*
X9064187Y-14358851D01*
X9057044Y-14344566D01*
X9057044Y-14301708D01*
X9064187Y-14287423D01*
X9071330Y-14280280D01*
X9085616Y-14273137D01*
X9114187Y-14273137D01*
X9128473Y-14280280D01*
X9307044Y-14215994D02*
X9178473Y-14408851D01*
X9349901Y-14365994D02*
X9371330Y-14373137D01*
X9407044Y-14373137D01*
X9421330Y-14365994D01*
X9428473Y-14358851D01*
X9435616Y-14344566D01*
X9435616Y-14330280D01*
X9428473Y-14315994D01*
X9421330Y-14308851D01*
X9407044Y-14301708D01*
X9378473Y-14294566D01*
X9364187Y-14287423D01*
X9357044Y-14280280D01*
X9349901Y-14265994D01*
X9349901Y-14251708D01*
X9357044Y-14237423D01*
X9364187Y-14230280D01*
X9378473Y-14223137D01*
X9414187Y-14223137D01*
X9435616Y-14230280D01*
X9499901Y-14273137D02*
X9499901Y-14423137D01*
X9499901Y-14280280D02*
X9514187Y-14273137D01*
X9542759Y-14273137D01*
X9557044Y-14280280D01*
X9564187Y-14287423D01*
X9571330Y-14301708D01*
X9571330Y-14344566D01*
X9564187Y-14358851D01*
X9557044Y-14365994D01*
X9542759Y-14373137D01*
X9514187Y-14373137D01*
X9499901Y-14365994D01*
X9692759Y-14365994D02*
X9678473Y-14373137D01*
X9649901Y-14373137D01*
X9635616Y-14365994D01*
X9628473Y-14351708D01*
X9628473Y-14294566D01*
X9635616Y-14280280D01*
X9649901Y-14273137D01*
X9678473Y-14273137D01*
X9692759Y-14280280D01*
X9699901Y-14294566D01*
X9699901Y-14308851D01*
X9628473Y-14323137D01*
X9821330Y-14365994D02*
X9807044Y-14373137D01*
X9778473Y-14373137D01*
X9764187Y-14365994D01*
X9757044Y-14351708D01*
X9757044Y-14294566D01*
X9764187Y-14280280D01*
X9778473Y-14273137D01*
X9807044Y-14273137D01*
X9821330Y-14280280D01*
X9828473Y-14294566D01*
X9828473Y-14308851D01*
X9757044Y-14323137D01*
X9957044Y-14373137D02*
X9957044Y-14223137D01*
X9957044Y-14365994D02*
X9942759Y-14373137D01*
X9914187Y-14373137D01*
X9899901Y-14365994D01*
X9892759Y-14358851D01*
X9885616Y-14344566D01*
X9885616Y-14301708D01*
X9892759Y-14287423D01*
X9899901Y-14280280D01*
X9914187Y-14273137D01*
X9942759Y-14273137D01*
X9957044Y-14280280D01*
X11632709Y-12612569D02*
X11616766Y-12613526D01*
X11598208Y-12624241D01*
X11583222Y-12641141D01*
X11577993Y-12660655D01*
X11578950Y-12676599D01*
X11587050Y-12704914D01*
X11597764Y-12723471D01*
X11618235Y-12744643D01*
X11631564Y-12753444D01*
X11651079Y-12758673D01*
X11673208Y-12754144D01*
X11685580Y-12747001D01*
X11700566Y-12730101D01*
X11703180Y-12720344D01*
X11678180Y-12677043D01*
X11653437Y-12691328D01*
X11756239Y-12697958D02*
X11778368Y-12693430D01*
X11809298Y-12675573D01*
X11818098Y-12662244D01*
X11820713Y-12652487D01*
X11819756Y-12636544D01*
X11812613Y-12624172D01*
X11799284Y-12615371D01*
X11789527Y-12612757D01*
X11773583Y-12613714D01*
X11745268Y-12621814D01*
X11729325Y-12622771D01*
X11719568Y-12620156D01*
X11706239Y-12611356D01*
X11699096Y-12598984D01*
X11698139Y-12583041D01*
X11700754Y-12573284D01*
X11709554Y-12559955D01*
X11740484Y-12542098D01*
X11762613Y-12537569D01*
X11796157Y-12509955D02*
X11914458Y-12614859D01*
X11882759Y-12459955D01*
X11961775Y-12496814D02*
X12005076Y-12471814D01*
X12062919Y-12529144D02*
X12001060Y-12564859D01*
X11926060Y-12434955D01*
X11987919Y-12399241D01*
X12108835Y-12494387D02*
X12130964Y-12489859D01*
X12161894Y-12472001D01*
X12170694Y-12458673D01*
X12173309Y-12448915D01*
X12172352Y-12432972D01*
X12165209Y-12420600D01*
X12151880Y-12411800D01*
X12142123Y-12409186D01*
X12126179Y-12410143D01*
X12097864Y-12418242D01*
X12081921Y-12419199D01*
X12072164Y-12416585D01*
X12058835Y-12407784D01*
X12051692Y-12395413D01*
X12050735Y-12379469D01*
X12053350Y-12369712D01*
X12062150Y-12356383D01*
X12093080Y-12338526D01*
X12115209Y-12333998D01*
X12309398Y-12370344D02*
X12306784Y-12380101D01*
X12291798Y-12397001D01*
X12279426Y-12404144D01*
X12257297Y-12408673D01*
X12237782Y-12403444D01*
X12224453Y-12394643D01*
X12203982Y-12373471D01*
X12193267Y-12354914D01*
X12185168Y-12326599D01*
X12184211Y-12310655D01*
X12189439Y-12291141D01*
X12204426Y-12274241D01*
X12216798Y-12267098D01*
X12238927Y-12262569D01*
X12248684Y-12265184D01*
X12383817Y-12170669D02*
X12464233Y-12124241D01*
X12449504Y-12198728D01*
X12468061Y-12188013D01*
X12484004Y-12187056D01*
X12493762Y-12189671D01*
X12507091Y-12198471D01*
X12524948Y-12229401D01*
X12525905Y-12245344D01*
X12523290Y-12255101D01*
X12514490Y-12268430D01*
X12477374Y-12289859D01*
X12461431Y-12290816D01*
X12451674Y-12288201D01*
X12587764Y-12209630D02*
X12597521Y-12212244D01*
X12594906Y-12222001D01*
X12585149Y-12219387D01*
X12587764Y-12209630D01*
X12594906Y-12222001D01*
X12606509Y-12042098D02*
X12618881Y-12034955D01*
X12634824Y-12033998D01*
X12644581Y-12036612D01*
X12657910Y-12045413D01*
X12678382Y-12066585D01*
X12696239Y-12097514D01*
X12704339Y-12125829D01*
X12705296Y-12141773D01*
X12702681Y-12151530D01*
X12693881Y-12164859D01*
X12681509Y-12172001D01*
X12665566Y-12172958D01*
X12655808Y-12170344D01*
X12642480Y-12161544D01*
X12622008Y-12140371D01*
X12604151Y-12109442D01*
X12596051Y-12081127D01*
X12595094Y-12065184D01*
X12597709Y-12055426D01*
X12606509Y-12042098D01*
X10785095Y-13387316D02*
X10787709Y-13377558D01*
X10796510Y-13364229D01*
X10827439Y-13346372D01*
X10843382Y-13345415D01*
X10853140Y-13348030D01*
X10866468Y-13356830D01*
X10873611Y-13369202D01*
X10878140Y-13391331D01*
X10846766Y-13508419D01*
X10927183Y-13461990D01*
X10932599Y-13285658D02*
X10944971Y-13278515D01*
X10960914Y-13277558D01*
X10970672Y-13280173D01*
X10984000Y-13288973D01*
X11004472Y-13310145D01*
X11022329Y-13341075D01*
X11030429Y-13369390D01*
X11031386Y-13385333D01*
X11028771Y-13395090D01*
X11019971Y-13408419D01*
X11007599Y-13415562D01*
X10991656Y-13416519D01*
X10981899Y-13413904D01*
X10968570Y-13405104D01*
X10948098Y-13383932D01*
X10930241Y-13353002D01*
X10922141Y-13324687D01*
X10921184Y-13308744D01*
X10923799Y-13298987D01*
X10932599Y-13285658D01*
X11032531Y-13244458D02*
X11035145Y-13234701D01*
X11043945Y-13221372D01*
X11074875Y-13203515D01*
X11090818Y-13202558D01*
X11100575Y-13205173D01*
X11113904Y-13213973D01*
X11121047Y-13226345D01*
X11125575Y-13248474D01*
X11094202Y-13365562D01*
X11174618Y-13319133D01*
X11180035Y-13142801D02*
X11192407Y-13135658D01*
X11208350Y-13134701D01*
X11218107Y-13137316D01*
X11231436Y-13146116D01*
X11251908Y-13167288D01*
X11269765Y-13198218D01*
X11277865Y-13226533D01*
X11278822Y-13242476D01*
X11276207Y-13252233D01*
X11267407Y-13265562D01*
X11255035Y-13272705D01*
X11239092Y-13273662D01*
X11229334Y-13271047D01*
X11216006Y-13262247D01*
X11195534Y-13241075D01*
X11177677Y-13210145D01*
X11169577Y-13181830D01*
X11168620Y-13165887D01*
X11171235Y-13156130D01*
X11180035Y-13142801D01*
X11443226Y-13155805D02*
X11459170Y-13154848D01*
X11483913Y-13140562D01*
X11492714Y-13127233D01*
X11491757Y-13111290D01*
X11488185Y-13105104D01*
X11474856Y-13096304D01*
X11458913Y-13097261D01*
X11440355Y-13107975D01*
X11424412Y-13108932D01*
X11411084Y-13100131D01*
X11407512Y-13093946D01*
X11406555Y-13078002D01*
X11415355Y-13064674D01*
X11433913Y-13053959D01*
X11449856Y-13053002D01*
X11610246Y-13059376D02*
X11601445Y-13072705D01*
X11576702Y-13086990D01*
X11560758Y-13087947D01*
X11551001Y-13085333D01*
X11537672Y-13076533D01*
X11516244Y-13039417D01*
X11515287Y-13023474D01*
X11517901Y-13013717D01*
X11526702Y-13000388D01*
X11551445Y-12986102D01*
X11567388Y-12985145D01*
X11669490Y-13033419D02*
X11594490Y-12903515D01*
X11725163Y-13001276D02*
X11685877Y-12933231D01*
X11672549Y-12924431D01*
X11656605Y-12925388D01*
X11638048Y-12936102D01*
X11629247Y-12949431D01*
X11626633Y-12959188D01*
X11842695Y-12933419D02*
X11803409Y-12865374D01*
X11790081Y-12856574D01*
X11774137Y-12857531D01*
X11749394Y-12871816D01*
X11740594Y-12885145D01*
X11839124Y-12927233D02*
X11830323Y-12940562D01*
X11799394Y-12958419D01*
X11783451Y-12959376D01*
X11770122Y-12950576D01*
X11762979Y-12938204D01*
X11762022Y-12922261D01*
X11770822Y-12908932D01*
X11801752Y-12891075D01*
X11810552Y-12877746D01*
X11904554Y-12897705D02*
X11854554Y-12811102D01*
X11868840Y-12835846D02*
X11867883Y-12819903D01*
X11870497Y-12810145D01*
X11879298Y-12796816D01*
X11891669Y-12789674D01*
X12040644Y-12819133D02*
X11965644Y-12689229D01*
X12037072Y-12812947D02*
X12028272Y-12826276D01*
X12003528Y-12840562D01*
X11987585Y-12841519D01*
X11977828Y-12838904D01*
X11964499Y-12830104D01*
X11943071Y-12792989D01*
X11942114Y-12777045D01*
X11944728Y-12767288D01*
X11953528Y-12753959D01*
X11978272Y-12739674D01*
X11994215Y-12738717D01*
X12033945Y-12707531D02*
X12083432Y-12678959D01*
X12027503Y-12653515D02*
X12091788Y-12764861D01*
X12105117Y-12773662D01*
X12121060Y-12772705D01*
X12133432Y-12765562D01*
X12221436Y-12632274D02*
X12211679Y-12629660D01*
X12195735Y-12630617D01*
X12183364Y-12637760D01*
X12174563Y-12651088D01*
X12171949Y-12660846D01*
X12172906Y-12676789D01*
X12180049Y-12689161D01*
X12193377Y-12697961D01*
X12203135Y-12700576D01*
X12219078Y-12699619D01*
X12231450Y-12692476D01*
X12240250Y-12679147D01*
X12242864Y-12669390D01*
X12214293Y-12619903D02*
X12242864Y-12669390D01*
X12252622Y-12672004D01*
X12258808Y-12668433D01*
X12267608Y-12655104D01*
X12266651Y-12639161D01*
X12248794Y-12608231D01*
X12225708Y-12596816D01*
X12200007Y-12595159D01*
X12171692Y-12603259D01*
X12150520Y-12623730D01*
X12139105Y-12646816D01*
X12137448Y-12672517D01*
X12145548Y-12700832D01*
X12166019Y-12722004D01*
X12189105Y-12733419D01*
X12214806Y-12735077D01*
X12243121Y-12726977D01*
X12264293Y-12706505D01*
X12275708Y-12683419D01*
X12275195Y-12568245D02*
X12324682Y-12539674D01*
X12268753Y-12514229D02*
X12333038Y-12625576D01*
X12346367Y-12634376D01*
X12362310Y-12633419D01*
X12374682Y-12626276D01*
X12463899Y-12566519D02*
X12455099Y-12579848D01*
X12430355Y-12594133D01*
X12414412Y-12595090D01*
X12401083Y-12586290D01*
X12372512Y-12536803D01*
X12371555Y-12520860D01*
X12380355Y-12507531D01*
X12405099Y-12493245D01*
X12421042Y-12492288D01*
X12434371Y-12501088D01*
X12441514Y-12513460D01*
X12386798Y-12561546D01*
X12585003Y-12504848D02*
X12545717Y-12436803D01*
X12532388Y-12428002D01*
X12516445Y-12428959D01*
X12491701Y-12443245D01*
X12482901Y-12456574D01*
X12581431Y-12498662D02*
X12572631Y-12511990D01*
X12541701Y-12529848D01*
X12525758Y-12530805D01*
X12512429Y-12522004D01*
X12505287Y-12509632D01*
X12504330Y-12493689D01*
X12513130Y-12480360D01*
X12544059Y-12462503D01*
X12552860Y-12449175D01*
X12646862Y-12469133D02*
X12596862Y-12382531D01*
X12604004Y-12394903D02*
X12606619Y-12385145D01*
X12615419Y-12371816D01*
X12633977Y-12361102D01*
X12649920Y-12360145D01*
X12663249Y-12368946D01*
X12702535Y-12436990D01*
X12663249Y-12368946D02*
X12662292Y-12353002D01*
X12671092Y-12339674D01*
X12689650Y-12328959D01*
X12705593Y-12328002D01*
X12718922Y-12336803D01*
X12758208Y-12404848D01*
X12791495Y-12319646D02*
X12890470Y-12262503D01*
X13033002Y-12237947D02*
X13024201Y-12251276D01*
X12999458Y-12265562D01*
X12983514Y-12266519D01*
X12973757Y-12263904D01*
X12960428Y-12255104D01*
X12939000Y-12217989D01*
X12938043Y-12202045D01*
X12940657Y-12192288D01*
X12949458Y-12178959D01*
X12974201Y-12164674D01*
X12990144Y-12163717D01*
X13023688Y-12136102D02*
X13073176Y-12107531D01*
X13017246Y-12082087D02*
X13081532Y-12193433D01*
X13094861Y-12202233D01*
X13110804Y-12201276D01*
X13123176Y-12194133D01*
X13212393Y-12134376D02*
X13203592Y-12147705D01*
X13178849Y-12161990D01*
X13162905Y-12162947D01*
X13149577Y-12154147D01*
X13121005Y-12104660D01*
X13120048Y-12088717D01*
X13128849Y-12075388D01*
X13153592Y-12061102D01*
X13169535Y-12060145D01*
X13182864Y-12068946D01*
X13190007Y-12081317D01*
X13135291Y-12129403D01*
X13329925Y-12066519D02*
X13321124Y-12079848D01*
X13296381Y-12094133D01*
X13280437Y-12095090D01*
X13270680Y-12092476D01*
X13257351Y-12083675D01*
X13235923Y-12046560D01*
X13234966Y-12030617D01*
X13237580Y-12020860D01*
X13246381Y-12007531D01*
X13271124Y-11993245D01*
X13287067Y-11992288D01*
X13389169Y-12040562D02*
X13314169Y-11910658D01*
X13444842Y-12008419D02*
X13405556Y-11940374D01*
X13392228Y-11931574D01*
X13376284Y-11932531D01*
X13357727Y-11943245D01*
X13348926Y-11956574D01*
X13346312Y-11966331D01*
X13499558Y-11960333D02*
X13509316Y-11962947D01*
X13506701Y-11972705D01*
X13496944Y-11970090D01*
X13499558Y-11960333D01*
X13506701Y-11972705D01*
X13624233Y-11904848D02*
X13549233Y-11774944D01*
X13620662Y-11898662D02*
X13611861Y-11911990D01*
X13587118Y-11926276D01*
X13571175Y-11927233D01*
X13561417Y-11924619D01*
X13548088Y-11915818D01*
X13526660Y-11878703D01*
X13525703Y-11862760D01*
X13528317Y-11853002D01*
X13537118Y-11839674D01*
X13561861Y-11825388D01*
X13577805Y-11824431D01*
X13732008Y-11834376D02*
X13723207Y-11847705D01*
X13698464Y-11861990D01*
X13682521Y-11862947D01*
X13669192Y-11854147D01*
X13640620Y-11804660D01*
X13639663Y-11788717D01*
X13648464Y-11775388D01*
X13673207Y-11761102D01*
X13689151Y-11760145D01*
X13702479Y-11768946D01*
X13709622Y-11781317D01*
X13654906Y-11829403D01*
D11*
X9403420Y-6939620D02*
G75*
G03X9403420Y-6939620I-10000J0D01*
G01*
D12*
X9328420Y-6789620D02*
X9328420Y-6289620D01*
X9838420Y-6789620D02*
X9838420Y-6289620D01*
D11*
X6687007Y-7750263D02*
G75*
G03X6687007Y-7750263I-10000J0D01*
G01*
D12*
X6612007Y-7600263D02*
X6612007Y-7100263D01*
X7122007Y-7600263D02*
X7122007Y-7100263D01*
D11*
X6687007Y-8541863D02*
G75*
G03X6687007Y-8541863I-10000J0D01*
G01*
D12*
X6612007Y-8391863D02*
X6612007Y-7891863D01*
X7122007Y-8391863D02*
X7122007Y-7891863D01*
D11*
X9403420Y-6127700D02*
G75*
G03X9403420Y-6127700I-10000J0D01*
G01*
D12*
X9328420Y-5977700D02*
X9328420Y-5477700D01*
X9838420Y-5977700D02*
X9838420Y-5477700D01*
D11*
X8232480Y-6915100D02*
G75*
G03X8232480Y-6915100I-10000J0D01*
G01*
D12*
X8157480Y-6765100D02*
X8157480Y-6265100D01*
X8667480Y-6765100D02*
X8667480Y-6265100D01*
D11*
X8219780Y-7715200D02*
G75*
G03X8219780Y-7715200I-10000J0D01*
G01*
D12*
X8144780Y-7565200D02*
X8144780Y-7065200D01*
X8654780Y-7565200D02*
X8654780Y-7065200D01*
D10*
X7304660Y-12338120D02*
X7202160Y-12338120D01*
X8339660Y-12238120D02*
X8232160Y-12238120D01*
X8339660Y-13273120D02*
X8232160Y-13273120D01*
X7304660Y-13273120D02*
X7412160Y-13273120D01*
X7304660Y-12238120D02*
X7412160Y-12238120D01*
X7304660Y-13273120D02*
X7304660Y-13165620D01*
X8339660Y-13273120D02*
X8339660Y-13165620D01*
X8339660Y-12238120D02*
X8339660Y-12345620D01*
X7304660Y-12238120D02*
X7304660Y-12338120D01*
D13*
X6995280Y-9832922D02*
X6995280Y-9884638D01*
X7137280Y-9832922D02*
X7137280Y-9884638D01*
X6398380Y-9816872D02*
X6398380Y-9868588D01*
X6540380Y-9816872D02*
X6540380Y-9868588D01*
X6715880Y-9825522D02*
X6715880Y-9877238D01*
X6857880Y-9825522D02*
X6857880Y-9877238D01*
X7478218Y-14819463D02*
X7507289Y-14739589D01*
X8997701Y-15372509D02*
X7478218Y-14819463D01*
X9026772Y-15292635D02*
X8997701Y-15372509D01*
X7656752Y-14328943D02*
X7875231Y-14408463D01*
X7627680Y-14408817D02*
X7656752Y-14328943D01*
X8957757Y-14802470D02*
X9039500Y-14577883D01*
X9176235Y-14881990D02*
X8957757Y-14802470D01*
X9147164Y-14961864D02*
X9176235Y-14881990D01*
X8356480Y-13945288D02*
X8356480Y-13893572D01*
X8214480Y-13945288D02*
X8214480Y-13893572D01*
X9220080Y-13938938D02*
X9220080Y-13887222D01*
X9078080Y-13938938D02*
X9078080Y-13887222D01*
X8788280Y-13938938D02*
X8788280Y-13887222D01*
X8646280Y-13938938D02*
X8646280Y-13887222D01*
X8165580Y-14087930D02*
X8165580Y-13819430D01*
X7973580Y-14087930D02*
X8165580Y-14087930D01*
X7973580Y-13819430D02*
X7973580Y-14087930D01*
X9029180Y-14077713D02*
X9029180Y-13809213D01*
X8837180Y-14077713D02*
X9029180Y-14077713D01*
X8837180Y-13809213D02*
X8837180Y-14077713D01*
X8597380Y-14081580D02*
X8597380Y-13813080D01*
X8405380Y-14081580D02*
X8597380Y-14081580D01*
X8405380Y-13813080D02*
X8405380Y-14081580D01*
X13631715Y-14020642D02*
X13571611Y-13960538D01*
X14350842Y-13301515D02*
X13631715Y-14020642D01*
X14290738Y-13241411D02*
X14350842Y-13301515D01*
X13262605Y-13651533D02*
X13427007Y-13487130D01*
X13322709Y-13711637D02*
X13262605Y-13651533D01*
X13817330Y-13096807D02*
X13648332Y-12927809D01*
X13981733Y-12932405D02*
X13817330Y-13096807D01*
X14041837Y-12992509D02*
X13981733Y-12932405D01*
X11945396Y-15072468D02*
X11902896Y-14998856D01*
X13345759Y-14263968D02*
X11945396Y-15072468D01*
X13303259Y-14190356D02*
X13345759Y-14263968D01*
X11684396Y-14620403D02*
X11885747Y-14504153D01*
X11726896Y-14694015D02*
X11684396Y-14620403D01*
X12883408Y-13928153D02*
X12763908Y-13721173D01*
X13084759Y-13811903D02*
X12883408Y-13928153D01*
X13127259Y-13885515D02*
X13084759Y-13811903D01*
X9827095Y-15418862D02*
X9818210Y-15334328D01*
X11435237Y-15249840D02*
X9827095Y-15418862D01*
X11426352Y-15165306D02*
X11435237Y-15249840D01*
X9772531Y-14899722D02*
X10003757Y-14875419D01*
X9781416Y-14984256D02*
X9772531Y-14899722D01*
X11149447Y-14755002D02*
X11124464Y-14517312D01*
X11380673Y-14730700D02*
X11149447Y-14755002D01*
X11389558Y-14815234D02*
X11380673Y-14730700D01*
D14*
X10174720Y-6602730D02*
X10174720Y-7067550D01*
X10499840Y-7067550D02*
X10499840Y-6602730D01*
X10442400Y-6412310D02*
G75*
G03X10442400Y-6412310I-7620J0D01*
G01*
X7602220Y-6717030D02*
X7602220Y-6252210D01*
X7277100Y-6252210D02*
X7277100Y-6717030D01*
X7349780Y-6907450D02*
G75*
G03X7349780Y-6907450I-7620J0D01*
G01*
X5712460Y-7171690D02*
X5712460Y-7636510D01*
X6037580Y-7636510D02*
X6037580Y-7171690D01*
X5980140Y-6981270D02*
G75*
G03X5980140Y-6981270I-7620J0D01*
G01*
D13*
X6299888Y-8316080D02*
X6248172Y-8316080D01*
X6299888Y-8458080D02*
X6248172Y-8458080D01*
X6932118Y-5697340D02*
X6880402Y-5697340D01*
X6932118Y-5839340D02*
X6880402Y-5839340D01*
X6884088Y-12519780D02*
X6832372Y-12519780D01*
X6884088Y-12661780D02*
X6832372Y-12661780D01*
X6884088Y-12735680D02*
X6832372Y-12735680D01*
X6884088Y-12877680D02*
X6832372Y-12877680D01*
X9607430Y-7284138D02*
X9607430Y-7232422D01*
X9465430Y-7284138D02*
X9465430Y-7232422D01*
X7281030Y-13620522D02*
X7281030Y-13672238D01*
X7423030Y-13620522D02*
X7423030Y-13672238D01*
X5641220Y-7412408D02*
X5641220Y-7360692D01*
X5499220Y-7412408D02*
X5499220Y-7360692D01*
X10737730Y-6838368D02*
X10737730Y-6786652D01*
X10595730Y-6838368D02*
X10595730Y-6786652D01*
X6884088Y-12951580D02*
X6832372Y-12951580D01*
X6884088Y-13093580D02*
X6832372Y-13093580D01*
X8957094Y-6854300D02*
X9077506Y-6854300D01*
X8957094Y-6582300D02*
X9077506Y-6582300D01*
X9026706Y-5789820D02*
X8906294Y-5789820D01*
X9026706Y-6061820D02*
X8906294Y-6061820D01*
X7399474Y-7354680D02*
X7519886Y-7354680D01*
X7399474Y-7082680D02*
X7519886Y-7082680D01*
X9026706Y-5408820D02*
X8906294Y-5408820D01*
X9026706Y-5680820D02*
X8906294Y-5680820D01*
X8957094Y-6473300D02*
X9077506Y-6473300D01*
X8957094Y-6201300D02*
X9077506Y-6201300D01*
X7399474Y-7697580D02*
X7519886Y-7697580D01*
X7399474Y-7425580D02*
X7519886Y-7425580D01*
X5465730Y-8450230D02*
X5332730Y-8450230D01*
X5465730Y-8317230D02*
X5465730Y-8450230D01*
X5205730Y-8450230D02*
X4945730Y-8450230D01*
X5205730Y-8190230D02*
X5205730Y-8450230D01*
X5465730Y-8190230D02*
X5205730Y-8190230D01*
X4945730Y-8450230D02*
X4945730Y-8184230D01*
X5465730Y-8190230D02*
X5465730Y-8184230D01*
X5465730Y-8184230D02*
X4945730Y-8184230D01*
X10393908Y-7317860D02*
X10342192Y-7317860D01*
X10393908Y-7459860D02*
X10342192Y-7459860D01*
X5244872Y-8051680D02*
X5296588Y-8051680D01*
X5244872Y-7909680D02*
X5296588Y-7909680D01*
X10070980Y-5728388D02*
X10070980Y-5676672D01*
X9928980Y-5728388D02*
X9928980Y-5676672D01*
X9941680Y-6724422D02*
X9941680Y-6776138D01*
X10083680Y-6724422D02*
X10083680Y-6776138D01*
X7201020Y-7883932D02*
X7201020Y-7935648D01*
X7343020Y-7883932D02*
X7343020Y-7935648D01*
X5858630Y-8013472D02*
X5858630Y-8065188D01*
X6000630Y-8013472D02*
X6000630Y-8065188D01*
X7185540Y-6142408D02*
X7185540Y-6090692D01*
X7043540Y-6142408D02*
X7043540Y-6090692D01*
X7343020Y-8372528D02*
X7343020Y-8320812D01*
X7201020Y-8372528D02*
X7201020Y-8320812D01*
X10550186Y-6006280D02*
X10139774Y-6006280D01*
X10550186Y-6348280D02*
X10139774Y-6348280D01*
D14*
X6191250Y-8232140D02*
X6366510Y-8232140D01*
X6366510Y-8102906D02*
X6366510Y-8036254D01*
X6366510Y-7907020D02*
X6191250Y-7907020D01*
X7540240Y-5808980D02*
X7540240Y-5633720D01*
X7411006Y-5633720D02*
X7344354Y-5633720D01*
X7215120Y-5633720D02*
X7215120Y-5808980D01*
X10025380Y-7088120D02*
X9850120Y-7088120D01*
X9850120Y-7217354D02*
X9850120Y-7284006D01*
X9850120Y-7413240D02*
X10025380Y-7413240D01*
D13*
X10901680Y-5339080D02*
X10901680Y-5897880D01*
X10342880Y-5339080D02*
X10901680Y-5339080D01*
X10342880Y-5897880D02*
X10342880Y-5339080D01*
X10901680Y-5897880D02*
X10342880Y-5897880D01*
X7688580Y-5961380D02*
X7688580Y-5402580D01*
X8247380Y-5961380D02*
X7688580Y-5961380D01*
X8247380Y-5402580D02*
X8247380Y-5961380D01*
X7688580Y-5402580D02*
X8247380Y-5402580D01*
X11958320Y-5765800D02*
X11958320Y-6324600D01*
X11399520Y-5765800D02*
X11958320Y-5765800D01*
X11399520Y-6324600D02*
X11399520Y-5765800D01*
X11958320Y-6324600D02*
X11399520Y-6324600D01*
X11668760Y-6647180D02*
X11668760Y-7205980D01*
X11109960Y-6647180D02*
X11668760Y-6647180D01*
X11109960Y-7205980D02*
X11109960Y-6647180D01*
X11668760Y-7205980D02*
X11109960Y-7205980D01*
X7185540Y-6543728D02*
X7185540Y-6492012D01*
X7043540Y-6543728D02*
X7043540Y-6492012D01*
X8902580Y-7562038D02*
X8902580Y-7510322D01*
X8760580Y-7562038D02*
X8760580Y-7510322D01*
X8765660Y-7096532D02*
X8765660Y-7148248D01*
X8907660Y-7096532D02*
X8907660Y-7148248D01*
X6133280Y-7191274D02*
X6133280Y-7601686D01*
X6475280Y-7191274D02*
X6475280Y-7601686D01*
X7720780Y-6289574D02*
X7720780Y-6699986D01*
X8062780Y-6289574D02*
X8062780Y-6699986D01*
X6118860Y-6271260D02*
X6677660Y-6271260D01*
X6118860Y-6830060D02*
X6118860Y-6271260D01*
X6677660Y-6830060D02*
X6118860Y-6830060D01*
X6677660Y-6271260D02*
X6677660Y-6830060D01*
D14*
X7306310Y-10988083D02*
X7306310Y-10459677D01*
X5871210Y-10459677D02*
X5871210Y-10988083D01*
X6344710Y-11225530D02*
X6382810Y-11225530D01*
X6382810Y-11225530D02*
X6382810Y-11200130D01*
X6382810Y-11200130D02*
X6344710Y-11200130D01*
X6344710Y-11200130D02*
X6344710Y-11225530D01*
X6844709Y-11225530D02*
X6882809Y-11225530D01*
X6882809Y-11225530D02*
X6882809Y-11200130D01*
X6882809Y-11200130D02*
X6844709Y-11200130D01*
X6844709Y-11200130D02*
X6844709Y-11225530D01*
X7194709Y-10222230D02*
X7232809Y-10222230D01*
X7232809Y-10222230D02*
X7232809Y-10247630D01*
X7232809Y-10247630D02*
X7194709Y-10247630D01*
X7194709Y-10247630D02*
X7194709Y-10222230D01*
X6694710Y-10222230D02*
X6732810Y-10222230D01*
X6732810Y-10222230D02*
X6732810Y-10247630D01*
X6732810Y-10247630D02*
X6694710Y-10247630D01*
X6694710Y-10247630D02*
X6694710Y-10222230D01*
X6194711Y-10222230D02*
X6232811Y-10222230D01*
X6232811Y-10222230D02*
X6232811Y-10247630D01*
X6232811Y-10247630D02*
X6194711Y-10247630D01*
X6194711Y-10247630D02*
X6194711Y-10222230D01*
D13*
X4673230Y-9574830D02*
X4673230Y-9004830D01*
X5103230Y-9574830D02*
X5103230Y-9004830D01*
X4673230Y-9574830D02*
X5103230Y-9574830D01*
X13492650Y-12868819D02*
X13529219Y-12832250D01*
X13392241Y-12768410D02*
X13428810Y-12731841D01*
X7693780Y-13619022D02*
X7693780Y-13670738D01*
X7835780Y-13619022D02*
X7835780Y-13670738D01*
X6779032Y-11940420D02*
X6830748Y-11940420D01*
X6779032Y-11798420D02*
X6830748Y-11798420D01*
X5814180Y-11919992D02*
X5814180Y-11971708D01*
X5956180Y-11919992D02*
X5956180Y-11971708D01*
X6985688Y-12240380D02*
X6933972Y-12240380D01*
X6985688Y-12382380D02*
X6933972Y-12382380D01*
X8146238Y-13484980D02*
X8094522Y-13484980D01*
X8146238Y-13626980D02*
X8094522Y-13626980D01*
X8832038Y-12537560D02*
X8780322Y-12537560D01*
X8832038Y-12679560D02*
X8780322Y-12679560D01*
X6933972Y-12166480D02*
X6985688Y-12166480D01*
X6933972Y-12024480D02*
X6985688Y-12024480D01*
X7632580Y-13672238D02*
X7632580Y-13620522D01*
X7490580Y-13672238D02*
X7490580Y-13620522D01*
X8513038Y-13484980D02*
X8461322Y-13484980D01*
X8513038Y-13626980D02*
X8461322Y-13626980D01*
X8834808Y-12316580D02*
X8783092Y-12316580D01*
X8834808Y-12458580D02*
X8783092Y-12458580D01*
X7312432Y-12047100D02*
X7364148Y-12047100D01*
X7312432Y-11905100D02*
X7364148Y-11905100D01*
X6838722Y-13309480D02*
X6890438Y-13309480D01*
X6838722Y-13167480D02*
X6890438Y-13167480D01*
X6466960Y-11525832D02*
X6466960Y-11577548D01*
X6608960Y-11525832D02*
X6608960Y-11577548D01*
X5048022Y-10153530D02*
X5099738Y-10153530D01*
X5048022Y-10011530D02*
X5099738Y-10011530D01*
X5575180Y-11189388D02*
X5575180Y-11137672D01*
X5433180Y-11189388D02*
X5433180Y-11137672D01*
X6682860Y-11525832D02*
X6682860Y-11577548D01*
X6824860Y-11525832D02*
X6824860Y-11577548D01*
X7104500Y-11530912D02*
X7104500Y-11582628D01*
X7246500Y-11530912D02*
X7246500Y-11582628D01*
X5791080Y-11186388D02*
X5791080Y-11134672D01*
X5649080Y-11186388D02*
X5649080Y-11134672D01*
X7315320Y-11531372D02*
X7315320Y-11583088D01*
X7457320Y-11531372D02*
X7457320Y-11583088D01*
X7040760Y-11582628D02*
X7040760Y-11530912D01*
X6898760Y-11582628D02*
X6898760Y-11530912D01*
X5181372Y-11417180D02*
X5233088Y-11417180D01*
X5181372Y-11275180D02*
X5233088Y-11275180D01*
X4864788Y-11275180D02*
X4813072Y-11275180D01*
X4864788Y-11417180D02*
X4813072Y-11417180D01*
X7387480Y-11018974D02*
X7387480Y-11139386D01*
X7659480Y-11018974D02*
X7659480Y-11139386D01*
X6134788Y-9890880D02*
X6083072Y-9890880D01*
X6134788Y-10032880D02*
X6083072Y-10032880D01*
X5575180Y-10452788D02*
X5575180Y-10401072D01*
X5433180Y-10452788D02*
X5433180Y-10401072D01*
X5729186Y-9914780D02*
X5608774Y-9914780D01*
X5729186Y-10186780D02*
X5608774Y-10186780D01*
X5371980Y-9239938D02*
X5371980Y-9188222D01*
X5229980Y-9239938D02*
X5229980Y-9188222D01*
X10063830Y-12603830D02*
X10196830Y-12603830D01*
X10063830Y-12736830D02*
X10063830Y-12603830D01*
X10063830Y-12863830D02*
X10329830Y-12863830D01*
X10329830Y-12863830D02*
X10329830Y-13885830D01*
X10063830Y-12863830D02*
X10063830Y-13885830D01*
X10063830Y-13885830D02*
X10329830Y-13885830D01*
D10*
X6536951Y-14231566D02*
X6383742Y-14103009D01*
X6267828Y-13548853D02*
X6237296Y-13585240D01*
X6903645Y-14082366D02*
X6267828Y-13548853D01*
X6873113Y-14118753D02*
X6903645Y-14082366D01*
X6062136Y-13793987D02*
X6092669Y-13757600D01*
X6697953Y-14327500D02*
X6062136Y-13793987D01*
X6728486Y-14291113D02*
X6697953Y-14327500D01*
D13*
X9376760Y-12859100D02*
X9509760Y-12859100D01*
X9376760Y-12992100D02*
X9376760Y-12859100D01*
X9636760Y-12859100D02*
X9896760Y-12859100D01*
X9636760Y-13119100D02*
X9636760Y-12859100D01*
X9376760Y-13119100D02*
X9636760Y-13119100D01*
X9896760Y-12859100D02*
X9896760Y-13887100D01*
X9376760Y-13119100D02*
X9376760Y-13887100D01*
X9376760Y-13887100D02*
X9896760Y-13887100D01*
X6047000Y-12152540D02*
X6577000Y-12152540D01*
X6047000Y-11782540D02*
X6047000Y-12152540D01*
X5311780Y-10288480D02*
X5311780Y-10889480D01*
X4629780Y-10513480D02*
X4629780Y-10889480D01*
X5311780Y-10889480D02*
X5185780Y-10889480D01*
X4629780Y-10889480D02*
X4755780Y-10889480D01*
X6152180Y-9123580D02*
X5612180Y-9123580D01*
X6152180Y-8793580D02*
X5612180Y-8793580D01*
X6152180Y-9123580D02*
X6152180Y-8793580D01*
X6114680Y-9814680D02*
X6114680Y-9769680D01*
X6114680Y-9194680D02*
X6114680Y-9239680D01*
X5494680Y-9194680D02*
X5494680Y-9239680D01*
X5494680Y-9194680D02*
X6114680Y-9194680D01*
X5494680Y-9814680D02*
X5494680Y-9769680D01*
X6114680Y-9814680D02*
X5494680Y-9814680D01*
X5207480Y-9468880D02*
X5207480Y-9859880D01*
X5394480Y-9468880D02*
X5207480Y-9468880D01*
X5394480Y-9859880D02*
X5394480Y-9468880D01*
X7119038Y-14297780D02*
X7067322Y-14297780D01*
X7119038Y-14439780D02*
X7067322Y-14439780D01*
X6890438Y-13396080D02*
X6838722Y-13396080D01*
X6890438Y-13538080D02*
X6838722Y-13538080D01*
X6888938Y-13618330D02*
X6837222Y-13618330D01*
X6888938Y-13760330D02*
X6837222Y-13760330D01*
X10177217Y-14301699D02*
X10182622Y-14353131D01*
X10318439Y-14286855D02*
X10323844Y-14338288D01*
X13162110Y-12998541D02*
X13125541Y-13035110D01*
X13262519Y-13098950D02*
X13225950Y-13135519D01*
X10396566Y-14280635D02*
X10401972Y-14332068D01*
X10537788Y-14265792D02*
X10543194Y-14317225D01*
X10606116Y-14261585D02*
X10611522Y-14313018D01*
X10747338Y-14246742D02*
X10752744Y-14298175D01*
X10824917Y-14238199D02*
X10830322Y-14289631D01*
X10966139Y-14223355D02*
X10971544Y-14274788D01*
X5973960Y-11575008D02*
X5973960Y-11523292D01*
X5831960Y-11575008D02*
X5831960Y-11523292D01*
X6042780Y-11523292D02*
X6042780Y-11575008D01*
X6184780Y-11523292D02*
X6184780Y-11575008D01*
X5568830Y-10821088D02*
X5568830Y-10769372D01*
X5426830Y-10821088D02*
X5426830Y-10769372D01*
X6395600Y-11575008D02*
X6395600Y-11523292D01*
X6253600Y-11575008D02*
X6253600Y-11523292D01*
X5758060Y-11572468D02*
X5758060Y-11520752D01*
X5616060Y-11572468D02*
X5616060Y-11520752D01*
X7777600Y-11531372D02*
X7777600Y-11583088D01*
X7919600Y-11531372D02*
X7919600Y-11583088D01*
X7551540Y-11526292D02*
X7551540Y-11578008D01*
X7693540Y-11526292D02*
X7693540Y-11578008D01*
X6398380Y-9021852D02*
X6398380Y-9073568D01*
X6540380Y-9021852D02*
X6540380Y-9073568D01*
X6540380Y-9505368D02*
X6540380Y-9453652D01*
X6398380Y-9505368D02*
X6398380Y-9453652D01*
X6713340Y-9021852D02*
X6713340Y-9073568D01*
X6855340Y-9021852D02*
X6855340Y-9073568D01*
X6855340Y-9505368D02*
X6855340Y-9453652D01*
X6713340Y-9505368D02*
X6713340Y-9453652D01*
X6995280Y-9032012D02*
X6995280Y-9083728D01*
X7137280Y-9032012D02*
X7137280Y-9083728D01*
X7137280Y-9515528D02*
X7137280Y-9463812D01*
X6995280Y-9515528D02*
X6995280Y-9463812D01*
X5649080Y-10401072D02*
X5649080Y-10452788D01*
X5791080Y-10401072D02*
X5791080Y-10452788D01*
X5649080Y-10766372D02*
X5649080Y-10818088D01*
X5791080Y-10766372D02*
X5791080Y-10818088D01*
X9623372Y-12757030D02*
X9675088Y-12757030D01*
X9623372Y-12615030D02*
X9675088Y-12615030D01*
D10*
X9291956Y-7051192D02*
X9282432Y-7046430D01*
X9272909Y-7036906D01*
X9258623Y-7022620D01*
X9249099Y-7017858D01*
X9239575Y-7017858D01*
X9244337Y-7041668D02*
X9234813Y-7036906D01*
X9225290Y-7027382D01*
X9220528Y-7008335D01*
X9220528Y-6975001D01*
X9225290Y-6955954D01*
X9234813Y-6946430D01*
X9244337Y-6941668D01*
X9263385Y-6941668D01*
X9272909Y-6946430D01*
X9282432Y-6955954D01*
X9287194Y-6975001D01*
X9287194Y-7008335D01*
X9282432Y-7027382D01*
X9272909Y-7036906D01*
X9263385Y-7041668D01*
X9244337Y-7041668D01*
X9372909Y-6975001D02*
X9372909Y-7041668D01*
X9349099Y-6936906D02*
X9325290Y-7008335D01*
X9387194Y-7008335D01*
X6910706Y-6968642D02*
X6901182Y-6963880D01*
X6891658Y-6954356D01*
X6877373Y-6940070D01*
X6867849Y-6935308D01*
X6858325Y-6935308D01*
X6863087Y-6959118D02*
X6853563Y-6954356D01*
X6844039Y-6944832D01*
X6839278Y-6925785D01*
X6839278Y-6892451D01*
X6844039Y-6873404D01*
X6853563Y-6863880D01*
X6863087Y-6859118D01*
X6882135Y-6859118D01*
X6891658Y-6863880D01*
X6901182Y-6873404D01*
X6905944Y-6892451D01*
X6905944Y-6925785D01*
X6901182Y-6944832D01*
X6891658Y-6954356D01*
X6882135Y-6959118D01*
X6863087Y-6959118D01*
X7001182Y-6959118D02*
X6944039Y-6959118D01*
X6972611Y-6959118D02*
X6972611Y-6859118D01*
X6963087Y-6873404D01*
X6953563Y-6882928D01*
X6944039Y-6887689D01*
X6866256Y-8645042D02*
X6856732Y-8640280D01*
X6847208Y-8630756D01*
X6832923Y-8616470D01*
X6823399Y-8611709D01*
X6813875Y-8611709D01*
X6818637Y-8635518D02*
X6809113Y-8630756D01*
X6799589Y-8621232D01*
X6794828Y-8602185D01*
X6794828Y-8568851D01*
X6799589Y-8549804D01*
X6809113Y-8540280D01*
X6818637Y-8535518D01*
X6837685Y-8535518D01*
X6847208Y-8540280D01*
X6856732Y-8549804D01*
X6861494Y-8568851D01*
X6861494Y-8602185D01*
X6856732Y-8621232D01*
X6847208Y-8630756D01*
X6837685Y-8635518D01*
X6818637Y-8635518D01*
X6899589Y-8545042D02*
X6904351Y-8540280D01*
X6913875Y-8535518D01*
X6937685Y-8535518D01*
X6947208Y-8540280D01*
X6951970Y-8545042D01*
X6956732Y-8554566D01*
X6956732Y-8564090D01*
X6951970Y-8578375D01*
X6894828Y-8635518D01*
X6956732Y-8635518D01*
X9418956Y-5336692D02*
X9409432Y-5331930D01*
X9399909Y-5322406D01*
X9385623Y-5308120D01*
X9376099Y-5303359D01*
X9366575Y-5303359D01*
X9371337Y-5327168D02*
X9361813Y-5322406D01*
X9352290Y-5312882D01*
X9347528Y-5293835D01*
X9347528Y-5260501D01*
X9352290Y-5241454D01*
X9361813Y-5231930D01*
X9371337Y-5227168D01*
X9390385Y-5227168D01*
X9399909Y-5231930D01*
X9409432Y-5241454D01*
X9414194Y-5260501D01*
X9414194Y-5293835D01*
X9409432Y-5312882D01*
X9399909Y-5322406D01*
X9390385Y-5327168D01*
X9371337Y-5327168D01*
X9447528Y-5227168D02*
X9509432Y-5227168D01*
X9476099Y-5265263D01*
X9490385Y-5265263D01*
X9499909Y-5270025D01*
X9504670Y-5274787D01*
X9509432Y-5284311D01*
X9509432Y-5308120D01*
X9504670Y-5317644D01*
X9499909Y-5322406D01*
X9490385Y-5327168D01*
X9461813Y-5327168D01*
X9452290Y-5322406D01*
X9447528Y-5317644D01*
X8263256Y-6130442D02*
X8253732Y-6125680D01*
X8244208Y-6116156D01*
X8229923Y-6101870D01*
X8220399Y-6097108D01*
X8210875Y-6097108D01*
X8215637Y-6120918D02*
X8206113Y-6116156D01*
X8196589Y-6106632D01*
X8191828Y-6087585D01*
X8191828Y-6054251D01*
X8196589Y-6035204D01*
X8206113Y-6025680D01*
X8215637Y-6020918D01*
X8234685Y-6020918D01*
X8244208Y-6025680D01*
X8253732Y-6035204D01*
X8258494Y-6054251D01*
X8258494Y-6087585D01*
X8253732Y-6106632D01*
X8244208Y-6116156D01*
X8234685Y-6120918D01*
X8215637Y-6120918D01*
X8348970Y-6020918D02*
X8301351Y-6020918D01*
X8296589Y-6068537D01*
X8301351Y-6063775D01*
X8310875Y-6059013D01*
X8334685Y-6059013D01*
X8344208Y-6063775D01*
X8348970Y-6068537D01*
X8353732Y-6078061D01*
X8353732Y-6101870D01*
X8348970Y-6111394D01*
X8344208Y-6116156D01*
X8334685Y-6120918D01*
X8310875Y-6120918D01*
X8301351Y-6116156D01*
X8296589Y-6111394D01*
X8269606Y-7883042D02*
X8260082Y-7878280D01*
X8250558Y-7868756D01*
X8236273Y-7854470D01*
X8226749Y-7849708D01*
X8217225Y-7849708D01*
X8221987Y-7873518D02*
X8212463Y-7868756D01*
X8202939Y-7859232D01*
X8198178Y-7840185D01*
X8198178Y-7806851D01*
X8202939Y-7787804D01*
X8212463Y-7778280D01*
X8221987Y-7773518D01*
X8241035Y-7773518D01*
X8250558Y-7778280D01*
X8260082Y-7787804D01*
X8264844Y-7806851D01*
X8264844Y-7840185D01*
X8260082Y-7859232D01*
X8250558Y-7868756D01*
X8241035Y-7873518D01*
X8221987Y-7873518D01*
X8350558Y-7773518D02*
X8331511Y-7773518D01*
X8321987Y-7778280D01*
X8317225Y-7783042D01*
X8307701Y-7797328D01*
X8302939Y-7816375D01*
X8302939Y-7854470D01*
X8307701Y-7863994D01*
X8312463Y-7868756D01*
X8321987Y-7873518D01*
X8341035Y-7873518D01*
X8350558Y-7868756D01*
X8355320Y-7863994D01*
X8360082Y-7854470D01*
X8360082Y-7830661D01*
X8355320Y-7821137D01*
X8350558Y-7816375D01*
X8341035Y-7811613D01*
X8321987Y-7811613D01*
X8312463Y-7816375D01*
X8307701Y-7821137D01*
X8302939Y-7830661D01*
X7745969Y-11980858D02*
X7745969Y-12061810D01*
X7750731Y-12071334D01*
X7755493Y-12076096D01*
X7765017Y-12080858D01*
X7784065Y-12080858D01*
X7793588Y-12076096D01*
X7798350Y-12071334D01*
X7803112Y-12061810D01*
X7803112Y-11980858D01*
X7903112Y-12080858D02*
X7845969Y-12080858D01*
X7874541Y-12080858D02*
X7874541Y-11980858D01*
X7865017Y-11995144D01*
X7855493Y-12004668D01*
X7845969Y-12009429D01*
X7266994Y-9923066D02*
X7271756Y-9927828D01*
X7276518Y-9942113D01*
X7276518Y-9951637D01*
X7271756Y-9965923D01*
X7262232Y-9975447D01*
X7252708Y-9980209D01*
X7233661Y-9984970D01*
X7219375Y-9984970D01*
X7200328Y-9980209D01*
X7190804Y-9975447D01*
X7181280Y-9965923D01*
X7176518Y-9951637D01*
X7176518Y-9942113D01*
X7181280Y-9927828D01*
X7186042Y-9923066D01*
X7176518Y-9889732D02*
X7176518Y-9827828D01*
X7214613Y-9861161D01*
X7214613Y-9846875D01*
X7219375Y-9837351D01*
X7224137Y-9832590D01*
X7233661Y-9827828D01*
X7257470Y-9827828D01*
X7266994Y-9832590D01*
X7271756Y-9837351D01*
X7276518Y-9846875D01*
X7276518Y-9875447D01*
X7271756Y-9884970D01*
X7266994Y-9889732D01*
X7276518Y-9732590D02*
X7276518Y-9789732D01*
X7276518Y-9761161D02*
X7176518Y-9761161D01*
X7190804Y-9770685D01*
X7200328Y-9780209D01*
X7205089Y-9789732D01*
X6670094Y-9907016D02*
X6674856Y-9911778D01*
X6679618Y-9926063D01*
X6679618Y-9935587D01*
X6674856Y-9949873D01*
X6665332Y-9959397D01*
X6655808Y-9964159D01*
X6636761Y-9968920D01*
X6622475Y-9968920D01*
X6603428Y-9964159D01*
X6593904Y-9959397D01*
X6584380Y-9949873D01*
X6579618Y-9935587D01*
X6579618Y-9926063D01*
X6584380Y-9911778D01*
X6589142Y-9907016D01*
X6589142Y-9868920D02*
X6584380Y-9864159D01*
X6579618Y-9854635D01*
X6579618Y-9830825D01*
X6584380Y-9821301D01*
X6589142Y-9816540D01*
X6598666Y-9811778D01*
X6608189Y-9811778D01*
X6622475Y-9816540D01*
X6679618Y-9873682D01*
X6679618Y-9811778D01*
X6679618Y-9764159D02*
X6679618Y-9745111D01*
X6674856Y-9735587D01*
X6670094Y-9730825D01*
X6655808Y-9721301D01*
X6636761Y-9716540D01*
X6598666Y-9716540D01*
X6589142Y-9721301D01*
X6584380Y-9726063D01*
X6579618Y-9735587D01*
X6579618Y-9754635D01*
X6584380Y-9764159D01*
X6589142Y-9768920D01*
X6598666Y-9773682D01*
X6622475Y-9773682D01*
X6631999Y-9768920D01*
X6636761Y-9764159D01*
X6641523Y-9754635D01*
X6641523Y-9735587D01*
X6636761Y-9726063D01*
X6631999Y-9721301D01*
X6622475Y-9716540D01*
X6987594Y-9915666D02*
X6992356Y-9920428D01*
X6997118Y-9934713D01*
X6997118Y-9944237D01*
X6992356Y-9958523D01*
X6982832Y-9968047D01*
X6973308Y-9972809D01*
X6954261Y-9977570D01*
X6939975Y-9977570D01*
X6920928Y-9972809D01*
X6911404Y-9968047D01*
X6901880Y-9958523D01*
X6897118Y-9944237D01*
X6897118Y-9934713D01*
X6901880Y-9920428D01*
X6906642Y-9915666D01*
X6897118Y-9882332D02*
X6897118Y-9820428D01*
X6935213Y-9853761D01*
X6935213Y-9839475D01*
X6939975Y-9829951D01*
X6944737Y-9825190D01*
X6954261Y-9820428D01*
X6978070Y-9820428D01*
X6987594Y-9825190D01*
X6992356Y-9829951D01*
X6997118Y-9839475D01*
X6997118Y-9868047D01*
X6992356Y-9877570D01*
X6987594Y-9882332D01*
X6897118Y-9758523D02*
X6897118Y-9748999D01*
X6901880Y-9739475D01*
X6906642Y-9734713D01*
X6916166Y-9729951D01*
X6935213Y-9725190D01*
X6959023Y-9725190D01*
X6978070Y-9729951D01*
X6987594Y-9734713D01*
X6992356Y-9739475D01*
X6997118Y-9748999D01*
X6997118Y-9758523D01*
X6992356Y-9768047D01*
X6987594Y-9772809D01*
X6978070Y-9777570D01*
X6959023Y-9782332D01*
X6935213Y-9782332D01*
X6916166Y-9777570D01*
X6906642Y-9772809D01*
X6901880Y-9768047D01*
X6897118Y-9758523D01*
X7294986Y-14604370D02*
X7270556Y-14671491D01*
X7261196Y-14683286D01*
X7248989Y-14688978D01*
X7233936Y-14688567D01*
X7224987Y-14685310D01*
X7330784Y-14617399D02*
X7388956Y-14638572D01*
X7344603Y-14662969D01*
X7358028Y-14667855D01*
X7365348Y-14675587D01*
X7368194Y-14681690D01*
X7369412Y-14692269D01*
X7361268Y-14714642D01*
X7353536Y-14721963D01*
X7347433Y-14724809D01*
X7336855Y-14726026D01*
X7310006Y-14716254D01*
X7302686Y-14708522D01*
X7299840Y-14702419D01*
X13417487Y-14080578D02*
X13467995Y-14131085D01*
X13474729Y-14144554D01*
X13474729Y-14158023D01*
X13467995Y-14171491D01*
X13461260Y-14178226D01*
X13484831Y-14013234D02*
X13451159Y-14046906D01*
X13481463Y-14083945D01*
X13481463Y-14077210D01*
X13484831Y-14067109D01*
X13501667Y-14050273D01*
X13511768Y-14046906D01*
X13518502Y-14046906D01*
X13528604Y-14050273D01*
X13545440Y-14067109D01*
X13548807Y-14077210D01*
X13548807Y-14083945D01*
X13545440Y-14094046D01*
X13528604Y-14110882D01*
X13518502Y-14114249D01*
X13511768Y-14114249D01*
X11689981Y-15080971D02*
X11725696Y-15142830D01*
X11728715Y-15157583D01*
X11725229Y-15170593D01*
X11715238Y-15181860D01*
X11706990Y-15186622D01*
X11731859Y-15067791D02*
X11733602Y-15061286D01*
X11739469Y-15052400D01*
X11760088Y-15040495D01*
X11770717Y-15039857D01*
X11777222Y-15041600D01*
X11786108Y-15047467D01*
X11790870Y-15055715D01*
X11793889Y-15070468D01*
X11772973Y-15148526D01*
X11826584Y-15117574D01*
X9592805Y-15321102D02*
X9600271Y-15392140D01*
X9597029Y-15406845D01*
X9588553Y-15417312D01*
X9574843Y-15423541D01*
X9565371Y-15424536D01*
X9702710Y-15410102D02*
X9645880Y-15416075D01*
X9674295Y-15413088D02*
X9663842Y-15313636D01*
X9655864Y-15328839D01*
X9647388Y-15339306D01*
X9638414Y-15345037D01*
X10539220Y-6446368D02*
X10539220Y-6527320D01*
X10543982Y-6536844D01*
X10548743Y-6541606D01*
X10558267Y-6546368D01*
X10577315Y-6546368D01*
X10586839Y-6541606D01*
X10591601Y-6536844D01*
X10596362Y-6527320D01*
X10596362Y-6446368D01*
X10691601Y-6446368D02*
X10643982Y-6446368D01*
X10639220Y-6493987D01*
X10643982Y-6489225D01*
X10653505Y-6484463D01*
X10677315Y-6484463D01*
X10686839Y-6489225D01*
X10691601Y-6493987D01*
X10696362Y-6503511D01*
X10696362Y-6527320D01*
X10691601Y-6536844D01*
X10686839Y-6541606D01*
X10677315Y-6546368D01*
X10653505Y-6546368D01*
X10643982Y-6541606D01*
X10639220Y-6536844D01*
X10282518Y-6835140D02*
X10306328Y-6835140D01*
X10296804Y-6858949D02*
X10306328Y-6835140D01*
X10296804Y-6811330D01*
X10325375Y-6849426D02*
X10306328Y-6835140D01*
X10325375Y-6820854D01*
X7453639Y-6903568D02*
X7453639Y-6984520D01*
X7458401Y-6994044D01*
X7463163Y-6998806D01*
X7472687Y-7003568D01*
X7491735Y-7003568D01*
X7501258Y-6998806D01*
X7506020Y-6994044D01*
X7510782Y-6984520D01*
X7510782Y-6903568D01*
X7601258Y-6903568D02*
X7582211Y-6903568D01*
X7572687Y-6908330D01*
X7567925Y-6913092D01*
X7558401Y-6927378D01*
X7553639Y-6946425D01*
X7553639Y-6984520D01*
X7558401Y-6994044D01*
X7563163Y-6998806D01*
X7572687Y-7003568D01*
X7591735Y-7003568D01*
X7601258Y-6998806D01*
X7606020Y-6994044D01*
X7610782Y-6984520D01*
X7610782Y-6960711D01*
X7606020Y-6951187D01*
X7601258Y-6946425D01*
X7591735Y-6941663D01*
X7572687Y-6941663D01*
X7563163Y-6946425D01*
X7558401Y-6951187D01*
X7553639Y-6960711D01*
X7384898Y-6484620D02*
X7408708Y-6484620D01*
X7399184Y-6508429D02*
X7408708Y-6484620D01*
X7399184Y-6460810D01*
X7427755Y-6498906D02*
X7408708Y-6484620D01*
X7427755Y-6470334D01*
X5732789Y-6859118D02*
X5732789Y-6940070D01*
X5737551Y-6949594D01*
X5742313Y-6954356D01*
X5751837Y-6959118D01*
X5770885Y-6959118D01*
X5780408Y-6954356D01*
X5785170Y-6949594D01*
X5789932Y-6940070D01*
X5789932Y-6859118D01*
X5880408Y-6892451D02*
X5880408Y-6959118D01*
X5856599Y-6854356D02*
X5832789Y-6925785D01*
X5894694Y-6925785D01*
X5820258Y-7404100D02*
X5844068Y-7404100D01*
X5834544Y-7427909D02*
X5844068Y-7404100D01*
X5834544Y-7380290D01*
X5863115Y-7418386D02*
X5844068Y-7404100D01*
X5863115Y-7389814D01*
X5156528Y-8516468D02*
X5156528Y-8587897D01*
X5151766Y-8602182D01*
X5142242Y-8611706D01*
X5127956Y-8616468D01*
X5118432Y-8616468D01*
X5256528Y-8616468D02*
X5199385Y-8616468D01*
X5227956Y-8616468D02*
X5227956Y-8516468D01*
X5218432Y-8530754D01*
X5208909Y-8540278D01*
X5199385Y-8545040D01*
X5294623Y-8525992D02*
X5299385Y-8521230D01*
X5308909Y-8516468D01*
X5332718Y-8516468D01*
X5342242Y-8521230D01*
X5347004Y-8525992D01*
X5351766Y-8535516D01*
X5351766Y-8545040D01*
X5347004Y-8559325D01*
X5289861Y-8616468D01*
X5351766Y-8616468D01*
X5910589Y-8268818D02*
X5910589Y-8349770D01*
X5915351Y-8359294D01*
X5920113Y-8364056D01*
X5929637Y-8368818D01*
X5948685Y-8368818D01*
X5958208Y-8364056D01*
X5962970Y-8359294D01*
X5967732Y-8349770D01*
X5967732Y-8268818D01*
X6005828Y-8268818D02*
X6072494Y-8268818D01*
X6029637Y-8368818D01*
X6134100Y-7748718D02*
X6134100Y-7772528D01*
X6110290Y-7763004D02*
X6134100Y-7772528D01*
X6157909Y-7763004D01*
X6119814Y-7791575D02*
X6134100Y-7772528D01*
X6148386Y-7791575D01*
X6134100Y-7748718D02*
X6134100Y-7772528D01*
X6110290Y-7763004D02*
X6134100Y-7772528D01*
X6157909Y-7763004D01*
X6119814Y-7791575D02*
X6134100Y-7772528D01*
X6148386Y-7791575D01*
X7313939Y-5366868D02*
X7313939Y-5447820D01*
X7318701Y-5457344D01*
X7323463Y-5462106D01*
X7332987Y-5466868D01*
X7352035Y-5466868D01*
X7361558Y-5462106D01*
X7366320Y-5457344D01*
X7371082Y-5447820D01*
X7371082Y-5366868D01*
X7432987Y-5409725D02*
X7423463Y-5404963D01*
X7418701Y-5400201D01*
X7413939Y-5390678D01*
X7413939Y-5385916D01*
X7418701Y-5376392D01*
X7423463Y-5371630D01*
X7432987Y-5366868D01*
X7452035Y-5366868D01*
X7461558Y-5371630D01*
X7466320Y-5376392D01*
X7471082Y-5385916D01*
X7471082Y-5390678D01*
X7466320Y-5400201D01*
X7461558Y-5404963D01*
X7452035Y-5409725D01*
X7432987Y-5409725D01*
X7423463Y-5414487D01*
X7418701Y-5419249D01*
X7413939Y-5428773D01*
X7413939Y-5447820D01*
X7418701Y-5457344D01*
X7423463Y-5462106D01*
X7432987Y-5466868D01*
X7452035Y-5466868D01*
X7461558Y-5462106D01*
X7466320Y-5457344D01*
X7471082Y-5447820D01*
X7471082Y-5428773D01*
X7466320Y-5419249D01*
X7461558Y-5414487D01*
X7452035Y-5409725D01*
X7056818Y-5866130D02*
X7080627Y-5866130D01*
X7071104Y-5889939D02*
X7080627Y-5866130D01*
X7071104Y-5842320D01*
X7099675Y-5880416D02*
X7080627Y-5866130D01*
X7099675Y-5851844D01*
X7056818Y-5866130D02*
X7080627Y-5866130D01*
X7071104Y-5889939D02*
X7080627Y-5866130D01*
X7071104Y-5842320D01*
X7099675Y-5880416D02*
X7080627Y-5866130D01*
X7099675Y-5851844D01*
X9861560Y-6935318D02*
X9861560Y-7016270D01*
X9866321Y-7025794D01*
X9871083Y-7030556D01*
X9880607Y-7035318D01*
X9899655Y-7035318D01*
X9909179Y-7030556D01*
X9913940Y-7025794D01*
X9918702Y-7016270D01*
X9918702Y-6935318D01*
X9971083Y-7035318D02*
X9990131Y-7035318D01*
X9999655Y-7030556D01*
X10004417Y-7025794D01*
X10013940Y-7011508D01*
X10018702Y-6992461D01*
X10018702Y-6954366D01*
X10013940Y-6944842D01*
X10009179Y-6940080D01*
X9999655Y-6935318D01*
X9980607Y-6935318D01*
X9971083Y-6940080D01*
X9966321Y-6944842D01*
X9961560Y-6954366D01*
X9961560Y-6978175D01*
X9966321Y-6987699D01*
X9971083Y-6992461D01*
X9980607Y-6997223D01*
X9999655Y-6997223D01*
X10009179Y-6992461D01*
X10013940Y-6987699D01*
X10018702Y-6978175D01*
X10082530Y-7462018D02*
X10082530Y-7485827D01*
X10058720Y-7476304D02*
X10082530Y-7485827D01*
X10106340Y-7476304D01*
X10068244Y-7504875D02*
X10082530Y-7485827D01*
X10096816Y-7504875D01*
X10082530Y-7462018D02*
X10082530Y-7485827D01*
X10058720Y-7476304D02*
X10082530Y-7485827D01*
X10106340Y-7476304D01*
X10068244Y-7504875D02*
X10082530Y-7485827D01*
X10096816Y-7504875D01*
X11772587Y-6396838D02*
X11772587Y-6468267D01*
X11767825Y-6482552D01*
X11758301Y-6492076D01*
X11744015Y-6496838D01*
X11734491Y-6496838D01*
X11810682Y-6396838D02*
X11877348Y-6396838D01*
X11834491Y-6496838D01*
X11483027Y-7278218D02*
X11483027Y-7349647D01*
X11478265Y-7363932D01*
X11468741Y-7373456D01*
X11454455Y-7378218D01*
X11444931Y-7378218D01*
X11544931Y-7321075D02*
X11535408Y-7316313D01*
X11530646Y-7311551D01*
X11525884Y-7302028D01*
X11525884Y-7297266D01*
X11530646Y-7287742D01*
X11535408Y-7282980D01*
X11544931Y-7278218D01*
X11563979Y-7278218D01*
X11573503Y-7282980D01*
X11578265Y-7287742D01*
X11583027Y-7297266D01*
X11583027Y-7302028D01*
X11578265Y-7311551D01*
X11573503Y-7316313D01*
X11563979Y-7321075D01*
X11544931Y-7321075D01*
X11535408Y-7325837D01*
X11530646Y-7330599D01*
X11525884Y-7340123D01*
X11525884Y-7359170D01*
X11530646Y-7368694D01*
X11535408Y-7373456D01*
X11544931Y-7378218D01*
X11563979Y-7378218D01*
X11573503Y-7373456D01*
X11578265Y-7368694D01*
X11583027Y-7359170D01*
X11583027Y-7340123D01*
X11578265Y-7330599D01*
X11573503Y-7325837D01*
X11563979Y-7321075D01*
X6236184Y-7000198D02*
X6202851Y-6952579D01*
X6179041Y-7000198D02*
X6179041Y-6900198D01*
X6217137Y-6900198D01*
X6226660Y-6904960D01*
X6231422Y-6909722D01*
X6236184Y-6919246D01*
X6236184Y-6933531D01*
X6231422Y-6943055D01*
X6226660Y-6947817D01*
X6217137Y-6952579D01*
X6179041Y-6952579D01*
X6321898Y-6933531D02*
X6321898Y-7000198D01*
X6298089Y-6895436D02*
X6274279Y-6966865D01*
X6336184Y-6966865D01*
X6421898Y-6900198D02*
X6374279Y-6900198D01*
X6369518Y-6947817D01*
X6374279Y-6943055D01*
X6383803Y-6938293D01*
X6407613Y-6938293D01*
X6417137Y-6943055D01*
X6421898Y-6947817D01*
X6426660Y-6957341D01*
X6426660Y-6981150D01*
X6421898Y-6990674D01*
X6417137Y-6995436D01*
X6407613Y-7000198D01*
X6383803Y-7000198D01*
X6374279Y-6995436D01*
X6369518Y-6990674D01*
X7802094Y-7028968D02*
X7768761Y-6981349D01*
X7744951Y-7028968D02*
X7744951Y-6928968D01*
X7783047Y-6928968D01*
X7792570Y-6933730D01*
X7797332Y-6938492D01*
X7802094Y-6948016D01*
X7802094Y-6962301D01*
X7797332Y-6971825D01*
X7792570Y-6976587D01*
X7783047Y-6981349D01*
X7744951Y-6981349D01*
X7887808Y-6962301D02*
X7887808Y-7028968D01*
X7863999Y-6924206D02*
X7840189Y-6995635D01*
X7902094Y-6995635D01*
X7983047Y-6928968D02*
X7963999Y-6928968D01*
X7954475Y-6933730D01*
X7949713Y-6938492D01*
X7940189Y-6952778D01*
X7935428Y-6971825D01*
X7935428Y-7009920D01*
X7940189Y-7019444D01*
X7944951Y-7024206D01*
X7954475Y-7028968D01*
X7973523Y-7028968D01*
X7983047Y-7024206D01*
X7987808Y-7019444D01*
X7992570Y-7009920D01*
X7992570Y-6986111D01*
X7987808Y-6976587D01*
X7983047Y-6971825D01*
X7973523Y-6967063D01*
X7954475Y-6967063D01*
X7944951Y-6971825D01*
X7940189Y-6976587D01*
X7935428Y-6986111D01*
X7352039Y-10497668D02*
X7352039Y-10578620D01*
X7356801Y-10588144D01*
X7361563Y-10592906D01*
X7371087Y-10597668D01*
X7390135Y-10597668D01*
X7399658Y-10592906D01*
X7404420Y-10588144D01*
X7409182Y-10578620D01*
X7409182Y-10497668D01*
X7447278Y-10497668D02*
X7509182Y-10497668D01*
X7475849Y-10535763D01*
X7490135Y-10535763D01*
X7499658Y-10540525D01*
X7504420Y-10545287D01*
X7509182Y-10554811D01*
X7509182Y-10578620D01*
X7504420Y-10588144D01*
X7499658Y-10592906D01*
X7490135Y-10597668D01*
X7461563Y-10597668D01*
X7452039Y-10592906D01*
X7447278Y-10588144D01*
X5714219Y-11116310D02*
X5738029Y-11116310D01*
X5728505Y-11140120D02*
X5738029Y-11116310D01*
X5728505Y-11092500D01*
X5757077Y-11130596D02*
X5738029Y-11116310D01*
X5757077Y-11102024D01*
X4674720Y-8806968D02*
X4674720Y-8706968D01*
X4698530Y-8706968D01*
X4712816Y-8711730D01*
X4722340Y-8721254D01*
X4727101Y-8730778D01*
X4731863Y-8749825D01*
X4731863Y-8764111D01*
X4727101Y-8783159D01*
X4722340Y-8792682D01*
X4712816Y-8802206D01*
X4698530Y-8806968D01*
X4674720Y-8806968D01*
X4822340Y-8706968D02*
X4774720Y-8706968D01*
X4769959Y-8754587D01*
X4774720Y-8749825D01*
X4784244Y-8745063D01*
X4808054Y-8745063D01*
X4817578Y-8749825D01*
X4822340Y-8754587D01*
X4827101Y-8764111D01*
X4827101Y-8787920D01*
X4822340Y-8797444D01*
X4817578Y-8802206D01*
X4808054Y-8806968D01*
X4784244Y-8806968D01*
X4774720Y-8802206D01*
X4769959Y-8797444D01*
X5974204Y-13527264D02*
X6028921Y-13573178D01*
X6036804Y-13586008D01*
X6037978Y-13599426D01*
X6032443Y-13613430D01*
X6026321Y-13620726D01*
X6032361Y-13457956D02*
X6020117Y-13472547D01*
X6017643Y-13482904D01*
X6018230Y-13489612D01*
X6023052Y-13506091D01*
X6034582Y-13521982D01*
X6063765Y-13546469D01*
X6074121Y-13548943D01*
X6080830Y-13548356D01*
X6090600Y-13544121D01*
X6102843Y-13529530D01*
X6105317Y-13519174D01*
X6104730Y-13512465D01*
X6100495Y-13502695D01*
X6082256Y-13487391D01*
X6071900Y-13484917D01*
X6065191Y-13485504D01*
X6055421Y-13489738D01*
X6043178Y-13504330D01*
X6040704Y-13514686D01*
X6041291Y-13521395D01*
X6045526Y-13531165D01*
X9525328Y-13977468D02*
X9525328Y-14048897D01*
X9520566Y-14063182D01*
X9511042Y-14072706D01*
X9496756Y-14077468D01*
X9487232Y-14077468D01*
X9625328Y-14077468D02*
X9568185Y-14077468D01*
X9596756Y-14077468D02*
X9596756Y-13977468D01*
X9587232Y-13991754D01*
X9577709Y-14001278D01*
X9568185Y-14006039D01*
X9711042Y-14010801D02*
X9711042Y-14077468D01*
X9687232Y-13972706D02*
X9663423Y-14044135D01*
X9725328Y-14044135D01*
X4621540Y-10116668D02*
X4621540Y-10197620D01*
X4626301Y-10207144D01*
X4631063Y-10211906D01*
X4640587Y-10216668D01*
X4659635Y-10216668D01*
X4669159Y-10211906D01*
X4673920Y-10207144D01*
X4678682Y-10197620D01*
X4678682Y-10116668D01*
X4721540Y-10126192D02*
X4726301Y-10121430D01*
X4735825Y-10116668D01*
X4759635Y-10116668D01*
X4769159Y-10121430D01*
X4773920Y-10126192D01*
X4778682Y-10135716D01*
X4778682Y-10145240D01*
X4773920Y-10159525D01*
X4716778Y-10216668D01*
X4778682Y-10216668D01*
X5493870Y-8737118D02*
X5493870Y-8637118D01*
X5517680Y-8637118D01*
X5531966Y-8641880D01*
X5541490Y-8651404D01*
X5546251Y-8660928D01*
X5551013Y-8679975D01*
X5551013Y-8694261D01*
X5546251Y-8713309D01*
X5541490Y-8722832D01*
X5531966Y-8732356D01*
X5517680Y-8737118D01*
X5493870Y-8737118D01*
X5636728Y-8670451D02*
X5636728Y-8737118D01*
X5612918Y-8632356D02*
X5589109Y-8703785D01*
X5651013Y-8703785D01*
X6262213Y-9746768D02*
X6214594Y-9746768D01*
X6214594Y-9646768D01*
X6347928Y-9746768D02*
X6290785Y-9746768D01*
X6319356Y-9746768D02*
X6319356Y-9646768D01*
X6309832Y-9661054D01*
X6300308Y-9670578D01*
X6290785Y-9675340D01*
M02*
