G04 #@! TF.GenerationSoftware,KiCad,Pcbnew,5.0.2-bee76a0~70~ubuntu18.04.1*
G04 #@! TF.CreationDate,2019-01-04T09:02:56+01:00*
G04 #@! TF.ProjectId,gsvesc,67737665-7363-42e6-9b69-6361645f7063,rev?*
G04 #@! TF.SameCoordinates,Original*
G04 #@! TF.FileFunction,Paste,Bot*
G04 #@! TF.FilePolarity,Positive*
%FSLAX45Y45*%
G04 Gerber Fmt 4.5, Leading zero omitted, Abs format (unit mm)*
G04 Created by KiCad (PCBNEW 5.0.2-bee76a0~70~ubuntu18.04.1) date Fr 04 Jan 2019 09:02:56 CET*
%MOMM*%
%LPD*%
G01*
G04 APERTURE LIST*
%ADD10C,0.200000*%
%ADD11C,0.100000*%
%ADD12C,0.975000*%
%ADD13C,1.250000*%
%ADD14R,0.905000X0.495000*%
%ADD15R,0.575000X0.750000*%
%ADD16R,3.955000X4.560000*%
%ADD17R,1.000000X0.750000*%
%ADD18R,0.495000X0.905000*%
%ADD19R,0.750000X0.575000*%
%ADD20R,4.560000X3.955000*%
%ADD21R,0.750000X1.000000*%
G04 APERTURE END LIST*
D10*
X11340000Y-9398000D02*
G75*
G03X11340000Y-9398000I-2450000J0D01*
G01*
X14440000Y-9398000D02*
G75*
G03X14440000Y-9398000I-5550000J0D01*
G01*
D11*
G04 #@! TO.C,Q7*
G36*
X11179678Y-6595872D02*
X11429767Y-6595872D01*
X11429767Y-6307417D01*
X11179678Y-6307417D01*
X11179678Y-6595872D01*
G37*
G04 #@! TO.C,Q1*
G36*
X9939528Y-5935828D02*
X9939528Y-6185917D01*
X10227983Y-6185917D01*
X10227983Y-5935828D01*
X9939528Y-5935828D01*
G37*
G04 #@! TO.C,Q2*
G36*
X9939528Y-5173828D02*
X9939528Y-5423917D01*
X10227983Y-5423917D01*
X10227983Y-5173828D01*
X9939528Y-5173828D01*
G37*
G04 #@! TO.C,Q3*
G36*
X6942328Y-5935928D02*
X6942328Y-6186017D01*
X7230783Y-6186017D01*
X7230783Y-5935928D01*
X6942328Y-5935928D01*
G37*
G04 #@! TO.C,Q4*
G36*
X6942328Y-5173828D02*
X6942328Y-5423917D01*
X7230783Y-5423917D01*
X7230783Y-5173828D01*
X6942328Y-5173828D01*
G37*
G04 #@! TO.C,Q5*
G36*
X8440928Y-5935828D02*
X8440928Y-6185917D01*
X8729383Y-6185917D01*
X8729383Y-5935828D01*
X8440928Y-5935828D01*
G37*
G04 #@! TO.C,Q6*
G36*
X8440928Y-5173828D02*
X8440928Y-5423917D01*
X8729383Y-5423917D01*
X8729383Y-5173828D01*
X8440928Y-5173828D01*
G37*
G04 #@! TD*
G04 #@! TO.C,C5*
G36*
X4131864Y-9455117D02*
X4134230Y-9455468D01*
X4136551Y-9456050D01*
X4138803Y-9456855D01*
X4140965Y-9457878D01*
X4143017Y-9459108D01*
X4144938Y-9460533D01*
X4146711Y-9462139D01*
X4148317Y-9463912D01*
X4149742Y-9465833D01*
X4150972Y-9467885D01*
X4151995Y-9470047D01*
X4152800Y-9472299D01*
X4153382Y-9474620D01*
X4153733Y-9476986D01*
X4153850Y-9479375D01*
X4153850Y-9570625D01*
X4153733Y-9573014D01*
X4153382Y-9575380D01*
X4152800Y-9577701D01*
X4151995Y-9579953D01*
X4150972Y-9582115D01*
X4149742Y-9584167D01*
X4148317Y-9586088D01*
X4146711Y-9587861D01*
X4144938Y-9589467D01*
X4143017Y-9590892D01*
X4140965Y-9592122D01*
X4138803Y-9593145D01*
X4136551Y-9593950D01*
X4134230Y-9594532D01*
X4131864Y-9594883D01*
X4129475Y-9595000D01*
X4080725Y-9595000D01*
X4078336Y-9594883D01*
X4075970Y-9594532D01*
X4073649Y-9593950D01*
X4071397Y-9593145D01*
X4069235Y-9592122D01*
X4067183Y-9590892D01*
X4065262Y-9589467D01*
X4063489Y-9587861D01*
X4061883Y-9586088D01*
X4060458Y-9584167D01*
X4059228Y-9582115D01*
X4058205Y-9579953D01*
X4057400Y-9577701D01*
X4056818Y-9575380D01*
X4056467Y-9573014D01*
X4056350Y-9570625D01*
X4056350Y-9479375D01*
X4056467Y-9476986D01*
X4056818Y-9474620D01*
X4057400Y-9472299D01*
X4058205Y-9470047D01*
X4059228Y-9467885D01*
X4060458Y-9465833D01*
X4061883Y-9463912D01*
X4063489Y-9462139D01*
X4065262Y-9460533D01*
X4067183Y-9459108D01*
X4069235Y-9457878D01*
X4071397Y-9456855D01*
X4073649Y-9456050D01*
X4075970Y-9455468D01*
X4078336Y-9455117D01*
X4080725Y-9455000D01*
X4129475Y-9455000D01*
X4131864Y-9455117D01*
X4131864Y-9455117D01*
G37*
D12*
X4105100Y-9525000D03*
D11*
G36*
X4319364Y-9455117D02*
X4321730Y-9455468D01*
X4324051Y-9456050D01*
X4326303Y-9456855D01*
X4328465Y-9457878D01*
X4330517Y-9459108D01*
X4332438Y-9460533D01*
X4334211Y-9462139D01*
X4335817Y-9463912D01*
X4337242Y-9465833D01*
X4338472Y-9467885D01*
X4339495Y-9470047D01*
X4340300Y-9472299D01*
X4340882Y-9474620D01*
X4341233Y-9476986D01*
X4341350Y-9479375D01*
X4341350Y-9570625D01*
X4341233Y-9573014D01*
X4340882Y-9575380D01*
X4340300Y-9577701D01*
X4339495Y-9579953D01*
X4338472Y-9582115D01*
X4337242Y-9584167D01*
X4335817Y-9586088D01*
X4334211Y-9587861D01*
X4332438Y-9589467D01*
X4330517Y-9590892D01*
X4328465Y-9592122D01*
X4326303Y-9593145D01*
X4324051Y-9593950D01*
X4321730Y-9594532D01*
X4319364Y-9594883D01*
X4316975Y-9595000D01*
X4268225Y-9595000D01*
X4265836Y-9594883D01*
X4263470Y-9594532D01*
X4261149Y-9593950D01*
X4258897Y-9593145D01*
X4256735Y-9592122D01*
X4254683Y-9590892D01*
X4252762Y-9589467D01*
X4250989Y-9587861D01*
X4249383Y-9586088D01*
X4247958Y-9584167D01*
X4246728Y-9582115D01*
X4245705Y-9579953D01*
X4244900Y-9577701D01*
X4244318Y-9575380D01*
X4243967Y-9573014D01*
X4243850Y-9570625D01*
X4243850Y-9479375D01*
X4243967Y-9476986D01*
X4244318Y-9474620D01*
X4244900Y-9472299D01*
X4245705Y-9470047D01*
X4246728Y-9467885D01*
X4247958Y-9465833D01*
X4249383Y-9463912D01*
X4250989Y-9462139D01*
X4252762Y-9460533D01*
X4254683Y-9459108D01*
X4256735Y-9457878D01*
X4258897Y-9456855D01*
X4261149Y-9456050D01*
X4263470Y-9455468D01*
X4265836Y-9455117D01*
X4268225Y-9455000D01*
X4316975Y-9455000D01*
X4319364Y-9455117D01*
X4319364Y-9455117D01*
G37*
D12*
X4292600Y-9525000D03*
G04 #@! TD*
D11*
G04 #@! TO.C,C7*
G36*
X5576664Y-9213817D02*
X5579030Y-9214168D01*
X5581351Y-9214750D01*
X5583603Y-9215555D01*
X5585765Y-9216578D01*
X5587817Y-9217808D01*
X5589738Y-9219233D01*
X5591511Y-9220839D01*
X5593117Y-9222612D01*
X5594542Y-9224533D01*
X5595772Y-9226585D01*
X5596795Y-9228747D01*
X5597600Y-9230999D01*
X5598182Y-9233320D01*
X5598533Y-9235686D01*
X5598650Y-9238075D01*
X5598650Y-9329325D01*
X5598533Y-9331714D01*
X5598182Y-9334080D01*
X5597600Y-9336401D01*
X5596795Y-9338653D01*
X5595772Y-9340815D01*
X5594542Y-9342867D01*
X5593117Y-9344788D01*
X5591511Y-9346561D01*
X5589738Y-9348167D01*
X5587817Y-9349592D01*
X5585765Y-9350822D01*
X5583603Y-9351845D01*
X5581351Y-9352650D01*
X5579030Y-9353232D01*
X5576664Y-9353583D01*
X5574275Y-9353700D01*
X5525525Y-9353700D01*
X5523136Y-9353583D01*
X5520770Y-9353232D01*
X5518449Y-9352650D01*
X5516197Y-9351845D01*
X5514035Y-9350822D01*
X5511983Y-9349592D01*
X5510062Y-9348167D01*
X5508289Y-9346561D01*
X5506683Y-9344788D01*
X5505258Y-9342867D01*
X5504028Y-9340815D01*
X5503005Y-9338653D01*
X5502200Y-9336401D01*
X5501618Y-9334080D01*
X5501267Y-9331714D01*
X5501150Y-9329325D01*
X5501150Y-9238075D01*
X5501267Y-9235686D01*
X5501618Y-9233320D01*
X5502200Y-9230999D01*
X5503005Y-9228747D01*
X5504028Y-9226585D01*
X5505258Y-9224533D01*
X5506683Y-9222612D01*
X5508289Y-9220839D01*
X5510062Y-9219233D01*
X5511983Y-9217808D01*
X5514035Y-9216578D01*
X5516197Y-9215555D01*
X5518449Y-9214750D01*
X5520770Y-9214168D01*
X5523136Y-9213817D01*
X5525525Y-9213700D01*
X5574275Y-9213700D01*
X5576664Y-9213817D01*
X5576664Y-9213817D01*
G37*
D12*
X5549900Y-9283700D03*
D11*
G36*
X5389164Y-9213817D02*
X5391530Y-9214168D01*
X5393851Y-9214750D01*
X5396103Y-9215555D01*
X5398265Y-9216578D01*
X5400317Y-9217808D01*
X5402238Y-9219233D01*
X5404011Y-9220839D01*
X5405617Y-9222612D01*
X5407042Y-9224533D01*
X5408272Y-9226585D01*
X5409295Y-9228747D01*
X5410100Y-9230999D01*
X5410682Y-9233320D01*
X5411033Y-9235686D01*
X5411150Y-9238075D01*
X5411150Y-9329325D01*
X5411033Y-9331714D01*
X5410682Y-9334080D01*
X5410100Y-9336401D01*
X5409295Y-9338653D01*
X5408272Y-9340815D01*
X5407042Y-9342867D01*
X5405617Y-9344788D01*
X5404011Y-9346561D01*
X5402238Y-9348167D01*
X5400317Y-9349592D01*
X5398265Y-9350822D01*
X5396103Y-9351845D01*
X5393851Y-9352650D01*
X5391530Y-9353232D01*
X5389164Y-9353583D01*
X5386775Y-9353700D01*
X5338025Y-9353700D01*
X5335636Y-9353583D01*
X5333270Y-9353232D01*
X5330949Y-9352650D01*
X5328697Y-9351845D01*
X5326535Y-9350822D01*
X5324483Y-9349592D01*
X5322562Y-9348167D01*
X5320789Y-9346561D01*
X5319183Y-9344788D01*
X5317758Y-9342867D01*
X5316528Y-9340815D01*
X5315505Y-9338653D01*
X5314700Y-9336401D01*
X5314118Y-9334080D01*
X5313767Y-9331714D01*
X5313650Y-9329325D01*
X5313650Y-9238075D01*
X5313767Y-9235686D01*
X5314118Y-9233320D01*
X5314700Y-9230999D01*
X5315505Y-9228747D01*
X5316528Y-9226585D01*
X5317758Y-9224533D01*
X5319183Y-9222612D01*
X5320789Y-9220839D01*
X5322562Y-9219233D01*
X5324483Y-9217808D01*
X5326535Y-9216578D01*
X5328697Y-9215555D01*
X5330949Y-9214750D01*
X5333270Y-9214168D01*
X5335636Y-9213817D01*
X5338025Y-9213700D01*
X5386775Y-9213700D01*
X5389164Y-9213817D01*
X5389164Y-9213817D01*
G37*
D12*
X5362400Y-9283700D03*
G04 #@! TD*
D11*
G04 #@! TO.C,C8*
G36*
X4670814Y-8981067D02*
X4673180Y-8981418D01*
X4675501Y-8982000D01*
X4677753Y-8982805D01*
X4679915Y-8983828D01*
X4681967Y-8985058D01*
X4683888Y-8986483D01*
X4685661Y-8988089D01*
X4687267Y-8989862D01*
X4688692Y-8991783D01*
X4689922Y-8993835D01*
X4690945Y-8995997D01*
X4691750Y-8998249D01*
X4692332Y-9000570D01*
X4692683Y-9002936D01*
X4692800Y-9005325D01*
X4692800Y-9054075D01*
X4692683Y-9056464D01*
X4692332Y-9058830D01*
X4691750Y-9061151D01*
X4690945Y-9063403D01*
X4689922Y-9065565D01*
X4688692Y-9067617D01*
X4687267Y-9069538D01*
X4685661Y-9071311D01*
X4683888Y-9072917D01*
X4681967Y-9074342D01*
X4679915Y-9075572D01*
X4677753Y-9076595D01*
X4675501Y-9077400D01*
X4673180Y-9077982D01*
X4670814Y-9078333D01*
X4668425Y-9078450D01*
X4577175Y-9078450D01*
X4574786Y-9078333D01*
X4572420Y-9077982D01*
X4570099Y-9077400D01*
X4567847Y-9076595D01*
X4565685Y-9075572D01*
X4563633Y-9074342D01*
X4561712Y-9072917D01*
X4559939Y-9071311D01*
X4558333Y-9069538D01*
X4556908Y-9067617D01*
X4555678Y-9065565D01*
X4554655Y-9063403D01*
X4553850Y-9061151D01*
X4553268Y-9058830D01*
X4552917Y-9056464D01*
X4552800Y-9054075D01*
X4552800Y-9005325D01*
X4552917Y-9002936D01*
X4553268Y-9000570D01*
X4553850Y-8998249D01*
X4554655Y-8995997D01*
X4555678Y-8993835D01*
X4556908Y-8991783D01*
X4558333Y-8989862D01*
X4559939Y-8988089D01*
X4561712Y-8986483D01*
X4563633Y-8985058D01*
X4565685Y-8983828D01*
X4567847Y-8982805D01*
X4570099Y-8982000D01*
X4572420Y-8981418D01*
X4574786Y-8981067D01*
X4577175Y-8980950D01*
X4668425Y-8980950D01*
X4670814Y-8981067D01*
X4670814Y-8981067D01*
G37*
D12*
X4622800Y-9029700D03*
D11*
G36*
X4670814Y-8793567D02*
X4673180Y-8793918D01*
X4675501Y-8794500D01*
X4677753Y-8795305D01*
X4679915Y-8796328D01*
X4681967Y-8797558D01*
X4683888Y-8798983D01*
X4685661Y-8800589D01*
X4687267Y-8802362D01*
X4688692Y-8804283D01*
X4689922Y-8806335D01*
X4690945Y-8808497D01*
X4691750Y-8810749D01*
X4692332Y-8813070D01*
X4692683Y-8815436D01*
X4692800Y-8817825D01*
X4692800Y-8866575D01*
X4692683Y-8868964D01*
X4692332Y-8871330D01*
X4691750Y-8873651D01*
X4690945Y-8875903D01*
X4689922Y-8878065D01*
X4688692Y-8880117D01*
X4687267Y-8882038D01*
X4685661Y-8883811D01*
X4683888Y-8885417D01*
X4681967Y-8886842D01*
X4679915Y-8888072D01*
X4677753Y-8889095D01*
X4675501Y-8889900D01*
X4673180Y-8890482D01*
X4670814Y-8890833D01*
X4668425Y-8890950D01*
X4577175Y-8890950D01*
X4574786Y-8890833D01*
X4572420Y-8890482D01*
X4570099Y-8889900D01*
X4567847Y-8889095D01*
X4565685Y-8888072D01*
X4563633Y-8886842D01*
X4561712Y-8885417D01*
X4559939Y-8883811D01*
X4558333Y-8882038D01*
X4556908Y-8880117D01*
X4555678Y-8878065D01*
X4554655Y-8875903D01*
X4553850Y-8873651D01*
X4553268Y-8871330D01*
X4552917Y-8868964D01*
X4552800Y-8866575D01*
X4552800Y-8817825D01*
X4552917Y-8815436D01*
X4553268Y-8813070D01*
X4553850Y-8810749D01*
X4554655Y-8808497D01*
X4555678Y-8806335D01*
X4556908Y-8804283D01*
X4558333Y-8802362D01*
X4559939Y-8800589D01*
X4561712Y-8798983D01*
X4563633Y-8797558D01*
X4565685Y-8796328D01*
X4567847Y-8795305D01*
X4570099Y-8794500D01*
X4572420Y-8793918D01*
X4574786Y-8793567D01*
X4577175Y-8793450D01*
X4668425Y-8793450D01*
X4670814Y-8793567D01*
X4670814Y-8793567D01*
G37*
D12*
X4622800Y-8842200D03*
G04 #@! TD*
D11*
G04 #@! TO.C,C9*
G36*
X4893864Y-9226517D02*
X4896230Y-9226868D01*
X4898551Y-9227450D01*
X4900803Y-9228255D01*
X4902965Y-9229278D01*
X4905017Y-9230508D01*
X4906938Y-9231933D01*
X4908711Y-9233539D01*
X4910317Y-9235312D01*
X4911742Y-9237233D01*
X4912972Y-9239285D01*
X4913995Y-9241447D01*
X4914800Y-9243699D01*
X4915382Y-9246020D01*
X4915733Y-9248386D01*
X4915850Y-9250775D01*
X4915850Y-9342025D01*
X4915733Y-9344414D01*
X4915382Y-9346780D01*
X4914800Y-9349101D01*
X4913995Y-9351353D01*
X4912972Y-9353515D01*
X4911742Y-9355567D01*
X4910317Y-9357488D01*
X4908711Y-9359261D01*
X4906938Y-9360867D01*
X4905017Y-9362292D01*
X4902965Y-9363522D01*
X4900803Y-9364545D01*
X4898551Y-9365350D01*
X4896230Y-9365932D01*
X4893864Y-9366283D01*
X4891475Y-9366400D01*
X4842725Y-9366400D01*
X4840336Y-9366283D01*
X4837970Y-9365932D01*
X4835649Y-9365350D01*
X4833397Y-9364545D01*
X4831235Y-9363522D01*
X4829183Y-9362292D01*
X4827262Y-9360867D01*
X4825489Y-9359261D01*
X4823883Y-9357488D01*
X4822458Y-9355567D01*
X4821228Y-9353515D01*
X4820205Y-9351353D01*
X4819400Y-9349101D01*
X4818818Y-9346780D01*
X4818467Y-9344414D01*
X4818350Y-9342025D01*
X4818350Y-9250775D01*
X4818467Y-9248386D01*
X4818818Y-9246020D01*
X4819400Y-9243699D01*
X4820205Y-9241447D01*
X4821228Y-9239285D01*
X4822458Y-9237233D01*
X4823883Y-9235312D01*
X4825489Y-9233539D01*
X4827262Y-9231933D01*
X4829183Y-9230508D01*
X4831235Y-9229278D01*
X4833397Y-9228255D01*
X4835649Y-9227450D01*
X4837970Y-9226868D01*
X4840336Y-9226517D01*
X4842725Y-9226400D01*
X4891475Y-9226400D01*
X4893864Y-9226517D01*
X4893864Y-9226517D01*
G37*
D12*
X4867100Y-9296400D03*
D11*
G36*
X5081364Y-9226517D02*
X5083730Y-9226868D01*
X5086051Y-9227450D01*
X5088303Y-9228255D01*
X5090465Y-9229278D01*
X5092517Y-9230508D01*
X5094438Y-9231933D01*
X5096211Y-9233539D01*
X5097817Y-9235312D01*
X5099242Y-9237233D01*
X5100472Y-9239285D01*
X5101495Y-9241447D01*
X5102300Y-9243699D01*
X5102882Y-9246020D01*
X5103233Y-9248386D01*
X5103350Y-9250775D01*
X5103350Y-9342025D01*
X5103233Y-9344414D01*
X5102882Y-9346780D01*
X5102300Y-9349101D01*
X5101495Y-9351353D01*
X5100472Y-9353515D01*
X5099242Y-9355567D01*
X5097817Y-9357488D01*
X5096211Y-9359261D01*
X5094438Y-9360867D01*
X5092517Y-9362292D01*
X5090465Y-9363522D01*
X5088303Y-9364545D01*
X5086051Y-9365350D01*
X5083730Y-9365932D01*
X5081364Y-9366283D01*
X5078975Y-9366400D01*
X5030225Y-9366400D01*
X5027836Y-9366283D01*
X5025470Y-9365932D01*
X5023149Y-9365350D01*
X5020897Y-9364545D01*
X5018735Y-9363522D01*
X5016683Y-9362292D01*
X5014762Y-9360867D01*
X5012989Y-9359261D01*
X5011383Y-9357488D01*
X5009958Y-9355567D01*
X5008728Y-9353515D01*
X5007705Y-9351353D01*
X5006900Y-9349101D01*
X5006318Y-9346780D01*
X5005967Y-9344414D01*
X5005850Y-9342025D01*
X5005850Y-9250775D01*
X5005967Y-9248386D01*
X5006318Y-9246020D01*
X5006900Y-9243699D01*
X5007705Y-9241447D01*
X5008728Y-9239285D01*
X5009958Y-9237233D01*
X5011383Y-9235312D01*
X5012989Y-9233539D01*
X5014762Y-9231933D01*
X5016683Y-9230508D01*
X5018735Y-9229278D01*
X5020897Y-9228255D01*
X5023149Y-9227450D01*
X5025470Y-9226868D01*
X5027836Y-9226517D01*
X5030225Y-9226400D01*
X5078975Y-9226400D01*
X5081364Y-9226517D01*
X5081364Y-9226517D01*
G37*
D12*
X5054600Y-9296400D03*
G04 #@! TD*
D11*
G04 #@! TO.C,C13*
G36*
X4319364Y-9683717D02*
X4321730Y-9684068D01*
X4324051Y-9684650D01*
X4326303Y-9685455D01*
X4328465Y-9686478D01*
X4330517Y-9687708D01*
X4332438Y-9689133D01*
X4334211Y-9690739D01*
X4335817Y-9692512D01*
X4337242Y-9694433D01*
X4338472Y-9696485D01*
X4339495Y-9698647D01*
X4340300Y-9700899D01*
X4340882Y-9703220D01*
X4341233Y-9705586D01*
X4341350Y-9707975D01*
X4341350Y-9799225D01*
X4341233Y-9801614D01*
X4340882Y-9803980D01*
X4340300Y-9806301D01*
X4339495Y-9808553D01*
X4338472Y-9810715D01*
X4337242Y-9812767D01*
X4335817Y-9814688D01*
X4334211Y-9816461D01*
X4332438Y-9818067D01*
X4330517Y-9819492D01*
X4328465Y-9820722D01*
X4326303Y-9821745D01*
X4324051Y-9822550D01*
X4321730Y-9823132D01*
X4319364Y-9823483D01*
X4316975Y-9823600D01*
X4268225Y-9823600D01*
X4265836Y-9823483D01*
X4263470Y-9823132D01*
X4261149Y-9822550D01*
X4258897Y-9821745D01*
X4256735Y-9820722D01*
X4254683Y-9819492D01*
X4252762Y-9818067D01*
X4250989Y-9816461D01*
X4249383Y-9814688D01*
X4247958Y-9812767D01*
X4246728Y-9810715D01*
X4245705Y-9808553D01*
X4244900Y-9806301D01*
X4244318Y-9803980D01*
X4243967Y-9801614D01*
X4243850Y-9799225D01*
X4243850Y-9707975D01*
X4243967Y-9705586D01*
X4244318Y-9703220D01*
X4244900Y-9700899D01*
X4245705Y-9698647D01*
X4246728Y-9696485D01*
X4247958Y-9694433D01*
X4249383Y-9692512D01*
X4250989Y-9690739D01*
X4252762Y-9689133D01*
X4254683Y-9687708D01*
X4256735Y-9686478D01*
X4258897Y-9685455D01*
X4261149Y-9684650D01*
X4263470Y-9684068D01*
X4265836Y-9683717D01*
X4268225Y-9683600D01*
X4316975Y-9683600D01*
X4319364Y-9683717D01*
X4319364Y-9683717D01*
G37*
D12*
X4292600Y-9753600D03*
D11*
G36*
X4131864Y-9683717D02*
X4134230Y-9684068D01*
X4136551Y-9684650D01*
X4138803Y-9685455D01*
X4140965Y-9686478D01*
X4143017Y-9687708D01*
X4144938Y-9689133D01*
X4146711Y-9690739D01*
X4148317Y-9692512D01*
X4149742Y-9694433D01*
X4150972Y-9696485D01*
X4151995Y-9698647D01*
X4152800Y-9700899D01*
X4153382Y-9703220D01*
X4153733Y-9705586D01*
X4153850Y-9707975D01*
X4153850Y-9799225D01*
X4153733Y-9801614D01*
X4153382Y-9803980D01*
X4152800Y-9806301D01*
X4151995Y-9808553D01*
X4150972Y-9810715D01*
X4149742Y-9812767D01*
X4148317Y-9814688D01*
X4146711Y-9816461D01*
X4144938Y-9818067D01*
X4143017Y-9819492D01*
X4140965Y-9820722D01*
X4138803Y-9821745D01*
X4136551Y-9822550D01*
X4134230Y-9823132D01*
X4131864Y-9823483D01*
X4129475Y-9823600D01*
X4080725Y-9823600D01*
X4078336Y-9823483D01*
X4075970Y-9823132D01*
X4073649Y-9822550D01*
X4071397Y-9821745D01*
X4069235Y-9820722D01*
X4067183Y-9819492D01*
X4065262Y-9818067D01*
X4063489Y-9816461D01*
X4061883Y-9814688D01*
X4060458Y-9812767D01*
X4059228Y-9810715D01*
X4058205Y-9808553D01*
X4057400Y-9806301D01*
X4056818Y-9803980D01*
X4056467Y-9801614D01*
X4056350Y-9799225D01*
X4056350Y-9707975D01*
X4056467Y-9705586D01*
X4056818Y-9703220D01*
X4057400Y-9700899D01*
X4058205Y-9698647D01*
X4059228Y-9696485D01*
X4060458Y-9694433D01*
X4061883Y-9692512D01*
X4063489Y-9690739D01*
X4065262Y-9689133D01*
X4067183Y-9687708D01*
X4069235Y-9686478D01*
X4071397Y-9685455D01*
X4073649Y-9684650D01*
X4075970Y-9684068D01*
X4078336Y-9683717D01*
X4080725Y-9683600D01*
X4129475Y-9683600D01*
X4131864Y-9683717D01*
X4131864Y-9683717D01*
G37*
D12*
X4105100Y-9753600D03*
G04 #@! TD*
D11*
G04 #@! TO.C,C15*
G36*
X5487764Y-7499317D02*
X5490130Y-7499668D01*
X5492451Y-7500250D01*
X5494703Y-7501055D01*
X5496865Y-7502078D01*
X5498917Y-7503308D01*
X5500838Y-7504733D01*
X5502611Y-7506339D01*
X5504217Y-7508112D01*
X5505642Y-7510033D01*
X5506872Y-7512085D01*
X5507895Y-7514247D01*
X5508700Y-7516499D01*
X5509282Y-7518820D01*
X5509633Y-7521186D01*
X5509750Y-7523575D01*
X5509750Y-7614825D01*
X5509633Y-7617214D01*
X5509282Y-7619580D01*
X5508700Y-7621901D01*
X5507895Y-7624153D01*
X5506872Y-7626315D01*
X5505642Y-7628367D01*
X5504217Y-7630288D01*
X5502611Y-7632061D01*
X5500838Y-7633667D01*
X5498917Y-7635092D01*
X5496865Y-7636322D01*
X5494703Y-7637345D01*
X5492451Y-7638150D01*
X5490130Y-7638732D01*
X5487764Y-7639083D01*
X5485375Y-7639200D01*
X5436625Y-7639200D01*
X5434236Y-7639083D01*
X5431870Y-7638732D01*
X5429549Y-7638150D01*
X5427297Y-7637345D01*
X5425135Y-7636322D01*
X5423083Y-7635092D01*
X5421162Y-7633667D01*
X5419389Y-7632061D01*
X5417783Y-7630288D01*
X5416358Y-7628367D01*
X5415128Y-7626315D01*
X5414105Y-7624153D01*
X5413300Y-7621901D01*
X5412718Y-7619580D01*
X5412367Y-7617214D01*
X5412250Y-7614825D01*
X5412250Y-7523575D01*
X5412367Y-7521186D01*
X5412718Y-7518820D01*
X5413300Y-7516499D01*
X5414105Y-7514247D01*
X5415128Y-7512085D01*
X5416358Y-7510033D01*
X5417783Y-7508112D01*
X5419389Y-7506339D01*
X5421162Y-7504733D01*
X5423083Y-7503308D01*
X5425135Y-7502078D01*
X5427297Y-7501055D01*
X5429549Y-7500250D01*
X5431870Y-7499668D01*
X5434236Y-7499317D01*
X5436625Y-7499200D01*
X5485375Y-7499200D01*
X5487764Y-7499317D01*
X5487764Y-7499317D01*
G37*
D12*
X5461000Y-7569200D03*
D11*
G36*
X5675264Y-7499317D02*
X5677630Y-7499668D01*
X5679951Y-7500250D01*
X5682203Y-7501055D01*
X5684365Y-7502078D01*
X5686417Y-7503308D01*
X5688338Y-7504733D01*
X5690111Y-7506339D01*
X5691717Y-7508112D01*
X5693142Y-7510033D01*
X5694372Y-7512085D01*
X5695395Y-7514247D01*
X5696200Y-7516499D01*
X5696782Y-7518820D01*
X5697133Y-7521186D01*
X5697250Y-7523575D01*
X5697250Y-7614825D01*
X5697133Y-7617214D01*
X5696782Y-7619580D01*
X5696200Y-7621901D01*
X5695395Y-7624153D01*
X5694372Y-7626315D01*
X5693142Y-7628367D01*
X5691717Y-7630288D01*
X5690111Y-7632061D01*
X5688338Y-7633667D01*
X5686417Y-7635092D01*
X5684365Y-7636322D01*
X5682203Y-7637345D01*
X5679951Y-7638150D01*
X5677630Y-7638732D01*
X5675264Y-7639083D01*
X5672875Y-7639200D01*
X5624125Y-7639200D01*
X5621736Y-7639083D01*
X5619370Y-7638732D01*
X5617049Y-7638150D01*
X5614797Y-7637345D01*
X5612635Y-7636322D01*
X5610583Y-7635092D01*
X5608662Y-7633667D01*
X5606889Y-7632061D01*
X5605283Y-7630288D01*
X5603858Y-7628367D01*
X5602628Y-7626315D01*
X5601605Y-7624153D01*
X5600800Y-7621901D01*
X5600218Y-7619580D01*
X5599867Y-7617214D01*
X5599750Y-7614825D01*
X5599750Y-7523575D01*
X5599867Y-7521186D01*
X5600218Y-7518820D01*
X5600800Y-7516499D01*
X5601605Y-7514247D01*
X5602628Y-7512085D01*
X5603858Y-7510033D01*
X5605283Y-7508112D01*
X5606889Y-7506339D01*
X5608662Y-7504733D01*
X5610583Y-7503308D01*
X5612635Y-7502078D01*
X5614797Y-7501055D01*
X5617049Y-7500250D01*
X5619370Y-7499668D01*
X5621736Y-7499317D01*
X5624125Y-7499200D01*
X5672875Y-7499200D01*
X5675264Y-7499317D01*
X5675264Y-7499317D01*
G37*
D12*
X5648500Y-7569200D03*
G04 #@! TD*
D11*
G04 #@! TO.C,C17*
G36*
X4954364Y-8058117D02*
X4956730Y-8058468D01*
X4959051Y-8059050D01*
X4961303Y-8059855D01*
X4963465Y-8060878D01*
X4965517Y-8062108D01*
X4967438Y-8063533D01*
X4969211Y-8065139D01*
X4970817Y-8066912D01*
X4972242Y-8068833D01*
X4973472Y-8070885D01*
X4974495Y-8073047D01*
X4975300Y-8075299D01*
X4975882Y-8077620D01*
X4976233Y-8079986D01*
X4976350Y-8082375D01*
X4976350Y-8173625D01*
X4976233Y-8176014D01*
X4975882Y-8178380D01*
X4975300Y-8180701D01*
X4974495Y-8182953D01*
X4973472Y-8185115D01*
X4972242Y-8187167D01*
X4970817Y-8189088D01*
X4969211Y-8190861D01*
X4967438Y-8192467D01*
X4965517Y-8193892D01*
X4963465Y-8195122D01*
X4961303Y-8196145D01*
X4959051Y-8196950D01*
X4956730Y-8197532D01*
X4954364Y-8197883D01*
X4951975Y-8198000D01*
X4903225Y-8198000D01*
X4900836Y-8197883D01*
X4898470Y-8197532D01*
X4896149Y-8196950D01*
X4893897Y-8196145D01*
X4891735Y-8195122D01*
X4889683Y-8193892D01*
X4887762Y-8192467D01*
X4885989Y-8190861D01*
X4884383Y-8189088D01*
X4882958Y-8187167D01*
X4881728Y-8185115D01*
X4880705Y-8182953D01*
X4879900Y-8180701D01*
X4879318Y-8178380D01*
X4878967Y-8176014D01*
X4878850Y-8173625D01*
X4878850Y-8082375D01*
X4878967Y-8079986D01*
X4879318Y-8077620D01*
X4879900Y-8075299D01*
X4880705Y-8073047D01*
X4881728Y-8070885D01*
X4882958Y-8068833D01*
X4884383Y-8066912D01*
X4885989Y-8065139D01*
X4887762Y-8063533D01*
X4889683Y-8062108D01*
X4891735Y-8060878D01*
X4893897Y-8059855D01*
X4896149Y-8059050D01*
X4898470Y-8058468D01*
X4900836Y-8058117D01*
X4903225Y-8058000D01*
X4951975Y-8058000D01*
X4954364Y-8058117D01*
X4954364Y-8058117D01*
G37*
D12*
X4927600Y-8128000D03*
D11*
G36*
X4766864Y-8058117D02*
X4769230Y-8058468D01*
X4771551Y-8059050D01*
X4773803Y-8059855D01*
X4775965Y-8060878D01*
X4778017Y-8062108D01*
X4779938Y-8063533D01*
X4781711Y-8065139D01*
X4783317Y-8066912D01*
X4784742Y-8068833D01*
X4785972Y-8070885D01*
X4786995Y-8073047D01*
X4787800Y-8075299D01*
X4788382Y-8077620D01*
X4788733Y-8079986D01*
X4788850Y-8082375D01*
X4788850Y-8173625D01*
X4788733Y-8176014D01*
X4788382Y-8178380D01*
X4787800Y-8180701D01*
X4786995Y-8182953D01*
X4785972Y-8185115D01*
X4784742Y-8187167D01*
X4783317Y-8189088D01*
X4781711Y-8190861D01*
X4779938Y-8192467D01*
X4778017Y-8193892D01*
X4775965Y-8195122D01*
X4773803Y-8196145D01*
X4771551Y-8196950D01*
X4769230Y-8197532D01*
X4766864Y-8197883D01*
X4764475Y-8198000D01*
X4715725Y-8198000D01*
X4713336Y-8197883D01*
X4710970Y-8197532D01*
X4708649Y-8196950D01*
X4706397Y-8196145D01*
X4704235Y-8195122D01*
X4702183Y-8193892D01*
X4700262Y-8192467D01*
X4698489Y-8190861D01*
X4696883Y-8189088D01*
X4695458Y-8187167D01*
X4694228Y-8185115D01*
X4693205Y-8182953D01*
X4692400Y-8180701D01*
X4691818Y-8178380D01*
X4691467Y-8176014D01*
X4691350Y-8173625D01*
X4691350Y-8082375D01*
X4691467Y-8079986D01*
X4691818Y-8077620D01*
X4692400Y-8075299D01*
X4693205Y-8073047D01*
X4694228Y-8070885D01*
X4695458Y-8068833D01*
X4696883Y-8066912D01*
X4698489Y-8065139D01*
X4700262Y-8063533D01*
X4702183Y-8062108D01*
X4704235Y-8060878D01*
X4706397Y-8059855D01*
X4708649Y-8059050D01*
X4710970Y-8058468D01*
X4713336Y-8058117D01*
X4715725Y-8058000D01*
X4764475Y-8058000D01*
X4766864Y-8058117D01*
X4766864Y-8058117D01*
G37*
D12*
X4740100Y-8128000D03*
G04 #@! TD*
D11*
G04 #@! TO.C,C18*
G36*
X5495614Y-7270717D02*
X5497980Y-7271068D01*
X5500301Y-7271650D01*
X5502553Y-7272455D01*
X5504715Y-7273478D01*
X5506767Y-7274708D01*
X5508688Y-7276133D01*
X5510461Y-7277739D01*
X5512067Y-7279512D01*
X5513492Y-7281433D01*
X5514722Y-7283485D01*
X5515745Y-7285647D01*
X5516550Y-7287899D01*
X5517132Y-7290220D01*
X5517483Y-7292586D01*
X5517600Y-7294975D01*
X5517600Y-7386225D01*
X5517483Y-7388614D01*
X5517132Y-7390980D01*
X5516550Y-7393301D01*
X5515745Y-7395553D01*
X5514722Y-7397715D01*
X5513492Y-7399767D01*
X5512067Y-7401688D01*
X5510461Y-7403461D01*
X5508688Y-7405067D01*
X5506767Y-7406492D01*
X5504715Y-7407722D01*
X5502553Y-7408745D01*
X5500301Y-7409550D01*
X5497980Y-7410132D01*
X5495614Y-7410483D01*
X5493225Y-7410600D01*
X5444475Y-7410600D01*
X5442086Y-7410483D01*
X5439720Y-7410132D01*
X5437399Y-7409550D01*
X5435147Y-7408745D01*
X5432985Y-7407722D01*
X5430933Y-7406492D01*
X5429012Y-7405067D01*
X5427239Y-7403461D01*
X5425633Y-7401688D01*
X5424208Y-7399767D01*
X5422978Y-7397715D01*
X5421955Y-7395553D01*
X5421150Y-7393301D01*
X5420568Y-7390980D01*
X5420217Y-7388614D01*
X5420100Y-7386225D01*
X5420100Y-7294975D01*
X5420217Y-7292586D01*
X5420568Y-7290220D01*
X5421150Y-7287899D01*
X5421955Y-7285647D01*
X5422978Y-7283485D01*
X5424208Y-7281433D01*
X5425633Y-7279512D01*
X5427239Y-7277739D01*
X5429012Y-7276133D01*
X5430933Y-7274708D01*
X5432985Y-7273478D01*
X5435147Y-7272455D01*
X5437399Y-7271650D01*
X5439720Y-7271068D01*
X5442086Y-7270717D01*
X5444475Y-7270600D01*
X5493225Y-7270600D01*
X5495614Y-7270717D01*
X5495614Y-7270717D01*
G37*
D12*
X5468850Y-7340600D03*
D11*
G36*
X5683114Y-7270717D02*
X5685480Y-7271068D01*
X5687801Y-7271650D01*
X5690053Y-7272455D01*
X5692215Y-7273478D01*
X5694267Y-7274708D01*
X5696188Y-7276133D01*
X5697961Y-7277739D01*
X5699567Y-7279512D01*
X5700992Y-7281433D01*
X5702222Y-7283485D01*
X5703245Y-7285647D01*
X5704050Y-7287899D01*
X5704632Y-7290220D01*
X5704983Y-7292586D01*
X5705100Y-7294975D01*
X5705100Y-7386225D01*
X5704983Y-7388614D01*
X5704632Y-7390980D01*
X5704050Y-7393301D01*
X5703245Y-7395553D01*
X5702222Y-7397715D01*
X5700992Y-7399767D01*
X5699567Y-7401688D01*
X5697961Y-7403461D01*
X5696188Y-7405067D01*
X5694267Y-7406492D01*
X5692215Y-7407722D01*
X5690053Y-7408745D01*
X5687801Y-7409550D01*
X5685480Y-7410132D01*
X5683114Y-7410483D01*
X5680725Y-7410600D01*
X5631975Y-7410600D01*
X5629586Y-7410483D01*
X5627220Y-7410132D01*
X5624899Y-7409550D01*
X5622647Y-7408745D01*
X5620485Y-7407722D01*
X5618433Y-7406492D01*
X5616512Y-7405067D01*
X5614739Y-7403461D01*
X5613133Y-7401688D01*
X5611708Y-7399767D01*
X5610478Y-7397715D01*
X5609455Y-7395553D01*
X5608650Y-7393301D01*
X5608068Y-7390980D01*
X5607717Y-7388614D01*
X5607600Y-7386225D01*
X5607600Y-7294975D01*
X5607717Y-7292586D01*
X5608068Y-7290220D01*
X5608650Y-7287899D01*
X5609455Y-7285647D01*
X5610478Y-7283485D01*
X5611708Y-7281433D01*
X5613133Y-7279512D01*
X5614739Y-7277739D01*
X5616512Y-7276133D01*
X5618433Y-7274708D01*
X5620485Y-7273478D01*
X5622647Y-7272455D01*
X5624899Y-7271650D01*
X5627220Y-7271068D01*
X5629586Y-7270717D01*
X5631975Y-7270600D01*
X5680725Y-7270600D01*
X5683114Y-7270717D01*
X5683114Y-7270717D01*
G37*
D12*
X5656350Y-7340600D03*
G04 #@! TD*
D11*
G04 #@! TO.C,C20*
G36*
X4954364Y-7829517D02*
X4956730Y-7829868D01*
X4959051Y-7830450D01*
X4961303Y-7831255D01*
X4963465Y-7832278D01*
X4965517Y-7833508D01*
X4967438Y-7834933D01*
X4969211Y-7836539D01*
X4970817Y-7838312D01*
X4972242Y-7840233D01*
X4973472Y-7842285D01*
X4974495Y-7844447D01*
X4975300Y-7846699D01*
X4975882Y-7849020D01*
X4976233Y-7851386D01*
X4976350Y-7853775D01*
X4976350Y-7945025D01*
X4976233Y-7947414D01*
X4975882Y-7949780D01*
X4975300Y-7952101D01*
X4974495Y-7954353D01*
X4973472Y-7956515D01*
X4972242Y-7958567D01*
X4970817Y-7960488D01*
X4969211Y-7962261D01*
X4967438Y-7963867D01*
X4965517Y-7965292D01*
X4963465Y-7966522D01*
X4961303Y-7967545D01*
X4959051Y-7968350D01*
X4956730Y-7968932D01*
X4954364Y-7969283D01*
X4951975Y-7969400D01*
X4903225Y-7969400D01*
X4900836Y-7969283D01*
X4898470Y-7968932D01*
X4896149Y-7968350D01*
X4893897Y-7967545D01*
X4891735Y-7966522D01*
X4889683Y-7965292D01*
X4887762Y-7963867D01*
X4885989Y-7962261D01*
X4884383Y-7960488D01*
X4882958Y-7958567D01*
X4881728Y-7956515D01*
X4880705Y-7954353D01*
X4879900Y-7952101D01*
X4879318Y-7949780D01*
X4878967Y-7947414D01*
X4878850Y-7945025D01*
X4878850Y-7853775D01*
X4878967Y-7851386D01*
X4879318Y-7849020D01*
X4879900Y-7846699D01*
X4880705Y-7844447D01*
X4881728Y-7842285D01*
X4882958Y-7840233D01*
X4884383Y-7838312D01*
X4885989Y-7836539D01*
X4887762Y-7834933D01*
X4889683Y-7833508D01*
X4891735Y-7832278D01*
X4893897Y-7831255D01*
X4896149Y-7830450D01*
X4898470Y-7829868D01*
X4900836Y-7829517D01*
X4903225Y-7829400D01*
X4951975Y-7829400D01*
X4954364Y-7829517D01*
X4954364Y-7829517D01*
G37*
D12*
X4927600Y-7899400D03*
D11*
G36*
X4766864Y-7829517D02*
X4769230Y-7829868D01*
X4771551Y-7830450D01*
X4773803Y-7831255D01*
X4775965Y-7832278D01*
X4778017Y-7833508D01*
X4779938Y-7834933D01*
X4781711Y-7836539D01*
X4783317Y-7838312D01*
X4784742Y-7840233D01*
X4785972Y-7842285D01*
X4786995Y-7844447D01*
X4787800Y-7846699D01*
X4788382Y-7849020D01*
X4788733Y-7851386D01*
X4788850Y-7853775D01*
X4788850Y-7945025D01*
X4788733Y-7947414D01*
X4788382Y-7949780D01*
X4787800Y-7952101D01*
X4786995Y-7954353D01*
X4785972Y-7956515D01*
X4784742Y-7958567D01*
X4783317Y-7960488D01*
X4781711Y-7962261D01*
X4779938Y-7963867D01*
X4778017Y-7965292D01*
X4775965Y-7966522D01*
X4773803Y-7967545D01*
X4771551Y-7968350D01*
X4769230Y-7968932D01*
X4766864Y-7969283D01*
X4764475Y-7969400D01*
X4715725Y-7969400D01*
X4713336Y-7969283D01*
X4710970Y-7968932D01*
X4708649Y-7968350D01*
X4706397Y-7967545D01*
X4704235Y-7966522D01*
X4702183Y-7965292D01*
X4700262Y-7963867D01*
X4698489Y-7962261D01*
X4696883Y-7960488D01*
X4695458Y-7958567D01*
X4694228Y-7956515D01*
X4693205Y-7954353D01*
X4692400Y-7952101D01*
X4691818Y-7949780D01*
X4691467Y-7947414D01*
X4691350Y-7945025D01*
X4691350Y-7853775D01*
X4691467Y-7851386D01*
X4691818Y-7849020D01*
X4692400Y-7846699D01*
X4693205Y-7844447D01*
X4694228Y-7842285D01*
X4695458Y-7840233D01*
X4696883Y-7838312D01*
X4698489Y-7836539D01*
X4700262Y-7834933D01*
X4702183Y-7833508D01*
X4704235Y-7832278D01*
X4706397Y-7831255D01*
X4708649Y-7830450D01*
X4710970Y-7829868D01*
X4713336Y-7829517D01*
X4715725Y-7829400D01*
X4764475Y-7829400D01*
X4766864Y-7829517D01*
X4766864Y-7829517D01*
G37*
D12*
X4740100Y-7899400D03*
G04 #@! TD*
D11*
G04 #@! TO.C,C36*
G36*
X11133550Y-5601220D02*
X11135977Y-5601580D01*
X11138357Y-5602176D01*
X11140667Y-5603003D01*
X11142885Y-5604052D01*
X11144989Y-5605313D01*
X11146960Y-5606775D01*
X11148778Y-5608422D01*
X11150425Y-5610240D01*
X11151887Y-5612211D01*
X11153148Y-5614315D01*
X11154197Y-5616533D01*
X11155024Y-5618843D01*
X11155620Y-5621223D01*
X11155980Y-5623650D01*
X11156100Y-5626100D01*
X11156100Y-5701100D01*
X11155980Y-5703550D01*
X11155620Y-5705977D01*
X11155024Y-5708357D01*
X11154197Y-5710667D01*
X11153148Y-5712885D01*
X11151887Y-5714989D01*
X11150425Y-5716960D01*
X11148778Y-5718778D01*
X11146960Y-5720425D01*
X11144989Y-5721887D01*
X11142885Y-5723148D01*
X11140667Y-5724197D01*
X11138357Y-5725023D01*
X11135977Y-5725620D01*
X11133550Y-5725980D01*
X11131100Y-5726100D01*
X10916100Y-5726100D01*
X10913650Y-5725980D01*
X10911223Y-5725620D01*
X10908843Y-5725023D01*
X10906533Y-5724197D01*
X10904315Y-5723148D01*
X10902211Y-5721887D01*
X10900240Y-5720425D01*
X10898422Y-5718778D01*
X10896775Y-5716960D01*
X10895313Y-5714989D01*
X10894052Y-5712885D01*
X10893003Y-5710667D01*
X10892177Y-5708357D01*
X10891580Y-5705977D01*
X10891220Y-5703550D01*
X10891100Y-5701100D01*
X10891100Y-5626100D01*
X10891220Y-5623650D01*
X10891580Y-5621223D01*
X10892177Y-5618843D01*
X10893003Y-5616533D01*
X10894052Y-5614315D01*
X10895313Y-5612211D01*
X10896775Y-5610240D01*
X10898422Y-5608422D01*
X10900240Y-5606775D01*
X10902211Y-5605313D01*
X10904315Y-5604052D01*
X10906533Y-5603003D01*
X10908843Y-5602176D01*
X10911223Y-5601580D01*
X10913650Y-5601220D01*
X10916100Y-5601100D01*
X11131100Y-5601100D01*
X11133550Y-5601220D01*
X11133550Y-5601220D01*
G37*
D13*
X11023600Y-5663600D03*
D11*
G36*
X11133550Y-5881220D02*
X11135977Y-5881580D01*
X11138357Y-5882176D01*
X11140667Y-5883003D01*
X11142885Y-5884052D01*
X11144989Y-5885313D01*
X11146960Y-5886775D01*
X11148778Y-5888422D01*
X11150425Y-5890240D01*
X11151887Y-5892211D01*
X11153148Y-5894315D01*
X11154197Y-5896533D01*
X11155024Y-5898843D01*
X11155620Y-5901223D01*
X11155980Y-5903650D01*
X11156100Y-5906100D01*
X11156100Y-5981100D01*
X11155980Y-5983550D01*
X11155620Y-5985977D01*
X11155024Y-5988357D01*
X11154197Y-5990667D01*
X11153148Y-5992885D01*
X11151887Y-5994989D01*
X11150425Y-5996960D01*
X11148778Y-5998778D01*
X11146960Y-6000425D01*
X11144989Y-6001887D01*
X11142885Y-6003148D01*
X11140667Y-6004197D01*
X11138357Y-6005023D01*
X11135977Y-6005620D01*
X11133550Y-6005980D01*
X11131100Y-6006100D01*
X10916100Y-6006100D01*
X10913650Y-6005980D01*
X10911223Y-6005620D01*
X10908843Y-6005023D01*
X10906533Y-6004197D01*
X10904315Y-6003148D01*
X10902211Y-6001887D01*
X10900240Y-6000425D01*
X10898422Y-5998778D01*
X10896775Y-5996960D01*
X10895313Y-5994989D01*
X10894052Y-5992885D01*
X10893003Y-5990667D01*
X10892177Y-5988357D01*
X10891580Y-5985977D01*
X10891220Y-5983550D01*
X10891100Y-5981100D01*
X10891100Y-5906100D01*
X10891220Y-5903650D01*
X10891580Y-5901223D01*
X10892177Y-5898843D01*
X10893003Y-5896533D01*
X10894052Y-5894315D01*
X10895313Y-5892211D01*
X10896775Y-5890240D01*
X10898422Y-5888422D01*
X10900240Y-5886775D01*
X10902211Y-5885313D01*
X10904315Y-5884052D01*
X10906533Y-5883003D01*
X10908843Y-5882176D01*
X10911223Y-5881580D01*
X10913650Y-5881220D01*
X10916100Y-5881100D01*
X11131100Y-5881100D01*
X11133550Y-5881220D01*
X11133550Y-5881220D01*
G37*
D13*
X11023600Y-5943600D03*
G04 #@! TD*
D11*
G04 #@! TO.C,C37*
G36*
X8161750Y-5601220D02*
X8164177Y-5601580D01*
X8166557Y-5602176D01*
X8168867Y-5603003D01*
X8171085Y-5604052D01*
X8173189Y-5605313D01*
X8175160Y-5606775D01*
X8176978Y-5608422D01*
X8178625Y-5610240D01*
X8180087Y-5612211D01*
X8181348Y-5614315D01*
X8182397Y-5616533D01*
X8183223Y-5618843D01*
X8183820Y-5621223D01*
X8184180Y-5623650D01*
X8184300Y-5626100D01*
X8184300Y-5701100D01*
X8184180Y-5703550D01*
X8183820Y-5705977D01*
X8183223Y-5708357D01*
X8182397Y-5710667D01*
X8181348Y-5712885D01*
X8180087Y-5714989D01*
X8178625Y-5716960D01*
X8176978Y-5718778D01*
X8175160Y-5720425D01*
X8173189Y-5721887D01*
X8171085Y-5723148D01*
X8168867Y-5724197D01*
X8166557Y-5725023D01*
X8164177Y-5725620D01*
X8161750Y-5725980D01*
X8159300Y-5726100D01*
X7944300Y-5726100D01*
X7941850Y-5725980D01*
X7939423Y-5725620D01*
X7937043Y-5725023D01*
X7934733Y-5724197D01*
X7932515Y-5723148D01*
X7930411Y-5721887D01*
X7928440Y-5720425D01*
X7926622Y-5718778D01*
X7924975Y-5716960D01*
X7923513Y-5714989D01*
X7922252Y-5712885D01*
X7921203Y-5710667D01*
X7920376Y-5708357D01*
X7919780Y-5705977D01*
X7919420Y-5703550D01*
X7919300Y-5701100D01*
X7919300Y-5626100D01*
X7919420Y-5623650D01*
X7919780Y-5621223D01*
X7920376Y-5618843D01*
X7921203Y-5616533D01*
X7922252Y-5614315D01*
X7923513Y-5612211D01*
X7924975Y-5610240D01*
X7926622Y-5608422D01*
X7928440Y-5606775D01*
X7930411Y-5605313D01*
X7932515Y-5604052D01*
X7934733Y-5603003D01*
X7937043Y-5602176D01*
X7939423Y-5601580D01*
X7941850Y-5601220D01*
X7944300Y-5601100D01*
X8159300Y-5601100D01*
X8161750Y-5601220D01*
X8161750Y-5601220D01*
G37*
D13*
X8051800Y-5663600D03*
D11*
G36*
X8161750Y-5881220D02*
X8164177Y-5881580D01*
X8166557Y-5882176D01*
X8168867Y-5883003D01*
X8171085Y-5884052D01*
X8173189Y-5885313D01*
X8175160Y-5886775D01*
X8176978Y-5888422D01*
X8178625Y-5890240D01*
X8180087Y-5892211D01*
X8181348Y-5894315D01*
X8182397Y-5896533D01*
X8183223Y-5898843D01*
X8183820Y-5901223D01*
X8184180Y-5903650D01*
X8184300Y-5906100D01*
X8184300Y-5981100D01*
X8184180Y-5983550D01*
X8183820Y-5985977D01*
X8183223Y-5988357D01*
X8182397Y-5990667D01*
X8181348Y-5992885D01*
X8180087Y-5994989D01*
X8178625Y-5996960D01*
X8176978Y-5998778D01*
X8175160Y-6000425D01*
X8173189Y-6001887D01*
X8171085Y-6003148D01*
X8168867Y-6004197D01*
X8166557Y-6005023D01*
X8164177Y-6005620D01*
X8161750Y-6005980D01*
X8159300Y-6006100D01*
X7944300Y-6006100D01*
X7941850Y-6005980D01*
X7939423Y-6005620D01*
X7937043Y-6005023D01*
X7934733Y-6004197D01*
X7932515Y-6003148D01*
X7930411Y-6001887D01*
X7928440Y-6000425D01*
X7926622Y-5998778D01*
X7924975Y-5996960D01*
X7923513Y-5994989D01*
X7922252Y-5992885D01*
X7921203Y-5990667D01*
X7920376Y-5988357D01*
X7919780Y-5985977D01*
X7919420Y-5983550D01*
X7919300Y-5981100D01*
X7919300Y-5906100D01*
X7919420Y-5903650D01*
X7919780Y-5901223D01*
X7920376Y-5898843D01*
X7921203Y-5896533D01*
X7922252Y-5894315D01*
X7923513Y-5892211D01*
X7924975Y-5890240D01*
X7926622Y-5888422D01*
X7928440Y-5886775D01*
X7930411Y-5885313D01*
X7932515Y-5884052D01*
X7934733Y-5883003D01*
X7937043Y-5882176D01*
X7939423Y-5881580D01*
X7941850Y-5881220D01*
X7944300Y-5881100D01*
X8159300Y-5881100D01*
X8161750Y-5881220D01*
X8161750Y-5881220D01*
G37*
D13*
X8051800Y-5943600D03*
G04 #@! TD*
D11*
G04 #@! TO.C,C43*
G36*
X9660350Y-5601220D02*
X9662777Y-5601580D01*
X9665157Y-5602176D01*
X9667467Y-5603003D01*
X9669685Y-5604052D01*
X9671789Y-5605313D01*
X9673760Y-5606775D01*
X9675578Y-5608422D01*
X9677225Y-5610240D01*
X9678687Y-5612211D01*
X9679948Y-5614315D01*
X9680997Y-5616533D01*
X9681824Y-5618843D01*
X9682420Y-5621223D01*
X9682780Y-5623650D01*
X9682900Y-5626100D01*
X9682900Y-5701100D01*
X9682780Y-5703550D01*
X9682420Y-5705977D01*
X9681824Y-5708357D01*
X9680997Y-5710667D01*
X9679948Y-5712885D01*
X9678687Y-5714989D01*
X9677225Y-5716960D01*
X9675578Y-5718778D01*
X9673760Y-5720425D01*
X9671789Y-5721887D01*
X9669685Y-5723148D01*
X9667467Y-5724197D01*
X9665157Y-5725023D01*
X9662777Y-5725620D01*
X9660350Y-5725980D01*
X9657900Y-5726100D01*
X9442900Y-5726100D01*
X9440450Y-5725980D01*
X9438023Y-5725620D01*
X9435643Y-5725023D01*
X9433333Y-5724197D01*
X9431115Y-5723148D01*
X9429011Y-5721887D01*
X9427040Y-5720425D01*
X9425222Y-5718778D01*
X9423575Y-5716960D01*
X9422113Y-5714989D01*
X9420852Y-5712885D01*
X9419803Y-5710667D01*
X9418977Y-5708357D01*
X9418380Y-5705977D01*
X9418020Y-5703550D01*
X9417900Y-5701100D01*
X9417900Y-5626100D01*
X9418020Y-5623650D01*
X9418380Y-5621223D01*
X9418977Y-5618843D01*
X9419803Y-5616533D01*
X9420852Y-5614315D01*
X9422113Y-5612211D01*
X9423575Y-5610240D01*
X9425222Y-5608422D01*
X9427040Y-5606775D01*
X9429011Y-5605313D01*
X9431115Y-5604052D01*
X9433333Y-5603003D01*
X9435643Y-5602176D01*
X9438023Y-5601580D01*
X9440450Y-5601220D01*
X9442900Y-5601100D01*
X9657900Y-5601100D01*
X9660350Y-5601220D01*
X9660350Y-5601220D01*
G37*
D13*
X9550400Y-5663600D03*
D11*
G36*
X9660350Y-5881220D02*
X9662777Y-5881580D01*
X9665157Y-5882176D01*
X9667467Y-5883003D01*
X9669685Y-5884052D01*
X9671789Y-5885313D01*
X9673760Y-5886775D01*
X9675578Y-5888422D01*
X9677225Y-5890240D01*
X9678687Y-5892211D01*
X9679948Y-5894315D01*
X9680997Y-5896533D01*
X9681824Y-5898843D01*
X9682420Y-5901223D01*
X9682780Y-5903650D01*
X9682900Y-5906100D01*
X9682900Y-5981100D01*
X9682780Y-5983550D01*
X9682420Y-5985977D01*
X9681824Y-5988357D01*
X9680997Y-5990667D01*
X9679948Y-5992885D01*
X9678687Y-5994989D01*
X9677225Y-5996960D01*
X9675578Y-5998778D01*
X9673760Y-6000425D01*
X9671789Y-6001887D01*
X9669685Y-6003148D01*
X9667467Y-6004197D01*
X9665157Y-6005023D01*
X9662777Y-6005620D01*
X9660350Y-6005980D01*
X9657900Y-6006100D01*
X9442900Y-6006100D01*
X9440450Y-6005980D01*
X9438023Y-6005620D01*
X9435643Y-6005023D01*
X9433333Y-6004197D01*
X9431115Y-6003148D01*
X9429011Y-6001887D01*
X9427040Y-6000425D01*
X9425222Y-5998778D01*
X9423575Y-5996960D01*
X9422113Y-5994989D01*
X9420852Y-5992885D01*
X9419803Y-5990667D01*
X9418977Y-5988357D01*
X9418380Y-5985977D01*
X9418020Y-5983550D01*
X9417900Y-5981100D01*
X9417900Y-5906100D01*
X9418020Y-5903650D01*
X9418380Y-5901223D01*
X9418977Y-5898843D01*
X9419803Y-5896533D01*
X9420852Y-5894315D01*
X9422113Y-5892211D01*
X9423575Y-5890240D01*
X9425222Y-5888422D01*
X9427040Y-5886775D01*
X9429011Y-5885313D01*
X9431115Y-5884052D01*
X9433333Y-5883003D01*
X9435643Y-5882176D01*
X9438023Y-5881580D01*
X9440450Y-5881220D01*
X9442900Y-5881100D01*
X9657900Y-5881100D01*
X9660350Y-5881220D01*
X9660350Y-5881220D01*
G37*
D13*
X9550400Y-5943600D03*
G04 #@! TD*
D14*
G04 #@! TO.C,Q7*
X11193000Y-6198850D03*
X11193000Y-6704350D03*
D15*
X11529500Y-6261100D03*
X11529500Y-6642100D03*
D16*
X11303000Y-6451600D03*
D17*
X10958750Y-6642100D03*
X10958750Y-6261100D03*
X10958750Y-6515100D03*
X10958750Y-6388100D03*
G04 #@! TD*
D18*
G04 #@! TO.C,Q1*
X10336550Y-5949150D03*
X9831050Y-5949150D03*
D19*
X10274300Y-6285650D03*
X9893300Y-6285650D03*
D20*
X10083800Y-6059150D03*
D21*
X9893300Y-5714900D03*
X10274300Y-5714900D03*
X10020300Y-5714900D03*
X10147300Y-5714900D03*
G04 #@! TD*
D18*
G04 #@! TO.C,Q2*
X10336550Y-5187150D03*
X9831050Y-5187150D03*
D19*
X10274300Y-5523650D03*
X9893300Y-5523650D03*
D20*
X10083800Y-5297150D03*
D21*
X9893300Y-4952900D03*
X10274300Y-4952900D03*
X10020300Y-4952900D03*
X10147300Y-4952900D03*
G04 #@! TD*
D18*
G04 #@! TO.C,Q3*
X7339350Y-5949250D03*
X6833850Y-5949250D03*
D19*
X7277100Y-6285750D03*
X6896100Y-6285750D03*
D20*
X7086600Y-6059250D03*
D21*
X6896100Y-5715000D03*
X7277100Y-5715000D03*
X7023100Y-5715000D03*
X7150100Y-5715000D03*
G04 #@! TD*
D18*
G04 #@! TO.C,Q4*
X7339350Y-5187150D03*
X6833850Y-5187150D03*
D19*
X7277100Y-5523650D03*
X6896100Y-5523650D03*
D20*
X7086600Y-5297150D03*
D21*
X6896100Y-4952900D03*
X7277100Y-4952900D03*
X7023100Y-4952900D03*
X7150100Y-4952900D03*
G04 #@! TD*
D18*
G04 #@! TO.C,Q5*
X8837950Y-5949150D03*
X8332450Y-5949150D03*
D19*
X8775700Y-6285650D03*
X8394700Y-6285650D03*
D20*
X8585200Y-6059150D03*
D21*
X8394700Y-5714900D03*
X8775700Y-5714900D03*
X8521700Y-5714900D03*
X8648700Y-5714900D03*
G04 #@! TD*
D18*
G04 #@! TO.C,Q6*
X8837950Y-5187150D03*
X8332450Y-5187150D03*
D19*
X8775700Y-5523650D03*
X8394700Y-5523650D03*
D20*
X8585200Y-5297150D03*
D21*
X8394700Y-4952900D03*
X8775700Y-4952900D03*
X8521700Y-4952900D03*
X8648700Y-4952900D03*
G04 #@! TD*
D11*
G04 #@! TO.C,R9*
G36*
X4543842Y-10471695D02*
X4546190Y-10472149D01*
X4548483Y-10472831D01*
X4550698Y-10473734D01*
X4552814Y-10474850D01*
X4554810Y-10476168D01*
X4556667Y-10477676D01*
X4558368Y-10479358D01*
X4559895Y-10481199D01*
X4561235Y-10483180D01*
X4562374Y-10485284D01*
X4563302Y-10487489D01*
X4594511Y-10573236D01*
X4595218Y-10575521D01*
X4595697Y-10577864D01*
X4595945Y-10580244D01*
X4595958Y-10582636D01*
X4595736Y-10585017D01*
X4595282Y-10587366D01*
X4594601Y-10589659D01*
X4593697Y-10591874D01*
X4592581Y-10593989D01*
X4591263Y-10595986D01*
X4589756Y-10597843D01*
X4588073Y-10599543D01*
X4586233Y-10601071D01*
X4584251Y-10602411D01*
X4582148Y-10603550D01*
X4579943Y-10604477D01*
X4534133Y-10621151D01*
X4531847Y-10621858D01*
X4529504Y-10622337D01*
X4527125Y-10622585D01*
X4524733Y-10622598D01*
X4522351Y-10622376D01*
X4520002Y-10621922D01*
X4517710Y-10621240D01*
X4515495Y-10620337D01*
X4513379Y-10619221D01*
X4511383Y-10617903D01*
X4509525Y-10616396D01*
X4507825Y-10614713D01*
X4506297Y-10612873D01*
X4504957Y-10610891D01*
X4503818Y-10608788D01*
X4502891Y-10606583D01*
X4471682Y-10520836D01*
X4470975Y-10518550D01*
X4470495Y-10516207D01*
X4470248Y-10513828D01*
X4470235Y-10511436D01*
X4470456Y-10509054D01*
X4470910Y-10506705D01*
X4471592Y-10504413D01*
X4472495Y-10502198D01*
X4473611Y-10500082D01*
X4474929Y-10498086D01*
X4476437Y-10496228D01*
X4478119Y-10494528D01*
X4479960Y-10493000D01*
X4481941Y-10491660D01*
X4484045Y-10490521D01*
X4486250Y-10489594D01*
X4532060Y-10472920D01*
X4534345Y-10472214D01*
X4536689Y-10471734D01*
X4539068Y-10471487D01*
X4541460Y-10471474D01*
X4543842Y-10471695D01*
X4543842Y-10471695D01*
G37*
D12*
X4533096Y-10547036D03*
D11*
G36*
X4367649Y-10535824D02*
X4369998Y-10536278D01*
X4372291Y-10536960D01*
X4374505Y-10537863D01*
X4376621Y-10538979D01*
X4378617Y-10540297D01*
X4380475Y-10541805D01*
X4382175Y-10543487D01*
X4383703Y-10545328D01*
X4385043Y-10547309D01*
X4386182Y-10549413D01*
X4387109Y-10551617D01*
X4418319Y-10637364D01*
X4419025Y-10639650D01*
X4419505Y-10641993D01*
X4419752Y-10644372D01*
X4419765Y-10646764D01*
X4419544Y-10649146D01*
X4419090Y-10651495D01*
X4418408Y-10653788D01*
X4417505Y-10656002D01*
X4416389Y-10658118D01*
X4415071Y-10660114D01*
X4413563Y-10661972D01*
X4411881Y-10663672D01*
X4410040Y-10665200D01*
X4408059Y-10666540D01*
X4405955Y-10667679D01*
X4403750Y-10668606D01*
X4357940Y-10685280D01*
X4355655Y-10685987D01*
X4353312Y-10686466D01*
X4350932Y-10686713D01*
X4348540Y-10686726D01*
X4346159Y-10686505D01*
X4343810Y-10686051D01*
X4341517Y-10685369D01*
X4339302Y-10684466D01*
X4337187Y-10683350D01*
X4335190Y-10682032D01*
X4333333Y-10680524D01*
X4331632Y-10678842D01*
X4330105Y-10677001D01*
X4328765Y-10675020D01*
X4327626Y-10672916D01*
X4326699Y-10670711D01*
X4295489Y-10584965D01*
X4294782Y-10582679D01*
X4294303Y-10580336D01*
X4294055Y-10577957D01*
X4294042Y-10575565D01*
X4294264Y-10573183D01*
X4294718Y-10570834D01*
X4295400Y-10568541D01*
X4296303Y-10566326D01*
X4297419Y-10564211D01*
X4298737Y-10562215D01*
X4300244Y-10560357D01*
X4301927Y-10558657D01*
X4303767Y-10557129D01*
X4305749Y-10555789D01*
X4307852Y-10554650D01*
X4310057Y-10553723D01*
X4355867Y-10537049D01*
X4358153Y-10536342D01*
X4360496Y-10535863D01*
X4362875Y-10535615D01*
X4365267Y-10535602D01*
X4367649Y-10535824D01*
X4367649Y-10535824D01*
G37*
D12*
X4356904Y-10611164D03*
G04 #@! TD*
D11*
G04 #@! TO.C,R10*
G36*
X4696242Y-10878095D02*
X4698590Y-10878549D01*
X4700883Y-10879231D01*
X4703098Y-10880134D01*
X4705214Y-10881250D01*
X4707210Y-10882568D01*
X4709067Y-10884076D01*
X4710768Y-10885758D01*
X4712295Y-10887599D01*
X4713635Y-10889580D01*
X4714774Y-10891684D01*
X4715702Y-10893889D01*
X4746911Y-10979636D01*
X4747618Y-10981921D01*
X4748097Y-10984264D01*
X4748345Y-10986644D01*
X4748358Y-10989036D01*
X4748136Y-10991417D01*
X4747682Y-10993766D01*
X4747001Y-10996059D01*
X4746097Y-10998274D01*
X4744981Y-11000389D01*
X4743663Y-11002386D01*
X4742156Y-11004243D01*
X4740473Y-11005943D01*
X4738633Y-11007471D01*
X4736651Y-11008811D01*
X4734548Y-11009950D01*
X4732343Y-11010877D01*
X4686533Y-11027551D01*
X4684247Y-11028258D01*
X4681904Y-11028737D01*
X4679525Y-11028985D01*
X4677133Y-11028998D01*
X4674751Y-11028776D01*
X4672402Y-11028322D01*
X4670110Y-11027640D01*
X4667895Y-11026737D01*
X4665779Y-11025621D01*
X4663783Y-11024303D01*
X4661925Y-11022796D01*
X4660225Y-11021113D01*
X4658697Y-11019273D01*
X4657357Y-11017291D01*
X4656218Y-11015188D01*
X4655291Y-11012983D01*
X4624082Y-10927236D01*
X4623375Y-10924950D01*
X4622895Y-10922607D01*
X4622648Y-10920228D01*
X4622635Y-10917836D01*
X4622856Y-10915454D01*
X4623310Y-10913105D01*
X4623992Y-10910813D01*
X4624895Y-10908598D01*
X4626011Y-10906482D01*
X4627329Y-10904486D01*
X4628837Y-10902628D01*
X4630519Y-10900928D01*
X4632360Y-10899400D01*
X4634341Y-10898060D01*
X4636445Y-10896921D01*
X4638650Y-10895994D01*
X4684460Y-10879320D01*
X4686745Y-10878614D01*
X4689089Y-10878134D01*
X4691468Y-10877887D01*
X4693860Y-10877874D01*
X4696242Y-10878095D01*
X4696242Y-10878095D01*
G37*
D12*
X4685496Y-10953436D03*
D11*
G36*
X4520049Y-10942224D02*
X4522398Y-10942678D01*
X4524691Y-10943360D01*
X4526905Y-10944263D01*
X4529021Y-10945379D01*
X4531017Y-10946697D01*
X4532875Y-10948205D01*
X4534575Y-10949887D01*
X4536103Y-10951728D01*
X4537443Y-10953709D01*
X4538582Y-10955813D01*
X4539509Y-10958017D01*
X4570719Y-11043764D01*
X4571425Y-11046050D01*
X4571905Y-11048393D01*
X4572152Y-11050772D01*
X4572165Y-11053164D01*
X4571944Y-11055546D01*
X4571490Y-11057895D01*
X4570808Y-11060188D01*
X4569905Y-11062402D01*
X4568789Y-11064518D01*
X4567471Y-11066514D01*
X4565963Y-11068372D01*
X4564281Y-11070072D01*
X4562440Y-11071600D01*
X4560459Y-11072940D01*
X4558355Y-11074079D01*
X4556150Y-11075006D01*
X4510340Y-11091680D01*
X4508055Y-11092387D01*
X4505712Y-11092866D01*
X4503332Y-11093113D01*
X4500940Y-11093126D01*
X4498559Y-11092905D01*
X4496210Y-11092451D01*
X4493917Y-11091769D01*
X4491702Y-11090866D01*
X4489587Y-11089750D01*
X4487590Y-11088432D01*
X4485733Y-11086924D01*
X4484032Y-11085242D01*
X4482505Y-11083401D01*
X4481165Y-11081420D01*
X4480026Y-11079316D01*
X4479099Y-11077111D01*
X4447889Y-10991365D01*
X4447182Y-10989079D01*
X4446703Y-10986736D01*
X4446455Y-10984357D01*
X4446442Y-10981965D01*
X4446664Y-10979583D01*
X4447118Y-10977234D01*
X4447800Y-10974941D01*
X4448703Y-10972726D01*
X4449819Y-10970611D01*
X4451137Y-10968615D01*
X4452644Y-10966757D01*
X4454327Y-10965057D01*
X4456167Y-10963529D01*
X4458149Y-10962189D01*
X4460252Y-10961050D01*
X4462457Y-10960123D01*
X4508267Y-10943449D01*
X4510553Y-10942742D01*
X4512896Y-10942263D01*
X4515275Y-10942015D01*
X4517667Y-10942002D01*
X4520049Y-10942224D01*
X4520049Y-10942224D01*
G37*
D12*
X4509304Y-11017564D03*
G04 #@! TD*
D11*
G04 #@! TO.C,R11*
G36*
X4443849Y-10739024D02*
X4446198Y-10739478D01*
X4448491Y-10740160D01*
X4450705Y-10741063D01*
X4452821Y-10742179D01*
X4454817Y-10743497D01*
X4456675Y-10745005D01*
X4458375Y-10746687D01*
X4459903Y-10748528D01*
X4461243Y-10750509D01*
X4462382Y-10752613D01*
X4463309Y-10754817D01*
X4494519Y-10840564D01*
X4495225Y-10842850D01*
X4495705Y-10845193D01*
X4495952Y-10847572D01*
X4495965Y-10849964D01*
X4495744Y-10852346D01*
X4495290Y-10854695D01*
X4494608Y-10856988D01*
X4493705Y-10859202D01*
X4492589Y-10861318D01*
X4491271Y-10863314D01*
X4489763Y-10865172D01*
X4488081Y-10866872D01*
X4486240Y-10868400D01*
X4484259Y-10869740D01*
X4482155Y-10870879D01*
X4479950Y-10871806D01*
X4434140Y-10888480D01*
X4431855Y-10889187D01*
X4429512Y-10889666D01*
X4427132Y-10889913D01*
X4424740Y-10889926D01*
X4422359Y-10889705D01*
X4420010Y-10889251D01*
X4417717Y-10888569D01*
X4415502Y-10887666D01*
X4413387Y-10886550D01*
X4411390Y-10885232D01*
X4409533Y-10883724D01*
X4407832Y-10882042D01*
X4406305Y-10880201D01*
X4404965Y-10878220D01*
X4403826Y-10876116D01*
X4402899Y-10873911D01*
X4371689Y-10788165D01*
X4370982Y-10785879D01*
X4370503Y-10783536D01*
X4370255Y-10781157D01*
X4370242Y-10778765D01*
X4370464Y-10776383D01*
X4370918Y-10774034D01*
X4371600Y-10771741D01*
X4372503Y-10769526D01*
X4373619Y-10767411D01*
X4374937Y-10765415D01*
X4376444Y-10763557D01*
X4378127Y-10761857D01*
X4379967Y-10760329D01*
X4381949Y-10758989D01*
X4384052Y-10757850D01*
X4386257Y-10756923D01*
X4432067Y-10740249D01*
X4434353Y-10739542D01*
X4436696Y-10739063D01*
X4439075Y-10738815D01*
X4441467Y-10738802D01*
X4443849Y-10739024D01*
X4443849Y-10739024D01*
G37*
D12*
X4433104Y-10814364D03*
D11*
G36*
X4620042Y-10674895D02*
X4622390Y-10675349D01*
X4624683Y-10676031D01*
X4626898Y-10676934D01*
X4629014Y-10678050D01*
X4631010Y-10679368D01*
X4632867Y-10680876D01*
X4634568Y-10682558D01*
X4636095Y-10684399D01*
X4637435Y-10686380D01*
X4638574Y-10688484D01*
X4639502Y-10690689D01*
X4670711Y-10776436D01*
X4671418Y-10778721D01*
X4671897Y-10781064D01*
X4672145Y-10783444D01*
X4672158Y-10785836D01*
X4671936Y-10788217D01*
X4671482Y-10790566D01*
X4670801Y-10792859D01*
X4669897Y-10795074D01*
X4668781Y-10797189D01*
X4667463Y-10799186D01*
X4665956Y-10801043D01*
X4664273Y-10802743D01*
X4662433Y-10804271D01*
X4660451Y-10805611D01*
X4658348Y-10806750D01*
X4656143Y-10807677D01*
X4610333Y-10824351D01*
X4608047Y-10825058D01*
X4605704Y-10825537D01*
X4603325Y-10825785D01*
X4600933Y-10825798D01*
X4598551Y-10825576D01*
X4596202Y-10825122D01*
X4593910Y-10824440D01*
X4591695Y-10823537D01*
X4589579Y-10822421D01*
X4587583Y-10821103D01*
X4585725Y-10819596D01*
X4584025Y-10817913D01*
X4582497Y-10816073D01*
X4581157Y-10814091D01*
X4580018Y-10811988D01*
X4579091Y-10809783D01*
X4547882Y-10724036D01*
X4547175Y-10721750D01*
X4546695Y-10719407D01*
X4546448Y-10717028D01*
X4546435Y-10714636D01*
X4546656Y-10712254D01*
X4547110Y-10709905D01*
X4547792Y-10707613D01*
X4548695Y-10705398D01*
X4549811Y-10703282D01*
X4551129Y-10701286D01*
X4552637Y-10699428D01*
X4554319Y-10697728D01*
X4556160Y-10696200D01*
X4558141Y-10694860D01*
X4560245Y-10693721D01*
X4562450Y-10692794D01*
X4608260Y-10676120D01*
X4610545Y-10675414D01*
X4612889Y-10674934D01*
X4615268Y-10674687D01*
X4617660Y-10674674D01*
X4620042Y-10674895D01*
X4620042Y-10674895D01*
G37*
D12*
X4609296Y-10750236D03*
G04 #@! TD*
D11*
G04 #@! TO.C,R14*
G36*
X5204214Y-7909417D02*
X5206580Y-7909768D01*
X5208901Y-7910350D01*
X5211153Y-7911155D01*
X5213315Y-7912178D01*
X5215367Y-7913408D01*
X5217288Y-7914833D01*
X5219061Y-7916439D01*
X5220667Y-7918212D01*
X5222092Y-7920133D01*
X5223322Y-7922185D01*
X5224345Y-7924347D01*
X5225150Y-7926599D01*
X5225732Y-7928920D01*
X5226083Y-7931286D01*
X5226200Y-7933675D01*
X5226200Y-7982425D01*
X5226083Y-7984814D01*
X5225732Y-7987180D01*
X5225150Y-7989501D01*
X5224345Y-7991753D01*
X5223322Y-7993915D01*
X5222092Y-7995967D01*
X5220667Y-7997888D01*
X5219061Y-7999661D01*
X5217288Y-8001267D01*
X5215367Y-8002692D01*
X5213315Y-8003922D01*
X5211153Y-8004945D01*
X5208901Y-8005750D01*
X5206580Y-8006332D01*
X5204214Y-8006683D01*
X5201825Y-8006800D01*
X5110575Y-8006800D01*
X5108186Y-8006683D01*
X5105820Y-8006332D01*
X5103499Y-8005750D01*
X5101247Y-8004945D01*
X5099085Y-8003922D01*
X5097033Y-8002692D01*
X5095112Y-8001267D01*
X5093339Y-7999661D01*
X5091733Y-7997888D01*
X5090308Y-7995967D01*
X5089078Y-7993915D01*
X5088055Y-7991753D01*
X5087250Y-7989501D01*
X5086668Y-7987180D01*
X5086317Y-7984814D01*
X5086200Y-7982425D01*
X5086200Y-7933675D01*
X5086317Y-7931286D01*
X5086668Y-7928920D01*
X5087250Y-7926599D01*
X5088055Y-7924347D01*
X5089078Y-7922185D01*
X5090308Y-7920133D01*
X5091733Y-7918212D01*
X5093339Y-7916439D01*
X5095112Y-7914833D01*
X5097033Y-7913408D01*
X5099085Y-7912178D01*
X5101247Y-7911155D01*
X5103499Y-7910350D01*
X5105820Y-7909768D01*
X5108186Y-7909417D01*
X5110575Y-7909300D01*
X5201825Y-7909300D01*
X5204214Y-7909417D01*
X5204214Y-7909417D01*
G37*
D12*
X5156200Y-7958050D03*
D11*
G36*
X5204214Y-8096917D02*
X5206580Y-8097268D01*
X5208901Y-8097850D01*
X5211153Y-8098655D01*
X5213315Y-8099678D01*
X5215367Y-8100908D01*
X5217288Y-8102333D01*
X5219061Y-8103939D01*
X5220667Y-8105712D01*
X5222092Y-8107633D01*
X5223322Y-8109685D01*
X5224345Y-8111847D01*
X5225150Y-8114099D01*
X5225732Y-8116420D01*
X5226083Y-8118786D01*
X5226200Y-8121175D01*
X5226200Y-8169925D01*
X5226083Y-8172314D01*
X5225732Y-8174680D01*
X5225150Y-8177001D01*
X5224345Y-8179253D01*
X5223322Y-8181415D01*
X5222092Y-8183467D01*
X5220667Y-8185388D01*
X5219061Y-8187161D01*
X5217288Y-8188767D01*
X5215367Y-8190192D01*
X5213315Y-8191422D01*
X5211153Y-8192445D01*
X5208901Y-8193250D01*
X5206580Y-8193832D01*
X5204214Y-8194183D01*
X5201825Y-8194300D01*
X5110575Y-8194300D01*
X5108186Y-8194183D01*
X5105820Y-8193832D01*
X5103499Y-8193250D01*
X5101247Y-8192445D01*
X5099085Y-8191422D01*
X5097033Y-8190192D01*
X5095112Y-8188767D01*
X5093339Y-8187161D01*
X5091733Y-8185388D01*
X5090308Y-8183467D01*
X5089078Y-8181415D01*
X5088055Y-8179253D01*
X5087250Y-8177001D01*
X5086668Y-8174680D01*
X5086317Y-8172314D01*
X5086200Y-8169925D01*
X5086200Y-8121175D01*
X5086317Y-8118786D01*
X5086668Y-8116420D01*
X5087250Y-8114099D01*
X5088055Y-8111847D01*
X5089078Y-8109685D01*
X5090308Y-8107633D01*
X5091733Y-8105712D01*
X5093339Y-8103939D01*
X5095112Y-8102333D01*
X5097033Y-8100908D01*
X5099085Y-8099678D01*
X5101247Y-8098655D01*
X5103499Y-8097850D01*
X5105820Y-8097268D01*
X5108186Y-8096917D01*
X5110575Y-8096800D01*
X5201825Y-8096800D01*
X5204214Y-8096917D01*
X5204214Y-8096917D01*
G37*
D12*
X5156200Y-8145550D03*
G04 #@! TD*
D11*
G04 #@! TO.C,R16*
G36*
X4766864Y-7600917D02*
X4769230Y-7601268D01*
X4771551Y-7601850D01*
X4773803Y-7602655D01*
X4775965Y-7603678D01*
X4778017Y-7604908D01*
X4779938Y-7606333D01*
X4781711Y-7607939D01*
X4783317Y-7609712D01*
X4784742Y-7611633D01*
X4785972Y-7613685D01*
X4786995Y-7615847D01*
X4787800Y-7618099D01*
X4788382Y-7620420D01*
X4788733Y-7622786D01*
X4788850Y-7625175D01*
X4788850Y-7716425D01*
X4788733Y-7718814D01*
X4788382Y-7721180D01*
X4787800Y-7723501D01*
X4786995Y-7725753D01*
X4785972Y-7727915D01*
X4784742Y-7729967D01*
X4783317Y-7731888D01*
X4781711Y-7733661D01*
X4779938Y-7735267D01*
X4778017Y-7736692D01*
X4775965Y-7737922D01*
X4773803Y-7738945D01*
X4771551Y-7739750D01*
X4769230Y-7740332D01*
X4766864Y-7740683D01*
X4764475Y-7740800D01*
X4715725Y-7740800D01*
X4713336Y-7740683D01*
X4710970Y-7740332D01*
X4708649Y-7739750D01*
X4706397Y-7738945D01*
X4704235Y-7737922D01*
X4702183Y-7736692D01*
X4700262Y-7735267D01*
X4698489Y-7733661D01*
X4696883Y-7731888D01*
X4695458Y-7729967D01*
X4694228Y-7727915D01*
X4693205Y-7725753D01*
X4692400Y-7723501D01*
X4691818Y-7721180D01*
X4691467Y-7718814D01*
X4691350Y-7716425D01*
X4691350Y-7625175D01*
X4691467Y-7622786D01*
X4691818Y-7620420D01*
X4692400Y-7618099D01*
X4693205Y-7615847D01*
X4694228Y-7613685D01*
X4695458Y-7611633D01*
X4696883Y-7609712D01*
X4698489Y-7607939D01*
X4700262Y-7606333D01*
X4702183Y-7604908D01*
X4704235Y-7603678D01*
X4706397Y-7602655D01*
X4708649Y-7601850D01*
X4710970Y-7601268D01*
X4713336Y-7600917D01*
X4715725Y-7600800D01*
X4764475Y-7600800D01*
X4766864Y-7600917D01*
X4766864Y-7600917D01*
G37*
D12*
X4740100Y-7670800D03*
D11*
G36*
X4954364Y-7600917D02*
X4956730Y-7601268D01*
X4959051Y-7601850D01*
X4961303Y-7602655D01*
X4963465Y-7603678D01*
X4965517Y-7604908D01*
X4967438Y-7606333D01*
X4969211Y-7607939D01*
X4970817Y-7609712D01*
X4972242Y-7611633D01*
X4973472Y-7613685D01*
X4974495Y-7615847D01*
X4975300Y-7618099D01*
X4975882Y-7620420D01*
X4976233Y-7622786D01*
X4976350Y-7625175D01*
X4976350Y-7716425D01*
X4976233Y-7718814D01*
X4975882Y-7721180D01*
X4975300Y-7723501D01*
X4974495Y-7725753D01*
X4973472Y-7727915D01*
X4972242Y-7729967D01*
X4970817Y-7731888D01*
X4969211Y-7733661D01*
X4967438Y-7735267D01*
X4965517Y-7736692D01*
X4963465Y-7737922D01*
X4961303Y-7738945D01*
X4959051Y-7739750D01*
X4956730Y-7740332D01*
X4954364Y-7740683D01*
X4951975Y-7740800D01*
X4903225Y-7740800D01*
X4900836Y-7740683D01*
X4898470Y-7740332D01*
X4896149Y-7739750D01*
X4893897Y-7738945D01*
X4891735Y-7737922D01*
X4889683Y-7736692D01*
X4887762Y-7735267D01*
X4885989Y-7733661D01*
X4884383Y-7731888D01*
X4882958Y-7729967D01*
X4881728Y-7727915D01*
X4880705Y-7725753D01*
X4879900Y-7723501D01*
X4879318Y-7721180D01*
X4878967Y-7718814D01*
X4878850Y-7716425D01*
X4878850Y-7625175D01*
X4878967Y-7622786D01*
X4879318Y-7620420D01*
X4879900Y-7618099D01*
X4880705Y-7615847D01*
X4881728Y-7613685D01*
X4882958Y-7611633D01*
X4884383Y-7609712D01*
X4885989Y-7607939D01*
X4887762Y-7606333D01*
X4889683Y-7604908D01*
X4891735Y-7603678D01*
X4893897Y-7602655D01*
X4896149Y-7601850D01*
X4898470Y-7601268D01*
X4900836Y-7600917D01*
X4903225Y-7600800D01*
X4951975Y-7600800D01*
X4954364Y-7600917D01*
X4954364Y-7600917D01*
G37*
D12*
X4927600Y-7670800D03*
G04 #@! TD*
D11*
G04 #@! TO.C,R19*
G36*
X5915414Y-6174367D02*
X5917780Y-6174718D01*
X5920101Y-6175300D01*
X5922353Y-6176105D01*
X5924515Y-6177128D01*
X5926567Y-6178358D01*
X5928488Y-6179783D01*
X5930261Y-6181389D01*
X5931867Y-6183162D01*
X5933292Y-6185083D01*
X5934522Y-6187135D01*
X5935545Y-6189297D01*
X5936350Y-6191549D01*
X5936932Y-6193870D01*
X5937283Y-6196236D01*
X5937400Y-6198625D01*
X5937400Y-6247375D01*
X5937283Y-6249764D01*
X5936932Y-6252130D01*
X5936350Y-6254451D01*
X5935545Y-6256703D01*
X5934522Y-6258865D01*
X5933292Y-6260917D01*
X5931867Y-6262838D01*
X5930261Y-6264611D01*
X5928488Y-6266217D01*
X5926567Y-6267642D01*
X5924515Y-6268872D01*
X5922353Y-6269895D01*
X5920101Y-6270700D01*
X5917780Y-6271282D01*
X5915414Y-6271633D01*
X5913025Y-6271750D01*
X5821775Y-6271750D01*
X5819386Y-6271633D01*
X5817020Y-6271282D01*
X5814699Y-6270700D01*
X5812447Y-6269895D01*
X5810285Y-6268872D01*
X5808233Y-6267642D01*
X5806312Y-6266217D01*
X5804539Y-6264611D01*
X5802933Y-6262838D01*
X5801508Y-6260917D01*
X5800278Y-6258865D01*
X5799255Y-6256703D01*
X5798450Y-6254451D01*
X5797868Y-6252130D01*
X5797517Y-6249764D01*
X5797400Y-6247375D01*
X5797400Y-6198625D01*
X5797517Y-6196236D01*
X5797868Y-6193870D01*
X5798450Y-6191549D01*
X5799255Y-6189297D01*
X5800278Y-6187135D01*
X5801508Y-6185083D01*
X5802933Y-6183162D01*
X5804539Y-6181389D01*
X5806312Y-6179783D01*
X5808233Y-6178358D01*
X5810285Y-6177128D01*
X5812447Y-6176105D01*
X5814699Y-6175300D01*
X5817020Y-6174718D01*
X5819386Y-6174367D01*
X5821775Y-6174250D01*
X5913025Y-6174250D01*
X5915414Y-6174367D01*
X5915414Y-6174367D01*
G37*
D12*
X5867400Y-6223000D03*
D11*
G36*
X5915414Y-6361867D02*
X5917780Y-6362218D01*
X5920101Y-6362800D01*
X5922353Y-6363605D01*
X5924515Y-6364628D01*
X5926567Y-6365858D01*
X5928488Y-6367283D01*
X5930261Y-6368889D01*
X5931867Y-6370662D01*
X5933292Y-6372583D01*
X5934522Y-6374635D01*
X5935545Y-6376797D01*
X5936350Y-6379049D01*
X5936932Y-6381370D01*
X5937283Y-6383736D01*
X5937400Y-6386125D01*
X5937400Y-6434875D01*
X5937283Y-6437264D01*
X5936932Y-6439630D01*
X5936350Y-6441951D01*
X5935545Y-6444203D01*
X5934522Y-6446365D01*
X5933292Y-6448417D01*
X5931867Y-6450338D01*
X5930261Y-6452111D01*
X5928488Y-6453717D01*
X5926567Y-6455142D01*
X5924515Y-6456372D01*
X5922353Y-6457395D01*
X5920101Y-6458200D01*
X5917780Y-6458782D01*
X5915414Y-6459133D01*
X5913025Y-6459250D01*
X5821775Y-6459250D01*
X5819386Y-6459133D01*
X5817020Y-6458782D01*
X5814699Y-6458200D01*
X5812447Y-6457395D01*
X5810285Y-6456372D01*
X5808233Y-6455142D01*
X5806312Y-6453717D01*
X5804539Y-6452111D01*
X5802933Y-6450338D01*
X5801508Y-6448417D01*
X5800278Y-6446365D01*
X5799255Y-6444203D01*
X5798450Y-6441951D01*
X5797868Y-6439630D01*
X5797517Y-6437264D01*
X5797400Y-6434875D01*
X5797400Y-6386125D01*
X5797517Y-6383736D01*
X5797868Y-6381370D01*
X5798450Y-6379049D01*
X5799255Y-6376797D01*
X5800278Y-6374635D01*
X5801508Y-6372583D01*
X5802933Y-6370662D01*
X5804539Y-6368889D01*
X5806312Y-6367283D01*
X5808233Y-6365858D01*
X5810285Y-6364628D01*
X5812447Y-6363605D01*
X5814699Y-6362800D01*
X5817020Y-6362218D01*
X5819386Y-6361867D01*
X5821775Y-6361750D01*
X5913025Y-6361750D01*
X5915414Y-6361867D01*
X5915414Y-6361867D01*
G37*
D12*
X5867400Y-6410500D03*
G04 #@! TD*
D11*
G04 #@! TO.C,R20*
G36*
X5915414Y-5742567D02*
X5917780Y-5742918D01*
X5920101Y-5743500D01*
X5922353Y-5744305D01*
X5924515Y-5745328D01*
X5926567Y-5746558D01*
X5928488Y-5747983D01*
X5930261Y-5749589D01*
X5931867Y-5751362D01*
X5933292Y-5753283D01*
X5934522Y-5755335D01*
X5935545Y-5757497D01*
X5936350Y-5759749D01*
X5936932Y-5762070D01*
X5937283Y-5764436D01*
X5937400Y-5766825D01*
X5937400Y-5815575D01*
X5937283Y-5817964D01*
X5936932Y-5820330D01*
X5936350Y-5822651D01*
X5935545Y-5824903D01*
X5934522Y-5827065D01*
X5933292Y-5829117D01*
X5931867Y-5831038D01*
X5930261Y-5832811D01*
X5928488Y-5834417D01*
X5926567Y-5835842D01*
X5924515Y-5837072D01*
X5922353Y-5838095D01*
X5920101Y-5838900D01*
X5917780Y-5839482D01*
X5915414Y-5839833D01*
X5913025Y-5839950D01*
X5821775Y-5839950D01*
X5819386Y-5839833D01*
X5817020Y-5839482D01*
X5814699Y-5838900D01*
X5812447Y-5838095D01*
X5810285Y-5837072D01*
X5808233Y-5835842D01*
X5806312Y-5834417D01*
X5804539Y-5832811D01*
X5802933Y-5831038D01*
X5801508Y-5829117D01*
X5800278Y-5827065D01*
X5799255Y-5824903D01*
X5798450Y-5822651D01*
X5797868Y-5820330D01*
X5797517Y-5817964D01*
X5797400Y-5815575D01*
X5797400Y-5766825D01*
X5797517Y-5764436D01*
X5797868Y-5762070D01*
X5798450Y-5759749D01*
X5799255Y-5757497D01*
X5800278Y-5755335D01*
X5801508Y-5753283D01*
X5802933Y-5751362D01*
X5804539Y-5749589D01*
X5806312Y-5747983D01*
X5808233Y-5746558D01*
X5810285Y-5745328D01*
X5812447Y-5744305D01*
X5814699Y-5743500D01*
X5817020Y-5742918D01*
X5819386Y-5742567D01*
X5821775Y-5742450D01*
X5913025Y-5742450D01*
X5915414Y-5742567D01*
X5915414Y-5742567D01*
G37*
D12*
X5867400Y-5791200D03*
D11*
G36*
X5915414Y-5930067D02*
X5917780Y-5930418D01*
X5920101Y-5931000D01*
X5922353Y-5931805D01*
X5924515Y-5932828D01*
X5926567Y-5934058D01*
X5928488Y-5935483D01*
X5930261Y-5937089D01*
X5931867Y-5938862D01*
X5933292Y-5940783D01*
X5934522Y-5942835D01*
X5935545Y-5944997D01*
X5936350Y-5947249D01*
X5936932Y-5949570D01*
X5937283Y-5951936D01*
X5937400Y-5954325D01*
X5937400Y-6003075D01*
X5937283Y-6005464D01*
X5936932Y-6007830D01*
X5936350Y-6010151D01*
X5935545Y-6012403D01*
X5934522Y-6014565D01*
X5933292Y-6016617D01*
X5931867Y-6018538D01*
X5930261Y-6020311D01*
X5928488Y-6021917D01*
X5926567Y-6023342D01*
X5924515Y-6024572D01*
X5922353Y-6025595D01*
X5920101Y-6026400D01*
X5917780Y-6026982D01*
X5915414Y-6027333D01*
X5913025Y-6027450D01*
X5821775Y-6027450D01*
X5819386Y-6027333D01*
X5817020Y-6026982D01*
X5814699Y-6026400D01*
X5812447Y-6025595D01*
X5810285Y-6024572D01*
X5808233Y-6023342D01*
X5806312Y-6021917D01*
X5804539Y-6020311D01*
X5802933Y-6018538D01*
X5801508Y-6016617D01*
X5800278Y-6014565D01*
X5799255Y-6012403D01*
X5798450Y-6010151D01*
X5797868Y-6007830D01*
X5797517Y-6005464D01*
X5797400Y-6003075D01*
X5797400Y-5954325D01*
X5797517Y-5951936D01*
X5797868Y-5949570D01*
X5798450Y-5947249D01*
X5799255Y-5944997D01*
X5800278Y-5942835D01*
X5801508Y-5940783D01*
X5802933Y-5938862D01*
X5804539Y-5937089D01*
X5806312Y-5935483D01*
X5808233Y-5934058D01*
X5810285Y-5932828D01*
X5812447Y-5931805D01*
X5814699Y-5931000D01*
X5817020Y-5930418D01*
X5819386Y-5930067D01*
X5821775Y-5929950D01*
X5913025Y-5929950D01*
X5915414Y-5930067D01*
X5915414Y-5930067D01*
G37*
D12*
X5867400Y-5978700D03*
G04 #@! TD*
D11*
G04 #@! TO.C,R21*
G36*
X6271014Y-6174367D02*
X6273380Y-6174718D01*
X6275701Y-6175300D01*
X6277953Y-6176105D01*
X6280115Y-6177128D01*
X6282167Y-6178358D01*
X6284088Y-6179783D01*
X6285861Y-6181389D01*
X6287467Y-6183162D01*
X6288892Y-6185083D01*
X6290122Y-6187135D01*
X6291145Y-6189297D01*
X6291950Y-6191549D01*
X6292532Y-6193870D01*
X6292883Y-6196236D01*
X6293000Y-6198625D01*
X6293000Y-6247375D01*
X6292883Y-6249764D01*
X6292532Y-6252130D01*
X6291950Y-6254451D01*
X6291145Y-6256703D01*
X6290122Y-6258865D01*
X6288892Y-6260917D01*
X6287467Y-6262838D01*
X6285861Y-6264611D01*
X6284088Y-6266217D01*
X6282167Y-6267642D01*
X6280115Y-6268872D01*
X6277953Y-6269895D01*
X6275701Y-6270700D01*
X6273380Y-6271282D01*
X6271014Y-6271633D01*
X6268625Y-6271750D01*
X6177375Y-6271750D01*
X6174986Y-6271633D01*
X6172620Y-6271282D01*
X6170299Y-6270700D01*
X6168047Y-6269895D01*
X6165885Y-6268872D01*
X6163833Y-6267642D01*
X6161912Y-6266217D01*
X6160139Y-6264611D01*
X6158533Y-6262838D01*
X6157108Y-6260917D01*
X6155878Y-6258865D01*
X6154855Y-6256703D01*
X6154050Y-6254451D01*
X6153468Y-6252130D01*
X6153117Y-6249764D01*
X6153000Y-6247375D01*
X6153000Y-6198625D01*
X6153117Y-6196236D01*
X6153468Y-6193870D01*
X6154050Y-6191549D01*
X6154855Y-6189297D01*
X6155878Y-6187135D01*
X6157108Y-6185083D01*
X6158533Y-6183162D01*
X6160139Y-6181389D01*
X6161912Y-6179783D01*
X6163833Y-6178358D01*
X6165885Y-6177128D01*
X6168047Y-6176105D01*
X6170299Y-6175300D01*
X6172620Y-6174718D01*
X6174986Y-6174367D01*
X6177375Y-6174250D01*
X6268625Y-6174250D01*
X6271014Y-6174367D01*
X6271014Y-6174367D01*
G37*
D12*
X6223000Y-6223000D03*
D11*
G36*
X6271014Y-6361867D02*
X6273380Y-6362218D01*
X6275701Y-6362800D01*
X6277953Y-6363605D01*
X6280115Y-6364628D01*
X6282167Y-6365858D01*
X6284088Y-6367283D01*
X6285861Y-6368889D01*
X6287467Y-6370662D01*
X6288892Y-6372583D01*
X6290122Y-6374635D01*
X6291145Y-6376797D01*
X6291950Y-6379049D01*
X6292532Y-6381370D01*
X6292883Y-6383736D01*
X6293000Y-6386125D01*
X6293000Y-6434875D01*
X6292883Y-6437264D01*
X6292532Y-6439630D01*
X6291950Y-6441951D01*
X6291145Y-6444203D01*
X6290122Y-6446365D01*
X6288892Y-6448417D01*
X6287467Y-6450338D01*
X6285861Y-6452111D01*
X6284088Y-6453717D01*
X6282167Y-6455142D01*
X6280115Y-6456372D01*
X6277953Y-6457395D01*
X6275701Y-6458200D01*
X6273380Y-6458782D01*
X6271014Y-6459133D01*
X6268625Y-6459250D01*
X6177375Y-6459250D01*
X6174986Y-6459133D01*
X6172620Y-6458782D01*
X6170299Y-6458200D01*
X6168047Y-6457395D01*
X6165885Y-6456372D01*
X6163833Y-6455142D01*
X6161912Y-6453717D01*
X6160139Y-6452111D01*
X6158533Y-6450338D01*
X6157108Y-6448417D01*
X6155878Y-6446365D01*
X6154855Y-6444203D01*
X6154050Y-6441951D01*
X6153468Y-6439630D01*
X6153117Y-6437264D01*
X6153000Y-6434875D01*
X6153000Y-6386125D01*
X6153117Y-6383736D01*
X6153468Y-6381370D01*
X6154050Y-6379049D01*
X6154855Y-6376797D01*
X6155878Y-6374635D01*
X6157108Y-6372583D01*
X6158533Y-6370662D01*
X6160139Y-6368889D01*
X6161912Y-6367283D01*
X6163833Y-6365858D01*
X6165885Y-6364628D01*
X6168047Y-6363605D01*
X6170299Y-6362800D01*
X6172620Y-6362218D01*
X6174986Y-6361867D01*
X6177375Y-6361750D01*
X6268625Y-6361750D01*
X6271014Y-6361867D01*
X6271014Y-6361867D01*
G37*
D12*
X6223000Y-6410500D03*
G04 #@! TD*
D11*
G04 #@! TO.C,R22*
G36*
X6271014Y-5742567D02*
X6273380Y-5742918D01*
X6275701Y-5743500D01*
X6277953Y-5744305D01*
X6280115Y-5745328D01*
X6282167Y-5746558D01*
X6284088Y-5747983D01*
X6285861Y-5749589D01*
X6287467Y-5751362D01*
X6288892Y-5753283D01*
X6290122Y-5755335D01*
X6291145Y-5757497D01*
X6291950Y-5759749D01*
X6292532Y-5762070D01*
X6292883Y-5764436D01*
X6293000Y-5766825D01*
X6293000Y-5815575D01*
X6292883Y-5817964D01*
X6292532Y-5820330D01*
X6291950Y-5822651D01*
X6291145Y-5824903D01*
X6290122Y-5827065D01*
X6288892Y-5829117D01*
X6287467Y-5831038D01*
X6285861Y-5832811D01*
X6284088Y-5834417D01*
X6282167Y-5835842D01*
X6280115Y-5837072D01*
X6277953Y-5838095D01*
X6275701Y-5838900D01*
X6273380Y-5839482D01*
X6271014Y-5839833D01*
X6268625Y-5839950D01*
X6177375Y-5839950D01*
X6174986Y-5839833D01*
X6172620Y-5839482D01*
X6170299Y-5838900D01*
X6168047Y-5838095D01*
X6165885Y-5837072D01*
X6163833Y-5835842D01*
X6161912Y-5834417D01*
X6160139Y-5832811D01*
X6158533Y-5831038D01*
X6157108Y-5829117D01*
X6155878Y-5827065D01*
X6154855Y-5824903D01*
X6154050Y-5822651D01*
X6153468Y-5820330D01*
X6153117Y-5817964D01*
X6153000Y-5815575D01*
X6153000Y-5766825D01*
X6153117Y-5764436D01*
X6153468Y-5762070D01*
X6154050Y-5759749D01*
X6154855Y-5757497D01*
X6155878Y-5755335D01*
X6157108Y-5753283D01*
X6158533Y-5751362D01*
X6160139Y-5749589D01*
X6161912Y-5747983D01*
X6163833Y-5746558D01*
X6165885Y-5745328D01*
X6168047Y-5744305D01*
X6170299Y-5743500D01*
X6172620Y-5742918D01*
X6174986Y-5742567D01*
X6177375Y-5742450D01*
X6268625Y-5742450D01*
X6271014Y-5742567D01*
X6271014Y-5742567D01*
G37*
D12*
X6223000Y-5791200D03*
D11*
G36*
X6271014Y-5930067D02*
X6273380Y-5930418D01*
X6275701Y-5931000D01*
X6277953Y-5931805D01*
X6280115Y-5932828D01*
X6282167Y-5934058D01*
X6284088Y-5935483D01*
X6285861Y-5937089D01*
X6287467Y-5938862D01*
X6288892Y-5940783D01*
X6290122Y-5942835D01*
X6291145Y-5944997D01*
X6291950Y-5947249D01*
X6292532Y-5949570D01*
X6292883Y-5951936D01*
X6293000Y-5954325D01*
X6293000Y-6003075D01*
X6292883Y-6005464D01*
X6292532Y-6007830D01*
X6291950Y-6010151D01*
X6291145Y-6012403D01*
X6290122Y-6014565D01*
X6288892Y-6016617D01*
X6287467Y-6018538D01*
X6285861Y-6020311D01*
X6284088Y-6021917D01*
X6282167Y-6023342D01*
X6280115Y-6024572D01*
X6277953Y-6025595D01*
X6275701Y-6026400D01*
X6273380Y-6026982D01*
X6271014Y-6027333D01*
X6268625Y-6027450D01*
X6177375Y-6027450D01*
X6174986Y-6027333D01*
X6172620Y-6026982D01*
X6170299Y-6026400D01*
X6168047Y-6025595D01*
X6165885Y-6024572D01*
X6163833Y-6023342D01*
X6161912Y-6021917D01*
X6160139Y-6020311D01*
X6158533Y-6018538D01*
X6157108Y-6016617D01*
X6155878Y-6014565D01*
X6154855Y-6012403D01*
X6154050Y-6010151D01*
X6153468Y-6007830D01*
X6153117Y-6005464D01*
X6153000Y-6003075D01*
X6153000Y-5954325D01*
X6153117Y-5951936D01*
X6153468Y-5949570D01*
X6154050Y-5947249D01*
X6154855Y-5944997D01*
X6155878Y-5942835D01*
X6157108Y-5940783D01*
X6158533Y-5938862D01*
X6160139Y-5937089D01*
X6161912Y-5935483D01*
X6163833Y-5934058D01*
X6165885Y-5932828D01*
X6168047Y-5931805D01*
X6170299Y-5931000D01*
X6172620Y-5930418D01*
X6174986Y-5930067D01*
X6177375Y-5929950D01*
X6268625Y-5929950D01*
X6271014Y-5930067D01*
X6271014Y-5930067D01*
G37*
D12*
X6223000Y-5978700D03*
G04 #@! TD*
D11*
G04 #@! TO.C,R23*
G36*
X6626614Y-6174367D02*
X6628980Y-6174718D01*
X6631301Y-6175300D01*
X6633553Y-6176105D01*
X6635715Y-6177128D01*
X6637767Y-6178358D01*
X6639688Y-6179783D01*
X6641461Y-6181389D01*
X6643067Y-6183162D01*
X6644492Y-6185083D01*
X6645722Y-6187135D01*
X6646745Y-6189297D01*
X6647550Y-6191549D01*
X6648132Y-6193870D01*
X6648483Y-6196236D01*
X6648600Y-6198625D01*
X6648600Y-6247375D01*
X6648483Y-6249764D01*
X6648132Y-6252130D01*
X6647550Y-6254451D01*
X6646745Y-6256703D01*
X6645722Y-6258865D01*
X6644492Y-6260917D01*
X6643067Y-6262838D01*
X6641461Y-6264611D01*
X6639688Y-6266217D01*
X6637767Y-6267642D01*
X6635715Y-6268872D01*
X6633553Y-6269895D01*
X6631301Y-6270700D01*
X6628980Y-6271282D01*
X6626614Y-6271633D01*
X6624225Y-6271750D01*
X6532975Y-6271750D01*
X6530586Y-6271633D01*
X6528220Y-6271282D01*
X6525899Y-6270700D01*
X6523647Y-6269895D01*
X6521485Y-6268872D01*
X6519433Y-6267642D01*
X6517512Y-6266217D01*
X6515739Y-6264611D01*
X6514133Y-6262838D01*
X6512708Y-6260917D01*
X6511478Y-6258865D01*
X6510455Y-6256703D01*
X6509650Y-6254451D01*
X6509068Y-6252130D01*
X6508717Y-6249764D01*
X6508600Y-6247375D01*
X6508600Y-6198625D01*
X6508717Y-6196236D01*
X6509068Y-6193870D01*
X6509650Y-6191549D01*
X6510455Y-6189297D01*
X6511478Y-6187135D01*
X6512708Y-6185083D01*
X6514133Y-6183162D01*
X6515739Y-6181389D01*
X6517512Y-6179783D01*
X6519433Y-6178358D01*
X6521485Y-6177128D01*
X6523647Y-6176105D01*
X6525899Y-6175300D01*
X6528220Y-6174718D01*
X6530586Y-6174367D01*
X6532975Y-6174250D01*
X6624225Y-6174250D01*
X6626614Y-6174367D01*
X6626614Y-6174367D01*
G37*
D12*
X6578600Y-6223000D03*
D11*
G36*
X6626614Y-6361867D02*
X6628980Y-6362218D01*
X6631301Y-6362800D01*
X6633553Y-6363605D01*
X6635715Y-6364628D01*
X6637767Y-6365858D01*
X6639688Y-6367283D01*
X6641461Y-6368889D01*
X6643067Y-6370662D01*
X6644492Y-6372583D01*
X6645722Y-6374635D01*
X6646745Y-6376797D01*
X6647550Y-6379049D01*
X6648132Y-6381370D01*
X6648483Y-6383736D01*
X6648600Y-6386125D01*
X6648600Y-6434875D01*
X6648483Y-6437264D01*
X6648132Y-6439630D01*
X6647550Y-6441951D01*
X6646745Y-6444203D01*
X6645722Y-6446365D01*
X6644492Y-6448417D01*
X6643067Y-6450338D01*
X6641461Y-6452111D01*
X6639688Y-6453717D01*
X6637767Y-6455142D01*
X6635715Y-6456372D01*
X6633553Y-6457395D01*
X6631301Y-6458200D01*
X6628980Y-6458782D01*
X6626614Y-6459133D01*
X6624225Y-6459250D01*
X6532975Y-6459250D01*
X6530586Y-6459133D01*
X6528220Y-6458782D01*
X6525899Y-6458200D01*
X6523647Y-6457395D01*
X6521485Y-6456372D01*
X6519433Y-6455142D01*
X6517512Y-6453717D01*
X6515739Y-6452111D01*
X6514133Y-6450338D01*
X6512708Y-6448417D01*
X6511478Y-6446365D01*
X6510455Y-6444203D01*
X6509650Y-6441951D01*
X6509068Y-6439630D01*
X6508717Y-6437264D01*
X6508600Y-6434875D01*
X6508600Y-6386125D01*
X6508717Y-6383736D01*
X6509068Y-6381370D01*
X6509650Y-6379049D01*
X6510455Y-6376797D01*
X6511478Y-6374635D01*
X6512708Y-6372583D01*
X6514133Y-6370662D01*
X6515739Y-6368889D01*
X6517512Y-6367283D01*
X6519433Y-6365858D01*
X6521485Y-6364628D01*
X6523647Y-6363605D01*
X6525899Y-6362800D01*
X6528220Y-6362218D01*
X6530586Y-6361867D01*
X6532975Y-6361750D01*
X6624225Y-6361750D01*
X6626614Y-6361867D01*
X6626614Y-6361867D01*
G37*
D12*
X6578600Y-6410500D03*
G04 #@! TD*
D11*
G04 #@! TO.C,R24*
G36*
X6626614Y-5742567D02*
X6628980Y-5742918D01*
X6631301Y-5743500D01*
X6633553Y-5744305D01*
X6635715Y-5745328D01*
X6637767Y-5746558D01*
X6639688Y-5747983D01*
X6641461Y-5749589D01*
X6643067Y-5751362D01*
X6644492Y-5753283D01*
X6645722Y-5755335D01*
X6646745Y-5757497D01*
X6647550Y-5759749D01*
X6648132Y-5762070D01*
X6648483Y-5764436D01*
X6648600Y-5766825D01*
X6648600Y-5815575D01*
X6648483Y-5817964D01*
X6648132Y-5820330D01*
X6647550Y-5822651D01*
X6646745Y-5824903D01*
X6645722Y-5827065D01*
X6644492Y-5829117D01*
X6643067Y-5831038D01*
X6641461Y-5832811D01*
X6639688Y-5834417D01*
X6637767Y-5835842D01*
X6635715Y-5837072D01*
X6633553Y-5838095D01*
X6631301Y-5838900D01*
X6628980Y-5839482D01*
X6626614Y-5839833D01*
X6624225Y-5839950D01*
X6532975Y-5839950D01*
X6530586Y-5839833D01*
X6528220Y-5839482D01*
X6525899Y-5838900D01*
X6523647Y-5838095D01*
X6521485Y-5837072D01*
X6519433Y-5835842D01*
X6517512Y-5834417D01*
X6515739Y-5832811D01*
X6514133Y-5831038D01*
X6512708Y-5829117D01*
X6511478Y-5827065D01*
X6510455Y-5824903D01*
X6509650Y-5822651D01*
X6509068Y-5820330D01*
X6508717Y-5817964D01*
X6508600Y-5815575D01*
X6508600Y-5766825D01*
X6508717Y-5764436D01*
X6509068Y-5762070D01*
X6509650Y-5759749D01*
X6510455Y-5757497D01*
X6511478Y-5755335D01*
X6512708Y-5753283D01*
X6514133Y-5751362D01*
X6515739Y-5749589D01*
X6517512Y-5747983D01*
X6519433Y-5746558D01*
X6521485Y-5745328D01*
X6523647Y-5744305D01*
X6525899Y-5743500D01*
X6528220Y-5742918D01*
X6530586Y-5742567D01*
X6532975Y-5742450D01*
X6624225Y-5742450D01*
X6626614Y-5742567D01*
X6626614Y-5742567D01*
G37*
D12*
X6578600Y-5791200D03*
D11*
G36*
X6626614Y-5930067D02*
X6628980Y-5930418D01*
X6631301Y-5931000D01*
X6633553Y-5931805D01*
X6635715Y-5932828D01*
X6637767Y-5934058D01*
X6639688Y-5935483D01*
X6641461Y-5937089D01*
X6643067Y-5938862D01*
X6644492Y-5940783D01*
X6645722Y-5942835D01*
X6646745Y-5944997D01*
X6647550Y-5947249D01*
X6648132Y-5949570D01*
X6648483Y-5951936D01*
X6648600Y-5954325D01*
X6648600Y-6003075D01*
X6648483Y-6005464D01*
X6648132Y-6007830D01*
X6647550Y-6010151D01*
X6646745Y-6012403D01*
X6645722Y-6014565D01*
X6644492Y-6016617D01*
X6643067Y-6018538D01*
X6641461Y-6020311D01*
X6639688Y-6021917D01*
X6637767Y-6023342D01*
X6635715Y-6024572D01*
X6633553Y-6025595D01*
X6631301Y-6026400D01*
X6628980Y-6026982D01*
X6626614Y-6027333D01*
X6624225Y-6027450D01*
X6532975Y-6027450D01*
X6530586Y-6027333D01*
X6528220Y-6026982D01*
X6525899Y-6026400D01*
X6523647Y-6025595D01*
X6521485Y-6024572D01*
X6519433Y-6023342D01*
X6517512Y-6021917D01*
X6515739Y-6020311D01*
X6514133Y-6018538D01*
X6512708Y-6016617D01*
X6511478Y-6014565D01*
X6510455Y-6012403D01*
X6509650Y-6010151D01*
X6509068Y-6007830D01*
X6508717Y-6005464D01*
X6508600Y-6003075D01*
X6508600Y-5954325D01*
X6508717Y-5951936D01*
X6509068Y-5949570D01*
X6509650Y-5947249D01*
X6510455Y-5944997D01*
X6511478Y-5942835D01*
X6512708Y-5940783D01*
X6514133Y-5938862D01*
X6515739Y-5937089D01*
X6517512Y-5935483D01*
X6519433Y-5934058D01*
X6521485Y-5932828D01*
X6523647Y-5931805D01*
X6525899Y-5931000D01*
X6528220Y-5930418D01*
X6530586Y-5930067D01*
X6532975Y-5929950D01*
X6624225Y-5929950D01*
X6626614Y-5930067D01*
X6626614Y-5930067D01*
G37*
D12*
X6578600Y-5978700D03*
G04 #@! TD*
D11*
G04 #@! TO.C,R31*
G36*
X10665214Y-5455317D02*
X10667580Y-5455668D01*
X10669901Y-5456250D01*
X10672153Y-5457055D01*
X10674315Y-5458078D01*
X10676367Y-5459308D01*
X10678288Y-5460733D01*
X10680061Y-5462339D01*
X10681667Y-5464112D01*
X10683092Y-5466033D01*
X10684322Y-5468085D01*
X10685345Y-5470247D01*
X10686150Y-5472499D01*
X10686732Y-5474820D01*
X10687083Y-5477186D01*
X10687200Y-5479575D01*
X10687200Y-5528325D01*
X10687083Y-5530714D01*
X10686732Y-5533080D01*
X10686150Y-5535401D01*
X10685345Y-5537653D01*
X10684322Y-5539815D01*
X10683092Y-5541867D01*
X10681667Y-5543788D01*
X10680061Y-5545561D01*
X10678288Y-5547167D01*
X10676367Y-5548592D01*
X10674315Y-5549822D01*
X10672153Y-5550845D01*
X10669901Y-5551650D01*
X10667580Y-5552232D01*
X10665214Y-5552583D01*
X10662825Y-5552700D01*
X10571575Y-5552700D01*
X10569186Y-5552583D01*
X10566820Y-5552232D01*
X10564499Y-5551650D01*
X10562247Y-5550845D01*
X10560085Y-5549822D01*
X10558033Y-5548592D01*
X10556112Y-5547167D01*
X10554339Y-5545561D01*
X10552733Y-5543788D01*
X10551308Y-5541867D01*
X10550078Y-5539815D01*
X10549055Y-5537653D01*
X10548250Y-5535401D01*
X10547668Y-5533080D01*
X10547317Y-5530714D01*
X10547200Y-5528325D01*
X10547200Y-5479575D01*
X10547317Y-5477186D01*
X10547668Y-5474820D01*
X10548250Y-5472499D01*
X10549055Y-5470247D01*
X10550078Y-5468085D01*
X10551308Y-5466033D01*
X10552733Y-5464112D01*
X10554339Y-5462339D01*
X10556112Y-5460733D01*
X10558033Y-5459308D01*
X10560085Y-5458078D01*
X10562247Y-5457055D01*
X10564499Y-5456250D01*
X10566820Y-5455668D01*
X10569186Y-5455317D01*
X10571575Y-5455200D01*
X10662825Y-5455200D01*
X10665214Y-5455317D01*
X10665214Y-5455317D01*
G37*
D12*
X10617200Y-5503950D03*
D11*
G36*
X10665214Y-5267817D02*
X10667580Y-5268168D01*
X10669901Y-5268750D01*
X10672153Y-5269555D01*
X10674315Y-5270578D01*
X10676367Y-5271808D01*
X10678288Y-5273233D01*
X10680061Y-5274839D01*
X10681667Y-5276612D01*
X10683092Y-5278533D01*
X10684322Y-5280585D01*
X10685345Y-5282747D01*
X10686150Y-5284999D01*
X10686732Y-5287320D01*
X10687083Y-5289686D01*
X10687200Y-5292075D01*
X10687200Y-5340825D01*
X10687083Y-5343214D01*
X10686732Y-5345580D01*
X10686150Y-5347901D01*
X10685345Y-5350153D01*
X10684322Y-5352315D01*
X10683092Y-5354367D01*
X10681667Y-5356288D01*
X10680061Y-5358061D01*
X10678288Y-5359667D01*
X10676367Y-5361092D01*
X10674315Y-5362322D01*
X10672153Y-5363345D01*
X10669901Y-5364150D01*
X10667580Y-5364732D01*
X10665214Y-5365083D01*
X10662825Y-5365200D01*
X10571575Y-5365200D01*
X10569186Y-5365083D01*
X10566820Y-5364732D01*
X10564499Y-5364150D01*
X10562247Y-5363345D01*
X10560085Y-5362322D01*
X10558033Y-5361092D01*
X10556112Y-5359667D01*
X10554339Y-5358061D01*
X10552733Y-5356288D01*
X10551308Y-5354367D01*
X10550078Y-5352315D01*
X10549055Y-5350153D01*
X10548250Y-5347901D01*
X10547668Y-5345580D01*
X10547317Y-5343214D01*
X10547200Y-5340825D01*
X10547200Y-5292075D01*
X10547317Y-5289686D01*
X10547668Y-5287320D01*
X10548250Y-5284999D01*
X10549055Y-5282747D01*
X10550078Y-5280585D01*
X10551308Y-5278533D01*
X10552733Y-5276612D01*
X10554339Y-5274839D01*
X10556112Y-5273233D01*
X10558033Y-5271808D01*
X10560085Y-5270578D01*
X10562247Y-5269555D01*
X10564499Y-5268750D01*
X10566820Y-5268168D01*
X10569186Y-5267817D01*
X10571575Y-5267700D01*
X10662825Y-5267700D01*
X10665214Y-5267817D01*
X10665214Y-5267817D01*
G37*
D12*
X10617200Y-5316450D03*
G04 #@! TD*
D11*
G04 #@! TO.C,R32*
G36*
X7693414Y-5470117D02*
X7695780Y-5470468D01*
X7698101Y-5471050D01*
X7700353Y-5471855D01*
X7702515Y-5472878D01*
X7704567Y-5474108D01*
X7706488Y-5475533D01*
X7708261Y-5477139D01*
X7709867Y-5478912D01*
X7711292Y-5480833D01*
X7712522Y-5482885D01*
X7713545Y-5485047D01*
X7714350Y-5487299D01*
X7714932Y-5489620D01*
X7715283Y-5491986D01*
X7715400Y-5494375D01*
X7715400Y-5543125D01*
X7715283Y-5545514D01*
X7714932Y-5547880D01*
X7714350Y-5550201D01*
X7713545Y-5552453D01*
X7712522Y-5554615D01*
X7711292Y-5556667D01*
X7709867Y-5558588D01*
X7708261Y-5560361D01*
X7706488Y-5561967D01*
X7704567Y-5563392D01*
X7702515Y-5564622D01*
X7700353Y-5565645D01*
X7698101Y-5566450D01*
X7695780Y-5567032D01*
X7693414Y-5567383D01*
X7691025Y-5567500D01*
X7599775Y-5567500D01*
X7597386Y-5567383D01*
X7595020Y-5567032D01*
X7592699Y-5566450D01*
X7590447Y-5565645D01*
X7588285Y-5564622D01*
X7586233Y-5563392D01*
X7584312Y-5561967D01*
X7582539Y-5560361D01*
X7580933Y-5558588D01*
X7579508Y-5556667D01*
X7578278Y-5554615D01*
X7577255Y-5552453D01*
X7576450Y-5550201D01*
X7575868Y-5547880D01*
X7575517Y-5545514D01*
X7575400Y-5543125D01*
X7575400Y-5494375D01*
X7575517Y-5491986D01*
X7575868Y-5489620D01*
X7576450Y-5487299D01*
X7577255Y-5485047D01*
X7578278Y-5482885D01*
X7579508Y-5480833D01*
X7580933Y-5478912D01*
X7582539Y-5477139D01*
X7584312Y-5475533D01*
X7586233Y-5474108D01*
X7588285Y-5472878D01*
X7590447Y-5471855D01*
X7592699Y-5471050D01*
X7595020Y-5470468D01*
X7597386Y-5470117D01*
X7599775Y-5470000D01*
X7691025Y-5470000D01*
X7693414Y-5470117D01*
X7693414Y-5470117D01*
G37*
D12*
X7645400Y-5518750D03*
D11*
G36*
X7693414Y-5282617D02*
X7695780Y-5282968D01*
X7698101Y-5283550D01*
X7700353Y-5284355D01*
X7702515Y-5285378D01*
X7704567Y-5286608D01*
X7706488Y-5288033D01*
X7708261Y-5289639D01*
X7709867Y-5291412D01*
X7711292Y-5293333D01*
X7712522Y-5295385D01*
X7713545Y-5297547D01*
X7714350Y-5299799D01*
X7714932Y-5302120D01*
X7715283Y-5304486D01*
X7715400Y-5306875D01*
X7715400Y-5355625D01*
X7715283Y-5358014D01*
X7714932Y-5360380D01*
X7714350Y-5362701D01*
X7713545Y-5364953D01*
X7712522Y-5367115D01*
X7711292Y-5369167D01*
X7709867Y-5371088D01*
X7708261Y-5372861D01*
X7706488Y-5374467D01*
X7704567Y-5375892D01*
X7702515Y-5377122D01*
X7700353Y-5378145D01*
X7698101Y-5378950D01*
X7695780Y-5379532D01*
X7693414Y-5379883D01*
X7691025Y-5380000D01*
X7599775Y-5380000D01*
X7597386Y-5379883D01*
X7595020Y-5379532D01*
X7592699Y-5378950D01*
X7590447Y-5378145D01*
X7588285Y-5377122D01*
X7586233Y-5375892D01*
X7584312Y-5374467D01*
X7582539Y-5372861D01*
X7580933Y-5371088D01*
X7579508Y-5369167D01*
X7578278Y-5367115D01*
X7577255Y-5364953D01*
X7576450Y-5362701D01*
X7575868Y-5360380D01*
X7575517Y-5358014D01*
X7575400Y-5355625D01*
X7575400Y-5306875D01*
X7575517Y-5304486D01*
X7575868Y-5302120D01*
X7576450Y-5299799D01*
X7577255Y-5297547D01*
X7578278Y-5295385D01*
X7579508Y-5293333D01*
X7580933Y-5291412D01*
X7582539Y-5289639D01*
X7584312Y-5288033D01*
X7586233Y-5286608D01*
X7588285Y-5285378D01*
X7590447Y-5284355D01*
X7592699Y-5283550D01*
X7595020Y-5282968D01*
X7597386Y-5282617D01*
X7599775Y-5282500D01*
X7691025Y-5282500D01*
X7693414Y-5282617D01*
X7693414Y-5282617D01*
G37*
D12*
X7645400Y-5331250D03*
G04 #@! TD*
D11*
G04 #@! TO.C,R37*
G36*
X9192014Y-5282617D02*
X9194380Y-5282968D01*
X9196701Y-5283550D01*
X9198953Y-5284355D01*
X9201115Y-5285378D01*
X9203167Y-5286608D01*
X9205088Y-5288033D01*
X9206861Y-5289639D01*
X9208467Y-5291412D01*
X9209892Y-5293333D01*
X9211122Y-5295385D01*
X9212145Y-5297547D01*
X9212950Y-5299799D01*
X9213532Y-5302120D01*
X9213883Y-5304486D01*
X9214000Y-5306875D01*
X9214000Y-5355625D01*
X9213883Y-5358014D01*
X9213532Y-5360380D01*
X9212950Y-5362701D01*
X9212145Y-5364953D01*
X9211122Y-5367115D01*
X9209892Y-5369167D01*
X9208467Y-5371088D01*
X9206861Y-5372861D01*
X9205088Y-5374467D01*
X9203167Y-5375892D01*
X9201115Y-5377122D01*
X9198953Y-5378145D01*
X9196701Y-5378950D01*
X9194380Y-5379532D01*
X9192014Y-5379883D01*
X9189625Y-5380000D01*
X9098375Y-5380000D01*
X9095986Y-5379883D01*
X9093620Y-5379532D01*
X9091299Y-5378950D01*
X9089047Y-5378145D01*
X9086885Y-5377122D01*
X9084833Y-5375892D01*
X9082912Y-5374467D01*
X9081139Y-5372861D01*
X9079533Y-5371088D01*
X9078108Y-5369167D01*
X9076878Y-5367115D01*
X9075855Y-5364953D01*
X9075050Y-5362701D01*
X9074468Y-5360380D01*
X9074117Y-5358014D01*
X9074000Y-5355625D01*
X9074000Y-5306875D01*
X9074117Y-5304486D01*
X9074468Y-5302120D01*
X9075050Y-5299799D01*
X9075855Y-5297547D01*
X9076878Y-5295385D01*
X9078108Y-5293333D01*
X9079533Y-5291412D01*
X9081139Y-5289639D01*
X9082912Y-5288033D01*
X9084833Y-5286608D01*
X9086885Y-5285378D01*
X9089047Y-5284355D01*
X9091299Y-5283550D01*
X9093620Y-5282968D01*
X9095986Y-5282617D01*
X9098375Y-5282500D01*
X9189625Y-5282500D01*
X9192014Y-5282617D01*
X9192014Y-5282617D01*
G37*
D12*
X9144000Y-5331250D03*
D11*
G36*
X9192014Y-5470117D02*
X9194380Y-5470468D01*
X9196701Y-5471050D01*
X9198953Y-5471855D01*
X9201115Y-5472878D01*
X9203167Y-5474108D01*
X9205088Y-5475533D01*
X9206861Y-5477139D01*
X9208467Y-5478912D01*
X9209892Y-5480833D01*
X9211122Y-5482885D01*
X9212145Y-5485047D01*
X9212950Y-5487299D01*
X9213532Y-5489620D01*
X9213883Y-5491986D01*
X9214000Y-5494375D01*
X9214000Y-5543125D01*
X9213883Y-5545514D01*
X9213532Y-5547880D01*
X9212950Y-5550201D01*
X9212145Y-5552453D01*
X9211122Y-5554615D01*
X9209892Y-5556667D01*
X9208467Y-5558588D01*
X9206861Y-5560361D01*
X9205088Y-5561967D01*
X9203167Y-5563392D01*
X9201115Y-5564622D01*
X9198953Y-5565645D01*
X9196701Y-5566450D01*
X9194380Y-5567032D01*
X9192014Y-5567383D01*
X9189625Y-5567500D01*
X9098375Y-5567500D01*
X9095986Y-5567383D01*
X9093620Y-5567032D01*
X9091299Y-5566450D01*
X9089047Y-5565645D01*
X9086885Y-5564622D01*
X9084833Y-5563392D01*
X9082912Y-5561967D01*
X9081139Y-5560361D01*
X9079533Y-5558588D01*
X9078108Y-5556667D01*
X9076878Y-5554615D01*
X9075855Y-5552453D01*
X9075050Y-5550201D01*
X9074468Y-5547880D01*
X9074117Y-5545514D01*
X9074000Y-5543125D01*
X9074000Y-5494375D01*
X9074117Y-5491986D01*
X9074468Y-5489620D01*
X9075050Y-5487299D01*
X9075855Y-5485047D01*
X9076878Y-5482885D01*
X9078108Y-5480833D01*
X9079533Y-5478912D01*
X9081139Y-5477139D01*
X9082912Y-5475533D01*
X9084833Y-5474108D01*
X9086885Y-5472878D01*
X9089047Y-5471855D01*
X9091299Y-5471050D01*
X9093620Y-5470468D01*
X9095986Y-5470117D01*
X9098375Y-5470000D01*
X9189625Y-5470000D01*
X9192014Y-5470117D01*
X9192014Y-5470117D01*
G37*
D12*
X9144000Y-5518750D03*
G04 #@! TD*
D11*
G04 #@! TO.C,R40*
G36*
X11428614Y-7042117D02*
X11430980Y-7042468D01*
X11433301Y-7043050D01*
X11435553Y-7043855D01*
X11437715Y-7044878D01*
X11439767Y-7046108D01*
X11441688Y-7047533D01*
X11443461Y-7049139D01*
X11445067Y-7050912D01*
X11446492Y-7052833D01*
X11447722Y-7054885D01*
X11448745Y-7057047D01*
X11449550Y-7059299D01*
X11450132Y-7061620D01*
X11450483Y-7063986D01*
X11450600Y-7066375D01*
X11450600Y-7157625D01*
X11450483Y-7160014D01*
X11450132Y-7162380D01*
X11449550Y-7164701D01*
X11448745Y-7166953D01*
X11447722Y-7169115D01*
X11446492Y-7171167D01*
X11445067Y-7173088D01*
X11443461Y-7174861D01*
X11441688Y-7176467D01*
X11439767Y-7177892D01*
X11437715Y-7179122D01*
X11435553Y-7180145D01*
X11433301Y-7180950D01*
X11430980Y-7181532D01*
X11428614Y-7181883D01*
X11426225Y-7182000D01*
X11377475Y-7182000D01*
X11375086Y-7181883D01*
X11372720Y-7181532D01*
X11370399Y-7180950D01*
X11368147Y-7180145D01*
X11365985Y-7179122D01*
X11363933Y-7177892D01*
X11362012Y-7176467D01*
X11360239Y-7174861D01*
X11358633Y-7173088D01*
X11357208Y-7171167D01*
X11355978Y-7169115D01*
X11354955Y-7166953D01*
X11354150Y-7164701D01*
X11353568Y-7162380D01*
X11353217Y-7160014D01*
X11353100Y-7157625D01*
X11353100Y-7066375D01*
X11353217Y-7063986D01*
X11353568Y-7061620D01*
X11354150Y-7059299D01*
X11354955Y-7057047D01*
X11355978Y-7054885D01*
X11357208Y-7052833D01*
X11358633Y-7050912D01*
X11360239Y-7049139D01*
X11362012Y-7047533D01*
X11363933Y-7046108D01*
X11365985Y-7044878D01*
X11368147Y-7043855D01*
X11370399Y-7043050D01*
X11372720Y-7042468D01*
X11375086Y-7042117D01*
X11377475Y-7042000D01*
X11426225Y-7042000D01*
X11428614Y-7042117D01*
X11428614Y-7042117D01*
G37*
D12*
X11401850Y-7112000D03*
D11*
G36*
X11616114Y-7042117D02*
X11618480Y-7042468D01*
X11620801Y-7043050D01*
X11623053Y-7043855D01*
X11625215Y-7044878D01*
X11627267Y-7046108D01*
X11629188Y-7047533D01*
X11630961Y-7049139D01*
X11632567Y-7050912D01*
X11633992Y-7052833D01*
X11635222Y-7054885D01*
X11636245Y-7057047D01*
X11637050Y-7059299D01*
X11637632Y-7061620D01*
X11637983Y-7063986D01*
X11638100Y-7066375D01*
X11638100Y-7157625D01*
X11637983Y-7160014D01*
X11637632Y-7162380D01*
X11637050Y-7164701D01*
X11636245Y-7166953D01*
X11635222Y-7169115D01*
X11633992Y-7171167D01*
X11632567Y-7173088D01*
X11630961Y-7174861D01*
X11629188Y-7176467D01*
X11627267Y-7177892D01*
X11625215Y-7179122D01*
X11623053Y-7180145D01*
X11620801Y-7180950D01*
X11618480Y-7181532D01*
X11616114Y-7181883D01*
X11613725Y-7182000D01*
X11564975Y-7182000D01*
X11562586Y-7181883D01*
X11560220Y-7181532D01*
X11557899Y-7180950D01*
X11555647Y-7180145D01*
X11553485Y-7179122D01*
X11551433Y-7177892D01*
X11549512Y-7176467D01*
X11547739Y-7174861D01*
X11546133Y-7173088D01*
X11544708Y-7171167D01*
X11543478Y-7169115D01*
X11542455Y-7166953D01*
X11541650Y-7164701D01*
X11541068Y-7162380D01*
X11540717Y-7160014D01*
X11540600Y-7157625D01*
X11540600Y-7066375D01*
X11540717Y-7063986D01*
X11541068Y-7061620D01*
X11541650Y-7059299D01*
X11542455Y-7057047D01*
X11543478Y-7054885D01*
X11544708Y-7052833D01*
X11546133Y-7050912D01*
X11547739Y-7049139D01*
X11549512Y-7047533D01*
X11551433Y-7046108D01*
X11553485Y-7044878D01*
X11555647Y-7043855D01*
X11557899Y-7043050D01*
X11560220Y-7042468D01*
X11562586Y-7042117D01*
X11564975Y-7042000D01*
X11613725Y-7042000D01*
X11616114Y-7042117D01*
X11616114Y-7042117D01*
G37*
D12*
X11589350Y-7112000D03*
G04 #@! TD*
D11*
G04 #@! TO.C,R41*
G36*
X6207514Y-12019367D02*
X6209880Y-12019718D01*
X6212201Y-12020300D01*
X6214453Y-12021105D01*
X6216615Y-12022128D01*
X6218667Y-12023358D01*
X6220588Y-12024783D01*
X6222361Y-12026389D01*
X6223967Y-12028162D01*
X6225392Y-12030083D01*
X6226622Y-12032135D01*
X6227645Y-12034297D01*
X6228450Y-12036549D01*
X6229032Y-12038870D01*
X6229383Y-12041236D01*
X6229500Y-12043625D01*
X6229500Y-12092375D01*
X6229383Y-12094764D01*
X6229032Y-12097130D01*
X6228450Y-12099451D01*
X6227645Y-12101703D01*
X6226622Y-12103865D01*
X6225392Y-12105917D01*
X6223967Y-12107838D01*
X6222361Y-12109611D01*
X6220588Y-12111217D01*
X6218667Y-12112642D01*
X6216615Y-12113872D01*
X6214453Y-12114895D01*
X6212201Y-12115700D01*
X6209880Y-12116282D01*
X6207514Y-12116633D01*
X6205125Y-12116750D01*
X6113875Y-12116750D01*
X6111486Y-12116633D01*
X6109120Y-12116282D01*
X6106799Y-12115700D01*
X6104547Y-12114895D01*
X6102385Y-12113872D01*
X6100333Y-12112642D01*
X6098412Y-12111217D01*
X6096639Y-12109611D01*
X6095033Y-12107838D01*
X6093608Y-12105917D01*
X6092378Y-12103865D01*
X6091355Y-12101703D01*
X6090550Y-12099451D01*
X6089968Y-12097130D01*
X6089617Y-12094764D01*
X6089500Y-12092375D01*
X6089500Y-12043625D01*
X6089617Y-12041236D01*
X6089968Y-12038870D01*
X6090550Y-12036549D01*
X6091355Y-12034297D01*
X6092378Y-12032135D01*
X6093608Y-12030083D01*
X6095033Y-12028162D01*
X6096639Y-12026389D01*
X6098412Y-12024783D01*
X6100333Y-12023358D01*
X6102385Y-12022128D01*
X6104547Y-12021105D01*
X6106799Y-12020300D01*
X6109120Y-12019718D01*
X6111486Y-12019367D01*
X6113875Y-12019250D01*
X6205125Y-12019250D01*
X6207514Y-12019367D01*
X6207514Y-12019367D01*
G37*
D12*
X6159500Y-12068000D03*
D11*
G36*
X6207514Y-12206867D02*
X6209880Y-12207218D01*
X6212201Y-12207800D01*
X6214453Y-12208605D01*
X6216615Y-12209628D01*
X6218667Y-12210858D01*
X6220588Y-12212283D01*
X6222361Y-12213889D01*
X6223967Y-12215662D01*
X6225392Y-12217583D01*
X6226622Y-12219635D01*
X6227645Y-12221797D01*
X6228450Y-12224049D01*
X6229032Y-12226370D01*
X6229383Y-12228736D01*
X6229500Y-12231125D01*
X6229500Y-12279875D01*
X6229383Y-12282264D01*
X6229032Y-12284630D01*
X6228450Y-12286951D01*
X6227645Y-12289203D01*
X6226622Y-12291365D01*
X6225392Y-12293417D01*
X6223967Y-12295338D01*
X6222361Y-12297111D01*
X6220588Y-12298717D01*
X6218667Y-12300142D01*
X6216615Y-12301372D01*
X6214453Y-12302395D01*
X6212201Y-12303200D01*
X6209880Y-12303782D01*
X6207514Y-12304133D01*
X6205125Y-12304250D01*
X6113875Y-12304250D01*
X6111486Y-12304133D01*
X6109120Y-12303782D01*
X6106799Y-12303200D01*
X6104547Y-12302395D01*
X6102385Y-12301372D01*
X6100333Y-12300142D01*
X6098412Y-12298717D01*
X6096639Y-12297111D01*
X6095033Y-12295338D01*
X6093608Y-12293417D01*
X6092378Y-12291365D01*
X6091355Y-12289203D01*
X6090550Y-12286951D01*
X6089968Y-12284630D01*
X6089617Y-12282264D01*
X6089500Y-12279875D01*
X6089500Y-12231125D01*
X6089617Y-12228736D01*
X6089968Y-12226370D01*
X6090550Y-12224049D01*
X6091355Y-12221797D01*
X6092378Y-12219635D01*
X6093608Y-12217583D01*
X6095033Y-12215662D01*
X6096639Y-12213889D01*
X6098412Y-12212283D01*
X6100333Y-12210858D01*
X6102385Y-12209628D01*
X6104547Y-12208605D01*
X6106799Y-12207800D01*
X6109120Y-12207218D01*
X6111486Y-12206867D01*
X6113875Y-12206750D01*
X6205125Y-12206750D01*
X6207514Y-12206867D01*
X6207514Y-12206867D01*
G37*
D12*
X6159500Y-12255500D03*
G04 #@! TD*
M02*
