%TF.GenerationSoftware,KiCad,Pcbnew,5.0.2-bee76a0~70~ubuntu18.04.1*%
%TF.CreationDate,2020-05-01T14:29:18+02:00*%
%TF.ProjectId,gsvesc,67737665-7363-42e6-9b69-6361645f7063,rev?*%
%TF.SameCoordinates,PX5f5e038PY5f5e038*%
%TF.FileFunction,Soldermask,Bot*%
%TF.FilePolarity,Negative*%
%FSLAX46Y46*%
G04 Gerber Fmt 4.6, Leading zero omitted, Abs format (unit mm)*
G04 Created by KiCad (PCBNEW 5.0.2-bee76a0~70~ubuntu18.04.1) date Fr 01 Mai 2020 14:29:18 CEST*
%MOMM*%
%LPD*%
G01*
G04 APERTURE LIST*
%ADD10C,0.200000*%
%ADD11C,0.100000*%
G04 APERTURE END LIST*
D10*
X24500200Y-200D02*
G75*
G03X24500200Y-200I-24500000J0D01*
G01*
X55500200Y-200D02*
G75*
G03X55500200Y-200I-55500000J0D01*
G01*
D11*
G36*
X-35879550Y-35979953D02*
X-35879548Y-35979954D01*
X-35879547Y-35979954D01*
X-35701927Y-36053526D01*
X-35701926Y-36053527D01*
X-35542070Y-36160340D01*
X-35406130Y-36296280D01*
X-35406128Y-36296283D01*
X-35299316Y-36456137D01*
X-35225744Y-36633757D01*
X-35188236Y-36822318D01*
X-35188236Y-37014574D01*
X-35225744Y-37203135D01*
X-35299316Y-37380755D01*
X-35299317Y-37380756D01*
X-35406130Y-37540612D01*
X-35542070Y-37676552D01*
X-35542073Y-37676554D01*
X-35701927Y-37783366D01*
X-35879547Y-37856938D01*
X-35879548Y-37856938D01*
X-35879550Y-37856939D01*
X-36068107Y-37894446D01*
X-36260365Y-37894446D01*
X-36448922Y-37856939D01*
X-36448924Y-37856938D01*
X-36448925Y-37856938D01*
X-36626545Y-37783366D01*
X-36786399Y-37676554D01*
X-36786402Y-37676552D01*
X-36922342Y-37540612D01*
X-37029155Y-37380756D01*
X-37029156Y-37380755D01*
X-37102728Y-37203135D01*
X-37140236Y-37014574D01*
X-37140236Y-36822318D01*
X-37102728Y-36633757D01*
X-37029156Y-36456137D01*
X-36922344Y-36296283D01*
X-36922342Y-36296280D01*
X-36786402Y-36160340D01*
X-36626546Y-36053527D01*
X-36626545Y-36053526D01*
X-36448925Y-35979954D01*
X-36448924Y-35979954D01*
X-36448922Y-35979953D01*
X-36260365Y-35942446D01*
X-36068107Y-35942446D01*
X-35879550Y-35979953D01*
X-35879550Y-35979953D01*
G37*
G36*
X-37404404Y-33769925D02*
X-37318688Y-33805429D01*
X-37241542Y-33856977D01*
X-37175942Y-33922577D01*
X-37124394Y-33999723D01*
X-37088890Y-34085439D01*
X-37070790Y-34176434D01*
X-37070790Y-34269216D01*
X-37088890Y-34360211D01*
X-37124394Y-34445927D01*
X-37175942Y-34523073D01*
X-37241542Y-34588673D01*
X-37318688Y-34640221D01*
X-37404404Y-34675725D01*
X-37495399Y-34693825D01*
X-37548785Y-34693825D01*
X-37573171Y-34696227D01*
X-37596620Y-34703340D01*
X-37618231Y-34714891D01*
X-37637173Y-34730437D01*
X-37652719Y-34749379D01*
X-37664270Y-34770990D01*
X-37671383Y-34794439D01*
X-37673785Y-34818825D01*
X-37671383Y-34843211D01*
X-37664270Y-34866660D01*
X-37652719Y-34888271D01*
X-37641678Y-34902466D01*
X-37184818Y-35409860D01*
X-37184818Y-35409861D01*
X-37553183Y-35741538D01*
X-37884860Y-36040182D01*
X-37884861Y-36040182D01*
X-38216538Y-35671817D01*
X-38515182Y-35340140D01*
X-38515182Y-35340139D01*
X-37863434Y-34753303D01*
X-37846919Y-34735202D01*
X-37834253Y-34714225D01*
X-37825922Y-34691180D01*
X-37822247Y-34666953D01*
X-37823370Y-34642474D01*
X-37829246Y-34618685D01*
X-37839650Y-34596499D01*
X-37858688Y-34572023D01*
X-37907638Y-34523073D01*
X-37959186Y-34445927D01*
X-37994690Y-34360211D01*
X-38001272Y-34327120D01*
X-38008385Y-34303671D01*
X-38014054Y-34293065D01*
X-38012790Y-34280231D01*
X-38012790Y-34176434D01*
X-37994690Y-34085439D01*
X-37959186Y-33999723D01*
X-37907638Y-33922577D01*
X-37842038Y-33856977D01*
X-37764892Y-33805429D01*
X-37679176Y-33769925D01*
X-37588181Y-33751825D01*
X-37495399Y-33751825D01*
X-37404404Y-33769925D01*
X-37404404Y-33769925D01*
G37*
G36*
X-38618578Y-33948833D02*
X-38594198Y-33951234D01*
X-38592364Y-33951053D01*
X-38585168Y-33954900D01*
X-38496769Y-33991516D01*
X-38419622Y-34043064D01*
X-38354022Y-34108664D01*
X-38302474Y-34185810D01*
X-38266970Y-34271526D01*
X-38260388Y-34304617D01*
X-38253275Y-34328066D01*
X-38247606Y-34338672D01*
X-38248870Y-34351506D01*
X-38248870Y-34455303D01*
X-38266970Y-34546298D01*
X-38302474Y-34632014D01*
X-38354022Y-34709160D01*
X-38419622Y-34774760D01*
X-38496768Y-34826308D01*
X-38582484Y-34861812D01*
X-38673479Y-34879912D01*
X-38766261Y-34879912D01*
X-38857256Y-34861812D01*
X-38942972Y-34826308D01*
X-39020118Y-34774760D01*
X-39085718Y-34709160D01*
X-39137266Y-34632014D01*
X-39172770Y-34546298D01*
X-39190870Y-34455303D01*
X-39190870Y-34362521D01*
X-39172770Y-34271526D01*
X-39137266Y-34185810D01*
X-39085718Y-34108664D01*
X-39020118Y-34043064D01*
X-38942972Y-33991516D01*
X-38857256Y-33956012D01*
X-38766261Y-33937912D01*
X-38673481Y-33937912D01*
X-38618578Y-33948833D01*
X-38618578Y-33948833D01*
G37*
G36*
X-39452354Y-32989923D02*
X-39366638Y-33025427D01*
X-39289492Y-33076975D01*
X-39223892Y-33142575D01*
X-39172344Y-33219721D01*
X-39136840Y-33305437D01*
X-39130258Y-33338528D01*
X-39123145Y-33361977D01*
X-39117476Y-33372584D01*
X-39118740Y-33385418D01*
X-39118740Y-33489214D01*
X-39136840Y-33580209D01*
X-39172344Y-33665925D01*
X-39223892Y-33743071D01*
X-39289492Y-33808671D01*
X-39366638Y-33860219D01*
X-39452354Y-33895723D01*
X-39543349Y-33913823D01*
X-39636131Y-33913823D01*
X-39727126Y-33895723D01*
X-39812842Y-33860219D01*
X-39889988Y-33808671D01*
X-39955588Y-33743071D01*
X-40007136Y-33665925D01*
X-40042640Y-33580209D01*
X-40060740Y-33489214D01*
X-40060740Y-33396432D01*
X-40042640Y-33305437D01*
X-40007136Y-33219721D01*
X-39955588Y-33142575D01*
X-39889988Y-33076975D01*
X-39812842Y-33025427D01*
X-39727126Y-32989923D01*
X-39636131Y-32971823D01*
X-39543349Y-32971823D01*
X-39452354Y-32989923D01*
X-39452354Y-32989923D01*
G37*
G36*
X-38274274Y-32803837D02*
X-38188558Y-32839341D01*
X-38111412Y-32890889D01*
X-38045812Y-32956489D01*
X-37994264Y-33033635D01*
X-37958760Y-33119351D01*
X-37940660Y-33210346D01*
X-37940660Y-33303128D01*
X-37958760Y-33394123D01*
X-37994264Y-33479839D01*
X-38045812Y-33556985D01*
X-38111412Y-33622585D01*
X-38188558Y-33674133D01*
X-38274274Y-33709637D01*
X-38365269Y-33727737D01*
X-38458049Y-33727737D01*
X-38512952Y-33716816D01*
X-38537332Y-33714415D01*
X-38539166Y-33714596D01*
X-38546362Y-33710749D01*
X-38634761Y-33674133D01*
X-38711908Y-33622585D01*
X-38777508Y-33556985D01*
X-38829056Y-33479839D01*
X-38864560Y-33394123D01*
X-38871142Y-33361032D01*
X-38878255Y-33337583D01*
X-38883924Y-33326976D01*
X-38882660Y-33314142D01*
X-38882660Y-33210346D01*
X-38864560Y-33119351D01*
X-38829056Y-33033635D01*
X-38777508Y-32956489D01*
X-38711908Y-32890889D01*
X-38634762Y-32839341D01*
X-38549046Y-32803837D01*
X-38458051Y-32785737D01*
X-38365269Y-32785737D01*
X-38274274Y-32803837D01*
X-38274274Y-32803837D01*
G37*
G36*
X-40663834Y-30666467D02*
X-40663832Y-30666468D01*
X-40663831Y-30666468D01*
X-40486211Y-30740040D01*
X-40486210Y-30740041D01*
X-40326354Y-30846854D01*
X-40190414Y-30982794D01*
X-40190412Y-30982797D01*
X-40083600Y-31142651D01*
X-40010028Y-31320271D01*
X-39972520Y-31508832D01*
X-39972520Y-31701088D01*
X-40010028Y-31889649D01*
X-40083600Y-32067269D01*
X-40083601Y-32067270D01*
X-40190414Y-32227126D01*
X-40326354Y-32363066D01*
X-40326357Y-32363068D01*
X-40486211Y-32469880D01*
X-40663831Y-32543452D01*
X-40663832Y-32543452D01*
X-40663834Y-32543453D01*
X-40852391Y-32580960D01*
X-41044649Y-32580960D01*
X-41233206Y-32543453D01*
X-41233208Y-32543452D01*
X-41233209Y-32543452D01*
X-41410829Y-32469880D01*
X-41570683Y-32363068D01*
X-41570686Y-32363066D01*
X-41706626Y-32227126D01*
X-41813439Y-32067270D01*
X-41813440Y-32067269D01*
X-41887012Y-31889649D01*
X-41924520Y-31701088D01*
X-41924520Y-31508832D01*
X-41887012Y-31320271D01*
X-41813440Y-31142651D01*
X-41706628Y-30982797D01*
X-41706626Y-30982794D01*
X-41570686Y-30846854D01*
X-41410830Y-30740041D01*
X-41410829Y-30740040D01*
X-41233209Y-30666468D01*
X-41233208Y-30666468D01*
X-41233206Y-30666467D01*
X-41044649Y-30628960D01*
X-40852391Y-30628960D01*
X-40663834Y-30666467D01*
X-40663834Y-30666467D01*
G37*
G36*
X44975764Y-24141498D02*
X45082087Y-24162647D01*
X45382550Y-24287103D01*
X45529341Y-24385186D01*
X45652962Y-24467787D01*
X45882921Y-24697746D01*
X46063606Y-24968160D01*
X46188061Y-25268622D01*
X46251508Y-25587589D01*
X46251508Y-25912811D01*
X46188061Y-26231778D01*
X46063606Y-26532240D01*
X45882921Y-26802654D01*
X45652962Y-27032613D01*
X45652959Y-27032615D01*
X45382550Y-27213297D01*
X45082087Y-27337753D01*
X44975764Y-27358902D01*
X44763119Y-27401200D01*
X44437897Y-27401200D01*
X44225252Y-27358902D01*
X44118929Y-27337753D01*
X43818466Y-27213297D01*
X43548057Y-27032615D01*
X43548054Y-27032613D01*
X43318095Y-26802654D01*
X43137410Y-26532240D01*
X43012955Y-26231778D01*
X42949508Y-25912811D01*
X42949508Y-25587589D01*
X43012955Y-25268622D01*
X43137410Y-24968160D01*
X43318095Y-24697746D01*
X43548054Y-24467787D01*
X43671675Y-24385186D01*
X43818466Y-24287103D01*
X44118929Y-24162647D01*
X44225252Y-24141498D01*
X44437897Y-24099200D01*
X44763119Y-24099200D01*
X44975764Y-24141498D01*
X44975764Y-24141498D01*
G37*
G36*
X-44224852Y-24141498D02*
X-44118529Y-24162647D01*
X-43818066Y-24287103D01*
X-43671275Y-24385186D01*
X-43547654Y-24467787D01*
X-43317695Y-24697746D01*
X-43137010Y-24968160D01*
X-43012555Y-25268622D01*
X-42949108Y-25587589D01*
X-42949108Y-25912811D01*
X-43012555Y-26231778D01*
X-43137010Y-26532240D01*
X-43317695Y-26802654D01*
X-43547654Y-27032613D01*
X-43547657Y-27032615D01*
X-43818066Y-27213297D01*
X-44118529Y-27337753D01*
X-44224852Y-27358902D01*
X-44437497Y-27401200D01*
X-44762719Y-27401200D01*
X-44975364Y-27358902D01*
X-45081687Y-27337753D01*
X-45382150Y-27213297D01*
X-45652559Y-27032615D01*
X-45652562Y-27032613D01*
X-45882521Y-26802654D01*
X-46063206Y-26532240D01*
X-46187661Y-26231778D01*
X-46251108Y-25912811D01*
X-46251108Y-25587589D01*
X-46187661Y-25268622D01*
X-46063206Y-24968160D01*
X-45882521Y-24697746D01*
X-45652562Y-24467787D01*
X-45528941Y-24385186D01*
X-45382150Y-24287103D01*
X-45081687Y-24162647D01*
X-44975364Y-24141498D01*
X-44762719Y-24099200D01*
X-44437497Y-24099200D01*
X-44224852Y-24141498D01*
X-44224852Y-24141498D01*
G37*
G36*
X-23639557Y-25390519D02*
X-23573373Y-25397037D01*
X-23460147Y-25431384D01*
X-23403533Y-25448557D01*
X-23264913Y-25522652D01*
X-23247009Y-25532222D01*
X-23211271Y-25561552D01*
X-23109814Y-25644814D01*
X-23026552Y-25746271D01*
X-22997222Y-25782009D01*
X-22997221Y-25782011D01*
X-22913557Y-25938533D01*
X-22913557Y-25938534D01*
X-22862037Y-26108373D01*
X-22844641Y-26285000D01*
X-22862037Y-26461627D01*
X-22883457Y-26532240D01*
X-22913557Y-26631467D01*
X-22987652Y-26770087D01*
X-22997222Y-26787991D01*
X-23009256Y-26802654D01*
X-23109814Y-26925186D01*
X-23211271Y-27008448D01*
X-23247009Y-27037778D01*
X-23247011Y-27037779D01*
X-23403533Y-27121443D01*
X-23460147Y-27138616D01*
X-23573373Y-27172963D01*
X-23639557Y-27179481D01*
X-23705740Y-27186000D01*
X-23794260Y-27186000D01*
X-23860443Y-27179481D01*
X-23926627Y-27172963D01*
X-24039853Y-27138616D01*
X-24096467Y-27121443D01*
X-24252989Y-27037779D01*
X-24252991Y-27037778D01*
X-24288729Y-27008448D01*
X-24390186Y-26925186D01*
X-24490744Y-26802654D01*
X-24502778Y-26787991D01*
X-24512348Y-26770087D01*
X-24586443Y-26631467D01*
X-24616543Y-26532240D01*
X-24637963Y-26461627D01*
X-24655359Y-26285000D01*
X-24637963Y-26108373D01*
X-24586443Y-25938534D01*
X-24586443Y-25938533D01*
X-24502779Y-25782011D01*
X-24502778Y-25782009D01*
X-24473448Y-25746271D01*
X-24390186Y-25644814D01*
X-24288729Y-25561552D01*
X-24252991Y-25532222D01*
X-24235087Y-25522652D01*
X-24096467Y-25448557D01*
X-24039853Y-25431384D01*
X-23926627Y-25397037D01*
X-23860443Y-25390519D01*
X-23794260Y-25384000D01*
X-23705740Y-25384000D01*
X-23639557Y-25390519D01*
X-23639557Y-25390519D01*
G37*
G36*
X-23639558Y-22850518D02*
X-23573373Y-22857037D01*
X-23460147Y-22891384D01*
X-23403533Y-22908557D01*
X-23264913Y-22982652D01*
X-23247009Y-22992222D01*
X-23211271Y-23021552D01*
X-23109814Y-23104814D01*
X-23026552Y-23206271D01*
X-22997222Y-23242009D01*
X-22997221Y-23242011D01*
X-22913557Y-23398533D01*
X-22913557Y-23398534D01*
X-22862037Y-23568373D01*
X-22844641Y-23745000D01*
X-22862037Y-23921627D01*
X-22896384Y-24034853D01*
X-22913557Y-24091467D01*
X-22951604Y-24162647D01*
X-22997222Y-24247991D01*
X-23026552Y-24283729D01*
X-23109814Y-24385186D01*
X-23210463Y-24467785D01*
X-23247009Y-24497778D01*
X-23247011Y-24497779D01*
X-23403533Y-24581443D01*
X-23460147Y-24598616D01*
X-23573373Y-24632963D01*
X-23639557Y-24639481D01*
X-23705740Y-24646000D01*
X-23794260Y-24646000D01*
X-23860443Y-24639481D01*
X-23926627Y-24632963D01*
X-24039853Y-24598616D01*
X-24096467Y-24581443D01*
X-24252989Y-24497779D01*
X-24252991Y-24497778D01*
X-24289537Y-24467785D01*
X-24390186Y-24385186D01*
X-24473448Y-24283729D01*
X-24502778Y-24247991D01*
X-24548396Y-24162647D01*
X-24586443Y-24091467D01*
X-24603616Y-24034853D01*
X-24637963Y-23921627D01*
X-24655359Y-23745000D01*
X-24637963Y-23568373D01*
X-24586443Y-23398534D01*
X-24586443Y-23398533D01*
X-24502779Y-23242011D01*
X-24502778Y-23242009D01*
X-24473448Y-23206271D01*
X-24390186Y-23104814D01*
X-24288729Y-23021552D01*
X-24252991Y-22992222D01*
X-24235087Y-22982652D01*
X-24096467Y-22908557D01*
X-24039853Y-22891384D01*
X-23926627Y-22857037D01*
X-23860442Y-22850518D01*
X-23794260Y-22844000D01*
X-23705740Y-22844000D01*
X-23639558Y-22850518D01*
X-23639558Y-22850518D01*
G37*
G36*
X-23639558Y-20310518D02*
X-23573373Y-20317037D01*
X-23460147Y-20351384D01*
X-23403533Y-20368557D01*
X-23264913Y-20442652D01*
X-23247009Y-20452222D01*
X-23211271Y-20481552D01*
X-23109814Y-20564814D01*
X-23026552Y-20666271D01*
X-22997222Y-20702009D01*
X-22997221Y-20702011D01*
X-22913557Y-20858533D01*
X-22913557Y-20858534D01*
X-22862037Y-21028373D01*
X-22844641Y-21205000D01*
X-22862037Y-21381627D01*
X-22896384Y-21494853D01*
X-22913557Y-21551467D01*
X-22987652Y-21690087D01*
X-22997222Y-21707991D01*
X-23026552Y-21743729D01*
X-23109814Y-21845186D01*
X-23211271Y-21928448D01*
X-23247009Y-21957778D01*
X-23247011Y-21957779D01*
X-23403533Y-22041443D01*
X-23460147Y-22058616D01*
X-23573373Y-22092963D01*
X-23639558Y-22099482D01*
X-23705740Y-22106000D01*
X-23794260Y-22106000D01*
X-23860442Y-22099482D01*
X-23926627Y-22092963D01*
X-24039853Y-22058616D01*
X-24096467Y-22041443D01*
X-24252989Y-21957779D01*
X-24252991Y-21957778D01*
X-24288729Y-21928448D01*
X-24390186Y-21845186D01*
X-24473448Y-21743729D01*
X-24502778Y-21707991D01*
X-24512348Y-21690087D01*
X-24586443Y-21551467D01*
X-24603616Y-21494853D01*
X-24637963Y-21381627D01*
X-24655359Y-21205000D01*
X-24637963Y-21028373D01*
X-24586443Y-20858534D01*
X-24586443Y-20858533D01*
X-24502779Y-20702011D01*
X-24502778Y-20702009D01*
X-24473448Y-20666271D01*
X-24390186Y-20564814D01*
X-24288729Y-20481552D01*
X-24252991Y-20452222D01*
X-24235087Y-20442652D01*
X-24096467Y-20368557D01*
X-24039853Y-20351384D01*
X-23926627Y-20317037D01*
X-23860442Y-20310518D01*
X-23794260Y-20304000D01*
X-23705740Y-20304000D01*
X-23639558Y-20310518D01*
X-23639558Y-20310518D01*
G37*
G36*
X-23639557Y-17770519D02*
X-23573373Y-17777037D01*
X-23460147Y-17811384D01*
X-23403533Y-17828557D01*
X-23264913Y-17902652D01*
X-23247009Y-17912222D01*
X-23211271Y-17941552D01*
X-23109814Y-18024814D01*
X-23026552Y-18126271D01*
X-22997222Y-18162009D01*
X-22997221Y-18162011D01*
X-22913557Y-18318533D01*
X-22913557Y-18318534D01*
X-22862037Y-18488373D01*
X-22844641Y-18665000D01*
X-22862037Y-18841627D01*
X-22896384Y-18954853D01*
X-22913557Y-19011467D01*
X-22987652Y-19150087D01*
X-22997222Y-19167991D01*
X-23026552Y-19203729D01*
X-23109814Y-19305186D01*
X-23211271Y-19388448D01*
X-23247009Y-19417778D01*
X-23247011Y-19417779D01*
X-23403533Y-19501443D01*
X-23460147Y-19518616D01*
X-23573373Y-19552963D01*
X-23639558Y-19559482D01*
X-23705740Y-19566000D01*
X-23794260Y-19566000D01*
X-23860442Y-19559482D01*
X-23926627Y-19552963D01*
X-24039853Y-19518616D01*
X-24096467Y-19501443D01*
X-24252989Y-19417779D01*
X-24252991Y-19417778D01*
X-24288729Y-19388448D01*
X-24390186Y-19305186D01*
X-24473448Y-19203729D01*
X-24502778Y-19167991D01*
X-24512348Y-19150087D01*
X-24586443Y-19011467D01*
X-24603616Y-18954853D01*
X-24637963Y-18841627D01*
X-24655359Y-18665000D01*
X-24637963Y-18488373D01*
X-24586443Y-18318534D01*
X-24586443Y-18318533D01*
X-24502779Y-18162011D01*
X-24502778Y-18162009D01*
X-24473448Y-18126271D01*
X-24390186Y-18024814D01*
X-24288729Y-17941552D01*
X-24252991Y-17912222D01*
X-24235087Y-17902652D01*
X-24096467Y-17828557D01*
X-24039853Y-17811384D01*
X-23926627Y-17777037D01*
X-23860443Y-17770519D01*
X-23794260Y-17764000D01*
X-23705740Y-17764000D01*
X-23639557Y-17770519D01*
X-23639557Y-17770519D01*
G37*
G36*
X-22849000Y-17026000D02*
X-24651000Y-17026000D01*
X-24651000Y-15224000D01*
X-22849000Y-15224000D01*
X-22849000Y-17026000D01*
X-22849000Y-17026000D01*
G37*
G36*
X375456Y53108502D02*
X481779Y53087353D01*
X782242Y52962897D01*
X1049052Y52784620D01*
X1052654Y52782213D01*
X1282613Y52552254D01*
X1463298Y52281840D01*
X1587753Y51981378D01*
X1651200Y51662411D01*
X1651200Y51337189D01*
X1587753Y51018222D01*
X1463298Y50717760D01*
X1282613Y50447346D01*
X1052654Y50217387D01*
X1052651Y50217385D01*
X782242Y50036703D01*
X481779Y49912247D01*
X375456Y49891098D01*
X162811Y49848800D01*
X-162411Y49848800D01*
X-375056Y49891098D01*
X-481379Y49912247D01*
X-781842Y50036703D01*
X-1052251Y50217385D01*
X-1052254Y50217387D01*
X-1282213Y50447346D01*
X-1462898Y50717760D01*
X-1587353Y51018222D01*
X-1650800Y51337189D01*
X-1650800Y51662411D01*
X-1587353Y51981378D01*
X-1462898Y52281840D01*
X-1282213Y52552254D01*
X-1052254Y52782213D01*
X-1048652Y52784620D01*
X-781842Y52962897D01*
X-481379Y53087353D01*
X-375056Y53108502D01*
X-162411Y53150800D01*
X162811Y53150800D01*
X375456Y53108502D01*
X375456Y53108502D01*
G37*
M02*
