M48
;DRILL file {KiCad 5.0.2-bee76a0~70~ubuntu18.04.1} date Fr 04 Jan 2019 08:33:05 CET
;FORMAT={-:-/ absolute / inch / decimal}
FMAT,2
INCH,TZ
T1C0.0118
T2C0.0173
T3C0.0295
T4C0.0394
T5C0.0531
%
G90
G05
T1
X1.545Y-2.82
X1.545Y-2.865
X1.545Y-2.915
X1.59Y-2.82
X1.59Y-2.865
X1.59Y-2.915
X1.66Y-3.955
X1.67Y-2.82
X1.67Y-2.87
X1.67Y-2.915
X1.68Y-4.115
X1.6838Y-3.9178
X1.7Y-4.27
X1.715Y-3.015
X1.72Y-4.35
X1.7263Y-3.938
X1.7369Y-3.655
X1.74Y-3.615
X1.765Y-3.84
X1.765Y-3.96
X1.77Y-4.1
X1.7836Y-3.7511
X1.85Y-4.18
X1.8556Y-3.8692
X1.86Y-4.115
X1.87Y-3.56
X1.87Y-3.63
X1.87Y-4.22
X1.8787Y-3.7342
X1.8795Y-3.7961
X1.8831Y-3.4931
X1.8848Y-3.7651
X1.9Y-3.83
X1.9Y-4.295
X1.915Y-3.96
X1.925Y-3.28
X1.96Y-2.87
X1.97Y-3.79
X1.9724Y-3.8248
X1.99Y-2.43
X1.99Y-2.475
X1.99Y-2.525
X2.Y-3.8734
X2.01Y-2.67
X2.0161Y-3.7839
X2.03Y-2.64
X2.03Y-2.7
X2.038Y-3.488
X2.045Y-4.085
X2.05Y-3.06
X2.05Y-3.28
X2.0739Y-4.7247
X2.075Y-3.95
X2.0774Y-4.085
X2.1Y-3.14
X2.12Y-2.675
X2.14Y-2.645
X2.14Y-2.705
X2.16Y-4.235
X2.22Y-3.16
X2.22Y-3.54
X2.22Y-3.655
X2.23Y-3.7
X2.23Y-3.8485
X2.24Y-4.24
X2.25Y-2.
X2.25Y-2.69
X2.26Y-3.3
X2.295Y-2.965
X2.3Y-2.875
X2.305Y-4.175
X2.307Y-3.5786
X2.31Y-2.4
X2.31Y-3.67
X2.32Y-2.92
X2.32Y-3.005
X2.32Y-3.44
X2.326Y-3.136
X2.33Y-3.88
X2.33Y-3.92
X2.3329Y-3.7578
X2.3362Y-3.7265
X2.3438Y-2.5947
X2.345Y-2.875
X2.35Y-2.965
X2.355Y-3.69
X2.37Y-2.92
X2.37Y-3.005
X2.3856Y-3.4827
X2.39Y-2.875
X2.4Y-2.965
X2.42Y-2.12
X2.425Y-4.69
X2.43Y-2.4
X2.43Y-2.92
X2.43Y-3.005
X2.43Y-3.92
X2.43Y-3.96
X2.442Y-3.752
X2.4534Y-2.5922
X2.455Y-2.875
X2.455Y-2.965
X2.466Y-3.872
X2.4921Y-3.746
X2.5Y-3.84
X2.58Y-4.62
X2.59Y-2.4
X2.63Y-2.67
X2.67Y-2.25
X2.695Y-2.795
X2.705Y-2.525
X2.73Y-2.78
X2.755Y-2.795
X2.825Y-2.75
X2.84Y-2.205
X2.865Y-1.905
X2.95Y-2.06
X2.95Y-2.12
X2.965Y-2.565
X2.97Y-2.03
X2.97Y-2.09
X2.97Y-2.8
X2.98Y-2.06
X2.98Y-2.12
X2.99Y-2.2715
X3.Y-2.03
X3.Y-2.09
X3.01Y-2.06
X3.01Y-2.12
X3.03Y-2.03
X3.03Y-2.09
X3.035Y-2.57
X3.04Y-2.06
X3.04Y-2.12
X3.06Y-2.03
X3.06Y-2.09
X3.07Y-2.06
X3.07Y-2.06
X3.07Y-2.12
X3.07Y-2.12
X3.285Y-2.51
X3.33Y-2.28
X3.42Y-2.205
X3.46Y-1.895
X3.525Y-2.565
X3.525Y-2.565
X3.54Y-2.06
X3.54Y-2.12
X3.56Y-2.03
X3.56Y-2.09
X3.56Y-5.42
X3.57Y-2.06
X3.57Y-2.12
X3.59Y-2.03
X3.59Y-2.09
X3.6Y-2.06
X3.6Y-2.12
X3.6Y-2.275
X3.6Y-2.565
X3.62Y-2.03
X3.62Y-2.09
X3.63Y-2.06
X3.63Y-2.12
X3.65Y-2.03
X3.65Y-2.09
X3.66Y-2.06
X3.66Y-2.12
X3.66Y-5.42
X3.74Y-5.41
X3.83Y-5.4
X3.86Y-2.535
X3.93Y-2.27
X3.93Y-5.38
X4.04Y-2.2057
X4.05Y-1.89
X4.115Y-2.6
X4.12Y-2.03
X4.12Y-2.09
X4.13Y-2.12
X4.14Y-2.06
X4.15Y-2.03
X4.15Y-2.09
X4.16Y-2.12
X4.17Y-2.06
X4.18Y-2.03
X4.18Y-2.09
X4.185Y-2.2715
X4.1883Y-2.5933
X4.19Y-2.12
X4.2Y-2.06
X4.21Y-2.03
X4.21Y-2.09
X4.22Y-2.12
X4.23Y-2.06
X4.24Y-2.03
X4.24Y-2.09
X4.315Y-2.415
X4.44Y-2.74
X4.47Y-2.4306
X4.52Y-3.9
X4.52Y-3.94
X4.52Y-3.98
X4.52Y-4.02
X4.52Y-4.06
X4.52Y-4.1
X4.52Y-4.14
X4.52Y-4.18
X4.52Y-4.22
X4.53Y-3.14
X4.53Y-3.18
X4.53Y-3.22
X4.53Y-3.26
X4.53Y-3.3
X4.53Y-3.34
X4.53Y-3.38
X4.53Y-3.42
X4.53Y-3.46
X4.56Y-3.9
X4.56Y-3.94
X4.56Y-3.98
X4.56Y-4.02
X4.56Y-4.06
X4.56Y-4.1
X4.56Y-4.14
X4.56Y-4.18
X4.56Y-4.22
X4.57Y-3.14
X4.57Y-3.18
X4.57Y-3.22
X4.57Y-3.26
X4.57Y-3.3
X4.57Y-3.34
X4.57Y-3.38
X4.57Y-3.42
X4.57Y-3.46
X4.6Y-3.9
X4.6Y-3.94
X4.6Y-3.98
X4.6Y-4.02
X4.6Y-4.06
X4.6Y-4.1
X4.6Y-4.14
X4.6Y-4.18
X4.6Y-4.22
X4.61Y-3.14
X4.61Y-3.18
X4.61Y-3.22
X4.61Y-3.26
X4.61Y-3.3
X4.61Y-3.34
X4.61Y-3.38
X4.61Y-3.42
X4.61Y-3.46
X4.64Y-3.9
X4.64Y-3.94
X4.64Y-3.98
X4.64Y-4.02
X4.64Y-4.06
X4.64Y-4.1
X4.64Y-4.14
X4.64Y-4.18
X4.64Y-4.22
X4.65Y-3.14
X4.65Y-3.18
X4.65Y-3.22
X4.65Y-3.26
X4.65Y-3.3
X4.65Y-3.34
X4.65Y-3.38
X4.65Y-3.42
X4.65Y-3.46
X4.665Y-4.475
X4.665Y-4.515
X4.665Y-4.555
X4.665Y-4.595
X4.665Y-4.635
X4.665Y-4.675
X4.68Y-3.9
X4.68Y-3.94
X4.68Y-3.98
X4.68Y-4.02
X4.68Y-4.06
X4.68Y-4.1
X4.68Y-4.14
X4.68Y-4.18
X4.68Y-4.22
X4.69Y-3.14
X4.69Y-3.18
X4.69Y-3.22
X4.69Y-3.26
X4.69Y-3.3
X4.69Y-3.34
X4.69Y-3.38
X4.69Y-3.42
X4.69Y-3.46
X4.705Y-4.475
X4.705Y-4.515
X4.705Y-4.555
X4.705Y-4.595
X4.705Y-4.635
X4.705Y-4.675
X4.72Y-3.9
X4.72Y-3.94
X4.72Y-3.98
X4.72Y-4.02
X4.72Y-4.06
X4.72Y-4.1
X4.72Y-4.14
X4.72Y-4.18
X4.72Y-4.22
X4.73Y-3.14
X4.73Y-3.18
X4.73Y-3.22
X4.73Y-3.26
X4.73Y-3.3
X4.73Y-3.34
X4.73Y-3.38
X4.73Y-3.42
X4.73Y-3.46
X4.745Y-4.475
X4.745Y-4.515
X4.745Y-4.555
X4.745Y-4.595
X4.745Y-4.635
X4.745Y-4.675
X4.76Y-3.9
X4.76Y-3.94
X4.76Y-3.98
X4.76Y-4.02
X4.76Y-4.06
X4.76Y-4.1
X4.76Y-4.14
X4.76Y-4.18
X4.76Y-4.22
X4.77Y-3.14
X4.77Y-3.18
X4.77Y-3.22
X4.77Y-3.26
X4.77Y-3.3
X4.77Y-3.34
X4.77Y-3.38
X4.77Y-3.42
X4.77Y-3.46
X4.785Y-4.475
X4.785Y-4.515
X4.785Y-4.555
X4.785Y-4.595
X4.785Y-4.635
X4.785Y-4.675
X4.8Y-2.73
X4.825Y-4.475
X4.825Y-4.515
X4.825Y-4.555
X4.825Y-4.595
X4.825Y-4.635
X4.825Y-4.675
X4.84Y-2.73
X4.865Y-4.475
X4.865Y-4.515
X4.865Y-4.555
X4.865Y-4.595
X4.865Y-4.635
X4.865Y-4.675
X4.89Y-2.73
X4.905Y-4.475
X4.905Y-4.515
X4.905Y-4.555
X4.905Y-4.595
X4.905Y-4.635
X4.905Y-4.675
X4.945Y-2.46
X4.945Y-2.51
X4.945Y-2.555
X4.945Y-2.595
X4.945Y-4.475
X4.945Y-4.515
X4.945Y-4.555
X4.945Y-4.595
X4.945Y-4.635
X4.945Y-4.675
X4.985Y-4.475
X4.985Y-4.515
X4.985Y-4.555
X4.985Y-4.595
X4.985Y-4.635
X4.985Y-4.675
X5.02Y-3.14
X5.02Y-3.18
X5.02Y-3.22
X5.02Y-3.26
X5.02Y-3.3
X5.02Y-3.34
X5.02Y-3.38
X5.02Y-3.42
X5.02Y-3.46
X5.025Y-4.475
X5.025Y-4.515
X5.025Y-4.555
X5.025Y-4.595
X5.025Y-4.635
X5.025Y-4.675
X5.03Y-3.89
X5.03Y-3.93
X5.03Y-3.97
X5.03Y-4.01
X5.03Y-4.05
X5.03Y-4.09
X5.03Y-4.13
X5.03Y-4.17
X5.03Y-4.21
X5.06Y-3.14
X5.06Y-3.18
X5.06Y-3.22
X5.06Y-3.26
X5.06Y-3.3
X5.06Y-3.34
X5.06Y-3.38
X5.06Y-3.42
X5.06Y-3.46
X5.07Y-3.89
X5.07Y-3.93
X5.07Y-3.97
X5.07Y-4.01
X5.07Y-4.05
X5.07Y-4.09
X5.07Y-4.13
X5.07Y-4.17
X5.07Y-4.21
X5.1Y-3.14
X5.1Y-3.18
X5.1Y-3.22
X5.1Y-3.26
X5.1Y-3.3
X5.1Y-3.34
X5.1Y-3.38
X5.1Y-3.42
X5.1Y-3.46
X5.11Y-3.89
X5.11Y-3.93
X5.11Y-3.97
X5.11Y-4.01
X5.11Y-4.05
X5.11Y-4.09
X5.11Y-4.13
X5.11Y-4.17
X5.11Y-4.21
X5.14Y-3.14
X5.14Y-3.18
X5.14Y-3.22
X5.14Y-3.26
X5.14Y-3.3
X5.14Y-3.34
X5.14Y-3.38
X5.14Y-3.42
X5.14Y-3.46
X5.15Y-3.89
X5.15Y-3.93
X5.15Y-3.97
X5.15Y-4.01
X5.15Y-4.05
X5.15Y-4.09
X5.15Y-4.13
X5.15Y-4.17
X5.15Y-4.21
X5.18Y-3.14
X5.18Y-3.18
X5.18Y-3.22
X5.18Y-3.26
X5.18Y-3.3
X5.18Y-3.34
X5.18Y-3.38
X5.18Y-3.42
X5.18Y-3.46
X5.19Y-3.89
X5.19Y-3.93
X5.19Y-3.97
X5.19Y-4.01
X5.19Y-4.05
X5.19Y-4.09
X5.19Y-4.13
X5.19Y-4.17
X5.19Y-4.21
X5.22Y-3.14
X5.22Y-3.18
X5.22Y-3.22
X5.22Y-3.26
X5.22Y-3.3
X5.22Y-3.34
X5.22Y-3.38
X5.22Y-3.42
X5.22Y-3.46
X5.23Y-3.89
X5.23Y-3.93
X5.23Y-3.97
X5.23Y-4.01
X5.23Y-4.05
X5.23Y-4.09
X5.23Y-4.13
X5.23Y-4.17
X5.23Y-4.21
X5.26Y-3.14
X5.26Y-3.18
X5.26Y-3.22
X5.26Y-3.26
X5.26Y-3.3
X5.26Y-3.34
X5.26Y-3.38
X5.26Y-3.42
X5.26Y-3.46
X5.27Y-3.89
X5.27Y-3.93
X5.27Y-3.97
X5.27Y-4.01
X5.27Y-4.05
X5.27Y-4.09
X5.27Y-4.13
X5.27Y-4.17
X5.27Y-4.21
X5.42Y-3.72
X5.42Y-3.76
X5.42Y-3.8
X5.42Y-3.84
X5.42Y-3.88
X5.42Y-3.92
X5.42Y-3.96
X5.42Y-4.
X5.42Y-4.04
X5.42Y-4.08
X5.46Y-3.72
X5.46Y-3.76
X5.46Y-3.8
X5.46Y-3.84
X5.46Y-3.88
X5.46Y-3.92
X5.46Y-3.96
X5.46Y-4.
X5.46Y-4.04
X5.46Y-4.08
X5.5Y-3.72
X5.5Y-3.76
X5.5Y-3.8
X5.5Y-3.84
X5.5Y-3.88
X5.5Y-3.92
X5.5Y-3.96
X5.5Y-4.
X5.5Y-4.04
X5.5Y-4.08
X5.54Y-3.72
X5.54Y-3.76
X5.54Y-3.8
X5.54Y-3.84
X5.54Y-3.88
X5.54Y-3.92
X5.54Y-3.96
X5.54Y-4.
X5.54Y-4.04
X5.54Y-4.08
X5.58Y-3.72
X5.58Y-3.76
X5.58Y-3.8
X5.58Y-3.84
X5.58Y-3.88
X5.58Y-3.92
X5.58Y-3.96
X5.58Y-4.
X5.58Y-4.04
X5.58Y-4.08
T2
X1.4356Y-3.5756
X1.4356Y-3.6268
X1.475Y-3.55
X1.475Y-3.6012
X1.475Y-3.6524
T3
X4.7486Y-2.1486
X4.8043Y-2.2043
X4.86Y-2.26
X2.2025Y-5.2842
X2.267Y-5.3293
X2.3315Y-5.3745
X2.396Y-5.4197
X2.4605Y-5.4648
X2.525Y-5.51
X1.8988Y-4.9844
X1.9494Y-5.0447
X2.Y-5.105
X3.5428Y-5.7493
X3.6212Y-5.7425
X3.6997Y-5.7356
X3.7781Y-5.7287
X3.8566Y-5.7219
X3.935Y-5.715
X2.7897Y-5.6231
X2.8658Y-5.6435
X2.9418Y-5.6639
X3.0179Y-5.6842
X3.0939Y-5.7046
X3.17Y-5.725
T4
X2.55Y-1.97
X2.55Y-2.07
X2.57Y-4.745
X2.57Y-4.845
X2.57Y-4.945
X2.57Y-5.045
X2.67Y-4.745
X2.67Y-4.845
X2.67Y-4.945
X2.67Y-5.045
X1.4782Y-3.9991
X1.5124Y-4.0931
X1.5466Y-4.1871
X1.5808Y-4.281
X1.615Y-4.375
T5
X1.4663Y-3.4604
X1.4663Y-3.7419
T0
M30
