M48
;DRILL file {KiCad 5.0.2-bee76a0~70~ubuntu18.04.1} date Di 11 Feb 2020 12:08:11 CET
;FORMAT={-:-/ absolute / inch / decimal}
FMAT,2
INCH,TZ
T1C0.0079
T2C0.0173
T3C0.0394
T4C0.0531
%
G90
G05
T1
X1.812Y-4.022
X1.847Y-4.022
X1.882Y-4.022
X1.917Y-4.532
X1.917Y-4.562
X1.947Y-4.532
X1.947Y-4.562
X1.982Y-4.532
X1.982Y-4.562
X2.0088Y-4.5341
X2.017Y-4.562
X2.1345Y-2.942
X2.237Y-3.917
X2.237Y-3.952
X2.237Y-3.987
X2.3383Y-3.2558
X2.367Y-4.547
X2.372Y-4.177
X2.372Y-4.222
X2.372Y-4.267
X2.402Y-2.4955
X2.402Y-2.5289
X2.402Y-2.5624
X2.402Y-2.5959
X2.402Y-2.6293
X2.402Y-2.6628
X2.402Y-2.6963
X2.407Y-2.7338
X2.4095Y-2.977
X2.4095Y-3.082
X2.4105Y-2.8393
X2.4105Y-2.8728
X2.4105Y-2.9445
X2.417Y-4.177
X2.417Y-4.222
X2.417Y-4.267
X2.4245Y-4.4245
X2.4355Y-2.462
X2.4355Y-2.4955
X2.4355Y-2.5289
X2.4355Y-2.5624
X2.4355Y-2.5959
X2.4355Y-2.6293
X2.4355Y-2.6628
X2.4355Y-2.6963
X2.4405Y-2.7338
X2.442Y-4.452
X2.443Y-2.977
X2.443Y-3.082
X2.4439Y-2.8393
X2.4439Y-2.8728
X2.4439Y-2.9445
X2.466Y-4.0195
X2.4678Y-4.4212
X2.4689Y-2.462
X2.4689Y-2.4955
X2.4689Y-2.5289
X2.4689Y-2.5624
X2.4689Y-2.5959
X2.4689Y-2.6293
X2.4689Y-2.6628
X2.4689Y-2.6963
X2.4739Y-2.7338
X2.4764Y-3.082
X2.477Y-4.732
X2.4795Y-3.2145
X2.487Y-4.672
X2.4877Y-4.4501
X2.5024Y-2.462
X2.5024Y-2.4955
X2.5024Y-2.5289
X2.5024Y-2.5624
X2.5024Y-2.5959
X2.5024Y-2.6293
X2.5024Y-2.6628
X2.5024Y-2.6963
X2.5054Y-4.007
X2.5074Y-2.7338
X2.5084Y-4.422
X2.5099Y-2.977
X2.5099Y-3.082
X2.5109Y-2.8393
X2.5109Y-2.8728
X2.5109Y-2.9063
X2.5109Y-2.9445
X2.517Y-4.187
X2.517Y-4.227
X2.517Y-4.267
X2.5195Y-3.1745
X2.5359Y-2.462
X2.5359Y-2.4955
X2.5359Y-2.5289
X2.5359Y-2.5624
X2.5359Y-2.5959
X2.5359Y-2.6293
X2.5359Y-2.6628
X2.5359Y-2.6963
X2.5363Y-4.547
X2.5409Y-2.7338
X2.542Y-2.9445
X2.5424Y-2.8393
X2.5424Y-2.8728
X2.5424Y-2.9063
X2.5434Y-2.977
X2.5434Y-3.082
X2.544Y-3.652
X2.5453Y-3.4803
X2.547Y-4.007
X2.5693Y-2.462
X2.5693Y-2.4955
X2.5693Y-2.5289
X2.5693Y-2.5624
X2.5693Y-2.5959
X2.5693Y-2.6293
X2.5693Y-2.6628
X2.5693Y-2.6963
X2.572Y-2.9445
X2.5743Y-2.7338
X2.5745Y-2.977
X2.5745Y-3.012
X2.5745Y-3.0455
X2.5745Y-3.082
X2.5759Y-2.8393
X2.5759Y-2.8728
X2.5759Y-2.9063
X2.6028Y-2.462
X2.6028Y-2.4955
X2.6028Y-2.5289
X2.6028Y-2.5624
X2.6028Y-2.5959
X2.6028Y-2.6293
X2.6028Y-2.6628
X2.6028Y-2.6963
X2.6038Y-4.0145
X2.6109Y-3.3743
X2.6109Y-3.4078
X2.6245Y-4.4195
X2.6363Y-2.462
X2.6363Y-2.4955
X2.6363Y-2.5289
X2.6363Y-2.5624
X2.6363Y-2.5959
X2.6363Y-2.6293
X2.6363Y-2.6628
X2.6363Y-2.6963
X2.637Y-2.822
X2.637Y-2.8555
X2.637Y-2.8889
X2.637Y-2.9224
X2.637Y-3.052
X2.637Y-3.132
X2.637Y-3.1655
X2.637Y-3.1989
X2.637Y-3.2324
X2.644Y-4.0153
X2.6442Y-4.4445
X2.6443Y-3.3743
X2.6443Y-3.4078
X2.6629Y-4.4195
X2.6705Y-2.822
X2.6705Y-2.8555
X2.6705Y-2.8889
X2.6705Y-2.9224
X2.6705Y-3.052
X2.6705Y-3.132
X2.6705Y-3.1655
X2.6705Y-3.1989
X2.6705Y-3.2324
X2.671Y-3.4803
X2.671Y-3.642
X2.6778Y-3.3743
X2.6778Y-3.4078
X2.682Y-4.182
X2.682Y-4.222
X2.682Y-4.267
X2.682Y-4.442
X2.702Y-4.922
X2.702Y-5.037
X2.702Y-5.1245
X2.7023Y-4.0198
X2.7023Y-4.4173
X2.7039Y-2.822
X2.7039Y-2.8555
X2.7039Y-2.8889
X2.7039Y-2.9224
X2.7039Y-3.052
X2.7039Y-3.132
X2.7039Y-3.1655
X2.7039Y-3.1989
X2.7039Y-3.2324
X2.7113Y-3.3743
X2.7113Y-3.4078
X2.7195Y-2.367
X2.722Y-4.442
X2.7222Y-5.1918
X2.7374Y-2.822
X2.7374Y-2.8555
X2.7374Y-2.8889
X2.7374Y-2.9224
X2.7374Y-3.052
X2.7374Y-3.132
X2.7374Y-3.1655
X2.7374Y-3.1989
X2.7374Y-3.2324
X2.7395Y-4.762
X2.742Y-4.422
X2.7447Y-3.3743
X2.7447Y-3.4078
X2.7472Y-4.0246
X2.757Y-2.603
X2.7709Y-2.822
X2.7709Y-2.8555
X2.7709Y-2.8889
X2.7709Y-2.9224
X2.7709Y-3.052
X2.7709Y-3.132
X2.7709Y-3.1655
X2.7709Y-3.1989
X2.7709Y-3.2324
X2.777Y-4.177
X2.777Y-4.222
X2.777Y-4.267
X2.78Y-5.3175
X2.7814Y-5.347
X2.782Y-3.657
X2.7845Y-4.8995
X2.8011Y-5.1281
X2.812Y-3.487
X2.8144Y-4.8987
X2.817Y-5.157
X2.8195Y-5.187
X2.8242Y-4.1745
X2.8242Y-4.2195
X2.8242Y-4.2645
X2.8295Y-5.5945
X2.832Y-2.762
X2.832Y-2.792
X2.832Y-2.822
X2.832Y-2.847
X2.832Y-2.877
X2.832Y-2.907
X2.832Y-2.937
X2.832Y-2.967
X2.832Y-2.997
X2.832Y-3.027
X2.862Y-3.1145
X2.8645Y-3.2845
X2.867Y-2.1645
X2.8945Y-4.997
X2.8945Y-5.372
X2.9056Y-4.762
X2.912Y-2.207
X2.917Y-4.352
X2.917Y-5.0695
X2.9468Y-2.7893
X2.9468Y-2.8227
X2.9468Y-2.8562
X2.9468Y-2.8897
X2.9468Y-2.9231
X2.9468Y-2.9562
X2.9468Y-2.9897
X2.9468Y-3.0231
X2.947Y-4.352
X2.972Y-4.757
X2.977Y-4.352
X2.977Y-5.372
X2.991Y-4.832
X3.007Y-4.352
X3.0124Y-4.7566
X3.0166Y-5.2113
X3.022Y-2.122
X3.022Y-2.1555
X3.022Y-2.1889
X3.022Y-2.2224
X3.022Y-2.2559
X3.022Y-2.2893
X3.022Y-2.3228
X3.022Y-2.3563
X3.022Y-2.3863
X3.027Y-5.292
X3.0295Y-4.8745
X3.0405Y-2.4893
X3.0405Y-2.5228
X3.042Y-2.597
X3.042Y-2.627
X3.0453Y-2.8227
X3.0453Y-2.8562
X3.0453Y-2.8897
X3.0453Y-2.9231
X3.0453Y-2.9562
X3.0453Y-2.9897
X3.0453Y-3.0231
X3.0527Y-4.8324
X3.0555Y-2.122
X3.0555Y-2.1555
X3.0555Y-2.1889
X3.0555Y-2.2224
X3.0555Y-2.2559
X3.0555Y-2.2893
X3.0555Y-2.3228
X3.0555Y-2.3563
X3.0555Y-2.3863
X3.057Y-2.722
X3.057Y-2.752
X3.057Y-5.372
X3.072Y-2.597
X3.072Y-2.627
X3.0739Y-2.4893
X3.0739Y-2.5228
X3.0745Y-4.8495
X3.0758Y-4.6783
X3.087Y-2.722
X3.087Y-2.752
X3.0889Y-2.122
X3.0889Y-2.1555
X3.0889Y-2.1889
X3.0889Y-2.2224
X3.0889Y-2.2559
X3.0889Y-2.2893
X3.0889Y-2.3228
X3.0889Y-2.3563
X3.0889Y-2.3863
X3.1067Y-4.74
X3.107Y-4.672
X3.1121Y-4.8297
X3.1205Y-2.722
X3.1205Y-2.752
X3.1224Y-2.122
X3.1224Y-2.1555
X3.1224Y-2.1889
X3.1224Y-2.2224
X3.1224Y-2.2559
X3.1224Y-2.2893
X3.1224Y-2.3228
X3.1224Y-2.3563
X3.1224Y-2.3863
X3.1366Y-4.6672
X3.1389Y-2.597
X3.1389Y-2.627
X3.1409Y-2.4893
X3.1409Y-2.5228
X3.1409Y-2.5563
X3.1455Y-4.7201
X3.1475Y-5.2085
X3.1539Y-2.722
X3.1539Y-2.752
X3.1559Y-2.122
X3.1559Y-2.1555
X3.1559Y-2.1889
X3.1559Y-2.2224
X3.1559Y-2.2559
X3.1559Y-2.2893
X3.1559Y-2.3228
X3.1559Y-2.3563
X3.1559Y-2.3863
X3.157Y-4.572
X3.1636Y-4.6551
X3.1641Y-4.6015
X3.1682Y-5.282
X3.1709Y-2.4893
X3.1709Y-2.5228
X3.1709Y-2.5563
X3.1724Y-2.597
X3.1724Y-2.627
X3.174Y-4.71
X3.179Y-4.63
X3.1795Y-5.4795
X3.1874Y-2.722
X3.1874Y-2.752
X3.1888Y-5.202
X3.1889Y-4.7629
X3.1893Y-2.122
X3.1893Y-2.1555
X3.1893Y-2.1889
X3.1893Y-2.2224
X3.1893Y-2.2559
X3.1893Y-2.2893
X3.1893Y-2.3228
X3.1893Y-2.3563
X3.1893Y-2.3863
X3.2134Y-3.0518
X3.2134Y-3.0853
X3.2165Y-4.7525
X3.2209Y-2.722
X3.2228Y-2.122
X3.2228Y-2.1555
X3.2228Y-2.1889
X3.2228Y-2.2224
X3.2228Y-2.2559
X3.2228Y-2.2893
X3.2228Y-2.3228
X3.2228Y-2.3563
X3.2228Y-2.3863
X3.237Y-2.807
X3.237Y-2.8405
X3.237Y-2.8739
X3.237Y-2.9074
X3.242Y-2.492
X3.242Y-2.5255
X3.242Y-2.5589
X3.242Y-2.5924
X3.2468Y-3.0518
X3.2468Y-3.0853
X3.2495Y-5.0295
X3.252Y-2.722
X3.2563Y-2.122
X3.2563Y-2.1555
X3.2563Y-2.1889
X3.2563Y-2.2224
X3.2563Y-2.2559
X3.2563Y-2.2893
X3.2563Y-2.3228
X3.2563Y-2.3563
X3.2563Y-2.3863
X3.2595Y-4.8945
X3.2622Y-4.9475
X3.2649Y-4.9742
X3.267Y-4.787
X3.267Y-5.1513
X3.2687Y-5.0101
X3.2705Y-2.807
X3.2705Y-2.8405
X3.2705Y-2.8739
X3.2705Y-2.9074
X3.2755Y-2.492
X3.2755Y-2.5255
X3.2755Y-2.5589
X3.2755Y-2.5924
X3.2803Y-3.0518
X3.2803Y-3.0853
X3.2855Y-2.722
X3.3039Y-2.807
X3.3039Y-2.8405
X3.3039Y-2.8739
X3.3039Y-2.9074
X3.3089Y-2.492
X3.3089Y-2.5255
X3.3089Y-2.5589
X3.3089Y-2.5924
X3.3138Y-3.0518
X3.3138Y-3.0853
X3.3189Y-2.722
X3.3374Y-2.807
X3.3374Y-2.8405
X3.3374Y-2.8739
X3.3374Y-2.9074
X3.3395Y-5.3195
X3.342Y-4.992
X3.3424Y-2.492
X3.3424Y-2.5255
X3.3424Y-2.5589
X3.3424Y-2.5924
X3.347Y-5.132
X3.3472Y-3.0518
X3.3472Y-3.0853
X3.3524Y-2.722
X3.3627Y-4.9548
X3.3657Y-5.1105
X3.3709Y-2.807
X3.3709Y-2.8405
X3.3709Y-2.8739
X3.3709Y-2.9074
X3.3759Y-2.492
X3.3759Y-2.5255
X3.3759Y-2.5589
X3.3759Y-2.5924
X3.3793Y-2.1368
X3.3793Y-2.1702
X3.3793Y-2.2037
X3.3793Y-2.2372
X3.3793Y-2.2706
X3.3793Y-2.3037
X3.3793Y-2.3372
X3.3793Y-2.3706
X3.3859Y-2.722
X3.4128Y-2.1368
X3.4128Y-2.1702
X3.4128Y-2.2037
X3.4128Y-2.2372
X3.4128Y-2.2706
X3.4128Y-2.3037
X3.4128Y-2.3372
X3.4128Y-2.3706
X3.432Y-4.827
X3.437Y-2.432
X3.437Y-2.462
X3.437Y-2.492
X3.437Y-2.517
X3.437Y-2.547
X3.437Y-2.577
X3.437Y-2.607
X3.437Y-2.637
X3.437Y-2.667
X3.437Y-2.697
X3.467Y-2.8845
X3.4795Y-2.807
X3.5568Y-2.4493
X3.5568Y-2.4827
X3.5568Y-2.5162
X3.5568Y-2.5497
X3.5568Y-2.5831
X3.5568Y-2.6162
X3.5568Y-2.6497
X3.5568Y-2.6831
X3.5895Y-5.8045
X3.642Y-2.122
X3.642Y-2.152
X3.642Y-2.182
X3.642Y-2.212
X3.642Y-2.242
X3.642Y-2.272
X3.642Y-2.302
X3.642Y-2.332
X3.642Y-2.362
X3.642Y-2.392
X3.6456Y-2.6806
X3.6503Y-2.4518
X3.6503Y-2.4852
X3.6503Y-2.5187
X3.6503Y-2.5522
X3.6503Y-2.5856
X3.6503Y-2.6187
X3.6503Y-2.6522
X3.7009Y-2.1874
X3.7009Y-2.2209
X3.7009Y-2.2543
X3.7009Y-2.2878
X3.7059Y-2.4124
X3.7059Y-2.5074
X3.7059Y-2.5409
X3.7059Y-2.5743
X3.7062Y-2.7731
X3.707Y-2.742
X3.7343Y-2.1874
X3.7343Y-2.2209
X3.7343Y-2.2543
X3.7343Y-2.2878
X3.7368Y-2.7703
X3.7393Y-2.4124
X3.7393Y-2.5074
X3.7393Y-2.5409
X3.7393Y-2.5743
X3.7393Y-2.6078
X3.7397Y-2.7397
X3.7678Y-2.1874
X3.7678Y-2.2209
X3.7678Y-2.2543
X3.7678Y-2.2878
X3.7703Y-2.7368
X3.7703Y-2.7703
X3.7728Y-2.4124
X3.7728Y-2.5074
X3.7728Y-2.5409
X3.7728Y-2.5743
X3.7728Y-2.6078
X3.8013Y-2.1874
X3.8013Y-2.2209
X3.8013Y-2.2543
X3.8013Y-2.2878
X3.8038Y-2.7368
X3.8038Y-2.7703
X3.8063Y-2.4124
X3.8063Y-2.5074
X3.8063Y-2.5409
X3.8063Y-2.5743
X3.8063Y-2.6078
X3.8095Y-2.8195
X3.8145Y-2.897
X3.8347Y-2.1874
X3.8347Y-2.2209
X3.8347Y-2.2543
X3.8347Y-2.2878
X3.8372Y-2.7368
X3.8372Y-2.7703
X3.8397Y-2.4124
X3.8397Y-2.5074
X3.8397Y-2.5409
X3.8397Y-2.5743
X3.8397Y-2.6078
X3.902Y-2.357
X3.902Y-2.387
X3.902Y-2.417
X3.902Y-2.447
X3.902Y-2.477
X3.902Y-2.507
X3.937Y-2.242
X3.942Y-2.657
X3.987Y-2.9445
X4.012Y-2.357
X4.012Y-2.387
X4.012Y-2.477
X4.012Y-2.507
X4.032Y-5.557
X4.067Y-2.097
X4.067Y-2.1305
X4.067Y-2.1639
X4.067Y-2.1974
X4.067Y-2.2309
X4.067Y-2.2643
X4.067Y-2.2978
X4.067Y-2.3313
X4.067Y-2.3624
X4.067Y-2.3959
X4.1005Y-2.097
X4.1005Y-2.1305
X4.1005Y-2.1639
X4.1005Y-2.1974
X4.1005Y-2.2309
X4.1005Y-2.2643
X4.1005Y-2.2978
X4.1005Y-2.3313
X4.1005Y-2.3624
X4.1005Y-2.3959
X4.1005Y-2.4628
X4.1005Y-2.4963
X4.1095Y-5.5554
X4.1339Y-2.097
X4.1339Y-2.1305
X4.1339Y-2.1639
X4.1339Y-2.1974
X4.1339Y-2.2309
X4.1339Y-2.2643
X4.1339Y-2.2978
X4.1339Y-2.3313
X4.1339Y-2.3624
X4.1339Y-2.3959
X4.1339Y-2.4628
X4.1339Y-2.4963
X4.1674Y-2.097
X4.1674Y-2.1305
X4.1674Y-2.1639
X4.1674Y-2.1974
X4.1674Y-2.2309
X4.1674Y-2.2643
X4.1674Y-2.2978
X4.1674Y-2.3313
X4.2006Y-5.5381
X4.2009Y-2.097
X4.2009Y-2.1305
X4.2009Y-2.1639
X4.2009Y-2.1974
X4.2009Y-2.2309
X4.2009Y-2.2643
X4.2009Y-2.2978
X4.2009Y-2.3313
X4.212Y-2.682
X4.2343Y-2.097
X4.2343Y-2.1305
X4.2343Y-2.1639
X4.2343Y-2.1974
X4.2343Y-2.2309
X4.2343Y-2.2643
X4.2343Y-2.2978
X4.2343Y-2.3313
X4.237Y-2.3624
X4.237Y-2.3959
X4.237Y-2.4293
X4.237Y-2.4628
X4.237Y-2.4963
X4.2595Y-5.6945
X4.2678Y-2.097
X4.2678Y-2.1305
X4.2678Y-2.1639
X4.2678Y-2.1974
X4.2678Y-2.2309
X4.2678Y-2.2643
X4.2678Y-2.2978
X4.2678Y-2.3313
X4.2705Y-2.3624
X4.2705Y-2.3959
X4.2705Y-2.4293
X4.2705Y-2.4628
X4.2705Y-2.4963
X4.2895Y-5.5295
X4.3013Y-2.097
X4.3013Y-2.1305
X4.3013Y-2.1639
X4.3013Y-2.1974
X4.3013Y-2.2309
X4.3013Y-2.2643
X4.3013Y-2.2978
X4.3013Y-2.3313
X4.3039Y-2.3624
X4.3039Y-2.3959
X4.3039Y-2.4293
X4.3039Y-2.4628
X4.3039Y-2.4963
X4.367Y-2.612
X4.367Y-2.6455
X4.367Y-2.6789
X4.367Y-2.7124
X4.367Y-2.7459
X4.367Y-2.7793
X4.367Y-2.8128
X4.367Y-2.8463
X4.4005Y-2.612
X4.4005Y-2.6455
X4.4005Y-2.6789
X4.4005Y-2.7124
X4.4005Y-2.7459
X4.4005Y-2.7793
X4.4005Y-2.8128
X4.4005Y-2.8463
X4.417Y-5.7745
X4.4339Y-2.612
X4.4339Y-2.6455
X4.4339Y-2.6789
X4.4339Y-2.7124
X4.4339Y-2.7459
X4.4339Y-2.7793
X4.4339Y-2.8128
X4.4339Y-2.8463
X4.4674Y-2.612
X4.4674Y-2.6455
X4.4674Y-2.6789
X4.4674Y-2.7124
X4.4674Y-2.7459
X4.4674Y-2.7793
X4.4674Y-2.8128
X4.4674Y-2.8463
X4.482Y-2.267
X4.482Y-2.3005
X4.482Y-2.3339
X4.482Y-2.3674
X4.482Y-2.4009
X4.482Y-2.4343
X4.482Y-2.4678
X4.482Y-2.5013
X4.5009Y-2.612
X4.5009Y-2.6455
X4.5009Y-2.6789
X4.5009Y-2.7124
X4.5009Y-2.7459
X4.5009Y-2.7793
X4.5009Y-2.8128
X4.5009Y-2.8463
X4.5155Y-2.267
X4.5155Y-2.3005
X4.5155Y-2.3339
X4.5155Y-2.3674
X4.5155Y-2.4009
X4.5155Y-2.4343
X4.5155Y-2.4678
X4.5155Y-2.5013
X4.5343Y-2.612
X4.5343Y-2.6455
X4.5343Y-2.6789
X4.5343Y-2.7124
X4.5343Y-2.7459
X4.5343Y-2.7793
X4.5343Y-2.8128
X4.5343Y-2.8463
X4.5489Y-2.267
X4.5489Y-2.3005
X4.5489Y-2.3339
X4.5489Y-2.3674
X4.5489Y-2.4009
X4.5489Y-2.4343
X4.5489Y-2.4678
X4.5489Y-2.5013
X4.5678Y-2.612
X4.5678Y-2.6455
X4.5678Y-2.6789
X4.5678Y-2.7124
X4.5678Y-2.7459
X4.5678Y-2.7793
X4.5678Y-2.8128
X4.5678Y-2.8463
X4.5824Y-2.267
X4.5824Y-2.3005
X4.5824Y-2.3339
X4.5824Y-2.3674
X4.5824Y-2.4009
X4.5824Y-2.4343
X4.5824Y-2.4678
X4.5824Y-2.5013
X4.6013Y-2.612
X4.6013Y-2.6455
X4.6013Y-2.6789
X4.6013Y-2.7124
X4.6013Y-2.7459
X4.6013Y-2.7793
X4.6013Y-2.8128
X4.6013Y-2.8463
X4.6159Y-2.267
X4.6159Y-2.3005
X4.6159Y-2.3339
X4.6159Y-2.3674
X4.6159Y-2.4009
X4.6159Y-2.4343
X4.6159Y-2.4678
X4.6159Y-2.5013
X4.6493Y-2.267
X4.6493Y-2.3005
X4.6493Y-2.3339
X4.6493Y-2.3674
X4.6493Y-2.4009
X4.6493Y-2.4343
X4.6493Y-2.4678
X4.6493Y-2.5013
X4.6644Y-5.5728
X4.6828Y-2.267
X4.6828Y-2.3005
X4.6828Y-2.3339
X4.6828Y-2.3674
X4.6828Y-2.4009
X4.6828Y-2.4343
X4.6828Y-2.4678
X4.6828Y-2.5013
X4.7163Y-2.267
X4.7163Y-2.3005
X4.7163Y-2.3339
X4.7163Y-2.3674
X4.7163Y-2.4009
X4.7163Y-2.4343
X4.7163Y-2.4678
X4.7163Y-2.5013
X4.7295Y-5.522
X4.7795Y-5.522
X4.837Y-5.452
X5.0895Y-5.412
X5.247Y-5.092
X5.4645Y-5.357
T2
X2.5075Y-5.4612
X2.5468Y-5.4941
X2.5525Y-5.4475
X2.586Y-5.527
X2.5917Y-5.4804
T3
X1.9995Y-3.2745
X2.0995Y-3.2745
X4.0145Y-5.3145
X4.0145Y-5.0145
X4.0145Y-5.1145
X4.0145Y-5.2145
X4.0145Y-5.4145
X3.744Y-5.115
X3.744Y-5.215
X3.744Y-5.315
X3.744Y-5.415
X3.844Y-5.115
X3.844Y-5.215
X3.844Y-5.315
X3.844Y-5.415
T4
X2.4445Y-5.397
X2.6601Y-5.5779
T0
M30
