%TF.GenerationSoftware,KiCad,Pcbnew,5.0.2-bee76a0~70~ubuntu18.04.1*%
%TF.CreationDate,2020-02-12T14:16:48+01:00*%
%TF.ProjectId,gsvesc,67737665-7363-42e6-9b69-6361645f7063,rev?*%
%TF.SameCoordinates,Original*%
%TF.FileFunction,Copper,L3,Inr*%
%TF.FilePolarity,Positive*%
%FSLAX45Y45*%
G04 Gerber Fmt 4.5, Leading zero omitted, Abs format (unit mm)*
G04 Created by KiCad (PCBNEW 5.0.2-bee76a0~70~ubuntu18.04.1) date Mi 12 Feb 2020 14:16:48 CET*
%MOMM*%
%LPD*%
G01*
G04 APERTURE LIST*
%ADD10C,0.200000*%
%ADD11O,1.700000X1.700000*%
%ADD12R,1.700000X1.700000*%
%ADD13C,1.850000*%
%ADD14C,0.840000*%
%ADD15C,0.100000*%
%ADD16C,0.500000*%
%ADD17C,0.150000*%
G04 APERTURE END LIST*
D10*
X12450000Y-10000000D02*
G75*
G03X12450000Y-10000000I-2450000J0D01*
G01*
X15550000Y-10000000D02*
G75*
G03X15550000Y-10000000I-5550000J0D01*
G01*
D11*
X5078730Y-8317230D03*
D12*
X5332730Y-8317230D03*
D11*
X10196830Y-13752830D03*
X10196830Y-13498830D03*
X10196830Y-13244830D03*
X10196830Y-12990830D03*
D12*
X10196830Y-12736830D03*
D13*
X6209030Y-13708380D03*
X6756752Y-14167973D03*
D14*
X6369164Y-13871467D03*
X6483235Y-13836644D03*
X6468749Y-13955029D03*
X6582821Y-13920206D03*
X6568335Y-14038592D03*
D15*
G36*
X6627506Y-14033415D02*
X6573512Y-14097763D01*
X6509164Y-14043769D01*
X6563158Y-13979421D01*
X6627506Y-14033415D01*
X6627506Y-14033415D01*
G37*
D11*
X9763760Y-13754100D03*
X9509760Y-13754100D03*
X9763760Y-13500100D03*
X9509760Y-13500100D03*
X9763760Y-13246100D03*
X9509760Y-13246100D03*
X9763760Y-12992100D03*
D12*
X9509760Y-12992100D03*
D16*
X13327380Y-12933680D03*
X7597160Y-12273280D03*
X6393180Y-10634980D03*
X6139180Y-10609580D03*
X6024880Y-10609580D03*
X6024880Y-10723880D03*
X6139180Y-10723880D03*
X6024880Y-10838180D03*
X6139180Y-10838180D03*
X6393180Y-10736580D03*
X6393180Y-10838180D03*
X6812280Y-10622280D03*
X6812280Y-10723880D03*
X6812280Y-10838180D03*
X7053580Y-10609580D03*
X7053580Y-10723880D03*
X7053580Y-10838180D03*
X11092180Y-6634480D03*
X11177180Y-6634480D03*
X11262180Y-6634480D03*
X11347180Y-6634480D03*
X11432180Y-6634480D03*
X11517180Y-6634480D03*
X11602180Y-6634480D03*
X11687180Y-6634480D03*
X11092180Y-6719480D03*
X11177180Y-6719480D03*
X11262180Y-6719480D03*
X11347180Y-6719480D03*
X11432180Y-6719480D03*
X11517180Y-6719480D03*
X11602180Y-6719480D03*
X11687180Y-6719480D03*
X11092180Y-6804480D03*
X11177180Y-6804480D03*
X11262180Y-6804480D03*
X11347180Y-6804480D03*
X11432180Y-6804480D03*
X11517180Y-6804480D03*
X11602180Y-6804480D03*
X11687180Y-6804480D03*
X11092180Y-6889480D03*
X11177180Y-6889480D03*
X11262180Y-6889480D03*
X11347180Y-6889480D03*
X11432180Y-6889480D03*
X11517180Y-6889480D03*
X11602180Y-6889480D03*
X11687180Y-6889480D03*
X11092180Y-6974480D03*
X11177180Y-6974480D03*
X11262180Y-6974480D03*
X11347180Y-6974480D03*
X11432180Y-6974480D03*
X11517180Y-6974480D03*
X11602180Y-6974480D03*
X11687180Y-6974480D03*
X11092180Y-7059480D03*
X11177180Y-7059480D03*
X11262180Y-7059480D03*
X11347180Y-7059480D03*
X11432180Y-7059480D03*
X11517180Y-7059480D03*
X11602180Y-7059480D03*
X11687180Y-7059480D03*
X11092180Y-7144480D03*
X11177180Y-7144480D03*
X11262180Y-7144480D03*
X11347180Y-7144480D03*
X11432180Y-7144480D03*
X11517180Y-7144480D03*
X11602180Y-7144480D03*
X11687180Y-7144480D03*
X11092180Y-7229480D03*
X11177180Y-7229480D03*
X11262180Y-7229480D03*
X11347180Y-7229480D03*
X11432180Y-7229480D03*
X11517180Y-7229480D03*
X11602180Y-7229480D03*
X11687180Y-7229480D03*
X9576530Y-7036530D03*
X9746530Y-7036530D03*
X9491530Y-7036530D03*
X9746530Y-6951530D03*
X9576530Y-6951530D03*
X9661530Y-6951530D03*
X9661530Y-7036530D03*
X8416930Y-7751630D03*
X8416930Y-7836630D03*
X8246930Y-7836630D03*
X8161930Y-7836630D03*
X8331930Y-7751630D03*
X8246930Y-7751630D03*
X8501930Y-7751630D03*
X8501930Y-7836630D03*
X8161930Y-7751630D03*
X8331930Y-7836630D03*
X6801580Y-8570780D03*
X6801580Y-8655780D03*
X6716580Y-8655780D03*
X6631580Y-8570780D03*
X6716580Y-8570780D03*
X6971580Y-8655780D03*
X6886580Y-8570780D03*
X6631580Y-8655780D03*
X6971580Y-8570780D03*
X6886580Y-8655780D03*
X8583480Y-5427430D03*
X8668480Y-5597430D03*
X8583480Y-5597430D03*
X8583480Y-5512430D03*
X8583480Y-5767430D03*
X8668480Y-5512430D03*
X8668480Y-5427430D03*
X8668480Y-5682430D03*
X8668480Y-5767430D03*
X8583480Y-5682430D03*
X8668480Y-6021430D03*
X8583480Y-5851430D03*
X8668480Y-5936430D03*
X8583480Y-6021430D03*
X8583480Y-5936430D03*
X8668480Y-5851430D03*
X7735030Y-7508780D03*
X7735030Y-7424780D03*
X7484930Y-7593780D03*
X7484930Y-7254780D03*
X7735030Y-7339780D03*
X7735030Y-7169780D03*
X7484930Y-7084780D03*
X7484930Y-7169780D03*
X7735030Y-7593780D03*
X7735030Y-7678780D03*
X7484930Y-7424780D03*
X7484930Y-7339780D03*
X7735030Y-7254780D03*
X7484930Y-7508780D03*
X7484930Y-7678780D03*
X9271730Y-6227530D03*
X9271730Y-6567530D03*
X9271730Y-6312530D03*
X9034330Y-6561180D03*
X9034330Y-6730180D03*
X9034330Y-6221180D03*
X9034330Y-6306180D03*
X9271730Y-6736530D03*
X9271730Y-6397530D03*
X9034330Y-6391180D03*
X9271730Y-6482530D03*
X9034330Y-6815180D03*
X9034330Y-6645180D03*
X9271730Y-6651530D03*
X9034330Y-6476180D03*
X9413761Y-7043761D03*
X9498761Y-6958761D03*
X9415780Y-6964680D03*
X9259774Y-6808674D03*
X7173431Y-10831830D03*
X7173431Y-10603230D03*
X7173431Y-10717530D03*
X7764780Y-13644880D03*
X10819130Y-14464030D03*
X6316980Y-11866880D03*
X7148615Y-12442594D03*
X6291580Y-12019280D03*
X7072630Y-12444730D03*
X7352030Y-12692380D03*
X5123180Y-11587480D03*
X5034280Y-11587480D03*
X4945380Y-11587480D03*
X4869180Y-11587480D03*
X4869180Y-11511280D03*
X4945380Y-11511280D03*
X5034280Y-11511280D03*
X8717280Y-12260580D03*
X7380281Y-12095481D03*
X6399530Y-8063230D03*
X5421630Y-7472680D03*
X12927330Y-13746480D03*
X13879830Y-13606780D03*
X11219180Y-14667230D03*
X9117330Y-14743430D03*
X10698480Y-6812280D03*
X7282180Y-5497830D03*
X7002780Y-6611620D03*
X5102288Y-11516650D03*
X6263761Y-10209530D03*
X8075931Y-13917930D03*
X9688830Y-7358380D03*
X6958330Y-12095480D03*
X6914311Y-13187249D03*
X7561580Y-13644880D03*
X8482330Y-13511530D03*
X10241280Y-14114780D03*
X10438130Y-14110835D03*
X10669630Y-14066881D03*
X10895330Y-14044930D03*
X4780280Y-10215880D03*
X4691380Y-10215880D03*
X4602480Y-10215880D03*
X6012180Y-11549380D03*
X7186930Y-14210030D03*
X6697980Y-8040280D03*
X6867980Y-8040280D03*
X6782980Y-8210280D03*
X6867980Y-8210280D03*
X6952980Y-8210280D03*
X6952980Y-7955280D03*
X6697980Y-7955280D03*
X6867980Y-7955280D03*
X7037980Y-8210280D03*
X6952980Y-8125280D03*
X7037980Y-8125280D03*
X6697980Y-8210280D03*
X6952980Y-8040280D03*
X6782980Y-8040280D03*
X7037980Y-7955280D03*
X6697980Y-8125280D03*
X6782980Y-8125280D03*
X6867980Y-8125280D03*
X6782980Y-7955280D03*
X7037980Y-8040280D03*
X6697980Y-7752080D03*
X6782980Y-7752080D03*
X6867980Y-7752080D03*
X7037980Y-7752080D03*
X6952980Y-7752080D03*
X6120130Y-7828280D03*
X6460130Y-7828280D03*
X6290130Y-7828280D03*
X6375130Y-7828280D03*
X6205130Y-7828280D03*
X6539230Y-7828280D03*
X6375130Y-7561580D03*
X6539230Y-7561580D03*
X6460130Y-7561580D03*
X6120130Y-7561580D03*
X6205130Y-7561580D03*
X6539230Y-7650480D03*
X6539230Y-7735480D03*
X6207580Y-7479030D03*
X6377580Y-7479030D03*
X6122580Y-7479030D03*
X6456680Y-7479030D03*
X6532880Y-7479030D03*
X6465179Y-8840079D03*
X8306980Y-7129780D03*
X8391980Y-7129780D03*
X8476980Y-7129780D03*
X8561980Y-7129780D03*
X8221980Y-7214780D03*
X8306980Y-7214780D03*
X8391980Y-7214780D03*
X8476980Y-7214780D03*
X8561980Y-7214780D03*
X8221980Y-7299780D03*
X8306980Y-7299780D03*
X8391980Y-7299780D03*
X8476980Y-7299780D03*
X8561980Y-7299780D03*
X8221980Y-7384780D03*
X8306980Y-7384780D03*
X8391980Y-7384780D03*
X8476980Y-7384780D03*
X8561980Y-7384780D03*
X8221980Y-7129780D03*
X8260080Y-6913880D03*
X8515080Y-6913880D03*
X8430080Y-6913880D03*
X8600080Y-6913880D03*
X8345080Y-6913880D03*
X8095980Y-6913880D03*
X7840980Y-6913880D03*
X7925980Y-6913880D03*
X8180980Y-6913880D03*
X8010980Y-6913880D03*
X7764780Y-6913880D03*
X8095980Y-6990080D03*
X7840980Y-6990080D03*
X7925980Y-6990080D03*
X8010980Y-6990080D03*
X7764780Y-6990080D03*
X8057880Y-6596380D03*
X7726680Y-6672580D03*
X7802880Y-6596380D03*
X7972880Y-6672580D03*
X7972880Y-6596380D03*
X7726680Y-6596380D03*
X7802880Y-6672580D03*
X8057880Y-6672580D03*
X6784340Y-8840079D03*
X9497880Y-6368780D03*
X9582880Y-6368780D03*
X9667880Y-6368780D03*
X9752880Y-6368780D03*
X9412880Y-6453780D03*
X9497880Y-6453780D03*
X9582880Y-6453780D03*
X9667880Y-6453780D03*
X9752880Y-6453780D03*
X9412880Y-6538780D03*
X9497880Y-6538780D03*
X9582880Y-6538780D03*
X9667880Y-6538780D03*
X9752880Y-6538780D03*
X9497880Y-6623780D03*
X9582880Y-6623780D03*
X9667880Y-6623780D03*
X9752880Y-6623780D03*
X9412880Y-6368780D03*
X9911080Y-5986780D03*
X9911080Y-6062980D03*
X9911080Y-6139180D03*
X9911080Y-6215380D03*
X9911080Y-6291580D03*
X9911080Y-6367780D03*
X10190480Y-6367780D03*
X10190480Y-6291580D03*
X10190480Y-6062980D03*
X10190480Y-5986780D03*
X9412880Y-6127480D03*
X9582880Y-6127480D03*
X9667880Y-6127480D03*
X9497880Y-6127480D03*
X9752880Y-6127480D03*
X7142480Y-8856980D03*
X5939231Y-8269681D03*
X6863080Y-12501880D03*
X6907530Y-6012180D03*
X6863080Y-12793980D03*
X10126980Y-7479030D03*
X6863080Y-13016230D03*
X7352030Y-13644880D03*
X8099660Y-13213080D03*
X12285980Y-13848080D03*
X7662131Y-13236666D03*
X12139930Y-14025880D03*
X7688580Y-13441680D03*
X12012930Y-14025880D03*
X8047160Y-13416280D03*
X11847576Y-14154799D03*
X8298180Y-12158980D03*
X8279130Y-12432030D03*
X7061267Y-13506517D03*
X8285927Y-12566677D03*
X7064780Y-13581380D03*
X8292911Y-12634530D03*
X7114762Y-13025381D03*
X6461880Y-9276080D03*
X7155180Y-13098780D03*
X6784340Y-9250679D03*
X7066280Y-9288780D03*
X7161530Y-13174980D03*
X7269480Y-7910830D03*
X6363759Y-10177780D03*
X6469380Y-10177780D03*
X7275830Y-8342630D03*
X9999980Y-5694680D03*
X6863758Y-10210221D03*
X10012680Y-6748780D03*
X6977927Y-10222545D03*
X8837930Y-7129779D03*
X6613760Y-10196830D03*
X8806180Y-7326630D03*
X6715827Y-10198896D03*
X7651456Y-12081804D03*
X7409180Y-12876530D03*
X8298180Y-13084380D03*
X7967027Y-11854605D03*
X6763760Y-11225530D03*
X8501380Y-13035280D03*
X8074742Y-11760118D03*
X6863760Y-11219861D03*
X8018780Y-11612880D03*
X6964680Y-11231880D03*
X8548881Y-12980620D03*
X8169992Y-12071268D03*
X8253731Y-12774930D03*
X6268284Y-11229857D03*
X7891780Y-11866880D03*
X6716259Y-11289030D03*
X8302515Y-12725692D03*
X8035520Y-11824046D03*
X6812280Y-11282681D03*
X8488680Y-12679680D03*
X8036897Y-11687685D03*
X6913880Y-11282680D03*
X8541182Y-12585070D03*
X8099836Y-12097787D03*
X6442278Y-11549381D03*
X6371261Y-11231880D03*
X8062042Y-11963318D03*
X6318760Y-11303187D03*
X7989617Y-11988960D03*
X7812414Y-11882981D03*
X6666229Y-11225530D03*
X7548880Y-12082781D03*
X6158229Y-11238230D03*
X6526080Y-6338480D03*
X6696080Y-6763480D03*
X6101080Y-6423480D03*
X6526080Y-6848480D03*
X6441080Y-6338480D03*
X6356080Y-6848480D03*
X6441080Y-6253480D03*
X6271080Y-6508480D03*
X6356080Y-6423480D03*
X6186080Y-6763480D03*
X6356080Y-6253480D03*
X6271080Y-6763480D03*
X6356080Y-6508480D03*
X6271080Y-6338480D03*
X6186080Y-6253480D03*
X6356080Y-6763480D03*
X6526080Y-6253480D03*
X6356080Y-6593480D03*
X6101080Y-6678480D03*
X6186080Y-6593480D03*
X6101080Y-6593480D03*
X6186080Y-6678480D03*
X6271080Y-6423480D03*
X6696080Y-6593480D03*
X6611080Y-6423480D03*
X6526080Y-6763480D03*
X6186080Y-6508480D03*
X6696080Y-6848480D03*
X6526080Y-6508480D03*
X6356080Y-6678480D03*
X6526080Y-6423480D03*
X6611080Y-6593480D03*
X6271080Y-6593480D03*
X6101080Y-6338480D03*
X6611080Y-6253480D03*
X6696080Y-6423480D03*
X6611080Y-6508480D03*
X6526080Y-6593480D03*
X6441080Y-6423480D03*
X6611080Y-6848480D03*
X6441080Y-6848480D03*
X6271080Y-6253480D03*
X6101080Y-6763480D03*
X6611080Y-6678480D03*
X6441080Y-6678480D03*
X6186080Y-6423480D03*
X6441080Y-6593480D03*
X6696080Y-6508480D03*
X6611080Y-6338480D03*
X6101080Y-6508480D03*
X6696080Y-6678480D03*
X6611080Y-6763480D03*
X6696080Y-6253480D03*
X6271080Y-6848480D03*
X6356080Y-6338480D03*
X6526080Y-6678480D03*
X6101080Y-6848480D03*
X6186080Y-6338480D03*
X6271080Y-6678480D03*
X6441080Y-6508480D03*
X6441080Y-6763480D03*
X6696080Y-6338480D03*
X6186080Y-6848480D03*
X6377580Y-7381880D03*
X6542680Y-7381880D03*
X6457680Y-7381880D03*
X6113780Y-6943730D03*
X6538780Y-6943730D03*
X6453780Y-6943730D03*
X6198780Y-6943730D03*
X6283780Y-6943730D03*
X6368780Y-6943730D03*
X6207580Y-7296880D03*
X6122580Y-7211880D03*
X6122580Y-7296880D03*
X6207580Y-7211880D03*
X6377580Y-7296880D03*
X6377580Y-7211880D03*
X6457680Y-7211880D03*
X6542680Y-7296880D03*
X6542680Y-7211880D03*
X6457680Y-7296880D03*
X8100880Y-5474880D03*
X8270880Y-5899880D03*
X7675880Y-5559880D03*
X8100880Y-5984880D03*
X8015880Y-5474880D03*
X7930880Y-5984880D03*
X8015880Y-5389880D03*
X7845880Y-5644880D03*
X7930880Y-5559880D03*
X7760880Y-5899880D03*
X7930880Y-5389880D03*
X7845880Y-5899880D03*
X7930880Y-5644880D03*
X7845880Y-5474880D03*
X7760880Y-5389880D03*
X7930880Y-5899880D03*
X8100880Y-5389880D03*
X7930880Y-5729880D03*
X7675880Y-5814880D03*
X7760880Y-5729880D03*
X7675880Y-5729880D03*
X7760880Y-5814880D03*
X7845880Y-5559880D03*
X8270880Y-5729880D03*
X7675880Y-5389880D03*
X8185880Y-5559880D03*
X8100880Y-5899880D03*
X7760880Y-5644880D03*
X8270880Y-5984880D03*
X8100880Y-5644880D03*
X7930880Y-5814880D03*
X8100880Y-5559880D03*
X8185880Y-5729880D03*
X7845880Y-5729880D03*
X7675880Y-5474880D03*
X8185880Y-5389880D03*
X8270880Y-5559880D03*
X8185880Y-5644880D03*
X8100880Y-5729880D03*
X8015880Y-5559880D03*
X8185880Y-5984880D03*
X8015880Y-5984880D03*
X7845880Y-5389880D03*
X7675880Y-5899880D03*
X8185880Y-5814880D03*
X8015880Y-5814880D03*
X7760880Y-5559880D03*
X8015880Y-5729880D03*
X8270880Y-5644880D03*
X8185880Y-5474880D03*
X7675880Y-5644880D03*
X8270880Y-5814880D03*
X8185880Y-5899880D03*
X8270880Y-5389880D03*
X7845880Y-5984880D03*
X7930880Y-5474880D03*
X8100880Y-5814880D03*
X7675880Y-5984880D03*
X7760880Y-5474880D03*
X7845880Y-5814880D03*
X8015880Y-5644880D03*
X8015880Y-5899880D03*
X8270880Y-5474880D03*
X7760880Y-5984880D03*
X7807780Y-6322880D03*
X7977780Y-6492880D03*
X7977780Y-6407880D03*
X7722780Y-6407880D03*
X7722780Y-6322880D03*
X7807780Y-6407880D03*
X7977780Y-6322880D03*
X8053980Y-6407880D03*
X8053980Y-6492880D03*
X8053980Y-6322880D03*
X7760880Y-6061080D03*
X8015880Y-6061080D03*
X8270880Y-6061080D03*
X8100880Y-6061080D03*
X7845880Y-6061080D03*
X7675880Y-6061080D03*
X7930880Y-6061080D03*
X8185880Y-6061080D03*
X7694930Y-12381230D03*
X7753781Y-12274410D03*
X7891122Y-12039475D03*
X7396480Y-5605780D03*
X6297930Y-8164830D03*
X9676130Y-7161530D03*
X6202680Y-11308080D03*
X8234680Y-6329680D03*
X9400180Y-5555980D03*
X11384280Y-5758180D03*
X8729980Y-6177280D03*
X8729980Y-6253480D03*
X8729980Y-6329680D03*
X8729980Y-6393180D03*
X8729980Y-6469380D03*
X8729980Y-6545580D03*
X8729980Y-6621780D03*
X8729980Y-6697980D03*
X8729980Y-6774180D03*
X8729980Y-6850380D03*
X5681980Y-9949180D03*
X5681980Y-10038080D03*
X5681980Y-10126980D03*
X7485380Y-11054080D03*
X7561580Y-11054080D03*
X7637780Y-11054080D03*
X7409180Y-11054080D03*
X11469280Y-5758180D03*
X11554280Y-5758180D03*
X11639280Y-5758180D03*
X11724280Y-5758180D03*
X11809280Y-5758180D03*
X11894280Y-5758180D03*
X11979280Y-5758180D03*
X11384280Y-5843180D03*
X11469280Y-5843180D03*
X11554280Y-5843180D03*
X11639280Y-5843180D03*
X11724280Y-5843180D03*
X11809280Y-5843180D03*
X11894280Y-5843180D03*
X11979280Y-5843180D03*
X11384280Y-5928180D03*
X11469280Y-5928180D03*
X11554280Y-5928180D03*
X11639280Y-5928180D03*
X11724280Y-5928180D03*
X11809280Y-5928180D03*
X11894280Y-5928180D03*
X11979280Y-5928180D03*
X11384280Y-6013180D03*
X11469280Y-6013180D03*
X11554280Y-6013180D03*
X11639280Y-6013180D03*
X11724280Y-6013180D03*
X11809280Y-6013180D03*
X11894280Y-6013180D03*
X11979280Y-6013180D03*
X11384280Y-6098180D03*
X11469280Y-6098180D03*
X11554280Y-6098180D03*
X11639280Y-6098180D03*
X11724280Y-6098180D03*
X11809280Y-6098180D03*
X11894280Y-6098180D03*
X11979280Y-6098180D03*
X11384280Y-6183180D03*
X11469280Y-6183180D03*
X11554280Y-6183180D03*
X11639280Y-6183180D03*
X11724280Y-6183180D03*
X11809280Y-6183180D03*
X11894280Y-6183180D03*
X11979280Y-6183180D03*
X11384280Y-6268180D03*
X11469280Y-6268180D03*
X11554280Y-6268180D03*
X11639280Y-6268180D03*
X11724280Y-6268180D03*
X11809280Y-6268180D03*
X11894280Y-6268180D03*
X11979280Y-6268180D03*
X11384280Y-6353180D03*
X11469280Y-6353180D03*
X11554280Y-6353180D03*
X11639280Y-6353180D03*
X11724280Y-6353180D03*
X11809280Y-6353180D03*
X11894280Y-6353180D03*
X11979280Y-6353180D03*
X9485180Y-5555980D03*
X9570180Y-5555980D03*
X9655180Y-5555980D03*
X9740180Y-5555980D03*
X9400180Y-5640980D03*
X9485180Y-5640980D03*
X9570180Y-5640980D03*
X9655180Y-5640980D03*
X9740180Y-5640980D03*
X9400180Y-5725980D03*
X9485180Y-5725980D03*
X9570180Y-5725980D03*
X9655180Y-5725980D03*
X9740180Y-5725980D03*
X9400180Y-5810980D03*
X9485180Y-5810980D03*
X9570180Y-5810980D03*
X9655180Y-5810980D03*
X9740180Y-5810980D03*
X9250680Y-5389880D03*
X9250680Y-5466080D03*
X9250680Y-5542280D03*
X9250680Y-5618480D03*
X9250680Y-5694680D03*
X9250680Y-5770880D03*
X9250680Y-5847080D03*
X9250680Y-5923280D03*
X9250680Y-5999480D03*
X9250680Y-6075680D03*
X8319680Y-6329680D03*
X8404680Y-6329680D03*
X8489680Y-6329680D03*
X8574680Y-6329680D03*
X8234680Y-6414680D03*
X8319680Y-6414680D03*
X8404680Y-6414680D03*
X8489680Y-6414680D03*
X8574680Y-6414680D03*
X8234680Y-6499680D03*
X8319680Y-6499680D03*
X8404680Y-6499680D03*
X8489680Y-6499680D03*
X8574680Y-6499680D03*
X8234680Y-6584680D03*
X8319680Y-6584680D03*
X8404680Y-6584680D03*
X8489680Y-6584680D03*
X8574680Y-6584680D03*
X7193280Y-7536180D03*
X6697980Y-7252880D03*
X7193280Y-7383780D03*
X7193280Y-7307580D03*
X7193280Y-7231380D03*
X6867980Y-7252880D03*
X6782980Y-7422880D03*
X6867980Y-7422880D03*
X6952980Y-7422880D03*
X7193280Y-7688580D03*
X6952980Y-7167880D03*
X6697980Y-7167880D03*
X6867980Y-7167880D03*
X7193280Y-7612380D03*
X7193280Y-7459980D03*
X7037980Y-7422880D03*
X6952980Y-7337880D03*
X7037980Y-7337880D03*
X6697980Y-7422880D03*
X7193280Y-7091680D03*
X6952980Y-7252880D03*
X7193280Y-7167880D03*
X6782980Y-7252880D03*
X7037980Y-7167880D03*
X7193280Y-7015480D03*
X6697980Y-7337880D03*
X6782980Y-7337880D03*
X6867980Y-7337880D03*
X6782980Y-7167880D03*
X7037980Y-7252880D03*
X10330180Y-5326380D03*
X10415180Y-5326380D03*
X10500180Y-5326380D03*
X10585180Y-5326380D03*
X10670180Y-5326380D03*
X10755180Y-5326380D03*
X10840180Y-5326380D03*
X10925180Y-5326380D03*
X10330180Y-5411380D03*
X10415180Y-5411380D03*
X10500180Y-5411380D03*
X10585180Y-5411380D03*
X10670180Y-5411380D03*
X10755180Y-5411380D03*
X10840180Y-5411380D03*
X10925180Y-5411380D03*
X10330180Y-5496380D03*
X10415180Y-5496380D03*
X10500180Y-5496380D03*
X10585180Y-5496380D03*
X10670180Y-5496380D03*
X10755180Y-5496380D03*
X10840180Y-5496380D03*
X10925180Y-5496380D03*
X10330180Y-5581380D03*
X10415180Y-5581380D03*
X10500180Y-5581380D03*
X10585180Y-5581380D03*
X10670180Y-5581380D03*
X10755180Y-5581380D03*
X10840180Y-5581380D03*
X10925180Y-5581380D03*
X10330180Y-5666380D03*
X10415180Y-5666380D03*
X10500180Y-5666380D03*
X10585180Y-5666380D03*
X10670180Y-5666380D03*
X10755180Y-5666380D03*
X10840180Y-5666380D03*
X10925180Y-5666380D03*
X10330180Y-5751380D03*
X10415180Y-5751380D03*
X10500180Y-5751380D03*
X10585180Y-5751380D03*
X10670180Y-5751380D03*
X10755180Y-5751380D03*
X10840180Y-5751380D03*
X10925180Y-5751380D03*
X10330180Y-5836380D03*
X10415180Y-5836380D03*
X10500180Y-5836380D03*
X10585180Y-5836380D03*
X10670180Y-5836380D03*
X10755180Y-5836380D03*
X10840180Y-5836380D03*
X10925180Y-5836380D03*
X10330180Y-5921380D03*
X10415180Y-5921380D03*
X10500180Y-5921380D03*
X10585180Y-5921380D03*
X10670180Y-5921380D03*
X10755180Y-5921380D03*
X10840180Y-5921380D03*
X10925180Y-5921380D03*
X10500180Y-6085480D03*
X10330180Y-6085480D03*
X10500180Y-6255480D03*
X10415180Y-6340480D03*
X10415180Y-6255480D03*
X10415180Y-6085480D03*
X10500180Y-6340480D03*
X10415180Y-6000480D03*
X10330180Y-6000480D03*
X10500180Y-6000480D03*
X10931980Y-6170480D03*
X10846980Y-6170480D03*
X10846980Y-6255480D03*
X10931980Y-6255480D03*
X10931980Y-6340480D03*
X10761980Y-6170480D03*
X10846980Y-6340480D03*
X10761980Y-6000480D03*
X10761980Y-6255480D03*
X10846980Y-6085480D03*
X10761980Y-6340480D03*
X10846980Y-6000480D03*
X10931980Y-6085480D03*
X10761980Y-6085480D03*
X10931980Y-6000480D03*
X7809229Y-12317730D03*
X7904624Y-12267377D03*
X7994660Y-13229560D03*
D10*
X6465179Y-8443081D02*
X6465179Y-8840079D01*
X6697980Y-8210280D02*
X6465179Y-8443081D01*
X7809078Y-7987182D02*
X6956181Y-8840079D01*
X8096582Y-7384780D02*
X7809078Y-7672284D01*
X6956181Y-8840079D02*
X6819695Y-8840079D01*
X7809078Y-7672284D02*
X7809078Y-7987182D01*
X8221980Y-7384780D02*
X8096582Y-7384780D01*
X6819695Y-8840079D02*
X6784340Y-8840079D01*
X8028381Y-8028229D02*
X8028381Y-7698029D01*
X7142480Y-8856980D02*
X7199630Y-8856980D01*
X7199630Y-8856980D02*
X8028381Y-8028229D01*
X8757982Y-7593330D02*
X9123528Y-7227784D01*
X9123528Y-7072782D02*
X9497880Y-6698430D01*
X9497880Y-6659135D02*
X9497880Y-6623780D01*
X9497880Y-6698430D02*
X9497880Y-6659135D01*
X9123528Y-7227784D02*
X9123528Y-7072782D01*
X8133080Y-7593330D02*
X8757982Y-7593330D01*
X8028381Y-7698029D02*
X8133080Y-7593330D01*
X6461880Y-10062332D02*
X6461880Y-9311435D01*
X6461880Y-9311435D02*
X6461880Y-9276080D01*
X6461879Y-10062333D02*
X6461880Y-10062332D01*
X6463030Y-10088880D02*
X6463030Y-10063480D01*
X6520180Y-10146030D02*
X6463030Y-10088880D01*
X6960328Y-12776928D02*
X6520180Y-12336780D01*
X6960328Y-12808678D02*
X6960328Y-12776928D01*
X7114762Y-12963112D02*
X6960328Y-12808678D01*
X7114762Y-13025381D02*
X7114762Y-12963112D01*
X6520180Y-12336780D02*
X6520180Y-10146030D01*
X7155180Y-13098780D02*
X7180180Y-13073780D01*
X7180180Y-13073780D02*
X7180180Y-12979031D01*
X6784340Y-10320020D02*
X6784340Y-9286035D01*
X6784340Y-9286035D02*
X6784340Y-9250679D01*
X6995329Y-12794180D02*
X6995329Y-12756801D01*
X6570980Y-12332452D02*
X6570980Y-10533380D01*
X6570980Y-10533380D02*
X6784340Y-10320020D01*
X7180180Y-12979031D02*
X6995329Y-12794180D01*
X6995329Y-12756801D02*
X6570980Y-12332452D01*
X7066280Y-9288780D02*
X7224630Y-9447130D01*
X7224630Y-13111880D02*
X7186530Y-13149980D01*
X7224630Y-9447130D02*
X7224630Y-13111880D01*
X7186530Y-13149980D02*
X7161530Y-13174980D01*
X7269480Y-8158480D02*
X7120331Y-8307629D01*
X6520180Y-8458231D02*
X6520180Y-8920480D01*
X7120331Y-8307629D02*
X6670782Y-8307629D01*
X6520180Y-8920480D02*
X6363759Y-9076901D01*
X6363759Y-9076901D02*
X6363759Y-10142425D01*
X6670782Y-8307629D02*
X6520180Y-8458231D01*
X6363759Y-10142425D02*
X6363759Y-10177780D01*
X7269480Y-7910830D02*
X7269480Y-8158480D01*
X6564630Y-8945880D02*
X6564630Y-8463280D01*
X6406879Y-9103631D02*
X6564630Y-8945880D01*
X6469380Y-10177780D02*
X6406879Y-10115279D01*
X6685280Y-8342630D02*
X7240475Y-8342630D01*
X6406879Y-10115279D02*
X6406879Y-9103631D01*
X6564630Y-8463280D02*
X6685280Y-8342630D01*
X7240475Y-8342630D02*
X7275830Y-8342630D01*
X8144327Y-7631582D02*
X8063382Y-7712527D01*
X6863758Y-9240151D02*
X6863758Y-10174866D01*
X6863758Y-10174866D02*
X6863758Y-10210221D01*
X9999980Y-6558280D02*
X9796780Y-6761480D01*
X8063382Y-7712527D02*
X8063382Y-8042727D01*
X9999980Y-5694680D02*
X9999980Y-6558280D01*
X9158529Y-7242282D02*
X8769229Y-7631582D01*
X8769229Y-7631582D02*
X8144327Y-7631582D01*
X8063382Y-8042727D02*
X7214128Y-8891981D01*
X9158529Y-7088581D02*
X9158529Y-7242282D01*
X7214128Y-8891981D02*
X7211928Y-8891981D01*
X9485630Y-6761480D02*
X9158529Y-7088581D01*
X7211928Y-8891981D02*
X6863758Y-9240151D01*
X9796780Y-6761480D02*
X9485630Y-6761480D01*
X9506478Y-6796481D02*
X9193530Y-7109429D01*
X8780780Y-7669530D02*
X8155878Y-7669530D01*
X6977927Y-9177681D02*
X6977927Y-10187190D01*
X8098383Y-8057225D02*
X6977927Y-9177681D01*
X6977927Y-10187190D02*
X6977927Y-10222545D01*
X10012680Y-6748780D02*
X9964979Y-6796481D01*
X8155878Y-7669530D02*
X8098383Y-7727025D01*
X9193530Y-7109429D02*
X9193530Y-7256780D01*
X9964979Y-6796481D02*
X9506478Y-6796481D01*
X9193530Y-7256780D02*
X8780780Y-7669530D01*
X8098383Y-7727025D02*
X8098383Y-8057225D01*
X6613760Y-10161475D02*
X6613760Y-10196830D01*
X7844079Y-8001680D02*
X6613760Y-9231999D01*
X8055082Y-7475779D02*
X7844079Y-7686782D01*
X6613760Y-9231999D02*
X6613760Y-10161475D01*
X7844079Y-7686782D02*
X7844079Y-8001680D01*
X8837930Y-7194581D02*
X8556732Y-7475779D01*
X8837930Y-7129779D02*
X8837930Y-7194581D01*
X8556732Y-7475779D02*
X8055082Y-7475779D01*
X8622030Y-7510780D02*
X8069580Y-7510780D01*
X8806180Y-7326630D02*
X8622030Y-7510780D01*
X6715827Y-10163540D02*
X6715827Y-10198896D01*
X6715827Y-9179431D02*
X6715827Y-10163540D01*
X8069580Y-7510780D02*
X7879080Y-7701280D01*
X7879080Y-7701280D02*
X7879080Y-8016178D01*
X7879080Y-8016178D02*
X6715827Y-9179431D01*
X7542530Y-12203430D02*
X7542530Y-12190730D01*
X7542530Y-12190730D02*
X7621456Y-12111804D01*
X7621456Y-12111804D02*
X7651456Y-12081804D01*
X7409180Y-12336780D02*
X7409180Y-12841175D01*
X7548880Y-12197080D02*
X7409180Y-12336780D01*
X7409180Y-12841175D02*
X7409180Y-12876530D01*
D17*
X8155446Y-11876546D02*
X7988967Y-11876546D01*
X8425180Y-12146280D02*
X8155446Y-11876546D01*
X8425180Y-12957380D02*
X8425180Y-12146280D01*
X7988967Y-11876546D02*
X7967027Y-11854605D01*
X8298180Y-13084380D02*
X8425180Y-12957380D01*
X8555230Y-12898880D02*
X8555230Y-12670030D01*
X8485182Y-12599982D02*
X8485182Y-12121426D01*
X8555230Y-12670030D02*
X8485182Y-12599982D01*
X8501380Y-12952730D02*
X8555230Y-12898880D01*
X8501380Y-13035280D02*
X8501380Y-12952730D01*
X8110097Y-11760118D02*
X8074742Y-11760118D01*
X8485182Y-12121426D02*
X8123874Y-11760118D01*
X8123874Y-11760118D02*
X8110097Y-11760118D01*
X8589880Y-12939621D02*
X8573881Y-12955620D01*
X8589880Y-12141268D02*
X8589880Y-12939621D01*
X8573881Y-12955620D02*
X8548881Y-12980620D01*
X8061492Y-11612880D02*
X8589880Y-12141268D01*
X8018780Y-11612880D02*
X8061492Y-11612880D01*
X8169992Y-12071268D02*
X8169992Y-12691192D01*
X8228731Y-12749930D02*
X8253731Y-12774930D01*
X8169992Y-12691192D02*
X8228731Y-12749930D01*
X8225280Y-12052308D02*
X8225280Y-12175430D01*
X8228730Y-12651906D02*
X8277515Y-12700692D01*
X8228730Y-12178880D02*
X8228730Y-12651906D01*
X8225280Y-12175430D02*
X8228730Y-12178880D01*
X8080078Y-11907105D02*
X8225280Y-12052308D01*
X7932005Y-11907105D02*
X8080078Y-11907105D01*
X8277515Y-12700692D02*
X8302515Y-12725692D01*
X7891780Y-11866880D02*
X7932005Y-11907105D01*
X8463680Y-12654680D02*
X8488680Y-12679680D01*
X8035520Y-11824046D02*
X8145374Y-11824046D01*
X8455181Y-12646181D02*
X8463680Y-12654680D01*
X8145374Y-11824046D02*
X8455181Y-12133853D01*
X8455181Y-12133853D02*
X8455181Y-12646181D01*
X8541182Y-12134998D02*
X8541182Y-12542644D01*
X8036897Y-11687685D02*
X8093869Y-11687685D01*
X8093869Y-11687685D02*
X8541182Y-12134998D01*
X8541182Y-12542644D02*
X8541182Y-12585070D01*
D10*
X6209030Y-8253730D02*
X6209030Y-11266375D01*
X6209030Y-11266375D02*
X6202680Y-11272725D01*
X6202680Y-11272725D02*
X6202680Y-11308080D01*
X6297930Y-8164830D02*
X6209030Y-8253730D01*
X9640775Y-7161530D02*
X9676130Y-7161530D01*
X7332980Y-11481333D02*
X7332980Y-9034780D01*
X7891122Y-12039475D02*
X7332980Y-11481333D01*
X7332980Y-9034780D02*
X8481130Y-7886630D01*
X8481130Y-7886630D02*
X8620830Y-7886630D01*
X8620830Y-7886630D02*
X9345930Y-7161530D01*
X9345930Y-7161530D02*
X9640775Y-7161530D01*
D17*
X8114830Y-13349730D02*
X8657530Y-13349730D01*
X8657530Y-13349730D02*
X8660580Y-13352780D01*
X8660580Y-13352780D02*
X9457340Y-13352780D01*
X7994660Y-13229560D02*
X8114830Y-13349730D01*
X9678760Y-13331100D02*
X9763760Y-13246100D01*
X9470040Y-13365480D02*
X9644380Y-13365480D01*
X9457340Y-13352780D02*
X9470040Y-13365480D01*
X9644380Y-13365480D02*
X9678760Y-13331100D01*
D10*
G36*
X9862980Y-5875180D02*
X9288780Y-5875180D01*
X9284953Y-5875941D01*
X9281709Y-5878109D01*
X9279541Y-5881353D01*
X9278780Y-5885180D01*
X9278780Y-6103780D01*
X9070180Y-6103780D01*
X9070180Y-5336380D01*
X9862980Y-5336380D01*
X9862980Y-5875180D01*
X9862980Y-5875180D01*
G37*
X9862980Y-5875180D02*
X9288780Y-5875180D01*
X9284953Y-5875941D01*
X9281709Y-5878109D01*
X9279541Y-5881353D01*
X9278780Y-5885180D01*
X9278780Y-6103780D01*
X9070180Y-6103780D01*
X9070180Y-5336380D01*
X9862980Y-5336380D01*
X9862980Y-5875180D01*
G36*
X8973980Y-6891180D02*
X8689180Y-6891180D01*
X8689180Y-6672580D01*
X8688419Y-6668753D01*
X8686251Y-6665509D01*
X8683007Y-6663341D01*
X8679180Y-6662580D01*
X8130380Y-6662580D01*
X8130380Y-6123780D01*
X8973980Y-6123780D01*
X8973980Y-6891180D01*
X8973980Y-6891180D01*
G37*
X8973980Y-6891180D02*
X8689180Y-6891180D01*
X8689180Y-6672580D01*
X8688419Y-6668753D01*
X8686251Y-6665509D01*
X8683007Y-6663341D01*
X8679180Y-6662580D01*
X8130380Y-6662580D01*
X8130380Y-6123780D01*
X8973980Y-6123780D01*
X8973980Y-6891180D01*
G36*
X7431996Y-7068852D02*
X7429930Y-7073840D01*
X7429930Y-7095720D01*
X7431996Y-7100708D01*
X7431996Y-7153852D01*
X7429930Y-7158840D01*
X7429930Y-7180720D01*
X7431996Y-7185708D01*
X7431996Y-7238852D01*
X7429930Y-7243840D01*
X7429930Y-7265720D01*
X7431996Y-7270708D01*
X7431996Y-7323852D01*
X7429930Y-7328840D01*
X7429930Y-7350720D01*
X7431996Y-7355708D01*
X7431996Y-7408852D01*
X7429930Y-7413840D01*
X7429930Y-7435720D01*
X7431996Y-7440708D01*
X7431996Y-7492852D01*
X7429930Y-7497840D01*
X7429930Y-7519720D01*
X7431996Y-7524708D01*
X7431996Y-7577852D01*
X7429930Y-7582840D01*
X7429930Y-7604720D01*
X7431996Y-7609708D01*
X7431996Y-7662852D01*
X7429930Y-7667840D01*
X7429930Y-7689720D01*
X7431996Y-7694708D01*
X7431996Y-7729380D01*
X7147196Y-7729380D01*
X7147196Y-7510780D01*
X7146435Y-7506953D01*
X7144267Y-7503709D01*
X7141023Y-7501541D01*
X7137196Y-7500780D01*
X6600030Y-7500780D01*
X6600030Y-6961980D01*
X7431996Y-6961980D01*
X7431996Y-7068852D01*
X7431996Y-7068852D01*
G37*
X7431996Y-7068852D02*
X7429930Y-7073840D01*
X7429930Y-7095720D01*
X7431996Y-7100708D01*
X7431996Y-7153852D01*
X7429930Y-7158840D01*
X7429930Y-7180720D01*
X7431996Y-7185708D01*
X7431996Y-7238852D01*
X7429930Y-7243840D01*
X7429930Y-7265720D01*
X7431996Y-7270708D01*
X7431996Y-7323852D01*
X7429930Y-7328840D01*
X7429930Y-7350720D01*
X7431996Y-7355708D01*
X7431996Y-7408852D01*
X7429930Y-7413840D01*
X7429930Y-7435720D01*
X7431996Y-7440708D01*
X7431996Y-7492852D01*
X7429930Y-7497840D01*
X7429930Y-7519720D01*
X7431996Y-7524708D01*
X7431996Y-7577852D01*
X7429930Y-7582840D01*
X7429930Y-7604720D01*
X7431996Y-7609708D01*
X7431996Y-7662852D01*
X7429930Y-7667840D01*
X7429930Y-7689720D01*
X7431996Y-7694708D01*
X7431996Y-7729380D01*
X7147196Y-7729380D01*
X7147196Y-7510780D01*
X7146435Y-7506953D01*
X7144267Y-7503709D01*
X7141023Y-7501541D01*
X7137196Y-7500780D01*
X6600030Y-7500780D01*
X6600030Y-6961980D01*
X7431996Y-6961980D01*
X7431996Y-7068852D01*
G36*
X12021980Y-6395880D02*
X11343480Y-6395880D01*
X11343480Y-5704680D01*
X12021980Y-5704680D01*
X12021980Y-6395880D01*
X12021980Y-6395880D01*
G37*
X12021980Y-6395880D02*
X11343480Y-6395880D01*
X11343480Y-5704680D01*
X12021980Y-5704680D01*
X12021980Y-6395880D01*
D17*
G36*
X10288764Y-4490062D02*
X10576736Y-4512725D01*
X10863127Y-4550430D01*
X11147153Y-4603071D01*
X11428034Y-4670504D01*
X11705001Y-4752546D01*
X11977295Y-4848970D01*
X12244169Y-4959513D01*
X12504893Y-5083872D01*
X12758750Y-5221705D01*
X13005046Y-5372635D01*
X13243105Y-5536249D01*
X13472275Y-5712097D01*
X13691928Y-5899698D01*
X13901462Y-6098538D01*
X14100302Y-6308072D01*
X14287903Y-6527725D01*
X14463751Y-6756895D01*
X14627365Y-6994954D01*
X14778295Y-7241250D01*
X14916128Y-7495107D01*
X15040487Y-7755831D01*
X15151030Y-8022705D01*
X15247454Y-8294999D01*
X15329496Y-8571966D01*
X15396929Y-8852847D01*
X15449570Y-9136873D01*
X15487275Y-9423264D01*
X15509938Y-9711236D01*
X15517500Y-10000000D01*
X15509938Y-10288764D01*
X15487275Y-10576736D01*
X15449570Y-10863127D01*
X15396929Y-11147153D01*
X15329496Y-11428034D01*
X15247454Y-11705001D01*
X15151030Y-11977295D01*
X15040487Y-12244169D01*
X14916128Y-12504893D01*
X14778295Y-12758750D01*
X14627365Y-13005046D01*
X14463751Y-13243105D01*
X14287903Y-13472275D01*
X14100302Y-13691928D01*
X13901462Y-13901462D01*
X13691928Y-14100302D01*
X13472275Y-14287903D01*
X13243105Y-14463751D01*
X13005046Y-14627365D01*
X12758750Y-14778295D01*
X12504893Y-14916128D01*
X12244169Y-15040487D01*
X11977295Y-15151030D01*
X11705001Y-15247454D01*
X11428034Y-15329496D01*
X11147153Y-15396929D01*
X10863127Y-15449570D01*
X10576736Y-15487275D01*
X10288764Y-15509938D01*
X10000000Y-15517500D01*
X9711236Y-15509938D01*
X9423264Y-15487275D01*
X9136873Y-15449570D01*
X8852847Y-15396929D01*
X8571966Y-15329496D01*
X8294999Y-15247454D01*
X8022705Y-15151030D01*
X7755831Y-15040487D01*
X7495107Y-14916128D01*
X7241250Y-14778295D01*
X6994954Y-14627365D01*
X6756895Y-14463751D01*
X6744945Y-14454582D01*
X10771630Y-14454582D01*
X10771630Y-14473478D01*
X10778861Y-14490937D01*
X10792223Y-14504299D01*
X10809682Y-14511530D01*
X10828578Y-14511530D01*
X10846037Y-14504299D01*
X10859399Y-14490937D01*
X10866630Y-14473478D01*
X10866630Y-14454582D01*
X10859399Y-14437123D01*
X10846037Y-14423761D01*
X10828578Y-14416530D01*
X10809682Y-14416530D01*
X10792223Y-14423761D01*
X10778861Y-14437123D01*
X10771630Y-14454582D01*
X6744945Y-14454582D01*
X6527725Y-14287903D01*
X6360522Y-14145098D01*
X6641752Y-14145098D01*
X6641752Y-14190848D01*
X6659259Y-14233115D01*
X6691609Y-14265465D01*
X6733877Y-14282973D01*
X6779627Y-14282973D01*
X6821894Y-14265465D01*
X6854244Y-14233115D01*
X6867720Y-14200582D01*
X7139430Y-14200582D01*
X7139430Y-14219478D01*
X7146661Y-14236937D01*
X7160023Y-14250299D01*
X7177482Y-14257530D01*
X7196378Y-14257530D01*
X7213837Y-14250299D01*
X7227199Y-14236937D01*
X7234430Y-14219478D01*
X7234430Y-14200582D01*
X7227199Y-14183123D01*
X7213837Y-14169761D01*
X7196378Y-14162530D01*
X7177482Y-14162530D01*
X7160023Y-14169761D01*
X7146661Y-14183123D01*
X7139430Y-14200582D01*
X6867720Y-14200582D01*
X6871752Y-14190848D01*
X6871752Y-14145351D01*
X11800076Y-14145351D01*
X11800076Y-14164247D01*
X11807307Y-14181706D01*
X11820669Y-14195068D01*
X11838128Y-14202299D01*
X11857024Y-14202299D01*
X11874483Y-14195068D01*
X11887845Y-14181706D01*
X11895076Y-14164247D01*
X11895076Y-14145351D01*
X11887845Y-14127892D01*
X11874483Y-14114530D01*
X11857024Y-14107299D01*
X11838128Y-14107299D01*
X11820669Y-14114530D01*
X11807307Y-14127892D01*
X11800076Y-14145351D01*
X6871752Y-14145351D01*
X6871752Y-14145098D01*
X6854244Y-14102831D01*
X6821894Y-14070481D01*
X6779627Y-14052973D01*
X6733877Y-14052973D01*
X6691609Y-14070481D01*
X6659259Y-14102831D01*
X6641752Y-14145098D01*
X6360522Y-14145098D01*
X6308072Y-14100302D01*
X6098538Y-13901462D01*
X6057899Y-13858637D01*
X6304664Y-13858637D01*
X6304664Y-13884297D01*
X6314483Y-13908003D01*
X6332627Y-13926147D01*
X6356334Y-13935967D01*
X6381993Y-13935967D01*
X6405700Y-13926147D01*
X6423844Y-13908003D01*
X6433664Y-13884297D01*
X6433664Y-13878289D01*
X6446699Y-13891324D01*
X6450350Y-13892837D01*
X6432213Y-13900349D01*
X6414069Y-13918493D01*
X6404249Y-13942200D01*
X6404249Y-13967859D01*
X6414069Y-13991566D01*
X6432213Y-14009710D01*
X6455920Y-14019529D01*
X6481579Y-14019529D01*
X6505286Y-14009710D01*
X6520886Y-13994109D01*
X6491591Y-14029023D01*
X6487285Y-14036870D01*
X6486311Y-14045768D01*
X6488816Y-14054362D01*
X6494418Y-14061342D01*
X6558766Y-14115336D01*
X6566614Y-14119642D01*
X6575511Y-14120616D01*
X6584105Y-14118111D01*
X6591086Y-14112509D01*
X6645080Y-14048161D01*
X6649385Y-14040313D01*
X6650360Y-14031416D01*
X6647855Y-14022822D01*
X6642726Y-14016432D01*
X11965430Y-14016432D01*
X11965430Y-14035328D01*
X11972661Y-14052787D01*
X11986023Y-14066149D01*
X12003482Y-14073380D01*
X12022378Y-14073380D01*
X12039837Y-14066149D01*
X12053199Y-14052787D01*
X12060430Y-14035328D01*
X12060430Y-14016432D01*
X12092430Y-14016432D01*
X12092430Y-14035328D01*
X12099661Y-14052787D01*
X12113023Y-14066149D01*
X12130482Y-14073380D01*
X12149378Y-14073380D01*
X12166837Y-14066149D01*
X12180199Y-14052787D01*
X12187430Y-14035328D01*
X12187430Y-14016432D01*
X12180199Y-13998973D01*
X12166837Y-13985611D01*
X12149378Y-13978380D01*
X12130482Y-13978380D01*
X12113023Y-13985611D01*
X12099661Y-13998973D01*
X12092430Y-14016432D01*
X12060430Y-14016432D01*
X12053199Y-13998973D01*
X12039837Y-13985611D01*
X12022378Y-13978380D01*
X12003482Y-13978380D01*
X11986023Y-13985611D01*
X11972661Y-13998973D01*
X11965430Y-14016432D01*
X6642726Y-14016432D01*
X6642252Y-14015841D01*
X6602009Y-13982073D01*
X6619357Y-13974887D01*
X6637502Y-13956743D01*
X6647321Y-13933036D01*
X6647321Y-13907376D01*
X6637502Y-13883670D01*
X6619357Y-13865526D01*
X6595651Y-13855706D01*
X6569991Y-13855706D01*
X6546285Y-13865526D01*
X6528141Y-13883670D01*
X6518321Y-13907376D01*
X6518321Y-13913384D01*
X6505286Y-13900349D01*
X6501635Y-13898837D01*
X6519772Y-13891324D01*
X6537916Y-13873180D01*
X6547735Y-13849474D01*
X6547735Y-13823814D01*
X6537916Y-13800108D01*
X6519772Y-13781963D01*
X6496065Y-13772144D01*
X6470406Y-13772144D01*
X6446699Y-13781963D01*
X6428555Y-13800108D01*
X6418735Y-13823814D01*
X6418735Y-13829822D01*
X6405700Y-13816787D01*
X6381993Y-13806967D01*
X6356334Y-13806967D01*
X6332627Y-13816787D01*
X6314483Y-13834931D01*
X6304664Y-13858637D01*
X6057899Y-13858637D01*
X5899698Y-13691928D01*
X5894213Y-13685505D01*
X6094030Y-13685505D01*
X6094030Y-13731255D01*
X6111538Y-13773522D01*
X6143888Y-13805872D01*
X6186155Y-13823380D01*
X6231905Y-13823380D01*
X6274172Y-13805872D01*
X6306522Y-13773522D01*
X6314567Y-13754100D01*
X9400154Y-13754100D01*
X9408497Y-13796044D01*
X9432257Y-13831603D01*
X9467816Y-13855363D01*
X9499173Y-13861600D01*
X9520348Y-13861600D01*
X9551704Y-13855363D01*
X9587263Y-13831603D01*
X9611023Y-13796044D01*
X9619366Y-13754100D01*
X9654154Y-13754100D01*
X9662497Y-13796044D01*
X9686257Y-13831603D01*
X9721816Y-13855363D01*
X9753173Y-13861600D01*
X9774348Y-13861600D01*
X9805704Y-13855363D01*
X9841263Y-13831603D01*
X9865023Y-13796044D01*
X9873366Y-13754100D01*
X9873113Y-13752830D01*
X10087224Y-13752830D01*
X10095567Y-13794774D01*
X10119327Y-13830333D01*
X10154886Y-13854093D01*
X10186243Y-13860330D01*
X10207418Y-13860330D01*
X10238774Y-13854093D01*
X10261913Y-13838632D01*
X12238480Y-13838632D01*
X12238480Y-13857528D01*
X12245711Y-13874987D01*
X12259073Y-13888349D01*
X12276532Y-13895580D01*
X12295428Y-13895580D01*
X12312887Y-13888349D01*
X12326249Y-13874987D01*
X12333480Y-13857528D01*
X12333480Y-13838632D01*
X12326249Y-13821173D01*
X12312887Y-13807811D01*
X12295428Y-13800580D01*
X12276532Y-13800580D01*
X12259073Y-13807811D01*
X12245711Y-13821173D01*
X12238480Y-13838632D01*
X10261913Y-13838632D01*
X10274333Y-13830333D01*
X10298093Y-13794774D01*
X10306436Y-13752830D01*
X10298093Y-13710886D01*
X10274333Y-13675327D01*
X10238774Y-13651567D01*
X10207418Y-13645330D01*
X10186243Y-13645330D01*
X10154886Y-13651567D01*
X10119327Y-13675327D01*
X10095567Y-13710886D01*
X10087224Y-13752830D01*
X9873113Y-13752830D01*
X9865023Y-13712156D01*
X9841263Y-13676597D01*
X9805704Y-13652837D01*
X9774348Y-13646600D01*
X9753173Y-13646600D01*
X9721816Y-13652837D01*
X9686257Y-13676597D01*
X9662497Y-13712156D01*
X9654154Y-13754100D01*
X9619366Y-13754100D01*
X9611023Y-13712156D01*
X9587263Y-13676597D01*
X9551704Y-13652837D01*
X9520348Y-13646600D01*
X9499173Y-13646600D01*
X9467816Y-13652837D01*
X9432257Y-13676597D01*
X9408497Y-13712156D01*
X9400154Y-13754100D01*
X6314567Y-13754100D01*
X6324030Y-13731255D01*
X6324030Y-13685505D01*
X6306522Y-13643238D01*
X6298716Y-13635432D01*
X7304530Y-13635432D01*
X7304530Y-13654328D01*
X7311761Y-13671787D01*
X7325123Y-13685149D01*
X7342582Y-13692380D01*
X7361478Y-13692380D01*
X7378937Y-13685149D01*
X7392299Y-13671787D01*
X7399530Y-13654328D01*
X7399530Y-13635432D01*
X7717280Y-13635432D01*
X7717280Y-13654328D01*
X7724511Y-13671787D01*
X7737873Y-13685149D01*
X7755332Y-13692380D01*
X7774228Y-13692380D01*
X7791687Y-13685149D01*
X7805049Y-13671787D01*
X7812280Y-13654328D01*
X7812280Y-13635432D01*
X7805049Y-13617973D01*
X7791687Y-13604611D01*
X7774228Y-13597380D01*
X7755332Y-13597380D01*
X7737873Y-13604611D01*
X7724511Y-13617973D01*
X7717280Y-13635432D01*
X7399530Y-13635432D01*
X7392299Y-13617973D01*
X7378937Y-13604611D01*
X7361478Y-13597380D01*
X7342582Y-13597380D01*
X7325123Y-13604611D01*
X7311761Y-13617973D01*
X7304530Y-13635432D01*
X6298716Y-13635432D01*
X6274172Y-13610888D01*
X6231905Y-13593380D01*
X6186155Y-13593380D01*
X6143888Y-13610888D01*
X6111538Y-13643238D01*
X6094030Y-13685505D01*
X5894213Y-13685505D01*
X5733273Y-13497068D01*
X7013767Y-13497068D01*
X7013767Y-13515965D01*
X7020998Y-13533423D01*
X7033280Y-13545705D01*
X7024511Y-13554473D01*
X7017280Y-13571932D01*
X7017280Y-13590828D01*
X7024511Y-13608287D01*
X7037873Y-13621649D01*
X7055332Y-13628880D01*
X7074228Y-13628880D01*
X7091686Y-13621649D01*
X7105048Y-13608287D01*
X7112280Y-13590828D01*
X7112280Y-13571932D01*
X7105048Y-13554473D01*
X7092767Y-13542192D01*
X7101535Y-13533423D01*
X7108767Y-13515965D01*
X7108767Y-13497068D01*
X7101535Y-13479610D01*
X7088173Y-13466248D01*
X7070715Y-13459017D01*
X7051818Y-13459017D01*
X7034360Y-13466248D01*
X7020998Y-13479610D01*
X7013767Y-13497068D01*
X5733273Y-13497068D01*
X5712097Y-13472275D01*
X5681371Y-13432232D01*
X7641080Y-13432232D01*
X7641080Y-13451129D01*
X7648311Y-13468587D01*
X7661673Y-13481949D01*
X7679132Y-13489180D01*
X7698028Y-13489180D01*
X7715487Y-13481949D01*
X7728849Y-13468587D01*
X7736080Y-13451129D01*
X7736080Y-13432232D01*
X7728849Y-13414774D01*
X7720906Y-13406832D01*
X7999660Y-13406832D01*
X7999660Y-13425728D01*
X8006891Y-13443187D01*
X8020253Y-13456549D01*
X8037712Y-13463780D01*
X8056608Y-13463780D01*
X8074067Y-13456549D01*
X8087429Y-13443187D01*
X8094660Y-13425728D01*
X8094660Y-13406832D01*
X8087429Y-13389373D01*
X8074067Y-13376011D01*
X8056608Y-13368780D01*
X8037712Y-13368780D01*
X8020253Y-13376011D01*
X8006891Y-13389373D01*
X7999660Y-13406832D01*
X7720906Y-13406832D01*
X7715487Y-13401412D01*
X7698028Y-13394180D01*
X7679132Y-13394180D01*
X7661673Y-13401412D01*
X7648311Y-13414774D01*
X7641080Y-13432232D01*
X5681371Y-13432232D01*
X5536249Y-13243105D01*
X5525329Y-13227217D01*
X7614631Y-13227217D01*
X7614631Y-13246114D01*
X7621862Y-13263572D01*
X7635224Y-13276934D01*
X7652682Y-13284166D01*
X7671579Y-13284166D01*
X7689037Y-13276934D01*
X7702399Y-13263572D01*
X7709631Y-13246114D01*
X7709631Y-13227217D01*
X7706687Y-13220112D01*
X7947160Y-13220112D01*
X7947160Y-13239008D01*
X7954391Y-13256467D01*
X7967753Y-13269829D01*
X7985212Y-13277060D01*
X7999734Y-13277060D01*
X8091527Y-13368854D01*
X8093201Y-13371359D01*
X8097766Y-13374409D01*
X8103124Y-13377989D01*
X8114830Y-13380318D01*
X8117784Y-13379730D01*
X8646915Y-13379730D01*
X8648875Y-13381039D01*
X8657626Y-13382780D01*
X8660580Y-13383368D01*
X8663535Y-13382780D01*
X9444914Y-13382780D01*
X9446737Y-13384604D01*
X9448411Y-13387109D01*
X9456629Y-13392600D01*
X9458334Y-13393739D01*
X9470040Y-13396068D01*
X9472994Y-13395480D01*
X9484694Y-13395480D01*
X9467816Y-13398837D01*
X9432257Y-13422597D01*
X9408497Y-13458156D01*
X9400154Y-13500100D01*
X9408497Y-13542044D01*
X9432257Y-13577603D01*
X9467816Y-13601363D01*
X9499173Y-13607600D01*
X9520348Y-13607600D01*
X9551704Y-13601363D01*
X9587263Y-13577603D01*
X9611023Y-13542044D01*
X9619366Y-13500100D01*
X9654154Y-13500100D01*
X9662497Y-13542044D01*
X9686257Y-13577603D01*
X9721816Y-13601363D01*
X9753173Y-13607600D01*
X9774348Y-13607600D01*
X9805704Y-13601363D01*
X9841263Y-13577603D01*
X9865023Y-13542044D01*
X9873366Y-13500100D01*
X9873113Y-13498830D01*
X10087224Y-13498830D01*
X10095567Y-13540774D01*
X10119327Y-13576333D01*
X10154886Y-13600093D01*
X10186243Y-13606330D01*
X10207418Y-13606330D01*
X10238774Y-13600093D01*
X10274333Y-13576333D01*
X10298093Y-13540774D01*
X10306436Y-13498830D01*
X10298093Y-13456886D01*
X10274333Y-13421327D01*
X10238774Y-13397567D01*
X10207418Y-13391330D01*
X10186243Y-13391330D01*
X10154886Y-13397567D01*
X10119327Y-13421327D01*
X10095567Y-13456886D01*
X10087224Y-13498830D01*
X9873113Y-13498830D01*
X9865023Y-13458156D01*
X9841263Y-13422597D01*
X9805704Y-13398837D01*
X9774348Y-13392600D01*
X9753173Y-13392600D01*
X9721816Y-13398837D01*
X9686257Y-13422597D01*
X9662497Y-13458156D01*
X9654154Y-13500100D01*
X9619366Y-13500100D01*
X9611023Y-13458156D01*
X9587263Y-13422597D01*
X9551704Y-13398837D01*
X9534826Y-13395480D01*
X9641426Y-13395480D01*
X9644380Y-13396068D01*
X9647335Y-13395480D01*
X9656085Y-13393739D01*
X9666009Y-13387109D01*
X9667683Y-13384604D01*
X9702062Y-13350224D01*
X9702063Y-13350224D01*
X9711690Y-13340597D01*
X9721816Y-13347363D01*
X9753173Y-13353600D01*
X9774348Y-13353600D01*
X9805704Y-13347363D01*
X9841263Y-13323603D01*
X9865023Y-13288044D01*
X9873366Y-13246100D01*
X9873113Y-13244830D01*
X10087224Y-13244830D01*
X10095567Y-13286774D01*
X10119327Y-13322333D01*
X10154886Y-13346093D01*
X10186243Y-13352330D01*
X10207418Y-13352330D01*
X10238774Y-13346093D01*
X10274333Y-13322333D01*
X10298093Y-13286774D01*
X10306436Y-13244830D01*
X10298093Y-13202886D01*
X10274333Y-13167327D01*
X10238774Y-13143567D01*
X10207418Y-13137330D01*
X10186243Y-13137330D01*
X10154886Y-13143567D01*
X10119327Y-13167327D01*
X10095567Y-13202886D01*
X10087224Y-13244830D01*
X9873113Y-13244830D01*
X9865023Y-13204156D01*
X9841263Y-13168597D01*
X9805704Y-13144837D01*
X9774348Y-13138600D01*
X9753173Y-13138600D01*
X9721816Y-13144837D01*
X9686257Y-13168597D01*
X9662497Y-13204156D01*
X9654154Y-13246100D01*
X9662497Y-13288044D01*
X9669263Y-13298170D01*
X9659636Y-13307797D01*
X9659636Y-13307798D01*
X9631954Y-13335480D01*
X9569488Y-13335480D01*
X9587263Y-13323603D01*
X9611023Y-13288044D01*
X9619366Y-13246100D01*
X9611023Y-13204156D01*
X9587263Y-13168597D01*
X9551704Y-13144837D01*
X9520348Y-13138600D01*
X9499173Y-13138600D01*
X9467816Y-13144837D01*
X9432257Y-13168597D01*
X9408497Y-13204156D01*
X9400154Y-13246100D01*
X9408497Y-13288044D01*
X9431707Y-13322780D01*
X8671195Y-13322780D01*
X8669236Y-13321471D01*
X8660485Y-13319730D01*
X8657530Y-13319142D01*
X8654576Y-13319730D01*
X8127256Y-13319730D01*
X8042160Y-13234634D01*
X8042160Y-13220112D01*
X8035334Y-13203632D01*
X8052160Y-13203632D01*
X8052160Y-13222528D01*
X8059391Y-13239987D01*
X8072753Y-13253349D01*
X8090212Y-13260580D01*
X8109108Y-13260580D01*
X8126567Y-13253349D01*
X8139929Y-13239987D01*
X8147160Y-13222528D01*
X8147160Y-13203632D01*
X8139929Y-13186173D01*
X8126567Y-13172811D01*
X8109108Y-13165580D01*
X8090212Y-13165580D01*
X8072753Y-13172811D01*
X8059391Y-13186173D01*
X8052160Y-13203632D01*
X8035334Y-13203632D01*
X8034929Y-13202653D01*
X8021567Y-13189291D01*
X8004108Y-13182060D01*
X7985212Y-13182060D01*
X7967753Y-13189291D01*
X7954391Y-13202653D01*
X7947160Y-13220112D01*
X7706687Y-13220112D01*
X7702399Y-13209759D01*
X7689037Y-13196397D01*
X7671579Y-13189166D01*
X7652682Y-13189166D01*
X7635224Y-13196397D01*
X7621862Y-13209759D01*
X7614631Y-13227217D01*
X5525329Y-13227217D01*
X5373828Y-13006782D01*
X6815580Y-13006782D01*
X6815580Y-13025678D01*
X6822811Y-13043137D01*
X6836173Y-13056499D01*
X6853632Y-13063730D01*
X6872528Y-13063730D01*
X6889987Y-13056499D01*
X6903349Y-13043137D01*
X6910580Y-13025678D01*
X6910580Y-13006782D01*
X6903349Y-12989323D01*
X6889987Y-12975961D01*
X6872528Y-12968730D01*
X6853632Y-12968730D01*
X6836173Y-12975961D01*
X6822811Y-12989323D01*
X6815580Y-13006782D01*
X5373828Y-13006782D01*
X5372635Y-13005046D01*
X5237504Y-12784532D01*
X6815580Y-12784532D01*
X6815580Y-12803428D01*
X6822811Y-12820887D01*
X6836173Y-12834249D01*
X6853632Y-12841480D01*
X6872528Y-12841480D01*
X6889987Y-12834249D01*
X6903349Y-12820887D01*
X6910580Y-12803428D01*
X6910580Y-12784532D01*
X6903349Y-12767073D01*
X6889987Y-12753711D01*
X6872528Y-12746480D01*
X6853632Y-12746480D01*
X6836173Y-12753711D01*
X6822811Y-12767073D01*
X6815580Y-12784532D01*
X5237504Y-12784532D01*
X5221705Y-12758750D01*
X5102227Y-12538698D01*
X5357469Y-12538698D01*
X5357469Y-12611301D01*
X5385253Y-12678378D01*
X5436591Y-12729716D01*
X5503668Y-12757500D01*
X5576271Y-12757500D01*
X5643347Y-12729716D01*
X5694685Y-12678378D01*
X5722469Y-12611301D01*
X5722469Y-12538698D01*
X5694685Y-12471622D01*
X5643347Y-12420284D01*
X5576271Y-12392500D01*
X5503668Y-12392500D01*
X5436591Y-12420284D01*
X5385253Y-12471622D01*
X5357469Y-12538698D01*
X5102227Y-12538698D01*
X5083872Y-12504893D01*
X4959513Y-12244169D01*
X4862447Y-12009832D01*
X6244080Y-12009832D01*
X6244080Y-12028728D01*
X6251311Y-12046187D01*
X6264673Y-12059549D01*
X6282132Y-12066780D01*
X6301028Y-12066780D01*
X6318487Y-12059549D01*
X6331849Y-12046187D01*
X6339080Y-12028728D01*
X6339080Y-12009832D01*
X6331849Y-11992373D01*
X6318487Y-11979011D01*
X6301028Y-11971780D01*
X6282132Y-11971780D01*
X6264673Y-11979011D01*
X6251311Y-11992373D01*
X6244080Y-12009832D01*
X4862447Y-12009832D01*
X4848970Y-11977295D01*
X4806524Y-11857432D01*
X6269480Y-11857432D01*
X6269480Y-11876328D01*
X6276711Y-11893787D01*
X6290073Y-11907149D01*
X6307532Y-11914380D01*
X6326428Y-11914380D01*
X6343887Y-11907149D01*
X6357249Y-11893787D01*
X6364480Y-11876328D01*
X6364480Y-11857432D01*
X6357249Y-11839973D01*
X6343887Y-11826611D01*
X6326428Y-11819380D01*
X6307532Y-11819380D01*
X6290073Y-11826611D01*
X6276711Y-11839973D01*
X6269480Y-11857432D01*
X4806524Y-11857432D01*
X4752546Y-11705001D01*
X4703650Y-11539932D01*
X5964680Y-11539932D01*
X5964680Y-11558828D01*
X5971911Y-11576287D01*
X5985273Y-11589649D01*
X6002732Y-11596880D01*
X6021628Y-11596880D01*
X6039087Y-11589649D01*
X6052449Y-11576287D01*
X6059680Y-11558828D01*
X6059680Y-11539932D01*
X6052449Y-11522473D01*
X6039087Y-11509111D01*
X6021628Y-11501880D01*
X6002732Y-11501880D01*
X5985273Y-11509111D01*
X5971911Y-11522473D01*
X5964680Y-11539932D01*
X4703650Y-11539932D01*
X4670504Y-11428034D01*
X4603071Y-11147153D01*
X4550430Y-10863127D01*
X4545901Y-10828732D01*
X5977380Y-10828732D01*
X5977380Y-10847628D01*
X5984611Y-10865087D01*
X5997973Y-10878449D01*
X6015432Y-10885680D01*
X6034328Y-10885680D01*
X6051787Y-10878449D01*
X6065149Y-10865087D01*
X6072380Y-10847628D01*
X6072380Y-10828732D01*
X6065149Y-10811273D01*
X6051787Y-10797911D01*
X6034328Y-10790680D01*
X6015432Y-10790680D01*
X5997973Y-10797911D01*
X5984611Y-10811273D01*
X5977380Y-10828732D01*
X4545901Y-10828732D01*
X4530854Y-10714432D01*
X5977380Y-10714432D01*
X5977380Y-10733328D01*
X5984611Y-10750787D01*
X5997973Y-10764149D01*
X6015432Y-10771380D01*
X6034328Y-10771380D01*
X6051787Y-10764149D01*
X6065149Y-10750787D01*
X6072380Y-10733328D01*
X6072380Y-10714432D01*
X6065149Y-10696973D01*
X6051787Y-10683611D01*
X6034328Y-10676380D01*
X6015432Y-10676380D01*
X5997973Y-10683611D01*
X5984611Y-10696973D01*
X5977380Y-10714432D01*
X4530854Y-10714432D01*
X4515806Y-10600132D01*
X5977380Y-10600132D01*
X5977380Y-10619028D01*
X5984611Y-10636487D01*
X5997973Y-10649849D01*
X6015432Y-10657080D01*
X6034328Y-10657080D01*
X6051787Y-10649849D01*
X6065149Y-10636487D01*
X6072380Y-10619028D01*
X6072380Y-10600132D01*
X6091680Y-10600132D01*
X6091680Y-10619028D01*
X6098911Y-10636487D01*
X6112273Y-10649849D01*
X6129732Y-10657080D01*
X6148628Y-10657080D01*
X6166087Y-10649849D01*
X6176530Y-10639405D01*
X6176530Y-10694055D01*
X6166087Y-10683611D01*
X6148628Y-10676380D01*
X6129732Y-10676380D01*
X6112273Y-10683611D01*
X6098911Y-10696973D01*
X6091680Y-10714432D01*
X6091680Y-10733328D01*
X6098911Y-10750787D01*
X6112273Y-10764149D01*
X6129732Y-10771380D01*
X6148628Y-10771380D01*
X6166087Y-10764149D01*
X6176530Y-10753705D01*
X6176530Y-10808355D01*
X6166087Y-10797911D01*
X6148628Y-10790680D01*
X6129732Y-10790680D01*
X6112273Y-10797911D01*
X6098911Y-10811273D01*
X6091680Y-10828732D01*
X6091680Y-10847628D01*
X6098911Y-10865087D01*
X6112273Y-10878449D01*
X6129732Y-10885680D01*
X6148628Y-10885680D01*
X6166087Y-10878449D01*
X6176530Y-10868005D01*
X6176530Y-11194397D01*
X6167677Y-11190730D01*
X6148781Y-11190730D01*
X6131322Y-11197961D01*
X6117960Y-11211323D01*
X6110729Y-11228782D01*
X6110729Y-11247678D01*
X6117960Y-11265137D01*
X6131322Y-11278499D01*
X6148781Y-11285730D01*
X6160524Y-11285730D01*
X6155180Y-11298632D01*
X6155180Y-11317529D01*
X6162411Y-11334987D01*
X6175773Y-11348349D01*
X6193232Y-11355580D01*
X6212128Y-11355580D01*
X6229587Y-11348349D01*
X6242949Y-11334987D01*
X6250180Y-11317529D01*
X6250180Y-11298632D01*
X6242949Y-11281174D01*
X6239841Y-11278066D01*
X6241417Y-11270142D01*
X6258835Y-11277357D01*
X6277732Y-11277357D01*
X6278110Y-11277200D01*
X6271260Y-11293739D01*
X6271260Y-11312636D01*
X6278491Y-11330094D01*
X6291853Y-11343456D01*
X6309312Y-11350687D01*
X6328208Y-11350687D01*
X6345666Y-11343456D01*
X6359028Y-11330094D01*
X6366260Y-11312636D01*
X6366260Y-11293739D01*
X6360001Y-11278630D01*
X6361813Y-11279380D01*
X6380709Y-11279380D01*
X6398167Y-11272149D01*
X6411529Y-11258787D01*
X6418761Y-11241328D01*
X6418761Y-11222432D01*
X6411529Y-11204973D01*
X6398167Y-11191611D01*
X6380709Y-11184380D01*
X6361813Y-11184380D01*
X6344354Y-11191611D01*
X6330992Y-11204973D01*
X6323761Y-11222432D01*
X6323761Y-11241328D01*
X6330019Y-11256438D01*
X6328208Y-11255687D01*
X6309312Y-11255687D01*
X6308933Y-11255844D01*
X6315784Y-11239305D01*
X6315784Y-11220409D01*
X6308552Y-11202950D01*
X6295190Y-11189588D01*
X6277732Y-11182357D01*
X6258835Y-11182357D01*
X6241530Y-11189525D01*
X6241530Y-10828732D01*
X6345680Y-10828732D01*
X6345680Y-10847628D01*
X6352911Y-10865087D01*
X6366273Y-10878449D01*
X6383732Y-10885680D01*
X6402628Y-10885680D01*
X6420087Y-10878449D01*
X6433449Y-10865087D01*
X6440680Y-10847628D01*
X6440680Y-10828732D01*
X6433449Y-10811273D01*
X6420087Y-10797911D01*
X6402628Y-10790680D01*
X6383732Y-10790680D01*
X6366273Y-10797911D01*
X6352911Y-10811273D01*
X6345680Y-10828732D01*
X6241530Y-10828732D01*
X6241530Y-10727132D01*
X6345680Y-10727132D01*
X6345680Y-10746028D01*
X6352911Y-10763487D01*
X6366273Y-10776849D01*
X6383732Y-10784080D01*
X6402628Y-10784080D01*
X6420087Y-10776849D01*
X6433449Y-10763487D01*
X6440680Y-10746028D01*
X6440680Y-10727132D01*
X6433449Y-10709673D01*
X6420087Y-10696311D01*
X6402628Y-10689080D01*
X6383732Y-10689080D01*
X6366273Y-10696311D01*
X6352911Y-10709673D01*
X6345680Y-10727132D01*
X6241530Y-10727132D01*
X6241530Y-10625532D01*
X6345680Y-10625532D01*
X6345680Y-10644428D01*
X6352911Y-10661887D01*
X6366273Y-10675249D01*
X6383732Y-10682480D01*
X6402628Y-10682480D01*
X6420087Y-10675249D01*
X6433449Y-10661887D01*
X6440680Y-10644428D01*
X6440680Y-10625532D01*
X6433449Y-10608073D01*
X6420087Y-10594711D01*
X6402628Y-10587480D01*
X6383732Y-10587480D01*
X6366273Y-10594711D01*
X6352911Y-10608073D01*
X6345680Y-10625532D01*
X6241530Y-10625532D01*
X6241530Y-8267191D01*
X6296391Y-8212330D01*
X6307378Y-8212330D01*
X6324836Y-8205099D01*
X6338198Y-8191737D01*
X6345430Y-8174278D01*
X6345430Y-8155382D01*
X6338198Y-8137923D01*
X6324836Y-8124561D01*
X6307378Y-8117330D01*
X6288481Y-8117330D01*
X6271023Y-8124561D01*
X6257661Y-8137923D01*
X6250430Y-8155382D01*
X6250430Y-8166368D01*
X6188313Y-8228485D01*
X6185599Y-8230298D01*
X6179299Y-8239727D01*
X6178416Y-8241049D01*
X6175893Y-8253730D01*
X6176530Y-8256930D01*
X6176530Y-10579755D01*
X6166087Y-10569311D01*
X6148628Y-10562080D01*
X6129732Y-10562080D01*
X6112273Y-10569311D01*
X6098911Y-10582673D01*
X6091680Y-10600132D01*
X6072380Y-10600132D01*
X6065149Y-10582673D01*
X6051787Y-10569311D01*
X6034328Y-10562080D01*
X6015432Y-10562080D01*
X5997973Y-10569311D01*
X5984611Y-10582673D01*
X5977380Y-10600132D01*
X4515806Y-10600132D01*
X4512725Y-10576736D01*
X4490062Y-10288764D01*
X4487906Y-10206432D01*
X4554980Y-10206432D01*
X4554980Y-10225328D01*
X4562211Y-10242787D01*
X4575573Y-10256149D01*
X4593032Y-10263380D01*
X4611928Y-10263380D01*
X4629387Y-10256149D01*
X4642749Y-10242787D01*
X4646930Y-10232692D01*
X4651111Y-10242787D01*
X4664473Y-10256149D01*
X4681932Y-10263380D01*
X4700828Y-10263380D01*
X4718287Y-10256149D01*
X4731649Y-10242787D01*
X4735830Y-10232692D01*
X4740011Y-10242787D01*
X4753373Y-10256149D01*
X4770832Y-10263380D01*
X4789728Y-10263380D01*
X4807187Y-10256149D01*
X4820549Y-10242787D01*
X4827780Y-10225328D01*
X4827780Y-10206432D01*
X4820549Y-10188973D01*
X4807187Y-10175611D01*
X4789728Y-10168380D01*
X4770832Y-10168380D01*
X4753373Y-10175611D01*
X4740011Y-10188973D01*
X4735830Y-10199068D01*
X4731649Y-10188973D01*
X4718287Y-10175611D01*
X4700828Y-10168380D01*
X4681932Y-10168380D01*
X4664473Y-10175611D01*
X4651111Y-10188973D01*
X4646930Y-10199068D01*
X4642749Y-10188973D01*
X4629387Y-10175611D01*
X4611928Y-10168380D01*
X4593032Y-10168380D01*
X4575573Y-10175611D01*
X4562211Y-10188973D01*
X4554980Y-10206432D01*
X4487906Y-10206432D01*
X4482500Y-10000000D01*
X4484078Y-9939732D01*
X5634480Y-9939732D01*
X5634480Y-9958628D01*
X5641711Y-9976087D01*
X5655073Y-9989449D01*
X5665168Y-9993630D01*
X5655073Y-9997811D01*
X5641711Y-10011173D01*
X5634480Y-10028632D01*
X5634480Y-10047528D01*
X5641711Y-10064987D01*
X5655073Y-10078349D01*
X5665168Y-10082530D01*
X5655073Y-10086711D01*
X5641711Y-10100073D01*
X5634480Y-10117532D01*
X5634480Y-10136428D01*
X5641711Y-10153887D01*
X5655073Y-10167249D01*
X5672532Y-10174480D01*
X5691428Y-10174480D01*
X5708887Y-10167249D01*
X5722249Y-10153887D01*
X5729480Y-10136428D01*
X5729480Y-10117532D01*
X5722249Y-10100073D01*
X5708887Y-10086711D01*
X5698792Y-10082530D01*
X5708887Y-10078349D01*
X5722249Y-10064987D01*
X5729480Y-10047528D01*
X5729480Y-10028632D01*
X5722249Y-10011173D01*
X5708887Y-9997811D01*
X5698792Y-9993630D01*
X5708887Y-9989449D01*
X5722249Y-9976087D01*
X5729480Y-9958628D01*
X5729480Y-9939732D01*
X5722249Y-9922273D01*
X5708887Y-9908911D01*
X5691428Y-9901680D01*
X5672532Y-9901680D01*
X5655073Y-9908911D01*
X5641711Y-9922273D01*
X5634480Y-9939732D01*
X4484078Y-9939732D01*
X4490062Y-9711236D01*
X4512725Y-9423264D01*
X4550430Y-9136873D01*
X4603071Y-8852847D01*
X4670504Y-8571966D01*
X4745960Y-8317230D01*
X4969124Y-8317230D01*
X4977467Y-8359174D01*
X5001227Y-8394733D01*
X5036786Y-8418493D01*
X5068143Y-8424730D01*
X5089318Y-8424730D01*
X5120674Y-8418493D01*
X5156233Y-8394733D01*
X5179993Y-8359174D01*
X5185477Y-8331605D01*
X5220230Y-8331605D01*
X5220230Y-8407700D01*
X5224417Y-8417808D01*
X5232153Y-8425543D01*
X5242260Y-8429730D01*
X5318355Y-8429730D01*
X5325230Y-8422855D01*
X5325230Y-8324730D01*
X5340230Y-8324730D01*
X5340230Y-8422855D01*
X5347105Y-8429730D01*
X5423200Y-8429730D01*
X5433308Y-8425543D01*
X5441043Y-8417808D01*
X5445230Y-8407700D01*
X5445230Y-8331605D01*
X5438355Y-8324730D01*
X5340230Y-8324730D01*
X5325230Y-8324730D01*
X5227105Y-8324730D01*
X5220230Y-8331605D01*
X5185477Y-8331605D01*
X5188336Y-8317230D01*
X5179993Y-8275286D01*
X5156233Y-8239727D01*
X5136827Y-8226760D01*
X5220230Y-8226760D01*
X5220230Y-8302855D01*
X5227105Y-8309730D01*
X5325230Y-8309730D01*
X5325230Y-8211605D01*
X5340230Y-8211605D01*
X5340230Y-8309730D01*
X5438355Y-8309730D01*
X5445230Y-8302855D01*
X5445230Y-8260233D01*
X5891731Y-8260233D01*
X5891731Y-8279129D01*
X5898962Y-8296588D01*
X5912324Y-8309950D01*
X5929783Y-8317181D01*
X5948679Y-8317181D01*
X5966138Y-8309950D01*
X5979500Y-8296588D01*
X5986731Y-8279129D01*
X5986731Y-8260233D01*
X5979500Y-8242774D01*
X5966138Y-8229412D01*
X5948679Y-8222181D01*
X5929783Y-8222181D01*
X5912324Y-8229412D01*
X5898962Y-8242774D01*
X5891731Y-8260233D01*
X5445230Y-8260233D01*
X5445230Y-8226760D01*
X5441043Y-8216652D01*
X5433308Y-8208917D01*
X5423200Y-8204730D01*
X5347105Y-8204730D01*
X5340230Y-8211605D01*
X5325230Y-8211605D01*
X5318355Y-8204730D01*
X5242260Y-8204730D01*
X5232153Y-8208917D01*
X5224417Y-8216652D01*
X5220230Y-8226760D01*
X5136827Y-8226760D01*
X5120674Y-8215967D01*
X5089318Y-8209730D01*
X5068143Y-8209730D01*
X5036786Y-8215967D01*
X5001227Y-8239727D01*
X4977467Y-8275286D01*
X4969124Y-8317230D01*
X4745960Y-8317230D01*
X4752546Y-8294999D01*
X4848970Y-8022705D01*
X4959513Y-7755831D01*
X5083872Y-7495107D01*
X5221705Y-7241250D01*
X5372635Y-6994954D01*
X5536249Y-6756895D01*
X5712097Y-6527725D01*
X5899698Y-6308072D01*
X5993686Y-6209030D01*
X6021430Y-6209030D01*
X6021430Y-6939280D01*
X6023143Y-6947890D01*
X6028020Y-6955190D01*
X6035320Y-6960067D01*
X6043930Y-6961780D01*
X6065880Y-6961780D01*
X6065880Y-7415530D01*
X6067593Y-7424140D01*
X6070325Y-7428230D01*
X6067593Y-7432320D01*
X6065880Y-7440930D01*
X6065880Y-7866380D01*
X6067593Y-7874990D01*
X6072470Y-7882290D01*
X6079770Y-7887167D01*
X6088380Y-7888880D01*
X6497680Y-7888880D01*
X6497680Y-8298180D01*
X6499393Y-8306790D01*
X6504270Y-8314090D01*
X6511570Y-8318967D01*
X6520180Y-8320680D01*
X6541618Y-8320680D01*
X6444462Y-8417836D01*
X6441748Y-8419650D01*
X6437810Y-8425543D01*
X6434565Y-8430400D01*
X6432042Y-8443081D01*
X6432679Y-8446282D01*
X6432679Y-8805404D01*
X6424910Y-8813172D01*
X6417679Y-8830631D01*
X6417679Y-8849527D01*
X6424910Y-8866986D01*
X6438272Y-8880348D01*
X6455731Y-8887579D01*
X6474627Y-8887579D01*
X6487680Y-8882172D01*
X6487680Y-8907018D01*
X6343042Y-9051656D01*
X6340328Y-9053469D01*
X6333145Y-9064220D01*
X6333145Y-9064220D01*
X6330623Y-9076901D01*
X6331259Y-9080102D01*
X6331259Y-10139223D01*
X6331259Y-10139224D01*
X6331259Y-10143105D01*
X6323491Y-10150873D01*
X6316259Y-10168332D01*
X6316259Y-10187228D01*
X6323491Y-10204687D01*
X6336853Y-10218049D01*
X6354311Y-10225280D01*
X6373208Y-10225280D01*
X6390666Y-10218049D01*
X6404028Y-10204687D01*
X6411259Y-10187228D01*
X6411259Y-10168332D01*
X6409343Y-10163705D01*
X6421880Y-10176242D01*
X6421880Y-10187228D01*
X6429111Y-10204687D01*
X6442473Y-10218049D01*
X6459932Y-10225280D01*
X6478828Y-10225280D01*
X6487680Y-10221614D01*
X6487680Y-11534869D01*
X6482546Y-11522475D01*
X6469184Y-11509113D01*
X6451726Y-11501881D01*
X6432829Y-11501881D01*
X6415371Y-11509113D01*
X6402009Y-11522475D01*
X6394778Y-11539933D01*
X6394778Y-11558830D01*
X6402009Y-11576288D01*
X6415371Y-11589650D01*
X6432829Y-11596881D01*
X6451726Y-11596881D01*
X6469184Y-11589650D01*
X6482546Y-11576288D01*
X6487680Y-11563894D01*
X6487680Y-12333579D01*
X6487043Y-12336780D01*
X6488606Y-12344637D01*
X6489566Y-12349461D01*
X6496749Y-12360211D01*
X6499463Y-12362025D01*
X6927828Y-12790390D01*
X6927828Y-12805477D01*
X6927191Y-12808678D01*
X6927828Y-12811878D01*
X6929713Y-12821358D01*
X6936896Y-12832109D01*
X6939611Y-12833922D01*
X7082262Y-12976574D01*
X7082262Y-12990706D01*
X7074493Y-12998474D01*
X7067262Y-13015933D01*
X7067262Y-13034829D01*
X7074493Y-13052288D01*
X7087855Y-13065650D01*
X7105314Y-13072881D01*
X7114494Y-13072881D01*
X7107680Y-13089332D01*
X7107680Y-13108228D01*
X7114911Y-13125687D01*
X7128273Y-13139049D01*
X7129697Y-13139638D01*
X7121261Y-13148073D01*
X7114030Y-13165532D01*
X7114030Y-13184428D01*
X7121261Y-13201887D01*
X7134623Y-13215249D01*
X7152082Y-13222480D01*
X7170978Y-13222480D01*
X7188437Y-13215249D01*
X7201799Y-13201887D01*
X7209030Y-13184428D01*
X7209030Y-13173442D01*
X7245347Y-13137124D01*
X7248061Y-13135311D01*
X7255244Y-13124561D01*
X7257130Y-13115081D01*
X7257130Y-13115081D01*
X7257766Y-13111880D01*
X7257130Y-13108680D01*
X7257130Y-12682932D01*
X7304530Y-12682932D01*
X7304530Y-12701828D01*
X7311761Y-12719287D01*
X7325123Y-12732649D01*
X7342582Y-12739880D01*
X7361478Y-12739880D01*
X7376680Y-12733583D01*
X7376680Y-12837973D01*
X7376680Y-12837974D01*
X7376680Y-12841855D01*
X7368911Y-12849623D01*
X7361680Y-12867082D01*
X7361680Y-12885978D01*
X7368911Y-12903437D01*
X7382273Y-12916799D01*
X7399732Y-12924030D01*
X7418628Y-12924030D01*
X7436087Y-12916799D01*
X7449449Y-12903437D01*
X7456680Y-12885978D01*
X7456680Y-12867082D01*
X7449449Y-12849623D01*
X7441680Y-12841855D01*
X7441680Y-12371782D01*
X7647430Y-12371782D01*
X7647430Y-12390678D01*
X7654661Y-12408137D01*
X7668023Y-12421499D01*
X7685482Y-12428730D01*
X7704378Y-12428730D01*
X7721837Y-12421499D01*
X7735199Y-12408137D01*
X7742430Y-12390678D01*
X7742430Y-12371782D01*
X7735199Y-12354323D01*
X7721837Y-12340961D01*
X7704378Y-12333730D01*
X7685482Y-12333730D01*
X7668023Y-12340961D01*
X7654661Y-12354323D01*
X7647430Y-12371782D01*
X7441680Y-12371782D01*
X7441680Y-12350242D01*
X7528090Y-12263832D01*
X7549660Y-12263832D01*
X7549660Y-12282728D01*
X7556891Y-12300187D01*
X7570253Y-12313549D01*
X7587712Y-12320780D01*
X7606608Y-12320780D01*
X7624067Y-12313549D01*
X7637429Y-12300187D01*
X7644660Y-12282728D01*
X7644660Y-12264962D01*
X7706281Y-12264962D01*
X7706281Y-12283858D01*
X7713512Y-12301317D01*
X7726874Y-12314679D01*
X7744333Y-12321910D01*
X7761729Y-12321910D01*
X7761729Y-12327178D01*
X7768960Y-12344637D01*
X7782322Y-12357999D01*
X7799781Y-12365230D01*
X7818677Y-12365230D01*
X7836136Y-12357999D01*
X7849498Y-12344637D01*
X7856729Y-12327178D01*
X7856729Y-12308282D01*
X7849498Y-12290823D01*
X7836136Y-12277461D01*
X7818677Y-12270230D01*
X7801281Y-12270230D01*
X7801281Y-12264962D01*
X7798368Y-12257928D01*
X7857124Y-12257928D01*
X7857124Y-12276825D01*
X7864355Y-12294283D01*
X7877717Y-12307645D01*
X7895176Y-12314877D01*
X7914072Y-12314877D01*
X7931531Y-12307645D01*
X7944893Y-12294283D01*
X7952124Y-12276825D01*
X7952124Y-12257928D01*
X7944893Y-12240470D01*
X7931531Y-12227108D01*
X7914072Y-12219877D01*
X7895176Y-12219877D01*
X7877717Y-12227108D01*
X7864355Y-12240470D01*
X7857124Y-12257928D01*
X7798368Y-12257928D01*
X7794050Y-12247504D01*
X7780688Y-12234142D01*
X7763229Y-12226910D01*
X7744333Y-12226910D01*
X7726874Y-12234142D01*
X7713512Y-12247504D01*
X7706281Y-12264962D01*
X7644660Y-12264962D01*
X7644660Y-12263832D01*
X7637429Y-12246373D01*
X7624067Y-12233011D01*
X7606608Y-12225780D01*
X7587712Y-12225780D01*
X7570253Y-12233011D01*
X7556891Y-12246373D01*
X7549660Y-12263832D01*
X7528090Y-12263832D01*
X7563248Y-12228674D01*
X7565961Y-12226861D01*
X7567774Y-12224148D01*
X7574124Y-12217798D01*
X7579494Y-12209761D01*
X7581985Y-12197236D01*
X7646700Y-12132521D01*
X7646701Y-12132521D01*
X7649918Y-12129304D01*
X7660904Y-12129304D01*
X7678363Y-12122072D01*
X7691725Y-12108710D01*
X7698956Y-12091252D01*
X7698956Y-12072356D01*
X7691725Y-12054897D01*
X7678363Y-12041535D01*
X7660904Y-12034304D01*
X7642008Y-12034304D01*
X7624549Y-12041535D01*
X7611187Y-12054897D01*
X7603956Y-12072356D01*
X7603956Y-12083342D01*
X7600739Y-12086559D01*
X7600738Y-12086559D01*
X7596380Y-12090918D01*
X7596380Y-12073332D01*
X7589149Y-12055874D01*
X7575787Y-12042512D01*
X7558328Y-12035281D01*
X7539432Y-12035281D01*
X7521973Y-12042512D01*
X7508611Y-12055874D01*
X7501380Y-12073332D01*
X7501380Y-12092229D01*
X7508611Y-12109687D01*
X7521973Y-12123049D01*
X7539432Y-12130281D01*
X7557017Y-12130281D01*
X7521813Y-12165486D01*
X7519099Y-12167299D01*
X7511916Y-12178049D01*
X7510652Y-12184399D01*
X7509424Y-12190574D01*
X7388463Y-12311535D01*
X7385749Y-12313349D01*
X7378566Y-12324099D01*
X7378566Y-12324099D01*
X7376043Y-12336780D01*
X7376680Y-12339981D01*
X7376680Y-12651177D01*
X7361478Y-12644880D01*
X7342582Y-12644880D01*
X7325123Y-12652111D01*
X7311761Y-12665473D01*
X7304530Y-12682932D01*
X7257130Y-12682932D01*
X7257130Y-9450331D01*
X7257767Y-9447130D01*
X7255244Y-9434449D01*
X7254050Y-9432662D01*
X7248061Y-9423699D01*
X7245347Y-9421886D01*
X7113780Y-9290318D01*
X7113780Y-9279332D01*
X7106549Y-9261873D01*
X7093187Y-9248511D01*
X7075728Y-9241280D01*
X7056832Y-9241280D01*
X7039373Y-9248511D01*
X7026011Y-9261873D01*
X7018780Y-9279332D01*
X7018780Y-9298228D01*
X7026011Y-9315687D01*
X7039373Y-9329049D01*
X7056832Y-9336280D01*
X7067818Y-9336280D01*
X7192130Y-9460592D01*
X7192130Y-10559562D01*
X7182879Y-10555730D01*
X7163983Y-10555730D01*
X7146524Y-10562961D01*
X7133162Y-10576323D01*
X7125931Y-10593782D01*
X7125931Y-10612678D01*
X7133162Y-10630137D01*
X7146524Y-10643499D01*
X7163983Y-10650730D01*
X7182879Y-10650730D01*
X7192130Y-10646898D01*
X7192130Y-10673862D01*
X7182879Y-10670030D01*
X7163983Y-10670030D01*
X7146524Y-10677261D01*
X7133162Y-10690623D01*
X7125931Y-10708082D01*
X7125931Y-10726978D01*
X7133162Y-10744437D01*
X7146524Y-10757799D01*
X7163983Y-10765030D01*
X7182879Y-10765030D01*
X7192130Y-10761198D01*
X7192130Y-10788162D01*
X7182879Y-10784330D01*
X7163983Y-10784330D01*
X7146524Y-10791561D01*
X7133162Y-10804923D01*
X7125931Y-10822382D01*
X7125931Y-10841278D01*
X7133162Y-10858737D01*
X7146524Y-10872099D01*
X7163983Y-10879330D01*
X7182879Y-10879330D01*
X7192130Y-10875498D01*
X7192130Y-12423524D01*
X7188884Y-12415687D01*
X7175522Y-12402325D01*
X7158064Y-12395094D01*
X7139167Y-12395094D01*
X7121709Y-12402325D01*
X7109555Y-12414479D01*
X7099537Y-12404461D01*
X7082078Y-12397230D01*
X7063182Y-12397230D01*
X7045724Y-12404461D01*
X7032362Y-12417823D01*
X7025130Y-12435282D01*
X7025130Y-12454178D01*
X7032362Y-12471637D01*
X7045724Y-12484999D01*
X7063182Y-12492230D01*
X7082078Y-12492230D01*
X7099537Y-12484999D01*
X7111691Y-12472844D01*
X7121709Y-12482862D01*
X7139167Y-12490094D01*
X7158064Y-12490094D01*
X7175522Y-12482862D01*
X7188884Y-12469500D01*
X7192130Y-12461664D01*
X7192130Y-12945019D01*
X7027829Y-12780718D01*
X7027829Y-12760002D01*
X7028465Y-12756801D01*
X7025943Y-12744120D01*
X7020573Y-12736083D01*
X7018760Y-12733370D01*
X7016046Y-12731557D01*
X6776921Y-12492432D01*
X6815580Y-12492432D01*
X6815580Y-12511328D01*
X6822811Y-12528787D01*
X6836173Y-12542149D01*
X6853632Y-12549380D01*
X6872528Y-12549380D01*
X6889986Y-12542149D01*
X6903348Y-12528787D01*
X6910580Y-12511328D01*
X6910580Y-12492432D01*
X6903348Y-12474973D01*
X6889986Y-12461611D01*
X6872528Y-12454380D01*
X6853632Y-12454380D01*
X6836173Y-12461611D01*
X6822811Y-12474973D01*
X6815580Y-12492432D01*
X6776921Y-12492432D01*
X6603480Y-12318990D01*
X6603480Y-11216082D01*
X6618729Y-11216082D01*
X6618729Y-11234978D01*
X6625961Y-11252437D01*
X6639323Y-11265799D01*
X6656781Y-11273030D01*
X6671472Y-11273030D01*
X6668759Y-11279582D01*
X6668759Y-11298478D01*
X6675990Y-11315937D01*
X6689352Y-11329299D01*
X6706810Y-11336530D01*
X6725707Y-11336530D01*
X6743165Y-11329299D01*
X6756527Y-11315937D01*
X6763759Y-11298478D01*
X6763759Y-11279582D01*
X6761045Y-11273030D01*
X6764864Y-11273030D01*
X6764780Y-11273233D01*
X6764780Y-11292129D01*
X6772011Y-11309588D01*
X6785373Y-11322950D01*
X6802832Y-11330181D01*
X6821728Y-11330181D01*
X6839187Y-11322950D01*
X6852549Y-11309588D01*
X6859780Y-11292129D01*
X6859780Y-11273233D01*
X6857348Y-11267361D01*
X6868811Y-11267361D01*
X6866380Y-11273232D01*
X6866380Y-11292128D01*
X6873611Y-11309587D01*
X6886973Y-11322949D01*
X6904432Y-11330180D01*
X6923328Y-11330180D01*
X6940787Y-11322949D01*
X6954149Y-11309587D01*
X6961380Y-11292128D01*
X6961380Y-11279380D01*
X6974128Y-11279380D01*
X6991587Y-11272149D01*
X7004949Y-11258787D01*
X7012180Y-11241328D01*
X7012180Y-11222432D01*
X7004949Y-11204973D01*
X6991587Y-11191611D01*
X6974128Y-11184380D01*
X6955232Y-11184380D01*
X6937773Y-11191611D01*
X6924411Y-11204973D01*
X6917180Y-11222432D01*
X6917180Y-11235180D01*
X6908828Y-11235180D01*
X6911260Y-11229310D01*
X6911260Y-11210413D01*
X6904029Y-11192955D01*
X6890667Y-11179593D01*
X6873208Y-11172361D01*
X6854312Y-11172361D01*
X6836853Y-11179593D01*
X6823491Y-11192955D01*
X6816260Y-11210413D01*
X6816260Y-11229310D01*
X6818692Y-11235181D01*
X6811176Y-11235181D01*
X6811260Y-11234978D01*
X6811260Y-11216082D01*
X6804028Y-11198623D01*
X6790666Y-11185261D01*
X6773208Y-11178030D01*
X6754311Y-11178030D01*
X6736853Y-11185261D01*
X6723491Y-11198623D01*
X6716260Y-11216082D01*
X6716260Y-11234978D01*
X6718973Y-11241530D01*
X6711015Y-11241530D01*
X6713729Y-11234978D01*
X6713729Y-11216082D01*
X6706498Y-11198623D01*
X6693136Y-11185261D01*
X6675677Y-11178030D01*
X6656781Y-11178030D01*
X6639323Y-11185261D01*
X6625961Y-11198623D01*
X6618729Y-11216082D01*
X6603480Y-11216082D01*
X6603480Y-10828732D01*
X6764780Y-10828732D01*
X6764780Y-10847628D01*
X6772011Y-10865087D01*
X6785373Y-10878449D01*
X6802832Y-10885680D01*
X6821728Y-10885680D01*
X6839187Y-10878449D01*
X6852549Y-10865087D01*
X6859780Y-10847628D01*
X6859780Y-10828732D01*
X7006080Y-10828732D01*
X7006080Y-10847628D01*
X7013311Y-10865087D01*
X7026673Y-10878449D01*
X7044132Y-10885680D01*
X7063028Y-10885680D01*
X7080487Y-10878449D01*
X7093849Y-10865087D01*
X7101080Y-10847628D01*
X7101080Y-10828732D01*
X7093849Y-10811273D01*
X7080487Y-10797911D01*
X7063028Y-10790680D01*
X7044132Y-10790680D01*
X7026673Y-10797911D01*
X7013311Y-10811273D01*
X7006080Y-10828732D01*
X6859780Y-10828732D01*
X6852549Y-10811273D01*
X6839187Y-10797911D01*
X6821728Y-10790680D01*
X6802832Y-10790680D01*
X6785373Y-10797911D01*
X6772011Y-10811273D01*
X6764780Y-10828732D01*
X6603480Y-10828732D01*
X6603480Y-10714432D01*
X6764780Y-10714432D01*
X6764780Y-10733328D01*
X6772011Y-10750787D01*
X6785373Y-10764149D01*
X6802832Y-10771380D01*
X6821728Y-10771380D01*
X6839187Y-10764149D01*
X6852549Y-10750787D01*
X6859780Y-10733328D01*
X6859780Y-10714432D01*
X7006080Y-10714432D01*
X7006080Y-10733328D01*
X7013311Y-10750787D01*
X7026673Y-10764149D01*
X7044132Y-10771380D01*
X7063028Y-10771380D01*
X7080487Y-10764149D01*
X7093849Y-10750787D01*
X7101080Y-10733328D01*
X7101080Y-10714432D01*
X7093849Y-10696973D01*
X7080487Y-10683611D01*
X7063028Y-10676380D01*
X7044132Y-10676380D01*
X7026673Y-10683611D01*
X7013311Y-10696973D01*
X7006080Y-10714432D01*
X6859780Y-10714432D01*
X6852549Y-10696973D01*
X6839187Y-10683611D01*
X6821728Y-10676380D01*
X6802832Y-10676380D01*
X6785373Y-10683611D01*
X6772011Y-10696973D01*
X6764780Y-10714432D01*
X6603480Y-10714432D01*
X6603480Y-10612832D01*
X6764780Y-10612832D01*
X6764780Y-10631728D01*
X6772011Y-10649187D01*
X6785373Y-10662549D01*
X6802832Y-10669780D01*
X6821728Y-10669780D01*
X6839187Y-10662549D01*
X6852549Y-10649187D01*
X6859780Y-10631728D01*
X6859780Y-10612832D01*
X6854520Y-10600132D01*
X7006080Y-10600132D01*
X7006080Y-10619028D01*
X7013311Y-10636487D01*
X7026673Y-10649849D01*
X7044132Y-10657080D01*
X7063028Y-10657080D01*
X7080487Y-10649849D01*
X7093849Y-10636487D01*
X7101080Y-10619028D01*
X7101080Y-10600132D01*
X7093849Y-10582673D01*
X7080487Y-10569311D01*
X7063028Y-10562080D01*
X7044132Y-10562080D01*
X7026673Y-10569311D01*
X7013311Y-10582673D01*
X7006080Y-10600132D01*
X6854520Y-10600132D01*
X6852549Y-10595373D01*
X6839187Y-10582011D01*
X6821728Y-10574780D01*
X6802832Y-10574780D01*
X6785373Y-10582011D01*
X6772011Y-10595373D01*
X6764780Y-10612832D01*
X6603480Y-10612832D01*
X6603480Y-10546842D01*
X6805057Y-10345264D01*
X6807771Y-10343451D01*
X6814954Y-10332701D01*
X6816840Y-10323221D01*
X6816840Y-10323221D01*
X6817477Y-10320020D01*
X6816840Y-10316819D01*
X6816840Y-10221073D01*
X6823490Y-10237127D01*
X6836852Y-10250489D01*
X6854310Y-10257721D01*
X6873207Y-10257721D01*
X6890665Y-10250489D01*
X6904027Y-10237127D01*
X6911258Y-10219669D01*
X6911258Y-10200773D01*
X6904027Y-10183314D01*
X6896258Y-10175546D01*
X6896258Y-9253613D01*
X6945427Y-9204444D01*
X6945427Y-10183989D01*
X6945427Y-10183989D01*
X6945427Y-10187870D01*
X6937658Y-10195639D01*
X6930427Y-10213097D01*
X6930427Y-10231994D01*
X6937658Y-10249452D01*
X6951020Y-10262814D01*
X6968478Y-10270045D01*
X6987375Y-10270045D01*
X7004833Y-10262814D01*
X7018195Y-10249452D01*
X7025427Y-10231994D01*
X7025427Y-10213097D01*
X7018195Y-10195639D01*
X7010427Y-10187870D01*
X7010427Y-9191143D01*
X8119101Y-8082469D01*
X8121815Y-8080656D01*
X8128998Y-8069905D01*
X8129538Y-8067187D01*
X8131520Y-8057225D01*
X8130883Y-8054024D01*
X8130883Y-7872759D01*
X8135023Y-7876899D01*
X8152482Y-7884130D01*
X8171378Y-7884130D01*
X8188837Y-7876899D01*
X8202199Y-7863537D01*
X8204430Y-7858149D01*
X8206661Y-7863537D01*
X8220023Y-7876899D01*
X8237482Y-7884130D01*
X8256378Y-7884130D01*
X8273837Y-7876899D01*
X8287199Y-7863537D01*
X8289430Y-7858149D01*
X8291661Y-7863537D01*
X8305023Y-7876899D01*
X8322482Y-7884130D01*
X8341378Y-7884130D01*
X8358837Y-7876899D01*
X8372199Y-7863537D01*
X8374430Y-7858149D01*
X8376661Y-7863537D01*
X8390023Y-7876899D01*
X8407482Y-7884130D01*
X8426378Y-7884130D01*
X8443837Y-7876899D01*
X8457199Y-7863537D01*
X8459430Y-7858149D01*
X8460693Y-7861198D01*
X8457699Y-7863199D01*
X8455886Y-7865913D01*
X7312263Y-9009536D01*
X7309549Y-9011349D01*
X7307736Y-9014063D01*
X7302366Y-9022099D01*
X7299843Y-9034780D01*
X7300480Y-9037981D01*
X7300480Y-11478132D01*
X7299843Y-11481333D01*
X7300480Y-11484534D01*
X7302366Y-11494014D01*
X7309549Y-11504764D01*
X7312263Y-11506577D01*
X7843622Y-12037937D01*
X7843622Y-12048923D01*
X7850854Y-12066382D01*
X7864216Y-12079744D01*
X7881674Y-12086975D01*
X7900571Y-12086975D01*
X7918029Y-12079744D01*
X7931391Y-12066382D01*
X7938622Y-12048923D01*
X7938622Y-12030027D01*
X7931391Y-12012568D01*
X7918029Y-11999206D01*
X7900571Y-11991975D01*
X7889584Y-11991975D01*
X7826266Y-11928657D01*
X7839320Y-11923250D01*
X7852682Y-11909888D01*
X7857055Y-11899331D01*
X7864873Y-11907149D01*
X7882332Y-11914380D01*
X7896854Y-11914380D01*
X7908703Y-11926229D01*
X7910377Y-11928734D01*
X7920300Y-11935365D01*
X7932005Y-11937693D01*
X7934960Y-11937105D01*
X8021486Y-11937105D01*
X8016639Y-11948807D01*
X8016524Y-11948691D01*
X7999065Y-11941460D01*
X7980169Y-11941460D01*
X7962711Y-11948691D01*
X7949349Y-11962053D01*
X7942117Y-11979511D01*
X7942117Y-11998408D01*
X7949349Y-12015866D01*
X7962711Y-12029228D01*
X7980169Y-12036460D01*
X7999065Y-12036460D01*
X8016524Y-12029228D01*
X8029886Y-12015866D01*
X8035020Y-12003471D01*
X8035136Y-12003586D01*
X8052594Y-12010818D01*
X8071490Y-12010818D01*
X8088949Y-12003586D01*
X8102311Y-11990224D01*
X8107717Y-11977172D01*
X8156138Y-12025593D01*
X8143086Y-12030999D01*
X8129724Y-12044361D01*
X8124635Y-12056646D01*
X8109284Y-12050287D01*
X8090388Y-12050287D01*
X8072929Y-12057519D01*
X8059567Y-12070881D01*
X8052336Y-12088339D01*
X8052336Y-12107236D01*
X8059567Y-12124694D01*
X8072929Y-12138056D01*
X8090388Y-12145287D01*
X8109284Y-12145287D01*
X8126743Y-12138056D01*
X8139992Y-12124806D01*
X8139992Y-12688237D01*
X8139404Y-12691192D01*
X8141733Y-12702897D01*
X8141733Y-12702897D01*
X8148363Y-12712820D01*
X8150868Y-12714494D01*
X8206231Y-12769856D01*
X8206231Y-12784378D01*
X8213462Y-12801837D01*
X8226824Y-12815199D01*
X8244282Y-12822430D01*
X8263179Y-12822430D01*
X8280637Y-12815199D01*
X8293999Y-12801837D01*
X8301231Y-12784378D01*
X8301231Y-12773192D01*
X8311964Y-12773192D01*
X8329422Y-12765960D01*
X8342784Y-12752598D01*
X8350015Y-12735140D01*
X8350015Y-12716243D01*
X8342784Y-12698785D01*
X8329422Y-12685423D01*
X8311964Y-12678192D01*
X8311625Y-12678192D01*
X8319818Y-12674798D01*
X8333180Y-12661436D01*
X8340411Y-12643978D01*
X8340411Y-12625081D01*
X8333180Y-12607623D01*
X8322668Y-12597111D01*
X8326196Y-12593583D01*
X8333427Y-12576125D01*
X8333427Y-12557228D01*
X8326196Y-12539770D01*
X8312834Y-12526408D01*
X8295375Y-12519177D01*
X8276479Y-12519177D01*
X8259020Y-12526408D01*
X8258730Y-12526699D01*
X8258730Y-12474994D01*
X8269682Y-12479530D01*
X8288578Y-12479530D01*
X8306037Y-12472299D01*
X8319399Y-12458937D01*
X8326630Y-12441478D01*
X8326630Y-12422582D01*
X8319399Y-12405123D01*
X8306037Y-12391761D01*
X8288578Y-12384530D01*
X8269682Y-12384530D01*
X8258730Y-12389066D01*
X8258730Y-12186705D01*
X8271273Y-12199249D01*
X8288732Y-12206480D01*
X8307628Y-12206480D01*
X8325087Y-12199249D01*
X8338449Y-12185887D01*
X8345680Y-12168428D01*
X8345680Y-12149532D01*
X8338449Y-12132073D01*
X8325087Y-12118711D01*
X8307628Y-12111480D01*
X8288732Y-12111480D01*
X8271273Y-12118711D01*
X8257911Y-12132073D01*
X8255280Y-12138426D01*
X8255280Y-12055262D01*
X8255868Y-12052308D01*
X8253539Y-12040602D01*
X8249331Y-12034304D01*
X8246909Y-12030679D01*
X8244404Y-12029005D01*
X8121944Y-11906546D01*
X8143019Y-11906546D01*
X8395180Y-12158706D01*
X8395180Y-12944954D01*
X8303254Y-13036880D01*
X8288732Y-13036880D01*
X8271273Y-13044111D01*
X8257911Y-13057473D01*
X8250680Y-13074932D01*
X8250680Y-13093828D01*
X8257911Y-13111287D01*
X8271273Y-13124649D01*
X8288732Y-13131880D01*
X8307628Y-13131880D01*
X8325087Y-13124649D01*
X8338449Y-13111287D01*
X8345680Y-13093828D01*
X8345680Y-13079306D01*
X8444304Y-12980682D01*
X8446809Y-12979009D01*
X8453439Y-12969085D01*
X8455180Y-12960334D01*
X8455180Y-12960334D01*
X8455768Y-12957380D01*
X8455180Y-12954426D01*
X8455180Y-12713355D01*
X8461773Y-12719949D01*
X8479232Y-12727180D01*
X8498128Y-12727180D01*
X8515587Y-12719949D01*
X8525230Y-12710305D01*
X8525230Y-12886453D01*
X8482256Y-12929427D01*
X8479751Y-12931101D01*
X8478078Y-12933606D01*
X8473121Y-12941025D01*
X8470792Y-12952730D01*
X8471380Y-12955685D01*
X8471380Y-12998105D01*
X8461111Y-13008373D01*
X8453880Y-13025832D01*
X8453880Y-13044728D01*
X8461111Y-13062187D01*
X8474473Y-13075549D01*
X8491932Y-13082780D01*
X8510828Y-13082780D01*
X8528287Y-13075549D01*
X8541649Y-13062187D01*
X8548880Y-13044728D01*
X8548880Y-13028120D01*
X8558329Y-13028120D01*
X8575788Y-13020889D01*
X8589150Y-13007527D01*
X8596381Y-12990068D01*
X8596381Y-12975546D01*
X8597183Y-12974744D01*
X8597183Y-12974744D01*
X8609004Y-12962924D01*
X8611509Y-12961250D01*
X8618139Y-12951326D01*
X8619880Y-12942576D01*
X8620468Y-12939621D01*
X8619880Y-12936667D01*
X8619880Y-12907100D01*
X9401819Y-12907100D01*
X9401819Y-13077100D01*
X9403566Y-13085879D01*
X9408538Y-13093322D01*
X9415981Y-13098294D01*
X9424760Y-13100041D01*
X9594760Y-13100041D01*
X9603539Y-13098294D01*
X9610982Y-13093322D01*
X9615955Y-13085879D01*
X9617701Y-13077100D01*
X9617701Y-13017067D01*
X9654066Y-13017067D01*
X9668539Y-13052012D01*
X9698715Y-13083891D01*
X9738793Y-13101795D01*
X9756260Y-13097475D01*
X9756260Y-12999600D01*
X9771260Y-12999600D01*
X9771260Y-13097475D01*
X9788728Y-13101795D01*
X9828806Y-13083891D01*
X9858981Y-13052012D01*
X9873455Y-13017067D01*
X9869118Y-12999600D01*
X9771260Y-12999600D01*
X9756260Y-12999600D01*
X9658402Y-12999600D01*
X9654066Y-13017067D01*
X9617701Y-13017067D01*
X9617701Y-12990830D01*
X10087224Y-12990830D01*
X10095567Y-13032774D01*
X10119327Y-13068333D01*
X10154886Y-13092093D01*
X10186243Y-13098330D01*
X10207418Y-13098330D01*
X10238774Y-13092093D01*
X10274333Y-13068333D01*
X10298093Y-13032774D01*
X10306436Y-12990830D01*
X10298093Y-12948886D01*
X10281620Y-12924232D01*
X13279880Y-12924232D01*
X13279880Y-12943128D01*
X13287111Y-12960587D01*
X13300473Y-12973949D01*
X13317932Y-12981180D01*
X13336828Y-12981180D01*
X13354286Y-12973949D01*
X13367648Y-12960587D01*
X13374880Y-12943128D01*
X13374880Y-12924232D01*
X13367648Y-12906773D01*
X13354286Y-12893411D01*
X13336828Y-12886180D01*
X13317932Y-12886180D01*
X13300473Y-12893411D01*
X13287111Y-12906773D01*
X13279880Y-12924232D01*
X10281620Y-12924232D01*
X10274333Y-12913327D01*
X10238774Y-12889567D01*
X10207418Y-12883330D01*
X10186243Y-12883330D01*
X10154886Y-12889567D01*
X10119327Y-12913327D01*
X10095567Y-12948886D01*
X10087224Y-12990830D01*
X9617701Y-12990830D01*
X9617701Y-12967133D01*
X9654066Y-12967133D01*
X9658402Y-12984600D01*
X9756260Y-12984600D01*
X9756260Y-12886724D01*
X9771260Y-12886724D01*
X9771260Y-12984600D01*
X9869118Y-12984600D01*
X9873455Y-12967133D01*
X9858981Y-12932188D01*
X9828806Y-12900309D01*
X9788728Y-12882405D01*
X9771260Y-12886724D01*
X9756260Y-12886724D01*
X9738793Y-12882405D01*
X9698715Y-12900309D01*
X9668539Y-12932188D01*
X9654066Y-12967133D01*
X9617701Y-12967133D01*
X9617701Y-12907100D01*
X9615955Y-12898321D01*
X9610982Y-12890878D01*
X9603539Y-12885905D01*
X9594760Y-12884159D01*
X9424760Y-12884159D01*
X9415981Y-12885905D01*
X9408538Y-12890878D01*
X9403566Y-12898321D01*
X9401819Y-12907100D01*
X8619880Y-12907100D01*
X8619880Y-12751205D01*
X10084330Y-12751205D01*
X10084330Y-12827300D01*
X10088517Y-12837407D01*
X10096253Y-12845143D01*
X10106360Y-12849330D01*
X10182455Y-12849330D01*
X10189330Y-12842455D01*
X10189330Y-12744330D01*
X10204330Y-12744330D01*
X10204330Y-12842455D01*
X10211205Y-12849330D01*
X10287300Y-12849330D01*
X10297408Y-12845143D01*
X10305143Y-12837407D01*
X10309330Y-12827300D01*
X10309330Y-12751205D01*
X10302455Y-12744330D01*
X10204330Y-12744330D01*
X10189330Y-12744330D01*
X10091205Y-12744330D01*
X10084330Y-12751205D01*
X8619880Y-12751205D01*
X8619880Y-12646360D01*
X10084330Y-12646360D01*
X10084330Y-12722455D01*
X10091205Y-12729330D01*
X10189330Y-12729330D01*
X10189330Y-12631205D01*
X10204330Y-12631205D01*
X10204330Y-12729330D01*
X10302455Y-12729330D01*
X10309330Y-12722455D01*
X10309330Y-12646360D01*
X10305143Y-12636252D01*
X10297408Y-12628517D01*
X10287300Y-12624330D01*
X10211205Y-12624330D01*
X10204330Y-12631205D01*
X10189330Y-12631205D01*
X10182455Y-12624330D01*
X10106360Y-12624330D01*
X10096253Y-12628517D01*
X10088517Y-12636252D01*
X10084330Y-12646360D01*
X8619880Y-12646360D01*
X8619880Y-12538698D01*
X14277531Y-12538698D01*
X14277531Y-12611301D01*
X14305315Y-12678378D01*
X14356653Y-12729716D01*
X14423729Y-12757500D01*
X14496332Y-12757500D01*
X14563409Y-12729716D01*
X14614747Y-12678378D01*
X14642531Y-12611301D01*
X14642531Y-12538698D01*
X14614747Y-12471622D01*
X14563409Y-12420284D01*
X14496332Y-12392500D01*
X14423729Y-12392500D01*
X14356653Y-12420284D01*
X14305315Y-12471622D01*
X14277531Y-12538698D01*
X8619880Y-12538698D01*
X8619880Y-12144223D01*
X8620468Y-12141268D01*
X8618139Y-12129563D01*
X8616531Y-12127156D01*
X8611509Y-12119639D01*
X8609004Y-12117966D01*
X8318640Y-11827602D01*
X8443203Y-11936265D01*
X8603504Y-12054882D01*
X8772801Y-12160260D01*
X8950005Y-12251722D01*
X9133973Y-12328677D01*
X9323520Y-12390631D01*
X9517425Y-12437183D01*
X9714439Y-12468035D01*
X9913292Y-12482986D01*
X10112704Y-12481942D01*
X10311390Y-12464909D01*
X10508070Y-12431996D01*
X10701477Y-12383416D01*
X10890365Y-12319481D01*
X11073517Y-12240603D01*
X11249753Y-12147291D01*
X11417938Y-12040145D01*
X11576988Y-11919857D01*
X11725879Y-11787200D01*
X11863651Y-11643029D01*
X11989417Y-11488274D01*
X12102367Y-11323931D01*
X12201773Y-11151059D01*
X12286994Y-10970772D01*
X12357482Y-10784230D01*
X12412783Y-10592636D01*
X12452540Y-10397225D01*
X12476497Y-10199254D01*
X12484500Y-10000000D01*
X12483955Y-9947969D01*
X12471781Y-9748926D01*
X12443683Y-9551500D01*
X12399843Y-9356964D01*
X12340542Y-9166571D01*
X12266162Y-8981546D01*
X12177184Y-8803083D01*
X12074179Y-8632331D01*
X11957813Y-8470389D01*
X11828833Y-8318302D01*
X11688072Y-8177048D01*
X11536436Y-8047538D01*
X11374901Y-7930607D01*
X11204509Y-7827007D01*
X11026358Y-7737406D01*
X10841594Y-7662382D01*
X10651409Y-7602416D01*
X10457027Y-7557897D01*
X10259701Y-7529110D01*
X10147687Y-7521867D01*
X10153887Y-7519299D01*
X10167249Y-7505937D01*
X10174480Y-7488478D01*
X10174480Y-7469582D01*
X10167249Y-7452123D01*
X10153887Y-7438761D01*
X10136428Y-7431530D01*
X10117532Y-7431530D01*
X10100073Y-7438761D01*
X10086711Y-7452123D01*
X10079480Y-7469582D01*
X10079480Y-7488478D01*
X10086711Y-7505937D01*
X10099527Y-7518752D01*
X10060702Y-7516242D01*
X9861312Y-7519374D01*
X9662815Y-7538487D01*
X9466490Y-7573458D01*
X9273603Y-7624061D01*
X9085395Y-7689970D01*
X8903079Y-7770762D01*
X8727830Y-7865914D01*
X8560776Y-7974815D01*
X8402994Y-8096763D01*
X8255501Y-8230971D01*
X8119246Y-8376576D01*
X7995107Y-8532640D01*
X7883884Y-8698157D01*
X7786294Y-8872061D01*
X7702965Y-9053231D01*
X7634434Y-9240500D01*
X7581143Y-9432662D01*
X7543435Y-9628479D01*
X7521552Y-9826690D01*
X7515636Y-10026017D01*
X7525725Y-10225177D01*
X7551754Y-10422886D01*
X7593555Y-10617870D01*
X7650859Y-10808874D01*
X7723297Y-10994667D01*
X7810402Y-11174052D01*
X7911612Y-11345874D01*
X8026277Y-11509025D01*
X8153657Y-11662455D01*
X8160277Y-11669239D01*
X8084794Y-11593756D01*
X8083120Y-11591251D01*
X8073197Y-11584621D01*
X8064446Y-11582880D01*
X8061492Y-11582292D01*
X8058537Y-11582880D01*
X8055955Y-11582880D01*
X8045687Y-11572611D01*
X8028228Y-11565380D01*
X8009332Y-11565380D01*
X7991873Y-11572611D01*
X7978511Y-11585973D01*
X7971280Y-11603432D01*
X7971280Y-11622328D01*
X7978511Y-11639787D01*
X7991873Y-11653149D01*
X8000631Y-11656776D01*
X7996628Y-11660779D01*
X7989397Y-11678237D01*
X7989397Y-11697134D01*
X7996628Y-11714592D01*
X8009990Y-11727954D01*
X8027448Y-11735185D01*
X8033656Y-11735185D01*
X8027242Y-11750669D01*
X8027242Y-11769566D01*
X8030133Y-11776546D01*
X8026071Y-11776546D01*
X8008613Y-11783777D01*
X7995251Y-11797139D01*
X7988978Y-11812284D01*
X7976475Y-11807105D01*
X7957578Y-11807105D01*
X7940120Y-11814337D01*
X7926758Y-11827699D01*
X7924713Y-11832637D01*
X7918687Y-11826611D01*
X7901228Y-11819380D01*
X7882332Y-11819380D01*
X7864873Y-11826611D01*
X7851511Y-11839973D01*
X7847138Y-11850531D01*
X7839320Y-11842713D01*
X7821862Y-11835481D01*
X7802966Y-11835481D01*
X7785507Y-11842713D01*
X7772145Y-11856075D01*
X7766738Y-11869129D01*
X7365480Y-11467871D01*
X7365480Y-11072702D01*
X7368911Y-11080987D01*
X7382273Y-11094349D01*
X7399732Y-11101580D01*
X7418628Y-11101580D01*
X7436087Y-11094349D01*
X7447280Y-11083155D01*
X7458473Y-11094349D01*
X7475932Y-11101580D01*
X7494828Y-11101580D01*
X7512287Y-11094349D01*
X7523480Y-11083155D01*
X7534673Y-11094349D01*
X7552132Y-11101580D01*
X7571028Y-11101580D01*
X7588487Y-11094349D01*
X7599680Y-11083155D01*
X7610873Y-11094349D01*
X7628332Y-11101580D01*
X7647228Y-11101580D01*
X7664687Y-11094349D01*
X7678049Y-11080987D01*
X7685280Y-11063528D01*
X7685280Y-11044632D01*
X7678049Y-11027173D01*
X7664687Y-11013811D01*
X7647228Y-11006580D01*
X7628332Y-11006580D01*
X7610873Y-11013811D01*
X7599680Y-11025005D01*
X7588487Y-11013811D01*
X7571028Y-11006580D01*
X7552132Y-11006580D01*
X7534673Y-11013811D01*
X7523480Y-11025005D01*
X7512287Y-11013811D01*
X7494828Y-11006580D01*
X7475932Y-11006580D01*
X7458473Y-11013811D01*
X7447280Y-11025005D01*
X7436087Y-11013811D01*
X7418628Y-11006580D01*
X7399732Y-11006580D01*
X7382273Y-11013811D01*
X7368911Y-11027173D01*
X7365480Y-11035458D01*
X7365480Y-9048242D01*
X8494592Y-7919130D01*
X8617629Y-7919130D01*
X8620830Y-7919767D01*
X8624031Y-7919130D01*
X8633511Y-7917244D01*
X8644261Y-7910061D01*
X8646075Y-7907347D01*
X9359392Y-7194030D01*
X9641455Y-7194030D01*
X9649223Y-7201799D01*
X9666682Y-7209030D01*
X9685578Y-7209030D01*
X9703037Y-7201799D01*
X9716399Y-7188437D01*
X9723630Y-7170978D01*
X9723630Y-7152082D01*
X9716399Y-7134623D01*
X9703037Y-7121261D01*
X9685578Y-7114030D01*
X9666682Y-7114030D01*
X9649223Y-7121261D01*
X9641455Y-7129030D01*
X9349131Y-7129030D01*
X9345930Y-7128393D01*
X9342729Y-7129030D01*
X9333249Y-7130916D01*
X9322499Y-7138099D01*
X9320686Y-7140813D01*
X9226030Y-7235468D01*
X9226030Y-7122891D01*
X9370188Y-6978733D01*
X9375511Y-6991587D01*
X9387253Y-7003328D01*
X9386855Y-7003492D01*
X9373493Y-7016854D01*
X9366261Y-7034313D01*
X9366261Y-7053209D01*
X9373493Y-7070668D01*
X9386855Y-7084030D01*
X9404313Y-7091261D01*
X9423209Y-7091261D01*
X9440668Y-7084030D01*
X9454030Y-7070668D01*
X9455337Y-7067512D01*
X9464623Y-7076799D01*
X9482082Y-7084030D01*
X9500978Y-7084030D01*
X9518437Y-7076799D01*
X9531799Y-7063437D01*
X9534030Y-7058049D01*
X9536261Y-7063437D01*
X9549623Y-7076799D01*
X9567082Y-7084030D01*
X9585978Y-7084030D01*
X9603437Y-7076799D01*
X9616799Y-7063437D01*
X9619030Y-7058049D01*
X9621261Y-7063437D01*
X9634623Y-7076799D01*
X9652082Y-7084030D01*
X9670978Y-7084030D01*
X9688437Y-7076799D01*
X9701799Y-7063437D01*
X9704030Y-7058049D01*
X9706261Y-7063437D01*
X9719623Y-7076799D01*
X9737082Y-7084030D01*
X9755978Y-7084030D01*
X9773437Y-7076799D01*
X9786799Y-7063437D01*
X9794030Y-7045978D01*
X9794030Y-7027082D01*
X9786799Y-7009623D01*
X9773437Y-6996261D01*
X9768050Y-6994030D01*
X9773437Y-6991799D01*
X9786799Y-6978437D01*
X9794030Y-6960978D01*
X9794030Y-6942082D01*
X9786799Y-6924623D01*
X9773437Y-6911261D01*
X9755978Y-6904030D01*
X9737082Y-6904030D01*
X9719623Y-6911261D01*
X9706261Y-6924623D01*
X9704030Y-6930010D01*
X9701799Y-6924623D01*
X9688437Y-6911261D01*
X9670978Y-6904030D01*
X9652082Y-6904030D01*
X9634623Y-6911261D01*
X9621261Y-6924623D01*
X9619030Y-6930010D01*
X9616799Y-6924623D01*
X9603437Y-6911261D01*
X9585978Y-6904030D01*
X9567082Y-6904030D01*
X9549623Y-6911261D01*
X9536261Y-6924623D01*
X9534954Y-6927779D01*
X9525668Y-6918492D01*
X9508209Y-6911261D01*
X9489313Y-6911261D01*
X9471855Y-6918492D01*
X9458493Y-6931854D01*
X9456043Y-6937768D01*
X9442687Y-6924411D01*
X9429833Y-6919087D01*
X9519940Y-6828981D01*
X9961777Y-6828981D01*
X9964979Y-6829618D01*
X9977660Y-6827095D01*
X9985696Y-6821725D01*
X9988410Y-6819912D01*
X9990223Y-6817198D01*
X10011142Y-6796280D01*
X10022128Y-6796280D01*
X10039587Y-6789048D01*
X10052949Y-6775686D01*
X10060180Y-6758228D01*
X10060180Y-6739331D01*
X10052949Y-6721873D01*
X10039587Y-6708511D01*
X10022128Y-6701280D01*
X10003232Y-6701280D01*
X9985773Y-6708511D01*
X9972411Y-6721873D01*
X9965180Y-6739331D01*
X9965180Y-6750318D01*
X9951517Y-6763981D01*
X9840241Y-6763981D01*
X9878742Y-6725480D01*
X9885680Y-6725480D01*
X9896204Y-6723387D01*
X9905125Y-6717425D01*
X9911087Y-6708504D01*
X9913180Y-6697980D01*
X9913180Y-6691042D01*
X10020697Y-6583524D01*
X10023411Y-6581711D01*
X10030582Y-6570980D01*
X11019913Y-6570980D01*
X11019913Y-7282180D01*
X11022007Y-7292704D01*
X11027968Y-7301625D01*
X11036890Y-7307587D01*
X11047413Y-7309680D01*
X11745913Y-7309680D01*
X11756437Y-7307587D01*
X11765359Y-7301625D01*
X11771320Y-7292704D01*
X11773413Y-7282180D01*
X11773413Y-6570980D01*
X11771320Y-6560456D01*
X11765359Y-6551535D01*
X11756437Y-6545573D01*
X11745913Y-6543480D01*
X11047413Y-6543480D01*
X11036890Y-6545573D01*
X11027968Y-6551535D01*
X11022007Y-6560456D01*
X11019913Y-6570980D01*
X10030582Y-6570980D01*
X10030594Y-6570961D01*
X10032480Y-6561481D01*
X10033117Y-6558280D01*
X10032480Y-6555079D01*
X10032480Y-6433380D01*
X10253980Y-6433380D01*
X10264504Y-6431287D01*
X10265287Y-6430764D01*
X10266069Y-6431287D01*
X10276593Y-6433380D01*
X10975093Y-6433380D01*
X10985617Y-6431287D01*
X10994539Y-6425325D01*
X11000500Y-6416404D01*
X11002593Y-6405880D01*
X11002593Y-5694680D01*
X11305980Y-5694680D01*
X11305980Y-6405880D01*
X11308073Y-6416404D01*
X11314035Y-6425325D01*
X11322956Y-6431287D01*
X11333480Y-6433380D01*
X12031980Y-6433380D01*
X12042504Y-6431287D01*
X12051425Y-6425325D01*
X12057387Y-6416404D01*
X12059480Y-6405880D01*
X12059480Y-5694680D01*
X12057387Y-5684156D01*
X12051425Y-5675235D01*
X12042504Y-5669273D01*
X12031980Y-5667180D01*
X11333480Y-5667180D01*
X11322956Y-5669273D01*
X11314035Y-5675235D01*
X11308073Y-5684156D01*
X11305980Y-5694680D01*
X11002593Y-5694680D01*
X11002593Y-5262880D01*
X11000500Y-5252356D01*
X10994539Y-5243435D01*
X10985617Y-5237473D01*
X10975093Y-5235380D01*
X10276593Y-5235380D01*
X10266069Y-5237473D01*
X10257148Y-5243435D01*
X10251187Y-5252356D01*
X10249093Y-5262880D01*
X10249093Y-5883080D01*
X10032480Y-5883080D01*
X10032480Y-5729355D01*
X10040249Y-5721587D01*
X10047480Y-5704128D01*
X10047480Y-5685232D01*
X10040249Y-5667773D01*
X10026887Y-5654411D01*
X10009428Y-5647180D01*
X9990532Y-5647180D01*
X9973073Y-5654411D01*
X9959711Y-5667773D01*
X9952480Y-5685232D01*
X9952480Y-5704128D01*
X9959711Y-5721587D01*
X9967480Y-5729355D01*
X9967480Y-5883080D01*
X9900480Y-5883080D01*
X9900480Y-5326380D01*
X9898387Y-5315856D01*
X9892425Y-5306935D01*
X9883504Y-5300973D01*
X9872980Y-5298880D01*
X9060180Y-5298880D01*
X9049656Y-5300973D01*
X9040735Y-5306935D01*
X9034773Y-5315856D01*
X9032680Y-5326380D01*
X9032680Y-6113780D01*
X9034773Y-6124304D01*
X9040735Y-6133225D01*
X9049656Y-6139187D01*
X9060180Y-6141280D01*
X9286680Y-6141280D01*
X9286680Y-6182309D01*
X9281178Y-6180030D01*
X9262282Y-6180030D01*
X9244823Y-6187261D01*
X9231461Y-6200623D01*
X9224230Y-6218082D01*
X9224230Y-6236978D01*
X9231461Y-6254437D01*
X9244823Y-6267799D01*
X9250211Y-6270030D01*
X9244823Y-6272261D01*
X9231461Y-6285623D01*
X9224230Y-6303082D01*
X9224230Y-6321978D01*
X9231461Y-6339437D01*
X9244823Y-6352799D01*
X9250211Y-6355030D01*
X9244823Y-6357261D01*
X9231461Y-6370623D01*
X9224230Y-6388082D01*
X9224230Y-6406978D01*
X9231461Y-6424437D01*
X9244823Y-6437799D01*
X9250211Y-6440030D01*
X9244823Y-6442261D01*
X9231461Y-6455623D01*
X9224230Y-6473082D01*
X9224230Y-6491978D01*
X9231461Y-6509437D01*
X9244823Y-6522799D01*
X9250211Y-6525030D01*
X9244823Y-6527261D01*
X9231461Y-6540623D01*
X9224230Y-6558082D01*
X9224230Y-6576978D01*
X9231461Y-6594437D01*
X9244823Y-6607799D01*
X9249003Y-6609530D01*
X9244823Y-6611261D01*
X9231461Y-6624623D01*
X9224230Y-6642082D01*
X9224230Y-6660978D01*
X9231461Y-6678437D01*
X9244823Y-6691799D01*
X9250211Y-6694030D01*
X9244823Y-6696261D01*
X9231461Y-6709623D01*
X9224230Y-6727082D01*
X9224230Y-6745978D01*
X9231461Y-6763437D01*
X9235387Y-6767362D01*
X9232867Y-6768405D01*
X9219505Y-6781767D01*
X9212274Y-6799226D01*
X9212274Y-6818122D01*
X9219505Y-6835580D01*
X9232867Y-6848942D01*
X9250326Y-6856174D01*
X9269222Y-6856174D01*
X9286681Y-6848942D01*
X9300043Y-6835580D01*
X9307274Y-6818122D01*
X9307274Y-6799226D01*
X9300043Y-6781767D01*
X9296117Y-6777842D01*
X9298637Y-6776799D01*
X9311999Y-6763437D01*
X9319230Y-6745978D01*
X9319230Y-6727082D01*
X9318567Y-6725480D01*
X9424868Y-6725480D01*
X9102811Y-7047538D01*
X9100097Y-7049351D01*
X9098284Y-7052065D01*
X9092914Y-7060101D01*
X9090391Y-7072782D01*
X9091028Y-7075983D01*
X9091028Y-7214322D01*
X8744520Y-7560830D01*
X8136281Y-7560830D01*
X8133080Y-7560193D01*
X8129879Y-7560830D01*
X8120399Y-7562716D01*
X8109649Y-7569899D01*
X8107836Y-7572612D01*
X8007664Y-7672784D01*
X8004950Y-7674598D01*
X8003137Y-7677311D01*
X7997767Y-7685348D01*
X7995244Y-7698029D01*
X7995881Y-7701230D01*
X7995881Y-8014767D01*
X7186168Y-8824480D01*
X7177155Y-8824480D01*
X7169387Y-8816711D01*
X7151928Y-8809480D01*
X7133032Y-8809480D01*
X7130826Y-8810394D01*
X7899797Y-8041423D01*
X7902511Y-8039609D01*
X7909694Y-8028859D01*
X7910141Y-8026610D01*
X7912216Y-8016178D01*
X7911580Y-8012977D01*
X7911580Y-7714742D01*
X8083042Y-7543280D01*
X8618829Y-7543280D01*
X8622030Y-7543917D01*
X8625231Y-7543280D01*
X8634711Y-7541394D01*
X8645461Y-7534211D01*
X8647275Y-7531497D01*
X8804642Y-7374130D01*
X8815628Y-7374130D01*
X8833087Y-7366899D01*
X8846449Y-7353537D01*
X8853680Y-7336078D01*
X8853680Y-7317182D01*
X8846449Y-7299723D01*
X8833087Y-7286361D01*
X8815628Y-7279130D01*
X8799343Y-7279130D01*
X8858647Y-7219825D01*
X8861361Y-7218012D01*
X8868544Y-7207262D01*
X8870430Y-7197782D01*
X8871067Y-7194581D01*
X8870430Y-7191380D01*
X8870430Y-7164454D01*
X8878199Y-7156686D01*
X8885430Y-7139227D01*
X8885430Y-7120331D01*
X8878199Y-7102873D01*
X8864837Y-7089511D01*
X8847378Y-7082279D01*
X8828482Y-7082279D01*
X8811023Y-7089511D01*
X8797661Y-7102873D01*
X8790430Y-7120331D01*
X8790430Y-7139227D01*
X8797661Y-7156686D01*
X8805430Y-7164454D01*
X8805430Y-7181119D01*
X8676280Y-7310269D01*
X8676280Y-6928103D01*
X8679180Y-6928680D01*
X8983980Y-6928680D01*
X8994504Y-6926587D01*
X9003425Y-6920625D01*
X9009387Y-6911704D01*
X9011480Y-6901180D01*
X9011480Y-6857129D01*
X9024882Y-6862680D01*
X9043778Y-6862680D01*
X9061237Y-6855449D01*
X9074599Y-6842087D01*
X9081830Y-6824628D01*
X9081830Y-6805732D01*
X9074599Y-6788273D01*
X9061237Y-6774911D01*
X9055850Y-6772680D01*
X9061237Y-6770449D01*
X9074599Y-6757087D01*
X9081830Y-6739628D01*
X9081830Y-6720732D01*
X9074599Y-6703273D01*
X9061237Y-6689911D01*
X9055850Y-6687680D01*
X9061237Y-6685449D01*
X9074599Y-6672087D01*
X9081830Y-6654628D01*
X9081830Y-6635732D01*
X9074599Y-6618273D01*
X9061237Y-6604911D01*
X9057057Y-6603180D01*
X9061237Y-6601449D01*
X9074599Y-6588087D01*
X9081830Y-6570628D01*
X9081830Y-6551732D01*
X9074599Y-6534273D01*
X9061237Y-6520911D01*
X9055850Y-6518680D01*
X9061237Y-6516449D01*
X9074599Y-6503087D01*
X9081830Y-6485628D01*
X9081830Y-6466732D01*
X9074599Y-6449273D01*
X9061237Y-6435911D01*
X9055850Y-6433680D01*
X9061237Y-6431449D01*
X9074599Y-6418087D01*
X9081830Y-6400628D01*
X9081830Y-6381732D01*
X9074599Y-6364273D01*
X9061237Y-6350911D01*
X9055850Y-6348680D01*
X9061237Y-6346449D01*
X9074599Y-6333087D01*
X9081830Y-6315628D01*
X9081830Y-6296732D01*
X9074599Y-6279273D01*
X9061237Y-6265911D01*
X9055850Y-6263680D01*
X9061237Y-6261449D01*
X9074599Y-6248087D01*
X9081830Y-6230628D01*
X9081830Y-6211732D01*
X9074599Y-6194273D01*
X9061237Y-6180911D01*
X9043778Y-6173680D01*
X9024882Y-6173680D01*
X9011480Y-6179231D01*
X9011480Y-6113780D01*
X9009387Y-6103256D01*
X9003425Y-6094335D01*
X8994504Y-6088373D01*
X8983980Y-6086280D01*
X8346080Y-6086280D01*
X8346080Y-5417982D01*
X8535980Y-5417982D01*
X8535980Y-5436878D01*
X8543211Y-5454337D01*
X8556573Y-5467699D01*
X8561961Y-5469930D01*
X8556573Y-5472161D01*
X8543211Y-5485523D01*
X8535980Y-5502982D01*
X8535980Y-5521878D01*
X8543211Y-5539337D01*
X8556573Y-5552699D01*
X8561961Y-5554930D01*
X8556573Y-5557161D01*
X8543211Y-5570523D01*
X8535980Y-5587982D01*
X8535980Y-5606878D01*
X8543211Y-5624337D01*
X8556573Y-5637699D01*
X8561961Y-5639930D01*
X8556573Y-5642161D01*
X8543211Y-5655523D01*
X8535980Y-5672982D01*
X8535980Y-5691878D01*
X8543211Y-5709337D01*
X8556573Y-5722699D01*
X8561961Y-5724930D01*
X8556573Y-5727161D01*
X8543211Y-5740523D01*
X8535980Y-5757982D01*
X8535980Y-5776878D01*
X8543211Y-5794337D01*
X8556573Y-5807699D01*
X8560753Y-5809430D01*
X8556573Y-5811161D01*
X8543211Y-5824523D01*
X8535980Y-5841982D01*
X8535980Y-5860878D01*
X8543211Y-5878337D01*
X8556573Y-5891699D01*
X8561961Y-5893930D01*
X8556573Y-5896161D01*
X8543211Y-5909523D01*
X8535980Y-5926982D01*
X8535980Y-5945878D01*
X8543211Y-5963337D01*
X8556573Y-5976699D01*
X8561961Y-5978930D01*
X8556573Y-5981161D01*
X8543211Y-5994523D01*
X8535980Y-6011982D01*
X8535980Y-6030878D01*
X8543211Y-6048337D01*
X8556573Y-6061699D01*
X8574032Y-6068930D01*
X8592928Y-6068930D01*
X8610387Y-6061699D01*
X8623749Y-6048337D01*
X8625980Y-6042949D01*
X8628211Y-6048337D01*
X8641573Y-6061699D01*
X8659032Y-6068930D01*
X8677928Y-6068930D01*
X8695387Y-6061699D01*
X8708749Y-6048337D01*
X8715980Y-6030878D01*
X8715980Y-6011982D01*
X8708749Y-5994523D01*
X8695387Y-5981161D01*
X8690000Y-5978930D01*
X8695387Y-5976699D01*
X8708749Y-5963337D01*
X8715980Y-5945878D01*
X8715980Y-5926982D01*
X8708749Y-5909523D01*
X8695387Y-5896161D01*
X8690000Y-5893930D01*
X8695387Y-5891699D01*
X8708749Y-5878337D01*
X8715980Y-5860878D01*
X8715980Y-5841982D01*
X8708749Y-5824523D01*
X8695387Y-5811161D01*
X8691207Y-5809430D01*
X8695387Y-5807699D01*
X8708749Y-5794337D01*
X8715980Y-5776878D01*
X8715980Y-5757982D01*
X8708749Y-5740523D01*
X8695387Y-5727161D01*
X8690000Y-5724930D01*
X8695387Y-5722699D01*
X8708749Y-5709337D01*
X8715980Y-5691878D01*
X8715980Y-5672982D01*
X8708749Y-5655523D01*
X8695387Y-5642161D01*
X8690000Y-5639930D01*
X8695387Y-5637699D01*
X8708749Y-5624337D01*
X8715980Y-5606878D01*
X8715980Y-5587982D01*
X8708749Y-5570523D01*
X8695387Y-5557161D01*
X8690000Y-5554930D01*
X8695387Y-5552699D01*
X8708749Y-5539337D01*
X8715980Y-5521878D01*
X8715980Y-5502982D01*
X8708749Y-5485523D01*
X8695387Y-5472161D01*
X8690000Y-5469930D01*
X8695387Y-5467699D01*
X8708749Y-5454337D01*
X8715980Y-5436878D01*
X8715980Y-5417982D01*
X8708749Y-5400523D01*
X8695387Y-5387161D01*
X8677928Y-5379930D01*
X8659032Y-5379930D01*
X8641573Y-5387161D01*
X8628211Y-5400523D01*
X8625980Y-5405911D01*
X8623749Y-5400523D01*
X8610387Y-5387161D01*
X8592928Y-5379930D01*
X8574032Y-5379930D01*
X8556573Y-5387161D01*
X8543211Y-5400523D01*
X8535980Y-5417982D01*
X8346080Y-5417982D01*
X8346080Y-5339080D01*
X8344367Y-5330470D01*
X8339490Y-5323170D01*
X8332190Y-5318293D01*
X8323580Y-5316580D01*
X7625080Y-5316580D01*
X7616470Y-5318293D01*
X7609170Y-5323170D01*
X7604293Y-5330470D01*
X7602580Y-5339080D01*
X7602580Y-6532880D01*
X7604293Y-6541490D01*
X7609170Y-6548790D01*
X7616470Y-6553667D01*
X7625080Y-6555380D01*
X7679357Y-6555380D01*
X7678780Y-6558280D01*
X7678780Y-7028180D01*
X7680493Y-7036790D01*
X7685370Y-7044090D01*
X7692670Y-7048967D01*
X7701280Y-7050680D01*
X8110580Y-7050680D01*
X8110580Y-7352280D01*
X8099783Y-7352280D01*
X8096582Y-7351643D01*
X8087064Y-7353537D01*
X8083901Y-7354166D01*
X8073151Y-7361349D01*
X8071338Y-7364062D01*
X7788360Y-7647040D01*
X7785646Y-7648853D01*
X7778486Y-7659569D01*
X7775299Y-7651873D01*
X7761937Y-7638511D01*
X7756549Y-7636280D01*
X7761937Y-7634049D01*
X7775299Y-7620687D01*
X7782530Y-7603228D01*
X7782530Y-7584332D01*
X7775299Y-7566873D01*
X7761937Y-7553511D01*
X7756549Y-7551280D01*
X7761937Y-7549049D01*
X7775299Y-7535687D01*
X7782530Y-7518228D01*
X7782530Y-7499332D01*
X7775299Y-7481873D01*
X7761937Y-7468511D01*
X7757757Y-7466780D01*
X7761937Y-7465049D01*
X7775299Y-7451687D01*
X7782530Y-7434228D01*
X7782530Y-7415332D01*
X7775299Y-7397873D01*
X7761937Y-7384511D01*
X7756549Y-7382280D01*
X7761937Y-7380049D01*
X7775299Y-7366687D01*
X7782530Y-7349228D01*
X7782530Y-7330332D01*
X7775299Y-7312873D01*
X7761937Y-7299511D01*
X7756549Y-7297280D01*
X7761937Y-7295049D01*
X7775299Y-7281687D01*
X7782530Y-7264228D01*
X7782530Y-7245332D01*
X7775299Y-7227873D01*
X7761937Y-7214511D01*
X7756549Y-7212280D01*
X7761937Y-7210049D01*
X7775299Y-7196687D01*
X7782530Y-7179228D01*
X7782530Y-7160332D01*
X7775299Y-7142873D01*
X7761937Y-7129511D01*
X7744478Y-7122280D01*
X7725582Y-7122280D01*
X7708123Y-7129511D01*
X7694761Y-7142873D01*
X7687530Y-7160332D01*
X7687530Y-7179228D01*
X7694761Y-7196687D01*
X7708123Y-7210049D01*
X7713510Y-7212280D01*
X7708123Y-7214511D01*
X7694761Y-7227873D01*
X7687530Y-7245332D01*
X7687530Y-7264228D01*
X7694761Y-7281687D01*
X7708123Y-7295049D01*
X7713510Y-7297280D01*
X7708123Y-7299511D01*
X7694761Y-7312873D01*
X7687530Y-7330332D01*
X7687530Y-7349228D01*
X7694761Y-7366687D01*
X7708123Y-7380049D01*
X7713510Y-7382280D01*
X7708123Y-7384511D01*
X7694761Y-7397873D01*
X7687530Y-7415332D01*
X7687530Y-7434228D01*
X7694761Y-7451687D01*
X7708123Y-7465049D01*
X7712303Y-7466780D01*
X7708123Y-7468511D01*
X7694761Y-7481873D01*
X7687530Y-7499332D01*
X7687530Y-7518228D01*
X7694761Y-7535687D01*
X7708123Y-7549049D01*
X7713510Y-7551280D01*
X7708123Y-7553511D01*
X7694761Y-7566873D01*
X7687530Y-7584332D01*
X7687530Y-7603228D01*
X7694761Y-7620687D01*
X7708123Y-7634049D01*
X7713510Y-7636280D01*
X7708123Y-7638511D01*
X7694761Y-7651873D01*
X7687530Y-7669332D01*
X7687530Y-7688228D01*
X7694761Y-7705687D01*
X7708123Y-7719049D01*
X7725582Y-7726280D01*
X7744478Y-7726280D01*
X7761937Y-7719049D01*
X7775299Y-7705687D01*
X7776578Y-7702599D01*
X7776578Y-7973720D01*
X6942719Y-8807579D01*
X6819015Y-8807579D01*
X6811247Y-8799810D01*
X6793788Y-8792579D01*
X6774892Y-8792579D01*
X6757433Y-8799810D01*
X6744071Y-8813172D01*
X6736840Y-8830631D01*
X6736840Y-8849527D01*
X6744071Y-8866986D01*
X6757433Y-8880348D01*
X6774892Y-8887579D01*
X6793788Y-8887579D01*
X6811247Y-8880348D01*
X6819015Y-8872579D01*
X6927218Y-8872579D01*
X6593043Y-9206754D01*
X6590329Y-9208568D01*
X6583146Y-9219318D01*
X6583146Y-9219318D01*
X6580623Y-9231999D01*
X6581260Y-9235200D01*
X6581260Y-10158273D01*
X6581260Y-10158274D01*
X6581260Y-10162155D01*
X6573491Y-10169923D01*
X6566260Y-10187382D01*
X6566260Y-10206278D01*
X6573491Y-10223737D01*
X6586853Y-10237099D01*
X6604312Y-10244330D01*
X6623208Y-10244330D01*
X6640667Y-10237099D01*
X6654029Y-10223737D01*
X6661260Y-10206278D01*
X6661260Y-10187382D01*
X6654029Y-10169923D01*
X6646260Y-10162155D01*
X6646260Y-9245461D01*
X6683327Y-9208394D01*
X6683327Y-10160339D01*
X6683327Y-10160339D01*
X6683327Y-10164220D01*
X6675558Y-10171989D01*
X6668327Y-10189447D01*
X6668327Y-10208344D01*
X6675558Y-10225802D01*
X6688920Y-10239164D01*
X6706378Y-10246396D01*
X6725275Y-10246396D01*
X6742733Y-10239164D01*
X6751840Y-10230057D01*
X6751840Y-10306558D01*
X6552680Y-10505718D01*
X6552680Y-10149231D01*
X6553317Y-10146030D01*
X6550794Y-10133349D01*
X6547446Y-10128338D01*
X6543611Y-10122599D01*
X6540897Y-10120786D01*
X6495530Y-10075418D01*
X6495530Y-10060279D01*
X6494380Y-10054499D01*
X6494380Y-9310755D01*
X6502149Y-9302987D01*
X6509380Y-9285528D01*
X6509380Y-9266632D01*
X6502149Y-9249173D01*
X6488787Y-9235811D01*
X6471329Y-9228580D01*
X6452432Y-9228580D01*
X6439379Y-9233987D01*
X6439379Y-9117093D01*
X6585347Y-8971124D01*
X6588061Y-8969311D01*
X6595244Y-8958561D01*
X6597130Y-8949081D01*
X6597130Y-8949081D01*
X6597767Y-8945880D01*
X6597130Y-8942679D01*
X6597130Y-8688505D01*
X6604673Y-8696049D01*
X6622132Y-8703280D01*
X6641028Y-8703280D01*
X6658487Y-8696049D01*
X6671849Y-8682687D01*
X6674080Y-8677300D01*
X6676311Y-8682687D01*
X6689673Y-8696049D01*
X6707132Y-8703280D01*
X6726028Y-8703280D01*
X6743487Y-8696049D01*
X6756849Y-8682687D01*
X6759080Y-8677300D01*
X6761311Y-8682687D01*
X6774673Y-8696049D01*
X6792132Y-8703280D01*
X6811028Y-8703280D01*
X6828487Y-8696049D01*
X6841849Y-8682687D01*
X6844080Y-8677300D01*
X6846311Y-8682687D01*
X6859673Y-8696049D01*
X6877132Y-8703280D01*
X6896028Y-8703280D01*
X6913487Y-8696049D01*
X6926849Y-8682687D01*
X6929080Y-8677300D01*
X6931311Y-8682687D01*
X6944673Y-8696049D01*
X6962132Y-8703280D01*
X6981028Y-8703280D01*
X6998487Y-8696049D01*
X7011849Y-8682687D01*
X7019080Y-8665228D01*
X7019080Y-8646332D01*
X7011849Y-8628873D01*
X6998487Y-8615511D01*
X6993099Y-8613280D01*
X6998487Y-8611049D01*
X7011849Y-8597687D01*
X7019080Y-8580228D01*
X7019080Y-8561332D01*
X7011849Y-8543873D01*
X6998487Y-8530511D01*
X6981028Y-8523280D01*
X6962132Y-8523280D01*
X6944673Y-8530511D01*
X6931311Y-8543873D01*
X6929080Y-8549261D01*
X6926849Y-8543873D01*
X6913487Y-8530511D01*
X6896028Y-8523280D01*
X6877132Y-8523280D01*
X6859673Y-8530511D01*
X6846311Y-8543873D01*
X6844080Y-8549261D01*
X6841849Y-8543873D01*
X6828487Y-8530511D01*
X6811028Y-8523280D01*
X6792132Y-8523280D01*
X6774673Y-8530511D01*
X6761311Y-8543873D01*
X6759080Y-8549261D01*
X6756849Y-8543873D01*
X6743487Y-8530511D01*
X6726028Y-8523280D01*
X6707132Y-8523280D01*
X6689673Y-8530511D01*
X6676311Y-8543873D01*
X6674080Y-8549261D01*
X6671849Y-8543873D01*
X6658487Y-8530511D01*
X6641028Y-8523280D01*
X6622132Y-8523280D01*
X6604673Y-8530511D01*
X6597130Y-8538055D01*
X6597130Y-8476742D01*
X6698742Y-8375130D01*
X7241155Y-8375130D01*
X7248923Y-8382899D01*
X7266382Y-8390130D01*
X7285278Y-8390130D01*
X7302737Y-8382899D01*
X7316099Y-8369537D01*
X7323330Y-8352078D01*
X7323330Y-8333182D01*
X7316099Y-8315723D01*
X7302737Y-8302361D01*
X7285278Y-8295130D01*
X7266382Y-8295130D01*
X7248923Y-8302361D01*
X7241155Y-8310130D01*
X7163792Y-8310130D01*
X7290197Y-8183724D01*
X7292911Y-8181911D01*
X7300094Y-8171161D01*
X7301980Y-8161681D01*
X7302616Y-8158480D01*
X7301980Y-8155279D01*
X7301980Y-7945505D01*
X7309748Y-7937737D01*
X7316980Y-7920278D01*
X7316980Y-7901382D01*
X7309748Y-7883923D01*
X7296386Y-7870561D01*
X7278928Y-7863330D01*
X7260031Y-7863330D01*
X7242573Y-7870561D01*
X7229211Y-7883923D01*
X7221980Y-7901382D01*
X7221980Y-7920278D01*
X7229211Y-7937737D01*
X7236980Y-7945505D01*
X7236980Y-8145018D01*
X7139580Y-8242418D01*
X7139580Y-7766880D01*
X7441996Y-7766880D01*
X7452520Y-7764787D01*
X7461441Y-7758825D01*
X7467403Y-7749904D01*
X7469496Y-7739380D01*
X7469496Y-7723801D01*
X7475482Y-7726280D01*
X7494378Y-7726280D01*
X7511837Y-7719049D01*
X7525199Y-7705687D01*
X7532430Y-7688228D01*
X7532430Y-7669332D01*
X7525199Y-7651873D01*
X7511837Y-7638511D01*
X7506449Y-7636280D01*
X7511837Y-7634049D01*
X7525199Y-7620687D01*
X7532430Y-7603228D01*
X7532430Y-7584332D01*
X7525199Y-7566873D01*
X7511837Y-7553511D01*
X7506449Y-7551280D01*
X7511837Y-7549049D01*
X7525199Y-7535687D01*
X7532430Y-7518228D01*
X7532430Y-7499332D01*
X7525199Y-7481873D01*
X7511837Y-7468511D01*
X7507657Y-7466780D01*
X7511837Y-7465049D01*
X7525199Y-7451687D01*
X7532430Y-7434228D01*
X7532430Y-7415332D01*
X7525199Y-7397873D01*
X7511837Y-7384511D01*
X7506449Y-7382280D01*
X7511837Y-7380049D01*
X7525199Y-7366687D01*
X7532430Y-7349228D01*
X7532430Y-7330332D01*
X7525199Y-7312873D01*
X7511837Y-7299511D01*
X7506449Y-7297280D01*
X7511837Y-7295049D01*
X7525199Y-7281687D01*
X7532430Y-7264228D01*
X7532430Y-7245332D01*
X7525199Y-7227873D01*
X7511837Y-7214511D01*
X7506449Y-7212280D01*
X7511837Y-7210049D01*
X7525199Y-7196687D01*
X7532430Y-7179228D01*
X7532430Y-7160332D01*
X7525199Y-7142873D01*
X7511837Y-7129511D01*
X7506449Y-7127280D01*
X7511837Y-7125049D01*
X7525199Y-7111687D01*
X7532430Y-7094228D01*
X7532430Y-7075332D01*
X7525199Y-7057873D01*
X7511837Y-7044511D01*
X7494378Y-7037280D01*
X7475482Y-7037280D01*
X7469496Y-7039759D01*
X7469496Y-6951980D01*
X7467403Y-6941456D01*
X7461441Y-6932535D01*
X7452520Y-6926573D01*
X7441996Y-6924480D01*
X6764930Y-6924480D01*
X6764930Y-6209030D01*
X6763217Y-6200420D01*
X6758340Y-6193120D01*
X6751040Y-6188243D01*
X6742430Y-6186530D01*
X6043930Y-6186530D01*
X6035320Y-6188243D01*
X6028020Y-6193120D01*
X6023143Y-6200420D01*
X6021430Y-6209030D01*
X5993686Y-6209030D01*
X6098538Y-6098538D01*
X6199497Y-6002732D01*
X6860030Y-6002732D01*
X6860030Y-6021628D01*
X6867261Y-6039087D01*
X6880623Y-6052449D01*
X6898082Y-6059680D01*
X6916978Y-6059680D01*
X6934437Y-6052449D01*
X6947799Y-6039087D01*
X6955030Y-6021628D01*
X6955030Y-6002732D01*
X6947799Y-5985273D01*
X6934437Y-5971911D01*
X6916978Y-5964680D01*
X6898082Y-5964680D01*
X6880623Y-5971911D01*
X6867261Y-5985273D01*
X6860030Y-6002732D01*
X6199497Y-6002732D01*
X6308072Y-5899698D01*
X6527725Y-5712097D01*
X6678593Y-5596332D01*
X7348980Y-5596332D01*
X7348980Y-5615228D01*
X7356211Y-5632687D01*
X7369573Y-5646049D01*
X7387032Y-5653280D01*
X7405928Y-5653280D01*
X7423387Y-5646049D01*
X7436749Y-5632687D01*
X7443980Y-5615228D01*
X7443980Y-5596332D01*
X7436749Y-5578873D01*
X7423387Y-5565511D01*
X7405928Y-5558280D01*
X7387032Y-5558280D01*
X7369573Y-5565511D01*
X7356211Y-5578873D01*
X7348980Y-5596332D01*
X6678593Y-5596332D01*
X6756895Y-5536249D01*
X6994954Y-5372635D01*
X7241250Y-5221705D01*
X7495107Y-5083872D01*
X7755831Y-4959513D01*
X8022705Y-4848970D01*
X8122308Y-4813699D01*
X9817500Y-4813699D01*
X9817500Y-4886302D01*
X9845284Y-4953378D01*
X9896622Y-5004716D01*
X9963699Y-5032500D01*
X10036302Y-5032500D01*
X10103378Y-5004716D01*
X10154716Y-4953378D01*
X10182500Y-4886302D01*
X10182500Y-4813699D01*
X10154716Y-4746622D01*
X10103378Y-4695284D01*
X10036302Y-4667500D01*
X9963699Y-4667500D01*
X9896622Y-4695284D01*
X9845284Y-4746622D01*
X9817500Y-4813699D01*
X8122308Y-4813699D01*
X8294999Y-4752546D01*
X8571966Y-4670504D01*
X8852847Y-4603071D01*
X9136873Y-4550430D01*
X9423264Y-4512725D01*
X9711236Y-4490062D01*
X10000000Y-4482500D01*
X10288764Y-4490062D01*
X10288764Y-4490062D01*
G37*
X10288764Y-4490062D02*
X10576736Y-4512725D01*
X10863127Y-4550430D01*
X11147153Y-4603071D01*
X11428034Y-4670504D01*
X11705001Y-4752546D01*
X11977295Y-4848970D01*
X12244169Y-4959513D01*
X12504893Y-5083872D01*
X12758750Y-5221705D01*
X13005046Y-5372635D01*
X13243105Y-5536249D01*
X13472275Y-5712097D01*
X13691928Y-5899698D01*
X13901462Y-6098538D01*
X14100302Y-6308072D01*
X14287903Y-6527725D01*
X14463751Y-6756895D01*
X14627365Y-6994954D01*
X14778295Y-7241250D01*
X14916128Y-7495107D01*
X15040487Y-7755831D01*
X15151030Y-8022705D01*
X15247454Y-8294999D01*
X15329496Y-8571966D01*
X15396929Y-8852847D01*
X15449570Y-9136873D01*
X15487275Y-9423264D01*
X15509938Y-9711236D01*
X15517500Y-10000000D01*
X15509938Y-10288764D01*
X15487275Y-10576736D01*
X15449570Y-10863127D01*
X15396929Y-11147153D01*
X15329496Y-11428034D01*
X15247454Y-11705001D01*
X15151030Y-11977295D01*
X15040487Y-12244169D01*
X14916128Y-12504893D01*
X14778295Y-12758750D01*
X14627365Y-13005046D01*
X14463751Y-13243105D01*
X14287903Y-13472275D01*
X14100302Y-13691928D01*
X13901462Y-13901462D01*
X13691928Y-14100302D01*
X13472275Y-14287903D01*
X13243105Y-14463751D01*
X13005046Y-14627365D01*
X12758750Y-14778295D01*
X12504893Y-14916128D01*
X12244169Y-15040487D01*
X11977295Y-15151030D01*
X11705001Y-15247454D01*
X11428034Y-15329496D01*
X11147153Y-15396929D01*
X10863127Y-15449570D01*
X10576736Y-15487275D01*
X10288764Y-15509938D01*
X10000000Y-15517500D01*
X9711236Y-15509938D01*
X9423264Y-15487275D01*
X9136873Y-15449570D01*
X8852847Y-15396929D01*
X8571966Y-15329496D01*
X8294999Y-15247454D01*
X8022705Y-15151030D01*
X7755831Y-15040487D01*
X7495107Y-14916128D01*
X7241250Y-14778295D01*
X6994954Y-14627365D01*
X6756895Y-14463751D01*
X6744945Y-14454582D01*
X10771630Y-14454582D01*
X10771630Y-14473478D01*
X10778861Y-14490937D01*
X10792223Y-14504299D01*
X10809682Y-14511530D01*
X10828578Y-14511530D01*
X10846037Y-14504299D01*
X10859399Y-14490937D01*
X10866630Y-14473478D01*
X10866630Y-14454582D01*
X10859399Y-14437123D01*
X10846037Y-14423761D01*
X10828578Y-14416530D01*
X10809682Y-14416530D01*
X10792223Y-14423761D01*
X10778861Y-14437123D01*
X10771630Y-14454582D01*
X6744945Y-14454582D01*
X6527725Y-14287903D01*
X6360522Y-14145098D01*
X6641752Y-14145098D01*
X6641752Y-14190848D01*
X6659259Y-14233115D01*
X6691609Y-14265465D01*
X6733877Y-14282973D01*
X6779627Y-14282973D01*
X6821894Y-14265465D01*
X6854244Y-14233115D01*
X6867720Y-14200582D01*
X7139430Y-14200582D01*
X7139430Y-14219478D01*
X7146661Y-14236937D01*
X7160023Y-14250299D01*
X7177482Y-14257530D01*
X7196378Y-14257530D01*
X7213837Y-14250299D01*
X7227199Y-14236937D01*
X7234430Y-14219478D01*
X7234430Y-14200582D01*
X7227199Y-14183123D01*
X7213837Y-14169761D01*
X7196378Y-14162530D01*
X7177482Y-14162530D01*
X7160023Y-14169761D01*
X7146661Y-14183123D01*
X7139430Y-14200582D01*
X6867720Y-14200582D01*
X6871752Y-14190848D01*
X6871752Y-14145351D01*
X11800076Y-14145351D01*
X11800076Y-14164247D01*
X11807307Y-14181706D01*
X11820669Y-14195068D01*
X11838128Y-14202299D01*
X11857024Y-14202299D01*
X11874483Y-14195068D01*
X11887845Y-14181706D01*
X11895076Y-14164247D01*
X11895076Y-14145351D01*
X11887845Y-14127892D01*
X11874483Y-14114530D01*
X11857024Y-14107299D01*
X11838128Y-14107299D01*
X11820669Y-14114530D01*
X11807307Y-14127892D01*
X11800076Y-14145351D01*
X6871752Y-14145351D01*
X6871752Y-14145098D01*
X6854244Y-14102831D01*
X6821894Y-14070481D01*
X6779627Y-14052973D01*
X6733877Y-14052973D01*
X6691609Y-14070481D01*
X6659259Y-14102831D01*
X6641752Y-14145098D01*
X6360522Y-14145098D01*
X6308072Y-14100302D01*
X6098538Y-13901462D01*
X6057899Y-13858637D01*
X6304664Y-13858637D01*
X6304664Y-13884297D01*
X6314483Y-13908003D01*
X6332627Y-13926147D01*
X6356334Y-13935967D01*
X6381993Y-13935967D01*
X6405700Y-13926147D01*
X6423844Y-13908003D01*
X6433664Y-13884297D01*
X6433664Y-13878289D01*
X6446699Y-13891324D01*
X6450350Y-13892837D01*
X6432213Y-13900349D01*
X6414069Y-13918493D01*
X6404249Y-13942200D01*
X6404249Y-13967859D01*
X6414069Y-13991566D01*
X6432213Y-14009710D01*
X6455920Y-14019529D01*
X6481579Y-14019529D01*
X6505286Y-14009710D01*
X6520886Y-13994109D01*
X6491591Y-14029023D01*
X6487285Y-14036870D01*
X6486311Y-14045768D01*
X6488816Y-14054362D01*
X6494418Y-14061342D01*
X6558766Y-14115336D01*
X6566614Y-14119642D01*
X6575511Y-14120616D01*
X6584105Y-14118111D01*
X6591086Y-14112509D01*
X6645080Y-14048161D01*
X6649385Y-14040313D01*
X6650360Y-14031416D01*
X6647855Y-14022822D01*
X6642726Y-14016432D01*
X11965430Y-14016432D01*
X11965430Y-14035328D01*
X11972661Y-14052787D01*
X11986023Y-14066149D01*
X12003482Y-14073380D01*
X12022378Y-14073380D01*
X12039837Y-14066149D01*
X12053199Y-14052787D01*
X12060430Y-14035328D01*
X12060430Y-14016432D01*
X12092430Y-14016432D01*
X12092430Y-14035328D01*
X12099661Y-14052787D01*
X12113023Y-14066149D01*
X12130482Y-14073380D01*
X12149378Y-14073380D01*
X12166837Y-14066149D01*
X12180199Y-14052787D01*
X12187430Y-14035328D01*
X12187430Y-14016432D01*
X12180199Y-13998973D01*
X12166837Y-13985611D01*
X12149378Y-13978380D01*
X12130482Y-13978380D01*
X12113023Y-13985611D01*
X12099661Y-13998973D01*
X12092430Y-14016432D01*
X12060430Y-14016432D01*
X12053199Y-13998973D01*
X12039837Y-13985611D01*
X12022378Y-13978380D01*
X12003482Y-13978380D01*
X11986023Y-13985611D01*
X11972661Y-13998973D01*
X11965430Y-14016432D01*
X6642726Y-14016432D01*
X6642252Y-14015841D01*
X6602009Y-13982073D01*
X6619357Y-13974887D01*
X6637502Y-13956743D01*
X6647321Y-13933036D01*
X6647321Y-13907376D01*
X6637502Y-13883670D01*
X6619357Y-13865526D01*
X6595651Y-13855706D01*
X6569991Y-13855706D01*
X6546285Y-13865526D01*
X6528141Y-13883670D01*
X6518321Y-13907376D01*
X6518321Y-13913384D01*
X6505286Y-13900349D01*
X6501635Y-13898837D01*
X6519772Y-13891324D01*
X6537916Y-13873180D01*
X6547735Y-13849474D01*
X6547735Y-13823814D01*
X6537916Y-13800108D01*
X6519772Y-13781963D01*
X6496065Y-13772144D01*
X6470406Y-13772144D01*
X6446699Y-13781963D01*
X6428555Y-13800108D01*
X6418735Y-13823814D01*
X6418735Y-13829822D01*
X6405700Y-13816787D01*
X6381993Y-13806967D01*
X6356334Y-13806967D01*
X6332627Y-13816787D01*
X6314483Y-13834931D01*
X6304664Y-13858637D01*
X6057899Y-13858637D01*
X5899698Y-13691928D01*
X5894213Y-13685505D01*
X6094030Y-13685505D01*
X6094030Y-13731255D01*
X6111538Y-13773522D01*
X6143888Y-13805872D01*
X6186155Y-13823380D01*
X6231905Y-13823380D01*
X6274172Y-13805872D01*
X6306522Y-13773522D01*
X6314567Y-13754100D01*
X9400154Y-13754100D01*
X9408497Y-13796044D01*
X9432257Y-13831603D01*
X9467816Y-13855363D01*
X9499173Y-13861600D01*
X9520348Y-13861600D01*
X9551704Y-13855363D01*
X9587263Y-13831603D01*
X9611023Y-13796044D01*
X9619366Y-13754100D01*
X9654154Y-13754100D01*
X9662497Y-13796044D01*
X9686257Y-13831603D01*
X9721816Y-13855363D01*
X9753173Y-13861600D01*
X9774348Y-13861600D01*
X9805704Y-13855363D01*
X9841263Y-13831603D01*
X9865023Y-13796044D01*
X9873366Y-13754100D01*
X9873113Y-13752830D01*
X10087224Y-13752830D01*
X10095567Y-13794774D01*
X10119327Y-13830333D01*
X10154886Y-13854093D01*
X10186243Y-13860330D01*
X10207418Y-13860330D01*
X10238774Y-13854093D01*
X10261913Y-13838632D01*
X12238480Y-13838632D01*
X12238480Y-13857528D01*
X12245711Y-13874987D01*
X12259073Y-13888349D01*
X12276532Y-13895580D01*
X12295428Y-13895580D01*
X12312887Y-13888349D01*
X12326249Y-13874987D01*
X12333480Y-13857528D01*
X12333480Y-13838632D01*
X12326249Y-13821173D01*
X12312887Y-13807811D01*
X12295428Y-13800580D01*
X12276532Y-13800580D01*
X12259073Y-13807811D01*
X12245711Y-13821173D01*
X12238480Y-13838632D01*
X10261913Y-13838632D01*
X10274333Y-13830333D01*
X10298093Y-13794774D01*
X10306436Y-13752830D01*
X10298093Y-13710886D01*
X10274333Y-13675327D01*
X10238774Y-13651567D01*
X10207418Y-13645330D01*
X10186243Y-13645330D01*
X10154886Y-13651567D01*
X10119327Y-13675327D01*
X10095567Y-13710886D01*
X10087224Y-13752830D01*
X9873113Y-13752830D01*
X9865023Y-13712156D01*
X9841263Y-13676597D01*
X9805704Y-13652837D01*
X9774348Y-13646600D01*
X9753173Y-13646600D01*
X9721816Y-13652837D01*
X9686257Y-13676597D01*
X9662497Y-13712156D01*
X9654154Y-13754100D01*
X9619366Y-13754100D01*
X9611023Y-13712156D01*
X9587263Y-13676597D01*
X9551704Y-13652837D01*
X9520348Y-13646600D01*
X9499173Y-13646600D01*
X9467816Y-13652837D01*
X9432257Y-13676597D01*
X9408497Y-13712156D01*
X9400154Y-13754100D01*
X6314567Y-13754100D01*
X6324030Y-13731255D01*
X6324030Y-13685505D01*
X6306522Y-13643238D01*
X6298716Y-13635432D01*
X7304530Y-13635432D01*
X7304530Y-13654328D01*
X7311761Y-13671787D01*
X7325123Y-13685149D01*
X7342582Y-13692380D01*
X7361478Y-13692380D01*
X7378937Y-13685149D01*
X7392299Y-13671787D01*
X7399530Y-13654328D01*
X7399530Y-13635432D01*
X7717280Y-13635432D01*
X7717280Y-13654328D01*
X7724511Y-13671787D01*
X7737873Y-13685149D01*
X7755332Y-13692380D01*
X7774228Y-13692380D01*
X7791687Y-13685149D01*
X7805049Y-13671787D01*
X7812280Y-13654328D01*
X7812280Y-13635432D01*
X7805049Y-13617973D01*
X7791687Y-13604611D01*
X7774228Y-13597380D01*
X7755332Y-13597380D01*
X7737873Y-13604611D01*
X7724511Y-13617973D01*
X7717280Y-13635432D01*
X7399530Y-13635432D01*
X7392299Y-13617973D01*
X7378937Y-13604611D01*
X7361478Y-13597380D01*
X7342582Y-13597380D01*
X7325123Y-13604611D01*
X7311761Y-13617973D01*
X7304530Y-13635432D01*
X6298716Y-13635432D01*
X6274172Y-13610888D01*
X6231905Y-13593380D01*
X6186155Y-13593380D01*
X6143888Y-13610888D01*
X6111538Y-13643238D01*
X6094030Y-13685505D01*
X5894213Y-13685505D01*
X5733273Y-13497068D01*
X7013767Y-13497068D01*
X7013767Y-13515965D01*
X7020998Y-13533423D01*
X7033280Y-13545705D01*
X7024511Y-13554473D01*
X7017280Y-13571932D01*
X7017280Y-13590828D01*
X7024511Y-13608287D01*
X7037873Y-13621649D01*
X7055332Y-13628880D01*
X7074228Y-13628880D01*
X7091686Y-13621649D01*
X7105048Y-13608287D01*
X7112280Y-13590828D01*
X7112280Y-13571932D01*
X7105048Y-13554473D01*
X7092767Y-13542192D01*
X7101535Y-13533423D01*
X7108767Y-13515965D01*
X7108767Y-13497068D01*
X7101535Y-13479610D01*
X7088173Y-13466248D01*
X7070715Y-13459017D01*
X7051818Y-13459017D01*
X7034360Y-13466248D01*
X7020998Y-13479610D01*
X7013767Y-13497068D01*
X5733273Y-13497068D01*
X5712097Y-13472275D01*
X5681371Y-13432232D01*
X7641080Y-13432232D01*
X7641080Y-13451129D01*
X7648311Y-13468587D01*
X7661673Y-13481949D01*
X7679132Y-13489180D01*
X7698028Y-13489180D01*
X7715487Y-13481949D01*
X7728849Y-13468587D01*
X7736080Y-13451129D01*
X7736080Y-13432232D01*
X7728849Y-13414774D01*
X7720906Y-13406832D01*
X7999660Y-13406832D01*
X7999660Y-13425728D01*
X8006891Y-13443187D01*
X8020253Y-13456549D01*
X8037712Y-13463780D01*
X8056608Y-13463780D01*
X8074067Y-13456549D01*
X8087429Y-13443187D01*
X8094660Y-13425728D01*
X8094660Y-13406832D01*
X8087429Y-13389373D01*
X8074067Y-13376011D01*
X8056608Y-13368780D01*
X8037712Y-13368780D01*
X8020253Y-13376011D01*
X8006891Y-13389373D01*
X7999660Y-13406832D01*
X7720906Y-13406832D01*
X7715487Y-13401412D01*
X7698028Y-13394180D01*
X7679132Y-13394180D01*
X7661673Y-13401412D01*
X7648311Y-13414774D01*
X7641080Y-13432232D01*
X5681371Y-13432232D01*
X5536249Y-13243105D01*
X5525329Y-13227217D01*
X7614631Y-13227217D01*
X7614631Y-13246114D01*
X7621862Y-13263572D01*
X7635224Y-13276934D01*
X7652682Y-13284166D01*
X7671579Y-13284166D01*
X7689037Y-13276934D01*
X7702399Y-13263572D01*
X7709631Y-13246114D01*
X7709631Y-13227217D01*
X7706687Y-13220112D01*
X7947160Y-13220112D01*
X7947160Y-13239008D01*
X7954391Y-13256467D01*
X7967753Y-13269829D01*
X7985212Y-13277060D01*
X7999734Y-13277060D01*
X8091527Y-13368854D01*
X8093201Y-13371359D01*
X8097766Y-13374409D01*
X8103124Y-13377989D01*
X8114830Y-13380318D01*
X8117784Y-13379730D01*
X8646915Y-13379730D01*
X8648875Y-13381039D01*
X8657626Y-13382780D01*
X8660580Y-13383368D01*
X8663535Y-13382780D01*
X9444914Y-13382780D01*
X9446737Y-13384604D01*
X9448411Y-13387109D01*
X9456629Y-13392600D01*
X9458334Y-13393739D01*
X9470040Y-13396068D01*
X9472994Y-13395480D01*
X9484694Y-13395480D01*
X9467816Y-13398837D01*
X9432257Y-13422597D01*
X9408497Y-13458156D01*
X9400154Y-13500100D01*
X9408497Y-13542044D01*
X9432257Y-13577603D01*
X9467816Y-13601363D01*
X9499173Y-13607600D01*
X9520348Y-13607600D01*
X9551704Y-13601363D01*
X9587263Y-13577603D01*
X9611023Y-13542044D01*
X9619366Y-13500100D01*
X9654154Y-13500100D01*
X9662497Y-13542044D01*
X9686257Y-13577603D01*
X9721816Y-13601363D01*
X9753173Y-13607600D01*
X9774348Y-13607600D01*
X9805704Y-13601363D01*
X9841263Y-13577603D01*
X9865023Y-13542044D01*
X9873366Y-13500100D01*
X9873113Y-13498830D01*
X10087224Y-13498830D01*
X10095567Y-13540774D01*
X10119327Y-13576333D01*
X10154886Y-13600093D01*
X10186243Y-13606330D01*
X10207418Y-13606330D01*
X10238774Y-13600093D01*
X10274333Y-13576333D01*
X10298093Y-13540774D01*
X10306436Y-13498830D01*
X10298093Y-13456886D01*
X10274333Y-13421327D01*
X10238774Y-13397567D01*
X10207418Y-13391330D01*
X10186243Y-13391330D01*
X10154886Y-13397567D01*
X10119327Y-13421327D01*
X10095567Y-13456886D01*
X10087224Y-13498830D01*
X9873113Y-13498830D01*
X9865023Y-13458156D01*
X9841263Y-13422597D01*
X9805704Y-13398837D01*
X9774348Y-13392600D01*
X9753173Y-13392600D01*
X9721816Y-13398837D01*
X9686257Y-13422597D01*
X9662497Y-13458156D01*
X9654154Y-13500100D01*
X9619366Y-13500100D01*
X9611023Y-13458156D01*
X9587263Y-13422597D01*
X9551704Y-13398837D01*
X9534826Y-13395480D01*
X9641426Y-13395480D01*
X9644380Y-13396068D01*
X9647335Y-13395480D01*
X9656085Y-13393739D01*
X9666009Y-13387109D01*
X9667683Y-13384604D01*
X9702062Y-13350224D01*
X9702063Y-13350224D01*
X9711690Y-13340597D01*
X9721816Y-13347363D01*
X9753173Y-13353600D01*
X9774348Y-13353600D01*
X9805704Y-13347363D01*
X9841263Y-13323603D01*
X9865023Y-13288044D01*
X9873366Y-13246100D01*
X9873113Y-13244830D01*
X10087224Y-13244830D01*
X10095567Y-13286774D01*
X10119327Y-13322333D01*
X10154886Y-13346093D01*
X10186243Y-13352330D01*
X10207418Y-13352330D01*
X10238774Y-13346093D01*
X10274333Y-13322333D01*
X10298093Y-13286774D01*
X10306436Y-13244830D01*
X10298093Y-13202886D01*
X10274333Y-13167327D01*
X10238774Y-13143567D01*
X10207418Y-13137330D01*
X10186243Y-13137330D01*
X10154886Y-13143567D01*
X10119327Y-13167327D01*
X10095567Y-13202886D01*
X10087224Y-13244830D01*
X9873113Y-13244830D01*
X9865023Y-13204156D01*
X9841263Y-13168597D01*
X9805704Y-13144837D01*
X9774348Y-13138600D01*
X9753173Y-13138600D01*
X9721816Y-13144837D01*
X9686257Y-13168597D01*
X9662497Y-13204156D01*
X9654154Y-13246100D01*
X9662497Y-13288044D01*
X9669263Y-13298170D01*
X9659636Y-13307797D01*
X9659636Y-13307798D01*
X9631954Y-13335480D01*
X9569488Y-13335480D01*
X9587263Y-13323603D01*
X9611023Y-13288044D01*
X9619366Y-13246100D01*
X9611023Y-13204156D01*
X9587263Y-13168597D01*
X9551704Y-13144837D01*
X9520348Y-13138600D01*
X9499173Y-13138600D01*
X9467816Y-13144837D01*
X9432257Y-13168597D01*
X9408497Y-13204156D01*
X9400154Y-13246100D01*
X9408497Y-13288044D01*
X9431707Y-13322780D01*
X8671195Y-13322780D01*
X8669236Y-13321471D01*
X8660485Y-13319730D01*
X8657530Y-13319142D01*
X8654576Y-13319730D01*
X8127256Y-13319730D01*
X8042160Y-13234634D01*
X8042160Y-13220112D01*
X8035334Y-13203632D01*
X8052160Y-13203632D01*
X8052160Y-13222528D01*
X8059391Y-13239987D01*
X8072753Y-13253349D01*
X8090212Y-13260580D01*
X8109108Y-13260580D01*
X8126567Y-13253349D01*
X8139929Y-13239987D01*
X8147160Y-13222528D01*
X8147160Y-13203632D01*
X8139929Y-13186173D01*
X8126567Y-13172811D01*
X8109108Y-13165580D01*
X8090212Y-13165580D01*
X8072753Y-13172811D01*
X8059391Y-13186173D01*
X8052160Y-13203632D01*
X8035334Y-13203632D01*
X8034929Y-13202653D01*
X8021567Y-13189291D01*
X8004108Y-13182060D01*
X7985212Y-13182060D01*
X7967753Y-13189291D01*
X7954391Y-13202653D01*
X7947160Y-13220112D01*
X7706687Y-13220112D01*
X7702399Y-13209759D01*
X7689037Y-13196397D01*
X7671579Y-13189166D01*
X7652682Y-13189166D01*
X7635224Y-13196397D01*
X7621862Y-13209759D01*
X7614631Y-13227217D01*
X5525329Y-13227217D01*
X5373828Y-13006782D01*
X6815580Y-13006782D01*
X6815580Y-13025678D01*
X6822811Y-13043137D01*
X6836173Y-13056499D01*
X6853632Y-13063730D01*
X6872528Y-13063730D01*
X6889987Y-13056499D01*
X6903349Y-13043137D01*
X6910580Y-13025678D01*
X6910580Y-13006782D01*
X6903349Y-12989323D01*
X6889987Y-12975961D01*
X6872528Y-12968730D01*
X6853632Y-12968730D01*
X6836173Y-12975961D01*
X6822811Y-12989323D01*
X6815580Y-13006782D01*
X5373828Y-13006782D01*
X5372635Y-13005046D01*
X5237504Y-12784532D01*
X6815580Y-12784532D01*
X6815580Y-12803428D01*
X6822811Y-12820887D01*
X6836173Y-12834249D01*
X6853632Y-12841480D01*
X6872528Y-12841480D01*
X6889987Y-12834249D01*
X6903349Y-12820887D01*
X6910580Y-12803428D01*
X6910580Y-12784532D01*
X6903349Y-12767073D01*
X6889987Y-12753711D01*
X6872528Y-12746480D01*
X6853632Y-12746480D01*
X6836173Y-12753711D01*
X6822811Y-12767073D01*
X6815580Y-12784532D01*
X5237504Y-12784532D01*
X5221705Y-12758750D01*
X5102227Y-12538698D01*
X5357469Y-12538698D01*
X5357469Y-12611301D01*
X5385253Y-12678378D01*
X5436591Y-12729716D01*
X5503668Y-12757500D01*
X5576271Y-12757500D01*
X5643347Y-12729716D01*
X5694685Y-12678378D01*
X5722469Y-12611301D01*
X5722469Y-12538698D01*
X5694685Y-12471622D01*
X5643347Y-12420284D01*
X5576271Y-12392500D01*
X5503668Y-12392500D01*
X5436591Y-12420284D01*
X5385253Y-12471622D01*
X5357469Y-12538698D01*
X5102227Y-12538698D01*
X5083872Y-12504893D01*
X4959513Y-12244169D01*
X4862447Y-12009832D01*
X6244080Y-12009832D01*
X6244080Y-12028728D01*
X6251311Y-12046187D01*
X6264673Y-12059549D01*
X6282132Y-12066780D01*
X6301028Y-12066780D01*
X6318487Y-12059549D01*
X6331849Y-12046187D01*
X6339080Y-12028728D01*
X6339080Y-12009832D01*
X6331849Y-11992373D01*
X6318487Y-11979011D01*
X6301028Y-11971780D01*
X6282132Y-11971780D01*
X6264673Y-11979011D01*
X6251311Y-11992373D01*
X6244080Y-12009832D01*
X4862447Y-12009832D01*
X4848970Y-11977295D01*
X4806524Y-11857432D01*
X6269480Y-11857432D01*
X6269480Y-11876328D01*
X6276711Y-11893787D01*
X6290073Y-11907149D01*
X6307532Y-11914380D01*
X6326428Y-11914380D01*
X6343887Y-11907149D01*
X6357249Y-11893787D01*
X6364480Y-11876328D01*
X6364480Y-11857432D01*
X6357249Y-11839973D01*
X6343887Y-11826611D01*
X6326428Y-11819380D01*
X6307532Y-11819380D01*
X6290073Y-11826611D01*
X6276711Y-11839973D01*
X6269480Y-11857432D01*
X4806524Y-11857432D01*
X4752546Y-11705001D01*
X4703650Y-11539932D01*
X5964680Y-11539932D01*
X5964680Y-11558828D01*
X5971911Y-11576287D01*
X5985273Y-11589649D01*
X6002732Y-11596880D01*
X6021628Y-11596880D01*
X6039087Y-11589649D01*
X6052449Y-11576287D01*
X6059680Y-11558828D01*
X6059680Y-11539932D01*
X6052449Y-11522473D01*
X6039087Y-11509111D01*
X6021628Y-11501880D01*
X6002732Y-11501880D01*
X5985273Y-11509111D01*
X5971911Y-11522473D01*
X5964680Y-11539932D01*
X4703650Y-11539932D01*
X4670504Y-11428034D01*
X4603071Y-11147153D01*
X4550430Y-10863127D01*
X4545901Y-10828732D01*
X5977380Y-10828732D01*
X5977380Y-10847628D01*
X5984611Y-10865087D01*
X5997973Y-10878449D01*
X6015432Y-10885680D01*
X6034328Y-10885680D01*
X6051787Y-10878449D01*
X6065149Y-10865087D01*
X6072380Y-10847628D01*
X6072380Y-10828732D01*
X6065149Y-10811273D01*
X6051787Y-10797911D01*
X6034328Y-10790680D01*
X6015432Y-10790680D01*
X5997973Y-10797911D01*
X5984611Y-10811273D01*
X5977380Y-10828732D01*
X4545901Y-10828732D01*
X4530854Y-10714432D01*
X5977380Y-10714432D01*
X5977380Y-10733328D01*
X5984611Y-10750787D01*
X5997973Y-10764149D01*
X6015432Y-10771380D01*
X6034328Y-10771380D01*
X6051787Y-10764149D01*
X6065149Y-10750787D01*
X6072380Y-10733328D01*
X6072380Y-10714432D01*
X6065149Y-10696973D01*
X6051787Y-10683611D01*
X6034328Y-10676380D01*
X6015432Y-10676380D01*
X5997973Y-10683611D01*
X5984611Y-10696973D01*
X5977380Y-10714432D01*
X4530854Y-10714432D01*
X4515806Y-10600132D01*
X5977380Y-10600132D01*
X5977380Y-10619028D01*
X5984611Y-10636487D01*
X5997973Y-10649849D01*
X6015432Y-10657080D01*
X6034328Y-10657080D01*
X6051787Y-10649849D01*
X6065149Y-10636487D01*
X6072380Y-10619028D01*
X6072380Y-10600132D01*
X6091680Y-10600132D01*
X6091680Y-10619028D01*
X6098911Y-10636487D01*
X6112273Y-10649849D01*
X6129732Y-10657080D01*
X6148628Y-10657080D01*
X6166087Y-10649849D01*
X6176530Y-10639405D01*
X6176530Y-10694055D01*
X6166087Y-10683611D01*
X6148628Y-10676380D01*
X6129732Y-10676380D01*
X6112273Y-10683611D01*
X6098911Y-10696973D01*
X6091680Y-10714432D01*
X6091680Y-10733328D01*
X6098911Y-10750787D01*
X6112273Y-10764149D01*
X6129732Y-10771380D01*
X6148628Y-10771380D01*
X6166087Y-10764149D01*
X6176530Y-10753705D01*
X6176530Y-10808355D01*
X6166087Y-10797911D01*
X6148628Y-10790680D01*
X6129732Y-10790680D01*
X6112273Y-10797911D01*
X6098911Y-10811273D01*
X6091680Y-10828732D01*
X6091680Y-10847628D01*
X6098911Y-10865087D01*
X6112273Y-10878449D01*
X6129732Y-10885680D01*
X6148628Y-10885680D01*
X6166087Y-10878449D01*
X6176530Y-10868005D01*
X6176530Y-11194397D01*
X6167677Y-11190730D01*
X6148781Y-11190730D01*
X6131322Y-11197961D01*
X6117960Y-11211323D01*
X6110729Y-11228782D01*
X6110729Y-11247678D01*
X6117960Y-11265137D01*
X6131322Y-11278499D01*
X6148781Y-11285730D01*
X6160524Y-11285730D01*
X6155180Y-11298632D01*
X6155180Y-11317529D01*
X6162411Y-11334987D01*
X6175773Y-11348349D01*
X6193232Y-11355580D01*
X6212128Y-11355580D01*
X6229587Y-11348349D01*
X6242949Y-11334987D01*
X6250180Y-11317529D01*
X6250180Y-11298632D01*
X6242949Y-11281174D01*
X6239841Y-11278066D01*
X6241417Y-11270142D01*
X6258835Y-11277357D01*
X6277732Y-11277357D01*
X6278110Y-11277200D01*
X6271260Y-11293739D01*
X6271260Y-11312636D01*
X6278491Y-11330094D01*
X6291853Y-11343456D01*
X6309312Y-11350687D01*
X6328208Y-11350687D01*
X6345666Y-11343456D01*
X6359028Y-11330094D01*
X6366260Y-11312636D01*
X6366260Y-11293739D01*
X6360001Y-11278630D01*
X6361813Y-11279380D01*
X6380709Y-11279380D01*
X6398167Y-11272149D01*
X6411529Y-11258787D01*
X6418761Y-11241328D01*
X6418761Y-11222432D01*
X6411529Y-11204973D01*
X6398167Y-11191611D01*
X6380709Y-11184380D01*
X6361813Y-11184380D01*
X6344354Y-11191611D01*
X6330992Y-11204973D01*
X6323761Y-11222432D01*
X6323761Y-11241328D01*
X6330019Y-11256438D01*
X6328208Y-11255687D01*
X6309312Y-11255687D01*
X6308933Y-11255844D01*
X6315784Y-11239305D01*
X6315784Y-11220409D01*
X6308552Y-11202950D01*
X6295190Y-11189588D01*
X6277732Y-11182357D01*
X6258835Y-11182357D01*
X6241530Y-11189525D01*
X6241530Y-10828732D01*
X6345680Y-10828732D01*
X6345680Y-10847628D01*
X6352911Y-10865087D01*
X6366273Y-10878449D01*
X6383732Y-10885680D01*
X6402628Y-10885680D01*
X6420087Y-10878449D01*
X6433449Y-10865087D01*
X6440680Y-10847628D01*
X6440680Y-10828732D01*
X6433449Y-10811273D01*
X6420087Y-10797911D01*
X6402628Y-10790680D01*
X6383732Y-10790680D01*
X6366273Y-10797911D01*
X6352911Y-10811273D01*
X6345680Y-10828732D01*
X6241530Y-10828732D01*
X6241530Y-10727132D01*
X6345680Y-10727132D01*
X6345680Y-10746028D01*
X6352911Y-10763487D01*
X6366273Y-10776849D01*
X6383732Y-10784080D01*
X6402628Y-10784080D01*
X6420087Y-10776849D01*
X6433449Y-10763487D01*
X6440680Y-10746028D01*
X6440680Y-10727132D01*
X6433449Y-10709673D01*
X6420087Y-10696311D01*
X6402628Y-10689080D01*
X6383732Y-10689080D01*
X6366273Y-10696311D01*
X6352911Y-10709673D01*
X6345680Y-10727132D01*
X6241530Y-10727132D01*
X6241530Y-10625532D01*
X6345680Y-10625532D01*
X6345680Y-10644428D01*
X6352911Y-10661887D01*
X6366273Y-10675249D01*
X6383732Y-10682480D01*
X6402628Y-10682480D01*
X6420087Y-10675249D01*
X6433449Y-10661887D01*
X6440680Y-10644428D01*
X6440680Y-10625532D01*
X6433449Y-10608073D01*
X6420087Y-10594711D01*
X6402628Y-10587480D01*
X6383732Y-10587480D01*
X6366273Y-10594711D01*
X6352911Y-10608073D01*
X6345680Y-10625532D01*
X6241530Y-10625532D01*
X6241530Y-8267191D01*
X6296391Y-8212330D01*
X6307378Y-8212330D01*
X6324836Y-8205099D01*
X6338198Y-8191737D01*
X6345430Y-8174278D01*
X6345430Y-8155382D01*
X6338198Y-8137923D01*
X6324836Y-8124561D01*
X6307378Y-8117330D01*
X6288481Y-8117330D01*
X6271023Y-8124561D01*
X6257661Y-8137923D01*
X6250430Y-8155382D01*
X6250430Y-8166368D01*
X6188313Y-8228485D01*
X6185599Y-8230298D01*
X6179299Y-8239727D01*
X6178416Y-8241049D01*
X6175893Y-8253730D01*
X6176530Y-8256930D01*
X6176530Y-10579755D01*
X6166087Y-10569311D01*
X6148628Y-10562080D01*
X6129732Y-10562080D01*
X6112273Y-10569311D01*
X6098911Y-10582673D01*
X6091680Y-10600132D01*
X6072380Y-10600132D01*
X6065149Y-10582673D01*
X6051787Y-10569311D01*
X6034328Y-10562080D01*
X6015432Y-10562080D01*
X5997973Y-10569311D01*
X5984611Y-10582673D01*
X5977380Y-10600132D01*
X4515806Y-10600132D01*
X4512725Y-10576736D01*
X4490062Y-10288764D01*
X4487906Y-10206432D01*
X4554980Y-10206432D01*
X4554980Y-10225328D01*
X4562211Y-10242787D01*
X4575573Y-10256149D01*
X4593032Y-10263380D01*
X4611928Y-10263380D01*
X4629387Y-10256149D01*
X4642749Y-10242787D01*
X4646930Y-10232692D01*
X4651111Y-10242787D01*
X4664473Y-10256149D01*
X4681932Y-10263380D01*
X4700828Y-10263380D01*
X4718287Y-10256149D01*
X4731649Y-10242787D01*
X4735830Y-10232692D01*
X4740011Y-10242787D01*
X4753373Y-10256149D01*
X4770832Y-10263380D01*
X4789728Y-10263380D01*
X4807187Y-10256149D01*
X4820549Y-10242787D01*
X4827780Y-10225328D01*
X4827780Y-10206432D01*
X4820549Y-10188973D01*
X4807187Y-10175611D01*
X4789728Y-10168380D01*
X4770832Y-10168380D01*
X4753373Y-10175611D01*
X4740011Y-10188973D01*
X4735830Y-10199068D01*
X4731649Y-10188973D01*
X4718287Y-10175611D01*
X4700828Y-10168380D01*
X4681932Y-10168380D01*
X4664473Y-10175611D01*
X4651111Y-10188973D01*
X4646930Y-10199068D01*
X4642749Y-10188973D01*
X4629387Y-10175611D01*
X4611928Y-10168380D01*
X4593032Y-10168380D01*
X4575573Y-10175611D01*
X4562211Y-10188973D01*
X4554980Y-10206432D01*
X4487906Y-10206432D01*
X4482500Y-10000000D01*
X4484078Y-9939732D01*
X5634480Y-9939732D01*
X5634480Y-9958628D01*
X5641711Y-9976087D01*
X5655073Y-9989449D01*
X5665168Y-9993630D01*
X5655073Y-9997811D01*
X5641711Y-10011173D01*
X5634480Y-10028632D01*
X5634480Y-10047528D01*
X5641711Y-10064987D01*
X5655073Y-10078349D01*
X5665168Y-10082530D01*
X5655073Y-10086711D01*
X5641711Y-10100073D01*
X5634480Y-10117532D01*
X5634480Y-10136428D01*
X5641711Y-10153887D01*
X5655073Y-10167249D01*
X5672532Y-10174480D01*
X5691428Y-10174480D01*
X5708887Y-10167249D01*
X5722249Y-10153887D01*
X5729480Y-10136428D01*
X5729480Y-10117532D01*
X5722249Y-10100073D01*
X5708887Y-10086711D01*
X5698792Y-10082530D01*
X5708887Y-10078349D01*
X5722249Y-10064987D01*
X5729480Y-10047528D01*
X5729480Y-10028632D01*
X5722249Y-10011173D01*
X5708887Y-9997811D01*
X5698792Y-9993630D01*
X5708887Y-9989449D01*
X5722249Y-9976087D01*
X5729480Y-9958628D01*
X5729480Y-9939732D01*
X5722249Y-9922273D01*
X5708887Y-9908911D01*
X5691428Y-9901680D01*
X5672532Y-9901680D01*
X5655073Y-9908911D01*
X5641711Y-9922273D01*
X5634480Y-9939732D01*
X4484078Y-9939732D01*
X4490062Y-9711236D01*
X4512725Y-9423264D01*
X4550430Y-9136873D01*
X4603071Y-8852847D01*
X4670504Y-8571966D01*
X4745960Y-8317230D01*
X4969124Y-8317230D01*
X4977467Y-8359174D01*
X5001227Y-8394733D01*
X5036786Y-8418493D01*
X5068143Y-8424730D01*
X5089318Y-8424730D01*
X5120674Y-8418493D01*
X5156233Y-8394733D01*
X5179993Y-8359174D01*
X5185477Y-8331605D01*
X5220230Y-8331605D01*
X5220230Y-8407700D01*
X5224417Y-8417808D01*
X5232153Y-8425543D01*
X5242260Y-8429730D01*
X5318355Y-8429730D01*
X5325230Y-8422855D01*
X5325230Y-8324730D01*
X5340230Y-8324730D01*
X5340230Y-8422855D01*
X5347105Y-8429730D01*
X5423200Y-8429730D01*
X5433308Y-8425543D01*
X5441043Y-8417808D01*
X5445230Y-8407700D01*
X5445230Y-8331605D01*
X5438355Y-8324730D01*
X5340230Y-8324730D01*
X5325230Y-8324730D01*
X5227105Y-8324730D01*
X5220230Y-8331605D01*
X5185477Y-8331605D01*
X5188336Y-8317230D01*
X5179993Y-8275286D01*
X5156233Y-8239727D01*
X5136827Y-8226760D01*
X5220230Y-8226760D01*
X5220230Y-8302855D01*
X5227105Y-8309730D01*
X5325230Y-8309730D01*
X5325230Y-8211605D01*
X5340230Y-8211605D01*
X5340230Y-8309730D01*
X5438355Y-8309730D01*
X5445230Y-8302855D01*
X5445230Y-8260233D01*
X5891731Y-8260233D01*
X5891731Y-8279129D01*
X5898962Y-8296588D01*
X5912324Y-8309950D01*
X5929783Y-8317181D01*
X5948679Y-8317181D01*
X5966138Y-8309950D01*
X5979500Y-8296588D01*
X5986731Y-8279129D01*
X5986731Y-8260233D01*
X5979500Y-8242774D01*
X5966138Y-8229412D01*
X5948679Y-8222181D01*
X5929783Y-8222181D01*
X5912324Y-8229412D01*
X5898962Y-8242774D01*
X5891731Y-8260233D01*
X5445230Y-8260233D01*
X5445230Y-8226760D01*
X5441043Y-8216652D01*
X5433308Y-8208917D01*
X5423200Y-8204730D01*
X5347105Y-8204730D01*
X5340230Y-8211605D01*
X5325230Y-8211605D01*
X5318355Y-8204730D01*
X5242260Y-8204730D01*
X5232153Y-8208917D01*
X5224417Y-8216652D01*
X5220230Y-8226760D01*
X5136827Y-8226760D01*
X5120674Y-8215967D01*
X5089318Y-8209730D01*
X5068143Y-8209730D01*
X5036786Y-8215967D01*
X5001227Y-8239727D01*
X4977467Y-8275286D01*
X4969124Y-8317230D01*
X4745960Y-8317230D01*
X4752546Y-8294999D01*
X4848970Y-8022705D01*
X4959513Y-7755831D01*
X5083872Y-7495107D01*
X5221705Y-7241250D01*
X5372635Y-6994954D01*
X5536249Y-6756895D01*
X5712097Y-6527725D01*
X5899698Y-6308072D01*
X5993686Y-6209030D01*
X6021430Y-6209030D01*
X6021430Y-6939280D01*
X6023143Y-6947890D01*
X6028020Y-6955190D01*
X6035320Y-6960067D01*
X6043930Y-6961780D01*
X6065880Y-6961780D01*
X6065880Y-7415530D01*
X6067593Y-7424140D01*
X6070325Y-7428230D01*
X6067593Y-7432320D01*
X6065880Y-7440930D01*
X6065880Y-7866380D01*
X6067593Y-7874990D01*
X6072470Y-7882290D01*
X6079770Y-7887167D01*
X6088380Y-7888880D01*
X6497680Y-7888880D01*
X6497680Y-8298180D01*
X6499393Y-8306790D01*
X6504270Y-8314090D01*
X6511570Y-8318967D01*
X6520180Y-8320680D01*
X6541618Y-8320680D01*
X6444462Y-8417836D01*
X6441748Y-8419650D01*
X6437810Y-8425543D01*
X6434565Y-8430400D01*
X6432042Y-8443081D01*
X6432679Y-8446282D01*
X6432679Y-8805404D01*
X6424910Y-8813172D01*
X6417679Y-8830631D01*
X6417679Y-8849527D01*
X6424910Y-8866986D01*
X6438272Y-8880348D01*
X6455731Y-8887579D01*
X6474627Y-8887579D01*
X6487680Y-8882172D01*
X6487680Y-8907018D01*
X6343042Y-9051656D01*
X6340328Y-9053469D01*
X6333145Y-9064220D01*
X6333145Y-9064220D01*
X6330623Y-9076901D01*
X6331259Y-9080102D01*
X6331259Y-10139223D01*
X6331259Y-10139224D01*
X6331259Y-10143105D01*
X6323491Y-10150873D01*
X6316259Y-10168332D01*
X6316259Y-10187228D01*
X6323491Y-10204687D01*
X6336853Y-10218049D01*
X6354311Y-10225280D01*
X6373208Y-10225280D01*
X6390666Y-10218049D01*
X6404028Y-10204687D01*
X6411259Y-10187228D01*
X6411259Y-10168332D01*
X6409343Y-10163705D01*
X6421880Y-10176242D01*
X6421880Y-10187228D01*
X6429111Y-10204687D01*
X6442473Y-10218049D01*
X6459932Y-10225280D01*
X6478828Y-10225280D01*
X6487680Y-10221614D01*
X6487680Y-11534869D01*
X6482546Y-11522475D01*
X6469184Y-11509113D01*
X6451726Y-11501881D01*
X6432829Y-11501881D01*
X6415371Y-11509113D01*
X6402009Y-11522475D01*
X6394778Y-11539933D01*
X6394778Y-11558830D01*
X6402009Y-11576288D01*
X6415371Y-11589650D01*
X6432829Y-11596881D01*
X6451726Y-11596881D01*
X6469184Y-11589650D01*
X6482546Y-11576288D01*
X6487680Y-11563894D01*
X6487680Y-12333579D01*
X6487043Y-12336780D01*
X6488606Y-12344637D01*
X6489566Y-12349461D01*
X6496749Y-12360211D01*
X6499463Y-12362025D01*
X6927828Y-12790390D01*
X6927828Y-12805477D01*
X6927191Y-12808678D01*
X6927828Y-12811878D01*
X6929713Y-12821358D01*
X6936896Y-12832109D01*
X6939611Y-12833922D01*
X7082262Y-12976574D01*
X7082262Y-12990706D01*
X7074493Y-12998474D01*
X7067262Y-13015933D01*
X7067262Y-13034829D01*
X7074493Y-13052288D01*
X7087855Y-13065650D01*
X7105314Y-13072881D01*
X7114494Y-13072881D01*
X7107680Y-13089332D01*
X7107680Y-13108228D01*
X7114911Y-13125687D01*
X7128273Y-13139049D01*
X7129697Y-13139638D01*
X7121261Y-13148073D01*
X7114030Y-13165532D01*
X7114030Y-13184428D01*
X7121261Y-13201887D01*
X7134623Y-13215249D01*
X7152082Y-13222480D01*
X7170978Y-13222480D01*
X7188437Y-13215249D01*
X7201799Y-13201887D01*
X7209030Y-13184428D01*
X7209030Y-13173442D01*
X7245347Y-13137124D01*
X7248061Y-13135311D01*
X7255244Y-13124561D01*
X7257130Y-13115081D01*
X7257130Y-13115081D01*
X7257766Y-13111880D01*
X7257130Y-13108680D01*
X7257130Y-12682932D01*
X7304530Y-12682932D01*
X7304530Y-12701828D01*
X7311761Y-12719287D01*
X7325123Y-12732649D01*
X7342582Y-12739880D01*
X7361478Y-12739880D01*
X7376680Y-12733583D01*
X7376680Y-12837973D01*
X7376680Y-12837974D01*
X7376680Y-12841855D01*
X7368911Y-12849623D01*
X7361680Y-12867082D01*
X7361680Y-12885978D01*
X7368911Y-12903437D01*
X7382273Y-12916799D01*
X7399732Y-12924030D01*
X7418628Y-12924030D01*
X7436087Y-12916799D01*
X7449449Y-12903437D01*
X7456680Y-12885978D01*
X7456680Y-12867082D01*
X7449449Y-12849623D01*
X7441680Y-12841855D01*
X7441680Y-12371782D01*
X7647430Y-12371782D01*
X7647430Y-12390678D01*
X7654661Y-12408137D01*
X7668023Y-12421499D01*
X7685482Y-12428730D01*
X7704378Y-12428730D01*
X7721837Y-12421499D01*
X7735199Y-12408137D01*
X7742430Y-12390678D01*
X7742430Y-12371782D01*
X7735199Y-12354323D01*
X7721837Y-12340961D01*
X7704378Y-12333730D01*
X7685482Y-12333730D01*
X7668023Y-12340961D01*
X7654661Y-12354323D01*
X7647430Y-12371782D01*
X7441680Y-12371782D01*
X7441680Y-12350242D01*
X7528090Y-12263832D01*
X7549660Y-12263832D01*
X7549660Y-12282728D01*
X7556891Y-12300187D01*
X7570253Y-12313549D01*
X7587712Y-12320780D01*
X7606608Y-12320780D01*
X7624067Y-12313549D01*
X7637429Y-12300187D01*
X7644660Y-12282728D01*
X7644660Y-12264962D01*
X7706281Y-12264962D01*
X7706281Y-12283858D01*
X7713512Y-12301317D01*
X7726874Y-12314679D01*
X7744333Y-12321910D01*
X7761729Y-12321910D01*
X7761729Y-12327178D01*
X7768960Y-12344637D01*
X7782322Y-12357999D01*
X7799781Y-12365230D01*
X7818677Y-12365230D01*
X7836136Y-12357999D01*
X7849498Y-12344637D01*
X7856729Y-12327178D01*
X7856729Y-12308282D01*
X7849498Y-12290823D01*
X7836136Y-12277461D01*
X7818677Y-12270230D01*
X7801281Y-12270230D01*
X7801281Y-12264962D01*
X7798368Y-12257928D01*
X7857124Y-12257928D01*
X7857124Y-12276825D01*
X7864355Y-12294283D01*
X7877717Y-12307645D01*
X7895176Y-12314877D01*
X7914072Y-12314877D01*
X7931531Y-12307645D01*
X7944893Y-12294283D01*
X7952124Y-12276825D01*
X7952124Y-12257928D01*
X7944893Y-12240470D01*
X7931531Y-12227108D01*
X7914072Y-12219877D01*
X7895176Y-12219877D01*
X7877717Y-12227108D01*
X7864355Y-12240470D01*
X7857124Y-12257928D01*
X7798368Y-12257928D01*
X7794050Y-12247504D01*
X7780688Y-12234142D01*
X7763229Y-12226910D01*
X7744333Y-12226910D01*
X7726874Y-12234142D01*
X7713512Y-12247504D01*
X7706281Y-12264962D01*
X7644660Y-12264962D01*
X7644660Y-12263832D01*
X7637429Y-12246373D01*
X7624067Y-12233011D01*
X7606608Y-12225780D01*
X7587712Y-12225780D01*
X7570253Y-12233011D01*
X7556891Y-12246373D01*
X7549660Y-12263832D01*
X7528090Y-12263832D01*
X7563248Y-12228674D01*
X7565961Y-12226861D01*
X7567774Y-12224148D01*
X7574124Y-12217798D01*
X7579494Y-12209761D01*
X7581985Y-12197236D01*
X7646700Y-12132521D01*
X7646701Y-12132521D01*
X7649918Y-12129304D01*
X7660904Y-12129304D01*
X7678363Y-12122072D01*
X7691725Y-12108710D01*
X7698956Y-12091252D01*
X7698956Y-12072356D01*
X7691725Y-12054897D01*
X7678363Y-12041535D01*
X7660904Y-12034304D01*
X7642008Y-12034304D01*
X7624549Y-12041535D01*
X7611187Y-12054897D01*
X7603956Y-12072356D01*
X7603956Y-12083342D01*
X7600739Y-12086559D01*
X7600738Y-12086559D01*
X7596380Y-12090918D01*
X7596380Y-12073332D01*
X7589149Y-12055874D01*
X7575787Y-12042512D01*
X7558328Y-12035281D01*
X7539432Y-12035281D01*
X7521973Y-12042512D01*
X7508611Y-12055874D01*
X7501380Y-12073332D01*
X7501380Y-12092229D01*
X7508611Y-12109687D01*
X7521973Y-12123049D01*
X7539432Y-12130281D01*
X7557017Y-12130281D01*
X7521813Y-12165486D01*
X7519099Y-12167299D01*
X7511916Y-12178049D01*
X7510652Y-12184399D01*
X7509424Y-12190574D01*
X7388463Y-12311535D01*
X7385749Y-12313349D01*
X7378566Y-12324099D01*
X7378566Y-12324099D01*
X7376043Y-12336780D01*
X7376680Y-12339981D01*
X7376680Y-12651177D01*
X7361478Y-12644880D01*
X7342582Y-12644880D01*
X7325123Y-12652111D01*
X7311761Y-12665473D01*
X7304530Y-12682932D01*
X7257130Y-12682932D01*
X7257130Y-9450331D01*
X7257767Y-9447130D01*
X7255244Y-9434449D01*
X7254050Y-9432662D01*
X7248061Y-9423699D01*
X7245347Y-9421886D01*
X7113780Y-9290318D01*
X7113780Y-9279332D01*
X7106549Y-9261873D01*
X7093187Y-9248511D01*
X7075728Y-9241280D01*
X7056832Y-9241280D01*
X7039373Y-9248511D01*
X7026011Y-9261873D01*
X7018780Y-9279332D01*
X7018780Y-9298228D01*
X7026011Y-9315687D01*
X7039373Y-9329049D01*
X7056832Y-9336280D01*
X7067818Y-9336280D01*
X7192130Y-9460592D01*
X7192130Y-10559562D01*
X7182879Y-10555730D01*
X7163983Y-10555730D01*
X7146524Y-10562961D01*
X7133162Y-10576323D01*
X7125931Y-10593782D01*
X7125931Y-10612678D01*
X7133162Y-10630137D01*
X7146524Y-10643499D01*
X7163983Y-10650730D01*
X7182879Y-10650730D01*
X7192130Y-10646898D01*
X7192130Y-10673862D01*
X7182879Y-10670030D01*
X7163983Y-10670030D01*
X7146524Y-10677261D01*
X7133162Y-10690623D01*
X7125931Y-10708082D01*
X7125931Y-10726978D01*
X7133162Y-10744437D01*
X7146524Y-10757799D01*
X7163983Y-10765030D01*
X7182879Y-10765030D01*
X7192130Y-10761198D01*
X7192130Y-10788162D01*
X7182879Y-10784330D01*
X7163983Y-10784330D01*
X7146524Y-10791561D01*
X7133162Y-10804923D01*
X7125931Y-10822382D01*
X7125931Y-10841278D01*
X7133162Y-10858737D01*
X7146524Y-10872099D01*
X7163983Y-10879330D01*
X7182879Y-10879330D01*
X7192130Y-10875498D01*
X7192130Y-12423524D01*
X7188884Y-12415687D01*
X7175522Y-12402325D01*
X7158064Y-12395094D01*
X7139167Y-12395094D01*
X7121709Y-12402325D01*
X7109555Y-12414479D01*
X7099537Y-12404461D01*
X7082078Y-12397230D01*
X7063182Y-12397230D01*
X7045724Y-12404461D01*
X7032362Y-12417823D01*
X7025130Y-12435282D01*
X7025130Y-12454178D01*
X7032362Y-12471637D01*
X7045724Y-12484999D01*
X7063182Y-12492230D01*
X7082078Y-12492230D01*
X7099537Y-12484999D01*
X7111691Y-12472844D01*
X7121709Y-12482862D01*
X7139167Y-12490094D01*
X7158064Y-12490094D01*
X7175522Y-12482862D01*
X7188884Y-12469500D01*
X7192130Y-12461664D01*
X7192130Y-12945019D01*
X7027829Y-12780718D01*
X7027829Y-12760002D01*
X7028465Y-12756801D01*
X7025943Y-12744120D01*
X7020573Y-12736083D01*
X7018760Y-12733370D01*
X7016046Y-12731557D01*
X6776921Y-12492432D01*
X6815580Y-12492432D01*
X6815580Y-12511328D01*
X6822811Y-12528787D01*
X6836173Y-12542149D01*
X6853632Y-12549380D01*
X6872528Y-12549380D01*
X6889986Y-12542149D01*
X6903348Y-12528787D01*
X6910580Y-12511328D01*
X6910580Y-12492432D01*
X6903348Y-12474973D01*
X6889986Y-12461611D01*
X6872528Y-12454380D01*
X6853632Y-12454380D01*
X6836173Y-12461611D01*
X6822811Y-12474973D01*
X6815580Y-12492432D01*
X6776921Y-12492432D01*
X6603480Y-12318990D01*
X6603480Y-11216082D01*
X6618729Y-11216082D01*
X6618729Y-11234978D01*
X6625961Y-11252437D01*
X6639323Y-11265799D01*
X6656781Y-11273030D01*
X6671472Y-11273030D01*
X6668759Y-11279582D01*
X6668759Y-11298478D01*
X6675990Y-11315937D01*
X6689352Y-11329299D01*
X6706810Y-11336530D01*
X6725707Y-11336530D01*
X6743165Y-11329299D01*
X6756527Y-11315937D01*
X6763759Y-11298478D01*
X6763759Y-11279582D01*
X6761045Y-11273030D01*
X6764864Y-11273030D01*
X6764780Y-11273233D01*
X6764780Y-11292129D01*
X6772011Y-11309588D01*
X6785373Y-11322950D01*
X6802832Y-11330181D01*
X6821728Y-11330181D01*
X6839187Y-11322950D01*
X6852549Y-11309588D01*
X6859780Y-11292129D01*
X6859780Y-11273233D01*
X6857348Y-11267361D01*
X6868811Y-11267361D01*
X6866380Y-11273232D01*
X6866380Y-11292128D01*
X6873611Y-11309587D01*
X6886973Y-11322949D01*
X6904432Y-11330180D01*
X6923328Y-11330180D01*
X6940787Y-11322949D01*
X6954149Y-11309587D01*
X6961380Y-11292128D01*
X6961380Y-11279380D01*
X6974128Y-11279380D01*
X6991587Y-11272149D01*
X7004949Y-11258787D01*
X7012180Y-11241328D01*
X7012180Y-11222432D01*
X7004949Y-11204973D01*
X6991587Y-11191611D01*
X6974128Y-11184380D01*
X6955232Y-11184380D01*
X6937773Y-11191611D01*
X6924411Y-11204973D01*
X6917180Y-11222432D01*
X6917180Y-11235180D01*
X6908828Y-11235180D01*
X6911260Y-11229310D01*
X6911260Y-11210413D01*
X6904029Y-11192955D01*
X6890667Y-11179593D01*
X6873208Y-11172361D01*
X6854312Y-11172361D01*
X6836853Y-11179593D01*
X6823491Y-11192955D01*
X6816260Y-11210413D01*
X6816260Y-11229310D01*
X6818692Y-11235181D01*
X6811176Y-11235181D01*
X6811260Y-11234978D01*
X6811260Y-11216082D01*
X6804028Y-11198623D01*
X6790666Y-11185261D01*
X6773208Y-11178030D01*
X6754311Y-11178030D01*
X6736853Y-11185261D01*
X6723491Y-11198623D01*
X6716260Y-11216082D01*
X6716260Y-11234978D01*
X6718973Y-11241530D01*
X6711015Y-11241530D01*
X6713729Y-11234978D01*
X6713729Y-11216082D01*
X6706498Y-11198623D01*
X6693136Y-11185261D01*
X6675677Y-11178030D01*
X6656781Y-11178030D01*
X6639323Y-11185261D01*
X6625961Y-11198623D01*
X6618729Y-11216082D01*
X6603480Y-11216082D01*
X6603480Y-10828732D01*
X6764780Y-10828732D01*
X6764780Y-10847628D01*
X6772011Y-10865087D01*
X6785373Y-10878449D01*
X6802832Y-10885680D01*
X6821728Y-10885680D01*
X6839187Y-10878449D01*
X6852549Y-10865087D01*
X6859780Y-10847628D01*
X6859780Y-10828732D01*
X7006080Y-10828732D01*
X7006080Y-10847628D01*
X7013311Y-10865087D01*
X7026673Y-10878449D01*
X7044132Y-10885680D01*
X7063028Y-10885680D01*
X7080487Y-10878449D01*
X7093849Y-10865087D01*
X7101080Y-10847628D01*
X7101080Y-10828732D01*
X7093849Y-10811273D01*
X7080487Y-10797911D01*
X7063028Y-10790680D01*
X7044132Y-10790680D01*
X7026673Y-10797911D01*
X7013311Y-10811273D01*
X7006080Y-10828732D01*
X6859780Y-10828732D01*
X6852549Y-10811273D01*
X6839187Y-10797911D01*
X6821728Y-10790680D01*
X6802832Y-10790680D01*
X6785373Y-10797911D01*
X6772011Y-10811273D01*
X6764780Y-10828732D01*
X6603480Y-10828732D01*
X6603480Y-10714432D01*
X6764780Y-10714432D01*
X6764780Y-10733328D01*
X6772011Y-10750787D01*
X6785373Y-10764149D01*
X6802832Y-10771380D01*
X6821728Y-10771380D01*
X6839187Y-10764149D01*
X6852549Y-10750787D01*
X6859780Y-10733328D01*
X6859780Y-10714432D01*
X7006080Y-10714432D01*
X7006080Y-10733328D01*
X7013311Y-10750787D01*
X7026673Y-10764149D01*
X7044132Y-10771380D01*
X7063028Y-10771380D01*
X7080487Y-10764149D01*
X7093849Y-10750787D01*
X7101080Y-10733328D01*
X7101080Y-10714432D01*
X7093849Y-10696973D01*
X7080487Y-10683611D01*
X7063028Y-10676380D01*
X7044132Y-10676380D01*
X7026673Y-10683611D01*
X7013311Y-10696973D01*
X7006080Y-10714432D01*
X6859780Y-10714432D01*
X6852549Y-10696973D01*
X6839187Y-10683611D01*
X6821728Y-10676380D01*
X6802832Y-10676380D01*
X6785373Y-10683611D01*
X6772011Y-10696973D01*
X6764780Y-10714432D01*
X6603480Y-10714432D01*
X6603480Y-10612832D01*
X6764780Y-10612832D01*
X6764780Y-10631728D01*
X6772011Y-10649187D01*
X6785373Y-10662549D01*
X6802832Y-10669780D01*
X6821728Y-10669780D01*
X6839187Y-10662549D01*
X6852549Y-10649187D01*
X6859780Y-10631728D01*
X6859780Y-10612832D01*
X6854520Y-10600132D01*
X7006080Y-10600132D01*
X7006080Y-10619028D01*
X7013311Y-10636487D01*
X7026673Y-10649849D01*
X7044132Y-10657080D01*
X7063028Y-10657080D01*
X7080487Y-10649849D01*
X7093849Y-10636487D01*
X7101080Y-10619028D01*
X7101080Y-10600132D01*
X7093849Y-10582673D01*
X7080487Y-10569311D01*
X7063028Y-10562080D01*
X7044132Y-10562080D01*
X7026673Y-10569311D01*
X7013311Y-10582673D01*
X7006080Y-10600132D01*
X6854520Y-10600132D01*
X6852549Y-10595373D01*
X6839187Y-10582011D01*
X6821728Y-10574780D01*
X6802832Y-10574780D01*
X6785373Y-10582011D01*
X6772011Y-10595373D01*
X6764780Y-10612832D01*
X6603480Y-10612832D01*
X6603480Y-10546842D01*
X6805057Y-10345264D01*
X6807771Y-10343451D01*
X6814954Y-10332701D01*
X6816840Y-10323221D01*
X6816840Y-10323221D01*
X6817477Y-10320020D01*
X6816840Y-10316819D01*
X6816840Y-10221073D01*
X6823490Y-10237127D01*
X6836852Y-10250489D01*
X6854310Y-10257721D01*
X6873207Y-10257721D01*
X6890665Y-10250489D01*
X6904027Y-10237127D01*
X6911258Y-10219669D01*
X6911258Y-10200773D01*
X6904027Y-10183314D01*
X6896258Y-10175546D01*
X6896258Y-9253613D01*
X6945427Y-9204444D01*
X6945427Y-10183989D01*
X6945427Y-10183989D01*
X6945427Y-10187870D01*
X6937658Y-10195639D01*
X6930427Y-10213097D01*
X6930427Y-10231994D01*
X6937658Y-10249452D01*
X6951020Y-10262814D01*
X6968478Y-10270045D01*
X6987375Y-10270045D01*
X7004833Y-10262814D01*
X7018195Y-10249452D01*
X7025427Y-10231994D01*
X7025427Y-10213097D01*
X7018195Y-10195639D01*
X7010427Y-10187870D01*
X7010427Y-9191143D01*
X8119101Y-8082469D01*
X8121815Y-8080656D01*
X8128998Y-8069905D01*
X8129538Y-8067187D01*
X8131520Y-8057225D01*
X8130883Y-8054024D01*
X8130883Y-7872759D01*
X8135023Y-7876899D01*
X8152482Y-7884130D01*
X8171378Y-7884130D01*
X8188837Y-7876899D01*
X8202199Y-7863537D01*
X8204430Y-7858149D01*
X8206661Y-7863537D01*
X8220023Y-7876899D01*
X8237482Y-7884130D01*
X8256378Y-7884130D01*
X8273837Y-7876899D01*
X8287199Y-7863537D01*
X8289430Y-7858149D01*
X8291661Y-7863537D01*
X8305023Y-7876899D01*
X8322482Y-7884130D01*
X8341378Y-7884130D01*
X8358837Y-7876899D01*
X8372199Y-7863537D01*
X8374430Y-7858149D01*
X8376661Y-7863537D01*
X8390023Y-7876899D01*
X8407482Y-7884130D01*
X8426378Y-7884130D01*
X8443837Y-7876899D01*
X8457199Y-7863537D01*
X8459430Y-7858149D01*
X8460693Y-7861198D01*
X8457699Y-7863199D01*
X8455886Y-7865913D01*
X7312263Y-9009536D01*
X7309549Y-9011349D01*
X7307736Y-9014063D01*
X7302366Y-9022099D01*
X7299843Y-9034780D01*
X7300480Y-9037981D01*
X7300480Y-11478132D01*
X7299843Y-11481333D01*
X7300480Y-11484534D01*
X7302366Y-11494014D01*
X7309549Y-11504764D01*
X7312263Y-11506577D01*
X7843622Y-12037937D01*
X7843622Y-12048923D01*
X7850854Y-12066382D01*
X7864216Y-12079744D01*
X7881674Y-12086975D01*
X7900571Y-12086975D01*
X7918029Y-12079744D01*
X7931391Y-12066382D01*
X7938622Y-12048923D01*
X7938622Y-12030027D01*
X7931391Y-12012568D01*
X7918029Y-11999206D01*
X7900571Y-11991975D01*
X7889584Y-11991975D01*
X7826266Y-11928657D01*
X7839320Y-11923250D01*
X7852682Y-11909888D01*
X7857055Y-11899331D01*
X7864873Y-11907149D01*
X7882332Y-11914380D01*
X7896854Y-11914380D01*
X7908703Y-11926229D01*
X7910377Y-11928734D01*
X7920300Y-11935365D01*
X7932005Y-11937693D01*
X7934960Y-11937105D01*
X8021486Y-11937105D01*
X8016639Y-11948807D01*
X8016524Y-11948691D01*
X7999065Y-11941460D01*
X7980169Y-11941460D01*
X7962711Y-11948691D01*
X7949349Y-11962053D01*
X7942117Y-11979511D01*
X7942117Y-11998408D01*
X7949349Y-12015866D01*
X7962711Y-12029228D01*
X7980169Y-12036460D01*
X7999065Y-12036460D01*
X8016524Y-12029228D01*
X8029886Y-12015866D01*
X8035020Y-12003471D01*
X8035136Y-12003586D01*
X8052594Y-12010818D01*
X8071490Y-12010818D01*
X8088949Y-12003586D01*
X8102311Y-11990224D01*
X8107717Y-11977172D01*
X8156138Y-12025593D01*
X8143086Y-12030999D01*
X8129724Y-12044361D01*
X8124635Y-12056646D01*
X8109284Y-12050287D01*
X8090388Y-12050287D01*
X8072929Y-12057519D01*
X8059567Y-12070881D01*
X8052336Y-12088339D01*
X8052336Y-12107236D01*
X8059567Y-12124694D01*
X8072929Y-12138056D01*
X8090388Y-12145287D01*
X8109284Y-12145287D01*
X8126743Y-12138056D01*
X8139992Y-12124806D01*
X8139992Y-12688237D01*
X8139404Y-12691192D01*
X8141733Y-12702897D01*
X8141733Y-12702897D01*
X8148363Y-12712820D01*
X8150868Y-12714494D01*
X8206231Y-12769856D01*
X8206231Y-12784378D01*
X8213462Y-12801837D01*
X8226824Y-12815199D01*
X8244282Y-12822430D01*
X8263179Y-12822430D01*
X8280637Y-12815199D01*
X8293999Y-12801837D01*
X8301231Y-12784378D01*
X8301231Y-12773192D01*
X8311964Y-12773192D01*
X8329422Y-12765960D01*
X8342784Y-12752598D01*
X8350015Y-12735140D01*
X8350015Y-12716243D01*
X8342784Y-12698785D01*
X8329422Y-12685423D01*
X8311964Y-12678192D01*
X8311625Y-12678192D01*
X8319818Y-12674798D01*
X8333180Y-12661436D01*
X8340411Y-12643978D01*
X8340411Y-12625081D01*
X8333180Y-12607623D01*
X8322668Y-12597111D01*
X8326196Y-12593583D01*
X8333427Y-12576125D01*
X8333427Y-12557228D01*
X8326196Y-12539770D01*
X8312834Y-12526408D01*
X8295375Y-12519177D01*
X8276479Y-12519177D01*
X8259020Y-12526408D01*
X8258730Y-12526699D01*
X8258730Y-12474994D01*
X8269682Y-12479530D01*
X8288578Y-12479530D01*
X8306037Y-12472299D01*
X8319399Y-12458937D01*
X8326630Y-12441478D01*
X8326630Y-12422582D01*
X8319399Y-12405123D01*
X8306037Y-12391761D01*
X8288578Y-12384530D01*
X8269682Y-12384530D01*
X8258730Y-12389066D01*
X8258730Y-12186705D01*
X8271273Y-12199249D01*
X8288732Y-12206480D01*
X8307628Y-12206480D01*
X8325087Y-12199249D01*
X8338449Y-12185887D01*
X8345680Y-12168428D01*
X8345680Y-12149532D01*
X8338449Y-12132073D01*
X8325087Y-12118711D01*
X8307628Y-12111480D01*
X8288732Y-12111480D01*
X8271273Y-12118711D01*
X8257911Y-12132073D01*
X8255280Y-12138426D01*
X8255280Y-12055262D01*
X8255868Y-12052308D01*
X8253539Y-12040602D01*
X8249331Y-12034304D01*
X8246909Y-12030679D01*
X8244404Y-12029005D01*
X8121944Y-11906546D01*
X8143019Y-11906546D01*
X8395180Y-12158706D01*
X8395180Y-12944954D01*
X8303254Y-13036880D01*
X8288732Y-13036880D01*
X8271273Y-13044111D01*
X8257911Y-13057473D01*
X8250680Y-13074932D01*
X8250680Y-13093828D01*
X8257911Y-13111287D01*
X8271273Y-13124649D01*
X8288732Y-13131880D01*
X8307628Y-13131880D01*
X8325087Y-13124649D01*
X8338449Y-13111287D01*
X8345680Y-13093828D01*
X8345680Y-13079306D01*
X8444304Y-12980682D01*
X8446809Y-12979009D01*
X8453439Y-12969085D01*
X8455180Y-12960334D01*
X8455180Y-12960334D01*
X8455768Y-12957380D01*
X8455180Y-12954426D01*
X8455180Y-12713355D01*
X8461773Y-12719949D01*
X8479232Y-12727180D01*
X8498128Y-12727180D01*
X8515587Y-12719949D01*
X8525230Y-12710305D01*
X8525230Y-12886453D01*
X8482256Y-12929427D01*
X8479751Y-12931101D01*
X8478078Y-12933606D01*
X8473121Y-12941025D01*
X8470792Y-12952730D01*
X8471380Y-12955685D01*
X8471380Y-12998105D01*
X8461111Y-13008373D01*
X8453880Y-13025832D01*
X8453880Y-13044728D01*
X8461111Y-13062187D01*
X8474473Y-13075549D01*
X8491932Y-13082780D01*
X8510828Y-13082780D01*
X8528287Y-13075549D01*
X8541649Y-13062187D01*
X8548880Y-13044728D01*
X8548880Y-13028120D01*
X8558329Y-13028120D01*
X8575788Y-13020889D01*
X8589150Y-13007527D01*
X8596381Y-12990068D01*
X8596381Y-12975546D01*
X8597183Y-12974744D01*
X8597183Y-12974744D01*
X8609004Y-12962924D01*
X8611509Y-12961250D01*
X8618139Y-12951326D01*
X8619880Y-12942576D01*
X8620468Y-12939621D01*
X8619880Y-12936667D01*
X8619880Y-12907100D01*
X9401819Y-12907100D01*
X9401819Y-13077100D01*
X9403566Y-13085879D01*
X9408538Y-13093322D01*
X9415981Y-13098294D01*
X9424760Y-13100041D01*
X9594760Y-13100041D01*
X9603539Y-13098294D01*
X9610982Y-13093322D01*
X9615955Y-13085879D01*
X9617701Y-13077100D01*
X9617701Y-13017067D01*
X9654066Y-13017067D01*
X9668539Y-13052012D01*
X9698715Y-13083891D01*
X9738793Y-13101795D01*
X9756260Y-13097475D01*
X9756260Y-12999600D01*
X9771260Y-12999600D01*
X9771260Y-13097475D01*
X9788728Y-13101795D01*
X9828806Y-13083891D01*
X9858981Y-13052012D01*
X9873455Y-13017067D01*
X9869118Y-12999600D01*
X9771260Y-12999600D01*
X9756260Y-12999600D01*
X9658402Y-12999600D01*
X9654066Y-13017067D01*
X9617701Y-13017067D01*
X9617701Y-12990830D01*
X10087224Y-12990830D01*
X10095567Y-13032774D01*
X10119327Y-13068333D01*
X10154886Y-13092093D01*
X10186243Y-13098330D01*
X10207418Y-13098330D01*
X10238774Y-13092093D01*
X10274333Y-13068333D01*
X10298093Y-13032774D01*
X10306436Y-12990830D01*
X10298093Y-12948886D01*
X10281620Y-12924232D01*
X13279880Y-12924232D01*
X13279880Y-12943128D01*
X13287111Y-12960587D01*
X13300473Y-12973949D01*
X13317932Y-12981180D01*
X13336828Y-12981180D01*
X13354286Y-12973949D01*
X13367648Y-12960587D01*
X13374880Y-12943128D01*
X13374880Y-12924232D01*
X13367648Y-12906773D01*
X13354286Y-12893411D01*
X13336828Y-12886180D01*
X13317932Y-12886180D01*
X13300473Y-12893411D01*
X13287111Y-12906773D01*
X13279880Y-12924232D01*
X10281620Y-12924232D01*
X10274333Y-12913327D01*
X10238774Y-12889567D01*
X10207418Y-12883330D01*
X10186243Y-12883330D01*
X10154886Y-12889567D01*
X10119327Y-12913327D01*
X10095567Y-12948886D01*
X10087224Y-12990830D01*
X9617701Y-12990830D01*
X9617701Y-12967133D01*
X9654066Y-12967133D01*
X9658402Y-12984600D01*
X9756260Y-12984600D01*
X9756260Y-12886724D01*
X9771260Y-12886724D01*
X9771260Y-12984600D01*
X9869118Y-12984600D01*
X9873455Y-12967133D01*
X9858981Y-12932188D01*
X9828806Y-12900309D01*
X9788728Y-12882405D01*
X9771260Y-12886724D01*
X9756260Y-12886724D01*
X9738793Y-12882405D01*
X9698715Y-12900309D01*
X9668539Y-12932188D01*
X9654066Y-12967133D01*
X9617701Y-12967133D01*
X9617701Y-12907100D01*
X9615955Y-12898321D01*
X9610982Y-12890878D01*
X9603539Y-12885905D01*
X9594760Y-12884159D01*
X9424760Y-12884159D01*
X9415981Y-12885905D01*
X9408538Y-12890878D01*
X9403566Y-12898321D01*
X9401819Y-12907100D01*
X8619880Y-12907100D01*
X8619880Y-12751205D01*
X10084330Y-12751205D01*
X10084330Y-12827300D01*
X10088517Y-12837407D01*
X10096253Y-12845143D01*
X10106360Y-12849330D01*
X10182455Y-12849330D01*
X10189330Y-12842455D01*
X10189330Y-12744330D01*
X10204330Y-12744330D01*
X10204330Y-12842455D01*
X10211205Y-12849330D01*
X10287300Y-12849330D01*
X10297408Y-12845143D01*
X10305143Y-12837407D01*
X10309330Y-12827300D01*
X10309330Y-12751205D01*
X10302455Y-12744330D01*
X10204330Y-12744330D01*
X10189330Y-12744330D01*
X10091205Y-12744330D01*
X10084330Y-12751205D01*
X8619880Y-12751205D01*
X8619880Y-12646360D01*
X10084330Y-12646360D01*
X10084330Y-12722455D01*
X10091205Y-12729330D01*
X10189330Y-12729330D01*
X10189330Y-12631205D01*
X10204330Y-12631205D01*
X10204330Y-12729330D01*
X10302455Y-12729330D01*
X10309330Y-12722455D01*
X10309330Y-12646360D01*
X10305143Y-12636252D01*
X10297408Y-12628517D01*
X10287300Y-12624330D01*
X10211205Y-12624330D01*
X10204330Y-12631205D01*
X10189330Y-12631205D01*
X10182455Y-12624330D01*
X10106360Y-12624330D01*
X10096253Y-12628517D01*
X10088517Y-12636252D01*
X10084330Y-12646360D01*
X8619880Y-12646360D01*
X8619880Y-12538698D01*
X14277531Y-12538698D01*
X14277531Y-12611301D01*
X14305315Y-12678378D01*
X14356653Y-12729716D01*
X14423729Y-12757500D01*
X14496332Y-12757500D01*
X14563409Y-12729716D01*
X14614747Y-12678378D01*
X14642531Y-12611301D01*
X14642531Y-12538698D01*
X14614747Y-12471622D01*
X14563409Y-12420284D01*
X14496332Y-12392500D01*
X14423729Y-12392500D01*
X14356653Y-12420284D01*
X14305315Y-12471622D01*
X14277531Y-12538698D01*
X8619880Y-12538698D01*
X8619880Y-12144223D01*
X8620468Y-12141268D01*
X8618139Y-12129563D01*
X8616531Y-12127156D01*
X8611509Y-12119639D01*
X8609004Y-12117966D01*
X8318640Y-11827602D01*
X8443203Y-11936265D01*
X8603504Y-12054882D01*
X8772801Y-12160260D01*
X8950005Y-12251722D01*
X9133973Y-12328677D01*
X9323520Y-12390631D01*
X9517425Y-12437183D01*
X9714439Y-12468035D01*
X9913292Y-12482986D01*
X10112704Y-12481942D01*
X10311390Y-12464909D01*
X10508070Y-12431996D01*
X10701477Y-12383416D01*
X10890365Y-12319481D01*
X11073517Y-12240603D01*
X11249753Y-12147291D01*
X11417938Y-12040145D01*
X11576988Y-11919857D01*
X11725879Y-11787200D01*
X11863651Y-11643029D01*
X11989417Y-11488274D01*
X12102367Y-11323931D01*
X12201773Y-11151059D01*
X12286994Y-10970772D01*
X12357482Y-10784230D01*
X12412783Y-10592636D01*
X12452540Y-10397225D01*
X12476497Y-10199254D01*
X12484500Y-10000000D01*
X12483955Y-9947969D01*
X12471781Y-9748926D01*
X12443683Y-9551500D01*
X12399843Y-9356964D01*
X12340542Y-9166571D01*
X12266162Y-8981546D01*
X12177184Y-8803083D01*
X12074179Y-8632331D01*
X11957813Y-8470389D01*
X11828833Y-8318302D01*
X11688072Y-8177048D01*
X11536436Y-8047538D01*
X11374901Y-7930607D01*
X11204509Y-7827007D01*
X11026358Y-7737406D01*
X10841594Y-7662382D01*
X10651409Y-7602416D01*
X10457027Y-7557897D01*
X10259701Y-7529110D01*
X10147687Y-7521867D01*
X10153887Y-7519299D01*
X10167249Y-7505937D01*
X10174480Y-7488478D01*
X10174480Y-7469582D01*
X10167249Y-7452123D01*
X10153887Y-7438761D01*
X10136428Y-7431530D01*
X10117532Y-7431530D01*
X10100073Y-7438761D01*
X10086711Y-7452123D01*
X10079480Y-7469582D01*
X10079480Y-7488478D01*
X10086711Y-7505937D01*
X10099527Y-7518752D01*
X10060702Y-7516242D01*
X9861312Y-7519374D01*
X9662815Y-7538487D01*
X9466490Y-7573458D01*
X9273603Y-7624061D01*
X9085395Y-7689970D01*
X8903079Y-7770762D01*
X8727830Y-7865914D01*
X8560776Y-7974815D01*
X8402994Y-8096763D01*
X8255501Y-8230971D01*
X8119246Y-8376576D01*
X7995107Y-8532640D01*
X7883884Y-8698157D01*
X7786294Y-8872061D01*
X7702965Y-9053231D01*
X7634434Y-9240500D01*
X7581143Y-9432662D01*
X7543435Y-9628479D01*
X7521552Y-9826690D01*
X7515636Y-10026017D01*
X7525725Y-10225177D01*
X7551754Y-10422886D01*
X7593555Y-10617870D01*
X7650859Y-10808874D01*
X7723297Y-10994667D01*
X7810402Y-11174052D01*
X7911612Y-11345874D01*
X8026277Y-11509025D01*
X8153657Y-11662455D01*
X8160277Y-11669239D01*
X8084794Y-11593756D01*
X8083120Y-11591251D01*
X8073197Y-11584621D01*
X8064446Y-11582880D01*
X8061492Y-11582292D01*
X8058537Y-11582880D01*
X8055955Y-11582880D01*
X8045687Y-11572611D01*
X8028228Y-11565380D01*
X8009332Y-11565380D01*
X7991873Y-11572611D01*
X7978511Y-11585973D01*
X7971280Y-11603432D01*
X7971280Y-11622328D01*
X7978511Y-11639787D01*
X7991873Y-11653149D01*
X8000631Y-11656776D01*
X7996628Y-11660779D01*
X7989397Y-11678237D01*
X7989397Y-11697134D01*
X7996628Y-11714592D01*
X8009990Y-11727954D01*
X8027448Y-11735185D01*
X8033656Y-11735185D01*
X8027242Y-11750669D01*
X8027242Y-11769566D01*
X8030133Y-11776546D01*
X8026071Y-11776546D01*
X8008613Y-11783777D01*
X7995251Y-11797139D01*
X7988978Y-11812284D01*
X7976475Y-11807105D01*
X7957578Y-11807105D01*
X7940120Y-11814337D01*
X7926758Y-11827699D01*
X7924713Y-11832637D01*
X7918687Y-11826611D01*
X7901228Y-11819380D01*
X7882332Y-11819380D01*
X7864873Y-11826611D01*
X7851511Y-11839973D01*
X7847138Y-11850531D01*
X7839320Y-11842713D01*
X7821862Y-11835481D01*
X7802966Y-11835481D01*
X7785507Y-11842713D01*
X7772145Y-11856075D01*
X7766738Y-11869129D01*
X7365480Y-11467871D01*
X7365480Y-11072702D01*
X7368911Y-11080987D01*
X7382273Y-11094349D01*
X7399732Y-11101580D01*
X7418628Y-11101580D01*
X7436087Y-11094349D01*
X7447280Y-11083155D01*
X7458473Y-11094349D01*
X7475932Y-11101580D01*
X7494828Y-11101580D01*
X7512287Y-11094349D01*
X7523480Y-11083155D01*
X7534673Y-11094349D01*
X7552132Y-11101580D01*
X7571028Y-11101580D01*
X7588487Y-11094349D01*
X7599680Y-11083155D01*
X7610873Y-11094349D01*
X7628332Y-11101580D01*
X7647228Y-11101580D01*
X7664687Y-11094349D01*
X7678049Y-11080987D01*
X7685280Y-11063528D01*
X7685280Y-11044632D01*
X7678049Y-11027173D01*
X7664687Y-11013811D01*
X7647228Y-11006580D01*
X7628332Y-11006580D01*
X7610873Y-11013811D01*
X7599680Y-11025005D01*
X7588487Y-11013811D01*
X7571028Y-11006580D01*
X7552132Y-11006580D01*
X7534673Y-11013811D01*
X7523480Y-11025005D01*
X7512287Y-11013811D01*
X7494828Y-11006580D01*
X7475932Y-11006580D01*
X7458473Y-11013811D01*
X7447280Y-11025005D01*
X7436087Y-11013811D01*
X7418628Y-11006580D01*
X7399732Y-11006580D01*
X7382273Y-11013811D01*
X7368911Y-11027173D01*
X7365480Y-11035458D01*
X7365480Y-9048242D01*
X8494592Y-7919130D01*
X8617629Y-7919130D01*
X8620830Y-7919767D01*
X8624031Y-7919130D01*
X8633511Y-7917244D01*
X8644261Y-7910061D01*
X8646075Y-7907347D01*
X9359392Y-7194030D01*
X9641455Y-7194030D01*
X9649223Y-7201799D01*
X9666682Y-7209030D01*
X9685578Y-7209030D01*
X9703037Y-7201799D01*
X9716399Y-7188437D01*
X9723630Y-7170978D01*
X9723630Y-7152082D01*
X9716399Y-7134623D01*
X9703037Y-7121261D01*
X9685578Y-7114030D01*
X9666682Y-7114030D01*
X9649223Y-7121261D01*
X9641455Y-7129030D01*
X9349131Y-7129030D01*
X9345930Y-7128393D01*
X9342729Y-7129030D01*
X9333249Y-7130916D01*
X9322499Y-7138099D01*
X9320686Y-7140813D01*
X9226030Y-7235468D01*
X9226030Y-7122891D01*
X9370188Y-6978733D01*
X9375511Y-6991587D01*
X9387253Y-7003328D01*
X9386855Y-7003492D01*
X9373493Y-7016854D01*
X9366261Y-7034313D01*
X9366261Y-7053209D01*
X9373493Y-7070668D01*
X9386855Y-7084030D01*
X9404313Y-7091261D01*
X9423209Y-7091261D01*
X9440668Y-7084030D01*
X9454030Y-7070668D01*
X9455337Y-7067512D01*
X9464623Y-7076799D01*
X9482082Y-7084030D01*
X9500978Y-7084030D01*
X9518437Y-7076799D01*
X9531799Y-7063437D01*
X9534030Y-7058049D01*
X9536261Y-7063437D01*
X9549623Y-7076799D01*
X9567082Y-7084030D01*
X9585978Y-7084030D01*
X9603437Y-7076799D01*
X9616799Y-7063437D01*
X9619030Y-7058049D01*
X9621261Y-7063437D01*
X9634623Y-7076799D01*
X9652082Y-7084030D01*
X9670978Y-7084030D01*
X9688437Y-7076799D01*
X9701799Y-7063437D01*
X9704030Y-7058049D01*
X9706261Y-7063437D01*
X9719623Y-7076799D01*
X9737082Y-7084030D01*
X9755978Y-7084030D01*
X9773437Y-7076799D01*
X9786799Y-7063437D01*
X9794030Y-7045978D01*
X9794030Y-7027082D01*
X9786799Y-7009623D01*
X9773437Y-6996261D01*
X9768050Y-6994030D01*
X9773437Y-6991799D01*
X9786799Y-6978437D01*
X9794030Y-6960978D01*
X9794030Y-6942082D01*
X9786799Y-6924623D01*
X9773437Y-6911261D01*
X9755978Y-6904030D01*
X9737082Y-6904030D01*
X9719623Y-6911261D01*
X9706261Y-6924623D01*
X9704030Y-6930010D01*
X9701799Y-6924623D01*
X9688437Y-6911261D01*
X9670978Y-6904030D01*
X9652082Y-6904030D01*
X9634623Y-6911261D01*
X9621261Y-6924623D01*
X9619030Y-6930010D01*
X9616799Y-6924623D01*
X9603437Y-6911261D01*
X9585978Y-6904030D01*
X9567082Y-6904030D01*
X9549623Y-6911261D01*
X9536261Y-6924623D01*
X9534954Y-6927779D01*
X9525668Y-6918492D01*
X9508209Y-6911261D01*
X9489313Y-6911261D01*
X9471855Y-6918492D01*
X9458493Y-6931854D01*
X9456043Y-6937768D01*
X9442687Y-6924411D01*
X9429833Y-6919087D01*
X9519940Y-6828981D01*
X9961777Y-6828981D01*
X9964979Y-6829618D01*
X9977660Y-6827095D01*
X9985696Y-6821725D01*
X9988410Y-6819912D01*
X9990223Y-6817198D01*
X10011142Y-6796280D01*
X10022128Y-6796280D01*
X10039587Y-6789048D01*
X10052949Y-6775686D01*
X10060180Y-6758228D01*
X10060180Y-6739331D01*
X10052949Y-6721873D01*
X10039587Y-6708511D01*
X10022128Y-6701280D01*
X10003232Y-6701280D01*
X9985773Y-6708511D01*
X9972411Y-6721873D01*
X9965180Y-6739331D01*
X9965180Y-6750318D01*
X9951517Y-6763981D01*
X9840241Y-6763981D01*
X9878742Y-6725480D01*
X9885680Y-6725480D01*
X9896204Y-6723387D01*
X9905125Y-6717425D01*
X9911087Y-6708504D01*
X9913180Y-6697980D01*
X9913180Y-6691042D01*
X10020697Y-6583524D01*
X10023411Y-6581711D01*
X10030582Y-6570980D01*
X11019913Y-6570980D01*
X11019913Y-7282180D01*
X11022007Y-7292704D01*
X11027968Y-7301625D01*
X11036890Y-7307587D01*
X11047413Y-7309680D01*
X11745913Y-7309680D01*
X11756437Y-7307587D01*
X11765359Y-7301625D01*
X11771320Y-7292704D01*
X11773413Y-7282180D01*
X11773413Y-6570980D01*
X11771320Y-6560456D01*
X11765359Y-6551535D01*
X11756437Y-6545573D01*
X11745913Y-6543480D01*
X11047413Y-6543480D01*
X11036890Y-6545573D01*
X11027968Y-6551535D01*
X11022007Y-6560456D01*
X11019913Y-6570980D01*
X10030582Y-6570980D01*
X10030594Y-6570961D01*
X10032480Y-6561481D01*
X10033117Y-6558280D01*
X10032480Y-6555079D01*
X10032480Y-6433380D01*
X10253980Y-6433380D01*
X10264504Y-6431287D01*
X10265287Y-6430764D01*
X10266069Y-6431287D01*
X10276593Y-6433380D01*
X10975093Y-6433380D01*
X10985617Y-6431287D01*
X10994539Y-6425325D01*
X11000500Y-6416404D01*
X11002593Y-6405880D01*
X11002593Y-5694680D01*
X11305980Y-5694680D01*
X11305980Y-6405880D01*
X11308073Y-6416404D01*
X11314035Y-6425325D01*
X11322956Y-6431287D01*
X11333480Y-6433380D01*
X12031980Y-6433380D01*
X12042504Y-6431287D01*
X12051425Y-6425325D01*
X12057387Y-6416404D01*
X12059480Y-6405880D01*
X12059480Y-5694680D01*
X12057387Y-5684156D01*
X12051425Y-5675235D01*
X12042504Y-5669273D01*
X12031980Y-5667180D01*
X11333480Y-5667180D01*
X11322956Y-5669273D01*
X11314035Y-5675235D01*
X11308073Y-5684156D01*
X11305980Y-5694680D01*
X11002593Y-5694680D01*
X11002593Y-5262880D01*
X11000500Y-5252356D01*
X10994539Y-5243435D01*
X10985617Y-5237473D01*
X10975093Y-5235380D01*
X10276593Y-5235380D01*
X10266069Y-5237473D01*
X10257148Y-5243435D01*
X10251187Y-5252356D01*
X10249093Y-5262880D01*
X10249093Y-5883080D01*
X10032480Y-5883080D01*
X10032480Y-5729355D01*
X10040249Y-5721587D01*
X10047480Y-5704128D01*
X10047480Y-5685232D01*
X10040249Y-5667773D01*
X10026887Y-5654411D01*
X10009428Y-5647180D01*
X9990532Y-5647180D01*
X9973073Y-5654411D01*
X9959711Y-5667773D01*
X9952480Y-5685232D01*
X9952480Y-5704128D01*
X9959711Y-5721587D01*
X9967480Y-5729355D01*
X9967480Y-5883080D01*
X9900480Y-5883080D01*
X9900480Y-5326380D01*
X9898387Y-5315856D01*
X9892425Y-5306935D01*
X9883504Y-5300973D01*
X9872980Y-5298880D01*
X9060180Y-5298880D01*
X9049656Y-5300973D01*
X9040735Y-5306935D01*
X9034773Y-5315856D01*
X9032680Y-5326380D01*
X9032680Y-6113780D01*
X9034773Y-6124304D01*
X9040735Y-6133225D01*
X9049656Y-6139187D01*
X9060180Y-6141280D01*
X9286680Y-6141280D01*
X9286680Y-6182309D01*
X9281178Y-6180030D01*
X9262282Y-6180030D01*
X9244823Y-6187261D01*
X9231461Y-6200623D01*
X9224230Y-6218082D01*
X9224230Y-6236978D01*
X9231461Y-6254437D01*
X9244823Y-6267799D01*
X9250211Y-6270030D01*
X9244823Y-6272261D01*
X9231461Y-6285623D01*
X9224230Y-6303082D01*
X9224230Y-6321978D01*
X9231461Y-6339437D01*
X9244823Y-6352799D01*
X9250211Y-6355030D01*
X9244823Y-6357261D01*
X9231461Y-6370623D01*
X9224230Y-6388082D01*
X9224230Y-6406978D01*
X9231461Y-6424437D01*
X9244823Y-6437799D01*
X9250211Y-6440030D01*
X9244823Y-6442261D01*
X9231461Y-6455623D01*
X9224230Y-6473082D01*
X9224230Y-6491978D01*
X9231461Y-6509437D01*
X9244823Y-6522799D01*
X9250211Y-6525030D01*
X9244823Y-6527261D01*
X9231461Y-6540623D01*
X9224230Y-6558082D01*
X9224230Y-6576978D01*
X9231461Y-6594437D01*
X9244823Y-6607799D01*
X9249003Y-6609530D01*
X9244823Y-6611261D01*
X9231461Y-6624623D01*
X9224230Y-6642082D01*
X9224230Y-6660978D01*
X9231461Y-6678437D01*
X9244823Y-6691799D01*
X9250211Y-6694030D01*
X9244823Y-6696261D01*
X9231461Y-6709623D01*
X9224230Y-6727082D01*
X9224230Y-6745978D01*
X9231461Y-6763437D01*
X9235387Y-6767362D01*
X9232867Y-6768405D01*
X9219505Y-6781767D01*
X9212274Y-6799226D01*
X9212274Y-6818122D01*
X9219505Y-6835580D01*
X9232867Y-6848942D01*
X9250326Y-6856174D01*
X9269222Y-6856174D01*
X9286681Y-6848942D01*
X9300043Y-6835580D01*
X9307274Y-6818122D01*
X9307274Y-6799226D01*
X9300043Y-6781767D01*
X9296117Y-6777842D01*
X9298637Y-6776799D01*
X9311999Y-6763437D01*
X9319230Y-6745978D01*
X9319230Y-6727082D01*
X9318567Y-6725480D01*
X9424868Y-6725480D01*
X9102811Y-7047538D01*
X9100097Y-7049351D01*
X9098284Y-7052065D01*
X9092914Y-7060101D01*
X9090391Y-7072782D01*
X9091028Y-7075983D01*
X9091028Y-7214322D01*
X8744520Y-7560830D01*
X8136281Y-7560830D01*
X8133080Y-7560193D01*
X8129879Y-7560830D01*
X8120399Y-7562716D01*
X8109649Y-7569899D01*
X8107836Y-7572612D01*
X8007664Y-7672784D01*
X8004950Y-7674598D01*
X8003137Y-7677311D01*
X7997767Y-7685348D01*
X7995244Y-7698029D01*
X7995881Y-7701230D01*
X7995881Y-8014767D01*
X7186168Y-8824480D01*
X7177155Y-8824480D01*
X7169387Y-8816711D01*
X7151928Y-8809480D01*
X7133032Y-8809480D01*
X7130826Y-8810394D01*
X7899797Y-8041423D01*
X7902511Y-8039609D01*
X7909694Y-8028859D01*
X7910141Y-8026610D01*
X7912216Y-8016178D01*
X7911580Y-8012977D01*
X7911580Y-7714742D01*
X8083042Y-7543280D01*
X8618829Y-7543280D01*
X8622030Y-7543917D01*
X8625231Y-7543280D01*
X8634711Y-7541394D01*
X8645461Y-7534211D01*
X8647275Y-7531497D01*
X8804642Y-7374130D01*
X8815628Y-7374130D01*
X8833087Y-7366899D01*
X8846449Y-7353537D01*
X8853680Y-7336078D01*
X8853680Y-7317182D01*
X8846449Y-7299723D01*
X8833087Y-7286361D01*
X8815628Y-7279130D01*
X8799343Y-7279130D01*
X8858647Y-7219825D01*
X8861361Y-7218012D01*
X8868544Y-7207262D01*
X8870430Y-7197782D01*
X8871067Y-7194581D01*
X8870430Y-7191380D01*
X8870430Y-7164454D01*
X8878199Y-7156686D01*
X8885430Y-7139227D01*
X8885430Y-7120331D01*
X8878199Y-7102873D01*
X8864837Y-7089511D01*
X8847378Y-7082279D01*
X8828482Y-7082279D01*
X8811023Y-7089511D01*
X8797661Y-7102873D01*
X8790430Y-7120331D01*
X8790430Y-7139227D01*
X8797661Y-7156686D01*
X8805430Y-7164454D01*
X8805430Y-7181119D01*
X8676280Y-7310269D01*
X8676280Y-6928103D01*
X8679180Y-6928680D01*
X8983980Y-6928680D01*
X8994504Y-6926587D01*
X9003425Y-6920625D01*
X9009387Y-6911704D01*
X9011480Y-6901180D01*
X9011480Y-6857129D01*
X9024882Y-6862680D01*
X9043778Y-6862680D01*
X9061237Y-6855449D01*
X9074599Y-6842087D01*
X9081830Y-6824628D01*
X9081830Y-6805732D01*
X9074599Y-6788273D01*
X9061237Y-6774911D01*
X9055850Y-6772680D01*
X9061237Y-6770449D01*
X9074599Y-6757087D01*
X9081830Y-6739628D01*
X9081830Y-6720732D01*
X9074599Y-6703273D01*
X9061237Y-6689911D01*
X9055850Y-6687680D01*
X9061237Y-6685449D01*
X9074599Y-6672087D01*
X9081830Y-6654628D01*
X9081830Y-6635732D01*
X9074599Y-6618273D01*
X9061237Y-6604911D01*
X9057057Y-6603180D01*
X9061237Y-6601449D01*
X9074599Y-6588087D01*
X9081830Y-6570628D01*
X9081830Y-6551732D01*
X9074599Y-6534273D01*
X9061237Y-6520911D01*
X9055850Y-6518680D01*
X9061237Y-6516449D01*
X9074599Y-6503087D01*
X9081830Y-6485628D01*
X9081830Y-6466732D01*
X9074599Y-6449273D01*
X9061237Y-6435911D01*
X9055850Y-6433680D01*
X9061237Y-6431449D01*
X9074599Y-6418087D01*
X9081830Y-6400628D01*
X9081830Y-6381732D01*
X9074599Y-6364273D01*
X9061237Y-6350911D01*
X9055850Y-6348680D01*
X9061237Y-6346449D01*
X9074599Y-6333087D01*
X9081830Y-6315628D01*
X9081830Y-6296732D01*
X9074599Y-6279273D01*
X9061237Y-6265911D01*
X9055850Y-6263680D01*
X9061237Y-6261449D01*
X9074599Y-6248087D01*
X9081830Y-6230628D01*
X9081830Y-6211732D01*
X9074599Y-6194273D01*
X9061237Y-6180911D01*
X9043778Y-6173680D01*
X9024882Y-6173680D01*
X9011480Y-6179231D01*
X9011480Y-6113780D01*
X9009387Y-6103256D01*
X9003425Y-6094335D01*
X8994504Y-6088373D01*
X8983980Y-6086280D01*
X8346080Y-6086280D01*
X8346080Y-5417982D01*
X8535980Y-5417982D01*
X8535980Y-5436878D01*
X8543211Y-5454337D01*
X8556573Y-5467699D01*
X8561961Y-5469930D01*
X8556573Y-5472161D01*
X8543211Y-5485523D01*
X8535980Y-5502982D01*
X8535980Y-5521878D01*
X8543211Y-5539337D01*
X8556573Y-5552699D01*
X8561961Y-5554930D01*
X8556573Y-5557161D01*
X8543211Y-5570523D01*
X8535980Y-5587982D01*
X8535980Y-5606878D01*
X8543211Y-5624337D01*
X8556573Y-5637699D01*
X8561961Y-5639930D01*
X8556573Y-5642161D01*
X8543211Y-5655523D01*
X8535980Y-5672982D01*
X8535980Y-5691878D01*
X8543211Y-5709337D01*
X8556573Y-5722699D01*
X8561961Y-5724930D01*
X8556573Y-5727161D01*
X8543211Y-5740523D01*
X8535980Y-5757982D01*
X8535980Y-5776878D01*
X8543211Y-5794337D01*
X8556573Y-5807699D01*
X8560753Y-5809430D01*
X8556573Y-5811161D01*
X8543211Y-5824523D01*
X8535980Y-5841982D01*
X8535980Y-5860878D01*
X8543211Y-5878337D01*
X8556573Y-5891699D01*
X8561961Y-5893930D01*
X8556573Y-5896161D01*
X8543211Y-5909523D01*
X8535980Y-5926982D01*
X8535980Y-5945878D01*
X8543211Y-5963337D01*
X8556573Y-5976699D01*
X8561961Y-5978930D01*
X8556573Y-5981161D01*
X8543211Y-5994523D01*
X8535980Y-6011982D01*
X8535980Y-6030878D01*
X8543211Y-6048337D01*
X8556573Y-6061699D01*
X8574032Y-6068930D01*
X8592928Y-6068930D01*
X8610387Y-6061699D01*
X8623749Y-6048337D01*
X8625980Y-6042949D01*
X8628211Y-6048337D01*
X8641573Y-6061699D01*
X8659032Y-6068930D01*
X8677928Y-6068930D01*
X8695387Y-6061699D01*
X8708749Y-6048337D01*
X8715980Y-6030878D01*
X8715980Y-6011982D01*
X8708749Y-5994523D01*
X8695387Y-5981161D01*
X8690000Y-5978930D01*
X8695387Y-5976699D01*
X8708749Y-5963337D01*
X8715980Y-5945878D01*
X8715980Y-5926982D01*
X8708749Y-5909523D01*
X8695387Y-5896161D01*
X8690000Y-5893930D01*
X8695387Y-5891699D01*
X8708749Y-5878337D01*
X8715980Y-5860878D01*
X8715980Y-5841982D01*
X8708749Y-5824523D01*
X8695387Y-5811161D01*
X8691207Y-5809430D01*
X8695387Y-5807699D01*
X8708749Y-5794337D01*
X8715980Y-5776878D01*
X8715980Y-5757982D01*
X8708749Y-5740523D01*
X8695387Y-5727161D01*
X8690000Y-5724930D01*
X8695387Y-5722699D01*
X8708749Y-5709337D01*
X8715980Y-5691878D01*
X8715980Y-5672982D01*
X8708749Y-5655523D01*
X8695387Y-5642161D01*
X8690000Y-5639930D01*
X8695387Y-5637699D01*
X8708749Y-5624337D01*
X8715980Y-5606878D01*
X8715980Y-5587982D01*
X8708749Y-5570523D01*
X8695387Y-5557161D01*
X8690000Y-5554930D01*
X8695387Y-5552699D01*
X8708749Y-5539337D01*
X8715980Y-5521878D01*
X8715980Y-5502982D01*
X8708749Y-5485523D01*
X8695387Y-5472161D01*
X8690000Y-5469930D01*
X8695387Y-5467699D01*
X8708749Y-5454337D01*
X8715980Y-5436878D01*
X8715980Y-5417982D01*
X8708749Y-5400523D01*
X8695387Y-5387161D01*
X8677928Y-5379930D01*
X8659032Y-5379930D01*
X8641573Y-5387161D01*
X8628211Y-5400523D01*
X8625980Y-5405911D01*
X8623749Y-5400523D01*
X8610387Y-5387161D01*
X8592928Y-5379930D01*
X8574032Y-5379930D01*
X8556573Y-5387161D01*
X8543211Y-5400523D01*
X8535980Y-5417982D01*
X8346080Y-5417982D01*
X8346080Y-5339080D01*
X8344367Y-5330470D01*
X8339490Y-5323170D01*
X8332190Y-5318293D01*
X8323580Y-5316580D01*
X7625080Y-5316580D01*
X7616470Y-5318293D01*
X7609170Y-5323170D01*
X7604293Y-5330470D01*
X7602580Y-5339080D01*
X7602580Y-6532880D01*
X7604293Y-6541490D01*
X7609170Y-6548790D01*
X7616470Y-6553667D01*
X7625080Y-6555380D01*
X7679357Y-6555380D01*
X7678780Y-6558280D01*
X7678780Y-7028180D01*
X7680493Y-7036790D01*
X7685370Y-7044090D01*
X7692670Y-7048967D01*
X7701280Y-7050680D01*
X8110580Y-7050680D01*
X8110580Y-7352280D01*
X8099783Y-7352280D01*
X8096582Y-7351643D01*
X8087064Y-7353537D01*
X8083901Y-7354166D01*
X8073151Y-7361349D01*
X8071338Y-7364062D01*
X7788360Y-7647040D01*
X7785646Y-7648853D01*
X7778486Y-7659569D01*
X7775299Y-7651873D01*
X7761937Y-7638511D01*
X7756549Y-7636280D01*
X7761937Y-7634049D01*
X7775299Y-7620687D01*
X7782530Y-7603228D01*
X7782530Y-7584332D01*
X7775299Y-7566873D01*
X7761937Y-7553511D01*
X7756549Y-7551280D01*
X7761937Y-7549049D01*
X7775299Y-7535687D01*
X7782530Y-7518228D01*
X7782530Y-7499332D01*
X7775299Y-7481873D01*
X7761937Y-7468511D01*
X7757757Y-7466780D01*
X7761937Y-7465049D01*
X7775299Y-7451687D01*
X7782530Y-7434228D01*
X7782530Y-7415332D01*
X7775299Y-7397873D01*
X7761937Y-7384511D01*
X7756549Y-7382280D01*
X7761937Y-7380049D01*
X7775299Y-7366687D01*
X7782530Y-7349228D01*
X7782530Y-7330332D01*
X7775299Y-7312873D01*
X7761937Y-7299511D01*
X7756549Y-7297280D01*
X7761937Y-7295049D01*
X7775299Y-7281687D01*
X7782530Y-7264228D01*
X7782530Y-7245332D01*
X7775299Y-7227873D01*
X7761937Y-7214511D01*
X7756549Y-7212280D01*
X7761937Y-7210049D01*
X7775299Y-7196687D01*
X7782530Y-7179228D01*
X7782530Y-7160332D01*
X7775299Y-7142873D01*
X7761937Y-7129511D01*
X7744478Y-7122280D01*
X7725582Y-7122280D01*
X7708123Y-7129511D01*
X7694761Y-7142873D01*
X7687530Y-7160332D01*
X7687530Y-7179228D01*
X7694761Y-7196687D01*
X7708123Y-7210049D01*
X7713510Y-7212280D01*
X7708123Y-7214511D01*
X7694761Y-7227873D01*
X7687530Y-7245332D01*
X7687530Y-7264228D01*
X7694761Y-7281687D01*
X7708123Y-7295049D01*
X7713510Y-7297280D01*
X7708123Y-7299511D01*
X7694761Y-7312873D01*
X7687530Y-7330332D01*
X7687530Y-7349228D01*
X7694761Y-7366687D01*
X7708123Y-7380049D01*
X7713510Y-7382280D01*
X7708123Y-7384511D01*
X7694761Y-7397873D01*
X7687530Y-7415332D01*
X7687530Y-7434228D01*
X7694761Y-7451687D01*
X7708123Y-7465049D01*
X7712303Y-7466780D01*
X7708123Y-7468511D01*
X7694761Y-7481873D01*
X7687530Y-7499332D01*
X7687530Y-7518228D01*
X7694761Y-7535687D01*
X7708123Y-7549049D01*
X7713510Y-7551280D01*
X7708123Y-7553511D01*
X7694761Y-7566873D01*
X7687530Y-7584332D01*
X7687530Y-7603228D01*
X7694761Y-7620687D01*
X7708123Y-7634049D01*
X7713510Y-7636280D01*
X7708123Y-7638511D01*
X7694761Y-7651873D01*
X7687530Y-7669332D01*
X7687530Y-7688228D01*
X7694761Y-7705687D01*
X7708123Y-7719049D01*
X7725582Y-7726280D01*
X7744478Y-7726280D01*
X7761937Y-7719049D01*
X7775299Y-7705687D01*
X7776578Y-7702599D01*
X7776578Y-7973720D01*
X6942719Y-8807579D01*
X6819015Y-8807579D01*
X6811247Y-8799810D01*
X6793788Y-8792579D01*
X6774892Y-8792579D01*
X6757433Y-8799810D01*
X6744071Y-8813172D01*
X6736840Y-8830631D01*
X6736840Y-8849527D01*
X6744071Y-8866986D01*
X6757433Y-8880348D01*
X6774892Y-8887579D01*
X6793788Y-8887579D01*
X6811247Y-8880348D01*
X6819015Y-8872579D01*
X6927218Y-8872579D01*
X6593043Y-9206754D01*
X6590329Y-9208568D01*
X6583146Y-9219318D01*
X6583146Y-9219318D01*
X6580623Y-9231999D01*
X6581260Y-9235200D01*
X6581260Y-10158273D01*
X6581260Y-10158274D01*
X6581260Y-10162155D01*
X6573491Y-10169923D01*
X6566260Y-10187382D01*
X6566260Y-10206278D01*
X6573491Y-10223737D01*
X6586853Y-10237099D01*
X6604312Y-10244330D01*
X6623208Y-10244330D01*
X6640667Y-10237099D01*
X6654029Y-10223737D01*
X6661260Y-10206278D01*
X6661260Y-10187382D01*
X6654029Y-10169923D01*
X6646260Y-10162155D01*
X6646260Y-9245461D01*
X6683327Y-9208394D01*
X6683327Y-10160339D01*
X6683327Y-10160339D01*
X6683327Y-10164220D01*
X6675558Y-10171989D01*
X6668327Y-10189447D01*
X6668327Y-10208344D01*
X6675558Y-10225802D01*
X6688920Y-10239164D01*
X6706378Y-10246396D01*
X6725275Y-10246396D01*
X6742733Y-10239164D01*
X6751840Y-10230057D01*
X6751840Y-10306558D01*
X6552680Y-10505718D01*
X6552680Y-10149231D01*
X6553317Y-10146030D01*
X6550794Y-10133349D01*
X6547446Y-10128338D01*
X6543611Y-10122599D01*
X6540897Y-10120786D01*
X6495530Y-10075418D01*
X6495530Y-10060279D01*
X6494380Y-10054499D01*
X6494380Y-9310755D01*
X6502149Y-9302987D01*
X6509380Y-9285528D01*
X6509380Y-9266632D01*
X6502149Y-9249173D01*
X6488787Y-9235811D01*
X6471329Y-9228580D01*
X6452432Y-9228580D01*
X6439379Y-9233987D01*
X6439379Y-9117093D01*
X6585347Y-8971124D01*
X6588061Y-8969311D01*
X6595244Y-8958561D01*
X6597130Y-8949081D01*
X6597130Y-8949081D01*
X6597767Y-8945880D01*
X6597130Y-8942679D01*
X6597130Y-8688505D01*
X6604673Y-8696049D01*
X6622132Y-8703280D01*
X6641028Y-8703280D01*
X6658487Y-8696049D01*
X6671849Y-8682687D01*
X6674080Y-8677300D01*
X6676311Y-8682687D01*
X6689673Y-8696049D01*
X6707132Y-8703280D01*
X6726028Y-8703280D01*
X6743487Y-8696049D01*
X6756849Y-8682687D01*
X6759080Y-8677300D01*
X6761311Y-8682687D01*
X6774673Y-8696049D01*
X6792132Y-8703280D01*
X6811028Y-8703280D01*
X6828487Y-8696049D01*
X6841849Y-8682687D01*
X6844080Y-8677300D01*
X6846311Y-8682687D01*
X6859673Y-8696049D01*
X6877132Y-8703280D01*
X6896028Y-8703280D01*
X6913487Y-8696049D01*
X6926849Y-8682687D01*
X6929080Y-8677300D01*
X6931311Y-8682687D01*
X6944673Y-8696049D01*
X6962132Y-8703280D01*
X6981028Y-8703280D01*
X6998487Y-8696049D01*
X7011849Y-8682687D01*
X7019080Y-8665228D01*
X7019080Y-8646332D01*
X7011849Y-8628873D01*
X6998487Y-8615511D01*
X6993099Y-8613280D01*
X6998487Y-8611049D01*
X7011849Y-8597687D01*
X7019080Y-8580228D01*
X7019080Y-8561332D01*
X7011849Y-8543873D01*
X6998487Y-8530511D01*
X6981028Y-8523280D01*
X6962132Y-8523280D01*
X6944673Y-8530511D01*
X6931311Y-8543873D01*
X6929080Y-8549261D01*
X6926849Y-8543873D01*
X6913487Y-8530511D01*
X6896028Y-8523280D01*
X6877132Y-8523280D01*
X6859673Y-8530511D01*
X6846311Y-8543873D01*
X6844080Y-8549261D01*
X6841849Y-8543873D01*
X6828487Y-8530511D01*
X6811028Y-8523280D01*
X6792132Y-8523280D01*
X6774673Y-8530511D01*
X6761311Y-8543873D01*
X6759080Y-8549261D01*
X6756849Y-8543873D01*
X6743487Y-8530511D01*
X6726028Y-8523280D01*
X6707132Y-8523280D01*
X6689673Y-8530511D01*
X6676311Y-8543873D01*
X6674080Y-8549261D01*
X6671849Y-8543873D01*
X6658487Y-8530511D01*
X6641028Y-8523280D01*
X6622132Y-8523280D01*
X6604673Y-8530511D01*
X6597130Y-8538055D01*
X6597130Y-8476742D01*
X6698742Y-8375130D01*
X7241155Y-8375130D01*
X7248923Y-8382899D01*
X7266382Y-8390130D01*
X7285278Y-8390130D01*
X7302737Y-8382899D01*
X7316099Y-8369537D01*
X7323330Y-8352078D01*
X7323330Y-8333182D01*
X7316099Y-8315723D01*
X7302737Y-8302361D01*
X7285278Y-8295130D01*
X7266382Y-8295130D01*
X7248923Y-8302361D01*
X7241155Y-8310130D01*
X7163792Y-8310130D01*
X7290197Y-8183724D01*
X7292911Y-8181911D01*
X7300094Y-8171161D01*
X7301980Y-8161681D01*
X7302616Y-8158480D01*
X7301980Y-8155279D01*
X7301980Y-7945505D01*
X7309748Y-7937737D01*
X7316980Y-7920278D01*
X7316980Y-7901382D01*
X7309748Y-7883923D01*
X7296386Y-7870561D01*
X7278928Y-7863330D01*
X7260031Y-7863330D01*
X7242573Y-7870561D01*
X7229211Y-7883923D01*
X7221980Y-7901382D01*
X7221980Y-7920278D01*
X7229211Y-7937737D01*
X7236980Y-7945505D01*
X7236980Y-8145018D01*
X7139580Y-8242418D01*
X7139580Y-7766880D01*
X7441996Y-7766880D01*
X7452520Y-7764787D01*
X7461441Y-7758825D01*
X7467403Y-7749904D01*
X7469496Y-7739380D01*
X7469496Y-7723801D01*
X7475482Y-7726280D01*
X7494378Y-7726280D01*
X7511837Y-7719049D01*
X7525199Y-7705687D01*
X7532430Y-7688228D01*
X7532430Y-7669332D01*
X7525199Y-7651873D01*
X7511837Y-7638511D01*
X7506449Y-7636280D01*
X7511837Y-7634049D01*
X7525199Y-7620687D01*
X7532430Y-7603228D01*
X7532430Y-7584332D01*
X7525199Y-7566873D01*
X7511837Y-7553511D01*
X7506449Y-7551280D01*
X7511837Y-7549049D01*
X7525199Y-7535687D01*
X7532430Y-7518228D01*
X7532430Y-7499332D01*
X7525199Y-7481873D01*
X7511837Y-7468511D01*
X7507657Y-7466780D01*
X7511837Y-7465049D01*
X7525199Y-7451687D01*
X7532430Y-7434228D01*
X7532430Y-7415332D01*
X7525199Y-7397873D01*
X7511837Y-7384511D01*
X7506449Y-7382280D01*
X7511837Y-7380049D01*
X7525199Y-7366687D01*
X7532430Y-7349228D01*
X7532430Y-7330332D01*
X7525199Y-7312873D01*
X7511837Y-7299511D01*
X7506449Y-7297280D01*
X7511837Y-7295049D01*
X7525199Y-7281687D01*
X7532430Y-7264228D01*
X7532430Y-7245332D01*
X7525199Y-7227873D01*
X7511837Y-7214511D01*
X7506449Y-7212280D01*
X7511837Y-7210049D01*
X7525199Y-7196687D01*
X7532430Y-7179228D01*
X7532430Y-7160332D01*
X7525199Y-7142873D01*
X7511837Y-7129511D01*
X7506449Y-7127280D01*
X7511837Y-7125049D01*
X7525199Y-7111687D01*
X7532430Y-7094228D01*
X7532430Y-7075332D01*
X7525199Y-7057873D01*
X7511837Y-7044511D01*
X7494378Y-7037280D01*
X7475482Y-7037280D01*
X7469496Y-7039759D01*
X7469496Y-6951980D01*
X7467403Y-6941456D01*
X7461441Y-6932535D01*
X7452520Y-6926573D01*
X7441996Y-6924480D01*
X6764930Y-6924480D01*
X6764930Y-6209030D01*
X6763217Y-6200420D01*
X6758340Y-6193120D01*
X6751040Y-6188243D01*
X6742430Y-6186530D01*
X6043930Y-6186530D01*
X6035320Y-6188243D01*
X6028020Y-6193120D01*
X6023143Y-6200420D01*
X6021430Y-6209030D01*
X5993686Y-6209030D01*
X6098538Y-6098538D01*
X6199497Y-6002732D01*
X6860030Y-6002732D01*
X6860030Y-6021628D01*
X6867261Y-6039087D01*
X6880623Y-6052449D01*
X6898082Y-6059680D01*
X6916978Y-6059680D01*
X6934437Y-6052449D01*
X6947799Y-6039087D01*
X6955030Y-6021628D01*
X6955030Y-6002732D01*
X6947799Y-5985273D01*
X6934437Y-5971911D01*
X6916978Y-5964680D01*
X6898082Y-5964680D01*
X6880623Y-5971911D01*
X6867261Y-5985273D01*
X6860030Y-6002732D01*
X6199497Y-6002732D01*
X6308072Y-5899698D01*
X6527725Y-5712097D01*
X6678593Y-5596332D01*
X7348980Y-5596332D01*
X7348980Y-5615228D01*
X7356211Y-5632687D01*
X7369573Y-5646049D01*
X7387032Y-5653280D01*
X7405928Y-5653280D01*
X7423387Y-5646049D01*
X7436749Y-5632687D01*
X7443980Y-5615228D01*
X7443980Y-5596332D01*
X7436749Y-5578873D01*
X7423387Y-5565511D01*
X7405928Y-5558280D01*
X7387032Y-5558280D01*
X7369573Y-5565511D01*
X7356211Y-5578873D01*
X7348980Y-5596332D01*
X6678593Y-5596332D01*
X6756895Y-5536249D01*
X6994954Y-5372635D01*
X7241250Y-5221705D01*
X7495107Y-5083872D01*
X7755831Y-4959513D01*
X8022705Y-4848970D01*
X8122308Y-4813699D01*
X9817500Y-4813699D01*
X9817500Y-4886302D01*
X9845284Y-4953378D01*
X9896622Y-5004716D01*
X9963699Y-5032500D01*
X10036302Y-5032500D01*
X10103378Y-5004716D01*
X10154716Y-4953378D01*
X10182500Y-4886302D01*
X10182500Y-4813699D01*
X10154716Y-4746622D01*
X10103378Y-4695284D01*
X10036302Y-4667500D01*
X9963699Y-4667500D01*
X9896622Y-4695284D01*
X9845284Y-4746622D01*
X9817500Y-4813699D01*
X8122308Y-4813699D01*
X8294999Y-4752546D01*
X8571966Y-4670504D01*
X8852847Y-4603071D01*
X9136873Y-4550430D01*
X9423264Y-4512725D01*
X9711236Y-4490062D01*
X10000000Y-4482500D01*
X10288764Y-4490062D01*
D10*
G36*
X11735913Y-7272180D02*
X11057413Y-7272180D01*
X11057413Y-6580980D01*
X11735913Y-6580980D01*
X11735913Y-7272180D01*
X11735913Y-7272180D01*
G37*
X11735913Y-7272180D02*
X11057413Y-7272180D01*
X11057413Y-6580980D01*
X11735913Y-6580980D01*
X11735913Y-7272180D01*
G36*
X9959980Y-6395880D02*
X9885680Y-6395880D01*
X9881853Y-6396641D01*
X9878609Y-6398809D01*
X9876441Y-6402053D01*
X9875680Y-6405880D01*
X9875680Y-6626011D01*
X9813712Y-6687980D01*
X9324180Y-6687980D01*
X9324180Y-6668626D01*
X9326730Y-6662470D01*
X9326730Y-6640590D01*
X9324180Y-6634434D01*
X9324180Y-6584626D01*
X9326730Y-6578470D01*
X9326730Y-6556590D01*
X9324180Y-6550434D01*
X9324180Y-6499626D01*
X9326730Y-6493470D01*
X9326730Y-6471590D01*
X9324180Y-6465434D01*
X9324180Y-6414626D01*
X9326730Y-6408470D01*
X9326730Y-6386590D01*
X9324180Y-6380434D01*
X9324180Y-6329626D01*
X9326730Y-6323470D01*
X9326730Y-6301590D01*
X9324180Y-6295434D01*
X9324180Y-6244626D01*
X9326730Y-6238470D01*
X9326730Y-6216590D01*
X9324180Y-6210434D01*
X9324180Y-5920580D01*
X9959980Y-5920580D01*
X9959980Y-6395880D01*
X9959980Y-6395880D01*
G37*
X9959980Y-6395880D02*
X9885680Y-6395880D01*
X9881853Y-6396641D01*
X9878609Y-6398809D01*
X9876441Y-6402053D01*
X9875680Y-6405880D01*
X9875680Y-6626011D01*
X9813712Y-6687980D01*
X9324180Y-6687980D01*
X9324180Y-6668626D01*
X9326730Y-6662470D01*
X9326730Y-6640590D01*
X9324180Y-6634434D01*
X9324180Y-6584626D01*
X9326730Y-6578470D01*
X9326730Y-6556590D01*
X9324180Y-6550434D01*
X9324180Y-6499626D01*
X9326730Y-6493470D01*
X9326730Y-6471590D01*
X9324180Y-6465434D01*
X9324180Y-6414626D01*
X9326730Y-6408470D01*
X9326730Y-6386590D01*
X9324180Y-6380434D01*
X9324180Y-6329626D01*
X9326730Y-6323470D01*
X9326730Y-6301590D01*
X9324180Y-6295434D01*
X9324180Y-6244626D01*
X9326730Y-6238470D01*
X9326730Y-6216590D01*
X9324180Y-6210434D01*
X9324180Y-5920580D01*
X9959980Y-5920580D01*
X9959980Y-6395880D01*
G36*
X10243980Y-6395880D02*
X10039980Y-6395880D01*
X10039980Y-5920580D01*
X10243980Y-5920580D01*
X10243980Y-6395880D01*
X10243980Y-6395880D01*
G37*
X10243980Y-6395880D02*
X10039980Y-6395880D01*
X10039980Y-5920580D01*
X10243980Y-5920580D01*
X10243980Y-6395880D01*
G36*
X10965093Y-6395880D02*
X10286593Y-6395880D01*
X10286593Y-5272880D01*
X10965093Y-5272880D01*
X10965093Y-6395880D01*
X10965093Y-6395880D01*
G37*
X10965093Y-6395880D02*
X10286593Y-6395880D01*
X10286593Y-5272880D01*
X10965093Y-5272880D01*
X10965093Y-6395880D01*
D17*
G36*
X8087480Y-6697980D02*
X8088051Y-6700850D01*
X8089677Y-6703283D01*
X8092110Y-6704909D01*
X8094980Y-6705480D01*
X8646280Y-6705480D01*
X8646280Y-7340269D01*
X8543270Y-7443279D01*
X8140580Y-7443279D01*
X8140580Y-7028180D01*
X8140009Y-7025310D01*
X8138383Y-7022877D01*
X8135950Y-7021251D01*
X8133080Y-7020680D01*
X7708780Y-7020680D01*
X7708780Y-6565780D01*
X8087480Y-6565780D01*
X8087480Y-6697980D01*
X8087480Y-6697980D01*
G37*
X8087480Y-6697980D02*
X8088051Y-6700850D01*
X8089677Y-6703283D01*
X8092110Y-6704909D01*
X8094980Y-6705480D01*
X8646280Y-6705480D01*
X8646280Y-7340269D01*
X8543270Y-7443279D01*
X8140580Y-7443279D01*
X8140580Y-7028180D01*
X8140009Y-7025310D01*
X8138383Y-7022877D01*
X8135950Y-7021251D01*
X8133080Y-7020680D01*
X7708780Y-7020680D01*
X7708780Y-6565780D01*
X8087480Y-6565780D01*
X8087480Y-6697980D01*
G36*
X8316080Y-6080880D02*
X8094980Y-6080880D01*
X8092110Y-6081451D01*
X8089677Y-6083077D01*
X8088051Y-6085510D01*
X8087480Y-6088380D01*
X8087480Y-6525380D01*
X7632580Y-6525380D01*
X7632580Y-5346580D01*
X8316080Y-5346580D01*
X8316080Y-6080880D01*
X8316080Y-6080880D01*
G37*
X8316080Y-6080880D02*
X8094980Y-6080880D01*
X8092110Y-6081451D01*
X8089677Y-6083077D01*
X8088051Y-6085510D01*
X8087480Y-6088380D01*
X8087480Y-6525380D01*
X7632580Y-6525380D01*
X7632580Y-5346580D01*
X8316080Y-5346580D01*
X8316080Y-6080880D01*
G36*
X6557130Y-7536180D02*
X6557701Y-7539050D01*
X6559327Y-7541483D01*
X6561760Y-7543109D01*
X6564630Y-7543680D01*
X7109580Y-7543680D01*
X7109580Y-8272418D01*
X7106869Y-8275129D01*
X6673982Y-8275129D01*
X6670782Y-8274492D01*
X6667581Y-8275129D01*
X6667581Y-8275129D01*
X6658101Y-8277015D01*
X6647351Y-8284198D01*
X6645538Y-8286911D01*
X6641769Y-8290680D01*
X6527680Y-8290680D01*
X6527680Y-7866380D01*
X6527109Y-7863510D01*
X6525483Y-7861077D01*
X6523050Y-7859451D01*
X6520180Y-7858880D01*
X6095880Y-7858880D01*
X6095880Y-7448430D01*
X6557130Y-7448430D01*
X6557130Y-7536180D01*
X6557130Y-7536180D01*
G37*
X6557130Y-7536180D02*
X6557701Y-7539050D01*
X6559327Y-7541483D01*
X6561760Y-7543109D01*
X6564630Y-7543680D01*
X7109580Y-7543680D01*
X7109580Y-8272418D01*
X7106869Y-8275129D01*
X6673982Y-8275129D01*
X6670782Y-8274492D01*
X6667581Y-8275129D01*
X6667581Y-8275129D01*
X6658101Y-8277015D01*
X6647351Y-8284198D01*
X6645538Y-8286911D01*
X6641769Y-8290680D01*
X6527680Y-8290680D01*
X6527680Y-7866380D01*
X6527109Y-7863510D01*
X6525483Y-7861077D01*
X6523050Y-7859451D01*
X6520180Y-7858880D01*
X6095880Y-7858880D01*
X6095880Y-7448430D01*
X6557130Y-7448430D01*
X6557130Y-7536180D01*
G36*
X6734930Y-6919080D02*
X6564630Y-6919080D01*
X6561760Y-6919651D01*
X6559327Y-6921277D01*
X6557701Y-6923710D01*
X6557130Y-6926580D01*
X6557130Y-7408030D01*
X6095880Y-7408030D01*
X6095880Y-6939280D01*
X6095309Y-6936410D01*
X6093683Y-6933977D01*
X6091250Y-6932351D01*
X6088380Y-6931780D01*
X6051430Y-6931780D01*
X6051430Y-6216530D01*
X6734930Y-6216530D01*
X6734930Y-6919080D01*
X6734930Y-6919080D01*
G37*
X6734930Y-6919080D02*
X6564630Y-6919080D01*
X6561760Y-6919651D01*
X6559327Y-6921277D01*
X6557701Y-6923710D01*
X6557130Y-6926580D01*
X6557130Y-7408030D01*
X6095880Y-7408030D01*
X6095880Y-6939280D01*
X6095309Y-6936410D01*
X6093683Y-6933977D01*
X6091250Y-6932351D01*
X6088380Y-6931780D01*
X6051430Y-6931780D01*
X6051430Y-6216530D01*
X6734930Y-6216530D01*
X6734930Y-6919080D01*
M02*
