M48
;DRILL file {KiCad 5.0.2-bee76a0~70~ubuntu18.04.1} date Di 28 Apr 2020 20:19:38 CEST
;FORMAT={-:-/ absolute / inch / decimal}
FMAT,2
INCH,TZ
T1C0.0079
T2C0.0118
T3C0.0173
T4C0.0394
T5C0.0531
%
G90
G05
T1
X-2.1378Y0.3346
X-2.0787Y0.2677
X-2.0709Y0.1624
X-2.052Y-0.6504
X-2.0433Y-0.5953
X-2.0157Y-0.063
X-2.0118Y0.1024
X-1.9665Y-0.5425
X-1.9331Y-0.3071
X-1.9331Y-0.3346
X-1.9146Y0.7244
X-1.8848Y-0.4154
X-1.8846Y-0.589
X-1.8701Y0.2165
X-1.8622Y0.437
X-1.8386Y0.2205
X-1.8327Y0.5236
X-1.8307Y0.3228
X-1.816Y0.064
X-1.812Y-0.0261
X-1.8087Y-0.1614
X-1.8025Y0.995
X-1.7762Y0.4288
X-1.7756Y0.0197
X-1.7717Y-0.6461
X-1.7677Y0.1575
X-1.7614Y0.7169
X-1.7323Y-0.3358
X-1.7256Y-0.4189
X-1.7244Y-0.5028
X-1.6929Y0.2717
X-1.6835Y-0.5638
X-1.6811Y-0.3571
X-1.6811Y-0.3827
X-1.6614Y0.2835
X-1.6417Y0.0945
X-1.6181Y0.5906
X-1.608Y0.1159
X-1.6049Y0.6361
X-1.5996Y-0.6988
X-1.5984Y-0.1181
X-1.5957Y-0.5425
X-1.5906Y-0.4217
X-1.5906Y-0.5703
X-1.5906Y-0.3236
X-1.5866Y-0.3489
X-1.584Y-0.2989
X-1.5835Y-0.9142
X-1.535Y1.4415
X-1.535Y1.4081
X-1.535Y1.3746
X-1.535Y1.3411
X-1.535Y1.3077
X-1.535Y1.2742
X-1.535Y1.2407
X-1.53Y1.2032
X-1.5275Y0.96
X-1.5275Y0.855
X-1.5265Y1.0977
X-1.5265Y1.0642
X-1.5265Y0.9925
X-1.5156Y-0.7827
X-1.5047Y-0.1657
X-1.5015Y1.475
X-1.5015Y1.4415
X-1.5015Y1.4081
X-1.5015Y1.3746
X-1.5015Y1.3411
X-1.5015Y1.3077
X-1.5015Y1.2742
X-1.5015Y1.2407
X-1.5Y0.2244
X-1.4965Y1.2032
X-1.4961Y0.4331
X-1.494Y0.96
X-1.494Y0.855
X-1.4931Y1.0977
X-1.4931Y1.0642
X-1.4931Y0.9925
X-1.4921Y-0.8622
X-1.4835Y-0.7016
X-1.4789Y-0.2512
X-1.4685Y0.2244
X-1.4681Y1.475
X-1.4681Y1.4415
X-1.4681Y1.4081
X-1.4681Y1.3746
X-1.4681Y1.3411
X-1.4681Y1.3077
X-1.4681Y1.2742
X-1.4681Y1.2407
X-1.4631Y1.2032
X-1.4606Y0.5236
X-1.4606Y0.855
X-1.4584Y-0.7071
X-1.4575Y0.7225
X-1.4567Y-0.8661
X-1.4531Y-1.0283
X-1.4488Y0.3228
X-1.4449Y-0.252
X-1.441Y0.067
X-1.4346Y1.475
X-1.4346Y1.4415
X-1.4346Y1.4081
X-1.4346Y1.3746
X-1.4346Y1.3411
X-1.4346Y1.3077
X-1.4346Y1.2742
X-1.4346Y1.2407
X-1.4339Y-0.3524
X-1.4331Y-0.1181
X-1.4296Y1.2032
X-1.4271Y0.96
X-1.4271Y0.855
X-1.4261Y1.0977
X-1.4261Y1.0642
X-1.4261Y1.0307
X-1.4261Y0.9925
X-1.4246Y-0.3776
X-1.4224Y-1.0299
X-1.4175Y0.7625
X-1.4128Y-0.4016
X-1.4011Y1.475
X-1.4011Y1.4415
X-1.4011Y1.4081
X-1.4011Y1.3746
X-1.4011Y1.3411
X-1.4011Y1.3077
X-1.4011Y1.2742
X-1.4011Y1.2407
X-1.3988Y-0.7815
X-1.398Y-0.7028
X-1.3976Y0.4449
X-1.3961Y1.2032
X-1.395Y0.9925
X-1.3946Y1.0977
X-1.3946Y1.0642
X-1.3946Y1.0307
X-1.3937Y0.0197
X-1.3936Y0.96
X-1.3936Y0.855
X-1.3843Y-0.5453
X-1.3677Y1.475
X-1.3677Y1.4415
X-1.3677Y1.4081
X-1.3677Y1.3746
X-1.3677Y1.3411
X-1.3677Y1.3077
X-1.3677Y1.2742
X-1.3677Y1.2407
X-1.365Y0.9925
X-1.3627Y1.2032
X-1.3625Y0.96
X-1.3625Y0.925
X-1.3625Y0.8915
X-1.3625Y0.855
X-1.3622Y0.5079
X-1.3611Y1.0977
X-1.3611Y1.0642
X-1.3611Y1.0307
X-1.3606Y-0.1608
X-1.3508Y-0.5703
X-1.3342Y1.475
X-1.3342Y1.4415
X-1.3342Y1.4081
X-1.3342Y1.3746
X-1.3342Y1.3411
X-1.3342Y1.3077
X-1.3342Y1.2742
X-1.3342Y1.2407
X-1.3327Y-0.6234
X-1.3307Y0.2638
X-1.3261Y0.5627
X-1.3261Y0.5292
X-1.3115Y-1.3768
X-1.311Y-0.6099
X-1.3007Y1.475
X-1.3007Y1.4415
X-1.3007Y1.4081
X-1.3007Y1.3746
X-1.3007Y1.3411
X-1.3007Y1.3077
X-1.3007Y1.2742
X-1.3007Y1.2407
X-1.3Y1.115
X-1.3Y1.0815
X-1.3Y1.0481
X-1.3Y1.0146
X-1.3Y0.885
X-1.3Y0.8056
X-1.3Y0.7721
X-1.3Y0.7386
X-1.3Y0.7052
X-1.2974Y-0.1176
X-1.2927Y0.5627
X-1.2927Y0.5292
X-1.2835Y0.1024
X-1.2669Y-0.2472
X-1.2665Y1.115
X-1.2665Y1.0815
X-1.2665Y1.0481
X-1.2665Y1.0146
X-1.2665Y0.885
X-1.2665Y0.8056
X-1.2665Y0.7721
X-1.2665Y0.7386
X-1.2665Y0.7052
X-1.2592Y0.5627
X-1.2592Y0.5292
X-1.2528Y-0.3396
X-1.248Y0.122
X-1.239Y-0.365
X-1.237Y-0.4008
X-1.2342Y-0.4435
X-1.2331Y1.115
X-1.2331Y1.0815
X-1.2331Y1.0481
X-1.2331Y1.0146
X-1.2331Y0.885
X-1.2331Y0.8056
X-1.2331Y0.7721
X-1.2331Y0.7386
X-1.2331Y0.7052
X-1.2323Y-0.5453
X-1.2323Y-0.5709
X-1.2319Y-0.5081
X-1.2257Y0.5627
X-1.2257Y0.5292
X-1.2209Y-0.4783
X-1.2175Y1.57
X-1.1996Y1.115
X-1.1996Y1.0815
X-1.1996Y1.0481
X-1.1996Y1.0146
X-1.1996Y0.885
X-1.1996Y0.8056
X-1.1996Y0.7721
X-1.1996Y0.7386
X-1.1996Y0.7052
X-1.1923Y0.5627
X-1.1923Y0.5292
X-1.1909Y-0.7972
X-1.18Y1.334
X-1.1705Y0.0236
X-1.1661Y1.115
X-1.1661Y1.0815
X-1.1661Y1.0481
X-1.1661Y1.0146
X-1.1661Y0.885
X-1.1661Y0.8056
X-1.1661Y0.7721
X-1.1661Y0.7386
X-1.1661Y0.7052
X-1.1563Y-1.5
X-1.1504Y-0.3232
X-1.1459Y-0.439
X-1.1413Y-0.4642
X-1.1368Y-0.3862
X-1.1323Y-1.5307
X-1.1181Y0.4252
X-1.1165Y-0.5185
X-1.1068Y1.1753
X-1.1068Y1.1419
X-1.1068Y1.1084
X-1.1068Y1.0741
X-1.1068Y1.0407
X-1.1068Y1.0072
X-1.1068Y0.9741
X-1.1068Y0.9407
X-1.1068Y0.9072
X-1.1063Y0.2205
X-1.1004Y-1.5657
X-1.0945Y0.5079
X-1.085Y0.3087
X-1.075Y0.8225
X-1.0732Y0.7374
X-1.0709Y0.0591
X-1.07Y1.7725
X-1.0669Y0.2244
X-1.0654Y-0.2295
X-1.0591Y0.0197
X-1.0429Y-1.5728
X-1.0354Y0.4331
X-1.0303Y-0.4217
X-1.0299Y-0.3295
X-1.026Y-0.2358
X-1.025Y1.73
X-1.0043Y-0.1969
X-0.9961Y-1.7098
X-0.9902Y1.1477
X-0.9902Y1.1143
X-0.9902Y1.0808
X-0.9902Y1.0473
X-0.9902Y1.0139
X-0.9902Y0.9808
X-0.9902Y0.9473
X-0.9902Y0.9139
X-0.915Y1.815
X-0.915Y1.7815
X-0.915Y1.7481
X-0.915Y1.7146
X-0.915Y1.6811
X-0.915Y1.6477
X-0.915Y1.6142
X-0.915Y1.5807
X-0.915Y1.5507
X-0.8965Y1.4477
X-0.8965Y1.4142
X-0.895Y1.34
X-0.895Y1.31
X-0.8917Y-0.5494
X-0.8917Y1.1143
X-0.8917Y1.0808
X-0.8917Y1.0473
X-0.8917Y1.0139
X-0.8917Y0.9808
X-0.8917Y0.9473
X-0.8917Y0.9139
X-0.8815Y1.815
X-0.8815Y1.7815
X-0.8815Y1.7481
X-0.8815Y1.7146
X-0.8815Y1.6811
X-0.8815Y1.6477
X-0.8815Y1.6142
X-0.8815Y1.5807
X-0.8815Y1.5507
X-0.88Y1.215
X-0.88Y1.185
X-0.8663Y-0.5394
X-0.865Y1.34
X-0.865Y1.31
X-0.8631Y1.4477
X-0.8631Y1.4142
X-0.85Y1.215
X-0.85Y1.185
X-0.8481Y1.815
X-0.8481Y1.7815
X-0.8481Y1.7481
X-0.8481Y1.7146
X-0.8481Y1.6811
X-0.8481Y1.6477
X-0.8481Y1.6142
X-0.8481Y1.5807
X-0.8481Y1.5507
X-0.8437Y-0.6055
X-0.8409Y-0.6323
X-0.8244Y-0.7835
X-0.8165Y1.215
X-0.8165Y1.185
X-0.8146Y1.815
X-0.8146Y1.7815
X-0.8146Y1.7481
X-0.8146Y1.7146
X-0.8146Y1.6811
X-0.8146Y1.6477
X-0.8146Y1.6142
X-0.8146Y1.5807
X-0.8146Y1.5507
X-0.7981Y1.34
X-0.7981Y1.31
X-0.7961Y1.4477
X-0.7961Y1.4142
X-0.7961Y1.3807
X-0.7933Y-1.6445
X-0.7831Y1.215
X-0.7831Y1.185
X-0.7811Y1.815
X-0.7811Y1.7815
X-0.7811Y1.7481
X-0.7811Y1.7146
X-0.7811Y1.6811
X-0.7811Y1.6477
X-0.7811Y1.6142
X-0.7811Y1.5807
X-0.7811Y1.5507
X-0.7713Y-1.7402
X-0.7661Y1.4477
X-0.7661Y1.4142
X-0.7661Y1.3807
X-0.7646Y1.34
X-0.7646Y1.31
X-0.7496Y1.215
X-0.7496Y1.185
X-0.7477Y1.815
X-0.7477Y1.7815
X-0.7477Y1.7481
X-0.7477Y1.7146
X-0.7477Y1.6811
X-0.7477Y1.6477
X-0.7477Y1.6142
X-0.7477Y1.5807
X-0.7477Y1.5507
X-0.7236Y0.8517
X-0.7161Y1.215
X-0.7142Y1.815
X-0.7142Y1.7815
X-0.7142Y1.7481
X-0.7142Y1.7146
X-0.7142Y1.6811
X-0.7142Y1.6477
X-0.7142Y1.6142
X-0.7142Y1.5807
X-0.7142Y1.5507
X-0.7142Y-1.7669
X-0.7122Y1.1264
X-0.7122Y1.0957
X-0.7105Y0.8721
X-0.7098Y1.0622
X-0.7098Y1.0248
X-0.7028Y-1.676
X-0.695Y1.445
X-0.695Y1.4115
X-0.695Y1.3781
X-0.695Y1.3446
X-0.6902Y0.8852
X-0.6902Y0.8517
X-0.689Y-1.1024
X-0.689Y-1.1417
X-0.689Y-1.1811
X-0.689Y-1.2205
X-0.689Y-1.2598
X-0.685Y1.215
X-0.6811Y1.1264
X-0.6811Y1.0957
X-0.6807Y1.815
X-0.6807Y1.7815
X-0.6807Y1.7481
X-0.6807Y1.7146
X-0.6807Y1.6811
X-0.6807Y1.6477
X-0.6807Y1.6142
X-0.6807Y1.5807
X-0.6807Y1.5507
X-0.6787Y1.0622
X-0.6787Y1.0248
X-0.6615Y1.445
X-0.6615Y1.4115
X-0.6615Y1.3781
X-0.6615Y1.3446
X-0.6594Y-1.1024
X-0.6594Y-1.1417
X-0.6594Y-1.1811
X-0.6594Y-1.2205
X-0.6594Y-1.2598
X-0.6567Y0.8852
X-0.6567Y0.8517
X-0.6528Y-1.752
X-0.6515Y1.215
X-0.6476Y1.1264
X-0.6476Y1.0957
X-0.6452Y1.0622
X-0.6452Y1.0248
X-0.6281Y1.445
X-0.6281Y1.4115
X-0.6281Y1.3781
X-0.6281Y1.3446
X-0.6232Y0.8852
X-0.6232Y0.8517
X-0.6181Y1.215
X-0.6141Y1.1264
X-0.6141Y1.0957
X-0.6138Y-1.7083
X-0.6118Y1.0622
X-0.6118Y1.0248
X-0.5988Y-1.8917
X-0.5946Y1.445
X-0.5946Y1.4115
X-0.5946Y1.3781
X-0.5946Y1.3446
X-0.5898Y0.8852
X-0.5898Y0.8517
X-0.5846Y1.215
X-0.5807Y1.1264
X-0.5807Y1.0957
X-0.5783Y1.0622
X-0.5783Y1.0248
X-0.5669Y-1.7953
X-0.5611Y1.445
X-0.5611Y1.4115
X-0.5611Y1.3781
X-0.5611Y1.3446
X-0.5577Y1.8002
X-0.5577Y1.7668
X-0.5577Y1.7333
X-0.5577Y1.6998
X-0.5577Y1.6664
X-0.5577Y1.6333
X-0.5577Y1.5998
X-0.5577Y1.5664
X-0.5511Y1.215
X-0.5472Y1.1264
X-0.5472Y1.0957
X-0.5448Y1.0622
X-0.5448Y1.0248
X-0.5242Y1.8002
X-0.5242Y1.7668
X-0.5242Y1.7333
X-0.5242Y1.6998
X-0.5242Y1.6664
X-0.5242Y1.6333
X-0.5242Y1.5998
X-0.5242Y1.5664
X-0.5213Y-1.7587
X-0.5043Y0.9972
X-0.4966Y1.508
X-0.4966Y1.4745
X-0.4966Y1.4411
X-0.4966Y1.4068
X-0.4966Y1.3733
X-0.4966Y1.3399
X-0.4966Y1.3068
X-0.4966Y1.2733
X-0.4966Y1.2399
X-0.4583Y1.0512
X-0.3929Y-1.8783
X-0.3752Y1.4877
X-0.3752Y1.4543
X-0.3752Y1.4208
X-0.3752Y1.3873
X-0.3752Y1.3539
X-0.3752Y1.3208
X-0.3752Y1.2873
X-0.3752Y1.2539
X-0.3531Y-1.8693
X-0.3154Y-1.8673
X-0.2942Y1.8155
X-0.2942Y1.782
X-0.2942Y1.7485
X-0.2942Y1.7143
X-0.2942Y1.6808
X-0.2942Y1.6474
X-0.2942Y1.6143
X-0.2942Y1.5808
X-0.2942Y1.5474
X-0.2914Y1.2564
X-0.2867Y1.4852
X-0.2867Y1.4518
X-0.2867Y1.4183
X-0.2867Y1.3848
X-0.2867Y1.3514
X-0.2867Y1.3183
X-0.2867Y1.2848
X-0.2783Y-1.8815
X-0.2421Y1.4346
X-0.2413Y1.3386
X-0.2409Y1.4031
X-0.2406Y1.3732
X-0.2361Y1.7496
X-0.2361Y1.7161
X-0.2361Y1.6827
X-0.2361Y1.6492
X-0.2311Y1.5246
X-0.2308Y1.1639
X-0.23Y1.195
X-0.2142Y1.4358
X-0.2134Y1.3398
X-0.213Y1.4043
X-0.2126Y1.3744
X-0.2027Y1.7496
X-0.2027Y1.7161
X-0.2027Y1.6827
X-0.2027Y1.6492
X-0.2002Y1.1667
X-0.1977Y1.5246
X-0.1973Y1.1973
X-0.1839Y1.3402
X-0.1835Y1.435
X-0.1835Y1.4047
X-0.1831Y1.3748
X-0.1692Y1.7496
X-0.1692Y1.7161
X-0.1692Y1.6827
X-0.1692Y1.6492
X-0.1667Y1.2002
X-0.1667Y1.1667
X-0.1642Y1.5246
X-0.1598Y-1.9827
X-0.1512Y1.4354
X-0.1504Y1.3394
X-0.15Y1.4039
X-0.1496Y1.374
X-0.1357Y1.7496
X-0.1357Y1.7161
X-0.1357Y1.6827
X-0.1357Y1.6492
X-0.1332Y1.2002
X-0.1332Y1.1667
X-0.1307Y1.5246
X-0.1275Y1.1175
X-0.1225Y1.04
X-0.1146Y1.4358
X-0.1146Y1.3406
X-0.1142Y1.4051
X-0.1138Y1.3752
X-0.1023Y1.7496
X-0.1023Y1.7161
X-0.1023Y1.6827
X-0.1023Y1.6492
X-0.0998Y1.2002
X-0.0998Y1.1667
X-0.0973Y1.5246
X-0.0839Y1.4358
X-0.0839Y1.3406
X-0.0835Y1.4051
X-0.0831Y1.3752
X-0.035Y1.58
X-0.035Y1.55
X-0.035Y1.52
X-0.035Y1.49
X-0.035Y1.46
X-0.035Y1.43
X-0.0157Y-1.7594
X0.Y1.695
X0.0063Y1.2787
X0.0197Y-1.1516
X0.0197Y-1.2008
X0.0197Y-1.25
X0.0197Y-1.2992
X0.0197Y-1.3484
X0.0197Y-1.3976
X0.0197Y-1.437
X0.0587Y1.0169
X0.075Y1.58
X0.075Y1.55
X0.075Y1.46
X0.075Y1.43
X0.0772Y-2.063
X0.13Y1.84
X0.13Y1.8065
X0.13Y1.7731
X0.13Y1.7396
X0.13Y1.7061
X0.13Y1.6727
X0.13Y1.6392
X0.13Y1.6057
X0.13Y1.5746
X0.13Y1.5411
X0.1429Y-1.6516
X0.1635Y1.84
X0.1635Y1.8065
X0.1635Y1.7731
X0.1635Y1.7396
X0.1635Y1.7061
X0.1635Y1.6727
X0.1635Y1.6392
X0.1635Y1.6057
X0.1635Y1.5746
X0.1635Y1.5411
X0.1635Y1.4742
X0.1635Y1.4407
X0.1969Y1.84
X0.1969Y1.8065
X0.1969Y1.7731
X0.1969Y1.7396
X0.1969Y1.7061
X0.1969Y1.6727
X0.1969Y1.6392
X0.1969Y1.6057
X0.1969Y1.5746
X0.1969Y1.5411
X0.1969Y1.4742
X0.1969Y1.4407
X0.2304Y1.84
X0.2304Y1.8065
X0.2304Y1.7731
X0.2304Y1.7396
X0.2304Y1.7061
X0.2304Y1.6727
X0.2304Y1.6392
X0.2304Y1.6057
X0.2639Y1.84
X0.2639Y1.8065
X0.2639Y1.7731
X0.2639Y1.7396
X0.2639Y1.7061
X0.2639Y1.6727
X0.2639Y1.6392
X0.2639Y1.6057
X0.275Y1.255
X0.2973Y1.84
X0.2973Y1.8065
X0.2973Y1.7731
X0.2973Y1.7396
X0.2973Y1.7061
X0.2973Y1.6727
X0.2973Y1.6392
X0.2973Y1.6057
X0.3Y1.5746
X0.3Y1.5411
X0.3Y1.5077
X0.3Y1.4742
X0.3Y1.4407
X0.3308Y1.84
X0.3308Y1.8065
X0.3308Y1.7731
X0.3308Y1.7396
X0.3308Y1.7061
X0.3308Y1.6727
X0.3308Y1.6392
X0.3308Y1.6057
X0.3335Y1.5746
X0.3335Y1.5411
X0.3335Y1.5077
X0.3335Y1.4742
X0.3335Y1.4407
X0.3643Y1.84
X0.3643Y1.8065
X0.3643Y1.7731
X0.3643Y1.7396
X0.3643Y1.7061
X0.3643Y1.6727
X0.3643Y1.6392
X0.3643Y1.6057
X0.3669Y1.5746
X0.3669Y1.5411
X0.3669Y1.5077
X0.3669Y1.4742
X0.3669Y1.4407
X0.43Y1.325
X0.43Y1.2915
X0.43Y1.2581
X0.43Y1.2246
X0.43Y1.1911
X0.43Y1.1577
X0.43Y1.1242
X0.43Y1.0907
X0.4635Y1.325
X0.4635Y1.2915
X0.4635Y1.2581
X0.4635Y1.2246
X0.4635Y1.1911
X0.4635Y1.1577
X0.4635Y1.1242
X0.4635Y1.0907
X0.4911Y-1.7431
X0.4969Y1.325
X0.4969Y1.2915
X0.4969Y1.2581
X0.4969Y1.2246
X0.4969Y1.1911
X0.4969Y1.1577
X0.4969Y1.1242
X0.4969Y1.0907
X0.5304Y1.325
X0.5304Y1.2915
X0.5304Y1.2581
X0.5304Y1.2246
X0.5304Y1.1911
X0.5304Y1.1577
X0.5304Y1.1242
X0.5304Y1.0907
X0.5413Y-1.7421
X0.561Y-2.0768
X0.5639Y1.325
X0.5639Y1.2915
X0.5639Y1.2581
X0.5639Y1.2246
X0.5639Y1.1911
X0.5639Y1.1577
X0.5639Y1.1242
X0.5639Y1.0907
X0.5709Y-1.7421
X0.5785Y1.6365
X0.5785Y1.6031
X0.5785Y1.5696
X0.5785Y1.5361
X0.5785Y1.5027
X0.5785Y1.4692
X0.5973Y1.325
X0.5973Y1.2915
X0.5973Y1.2581
X0.5973Y1.2246
X0.5973Y1.1911
X0.5973Y1.1577
X0.5973Y1.1242
X0.5973Y1.0907
X0.6004Y-1.7421
X0.6119Y1.6365
X0.6119Y1.6031
X0.6119Y1.5696
X0.6119Y1.5361
X0.6119Y1.5027
X0.6119Y1.4692
X0.6299Y-1.7421
X0.6308Y1.325
X0.6308Y1.2915
X0.6308Y1.2581
X0.6308Y1.2246
X0.6308Y1.1911
X0.6308Y1.1577
X0.6308Y1.1242
X0.6308Y1.0907
X0.6454Y1.6365
X0.6454Y1.6031
X0.6454Y1.5696
X0.6454Y1.5361
X0.6454Y1.5027
X0.6454Y1.4692
X0.6594Y-1.7421
X0.6643Y1.325
X0.6643Y1.2915
X0.6643Y1.2581
X0.6643Y1.2246
X0.6643Y1.1911
X0.6643Y1.1577
X0.6643Y1.1242
X0.6643Y1.0907
X0.6789Y1.6365
X0.6789Y1.6031
X0.6789Y1.5696
X0.6789Y1.5361
X0.6789Y1.5027
X0.6789Y1.4692
X0.689Y-1.7421
X0.7123Y1.6365
X0.7123Y1.6031
X0.7123Y1.5696
X0.7123Y1.5361
X0.7123Y1.5027
X0.7123Y1.4692
X0.7185Y-1.7421
X0.7458Y1.6365
X0.7458Y1.6031
X0.7458Y1.5696
X0.7458Y1.5361
X0.7458Y1.5027
X0.7458Y1.4692
X0.748Y-1.7421
X0.7567Y-1.8693
X0.7776Y-1.7421
X0.8071Y-1.7421
X0.8366Y-1.7421
X1.4488Y0.0433
X1.4698Y0.0242
X1.6063Y0.437
X1.6142Y0.1339
X1.6378Y0.437
X1.6457Y0.1339
X1.6732Y-0.2402
T2
X-0.2018Y-1.485
X-0.2018Y-1.5323
X-0.2018Y-1.5835
X-0.2018Y-1.6268
X-0.1545Y-1.485
X-0.1545Y-1.5323
X-0.1545Y-1.5835
X-0.1545Y-1.6268
T3
X-1.5587Y-1.3166
X-1.5244Y-1.3547
X-1.5123Y-1.3093
X-1.4902Y-1.3927
X-1.478Y-1.3474
T4
X-0.935Y-0.6348
X-0.935Y-0.7348
X-0.935Y-0.8348
X-0.935Y-0.9348
X-0.935Y-1.0348
T5
X-1.6121Y-1.2443
X-1.4238Y-1.4535
T0
M30
