%TF.GenerationSoftware,KiCad,Pcbnew,5.0.2-bee76a0~70~ubuntu18.04.1*%
%TF.CreationDate,2020-08-20T12:10:36+02:00*%
%TF.ProjectId,gsvesc,67737665-7363-42e6-9b69-6361645f7063,rev?*%
%TF.SameCoordinates,Original*%
%TF.FileFunction,Copper,L2,Inr*%
%TF.FilePolarity,Positive*%
%FSLAX46Y46*%
G04 Gerber Fmt 4.6, Leading zero omitted, Abs format (unit mm)*
G04 Created by KiCad (PCBNEW 5.0.2-bee76a0~70~ubuntu18.04.1) date Do 20 Aug 2020 12:10:36 CEST*
%MOMM*%
%LPD*%
G01*
G04 APERTURE LIST*
%ADD10C,0.200000*%
%ADD11R,1.700000X1.700000*%
%ADD12O,1.700000X1.700000*%
%ADD13C,0.600000*%
%ADD14C,1.850000*%
%ADD15C,0.840000*%
%ADD16C,0.100000*%
%ADD17C,0.500000*%
%ADD18C,0.150000*%
%ADD19C,0.600000*%
%ADD20C,0.210000*%
%ADD21C,0.254000*%
G04 APERTURE END LIST*
D10*
X155499800Y-99999800D02*
G75*
G03X155499800Y-99999800I-55500000J0D01*
G01*
X124500000Y-100000000D02*
G75*
G03X124500000Y-100000000I-24500000J0D01*
G01*
D11*
X148299800Y-114799800D03*
D12*
X148299800Y-117339800D03*
X148299800Y-119879800D03*
X76249800Y-126284800D03*
X76249800Y-123744800D03*
X76249800Y-121204800D03*
X76249800Y-118664800D03*
D11*
X76249800Y-116124800D03*
D13*
X94874800Y-137719800D03*
X94874800Y-138919800D03*
X96074800Y-138919800D03*
X96074800Y-137719800D03*
X94874800Y-141319800D03*
X94874800Y-140219800D03*
X96074800Y-140219800D03*
X96074800Y-141319800D03*
D14*
X59051280Y-131604760D03*
X63835564Y-136918246D03*
D15*
X60410060Y-133442623D03*
X61588140Y-133256537D03*
X61279930Y-134408712D03*
X62458010Y-134222625D03*
X62149800Y-135374800D03*
D16*
G36*
X62742956Y-135405886D02*
X62118714Y-135967956D01*
X61556644Y-135343714D01*
X62180886Y-134781644D01*
X62742956Y-135405886D01*
X62742956Y-135405886D01*
G37*
D17*
X74489800Y-104999800D03*
X99599800Y-144689800D03*
X62799800Y-104399800D03*
X98599800Y-128799800D03*
X97699800Y-128799800D03*
X96899800Y-128799800D03*
X96099800Y-128799800D03*
X116999800Y-140899800D03*
X117399800Y-149699778D03*
X111799800Y-142399800D03*
X110299800Y-66799800D03*
X110299800Y-65899800D03*
X111099800Y-65899800D03*
X110299800Y-68599800D03*
X111099800Y-68599800D03*
X111099800Y-66799800D03*
X110299800Y-67699800D03*
X111099800Y-67699800D03*
X89899800Y-67599800D03*
X89899800Y-66699800D03*
X89899800Y-68499800D03*
X90699800Y-67599800D03*
X90699800Y-65799800D03*
X89899800Y-65799800D03*
X90699800Y-68499800D03*
X90699800Y-66699800D03*
X70199800Y-68399800D03*
X70199800Y-67499800D03*
X70199800Y-65699800D03*
X70199800Y-66599800D03*
X131399800Y-102099800D03*
X132199800Y-102099800D03*
X132999800Y-102099800D03*
X133799800Y-102099800D03*
X134599800Y-102099800D03*
X135399800Y-102099800D03*
X136199800Y-102099800D03*
X136999800Y-102099800D03*
X131399800Y-102899800D03*
X132199800Y-102899800D03*
X132999800Y-102899800D03*
X133799800Y-102899800D03*
X134599800Y-102899800D03*
X135399800Y-102899800D03*
X136199800Y-102899800D03*
X136999800Y-102899800D03*
X131399800Y-103699800D03*
X132199800Y-103699800D03*
X132999800Y-103699800D03*
X133799800Y-103699800D03*
X134599800Y-103699800D03*
X135399800Y-103699800D03*
X136199800Y-103699800D03*
X136999800Y-103699800D03*
X131399800Y-104499800D03*
X132199800Y-104499800D03*
X132999800Y-104499800D03*
X133799800Y-104499800D03*
X134599800Y-104499800D03*
X135399800Y-104499800D03*
X136199800Y-104499800D03*
X136999800Y-104499800D03*
X131399800Y-105299800D03*
X132199800Y-105299800D03*
X132999800Y-105299800D03*
X133799800Y-105299800D03*
X134599800Y-105299800D03*
X135399800Y-105299800D03*
X136199800Y-105299800D03*
X136999800Y-105299800D03*
X131399800Y-106099800D03*
X132199800Y-106099800D03*
X132999800Y-106099800D03*
X133799800Y-106099800D03*
X134599800Y-106099800D03*
X135399800Y-106099800D03*
X136199800Y-106099800D03*
X136999800Y-106099800D03*
X131399800Y-106899800D03*
X132199800Y-106899800D03*
X132999800Y-106899800D03*
X133799800Y-106899800D03*
X134599800Y-106899800D03*
X135399800Y-106899800D03*
X136199800Y-106899800D03*
X136999800Y-106899800D03*
X131399800Y-107699800D03*
X132199800Y-107699800D03*
X132999800Y-107699800D03*
X133799800Y-107699800D03*
X134599800Y-107699800D03*
X135399800Y-107699800D03*
X136199800Y-107699800D03*
X136999800Y-107699800D03*
X131799800Y-87499800D03*
X128599800Y-88299800D03*
X128599800Y-89099800D03*
X132599800Y-89099800D03*
X132599800Y-88299800D03*
X130999800Y-88299800D03*
X130999800Y-87499800D03*
X131799800Y-88299800D03*
X130199800Y-89099800D03*
X130199800Y-88299800D03*
X129399800Y-89099800D03*
X132599800Y-87499800D03*
X130999800Y-89099800D03*
X129399800Y-87499800D03*
X129399800Y-88299800D03*
X130199800Y-87499800D03*
X128599800Y-87499800D03*
X131799800Y-89099800D03*
X130199800Y-89899800D03*
X131799800Y-91499800D03*
X130999800Y-89899800D03*
X130199800Y-90699800D03*
X129399800Y-91499800D03*
X132599800Y-89899800D03*
X128599800Y-91499800D03*
X131799800Y-89899800D03*
X128599800Y-90699800D03*
X132599800Y-90699800D03*
X132599800Y-91499800D03*
X129399800Y-89899800D03*
X130199800Y-91499800D03*
X128599800Y-89899800D03*
X129399800Y-90699800D03*
X131799800Y-90699800D03*
X130999800Y-90699800D03*
X130999800Y-91499800D03*
X129399800Y-78699800D03*
X127799800Y-77099800D03*
X128599800Y-78699800D03*
X129399800Y-77899800D03*
X130199800Y-77099800D03*
X126999800Y-78699800D03*
X130999800Y-77099800D03*
X127799800Y-78699800D03*
X130999800Y-77899800D03*
X126999800Y-77899800D03*
X126999800Y-77099800D03*
X130199800Y-78699800D03*
X129399800Y-77099800D03*
X130999800Y-78699800D03*
X130199800Y-77899800D03*
X127799800Y-77899800D03*
X128599800Y-77899800D03*
X128599800Y-77099800D03*
X126999800Y-74699800D03*
X126999800Y-75499800D03*
X127799800Y-76299800D03*
X127799800Y-74699800D03*
X130199800Y-76299800D03*
X127799800Y-75499800D03*
X130199800Y-75499800D03*
X126999800Y-76299800D03*
X129399800Y-75499800D03*
X129399800Y-76299800D03*
X129399800Y-74699800D03*
X128599800Y-76299800D03*
X128599800Y-75499800D03*
X128599800Y-74699800D03*
X124499800Y-78699800D03*
X125299800Y-78699800D03*
X126099800Y-77899800D03*
X124499800Y-77899800D03*
X126099800Y-75499800D03*
X124499800Y-74699800D03*
X125299800Y-77899800D03*
X125299800Y-74699800D03*
X125299800Y-75499800D03*
X126099800Y-78699800D03*
X125299800Y-76299800D03*
X126099800Y-76299800D03*
X124499800Y-76299800D03*
X126099800Y-77099800D03*
X126099800Y-74699800D03*
X125299800Y-77099800D03*
X124499800Y-77099800D03*
X124499800Y-75499800D03*
X69449800Y-68399800D03*
X69449800Y-67499800D03*
X69449800Y-65699800D03*
X69449800Y-66599800D03*
X68699800Y-68399800D03*
X68699800Y-67499800D03*
X68699800Y-65699800D03*
X68699800Y-66599800D03*
X67949800Y-67499800D03*
X67949800Y-65699800D03*
X67949800Y-68399800D03*
X67949800Y-66599800D03*
X70199800Y-69149800D03*
X68699800Y-69149800D03*
X69449800Y-69149800D03*
X67949800Y-69149800D03*
X72099800Y-64399800D03*
X72099800Y-63499800D03*
X71349800Y-64399800D03*
X71349800Y-63499800D03*
X72099800Y-65299800D03*
X71349800Y-65299800D03*
X89899800Y-69299800D03*
X90699800Y-69299800D03*
X88299800Y-67599800D03*
X88299800Y-66699800D03*
X88299800Y-68499800D03*
X89099800Y-67599800D03*
X89099800Y-65799800D03*
X88299800Y-65799800D03*
X89099800Y-68499800D03*
X89099800Y-66699800D03*
X88299800Y-69299800D03*
X89099800Y-69299800D03*
X92799800Y-63499800D03*
X92799800Y-65299800D03*
X92799800Y-64399800D03*
X108699800Y-66799800D03*
X108699800Y-65899800D03*
X109499800Y-65899800D03*
X108699800Y-68599800D03*
X109499800Y-68599800D03*
X109499800Y-66799800D03*
X108699800Y-67699800D03*
X109499800Y-67699800D03*
X110299800Y-69399800D03*
X111099800Y-69399800D03*
X108699800Y-69399800D03*
X109499800Y-69399800D03*
X112199800Y-64399800D03*
X112199800Y-63499800D03*
X112999800Y-63499800D03*
X112999800Y-64399800D03*
X112199800Y-65299800D03*
X112999800Y-65299800D03*
X91999800Y-63499800D03*
X91999800Y-65299800D03*
X91999800Y-64399800D03*
X72674800Y-77924800D03*
X62899800Y-85599800D03*
X62937304Y-77962296D03*
X52837300Y-78062300D03*
X52999800Y-85699800D03*
X78699800Y-80199800D03*
X50199800Y-85699800D03*
X60299800Y-85599800D03*
X50299800Y-78099800D03*
X60659057Y-77962295D03*
X71199800Y-77099800D03*
X70524779Y-86299776D03*
X72874821Y-85654800D03*
X131799800Y-92299800D03*
X132599800Y-93899800D03*
X132599800Y-93099800D03*
X130999800Y-93099800D03*
X130999800Y-92299800D03*
X131799800Y-93099800D03*
X130199800Y-93899800D03*
X130199800Y-93099800D03*
X129399800Y-93899800D03*
X132599800Y-92299800D03*
X130999800Y-93899800D03*
X130199800Y-92299800D03*
X131799800Y-93899800D03*
X128599800Y-93099800D03*
X128599800Y-93899800D03*
X129399800Y-92299800D03*
X129399800Y-93099800D03*
X128599800Y-92299800D03*
X130199800Y-94699800D03*
X131799800Y-96299800D03*
X130999800Y-94699800D03*
X130199800Y-95499800D03*
X129399800Y-96299800D03*
X132599800Y-94699800D03*
X128599800Y-96299800D03*
X131799800Y-94699800D03*
X128599800Y-95499800D03*
X132599800Y-95499800D03*
X132599800Y-96299800D03*
X129399800Y-94699800D03*
X130199800Y-96299800D03*
X128599800Y-94699800D03*
X129399800Y-95499800D03*
X131799800Y-95499800D03*
X130999800Y-95499800D03*
X130999800Y-96299800D03*
X134099800Y-87499800D03*
X134899800Y-89099800D03*
X134899800Y-88299800D03*
X133299800Y-88299800D03*
X133299800Y-87499800D03*
X134099800Y-88299800D03*
X133299800Y-89099800D03*
X134099800Y-89099800D03*
X134099800Y-91499800D03*
X133299800Y-89899800D03*
X134899800Y-89899800D03*
X134099800Y-89899800D03*
X134899800Y-90699800D03*
X134899800Y-91499800D03*
X134099800Y-90699800D03*
X133299800Y-90699800D03*
X133299800Y-91499800D03*
X134099800Y-93899800D03*
X134099800Y-94699800D03*
X133299800Y-93099800D03*
X133299800Y-92299800D03*
X134099800Y-95499800D03*
X134899800Y-93099800D03*
X134899800Y-96299800D03*
X134099800Y-96299800D03*
X134099800Y-93099800D03*
X133299800Y-93899800D03*
X133299800Y-96299800D03*
X134899800Y-94699800D03*
X133299800Y-94699800D03*
X133299800Y-95499800D03*
X134899800Y-95499800D03*
X134899800Y-92299800D03*
X134899800Y-93899800D03*
X134099800Y-92299800D03*
X135699800Y-89899800D03*
X135699800Y-95499800D03*
X135699800Y-93099800D03*
X135699800Y-91499800D03*
X135699800Y-92299800D03*
X135699800Y-93899800D03*
X135699800Y-90699800D03*
X135699800Y-96299800D03*
X135699800Y-94699800D03*
X129399800Y-73899800D03*
X127799800Y-72299800D03*
X128599800Y-73899800D03*
X127799800Y-73099800D03*
X128599800Y-73099800D03*
X128599800Y-72299800D03*
X124499800Y-73899800D03*
X125299800Y-73899800D03*
X126099800Y-73099800D03*
X124499800Y-73099800D03*
X125299800Y-73099800D03*
X126099800Y-73899800D03*
X126099800Y-72299800D03*
X125299800Y-72299800D03*
X124499800Y-72299800D03*
X126999800Y-73899800D03*
X127799800Y-73899800D03*
X126999800Y-73099800D03*
X126999800Y-72299800D03*
X135699800Y-88299800D03*
X135699800Y-89099800D03*
X135699800Y-87499800D03*
X134899800Y-87499800D03*
X85599800Y-145599800D03*
X64469800Y-119849800D03*
X79999796Y-123199800D03*
X50899800Y-107799800D03*
X57299790Y-109069891D03*
X73799800Y-111199800D03*
X59399796Y-110799800D03*
X53874200Y-98374200D03*
X63599800Y-102999800D03*
X59779800Y-123219800D03*
X54059800Y-104099800D03*
X54999800Y-116409800D03*
X74699800Y-143429800D03*
X79849800Y-141769800D03*
X82149800Y-142569800D03*
X84409800Y-143389800D03*
X86759800Y-144669800D03*
X84789800Y-148049800D03*
X95939800Y-150359800D03*
X101959800Y-152399800D03*
X82499800Y-131999800D03*
X83249800Y-131999800D03*
X83249800Y-130999800D03*
X82499800Y-130999800D03*
X83249800Y-129999800D03*
X82499800Y-129999800D03*
X83249800Y-128999800D03*
X82499800Y-128999800D03*
X83249800Y-127999800D03*
X82499800Y-127999800D03*
X61799800Y-98299800D03*
X68924790Y-120249800D03*
X133999800Y-134599800D03*
X73099808Y-98399800D03*
X135999800Y-128699800D03*
X61424790Y-119879800D03*
X72974821Y-105824790D03*
X79799800Y-78899800D03*
X47199800Y-93199800D03*
X51265807Y-92006000D03*
X61099800Y-92299800D03*
X55799800Y-91999800D03*
X69074800Y-92124802D03*
X72874821Y-91399800D03*
X75599800Y-87599800D03*
X55999790Y-108529800D03*
X50799800Y-94037300D03*
X56099800Y-111199800D03*
X61899800Y-111674810D03*
X60799800Y-94693600D03*
X56199800Y-112769800D03*
X68499800Y-111699800D03*
X71499800Y-94299800D03*
X59370300Y-117749800D03*
X73129300Y-118729300D03*
X81574800Y-78899800D03*
X83419800Y-144499800D03*
X70762709Y-112118819D03*
X81859800Y-144879800D03*
X68905859Y-112207374D03*
X80409800Y-144199800D03*
X68799800Y-112899798D03*
X77995086Y-113699980D03*
X66699987Y-115490928D03*
X92929800Y-147789800D03*
X78570683Y-115378917D03*
X62319800Y-117819798D03*
X91989800Y-147429800D03*
X78639800Y-116059800D03*
X62956832Y-117959053D03*
X91029800Y-147479800D03*
X66148370Y-115834779D03*
X77349800Y-113954779D03*
X90019800Y-147709800D03*
X70629800Y-138099800D03*
X60358786Y-107519531D03*
X71239800Y-138879800D03*
X60199800Y-108149800D03*
X72049802Y-139769800D03*
X59230563Y-108758796D03*
X68324779Y-105499800D03*
X73949800Y-106949800D03*
X68524779Y-107999800D03*
X73770212Y-108439388D03*
X127699800Y-128299800D03*
X63089800Y-126119800D03*
X63599800Y-108449787D03*
X63869800Y-126159800D03*
X63599800Y-109099800D03*
X73509800Y-139949800D03*
X64489800Y-117849800D03*
X52899800Y-83299800D03*
X57299800Y-107499800D03*
X68199800Y-110099800D03*
X62864800Y-83064800D03*
X68634228Y-109574821D03*
X70824790Y-109698896D03*
X72699800Y-83299800D03*
X81199800Y-59149800D03*
X82799800Y-57549800D03*
X81199800Y-58349800D03*
X84399800Y-55149800D03*
X84399800Y-56749800D03*
X84399800Y-58349800D03*
X81199800Y-57549800D03*
X82799800Y-56749800D03*
X81199800Y-55949800D03*
X81999800Y-57549800D03*
X81999800Y-56749800D03*
X81999800Y-58349800D03*
X82799800Y-55149800D03*
X84399800Y-57549800D03*
X82799800Y-59149800D03*
X81199800Y-56749800D03*
X81999800Y-59149800D03*
X83599800Y-59149800D03*
X81999800Y-55149800D03*
X83599800Y-55949800D03*
X83599800Y-55149800D03*
X81999800Y-55949800D03*
X82799800Y-55949800D03*
X83599800Y-57549800D03*
X84399800Y-59149800D03*
X82799800Y-58349800D03*
X83599800Y-56749800D03*
X81199800Y-55149800D03*
X83599800Y-58349800D03*
X84399800Y-55949800D03*
X85249800Y-55149800D03*
X85249800Y-59149800D03*
X85249800Y-55949800D03*
X85249800Y-57549800D03*
X85249800Y-56749800D03*
X85249800Y-58349800D03*
X105699800Y-56749800D03*
X104899800Y-58349800D03*
X104899800Y-57549800D03*
X101699800Y-59149800D03*
X101699800Y-56749800D03*
X105699800Y-59149800D03*
X101699800Y-57549800D03*
X104099800Y-56749800D03*
X104099800Y-59149800D03*
X102499800Y-56749800D03*
X104099800Y-55949800D03*
X104899800Y-55149800D03*
X103299800Y-55149800D03*
X103299800Y-55949800D03*
X101699800Y-58349800D03*
X104099800Y-58349800D03*
X102499800Y-59149800D03*
X104099800Y-57549800D03*
X101699800Y-55149800D03*
X105699800Y-55949800D03*
X104899800Y-59149800D03*
X104899800Y-55949800D03*
X103299800Y-57549800D03*
X102499800Y-57549800D03*
X102499800Y-58349800D03*
X102499800Y-55149800D03*
X104899800Y-56749800D03*
X104099800Y-55149800D03*
X105699800Y-57549800D03*
X103299800Y-58349800D03*
X102499800Y-55949800D03*
X105699800Y-58349800D03*
X101699800Y-55949800D03*
X103299800Y-56749800D03*
X103299800Y-59149800D03*
X105699800Y-55149800D03*
X66189800Y-106648331D03*
X67999800Y-128599800D03*
X130399800Y-132299800D03*
X68599800Y-128199800D03*
X66799800Y-106399800D03*
X129499800Y-131799800D03*
X65399810Y-104083186D03*
X65399800Y-92399800D03*
X124899800Y-55499800D03*
X123299800Y-57899800D03*
X126499800Y-57899800D03*
X122499800Y-58699800D03*
X125699800Y-55499800D03*
X126499800Y-55499800D03*
X123299800Y-59499800D03*
X124099800Y-59499800D03*
X124899800Y-59499800D03*
X125699800Y-59499800D03*
X126499800Y-59499800D03*
X122499800Y-57099800D03*
X123299800Y-57099800D03*
X124099800Y-57099800D03*
X124899800Y-57099800D03*
X122499800Y-57899800D03*
X124099800Y-57899800D03*
X124899800Y-57899800D03*
X125699800Y-57899800D03*
X122499800Y-56299800D03*
X126499800Y-58699800D03*
X122499800Y-59499800D03*
X123299800Y-58699800D03*
X124099800Y-58699800D03*
X124899800Y-58699800D03*
X125699800Y-58699800D03*
X125699800Y-56299800D03*
X126499800Y-56299800D03*
X123299800Y-55499800D03*
X122499800Y-55499800D03*
X123299800Y-56299800D03*
X124099800Y-56299800D03*
X124899800Y-56299800D03*
X124099800Y-55499800D03*
X125699800Y-57099800D03*
X126499800Y-57099800D03*
X146999800Y-101899800D03*
X147799800Y-107499800D03*
X148599800Y-107499800D03*
X149399800Y-107499800D03*
X150199800Y-107499800D03*
X147799800Y-102699800D03*
X146199800Y-105099800D03*
X145399800Y-101899800D03*
X147799800Y-101899800D03*
X144599800Y-101899800D03*
X148599800Y-101899800D03*
X149399800Y-105099800D03*
X150199800Y-105099800D03*
X144599800Y-105899800D03*
X145399800Y-105899800D03*
X148599800Y-102699800D03*
X149399800Y-102699800D03*
X146199800Y-106699800D03*
X146999800Y-106699800D03*
X147799800Y-106699800D03*
X148599800Y-106699800D03*
X149399800Y-106699800D03*
X145399800Y-104299800D03*
X146199800Y-104299800D03*
X146999800Y-104299800D03*
X147799800Y-104299800D03*
X145399800Y-105099800D03*
X146999800Y-105099800D03*
X147799800Y-105099800D03*
X148599800Y-105099800D03*
X144599800Y-103499800D03*
X145399800Y-103499800D03*
X144599800Y-102699800D03*
X149399800Y-105899800D03*
X150199800Y-105899800D03*
X144599800Y-106699800D03*
X145399800Y-106699800D03*
X150199800Y-106699800D03*
X144599800Y-107499800D03*
X145399800Y-107499800D03*
X146199800Y-107499800D03*
X146999800Y-107499800D03*
X146199800Y-105899800D03*
X146999800Y-105899800D03*
X147799800Y-105899800D03*
X148599800Y-105899800D03*
X148599800Y-103499800D03*
X149399800Y-103499800D03*
X150199800Y-103499800D03*
X144599800Y-104299800D03*
X146199800Y-102699800D03*
X145399800Y-102699800D03*
X149399800Y-101899800D03*
X146199800Y-103499800D03*
X146999800Y-103499800D03*
X147799800Y-103499800D03*
X146999800Y-102699800D03*
X146199800Y-101899800D03*
X148599800Y-104299800D03*
X149399800Y-104299800D03*
X150199800Y-104299800D03*
X144599800Y-105099800D03*
X150199800Y-101899800D03*
X150199800Y-102699800D03*
X48099800Y-115119800D03*
X118999800Y-144249800D03*
X118249800Y-144249800D03*
X117499800Y-144249800D03*
X113749800Y-144249800D03*
X114499800Y-144249800D03*
X115249800Y-144249800D03*
X115999800Y-144249800D03*
X116749800Y-144249800D03*
X121249800Y-144249800D03*
X120499800Y-144249800D03*
X119749800Y-144249800D03*
X135999800Y-132999800D03*
X109899800Y-55699800D03*
X109899800Y-56599800D03*
X109899800Y-58399800D03*
X110799800Y-58399800D03*
X110799800Y-55699800D03*
X110799800Y-59299800D03*
X109899800Y-57499800D03*
X110799800Y-57499800D03*
X110799800Y-56599800D03*
X109899800Y-59299800D03*
X90399800Y-59199800D03*
X89499800Y-56499800D03*
X89499800Y-59199800D03*
X89499800Y-55599800D03*
X90399800Y-57399800D03*
X90399800Y-56499800D03*
X89499800Y-57399800D03*
X89499800Y-58299800D03*
X90399800Y-55599800D03*
X90399800Y-58299800D03*
X69099800Y-56499800D03*
X69099800Y-55599800D03*
X69099800Y-59199800D03*
X69999800Y-58299800D03*
X69999800Y-59199800D03*
X69999800Y-57399800D03*
X69099800Y-57399800D03*
X69999800Y-55599800D03*
X69099800Y-58299800D03*
X69999800Y-56499800D03*
X113199800Y-56299800D03*
X113999800Y-59499800D03*
X115599800Y-57899800D03*
X116399800Y-58699800D03*
X113999800Y-55499800D03*
X114799800Y-58699800D03*
X115599800Y-57099800D03*
X114799800Y-55499800D03*
X115599800Y-56299800D03*
X113199800Y-55499800D03*
X113199800Y-57099800D03*
X114799800Y-56299800D03*
X115599800Y-59499800D03*
X116399800Y-55499800D03*
X114799800Y-57099800D03*
X113999800Y-58699800D03*
X113999800Y-57899800D03*
X116399800Y-59499800D03*
X116399800Y-56299800D03*
X115599800Y-58699800D03*
X113999800Y-56299800D03*
X113199800Y-57899800D03*
X114799800Y-57899800D03*
X115599800Y-55499800D03*
X116399800Y-57899800D03*
X114799800Y-59499800D03*
X113199800Y-59499800D03*
X116399800Y-57099800D03*
X113199800Y-58699800D03*
X113999800Y-57099800D03*
X94499800Y-55299800D03*
X92899800Y-56099800D03*
X93699800Y-55299800D03*
X92899800Y-56899800D03*
X94499800Y-56899800D03*
X96099800Y-55299800D03*
X92899800Y-59299800D03*
X96099800Y-59299800D03*
X96099800Y-57699800D03*
X92899800Y-57699800D03*
X93699800Y-59299800D03*
X95299800Y-56099800D03*
X95299800Y-58499800D03*
X96099800Y-56899800D03*
X95299800Y-56899800D03*
X93699800Y-56899800D03*
X95299800Y-57699800D03*
X93699800Y-57699800D03*
X94499800Y-58499800D03*
X94499800Y-57699800D03*
X95299800Y-59299800D03*
X93699800Y-56099800D03*
X94499800Y-56099800D03*
X92899800Y-58499800D03*
X96099800Y-56099800D03*
X93699800Y-58499800D03*
X95299800Y-55299800D03*
X94499800Y-59299800D03*
X96099800Y-58499800D03*
X92899800Y-55299800D03*
X74799800Y-59399800D03*
X72399800Y-56199800D03*
X73199800Y-55399800D03*
X73199800Y-57799800D03*
X75599800Y-56999800D03*
X73199800Y-56999800D03*
X75599800Y-58599800D03*
X72399800Y-58599800D03*
X75599800Y-55399800D03*
X72399800Y-57799800D03*
X73999800Y-59399800D03*
X74799800Y-57799800D03*
X75599800Y-59399800D03*
X73199800Y-58599800D03*
X72399800Y-55399800D03*
X73999800Y-57799800D03*
X72399800Y-56999800D03*
X73999800Y-55399800D03*
X74799800Y-58599800D03*
X73199800Y-59399800D03*
X74799800Y-56199800D03*
X73999800Y-58599800D03*
X73999800Y-56199800D03*
X73199800Y-56199800D03*
X74799800Y-55399800D03*
X74799800Y-56999800D03*
X75599800Y-57799800D03*
X75599800Y-56199800D03*
X73999800Y-56999800D03*
X72399800Y-59399800D03*
X139599800Y-126649800D03*
X144299800Y-91399800D03*
X144299800Y-89799800D03*
X145099800Y-89799800D03*
X141899800Y-90599800D03*
X143499800Y-91399800D03*
X145099800Y-91399800D03*
X141899800Y-89799800D03*
X141099800Y-90599800D03*
X145099800Y-90599800D03*
X143499800Y-90599800D03*
X143499800Y-89799800D03*
X144299800Y-90599800D03*
X142699800Y-91399800D03*
X141099800Y-89799800D03*
X141899800Y-91399800D03*
X141099800Y-91399800D03*
X142699800Y-90599800D03*
X142699800Y-89799800D03*
X142699800Y-93799800D03*
X145099800Y-92999800D03*
X141899800Y-93799800D03*
X144299800Y-92199800D03*
X141099800Y-92199800D03*
X141899800Y-92199800D03*
X144299800Y-92999800D03*
X143499800Y-92999800D03*
X141899800Y-92999800D03*
X143499800Y-93799800D03*
X142699800Y-92999800D03*
X141099800Y-92999800D03*
X143499800Y-92199800D03*
X145099800Y-92199800D03*
X141099800Y-93799800D03*
X144299800Y-93799800D03*
X142699800Y-92199800D03*
X145099800Y-93799800D03*
X144299800Y-95499800D03*
X141899800Y-96299800D03*
X141899800Y-95499800D03*
X141899800Y-94699800D03*
X141099800Y-94699800D03*
X141099800Y-96299800D03*
X144299800Y-96299800D03*
X143499800Y-96299800D03*
X145099800Y-95499800D03*
X143499800Y-94699800D03*
X141099800Y-95499800D03*
X145099800Y-94699800D03*
X142699800Y-94699800D03*
X145099800Y-96299800D03*
X143499800Y-95499800D03*
X142699800Y-95499800D03*
X144299800Y-94699800D03*
X142699800Y-96299800D03*
X141099800Y-88199800D03*
X143499800Y-88999800D03*
X141899800Y-88199800D03*
X144299800Y-88999800D03*
X144299800Y-88199800D03*
X141899800Y-88999800D03*
X142699800Y-88199800D03*
X143499800Y-88199800D03*
X141099800Y-88999800D03*
X142699800Y-88999800D03*
X145099800Y-88999800D03*
X145099800Y-88199800D03*
X142699800Y-87399800D03*
X141899800Y-87399800D03*
X141099800Y-87399800D03*
X144299800Y-87399800D03*
X145099800Y-87399800D03*
X143499800Y-87399800D03*
X147499800Y-94699800D03*
X146699800Y-90599800D03*
X147499800Y-93799800D03*
X148299800Y-92999800D03*
X147499800Y-96299800D03*
X148299800Y-92199800D03*
X148299800Y-91399800D03*
X146699800Y-96299800D03*
X147499800Y-90599800D03*
X147499800Y-87399800D03*
X148299800Y-87399800D03*
X147499800Y-89799800D03*
X146699800Y-88999800D03*
X145899800Y-88199800D03*
X145899800Y-94699800D03*
X146699800Y-95499800D03*
X145899800Y-89799800D03*
X146699800Y-89799800D03*
X146699800Y-93799800D03*
X146699800Y-92999800D03*
X145899800Y-92999800D03*
X147499800Y-95499800D03*
X148299800Y-95499800D03*
X147499800Y-92199800D03*
X148299800Y-93799800D03*
X146699800Y-91399800D03*
X146699800Y-94699800D03*
X148299800Y-96299800D03*
X147499800Y-92999800D03*
X145899800Y-95499800D03*
X145899800Y-93799800D03*
X145899800Y-96299800D03*
X145899800Y-90599800D03*
X146699800Y-92199800D03*
X148299800Y-94699800D03*
X148299800Y-90599800D03*
X145899800Y-92199800D03*
X145899800Y-91399800D03*
X145899800Y-87399800D03*
X148299800Y-89799800D03*
X147499800Y-88999800D03*
X147499800Y-88199800D03*
X147499800Y-91399800D03*
X145899800Y-88999800D03*
X148299800Y-88999800D03*
X148299800Y-88199800D03*
X146699800Y-87399800D03*
X146699800Y-88199800D03*
X137799800Y-69899800D03*
X144199800Y-76299800D03*
X136999800Y-72299800D03*
X141799800Y-72299800D03*
X140199800Y-77199800D03*
X139399800Y-73099800D03*
X142599800Y-78799800D03*
X140199800Y-76299800D03*
X137799800Y-72299800D03*
X140999800Y-75499800D03*
X143399800Y-72299800D03*
X140199800Y-78799800D03*
X140999800Y-74699800D03*
X140999800Y-73899800D03*
X136999800Y-78799800D03*
X139399800Y-78799800D03*
X140199800Y-73099800D03*
X143399800Y-70699800D03*
X140199800Y-69899800D03*
X142599800Y-71499800D03*
X140999800Y-69899800D03*
X142599800Y-74699800D03*
X144199800Y-72299800D03*
X143399800Y-77199800D03*
X141799800Y-76299800D03*
X144199800Y-77199800D03*
X143399800Y-74699800D03*
X140199800Y-72299800D03*
X139399800Y-71499800D03*
X143399800Y-71499800D03*
X137799800Y-73099800D03*
X141799800Y-73099800D03*
X143399800Y-73099800D03*
X143399800Y-77999800D03*
X141799800Y-78799800D03*
X143399800Y-76299800D03*
X142599800Y-72299800D03*
X142599800Y-77999800D03*
X141799800Y-71499800D03*
X141799800Y-74699800D03*
X138599800Y-70699800D03*
X142599800Y-73899800D03*
X144199800Y-78799800D03*
X138599800Y-77199800D03*
X139399800Y-77999800D03*
X138599800Y-72299800D03*
X136999800Y-77999800D03*
X139399800Y-72299800D03*
X136999800Y-75499800D03*
X139399800Y-76299800D03*
X137799800Y-74699800D03*
X144199800Y-73899800D03*
X139399800Y-75499800D03*
X138599800Y-75499800D03*
X140199800Y-77999800D03*
X140999800Y-77999800D03*
X136999800Y-77199800D03*
X136999800Y-73899800D03*
X140199800Y-74699800D03*
X140999800Y-76299800D03*
X137799800Y-76299800D03*
X139399800Y-73899800D03*
X137799800Y-77199800D03*
X139399800Y-77199800D03*
X136999800Y-76299800D03*
X137799800Y-77999800D03*
X140999800Y-78799800D03*
X137799800Y-78799800D03*
X140199800Y-75499800D03*
X138599800Y-77999800D03*
X138599800Y-76299800D03*
X136999800Y-74699800D03*
X137799800Y-70699800D03*
X137799800Y-75499800D03*
X138599800Y-78799800D03*
X136999800Y-73099800D03*
X138599800Y-73099800D03*
X139399800Y-74699800D03*
X137799800Y-73899800D03*
X140999800Y-77199800D03*
X140999800Y-73099800D03*
X141799800Y-69899800D03*
X138599800Y-74699800D03*
X144199800Y-74699800D03*
X138599800Y-73899800D03*
X141799800Y-70699800D03*
X136999800Y-70699800D03*
X144199800Y-75499800D03*
X138599800Y-69899800D03*
X142599800Y-77199800D03*
X144199800Y-69899800D03*
X140999800Y-72299800D03*
X143399800Y-75499800D03*
X144199800Y-77999800D03*
X142599800Y-75499800D03*
X140199800Y-71499800D03*
X143399800Y-78799800D03*
X142599800Y-76299800D03*
X143399800Y-73899800D03*
X136999800Y-71499800D03*
X140199800Y-70699800D03*
X140199800Y-73899800D03*
X143399800Y-69899800D03*
X138599800Y-71499800D03*
X137799800Y-71499800D03*
X141799800Y-73899800D03*
X140999800Y-71499800D03*
X142599800Y-73099800D03*
X140999800Y-70699800D03*
X142599800Y-70699800D03*
X141799800Y-77999800D03*
X144199800Y-73099800D03*
X142599800Y-69899800D03*
X141799800Y-77199800D03*
X139399800Y-69899800D03*
X136999800Y-69899800D03*
X139399800Y-70699800D03*
X144199800Y-70699800D03*
X144199800Y-71499800D03*
X141799800Y-75499800D03*
X115099800Y-69099800D03*
X116699800Y-66699800D03*
X115099800Y-69899800D03*
X117499800Y-69099800D03*
X114299800Y-66699800D03*
X115899800Y-69099800D03*
X117499800Y-68299800D03*
X116699800Y-67499800D03*
X116699800Y-68299800D03*
X115899800Y-66699800D03*
X115099800Y-70699800D03*
X117499800Y-70699800D03*
X117499800Y-69899800D03*
X115099800Y-67499800D03*
X114299800Y-69899800D03*
X116699800Y-69899800D03*
X114299800Y-70699800D03*
X115899800Y-69899800D03*
X115899800Y-70699800D03*
X114299800Y-67499800D03*
X115899800Y-67499800D03*
X117499800Y-67499800D03*
X114299800Y-69099800D03*
X116699800Y-70699800D03*
X114299800Y-68299800D03*
X115899800Y-68299800D03*
X115099800Y-66699800D03*
X117499800Y-66699800D03*
X115099800Y-68299800D03*
X116699800Y-69099800D03*
X77799800Y-83899800D03*
X67302780Y-97305696D03*
X95399800Y-67299800D03*
X96199800Y-69699800D03*
X96199800Y-68099800D03*
X96999800Y-70499800D03*
X94599800Y-70499800D03*
X96999800Y-66499800D03*
X96999800Y-69699800D03*
X96999800Y-68899800D03*
X95399800Y-70499800D03*
X96199800Y-68899800D03*
X96999800Y-68099800D03*
X95399800Y-68099800D03*
X93799800Y-66499800D03*
X95399800Y-66499800D03*
X94599800Y-67299800D03*
X94599800Y-69699800D03*
X94599800Y-66499800D03*
X93799800Y-69699800D03*
X96199800Y-70499800D03*
X93799800Y-68099800D03*
X96199800Y-67299800D03*
X96199800Y-66499800D03*
X93799800Y-67299800D03*
X93799800Y-70499800D03*
X94599800Y-68099800D03*
X95399800Y-69699800D03*
X93799800Y-68899800D03*
X94599800Y-68899800D03*
X96999800Y-67299800D03*
X95399800Y-68899800D03*
X68499800Y-84399800D03*
X58099804Y-97599800D03*
X76499800Y-68199800D03*
X73299800Y-68199800D03*
X73299800Y-67399800D03*
X76499800Y-69799800D03*
X73299800Y-69799800D03*
X76499800Y-68999800D03*
X74899800Y-70599800D03*
X75699800Y-69799800D03*
X74099800Y-68999800D03*
X75699800Y-67399800D03*
X76499800Y-70599800D03*
X74899800Y-67399800D03*
X73299800Y-70599800D03*
X74899800Y-66599800D03*
X74099800Y-70599800D03*
X75699800Y-68199800D03*
X74099800Y-66599800D03*
X74899800Y-69799800D03*
X74899800Y-68999800D03*
X75699800Y-68999800D03*
X74899800Y-68199800D03*
X74099800Y-69799800D03*
X75699800Y-66599800D03*
X76499800Y-67399800D03*
X75699800Y-70599800D03*
X74099800Y-67399800D03*
X73299800Y-68999800D03*
X73299800Y-66599800D03*
X76499800Y-66599800D03*
X74099800Y-68199800D03*
X48899800Y-97399800D03*
X58299800Y-84499800D03*
X54899796Y-99499800D03*
X70269800Y-99399800D03*
X73099800Y-99499800D03*
X65899820Y-98399800D03*
X70824790Y-110699800D03*
X94599800Y-53099800D03*
X65299800Y-83099800D03*
X100499800Y-136499800D03*
X100499800Y-135499800D03*
X100499800Y-134249800D03*
X100499800Y-132999800D03*
X100499800Y-131749800D03*
X100499800Y-130499800D03*
X100499800Y-129249800D03*
X137099800Y-136099800D03*
X114199800Y-150199802D03*
X50237257Y-79937257D03*
X102399800Y-142949810D03*
X68799800Y-133999800D03*
X61699800Y-78949800D03*
X71299800Y-78899800D03*
X67599800Y-72399800D03*
X58299804Y-85699800D03*
X73899800Y-53199800D03*
X55199800Y-83199800D03*
X77594762Y-85704800D03*
X108599800Y-72499800D03*
X114799800Y-53599800D03*
X74899800Y-83199800D03*
X65689800Y-114484800D03*
X59599800Y-114484800D03*
X66499780Y-102974924D03*
X59399800Y-102999800D03*
X57239800Y-114319800D03*
X48799800Y-101599806D03*
X59469804Y-113779804D03*
X50049800Y-113779800D03*
X68599800Y-85599800D03*
X88099800Y-72337299D03*
X122299800Y-143999800D03*
X99999800Y-141399790D03*
X62883251Y-84455017D03*
X67799800Y-113624802D03*
X68799800Y-114099802D03*
X52863916Y-84035682D03*
X57299789Y-108299800D03*
X67899800Y-110724800D03*
X71399830Y-113099800D03*
X72899800Y-83999800D03*
X50899800Y-108499800D03*
X57299790Y-109719904D03*
X127899800Y-127499800D03*
X70949800Y-132349800D03*
X65099800Y-130899800D03*
X61299810Y-106599796D03*
X65699800Y-130399800D03*
X72949800Y-132449800D03*
X61947577Y-106545819D03*
X119219800Y-147479800D03*
X112474800Y-144274800D03*
X132699800Y-135899800D03*
D18*
X74489800Y-104999800D02*
X63399800Y-104999800D01*
X63399800Y-104999800D02*
X63049799Y-104649799D01*
X63049799Y-104649799D02*
X62799800Y-104399800D01*
X79749797Y-122949801D02*
X79999796Y-123199800D01*
X79399796Y-122599800D02*
X79749797Y-122949801D01*
X67219800Y-122599800D02*
X79399796Y-122599800D01*
X64469800Y-119849800D02*
X67219800Y-122599800D01*
X51499800Y-108399800D02*
X51999800Y-108399800D01*
X51999800Y-108399800D02*
X52669891Y-109069891D01*
X50899800Y-107799800D02*
X51499800Y-108399800D01*
X52669891Y-109069891D02*
X57299790Y-109069891D01*
X73799800Y-111199800D02*
X59799796Y-111199800D01*
X59799796Y-111199800D02*
X59649795Y-111049799D01*
X59649795Y-111049799D02*
X59399796Y-110799800D01*
D10*
X56574810Y-111674810D02*
X61546247Y-111674810D01*
X61546247Y-111674810D02*
X61899800Y-111674810D01*
X56099800Y-111199800D02*
X56574810Y-111674810D01*
X56199800Y-112769800D02*
X67429800Y-112769800D01*
X67429800Y-112769800D02*
X68249801Y-111949799D01*
X68249801Y-111949799D02*
X68499800Y-111699800D01*
X59370300Y-117749800D02*
X60349800Y-118729300D01*
X60349800Y-118729300D02*
X73129300Y-118729300D01*
D18*
X66699987Y-115490928D02*
X72158672Y-115490928D01*
X77745087Y-113449981D02*
X77995086Y-113699980D01*
X72158672Y-115490928D02*
X74199619Y-113449981D01*
X74199619Y-113449981D02*
X77745087Y-113449981D01*
X63829809Y-116309789D02*
X72569811Y-116309789D01*
X72569811Y-116309789D02*
X74449811Y-114429789D01*
X74449811Y-114429789D02*
X77621555Y-114429789D01*
X77621555Y-114429789D02*
X78570683Y-115378917D01*
X62319800Y-117819798D02*
X63829809Y-116309789D01*
X64306085Y-116609800D02*
X72909800Y-116609800D01*
X77249800Y-114729800D02*
X78579800Y-116059800D01*
X78579800Y-116059800D02*
X78639800Y-116059800D01*
X62956832Y-117959053D02*
X64306085Y-116609800D01*
X72909800Y-116609800D02*
X74789800Y-114729800D01*
X74789800Y-114729800D02*
X77249800Y-114729800D01*
X66323369Y-116009778D02*
X66148370Y-115834779D01*
X77349800Y-113954779D02*
X74214821Y-113954779D01*
X74214821Y-113954779D02*
X72159822Y-116009778D01*
X72159822Y-116009778D02*
X66323369Y-116009778D01*
X69774779Y-106949800D02*
X73596247Y-106949800D01*
X73596247Y-106949800D02*
X73949800Y-106949800D01*
X68324779Y-105499800D02*
X69774779Y-106949800D01*
X73330624Y-107999800D02*
X73520213Y-108189389D01*
X68524779Y-107999800D02*
X73330624Y-107999800D01*
X73520213Y-108189389D02*
X73770212Y-108439388D01*
X147097719Y-119879800D02*
X148299800Y-119879800D01*
X144844078Y-119879800D02*
X147097719Y-119879800D01*
X136674077Y-128049801D02*
X144844078Y-119879800D01*
X127949799Y-128049801D02*
X136674077Y-128049801D01*
X127699800Y-128299800D02*
X127949799Y-128049801D01*
X57299800Y-107499800D02*
X59899800Y-110099800D01*
X59899800Y-110099800D02*
X67846247Y-110099800D01*
X67846247Y-110099800D02*
X68199800Y-110099800D01*
D10*
X129199800Y-132299800D02*
X130399800Y-132299800D01*
X122899800Y-125999800D02*
X129199800Y-132299800D01*
X80923800Y-125999800D02*
X122899800Y-125999800D01*
X78073801Y-128849799D02*
X80923800Y-125999800D01*
X67999800Y-128599800D02*
X68249799Y-128849799D01*
X68249799Y-128849799D02*
X78073801Y-128849799D01*
X123399800Y-125699800D02*
X129499800Y-131799800D01*
X123299800Y-125599800D02*
X123399800Y-125699800D01*
X80799800Y-125599800D02*
X123299800Y-125599800D01*
X77999800Y-128399800D02*
X80799800Y-125599800D01*
X68599800Y-128199800D02*
X68799800Y-128399800D01*
X68799800Y-128399800D02*
X77999800Y-128399800D01*
D19*
X86399800Y-142249800D02*
X79599800Y-135449800D01*
X106649800Y-142249800D02*
X86399800Y-142249800D01*
X58349800Y-123049800D02*
X50419800Y-115119800D01*
X79599800Y-135449800D02*
X68429800Y-135449800D01*
X50419800Y-115119800D02*
X48099800Y-115119800D01*
X68429800Y-135449800D02*
X58349800Y-125369800D01*
X58349800Y-125369800D02*
X58349800Y-123049800D01*
X113203353Y-143349800D02*
X107749800Y-143349800D01*
X113749800Y-144249800D02*
X113749800Y-143896247D01*
X107749800Y-143349800D02*
X106649800Y-142249800D01*
X113749800Y-143896247D02*
X113203353Y-143349800D01*
D10*
X135999800Y-132999800D02*
X135999800Y-130249800D01*
X135999800Y-130249800D02*
X139599800Y-126649800D01*
D18*
X77899800Y-83899800D02*
X77799800Y-83899800D01*
D19*
X89631186Y-73199800D02*
X78931186Y-83899800D01*
X106699800Y-73199800D02*
X89631186Y-73199800D01*
X78931186Y-83899800D02*
X77899800Y-83899800D01*
X109199800Y-70699800D02*
X106699800Y-73199800D01*
X115099800Y-70699800D02*
X109199800Y-70699800D01*
D10*
X77446247Y-83899800D02*
X71246247Y-90099800D01*
X77799800Y-83899800D02*
X77446247Y-83899800D01*
X71246247Y-90099800D02*
X69099800Y-90099800D01*
D20*
X67302780Y-91896820D02*
X67302780Y-97305696D01*
D10*
X69099800Y-90099800D02*
X67302780Y-91896820D01*
D19*
X82668414Y-70499800D02*
X78068414Y-75099800D01*
X70768413Y-75099801D02*
X68499800Y-77368414D01*
X68499800Y-84046247D02*
X68499800Y-84399800D01*
X68499800Y-77368414D02*
X68499800Y-84046247D01*
X78068414Y-75099800D02*
X70768413Y-75099801D01*
X93799800Y-70499800D02*
X82668414Y-70499800D01*
D10*
X60899800Y-87399800D02*
X58099804Y-90199796D01*
X62599800Y-87399800D02*
X60899800Y-87399800D01*
X68499800Y-84399800D02*
X65599800Y-84399800D01*
X58099804Y-90199796D02*
X58099804Y-97599800D01*
X65599800Y-84399800D02*
X62599800Y-87399800D01*
D19*
X58299800Y-84146247D02*
X58299800Y-84499800D01*
X63068414Y-70599800D02*
X58299800Y-75368414D01*
X73299800Y-70599800D02*
X63068414Y-70599800D01*
X58299800Y-75368414D02*
X58299800Y-84146247D01*
D10*
X51899800Y-85099800D02*
X48899800Y-88099800D01*
X48899800Y-88099800D02*
X48899800Y-97399800D01*
X58299800Y-84499800D02*
X57699800Y-85099800D01*
X57699800Y-85099800D02*
X51899800Y-85099800D01*
X73099800Y-99499800D02*
X70299800Y-99499800D01*
X64799820Y-99499800D02*
X65649821Y-98649799D01*
X66899820Y-99399800D02*
X66149819Y-98649799D01*
X66149819Y-98649799D02*
X65899820Y-98399800D01*
X70269800Y-99399800D02*
X66899820Y-99399800D01*
X54899796Y-99499800D02*
X64799820Y-99499800D01*
X65649821Y-98649799D02*
X65899820Y-98399800D01*
D19*
X65299800Y-82746247D02*
X65299800Y-83099800D01*
X65299800Y-79437028D02*
X65299800Y-82746247D01*
X70437037Y-74299791D02*
X65299800Y-79437028D01*
X77699809Y-74299791D02*
X70437037Y-74299791D01*
X82299800Y-69699800D02*
X77699809Y-74299791D01*
X86799800Y-69699800D02*
X82299800Y-69699800D01*
X92899800Y-53099800D02*
X91799800Y-54199800D01*
X87399800Y-69099800D02*
X86799800Y-69699800D01*
X94599800Y-53099800D02*
X92899800Y-53099800D01*
X91799800Y-54199800D02*
X91799800Y-60199800D01*
X91799800Y-60199800D02*
X87399800Y-64599800D01*
X87399800Y-64599800D02*
X87399800Y-69099800D01*
D10*
X114553353Y-150199802D02*
X114199800Y-150199802D01*
X121399798Y-150199802D02*
X114553353Y-150199802D01*
X135499800Y-136099800D02*
X121399798Y-150199802D01*
X137099800Y-136099800D02*
X135499800Y-136099800D01*
X100499800Y-130499800D02*
X100146247Y-130499800D01*
X102649799Y-143199809D02*
X102399800Y-142949810D01*
X109649792Y-150199802D02*
X102649799Y-143199809D01*
X114199800Y-150199802D02*
X109649792Y-150199802D01*
D19*
X100499800Y-134249800D02*
X69049799Y-134249799D01*
X69049799Y-134249799D02*
X68799800Y-133999800D01*
X59249799Y-84749805D02*
X58549803Y-85449801D01*
X58549803Y-85449801D02*
X58299804Y-85699800D01*
X67599800Y-72399800D02*
X62399800Y-72399800D01*
X59249799Y-75549801D02*
X59249799Y-84749805D01*
X62399800Y-72399800D02*
X59249799Y-75549801D01*
X73193798Y-53199800D02*
X73899800Y-53199800D01*
X71449799Y-61049801D02*
X71449799Y-54943799D01*
X55199800Y-83199800D02*
X55199800Y-77299800D01*
X71449799Y-54943799D02*
X73193798Y-53199800D01*
X55199800Y-77299800D02*
X71449799Y-61049801D01*
X77594762Y-85704800D02*
X78257572Y-85704800D01*
X78257572Y-85704800D02*
X89962561Y-73999811D01*
X108349801Y-72749799D02*
X108599800Y-72499800D01*
X107099789Y-73999811D02*
X108349801Y-72749799D01*
X89962561Y-73999811D02*
X107099789Y-73999811D01*
X74999800Y-83199800D02*
X74899800Y-83199800D01*
X75949800Y-82249800D02*
X74999800Y-83199800D01*
X89299810Y-72399790D02*
X79449800Y-82249800D01*
X107399800Y-71299800D02*
X106299810Y-72399790D01*
X112199800Y-55389798D02*
X112199800Y-60199800D01*
X107399800Y-64999800D02*
X107399800Y-71299800D01*
X79449800Y-82249800D02*
X75949800Y-82249800D01*
X106299810Y-72399790D02*
X89299810Y-72399790D01*
X114799800Y-53599800D02*
X113989798Y-53599800D01*
X113989798Y-53599800D02*
X112199800Y-55389798D01*
X112199800Y-60199800D02*
X107399800Y-64999800D01*
D10*
X59599800Y-114484800D02*
X65689800Y-114484800D01*
X59469800Y-113779800D02*
X59469804Y-113779804D01*
X50049800Y-113779800D02*
X59469800Y-113779800D01*
D19*
X82215854Y-72337299D02*
X87746247Y-72337299D01*
X87746247Y-72337299D02*
X88099800Y-72337299D01*
X68953353Y-85599800D02*
X82215854Y-72337299D01*
X68599800Y-85599800D02*
X68953353Y-85599800D01*
D18*
X119699790Y-141399790D02*
X100353353Y-141399790D01*
X100353353Y-141399790D02*
X99999800Y-141399790D01*
X122299800Y-143999800D02*
X119699790Y-141399790D01*
X57925521Y-108549799D02*
X60175522Y-110799800D01*
X57299789Y-108299800D02*
X57549788Y-108549799D01*
X57549788Y-108549799D02*
X57925521Y-108549799D01*
X60175522Y-110799800D02*
X67824800Y-110799800D01*
X67824800Y-110799800D02*
X67899800Y-110724800D01*
X52819904Y-109719904D02*
X51849799Y-108749799D01*
X57299790Y-109719904D02*
X52819904Y-109719904D01*
X51849799Y-108749799D02*
X51149799Y-108749799D01*
X51149799Y-108749799D02*
X50899800Y-108499800D01*
X127899800Y-127499800D02*
X136799800Y-127499800D01*
X146959800Y-117339800D02*
X148299800Y-117339800D01*
X136799800Y-127499800D02*
X146959800Y-117339800D01*
X65249800Y-131049800D02*
X65099800Y-130899800D01*
X70949800Y-132349800D02*
X69649800Y-131049800D01*
X69649800Y-131049800D02*
X65249800Y-131049800D01*
X65699800Y-130399800D02*
X70899800Y-130399800D01*
X70899800Y-130399800D02*
X72949800Y-132449800D01*
X115679800Y-147479800D02*
X119219800Y-147479800D01*
X112474800Y-144274800D02*
X115679800Y-147479800D01*
X132699800Y-137399800D02*
X132699800Y-135899800D01*
X119219800Y-147479800D02*
X122619800Y-147479800D01*
X122619800Y-147479800D02*
X132699800Y-137399800D01*
D21*
G36*
X146187904Y-70004894D02*
X147694417Y-72463300D01*
X149070202Y-74997181D01*
X150311489Y-77599593D01*
X151414875Y-80263402D01*
X152377336Y-82981307D01*
X153196233Y-85745859D01*
X153869323Y-88549479D01*
X154394760Y-91384485D01*
X154771104Y-94243104D01*
X154997324Y-97117502D01*
X155072800Y-99999800D01*
X154997324Y-102882098D01*
X154771104Y-105756496D01*
X154394760Y-108615115D01*
X153869323Y-111450121D01*
X153815862Y-111672800D01*
X140426800Y-111672800D01*
X140426800Y-94999800D01*
X140416071Y-94948711D01*
X134626800Y-81773129D01*
X134626800Y-69126800D01*
X145584407Y-69126800D01*
X146187904Y-70004894D01*
X146187904Y-70004894D01*
G37*
X146187904Y-70004894D02*
X147694417Y-72463300D01*
X149070202Y-74997181D01*
X150311489Y-77599593D01*
X151414875Y-80263402D01*
X152377336Y-82981307D01*
X153196233Y-85745859D01*
X153869323Y-88549479D01*
X154394760Y-91384485D01*
X154771104Y-94243104D01*
X154997324Y-97117502D01*
X155072800Y-99999800D01*
X154997324Y-102882098D01*
X154771104Y-105756496D01*
X154394760Y-108615115D01*
X153869323Y-111450121D01*
X153815862Y-111672800D01*
X140426800Y-111672800D01*
X140426800Y-94999800D01*
X140416071Y-94948711D01*
X134626800Y-81773129D01*
X134626800Y-69126800D01*
X145584407Y-69126800D01*
X146187904Y-70004894D01*
G36*
X133772800Y-81799800D02*
X133783529Y-81850889D01*
X139572800Y-95026471D01*
X139572800Y-111672800D01*
X122042019Y-111672800D01*
X122108121Y-111557846D01*
X122963835Y-109747569D01*
X123671610Y-107874497D01*
X124226887Y-105950694D01*
X124626088Y-103988556D01*
X124866643Y-102000723D01*
X124947000Y-100000000D01*
X124941529Y-99477549D01*
X124819289Y-97478949D01*
X124537157Y-95496589D01*
X124096952Y-93543241D01*
X123501507Y-91631490D01*
X122754661Y-89773650D01*
X121861223Y-87981691D01*
X121526800Y-87427312D01*
X121526800Y-72650293D01*
X124854543Y-69126800D01*
X133772800Y-69126800D01*
X133772800Y-81799800D01*
X133772800Y-81799800D01*
G37*
X133772800Y-81799800D02*
X133783529Y-81850889D01*
X139572800Y-95026471D01*
X139572800Y-111672800D01*
X122042019Y-111672800D01*
X122108121Y-111557846D01*
X122963835Y-109747569D01*
X123671610Y-107874497D01*
X124226887Y-105950694D01*
X124626088Y-103988556D01*
X124866643Y-102000723D01*
X124947000Y-100000000D01*
X124941529Y-99477549D01*
X124819289Y-97478949D01*
X124537157Y-95496589D01*
X124096952Y-93543241D01*
X123501507Y-91631490D01*
X122754661Y-89773650D01*
X121861223Y-87981691D01*
X121526800Y-87427312D01*
X121526800Y-72650293D01*
X124854543Y-69126800D01*
X133772800Y-69126800D01*
X133772800Y-81799800D01*
M02*
