%TF.GenerationSoftware,KiCad,Pcbnew,5.0.2-bee76a0~70~ubuntu18.04.1*%
%TF.CreationDate,2020-08-20T12:10:36+02:00*%
%TF.ProjectId,gsvesc,67737665-7363-42e6-9b69-6361645f7063,rev?*%
%TF.SameCoordinates,Original*%
%TF.FileFunction,Copper,L4,Bot*%
%TF.FilePolarity,Positive*%
%FSLAX46Y46*%
G04 Gerber Fmt 4.6, Leading zero omitted, Abs format (unit mm)*
G04 Created by KiCad (PCBNEW 5.0.2-bee76a0~70~ubuntu18.04.1) date Do 20 Aug 2020 12:10:36 CEST*
%MOMM*%
%LPD*%
G01*
G04 APERTURE LIST*
%ADD10C,0.200000*%
%ADD11R,1.700000X1.700000*%
%ADD12O,1.700000X1.700000*%
%ADD13R,2.950000X4.500000*%
%ADD14C,0.600000*%
%ADD15C,1.850000*%
%ADD16C,0.840000*%
%ADD17C,0.100000*%
%ADD18C,0.500000*%
%ADD19C,0.254000*%
G04 APERTURE END LIST*
D10*
X155499800Y-99999800D02*
G75*
G03X155499800Y-99999800I-55500000J0D01*
G01*
X124500000Y-100000000D02*
G75*
G03X124500000Y-100000000I-24500000J0D01*
G01*
D11*
X148299800Y-114799800D03*
D12*
X148299800Y-117339800D03*
X148299800Y-119879800D03*
X76249800Y-126284800D03*
X76249800Y-123744800D03*
X76249800Y-121204800D03*
X76249800Y-118664800D03*
D11*
X76249800Y-116124800D03*
D13*
X95474800Y-139519800D03*
D14*
X94874800Y-137719800D03*
X94874800Y-138919800D03*
X96074800Y-138919800D03*
X96074800Y-137719800D03*
X94874800Y-141319800D03*
X94874800Y-140219800D03*
X96074800Y-140219800D03*
X96074800Y-141319800D03*
D15*
X59051280Y-131604760D03*
X63835564Y-136918246D03*
D16*
X60410060Y-133442623D03*
X61588140Y-133256537D03*
X61279930Y-134408712D03*
X62458010Y-134222625D03*
X62149800Y-135374800D03*
D17*
G36*
X62742956Y-135405886D02*
X62118714Y-135967956D01*
X61556644Y-135343714D01*
X62180886Y-134781644D01*
X62742956Y-135405886D01*
X62742956Y-135405886D01*
G37*
D18*
X74489800Y-104999800D03*
X99599800Y-144689800D03*
X62799800Y-104399800D03*
X98599800Y-128799800D03*
X97699800Y-128799800D03*
X96899800Y-128799800D03*
X96099800Y-128799800D03*
X116999800Y-140899800D03*
X117399800Y-149699778D03*
X111799800Y-142399800D03*
X110299800Y-66799800D03*
X110299800Y-65899800D03*
X111099800Y-65899800D03*
X110299800Y-68599800D03*
X111099800Y-68599800D03*
X111099800Y-66799800D03*
X110299800Y-67699800D03*
X111099800Y-67699800D03*
X89899800Y-67599800D03*
X89899800Y-66699800D03*
X89899800Y-68499800D03*
X90699800Y-67599800D03*
X90699800Y-65799800D03*
X89899800Y-65799800D03*
X90699800Y-68499800D03*
X90699800Y-66699800D03*
X70199800Y-68399800D03*
X70199800Y-67499800D03*
X70199800Y-65699800D03*
X70199800Y-66599800D03*
X131399800Y-102099800D03*
X132199800Y-102099800D03*
X132999800Y-102099800D03*
X133799800Y-102099800D03*
X134599800Y-102099800D03*
X135399800Y-102099800D03*
X136199800Y-102099800D03*
X136999800Y-102099800D03*
X131399800Y-102899800D03*
X132199800Y-102899800D03*
X132999800Y-102899800D03*
X133799800Y-102899800D03*
X134599800Y-102899800D03*
X135399800Y-102899800D03*
X136199800Y-102899800D03*
X136999800Y-102899800D03*
X131399800Y-103699800D03*
X132199800Y-103699800D03*
X132999800Y-103699800D03*
X133799800Y-103699800D03*
X134599800Y-103699800D03*
X135399800Y-103699800D03*
X136199800Y-103699800D03*
X136999800Y-103699800D03*
X131399800Y-104499800D03*
X132199800Y-104499800D03*
X132999800Y-104499800D03*
X133799800Y-104499800D03*
X134599800Y-104499800D03*
X135399800Y-104499800D03*
X136199800Y-104499800D03*
X136999800Y-104499800D03*
X131399800Y-105299800D03*
X132199800Y-105299800D03*
X132999800Y-105299800D03*
X133799800Y-105299800D03*
X134599800Y-105299800D03*
X135399800Y-105299800D03*
X136199800Y-105299800D03*
X136999800Y-105299800D03*
X131399800Y-106099800D03*
X132199800Y-106099800D03*
X132999800Y-106099800D03*
X133799800Y-106099800D03*
X134599800Y-106099800D03*
X135399800Y-106099800D03*
X136199800Y-106099800D03*
X136999800Y-106099800D03*
X131399800Y-106899800D03*
X132199800Y-106899800D03*
X132999800Y-106899800D03*
X133799800Y-106899800D03*
X134599800Y-106899800D03*
X135399800Y-106899800D03*
X136199800Y-106899800D03*
X136999800Y-106899800D03*
X131399800Y-107699800D03*
X132199800Y-107699800D03*
X132999800Y-107699800D03*
X133799800Y-107699800D03*
X134599800Y-107699800D03*
X135399800Y-107699800D03*
X136199800Y-107699800D03*
X136999800Y-107699800D03*
X131799800Y-87499800D03*
X128599800Y-88299800D03*
X128599800Y-89099800D03*
X132599800Y-89099800D03*
X132599800Y-88299800D03*
X130999800Y-88299800D03*
X130999800Y-87499800D03*
X131799800Y-88299800D03*
X130199800Y-89099800D03*
X130199800Y-88299800D03*
X129399800Y-89099800D03*
X132599800Y-87499800D03*
X130999800Y-89099800D03*
X129399800Y-87499800D03*
X129399800Y-88299800D03*
X130199800Y-87499800D03*
X128599800Y-87499800D03*
X131799800Y-89099800D03*
X130199800Y-89899800D03*
X131799800Y-91499800D03*
X130999800Y-89899800D03*
X130199800Y-90699800D03*
X129399800Y-91499800D03*
X132599800Y-89899800D03*
X128599800Y-91499800D03*
X131799800Y-89899800D03*
X128599800Y-90699800D03*
X132599800Y-90699800D03*
X132599800Y-91499800D03*
X129399800Y-89899800D03*
X130199800Y-91499800D03*
X128599800Y-89899800D03*
X129399800Y-90699800D03*
X131799800Y-90699800D03*
X130999800Y-90699800D03*
X130999800Y-91499800D03*
X129399800Y-78699800D03*
X127799800Y-77099800D03*
X128599800Y-78699800D03*
X129399800Y-77899800D03*
X130199800Y-77099800D03*
X126999800Y-78699800D03*
X130999800Y-77099800D03*
X127799800Y-78699800D03*
X130999800Y-77899800D03*
X126999800Y-77899800D03*
X126999800Y-77099800D03*
X130199800Y-78699800D03*
X129399800Y-77099800D03*
X130999800Y-78699800D03*
X130199800Y-77899800D03*
X127799800Y-77899800D03*
X128599800Y-77899800D03*
X128599800Y-77099800D03*
X126999800Y-74699800D03*
X126999800Y-75499800D03*
X127799800Y-76299800D03*
X127799800Y-74699800D03*
X130199800Y-76299800D03*
X127799800Y-75499800D03*
X130199800Y-75499800D03*
X126999800Y-76299800D03*
X129399800Y-75499800D03*
X129399800Y-76299800D03*
X129399800Y-74699800D03*
X128599800Y-76299800D03*
X128599800Y-75499800D03*
X128599800Y-74699800D03*
X124499800Y-78699800D03*
X125299800Y-78699800D03*
X126099800Y-77899800D03*
X124499800Y-77899800D03*
X126099800Y-75499800D03*
X124499800Y-74699800D03*
X125299800Y-77899800D03*
X125299800Y-74699800D03*
X125299800Y-75499800D03*
X126099800Y-78699800D03*
X125299800Y-76299800D03*
X126099800Y-76299800D03*
X124499800Y-76299800D03*
X126099800Y-77099800D03*
X126099800Y-74699800D03*
X125299800Y-77099800D03*
X124499800Y-77099800D03*
X124499800Y-75499800D03*
X69449800Y-68399800D03*
X69449800Y-67499800D03*
X69449800Y-65699800D03*
X69449800Y-66599800D03*
X68699800Y-68399800D03*
X68699800Y-67499800D03*
X68699800Y-65699800D03*
X68699800Y-66599800D03*
X67949800Y-67499800D03*
X67949800Y-65699800D03*
X67949800Y-68399800D03*
X67949800Y-66599800D03*
X70199800Y-69149800D03*
X68699800Y-69149800D03*
X69449800Y-69149800D03*
X67949800Y-69149800D03*
X72099800Y-64399800D03*
X72099800Y-63499800D03*
X71349800Y-64399800D03*
X71349800Y-63499800D03*
X72099800Y-65299800D03*
X71349800Y-65299800D03*
X89899800Y-69299800D03*
X90699800Y-69299800D03*
X88299800Y-67599800D03*
X88299800Y-66699800D03*
X88299800Y-68499800D03*
X89099800Y-67599800D03*
X89099800Y-65799800D03*
X88299800Y-65799800D03*
X89099800Y-68499800D03*
X89099800Y-66699800D03*
X88299800Y-69299800D03*
X89099800Y-69299800D03*
X92799800Y-63499800D03*
X92799800Y-65299800D03*
X92799800Y-64399800D03*
X108699800Y-66799800D03*
X108699800Y-65899800D03*
X109499800Y-65899800D03*
X108699800Y-68599800D03*
X109499800Y-68599800D03*
X109499800Y-66799800D03*
X108699800Y-67699800D03*
X109499800Y-67699800D03*
X110299800Y-69399800D03*
X111099800Y-69399800D03*
X108699800Y-69399800D03*
X109499800Y-69399800D03*
X112199800Y-64399800D03*
X112199800Y-63499800D03*
X112999800Y-63499800D03*
X112999800Y-64399800D03*
X112199800Y-65299800D03*
X112999800Y-65299800D03*
X91999800Y-63499800D03*
X91999800Y-65299800D03*
X91999800Y-64399800D03*
X72674800Y-77924800D03*
X62899800Y-85599800D03*
X62937304Y-77962296D03*
X52837300Y-78062300D03*
X52999800Y-85699800D03*
X78699800Y-80199800D03*
X50199800Y-85699800D03*
X60299800Y-85599800D03*
X50299800Y-78099800D03*
X60659057Y-77962295D03*
X71199800Y-77099800D03*
X70524779Y-86299776D03*
X72874821Y-85654800D03*
X131799800Y-92299800D03*
X132599800Y-93899800D03*
X132599800Y-93099800D03*
X130999800Y-93099800D03*
X130999800Y-92299800D03*
X131799800Y-93099800D03*
X130199800Y-93899800D03*
X130199800Y-93099800D03*
X129399800Y-93899800D03*
X132599800Y-92299800D03*
X130999800Y-93899800D03*
X130199800Y-92299800D03*
X131799800Y-93899800D03*
X128599800Y-93099800D03*
X128599800Y-93899800D03*
X129399800Y-92299800D03*
X129399800Y-93099800D03*
X128599800Y-92299800D03*
X130199800Y-94699800D03*
X131799800Y-96299800D03*
X130999800Y-94699800D03*
X130199800Y-95499800D03*
X129399800Y-96299800D03*
X132599800Y-94699800D03*
X128599800Y-96299800D03*
X131799800Y-94699800D03*
X128599800Y-95499800D03*
X132599800Y-95499800D03*
X132599800Y-96299800D03*
X129399800Y-94699800D03*
X130199800Y-96299800D03*
X128599800Y-94699800D03*
X129399800Y-95499800D03*
X131799800Y-95499800D03*
X130999800Y-95499800D03*
X130999800Y-96299800D03*
X134099800Y-87499800D03*
X134899800Y-89099800D03*
X134899800Y-88299800D03*
X133299800Y-88299800D03*
X133299800Y-87499800D03*
X134099800Y-88299800D03*
X133299800Y-89099800D03*
X134099800Y-89099800D03*
X134099800Y-91499800D03*
X133299800Y-89899800D03*
X134899800Y-89899800D03*
X134099800Y-89899800D03*
X134899800Y-90699800D03*
X134899800Y-91499800D03*
X134099800Y-90699800D03*
X133299800Y-90699800D03*
X133299800Y-91499800D03*
X134099800Y-93899800D03*
X134099800Y-94699800D03*
X133299800Y-93099800D03*
X133299800Y-92299800D03*
X134099800Y-95499800D03*
X134899800Y-93099800D03*
X134899800Y-96299800D03*
X134099800Y-96299800D03*
X134099800Y-93099800D03*
X133299800Y-93899800D03*
X133299800Y-96299800D03*
X134899800Y-94699800D03*
X133299800Y-94699800D03*
X133299800Y-95499800D03*
X134899800Y-95499800D03*
X134899800Y-92299800D03*
X134899800Y-93899800D03*
X134099800Y-92299800D03*
X135699800Y-89899800D03*
X135699800Y-95499800D03*
X135699800Y-93099800D03*
X135699800Y-91499800D03*
X135699800Y-92299800D03*
X135699800Y-93899800D03*
X135699800Y-90699800D03*
X135699800Y-96299800D03*
X135699800Y-94699800D03*
X129399800Y-73899800D03*
X127799800Y-72299800D03*
X128599800Y-73899800D03*
X127799800Y-73099800D03*
X128599800Y-73099800D03*
X128599800Y-72299800D03*
X124499800Y-73899800D03*
X125299800Y-73899800D03*
X126099800Y-73099800D03*
X124499800Y-73099800D03*
X125299800Y-73099800D03*
X126099800Y-73899800D03*
X126099800Y-72299800D03*
X125299800Y-72299800D03*
X124499800Y-72299800D03*
X126999800Y-73899800D03*
X127799800Y-73899800D03*
X126999800Y-73099800D03*
X126999800Y-72299800D03*
X135699800Y-88299800D03*
X135699800Y-89099800D03*
X135699800Y-87499800D03*
X134899800Y-87499800D03*
X85599800Y-145599800D03*
X64469800Y-119849800D03*
X79999796Y-123199800D03*
X50899800Y-107799800D03*
X57299790Y-109069891D03*
X73799800Y-111199800D03*
X59399796Y-110799800D03*
X53874200Y-98374200D03*
X63599800Y-102999800D03*
X59779800Y-123219800D03*
X54059800Y-104099800D03*
X54999800Y-116409800D03*
X74699800Y-143429800D03*
X79849800Y-141769800D03*
X82149800Y-142569800D03*
X84409800Y-143389800D03*
X86759800Y-144669800D03*
X84789800Y-148049800D03*
X95939800Y-150359800D03*
X101959800Y-152399800D03*
X82499800Y-131999800D03*
X83249800Y-131999800D03*
X83249800Y-130999800D03*
X82499800Y-130999800D03*
X83249800Y-129999800D03*
X82499800Y-129999800D03*
X83249800Y-128999800D03*
X82499800Y-128999800D03*
X83249800Y-127999800D03*
X82499800Y-127999800D03*
X61799800Y-98299800D03*
X68924790Y-120249800D03*
X133999800Y-134599800D03*
X73099808Y-98399800D03*
X135999800Y-128699800D03*
X61424790Y-119879800D03*
X72974821Y-105824790D03*
X79799800Y-78899800D03*
X47199800Y-93199800D03*
X51265807Y-92006000D03*
X61099800Y-92299800D03*
X55799800Y-91999800D03*
X69074800Y-92124802D03*
X72874821Y-91399800D03*
X75599800Y-87599800D03*
X55999790Y-108529800D03*
X50799800Y-94037300D03*
X56099800Y-111199800D03*
X61899800Y-111674810D03*
X60799800Y-94693600D03*
X56199800Y-112769800D03*
X68499800Y-111699800D03*
X71499800Y-94299800D03*
X59370300Y-117749800D03*
X73129300Y-118729300D03*
X81574800Y-78899800D03*
X83419800Y-144499800D03*
X70762709Y-112118819D03*
X81859800Y-144879800D03*
X68905859Y-112207374D03*
X80409800Y-144199800D03*
X68799800Y-112899798D03*
X77995086Y-113699980D03*
X66699987Y-115490928D03*
X92929800Y-147789800D03*
X78570683Y-115378917D03*
X62319800Y-117819798D03*
X91989800Y-147429800D03*
X78639800Y-116059800D03*
X62956832Y-117959053D03*
X91029800Y-147479800D03*
X66148370Y-115834779D03*
X77349800Y-113954779D03*
X90019800Y-147709800D03*
X70629800Y-138099800D03*
X60358786Y-107519531D03*
X71239800Y-138879800D03*
X60199800Y-108149800D03*
X72049802Y-139769800D03*
X59230563Y-108758796D03*
X68324779Y-105499800D03*
X73949800Y-106949800D03*
X68524779Y-107999800D03*
X73770212Y-108439388D03*
X127699800Y-128299800D03*
X63089800Y-126119800D03*
X63599800Y-108449787D03*
X63869800Y-126159800D03*
X63599800Y-109099800D03*
X73509800Y-139949800D03*
X64489800Y-117849800D03*
X52899800Y-83299800D03*
X57299800Y-107499800D03*
X68199800Y-110099800D03*
X62864800Y-83064800D03*
X68634228Y-109574821D03*
X70824790Y-109698896D03*
X72699800Y-83299800D03*
X81199800Y-59149800D03*
X82799800Y-57549800D03*
X81199800Y-58349800D03*
X84399800Y-55149800D03*
X84399800Y-56749800D03*
X84399800Y-58349800D03*
X81199800Y-57549800D03*
X82799800Y-56749800D03*
X81199800Y-55949800D03*
X81999800Y-57549800D03*
X81999800Y-56749800D03*
X81999800Y-58349800D03*
X82799800Y-55149800D03*
X84399800Y-57549800D03*
X82799800Y-59149800D03*
X81199800Y-56749800D03*
X81999800Y-59149800D03*
X83599800Y-59149800D03*
X81999800Y-55149800D03*
X83599800Y-55949800D03*
X83599800Y-55149800D03*
X81999800Y-55949800D03*
X82799800Y-55949800D03*
X83599800Y-57549800D03*
X84399800Y-59149800D03*
X82799800Y-58349800D03*
X83599800Y-56749800D03*
X81199800Y-55149800D03*
X83599800Y-58349800D03*
X84399800Y-55949800D03*
X85249800Y-55149800D03*
X85249800Y-59149800D03*
X85249800Y-55949800D03*
X85249800Y-57549800D03*
X85249800Y-56749800D03*
X85249800Y-58349800D03*
X105699800Y-56749800D03*
X104899800Y-58349800D03*
X104899800Y-57549800D03*
X101699800Y-59149800D03*
X101699800Y-56749800D03*
X105699800Y-59149800D03*
X101699800Y-57549800D03*
X104099800Y-56749800D03*
X104099800Y-59149800D03*
X102499800Y-56749800D03*
X104099800Y-55949800D03*
X104899800Y-55149800D03*
X103299800Y-55149800D03*
X103299800Y-55949800D03*
X101699800Y-58349800D03*
X104099800Y-58349800D03*
X102499800Y-59149800D03*
X104099800Y-57549800D03*
X101699800Y-55149800D03*
X105699800Y-55949800D03*
X104899800Y-59149800D03*
X104899800Y-55949800D03*
X103299800Y-57549800D03*
X102499800Y-57549800D03*
X102499800Y-58349800D03*
X102499800Y-55149800D03*
X104899800Y-56749800D03*
X104099800Y-55149800D03*
X105699800Y-57549800D03*
X103299800Y-58349800D03*
X102499800Y-55949800D03*
X105699800Y-58349800D03*
X101699800Y-55949800D03*
X103299800Y-56749800D03*
X103299800Y-59149800D03*
X105699800Y-55149800D03*
X66189800Y-106648331D03*
X67999800Y-128599800D03*
X130399800Y-132299800D03*
X68599800Y-128199800D03*
X66799800Y-106399800D03*
X129499800Y-131799800D03*
X65399810Y-104083186D03*
X65399800Y-92399800D03*
X124899800Y-55499800D03*
X123299800Y-57899800D03*
X126499800Y-57899800D03*
X122499800Y-58699800D03*
X125699800Y-55499800D03*
X126499800Y-55499800D03*
X123299800Y-59499800D03*
X124099800Y-59499800D03*
X124899800Y-59499800D03*
X125699800Y-59499800D03*
X126499800Y-59499800D03*
X122499800Y-57099800D03*
X123299800Y-57099800D03*
X124099800Y-57099800D03*
X124899800Y-57099800D03*
X122499800Y-57899800D03*
X124099800Y-57899800D03*
X124899800Y-57899800D03*
X125699800Y-57899800D03*
X122499800Y-56299800D03*
X126499800Y-58699800D03*
X122499800Y-59499800D03*
X123299800Y-58699800D03*
X124099800Y-58699800D03*
X124899800Y-58699800D03*
X125699800Y-58699800D03*
X125699800Y-56299800D03*
X126499800Y-56299800D03*
X123299800Y-55499800D03*
X122499800Y-55499800D03*
X123299800Y-56299800D03*
X124099800Y-56299800D03*
X124899800Y-56299800D03*
X124099800Y-55499800D03*
X125699800Y-57099800D03*
X126499800Y-57099800D03*
X146999800Y-101899800D03*
X147799800Y-107499800D03*
X148599800Y-107499800D03*
X149399800Y-107499800D03*
X150199800Y-107499800D03*
X147799800Y-102699800D03*
X146199800Y-105099800D03*
X145399800Y-101899800D03*
X147799800Y-101899800D03*
X144599800Y-101899800D03*
X148599800Y-101899800D03*
X149399800Y-105099800D03*
X150199800Y-105099800D03*
X144599800Y-105899800D03*
X145399800Y-105899800D03*
X148599800Y-102699800D03*
X149399800Y-102699800D03*
X146199800Y-106699800D03*
X146999800Y-106699800D03*
X147799800Y-106699800D03*
X148599800Y-106699800D03*
X149399800Y-106699800D03*
X145399800Y-104299800D03*
X146199800Y-104299800D03*
X146999800Y-104299800D03*
X147799800Y-104299800D03*
X145399800Y-105099800D03*
X146999800Y-105099800D03*
X147799800Y-105099800D03*
X148599800Y-105099800D03*
X144599800Y-103499800D03*
X145399800Y-103499800D03*
X144599800Y-102699800D03*
X149399800Y-105899800D03*
X150199800Y-105899800D03*
X144599800Y-106699800D03*
X145399800Y-106699800D03*
X150199800Y-106699800D03*
X144599800Y-107499800D03*
X145399800Y-107499800D03*
X146199800Y-107499800D03*
X146999800Y-107499800D03*
X146199800Y-105899800D03*
X146999800Y-105899800D03*
X147799800Y-105899800D03*
X148599800Y-105899800D03*
X148599800Y-103499800D03*
X149399800Y-103499800D03*
X150199800Y-103499800D03*
X144599800Y-104299800D03*
X146199800Y-102699800D03*
X145399800Y-102699800D03*
X149399800Y-101899800D03*
X146199800Y-103499800D03*
X146999800Y-103499800D03*
X147799800Y-103499800D03*
X146999800Y-102699800D03*
X146199800Y-101899800D03*
X148599800Y-104299800D03*
X149399800Y-104299800D03*
X150199800Y-104299800D03*
X144599800Y-105099800D03*
X150199800Y-101899800D03*
X150199800Y-102699800D03*
X48099800Y-115119800D03*
X118999800Y-144249800D03*
X118249800Y-144249800D03*
X117499800Y-144249800D03*
X113749800Y-144249800D03*
X114499800Y-144249800D03*
X115249800Y-144249800D03*
X115999800Y-144249800D03*
X116749800Y-144249800D03*
X121249800Y-144249800D03*
X120499800Y-144249800D03*
X119749800Y-144249800D03*
X135999800Y-132999800D03*
X109899800Y-55699800D03*
X109899800Y-56599800D03*
X109899800Y-58399800D03*
X110799800Y-58399800D03*
X110799800Y-55699800D03*
X110799800Y-59299800D03*
X109899800Y-57499800D03*
X110799800Y-57499800D03*
X110799800Y-56599800D03*
X109899800Y-59299800D03*
X90399800Y-59199800D03*
X89499800Y-56499800D03*
X89499800Y-59199800D03*
X89499800Y-55599800D03*
X90399800Y-57399800D03*
X90399800Y-56499800D03*
X89499800Y-57399800D03*
X89499800Y-58299800D03*
X90399800Y-55599800D03*
X90399800Y-58299800D03*
X69099800Y-56499800D03*
X69099800Y-55599800D03*
X69099800Y-59199800D03*
X69999800Y-58299800D03*
X69999800Y-59199800D03*
X69999800Y-57399800D03*
X69099800Y-57399800D03*
X69999800Y-55599800D03*
X69099800Y-58299800D03*
X69999800Y-56499800D03*
X113199800Y-56299800D03*
X113999800Y-59499800D03*
X115599800Y-57899800D03*
X116399800Y-58699800D03*
X113999800Y-55499800D03*
X114799800Y-58699800D03*
X115599800Y-57099800D03*
X114799800Y-55499800D03*
X115599800Y-56299800D03*
X113199800Y-55499800D03*
X113199800Y-57099800D03*
X114799800Y-56299800D03*
X115599800Y-59499800D03*
X116399800Y-55499800D03*
X114799800Y-57099800D03*
X113999800Y-58699800D03*
X113999800Y-57899800D03*
X116399800Y-59499800D03*
X116399800Y-56299800D03*
X115599800Y-58699800D03*
X113999800Y-56299800D03*
X113199800Y-57899800D03*
X114799800Y-57899800D03*
X115599800Y-55499800D03*
X116399800Y-57899800D03*
X114799800Y-59499800D03*
X113199800Y-59499800D03*
X116399800Y-57099800D03*
X113199800Y-58699800D03*
X113999800Y-57099800D03*
X94499800Y-55299800D03*
X92899800Y-56099800D03*
X93699800Y-55299800D03*
X92899800Y-56899800D03*
X94499800Y-56899800D03*
X96099800Y-55299800D03*
X92899800Y-59299800D03*
X96099800Y-59299800D03*
X96099800Y-57699800D03*
X92899800Y-57699800D03*
X93699800Y-59299800D03*
X95299800Y-56099800D03*
X95299800Y-58499800D03*
X96099800Y-56899800D03*
X95299800Y-56899800D03*
X93699800Y-56899800D03*
X95299800Y-57699800D03*
X93699800Y-57699800D03*
X94499800Y-58499800D03*
X94499800Y-57699800D03*
X95299800Y-59299800D03*
X93699800Y-56099800D03*
X94499800Y-56099800D03*
X92899800Y-58499800D03*
X96099800Y-56099800D03*
X93699800Y-58499800D03*
X95299800Y-55299800D03*
X94499800Y-59299800D03*
X96099800Y-58499800D03*
X92899800Y-55299800D03*
X74799800Y-59399800D03*
X72399800Y-56199800D03*
X73199800Y-55399800D03*
X73199800Y-57799800D03*
X75599800Y-56999800D03*
X73199800Y-56999800D03*
X75599800Y-58599800D03*
X72399800Y-58599800D03*
X75599800Y-55399800D03*
X72399800Y-57799800D03*
X73999800Y-59399800D03*
X74799800Y-57799800D03*
X75599800Y-59399800D03*
X73199800Y-58599800D03*
X72399800Y-55399800D03*
X73999800Y-57799800D03*
X72399800Y-56999800D03*
X73999800Y-55399800D03*
X74799800Y-58599800D03*
X73199800Y-59399800D03*
X74799800Y-56199800D03*
X73999800Y-58599800D03*
X73999800Y-56199800D03*
X73199800Y-56199800D03*
X74799800Y-55399800D03*
X74799800Y-56999800D03*
X75599800Y-57799800D03*
X75599800Y-56199800D03*
X73999800Y-56999800D03*
X72399800Y-59399800D03*
X139599800Y-126649800D03*
X144299800Y-91399800D03*
X144299800Y-89799800D03*
X145099800Y-89799800D03*
X141899800Y-90599800D03*
X143499800Y-91399800D03*
X145099800Y-91399800D03*
X141899800Y-89799800D03*
X141099800Y-90599800D03*
X145099800Y-90599800D03*
X143499800Y-90599800D03*
X143499800Y-89799800D03*
X144299800Y-90599800D03*
X142699800Y-91399800D03*
X141099800Y-89799800D03*
X141899800Y-91399800D03*
X141099800Y-91399800D03*
X142699800Y-90599800D03*
X142699800Y-89799800D03*
X142699800Y-93799800D03*
X145099800Y-92999800D03*
X141899800Y-93799800D03*
X144299800Y-92199800D03*
X141099800Y-92199800D03*
X141899800Y-92199800D03*
X144299800Y-92999800D03*
X143499800Y-92999800D03*
X141899800Y-92999800D03*
X143499800Y-93799800D03*
X142699800Y-92999800D03*
X141099800Y-92999800D03*
X143499800Y-92199800D03*
X145099800Y-92199800D03*
X141099800Y-93799800D03*
X144299800Y-93799800D03*
X142699800Y-92199800D03*
X145099800Y-93799800D03*
X144299800Y-95499800D03*
X141899800Y-96299800D03*
X141899800Y-95499800D03*
X141899800Y-94699800D03*
X141099800Y-94699800D03*
X141099800Y-96299800D03*
X144299800Y-96299800D03*
X143499800Y-96299800D03*
X145099800Y-95499800D03*
X143499800Y-94699800D03*
X141099800Y-95499800D03*
X145099800Y-94699800D03*
X142699800Y-94699800D03*
X145099800Y-96299800D03*
X143499800Y-95499800D03*
X142699800Y-95499800D03*
X144299800Y-94699800D03*
X142699800Y-96299800D03*
X141099800Y-88199800D03*
X143499800Y-88999800D03*
X141899800Y-88199800D03*
X144299800Y-88999800D03*
X144299800Y-88199800D03*
X141899800Y-88999800D03*
X142699800Y-88199800D03*
X143499800Y-88199800D03*
X141099800Y-88999800D03*
X142699800Y-88999800D03*
X145099800Y-88999800D03*
X145099800Y-88199800D03*
X142699800Y-87399800D03*
X141899800Y-87399800D03*
X141099800Y-87399800D03*
X144299800Y-87399800D03*
X145099800Y-87399800D03*
X143499800Y-87399800D03*
X147499800Y-94699800D03*
X146699800Y-90599800D03*
X147499800Y-93799800D03*
X148299800Y-92999800D03*
X147499800Y-96299800D03*
X148299800Y-92199800D03*
X148299800Y-91399800D03*
X146699800Y-96299800D03*
X147499800Y-90599800D03*
X147499800Y-87399800D03*
X148299800Y-87399800D03*
X147499800Y-89799800D03*
X146699800Y-88999800D03*
X145899800Y-88199800D03*
X145899800Y-94699800D03*
X146699800Y-95499800D03*
X145899800Y-89799800D03*
X146699800Y-89799800D03*
X146699800Y-93799800D03*
X146699800Y-92999800D03*
X145899800Y-92999800D03*
X147499800Y-95499800D03*
X148299800Y-95499800D03*
X147499800Y-92199800D03*
X148299800Y-93799800D03*
X146699800Y-91399800D03*
X146699800Y-94699800D03*
X148299800Y-96299800D03*
X147499800Y-92999800D03*
X145899800Y-95499800D03*
X145899800Y-93799800D03*
X145899800Y-96299800D03*
X145899800Y-90599800D03*
X146699800Y-92199800D03*
X148299800Y-94699800D03*
X148299800Y-90599800D03*
X145899800Y-92199800D03*
X145899800Y-91399800D03*
X145899800Y-87399800D03*
X148299800Y-89799800D03*
X147499800Y-88999800D03*
X147499800Y-88199800D03*
X147499800Y-91399800D03*
X145899800Y-88999800D03*
X148299800Y-88999800D03*
X148299800Y-88199800D03*
X146699800Y-87399800D03*
X146699800Y-88199800D03*
X137799800Y-69899800D03*
X144199800Y-76299800D03*
X136999800Y-72299800D03*
X141799800Y-72299800D03*
X140199800Y-77199800D03*
X139399800Y-73099800D03*
X142599800Y-78799800D03*
X140199800Y-76299800D03*
X137799800Y-72299800D03*
X140999800Y-75499800D03*
X143399800Y-72299800D03*
X140199800Y-78799800D03*
X140999800Y-74699800D03*
X140999800Y-73899800D03*
X136999800Y-78799800D03*
X139399800Y-78799800D03*
X140199800Y-73099800D03*
X143399800Y-70699800D03*
X140199800Y-69899800D03*
X142599800Y-71499800D03*
X140999800Y-69899800D03*
X142599800Y-74699800D03*
X144199800Y-72299800D03*
X143399800Y-77199800D03*
X141799800Y-76299800D03*
X144199800Y-77199800D03*
X143399800Y-74699800D03*
X140199800Y-72299800D03*
X139399800Y-71499800D03*
X143399800Y-71499800D03*
X137799800Y-73099800D03*
X141799800Y-73099800D03*
X143399800Y-73099800D03*
X143399800Y-77999800D03*
X141799800Y-78799800D03*
X143399800Y-76299800D03*
X142599800Y-72299800D03*
X142599800Y-77999800D03*
X141799800Y-71499800D03*
X141799800Y-74699800D03*
X138599800Y-70699800D03*
X142599800Y-73899800D03*
X144199800Y-78799800D03*
X138599800Y-77199800D03*
X139399800Y-77999800D03*
X138599800Y-72299800D03*
X136999800Y-77999800D03*
X139399800Y-72299800D03*
X136999800Y-75499800D03*
X139399800Y-76299800D03*
X137799800Y-74699800D03*
X144199800Y-73899800D03*
X139399800Y-75499800D03*
X138599800Y-75499800D03*
X140199800Y-77999800D03*
X140999800Y-77999800D03*
X136999800Y-77199800D03*
X136999800Y-73899800D03*
X140199800Y-74699800D03*
X140999800Y-76299800D03*
X137799800Y-76299800D03*
X139399800Y-73899800D03*
X137799800Y-77199800D03*
X139399800Y-77199800D03*
X136999800Y-76299800D03*
X137799800Y-77999800D03*
X140999800Y-78799800D03*
X137799800Y-78799800D03*
X140199800Y-75499800D03*
X138599800Y-77999800D03*
X138599800Y-76299800D03*
X136999800Y-74699800D03*
X137799800Y-70699800D03*
X137799800Y-75499800D03*
X138599800Y-78799800D03*
X136999800Y-73099800D03*
X138599800Y-73099800D03*
X139399800Y-74699800D03*
X137799800Y-73899800D03*
X140999800Y-77199800D03*
X140999800Y-73099800D03*
X141799800Y-69899800D03*
X138599800Y-74699800D03*
X144199800Y-74699800D03*
X138599800Y-73899800D03*
X141799800Y-70699800D03*
X136999800Y-70699800D03*
X144199800Y-75499800D03*
X138599800Y-69899800D03*
X142599800Y-77199800D03*
X144199800Y-69899800D03*
X140999800Y-72299800D03*
X143399800Y-75499800D03*
X144199800Y-77999800D03*
X142599800Y-75499800D03*
X140199800Y-71499800D03*
X143399800Y-78799800D03*
X142599800Y-76299800D03*
X143399800Y-73899800D03*
X136999800Y-71499800D03*
X140199800Y-70699800D03*
X140199800Y-73899800D03*
X143399800Y-69899800D03*
X138599800Y-71499800D03*
X137799800Y-71499800D03*
X141799800Y-73899800D03*
X140999800Y-71499800D03*
X142599800Y-73099800D03*
X140999800Y-70699800D03*
X142599800Y-70699800D03*
X141799800Y-77999800D03*
X144199800Y-73099800D03*
X142599800Y-69899800D03*
X141799800Y-77199800D03*
X139399800Y-69899800D03*
X136999800Y-69899800D03*
X139399800Y-70699800D03*
X144199800Y-70699800D03*
X144199800Y-71499800D03*
X141799800Y-75499800D03*
X115099800Y-69099800D03*
X116699800Y-66699800D03*
X115099800Y-69899800D03*
X117499800Y-69099800D03*
X114299800Y-66699800D03*
X115899800Y-69099800D03*
X117499800Y-68299800D03*
X116699800Y-67499800D03*
X116699800Y-68299800D03*
X115899800Y-66699800D03*
X115099800Y-70699800D03*
X117499800Y-70699800D03*
X117499800Y-69899800D03*
X115099800Y-67499800D03*
X114299800Y-69899800D03*
X116699800Y-69899800D03*
X114299800Y-70699800D03*
X115899800Y-69899800D03*
X115899800Y-70699800D03*
X114299800Y-67499800D03*
X115899800Y-67499800D03*
X117499800Y-67499800D03*
X114299800Y-69099800D03*
X116699800Y-70699800D03*
X114299800Y-68299800D03*
X115899800Y-68299800D03*
X115099800Y-66699800D03*
X117499800Y-66699800D03*
X115099800Y-68299800D03*
X116699800Y-69099800D03*
X77799800Y-83899800D03*
X67302780Y-97305696D03*
X95399800Y-67299800D03*
X96199800Y-69699800D03*
X96199800Y-68099800D03*
X96999800Y-70499800D03*
X94599800Y-70499800D03*
X96999800Y-66499800D03*
X96999800Y-69699800D03*
X96999800Y-68899800D03*
X95399800Y-70499800D03*
X96199800Y-68899800D03*
X96999800Y-68099800D03*
X95399800Y-68099800D03*
X93799800Y-66499800D03*
X95399800Y-66499800D03*
X94599800Y-67299800D03*
X94599800Y-69699800D03*
X94599800Y-66499800D03*
X93799800Y-69699800D03*
X96199800Y-70499800D03*
X93799800Y-68099800D03*
X96199800Y-67299800D03*
X96199800Y-66499800D03*
X93799800Y-67299800D03*
X93799800Y-70499800D03*
X94599800Y-68099800D03*
X95399800Y-69699800D03*
X93799800Y-68899800D03*
X94599800Y-68899800D03*
X96999800Y-67299800D03*
X95399800Y-68899800D03*
X68499800Y-84399800D03*
X58099804Y-97599800D03*
X76499800Y-68199800D03*
X73299800Y-68199800D03*
X73299800Y-67399800D03*
X76499800Y-69799800D03*
X73299800Y-69799800D03*
X76499800Y-68999800D03*
X74899800Y-70599800D03*
X75699800Y-69799800D03*
X74099800Y-68999800D03*
X75699800Y-67399800D03*
X76499800Y-70599800D03*
X74899800Y-67399800D03*
X73299800Y-70599800D03*
X74899800Y-66599800D03*
X74099800Y-70599800D03*
X75699800Y-68199800D03*
X74099800Y-66599800D03*
X74899800Y-69799800D03*
X74899800Y-68999800D03*
X75699800Y-68999800D03*
X74899800Y-68199800D03*
X74099800Y-69799800D03*
X75699800Y-66599800D03*
X76499800Y-67399800D03*
X75699800Y-70599800D03*
X74099800Y-67399800D03*
X73299800Y-68999800D03*
X73299800Y-66599800D03*
X76499800Y-66599800D03*
X74099800Y-68199800D03*
X48899800Y-97399800D03*
X58299800Y-84499800D03*
X54899796Y-99499800D03*
X70269800Y-99399800D03*
X73099800Y-99499800D03*
X65899820Y-98399800D03*
X70824790Y-110699800D03*
X94599800Y-53099800D03*
X65299800Y-83099800D03*
X100499800Y-136499800D03*
X100499800Y-135499800D03*
X100499800Y-134249800D03*
X100499800Y-132999800D03*
X100499800Y-131749800D03*
X100499800Y-130499800D03*
X100499800Y-129249800D03*
X137099800Y-136099800D03*
X114199800Y-150199802D03*
X50237257Y-79937257D03*
X102399800Y-142949810D03*
X68799800Y-133999800D03*
X61699800Y-78949800D03*
X71299800Y-78899800D03*
X67599800Y-72399800D03*
X58299804Y-85699800D03*
X73899800Y-53199800D03*
X55199800Y-83199800D03*
X77594762Y-85704800D03*
X108599800Y-72499800D03*
X114799800Y-53599800D03*
X74899800Y-83199800D03*
X65689800Y-114484800D03*
X59599800Y-114484800D03*
X66499780Y-102974924D03*
X59399800Y-102999800D03*
X57239800Y-114319800D03*
X48799800Y-101599806D03*
X59469804Y-113779804D03*
X50049800Y-113779800D03*
X68599800Y-85599800D03*
X88099800Y-72337299D03*
X122299800Y-143999800D03*
X99999800Y-141399790D03*
X62883251Y-84455017D03*
X67799800Y-113624802D03*
X68799800Y-114099802D03*
X52863916Y-84035682D03*
X57299789Y-108299800D03*
X67899800Y-110724800D03*
X71399830Y-113099800D03*
X72899800Y-83999800D03*
X50899800Y-108499800D03*
X57299790Y-109719904D03*
X127899800Y-127499800D03*
X70949800Y-132349800D03*
X65099800Y-130899800D03*
X61299810Y-106599796D03*
X65699800Y-130399800D03*
X72949800Y-132449800D03*
X61947577Y-106545819D03*
X119219800Y-147479800D03*
X112474800Y-144274800D03*
X132699800Y-135899800D03*
D19*
G36*
X113572800Y-65672800D02*
X111699800Y-65672800D01*
X111574663Y-65697691D01*
X111468576Y-65768576D01*
X111397691Y-65874663D01*
X111372800Y-65999800D01*
X111372800Y-71399800D01*
X111397691Y-71524937D01*
X111468576Y-71631024D01*
X111574663Y-71701909D01*
X111699800Y-71726800D01*
X113578170Y-71726800D01*
X113582467Y-71748401D01*
X113609997Y-71789603D01*
X113651199Y-71817133D01*
X113699800Y-71826800D01*
X128818855Y-71826800D01*
X139672800Y-95127929D01*
X139672800Y-111672800D01*
X122042019Y-111672800D01*
X122108121Y-111557846D01*
X122963835Y-109747569D01*
X123671610Y-107874497D01*
X124226887Y-105950694D01*
X124626088Y-103988556D01*
X124866643Y-102000723D01*
X124947000Y-100000000D01*
X124941529Y-99477549D01*
X124819289Y-97478949D01*
X124537157Y-95496589D01*
X124096952Y-93543241D01*
X123501507Y-91631490D01*
X122754661Y-89773650D01*
X121861223Y-87981691D01*
X120826950Y-86267157D01*
X119658504Y-84641093D01*
X118363414Y-83113975D01*
X116950022Y-81695641D01*
X115427434Y-80395228D01*
X113805459Y-79221114D01*
X112094546Y-78180862D01*
X110305716Y-77281175D01*
X108450495Y-76527847D01*
X106540833Y-75925734D01*
X104589034Y-75478712D01*
X102607672Y-75189662D01*
X100609510Y-75060447D01*
X98607421Y-75091898D01*
X96614304Y-75283814D01*
X94642998Y-75634957D01*
X92706203Y-76143065D01*
X90816397Y-76804866D01*
X88985753Y-77616095D01*
X87226067Y-78571527D01*
X85548673Y-79665007D01*
X83964378Y-80889489D01*
X82483388Y-82237086D01*
X81115244Y-83699116D01*
X79868761Y-85266160D01*
X79057933Y-86472800D01*
X46628844Y-86472800D01*
X46803367Y-85745859D01*
X46851007Y-85585028D01*
X57722804Y-85585028D01*
X57722804Y-85814572D01*
X57810647Y-86026644D01*
X57972960Y-86188957D01*
X58185032Y-86276800D01*
X58414576Y-86276800D01*
X58626648Y-86188957D01*
X58788961Y-86026644D01*
X58876804Y-85814572D01*
X58876804Y-85585028D01*
X58835383Y-85485028D01*
X68022800Y-85485028D01*
X68022800Y-85714572D01*
X68110643Y-85926644D01*
X68272956Y-86088957D01*
X68485028Y-86176800D01*
X68714572Y-86176800D01*
X68926644Y-86088957D01*
X69088957Y-85926644D01*
X69176800Y-85714572D01*
X69176800Y-85590028D01*
X77017762Y-85590028D01*
X77017762Y-85819572D01*
X77105605Y-86031644D01*
X77267918Y-86193957D01*
X77479990Y-86281800D01*
X77709534Y-86281800D01*
X77921606Y-86193957D01*
X78083919Y-86031644D01*
X78171762Y-85819572D01*
X78171762Y-85590028D01*
X78083919Y-85377956D01*
X77921606Y-85215643D01*
X77709534Y-85127800D01*
X77479990Y-85127800D01*
X77267918Y-85215643D01*
X77105605Y-85377956D01*
X77017762Y-85590028D01*
X69176800Y-85590028D01*
X69176800Y-85485028D01*
X69088957Y-85272956D01*
X68926644Y-85110643D01*
X68714572Y-85022800D01*
X68485028Y-85022800D01*
X68272956Y-85110643D01*
X68110643Y-85272956D01*
X68022800Y-85485028D01*
X58835383Y-85485028D01*
X58788961Y-85372956D01*
X58626648Y-85210643D01*
X58414576Y-85122800D01*
X58185032Y-85122800D01*
X57972960Y-85210643D01*
X57810647Y-85372956D01*
X57722804Y-85585028D01*
X46851007Y-85585028D01*
X47343941Y-83920910D01*
X52286916Y-83920910D01*
X52286916Y-84150454D01*
X52374759Y-84362526D01*
X52537072Y-84524839D01*
X52749144Y-84612682D01*
X52978688Y-84612682D01*
X53190760Y-84524839D01*
X53330571Y-84385028D01*
X57722800Y-84385028D01*
X57722800Y-84614572D01*
X57810643Y-84826644D01*
X57972956Y-84988957D01*
X58185028Y-85076800D01*
X58414572Y-85076800D01*
X58626644Y-84988957D01*
X58788957Y-84826644D01*
X58876800Y-84614572D01*
X58876800Y-84385028D01*
X58858251Y-84340245D01*
X62306251Y-84340245D01*
X62306251Y-84569789D01*
X62394094Y-84781861D01*
X62556407Y-84944174D01*
X62768479Y-85032017D01*
X62998023Y-85032017D01*
X63210095Y-84944174D01*
X63372408Y-84781861D01*
X63460251Y-84569789D01*
X63460251Y-84340245D01*
X63437380Y-84285028D01*
X67922800Y-84285028D01*
X67922800Y-84514572D01*
X68010643Y-84726644D01*
X68172956Y-84888957D01*
X68385028Y-84976800D01*
X68614572Y-84976800D01*
X68826644Y-84888957D01*
X68988957Y-84726644D01*
X69076800Y-84514572D01*
X69076800Y-84285028D01*
X68988957Y-84072956D01*
X68826644Y-83910643D01*
X68614572Y-83822800D01*
X68385028Y-83822800D01*
X68172956Y-83910643D01*
X68010643Y-84072956D01*
X67922800Y-84285028D01*
X63437380Y-84285028D01*
X63372408Y-84128173D01*
X63210095Y-83965860D01*
X62998023Y-83878017D01*
X62768479Y-83878017D01*
X62556407Y-83965860D01*
X62394094Y-84128173D01*
X62306251Y-84340245D01*
X58858251Y-84340245D01*
X58788957Y-84172956D01*
X58626644Y-84010643D01*
X58414572Y-83922800D01*
X58185028Y-83922800D01*
X57972956Y-84010643D01*
X57810643Y-84172956D01*
X57722800Y-84385028D01*
X53330571Y-84385028D01*
X53353073Y-84362526D01*
X53440916Y-84150454D01*
X53440916Y-83920910D01*
X53353073Y-83708838D01*
X53329918Y-83685683D01*
X53388957Y-83626644D01*
X53476800Y-83414572D01*
X53476800Y-83185028D01*
X53435379Y-83085028D01*
X54622800Y-83085028D01*
X54622800Y-83314572D01*
X54710643Y-83526644D01*
X54872956Y-83688957D01*
X55085028Y-83776800D01*
X55314572Y-83776800D01*
X55526644Y-83688957D01*
X55688957Y-83526644D01*
X55776800Y-83314572D01*
X55776800Y-83085028D01*
X55720882Y-82950028D01*
X62287800Y-82950028D01*
X62287800Y-83179572D01*
X62375643Y-83391644D01*
X62537956Y-83553957D01*
X62750028Y-83641800D01*
X62979572Y-83641800D01*
X63191644Y-83553957D01*
X63353957Y-83391644D01*
X63441800Y-83179572D01*
X63441800Y-82985028D01*
X64722800Y-82985028D01*
X64722800Y-83214572D01*
X64810643Y-83426644D01*
X64972956Y-83588957D01*
X65185028Y-83676800D01*
X65414572Y-83676800D01*
X65626644Y-83588957D01*
X65788957Y-83426644D01*
X65876800Y-83214572D01*
X65876800Y-83185028D01*
X72122800Y-83185028D01*
X72122800Y-83414572D01*
X72210643Y-83626644D01*
X72365629Y-83781630D01*
X72322800Y-83885028D01*
X72322800Y-84114572D01*
X72410643Y-84326644D01*
X72572956Y-84488957D01*
X72785028Y-84576800D01*
X73014572Y-84576800D01*
X73226644Y-84488957D01*
X73388957Y-84326644D01*
X73476800Y-84114572D01*
X73476800Y-83885028D01*
X73435379Y-83785028D01*
X77222800Y-83785028D01*
X77222800Y-84014572D01*
X77310643Y-84226644D01*
X77472956Y-84388957D01*
X77685028Y-84476800D01*
X77914572Y-84476800D01*
X78126644Y-84388957D01*
X78288957Y-84226644D01*
X78376800Y-84014572D01*
X78376800Y-83785028D01*
X78288957Y-83572956D01*
X78126644Y-83410643D01*
X77914572Y-83322800D01*
X77685028Y-83322800D01*
X77472956Y-83410643D01*
X77310643Y-83572956D01*
X77222800Y-83785028D01*
X73435379Y-83785028D01*
X73388957Y-83672956D01*
X73233971Y-83517970D01*
X73276800Y-83414572D01*
X73276800Y-83185028D01*
X73235379Y-83085028D01*
X74322800Y-83085028D01*
X74322800Y-83314572D01*
X74410643Y-83526644D01*
X74572956Y-83688957D01*
X74785028Y-83776800D01*
X75014572Y-83776800D01*
X75226644Y-83688957D01*
X75388957Y-83526644D01*
X75476800Y-83314572D01*
X75476800Y-83085028D01*
X75388957Y-82872956D01*
X75226644Y-82710643D01*
X75014572Y-82622800D01*
X74785028Y-82622800D01*
X74572956Y-82710643D01*
X74410643Y-82872956D01*
X74322800Y-83085028D01*
X73235379Y-83085028D01*
X73188957Y-82972956D01*
X73026644Y-82810643D01*
X72814572Y-82722800D01*
X72585028Y-82722800D01*
X72372956Y-82810643D01*
X72210643Y-82972956D01*
X72122800Y-83185028D01*
X65876800Y-83185028D01*
X65876800Y-82985028D01*
X65788957Y-82772956D01*
X65626644Y-82610643D01*
X65414572Y-82522800D01*
X65185028Y-82522800D01*
X64972956Y-82610643D01*
X64810643Y-82772956D01*
X64722800Y-82985028D01*
X63441800Y-82985028D01*
X63441800Y-82950028D01*
X63353957Y-82737956D01*
X63191644Y-82575643D01*
X62979572Y-82487800D01*
X62750028Y-82487800D01*
X62537956Y-82575643D01*
X62375643Y-82737956D01*
X62287800Y-82950028D01*
X55720882Y-82950028D01*
X55688957Y-82872956D01*
X55526644Y-82710643D01*
X55314572Y-82622800D01*
X55085028Y-82622800D01*
X54872956Y-82710643D01*
X54710643Y-82872956D01*
X54622800Y-83085028D01*
X53435379Y-83085028D01*
X53388957Y-82972956D01*
X53226644Y-82810643D01*
X53014572Y-82722800D01*
X52785028Y-82722800D01*
X52572956Y-82810643D01*
X52410643Y-82972956D01*
X52322800Y-83185028D01*
X52322800Y-83414572D01*
X52410643Y-83626644D01*
X52433798Y-83649799D01*
X52374759Y-83708838D01*
X52286916Y-83920910D01*
X47343941Y-83920910D01*
X47622264Y-82981307D01*
X48584725Y-80263402D01*
X48767358Y-79822485D01*
X49660257Y-79822485D01*
X49660257Y-80052029D01*
X49748100Y-80264101D01*
X49910413Y-80426414D01*
X50122485Y-80514257D01*
X50352029Y-80514257D01*
X50564101Y-80426414D01*
X50726414Y-80264101D01*
X50814257Y-80052029D01*
X50814257Y-79822485D01*
X50726414Y-79610413D01*
X50564101Y-79448100D01*
X50352029Y-79360257D01*
X50122485Y-79360257D01*
X49910413Y-79448100D01*
X49748100Y-79610413D01*
X49660257Y-79822485D01*
X48767358Y-79822485D01*
X49176376Y-78835028D01*
X61122800Y-78835028D01*
X61122800Y-79064572D01*
X61210643Y-79276644D01*
X61372956Y-79438957D01*
X61585028Y-79526800D01*
X61814572Y-79526800D01*
X62026644Y-79438957D01*
X62188957Y-79276644D01*
X62276800Y-79064572D01*
X62276800Y-78835028D01*
X62256090Y-78785028D01*
X70722800Y-78785028D01*
X70722800Y-79014572D01*
X70810643Y-79226644D01*
X70972956Y-79388957D01*
X71185028Y-79476800D01*
X71414572Y-79476800D01*
X71626644Y-79388957D01*
X71788957Y-79226644D01*
X71876800Y-79014572D01*
X71876800Y-78785028D01*
X79222800Y-78785028D01*
X79222800Y-79014572D01*
X79310643Y-79226644D01*
X79472956Y-79388957D01*
X79685028Y-79476800D01*
X79914572Y-79476800D01*
X80126644Y-79388957D01*
X80288957Y-79226644D01*
X80376800Y-79014572D01*
X80376800Y-78785028D01*
X80997800Y-78785028D01*
X80997800Y-79014572D01*
X81085643Y-79226644D01*
X81247956Y-79388957D01*
X81460028Y-79476800D01*
X81689572Y-79476800D01*
X81901644Y-79388957D01*
X82063957Y-79226644D01*
X82151800Y-79014572D01*
X82151800Y-78785028D01*
X82063957Y-78572956D01*
X81901644Y-78410643D01*
X81689572Y-78322800D01*
X81460028Y-78322800D01*
X81247956Y-78410643D01*
X81085643Y-78572956D01*
X80997800Y-78785028D01*
X80376800Y-78785028D01*
X80288957Y-78572956D01*
X80126644Y-78410643D01*
X79914572Y-78322800D01*
X79685028Y-78322800D01*
X79472956Y-78410643D01*
X79310643Y-78572956D01*
X79222800Y-78785028D01*
X71876800Y-78785028D01*
X71788957Y-78572956D01*
X71626644Y-78410643D01*
X71414572Y-78322800D01*
X71185028Y-78322800D01*
X70972956Y-78410643D01*
X70810643Y-78572956D01*
X70722800Y-78785028D01*
X62256090Y-78785028D01*
X62188957Y-78622956D01*
X62026644Y-78460643D01*
X61814572Y-78372800D01*
X61585028Y-78372800D01*
X61372956Y-78460643D01*
X61210643Y-78622956D01*
X61122800Y-78835028D01*
X49176376Y-78835028D01*
X49688111Y-77599593D01*
X50929398Y-74997181D01*
X52305183Y-72463300D01*
X52414428Y-72285028D01*
X67022800Y-72285028D01*
X67022800Y-72514572D01*
X67110643Y-72726644D01*
X67272956Y-72888957D01*
X67485028Y-72976800D01*
X67714572Y-72976800D01*
X67926644Y-72888957D01*
X68088957Y-72726644D01*
X68176800Y-72514572D01*
X68176800Y-72285028D01*
X68150912Y-72222527D01*
X87522800Y-72222527D01*
X87522800Y-72452071D01*
X87610643Y-72664143D01*
X87772956Y-72826456D01*
X87985028Y-72914299D01*
X88214572Y-72914299D01*
X88426644Y-72826456D01*
X88588957Y-72664143D01*
X88676800Y-72452071D01*
X88676800Y-72385028D01*
X108022800Y-72385028D01*
X108022800Y-72614572D01*
X108110643Y-72826644D01*
X108272956Y-72988957D01*
X108485028Y-73076800D01*
X108714572Y-73076800D01*
X108926644Y-72988957D01*
X109088957Y-72826644D01*
X109176800Y-72614572D01*
X109176800Y-72385028D01*
X109088957Y-72172956D01*
X108926644Y-72010643D01*
X108714572Y-71922800D01*
X108485028Y-71922800D01*
X108272956Y-72010643D01*
X108110643Y-72172956D01*
X108022800Y-72385028D01*
X88676800Y-72385028D01*
X88676800Y-72222527D01*
X88588957Y-72010455D01*
X88426644Y-71848142D01*
X88214572Y-71760299D01*
X87985028Y-71760299D01*
X87772956Y-71848142D01*
X87610643Y-72010455D01*
X87522800Y-72222527D01*
X68150912Y-72222527D01*
X68088957Y-72072956D01*
X67926644Y-71910643D01*
X67714572Y-71822800D01*
X67485028Y-71822800D01*
X67272956Y-71910643D01*
X67110643Y-72072956D01*
X67022800Y-72285028D01*
X52414428Y-72285028D01*
X53811696Y-70004894D01*
X55444807Y-67628703D01*
X56771440Y-65899800D01*
X70372800Y-65899800D01*
X70372800Y-71299800D01*
X70397691Y-71424937D01*
X70468576Y-71531024D01*
X70574663Y-71601909D01*
X70699800Y-71626800D01*
X78099800Y-71626800D01*
X78219322Y-71604174D01*
X78326703Y-71535265D01*
X78399540Y-71430510D01*
X78426744Y-71305855D01*
X78526744Y-65905855D01*
X78506668Y-65799800D01*
X90872800Y-65799800D01*
X90872800Y-71199800D01*
X90896050Y-71320899D01*
X90965514Y-71427921D01*
X91070646Y-71500213D01*
X91195440Y-71526771D01*
X98695440Y-71626771D01*
X98824937Y-71601909D01*
X98931024Y-71531024D01*
X99001909Y-71424937D01*
X99026800Y-71299800D01*
X99026800Y-65799800D01*
X99001909Y-65674663D01*
X98931024Y-65568576D01*
X98824937Y-65497691D01*
X98699800Y-65472800D01*
X91199800Y-65472800D01*
X91074663Y-65497691D01*
X90968576Y-65568576D01*
X90897691Y-65674663D01*
X90872800Y-65799800D01*
X78506668Y-65799800D01*
X78501909Y-65774663D01*
X78431024Y-65668576D01*
X78324937Y-65597691D01*
X78199800Y-65572800D01*
X70699800Y-65572800D01*
X70574663Y-65597691D01*
X70468576Y-65668576D01*
X70397691Y-65774663D01*
X70372800Y-65899800D01*
X56771440Y-65899800D01*
X57200040Y-65341238D01*
X59072585Y-63148770D01*
X59093434Y-63126800D01*
X113572800Y-63126800D01*
X113572800Y-65672800D01*
X113572800Y-65672800D01*
G37*
X113572800Y-65672800D02*
X111699800Y-65672800D01*
X111574663Y-65697691D01*
X111468576Y-65768576D01*
X111397691Y-65874663D01*
X111372800Y-65999800D01*
X111372800Y-71399800D01*
X111397691Y-71524937D01*
X111468576Y-71631024D01*
X111574663Y-71701909D01*
X111699800Y-71726800D01*
X113578170Y-71726800D01*
X113582467Y-71748401D01*
X113609997Y-71789603D01*
X113651199Y-71817133D01*
X113699800Y-71826800D01*
X128818855Y-71826800D01*
X139672800Y-95127929D01*
X139672800Y-111672800D01*
X122042019Y-111672800D01*
X122108121Y-111557846D01*
X122963835Y-109747569D01*
X123671610Y-107874497D01*
X124226887Y-105950694D01*
X124626088Y-103988556D01*
X124866643Y-102000723D01*
X124947000Y-100000000D01*
X124941529Y-99477549D01*
X124819289Y-97478949D01*
X124537157Y-95496589D01*
X124096952Y-93543241D01*
X123501507Y-91631490D01*
X122754661Y-89773650D01*
X121861223Y-87981691D01*
X120826950Y-86267157D01*
X119658504Y-84641093D01*
X118363414Y-83113975D01*
X116950022Y-81695641D01*
X115427434Y-80395228D01*
X113805459Y-79221114D01*
X112094546Y-78180862D01*
X110305716Y-77281175D01*
X108450495Y-76527847D01*
X106540833Y-75925734D01*
X104589034Y-75478712D01*
X102607672Y-75189662D01*
X100609510Y-75060447D01*
X98607421Y-75091898D01*
X96614304Y-75283814D01*
X94642998Y-75634957D01*
X92706203Y-76143065D01*
X90816397Y-76804866D01*
X88985753Y-77616095D01*
X87226067Y-78571527D01*
X85548673Y-79665007D01*
X83964378Y-80889489D01*
X82483388Y-82237086D01*
X81115244Y-83699116D01*
X79868761Y-85266160D01*
X79057933Y-86472800D01*
X46628844Y-86472800D01*
X46803367Y-85745859D01*
X46851007Y-85585028D01*
X57722804Y-85585028D01*
X57722804Y-85814572D01*
X57810647Y-86026644D01*
X57972960Y-86188957D01*
X58185032Y-86276800D01*
X58414576Y-86276800D01*
X58626648Y-86188957D01*
X58788961Y-86026644D01*
X58876804Y-85814572D01*
X58876804Y-85585028D01*
X58835383Y-85485028D01*
X68022800Y-85485028D01*
X68022800Y-85714572D01*
X68110643Y-85926644D01*
X68272956Y-86088957D01*
X68485028Y-86176800D01*
X68714572Y-86176800D01*
X68926644Y-86088957D01*
X69088957Y-85926644D01*
X69176800Y-85714572D01*
X69176800Y-85590028D01*
X77017762Y-85590028D01*
X77017762Y-85819572D01*
X77105605Y-86031644D01*
X77267918Y-86193957D01*
X77479990Y-86281800D01*
X77709534Y-86281800D01*
X77921606Y-86193957D01*
X78083919Y-86031644D01*
X78171762Y-85819572D01*
X78171762Y-85590028D01*
X78083919Y-85377956D01*
X77921606Y-85215643D01*
X77709534Y-85127800D01*
X77479990Y-85127800D01*
X77267918Y-85215643D01*
X77105605Y-85377956D01*
X77017762Y-85590028D01*
X69176800Y-85590028D01*
X69176800Y-85485028D01*
X69088957Y-85272956D01*
X68926644Y-85110643D01*
X68714572Y-85022800D01*
X68485028Y-85022800D01*
X68272956Y-85110643D01*
X68110643Y-85272956D01*
X68022800Y-85485028D01*
X58835383Y-85485028D01*
X58788961Y-85372956D01*
X58626648Y-85210643D01*
X58414576Y-85122800D01*
X58185032Y-85122800D01*
X57972960Y-85210643D01*
X57810647Y-85372956D01*
X57722804Y-85585028D01*
X46851007Y-85585028D01*
X47343941Y-83920910D01*
X52286916Y-83920910D01*
X52286916Y-84150454D01*
X52374759Y-84362526D01*
X52537072Y-84524839D01*
X52749144Y-84612682D01*
X52978688Y-84612682D01*
X53190760Y-84524839D01*
X53330571Y-84385028D01*
X57722800Y-84385028D01*
X57722800Y-84614572D01*
X57810643Y-84826644D01*
X57972956Y-84988957D01*
X58185028Y-85076800D01*
X58414572Y-85076800D01*
X58626644Y-84988957D01*
X58788957Y-84826644D01*
X58876800Y-84614572D01*
X58876800Y-84385028D01*
X58858251Y-84340245D01*
X62306251Y-84340245D01*
X62306251Y-84569789D01*
X62394094Y-84781861D01*
X62556407Y-84944174D01*
X62768479Y-85032017D01*
X62998023Y-85032017D01*
X63210095Y-84944174D01*
X63372408Y-84781861D01*
X63460251Y-84569789D01*
X63460251Y-84340245D01*
X63437380Y-84285028D01*
X67922800Y-84285028D01*
X67922800Y-84514572D01*
X68010643Y-84726644D01*
X68172956Y-84888957D01*
X68385028Y-84976800D01*
X68614572Y-84976800D01*
X68826644Y-84888957D01*
X68988957Y-84726644D01*
X69076800Y-84514572D01*
X69076800Y-84285028D01*
X68988957Y-84072956D01*
X68826644Y-83910643D01*
X68614572Y-83822800D01*
X68385028Y-83822800D01*
X68172956Y-83910643D01*
X68010643Y-84072956D01*
X67922800Y-84285028D01*
X63437380Y-84285028D01*
X63372408Y-84128173D01*
X63210095Y-83965860D01*
X62998023Y-83878017D01*
X62768479Y-83878017D01*
X62556407Y-83965860D01*
X62394094Y-84128173D01*
X62306251Y-84340245D01*
X58858251Y-84340245D01*
X58788957Y-84172956D01*
X58626644Y-84010643D01*
X58414572Y-83922800D01*
X58185028Y-83922800D01*
X57972956Y-84010643D01*
X57810643Y-84172956D01*
X57722800Y-84385028D01*
X53330571Y-84385028D01*
X53353073Y-84362526D01*
X53440916Y-84150454D01*
X53440916Y-83920910D01*
X53353073Y-83708838D01*
X53329918Y-83685683D01*
X53388957Y-83626644D01*
X53476800Y-83414572D01*
X53476800Y-83185028D01*
X53435379Y-83085028D01*
X54622800Y-83085028D01*
X54622800Y-83314572D01*
X54710643Y-83526644D01*
X54872956Y-83688957D01*
X55085028Y-83776800D01*
X55314572Y-83776800D01*
X55526644Y-83688957D01*
X55688957Y-83526644D01*
X55776800Y-83314572D01*
X55776800Y-83085028D01*
X55720882Y-82950028D01*
X62287800Y-82950028D01*
X62287800Y-83179572D01*
X62375643Y-83391644D01*
X62537956Y-83553957D01*
X62750028Y-83641800D01*
X62979572Y-83641800D01*
X63191644Y-83553957D01*
X63353957Y-83391644D01*
X63441800Y-83179572D01*
X63441800Y-82985028D01*
X64722800Y-82985028D01*
X64722800Y-83214572D01*
X64810643Y-83426644D01*
X64972956Y-83588957D01*
X65185028Y-83676800D01*
X65414572Y-83676800D01*
X65626644Y-83588957D01*
X65788957Y-83426644D01*
X65876800Y-83214572D01*
X65876800Y-83185028D01*
X72122800Y-83185028D01*
X72122800Y-83414572D01*
X72210643Y-83626644D01*
X72365629Y-83781630D01*
X72322800Y-83885028D01*
X72322800Y-84114572D01*
X72410643Y-84326644D01*
X72572956Y-84488957D01*
X72785028Y-84576800D01*
X73014572Y-84576800D01*
X73226644Y-84488957D01*
X73388957Y-84326644D01*
X73476800Y-84114572D01*
X73476800Y-83885028D01*
X73435379Y-83785028D01*
X77222800Y-83785028D01*
X77222800Y-84014572D01*
X77310643Y-84226644D01*
X77472956Y-84388957D01*
X77685028Y-84476800D01*
X77914572Y-84476800D01*
X78126644Y-84388957D01*
X78288957Y-84226644D01*
X78376800Y-84014572D01*
X78376800Y-83785028D01*
X78288957Y-83572956D01*
X78126644Y-83410643D01*
X77914572Y-83322800D01*
X77685028Y-83322800D01*
X77472956Y-83410643D01*
X77310643Y-83572956D01*
X77222800Y-83785028D01*
X73435379Y-83785028D01*
X73388957Y-83672956D01*
X73233971Y-83517970D01*
X73276800Y-83414572D01*
X73276800Y-83185028D01*
X73235379Y-83085028D01*
X74322800Y-83085028D01*
X74322800Y-83314572D01*
X74410643Y-83526644D01*
X74572956Y-83688957D01*
X74785028Y-83776800D01*
X75014572Y-83776800D01*
X75226644Y-83688957D01*
X75388957Y-83526644D01*
X75476800Y-83314572D01*
X75476800Y-83085028D01*
X75388957Y-82872956D01*
X75226644Y-82710643D01*
X75014572Y-82622800D01*
X74785028Y-82622800D01*
X74572956Y-82710643D01*
X74410643Y-82872956D01*
X74322800Y-83085028D01*
X73235379Y-83085028D01*
X73188957Y-82972956D01*
X73026644Y-82810643D01*
X72814572Y-82722800D01*
X72585028Y-82722800D01*
X72372956Y-82810643D01*
X72210643Y-82972956D01*
X72122800Y-83185028D01*
X65876800Y-83185028D01*
X65876800Y-82985028D01*
X65788957Y-82772956D01*
X65626644Y-82610643D01*
X65414572Y-82522800D01*
X65185028Y-82522800D01*
X64972956Y-82610643D01*
X64810643Y-82772956D01*
X64722800Y-82985028D01*
X63441800Y-82985028D01*
X63441800Y-82950028D01*
X63353957Y-82737956D01*
X63191644Y-82575643D01*
X62979572Y-82487800D01*
X62750028Y-82487800D01*
X62537956Y-82575643D01*
X62375643Y-82737956D01*
X62287800Y-82950028D01*
X55720882Y-82950028D01*
X55688957Y-82872956D01*
X55526644Y-82710643D01*
X55314572Y-82622800D01*
X55085028Y-82622800D01*
X54872956Y-82710643D01*
X54710643Y-82872956D01*
X54622800Y-83085028D01*
X53435379Y-83085028D01*
X53388957Y-82972956D01*
X53226644Y-82810643D01*
X53014572Y-82722800D01*
X52785028Y-82722800D01*
X52572956Y-82810643D01*
X52410643Y-82972956D01*
X52322800Y-83185028D01*
X52322800Y-83414572D01*
X52410643Y-83626644D01*
X52433798Y-83649799D01*
X52374759Y-83708838D01*
X52286916Y-83920910D01*
X47343941Y-83920910D01*
X47622264Y-82981307D01*
X48584725Y-80263402D01*
X48767358Y-79822485D01*
X49660257Y-79822485D01*
X49660257Y-80052029D01*
X49748100Y-80264101D01*
X49910413Y-80426414D01*
X50122485Y-80514257D01*
X50352029Y-80514257D01*
X50564101Y-80426414D01*
X50726414Y-80264101D01*
X50814257Y-80052029D01*
X50814257Y-79822485D01*
X50726414Y-79610413D01*
X50564101Y-79448100D01*
X50352029Y-79360257D01*
X50122485Y-79360257D01*
X49910413Y-79448100D01*
X49748100Y-79610413D01*
X49660257Y-79822485D01*
X48767358Y-79822485D01*
X49176376Y-78835028D01*
X61122800Y-78835028D01*
X61122800Y-79064572D01*
X61210643Y-79276644D01*
X61372956Y-79438957D01*
X61585028Y-79526800D01*
X61814572Y-79526800D01*
X62026644Y-79438957D01*
X62188957Y-79276644D01*
X62276800Y-79064572D01*
X62276800Y-78835028D01*
X62256090Y-78785028D01*
X70722800Y-78785028D01*
X70722800Y-79014572D01*
X70810643Y-79226644D01*
X70972956Y-79388957D01*
X71185028Y-79476800D01*
X71414572Y-79476800D01*
X71626644Y-79388957D01*
X71788957Y-79226644D01*
X71876800Y-79014572D01*
X71876800Y-78785028D01*
X79222800Y-78785028D01*
X79222800Y-79014572D01*
X79310643Y-79226644D01*
X79472956Y-79388957D01*
X79685028Y-79476800D01*
X79914572Y-79476800D01*
X80126644Y-79388957D01*
X80288957Y-79226644D01*
X80376800Y-79014572D01*
X80376800Y-78785028D01*
X80997800Y-78785028D01*
X80997800Y-79014572D01*
X81085643Y-79226644D01*
X81247956Y-79388957D01*
X81460028Y-79476800D01*
X81689572Y-79476800D01*
X81901644Y-79388957D01*
X82063957Y-79226644D01*
X82151800Y-79014572D01*
X82151800Y-78785028D01*
X82063957Y-78572956D01*
X81901644Y-78410643D01*
X81689572Y-78322800D01*
X81460028Y-78322800D01*
X81247956Y-78410643D01*
X81085643Y-78572956D01*
X80997800Y-78785028D01*
X80376800Y-78785028D01*
X80288957Y-78572956D01*
X80126644Y-78410643D01*
X79914572Y-78322800D01*
X79685028Y-78322800D01*
X79472956Y-78410643D01*
X79310643Y-78572956D01*
X79222800Y-78785028D01*
X71876800Y-78785028D01*
X71788957Y-78572956D01*
X71626644Y-78410643D01*
X71414572Y-78322800D01*
X71185028Y-78322800D01*
X70972956Y-78410643D01*
X70810643Y-78572956D01*
X70722800Y-78785028D01*
X62256090Y-78785028D01*
X62188957Y-78622956D01*
X62026644Y-78460643D01*
X61814572Y-78372800D01*
X61585028Y-78372800D01*
X61372956Y-78460643D01*
X61210643Y-78622956D01*
X61122800Y-78835028D01*
X49176376Y-78835028D01*
X49688111Y-77599593D01*
X50929398Y-74997181D01*
X52305183Y-72463300D01*
X52414428Y-72285028D01*
X67022800Y-72285028D01*
X67022800Y-72514572D01*
X67110643Y-72726644D01*
X67272956Y-72888957D01*
X67485028Y-72976800D01*
X67714572Y-72976800D01*
X67926644Y-72888957D01*
X68088957Y-72726644D01*
X68176800Y-72514572D01*
X68176800Y-72285028D01*
X68150912Y-72222527D01*
X87522800Y-72222527D01*
X87522800Y-72452071D01*
X87610643Y-72664143D01*
X87772956Y-72826456D01*
X87985028Y-72914299D01*
X88214572Y-72914299D01*
X88426644Y-72826456D01*
X88588957Y-72664143D01*
X88676800Y-72452071D01*
X88676800Y-72385028D01*
X108022800Y-72385028D01*
X108022800Y-72614572D01*
X108110643Y-72826644D01*
X108272956Y-72988957D01*
X108485028Y-73076800D01*
X108714572Y-73076800D01*
X108926644Y-72988957D01*
X109088957Y-72826644D01*
X109176800Y-72614572D01*
X109176800Y-72385028D01*
X109088957Y-72172956D01*
X108926644Y-72010643D01*
X108714572Y-71922800D01*
X108485028Y-71922800D01*
X108272956Y-72010643D01*
X108110643Y-72172956D01*
X108022800Y-72385028D01*
X88676800Y-72385028D01*
X88676800Y-72222527D01*
X88588957Y-72010455D01*
X88426644Y-71848142D01*
X88214572Y-71760299D01*
X87985028Y-71760299D01*
X87772956Y-71848142D01*
X87610643Y-72010455D01*
X87522800Y-72222527D01*
X68150912Y-72222527D01*
X68088957Y-72072956D01*
X67926644Y-71910643D01*
X67714572Y-71822800D01*
X67485028Y-71822800D01*
X67272956Y-71910643D01*
X67110643Y-72072956D01*
X67022800Y-72285028D01*
X52414428Y-72285028D01*
X53811696Y-70004894D01*
X55444807Y-67628703D01*
X56771440Y-65899800D01*
X70372800Y-65899800D01*
X70372800Y-71299800D01*
X70397691Y-71424937D01*
X70468576Y-71531024D01*
X70574663Y-71601909D01*
X70699800Y-71626800D01*
X78099800Y-71626800D01*
X78219322Y-71604174D01*
X78326703Y-71535265D01*
X78399540Y-71430510D01*
X78426744Y-71305855D01*
X78526744Y-65905855D01*
X78506668Y-65799800D01*
X90872800Y-65799800D01*
X90872800Y-71199800D01*
X90896050Y-71320899D01*
X90965514Y-71427921D01*
X91070646Y-71500213D01*
X91195440Y-71526771D01*
X98695440Y-71626771D01*
X98824937Y-71601909D01*
X98931024Y-71531024D01*
X99001909Y-71424937D01*
X99026800Y-71299800D01*
X99026800Y-65799800D01*
X99001909Y-65674663D01*
X98931024Y-65568576D01*
X98824937Y-65497691D01*
X98699800Y-65472800D01*
X91199800Y-65472800D01*
X91074663Y-65497691D01*
X90968576Y-65568576D01*
X90897691Y-65674663D01*
X90872800Y-65799800D01*
X78506668Y-65799800D01*
X78501909Y-65774663D01*
X78431024Y-65668576D01*
X78324937Y-65597691D01*
X78199800Y-65572800D01*
X70699800Y-65572800D01*
X70574663Y-65597691D01*
X70468576Y-65668576D01*
X70397691Y-65774663D01*
X70372800Y-65899800D01*
X56771440Y-65899800D01*
X57200040Y-65341238D01*
X59072585Y-63148770D01*
X59093434Y-63126800D01*
X113572800Y-63126800D01*
X113572800Y-65672800D01*
G36*
X102882098Y-45002276D02*
X105756496Y-45228496D01*
X108615115Y-45604840D01*
X111450121Y-46130277D01*
X114253741Y-46803367D01*
X117018293Y-47622264D01*
X119736198Y-48584725D01*
X122400007Y-49688111D01*
X125002419Y-50929398D01*
X127536300Y-52305183D01*
X129994706Y-53811696D01*
X132370897Y-55444807D01*
X134658362Y-57200040D01*
X136850830Y-59072585D01*
X138942292Y-61057308D01*
X140927015Y-63148770D01*
X142799560Y-65341238D01*
X144554793Y-67628703D01*
X146187904Y-70004894D01*
X147694417Y-72463300D01*
X149070202Y-74997181D01*
X150311489Y-77599593D01*
X151414875Y-80263402D01*
X152377336Y-82981307D01*
X153196233Y-85745859D01*
X153869323Y-88549479D01*
X154394760Y-91384485D01*
X154771104Y-94243104D01*
X154997324Y-97117502D01*
X155072800Y-99999800D01*
X154997324Y-102882098D01*
X154771104Y-105756496D01*
X154394760Y-108615115D01*
X153869323Y-111450121D01*
X153815862Y-111672800D01*
X145226800Y-111672800D01*
X145226800Y-106399800D01*
X145217133Y-106351199D01*
X145189603Y-106309997D01*
X145148401Y-106282467D01*
X145099800Y-106272800D01*
X140276800Y-106272800D01*
X140276800Y-94999800D01*
X140265182Y-94946734D01*
X129365182Y-71246734D01*
X129336092Y-71206619D01*
X129293864Y-71180689D01*
X129249800Y-71172800D01*
X119526800Y-71172800D01*
X119526800Y-65999800D01*
X119501909Y-65874663D01*
X119431024Y-65768576D01*
X119324937Y-65697691D01*
X119199800Y-65672800D01*
X114176800Y-65672800D01*
X114176800Y-62699800D01*
X114167133Y-62651199D01*
X114139603Y-62609997D01*
X114098401Y-62582467D01*
X114049800Y-62572800D01*
X59619160Y-62572800D01*
X61057308Y-61057308D01*
X62227455Y-59946880D01*
X80172813Y-59946880D01*
X80197691Y-60074937D01*
X80268576Y-60181024D01*
X80374663Y-60251909D01*
X80499800Y-60276800D01*
X86099800Y-60276800D01*
X86224937Y-60251909D01*
X86331024Y-60181024D01*
X86401909Y-60074937D01*
X86426800Y-59949800D01*
X86426800Y-54499800D01*
X100672800Y-54499800D01*
X100672800Y-60049800D01*
X100696576Y-60172211D01*
X100766502Y-60278932D01*
X100871946Y-60350769D01*
X100996854Y-60376787D01*
X106546854Y-60426787D01*
X106674937Y-60401909D01*
X106781024Y-60331024D01*
X106851909Y-60224937D01*
X106876800Y-60099800D01*
X106876800Y-54799800D01*
X121622800Y-54799800D01*
X121622800Y-59949800D01*
X121647691Y-60074937D01*
X121718576Y-60181024D01*
X121824663Y-60251909D01*
X121949800Y-60276800D01*
X127049800Y-60276800D01*
X127174937Y-60251909D01*
X127281024Y-60181024D01*
X127351909Y-60074937D01*
X127376800Y-59949800D01*
X127376800Y-54799800D01*
X127351909Y-54674663D01*
X127281024Y-54568576D01*
X127174937Y-54497691D01*
X127049800Y-54472800D01*
X121949800Y-54472800D01*
X121824663Y-54497691D01*
X121718576Y-54568576D01*
X121647691Y-54674663D01*
X121622800Y-54799800D01*
X106876800Y-54799800D01*
X106876800Y-54499800D01*
X106851909Y-54374663D01*
X106781024Y-54268576D01*
X106674937Y-54197691D01*
X106549800Y-54172800D01*
X100999800Y-54172800D01*
X100874663Y-54197691D01*
X100768576Y-54268576D01*
X100697691Y-54374663D01*
X100672800Y-54499800D01*
X86426800Y-54499800D01*
X86426800Y-54349800D01*
X86401909Y-54224663D01*
X86331024Y-54118576D01*
X86224937Y-54047691D01*
X86099800Y-54022800D01*
X80549800Y-54022800D01*
X80427365Y-54046586D01*
X80320650Y-54116521D01*
X80248821Y-54221970D01*
X80222813Y-54346880D01*
X80172813Y-59946880D01*
X62227455Y-59946880D01*
X63148770Y-59072585D01*
X65341238Y-57200040D01*
X67628703Y-55444807D01*
X70004894Y-53811696D01*
X71190708Y-53085028D01*
X73322800Y-53085028D01*
X73322800Y-53314572D01*
X73410643Y-53526644D01*
X73572956Y-53688957D01*
X73785028Y-53776800D01*
X74014572Y-53776800D01*
X74226644Y-53688957D01*
X74388957Y-53526644D01*
X74476800Y-53314572D01*
X74476800Y-53085028D01*
X74435379Y-52985028D01*
X94022800Y-52985028D01*
X94022800Y-53214572D01*
X94110643Y-53426644D01*
X94272956Y-53588957D01*
X94485028Y-53676800D01*
X94714572Y-53676800D01*
X94926644Y-53588957D01*
X95030573Y-53485028D01*
X114222800Y-53485028D01*
X114222800Y-53714572D01*
X114310643Y-53926644D01*
X114472956Y-54088957D01*
X114685028Y-54176800D01*
X114914572Y-54176800D01*
X115126644Y-54088957D01*
X115288957Y-53926644D01*
X115376800Y-53714572D01*
X115376800Y-53485028D01*
X115288957Y-53272956D01*
X115126644Y-53110643D01*
X114914572Y-53022800D01*
X114685028Y-53022800D01*
X114472956Y-53110643D01*
X114310643Y-53272956D01*
X114222800Y-53485028D01*
X95030573Y-53485028D01*
X95088957Y-53426644D01*
X95176800Y-53214572D01*
X95176800Y-52985028D01*
X95088957Y-52772956D01*
X94926644Y-52610643D01*
X94714572Y-52522800D01*
X94485028Y-52522800D01*
X94272956Y-52610643D01*
X94110643Y-52772956D01*
X94022800Y-52985028D01*
X74435379Y-52985028D01*
X74388957Y-52872956D01*
X74226644Y-52710643D01*
X74014572Y-52622800D01*
X73785028Y-52622800D01*
X73572956Y-52710643D01*
X73410643Y-52872956D01*
X73322800Y-53085028D01*
X71190708Y-53085028D01*
X72463300Y-52305183D01*
X74997181Y-50929398D01*
X77599593Y-49688111D01*
X80263402Y-48584725D01*
X81585074Y-48116696D01*
X98073000Y-48116696D01*
X98073000Y-48883304D01*
X98366368Y-49591558D01*
X98908442Y-50133632D01*
X99616696Y-50427000D01*
X100383304Y-50427000D01*
X101091558Y-50133632D01*
X101633632Y-49591558D01*
X101927000Y-48883304D01*
X101927000Y-48116696D01*
X101633632Y-47408442D01*
X101091558Y-46866368D01*
X100383304Y-46573000D01*
X99616696Y-46573000D01*
X98908442Y-46866368D01*
X98366368Y-47408442D01*
X98073000Y-48116696D01*
X81585074Y-48116696D01*
X82981307Y-47622264D01*
X85745859Y-46803367D01*
X88549479Y-46130277D01*
X91384485Y-45604840D01*
X94243104Y-45228496D01*
X97117502Y-45002276D01*
X99999800Y-44926800D01*
X102882098Y-45002276D01*
X102882098Y-45002276D01*
G37*
X102882098Y-45002276D02*
X105756496Y-45228496D01*
X108615115Y-45604840D01*
X111450121Y-46130277D01*
X114253741Y-46803367D01*
X117018293Y-47622264D01*
X119736198Y-48584725D01*
X122400007Y-49688111D01*
X125002419Y-50929398D01*
X127536300Y-52305183D01*
X129994706Y-53811696D01*
X132370897Y-55444807D01*
X134658362Y-57200040D01*
X136850830Y-59072585D01*
X138942292Y-61057308D01*
X140927015Y-63148770D01*
X142799560Y-65341238D01*
X144554793Y-67628703D01*
X146187904Y-70004894D01*
X147694417Y-72463300D01*
X149070202Y-74997181D01*
X150311489Y-77599593D01*
X151414875Y-80263402D01*
X152377336Y-82981307D01*
X153196233Y-85745859D01*
X153869323Y-88549479D01*
X154394760Y-91384485D01*
X154771104Y-94243104D01*
X154997324Y-97117502D01*
X155072800Y-99999800D01*
X154997324Y-102882098D01*
X154771104Y-105756496D01*
X154394760Y-108615115D01*
X153869323Y-111450121D01*
X153815862Y-111672800D01*
X145226800Y-111672800D01*
X145226800Y-106399800D01*
X145217133Y-106351199D01*
X145189603Y-106309997D01*
X145148401Y-106282467D01*
X145099800Y-106272800D01*
X140276800Y-106272800D01*
X140276800Y-94999800D01*
X140265182Y-94946734D01*
X129365182Y-71246734D01*
X129336092Y-71206619D01*
X129293864Y-71180689D01*
X129249800Y-71172800D01*
X119526800Y-71172800D01*
X119526800Y-65999800D01*
X119501909Y-65874663D01*
X119431024Y-65768576D01*
X119324937Y-65697691D01*
X119199800Y-65672800D01*
X114176800Y-65672800D01*
X114176800Y-62699800D01*
X114167133Y-62651199D01*
X114139603Y-62609997D01*
X114098401Y-62582467D01*
X114049800Y-62572800D01*
X59619160Y-62572800D01*
X61057308Y-61057308D01*
X62227455Y-59946880D01*
X80172813Y-59946880D01*
X80197691Y-60074937D01*
X80268576Y-60181024D01*
X80374663Y-60251909D01*
X80499800Y-60276800D01*
X86099800Y-60276800D01*
X86224937Y-60251909D01*
X86331024Y-60181024D01*
X86401909Y-60074937D01*
X86426800Y-59949800D01*
X86426800Y-54499800D01*
X100672800Y-54499800D01*
X100672800Y-60049800D01*
X100696576Y-60172211D01*
X100766502Y-60278932D01*
X100871946Y-60350769D01*
X100996854Y-60376787D01*
X106546854Y-60426787D01*
X106674937Y-60401909D01*
X106781024Y-60331024D01*
X106851909Y-60224937D01*
X106876800Y-60099800D01*
X106876800Y-54799800D01*
X121622800Y-54799800D01*
X121622800Y-59949800D01*
X121647691Y-60074937D01*
X121718576Y-60181024D01*
X121824663Y-60251909D01*
X121949800Y-60276800D01*
X127049800Y-60276800D01*
X127174937Y-60251909D01*
X127281024Y-60181024D01*
X127351909Y-60074937D01*
X127376800Y-59949800D01*
X127376800Y-54799800D01*
X127351909Y-54674663D01*
X127281024Y-54568576D01*
X127174937Y-54497691D01*
X127049800Y-54472800D01*
X121949800Y-54472800D01*
X121824663Y-54497691D01*
X121718576Y-54568576D01*
X121647691Y-54674663D01*
X121622800Y-54799800D01*
X106876800Y-54799800D01*
X106876800Y-54499800D01*
X106851909Y-54374663D01*
X106781024Y-54268576D01*
X106674937Y-54197691D01*
X106549800Y-54172800D01*
X100999800Y-54172800D01*
X100874663Y-54197691D01*
X100768576Y-54268576D01*
X100697691Y-54374663D01*
X100672800Y-54499800D01*
X86426800Y-54499800D01*
X86426800Y-54349800D01*
X86401909Y-54224663D01*
X86331024Y-54118576D01*
X86224937Y-54047691D01*
X86099800Y-54022800D01*
X80549800Y-54022800D01*
X80427365Y-54046586D01*
X80320650Y-54116521D01*
X80248821Y-54221970D01*
X80222813Y-54346880D01*
X80172813Y-59946880D01*
X62227455Y-59946880D01*
X63148770Y-59072585D01*
X65341238Y-57200040D01*
X67628703Y-55444807D01*
X70004894Y-53811696D01*
X71190708Y-53085028D01*
X73322800Y-53085028D01*
X73322800Y-53314572D01*
X73410643Y-53526644D01*
X73572956Y-53688957D01*
X73785028Y-53776800D01*
X74014572Y-53776800D01*
X74226644Y-53688957D01*
X74388957Y-53526644D01*
X74476800Y-53314572D01*
X74476800Y-53085028D01*
X74435379Y-52985028D01*
X94022800Y-52985028D01*
X94022800Y-53214572D01*
X94110643Y-53426644D01*
X94272956Y-53588957D01*
X94485028Y-53676800D01*
X94714572Y-53676800D01*
X94926644Y-53588957D01*
X95030573Y-53485028D01*
X114222800Y-53485028D01*
X114222800Y-53714572D01*
X114310643Y-53926644D01*
X114472956Y-54088957D01*
X114685028Y-54176800D01*
X114914572Y-54176800D01*
X115126644Y-54088957D01*
X115288957Y-53926644D01*
X115376800Y-53714572D01*
X115376800Y-53485028D01*
X115288957Y-53272956D01*
X115126644Y-53110643D01*
X114914572Y-53022800D01*
X114685028Y-53022800D01*
X114472956Y-53110643D01*
X114310643Y-53272956D01*
X114222800Y-53485028D01*
X95030573Y-53485028D01*
X95088957Y-53426644D01*
X95176800Y-53214572D01*
X95176800Y-52985028D01*
X95088957Y-52772956D01*
X94926644Y-52610643D01*
X94714572Y-52522800D01*
X94485028Y-52522800D01*
X94272956Y-52610643D01*
X94110643Y-52772956D01*
X94022800Y-52985028D01*
X74435379Y-52985028D01*
X74388957Y-52872956D01*
X74226644Y-52710643D01*
X74014572Y-52622800D01*
X73785028Y-52622800D01*
X73572956Y-52710643D01*
X73410643Y-52872956D01*
X73322800Y-53085028D01*
X71190708Y-53085028D01*
X72463300Y-52305183D01*
X74997181Y-50929398D01*
X77599593Y-49688111D01*
X80263402Y-48584725D01*
X81585074Y-48116696D01*
X98073000Y-48116696D01*
X98073000Y-48883304D01*
X98366368Y-49591558D01*
X98908442Y-50133632D01*
X99616696Y-50427000D01*
X100383304Y-50427000D01*
X101091558Y-50133632D01*
X101633632Y-49591558D01*
X101927000Y-48883304D01*
X101927000Y-48116696D01*
X101633632Y-47408442D01*
X101091558Y-46866368D01*
X100383304Y-46573000D01*
X99616696Y-46573000D01*
X98908442Y-46866368D01*
X98366368Y-47408442D01*
X98073000Y-48116696D01*
X81585074Y-48116696D01*
X82981307Y-47622264D01*
X85745859Y-46803367D01*
X88549479Y-46130277D01*
X91384485Y-45604840D01*
X94243104Y-45228496D01*
X97117502Y-45002276D01*
X99999800Y-44926800D01*
X102882098Y-45002276D01*
G36*
X85972800Y-59822800D02*
X80627939Y-59822800D01*
X80675671Y-54476800D01*
X85972800Y-54476800D01*
X85972800Y-59822800D01*
X85972800Y-59822800D01*
G37*
X85972800Y-59822800D02*
X80627939Y-59822800D01*
X80675671Y-54476800D01*
X85972800Y-54476800D01*
X85972800Y-59822800D01*
G36*
X106422800Y-59971651D02*
X101126800Y-59923939D01*
X101126800Y-54626800D01*
X106422800Y-54626800D01*
X106422800Y-59971651D01*
X106422800Y-59971651D01*
G37*
X106422800Y-59971651D02*
X101126800Y-59923939D01*
X101126800Y-54626800D01*
X106422800Y-54626800D01*
X106422800Y-59971651D01*
G36*
X126922800Y-59822800D02*
X122076800Y-59822800D01*
X122076800Y-54926800D01*
X126922800Y-54926800D01*
X126922800Y-59822800D01*
X126922800Y-59822800D01*
G37*
X126922800Y-59822800D02*
X122076800Y-59822800D01*
X122076800Y-54926800D01*
X126922800Y-54926800D01*
X126922800Y-59822800D01*
G36*
X77975130Y-71172800D02*
X70826800Y-71172800D01*
X70826800Y-66026800D01*
X78070427Y-66026800D01*
X77975130Y-71172800D01*
X77975130Y-71172800D01*
G37*
X77975130Y-71172800D02*
X70826800Y-71172800D01*
X70826800Y-66026800D01*
X78070427Y-66026800D01*
X77975130Y-71172800D01*
G36*
X98572800Y-71171095D02*
X91326800Y-71074482D01*
X91326800Y-65926800D01*
X98572800Y-65926800D01*
X98572800Y-71171095D01*
X98572800Y-71171095D01*
G37*
X98572800Y-71171095D02*
X91326800Y-71074482D01*
X91326800Y-65926800D01*
X98572800Y-65926800D01*
X98572800Y-71171095D01*
G36*
X119072800Y-71272800D02*
X111826800Y-71272800D01*
X111826800Y-66126800D01*
X119072800Y-66126800D01*
X119072800Y-71272800D01*
X119072800Y-71272800D01*
G37*
X119072800Y-71272800D02*
X111826800Y-71272800D01*
X111826800Y-66126800D01*
X119072800Y-66126800D01*
X119072800Y-71272800D01*
G36*
X77772060Y-88674299D02*
X76935350Y-90493437D01*
X76247228Y-92373819D01*
X75712127Y-94303331D01*
X75333495Y-96269542D01*
X75113770Y-98259785D01*
X75054368Y-100261240D01*
X75155672Y-102261011D01*
X75417029Y-104246216D01*
X75836756Y-106204067D01*
X76412148Y-108121949D01*
X77139499Y-109987507D01*
X78014123Y-111788724D01*
X79030385Y-113513995D01*
X80181738Y-115152205D01*
X81460766Y-116692801D01*
X82859228Y-118125858D01*
X84368115Y-119442144D01*
X85977706Y-120633179D01*
X87677632Y-121691290D01*
X89456942Y-122609660D01*
X91304173Y-123382374D01*
X93207425Y-124004452D01*
X95154436Y-124471888D01*
X97132663Y-124781670D01*
X99129362Y-124931803D01*
X101131670Y-124921319D01*
X103126688Y-124750285D01*
X105101563Y-124419805D01*
X107043572Y-123932006D01*
X108940205Y-123290031D01*
X110779243Y-122498016D01*
X112548839Y-121561063D01*
X114237591Y-120485209D01*
X115834622Y-119277384D01*
X117329642Y-117945370D01*
X118713021Y-116497747D01*
X119975846Y-114943842D01*
X121109981Y-113293664D01*
X121205932Y-113126800D01*
X139822800Y-113126800D01*
X139822800Y-122572800D01*
X138726800Y-122572800D01*
X138726800Y-114899800D01*
X138717133Y-114851199D01*
X138689603Y-114809997D01*
X138648401Y-114782467D01*
X138599800Y-114772800D01*
X122999800Y-114772800D01*
X122951199Y-114782467D01*
X122909997Y-114809997D01*
X122882467Y-114851199D01*
X122872800Y-114899800D01*
X122872800Y-122572800D01*
X113499800Y-122572800D01*
X113374663Y-122597691D01*
X113268576Y-122668576D01*
X113197691Y-122774663D01*
X113172800Y-122899800D01*
X113172800Y-146999800D01*
X113197691Y-147124937D01*
X113268576Y-147231024D01*
X113374663Y-147301909D01*
X113499800Y-147326800D01*
X118658635Y-147326800D01*
X118642800Y-147365028D01*
X118642800Y-147594572D01*
X118730643Y-147806644D01*
X118892956Y-147968957D01*
X119105028Y-148056800D01*
X119334572Y-148056800D01*
X119546644Y-147968957D01*
X119708957Y-147806644D01*
X119796800Y-147594572D01*
X119796800Y-147365028D01*
X119780965Y-147326800D01*
X121499800Y-147326800D01*
X121624937Y-147301909D01*
X121731024Y-147231024D01*
X121801909Y-147124937D01*
X121826800Y-146999800D01*
X121826800Y-144342801D01*
X121972956Y-144488957D01*
X122185028Y-144576800D01*
X122414572Y-144576800D01*
X122626644Y-144488957D01*
X122788957Y-144326644D01*
X122876800Y-144114572D01*
X122876800Y-143885028D01*
X122788957Y-143672956D01*
X122626644Y-143510643D01*
X122414572Y-143422800D01*
X122185028Y-143422800D01*
X121972956Y-143510643D01*
X121826800Y-143656799D01*
X121826800Y-135785028D01*
X132122800Y-135785028D01*
X132122800Y-136014572D01*
X132210643Y-136226644D01*
X132372956Y-136388957D01*
X132585028Y-136476800D01*
X132814572Y-136476800D01*
X133026644Y-136388957D01*
X133188957Y-136226644D01*
X133276800Y-136014572D01*
X133276800Y-135985028D01*
X136522800Y-135985028D01*
X136522800Y-136214572D01*
X136610643Y-136426644D01*
X136772956Y-136588957D01*
X136985028Y-136676800D01*
X137214572Y-136676800D01*
X137426644Y-136588957D01*
X137588957Y-136426644D01*
X137676800Y-136214572D01*
X137676800Y-135985028D01*
X137588957Y-135772956D01*
X137426644Y-135610643D01*
X137214572Y-135522800D01*
X136985028Y-135522800D01*
X136772956Y-135610643D01*
X136610643Y-135772956D01*
X136522800Y-135985028D01*
X133276800Y-135985028D01*
X133276800Y-135785028D01*
X133188957Y-135572956D01*
X133026644Y-135410643D01*
X132814572Y-135322800D01*
X132585028Y-135322800D01*
X132372956Y-135410643D01*
X132210643Y-135572956D01*
X132122800Y-135785028D01*
X121826800Y-135785028D01*
X121826800Y-132885028D01*
X135422800Y-132885028D01*
X135422800Y-133114572D01*
X135510643Y-133326644D01*
X135672956Y-133488957D01*
X135885028Y-133576800D01*
X136114572Y-133576800D01*
X136326644Y-133488957D01*
X136488957Y-133326644D01*
X136576800Y-133114572D01*
X136576800Y-132885028D01*
X136488957Y-132672956D01*
X136326644Y-132510643D01*
X136114572Y-132422800D01*
X135885028Y-132422800D01*
X135672956Y-132510643D01*
X135510643Y-132672956D01*
X135422800Y-132885028D01*
X121826800Y-132885028D01*
X121826800Y-131685028D01*
X128922800Y-131685028D01*
X128922800Y-131914572D01*
X129010643Y-132126644D01*
X129172956Y-132288957D01*
X129385028Y-132376800D01*
X129614572Y-132376800D01*
X129822800Y-132290549D01*
X129822800Y-132414572D01*
X129910643Y-132626644D01*
X130072956Y-132788957D01*
X130285028Y-132876800D01*
X130514572Y-132876800D01*
X130726644Y-132788957D01*
X130888957Y-132626644D01*
X130976800Y-132414572D01*
X130976800Y-132185028D01*
X130888957Y-131972956D01*
X130726644Y-131810643D01*
X130514572Y-131722800D01*
X130285028Y-131722800D01*
X130076800Y-131809051D01*
X130076800Y-131685028D01*
X129988957Y-131472956D01*
X129826644Y-131310643D01*
X129614572Y-131222800D01*
X129385028Y-131222800D01*
X129172956Y-131310643D01*
X129010643Y-131472956D01*
X128922800Y-131685028D01*
X121826800Y-131685028D01*
X121826800Y-127625417D01*
X127322800Y-127602129D01*
X127322800Y-127614572D01*
X127399467Y-127799662D01*
X127372956Y-127810643D01*
X127210643Y-127972956D01*
X127122800Y-128185028D01*
X127122800Y-128414572D01*
X127210643Y-128626644D01*
X127372956Y-128788957D01*
X127585028Y-128876800D01*
X127814572Y-128876800D01*
X128026644Y-128788957D01*
X128188957Y-128626644D01*
X128276800Y-128414572D01*
X128276800Y-128185028D01*
X128200133Y-127999938D01*
X128226644Y-127988957D01*
X128388957Y-127826644D01*
X128476800Y-127614572D01*
X128476800Y-127597239D01*
X143867007Y-127532027D01*
X144217004Y-127677000D01*
X144983612Y-127677000D01*
X145691866Y-127383632D01*
X146233940Y-126841558D01*
X146527308Y-126133304D01*
X146527308Y-125366696D01*
X146233940Y-124658442D01*
X145691866Y-124116368D01*
X145426800Y-124006574D01*
X145426800Y-119879800D01*
X147099742Y-119879800D01*
X147191091Y-120339042D01*
X147451231Y-120728369D01*
X147840558Y-120988509D01*
X148183880Y-121056800D01*
X148415720Y-121056800D01*
X148759042Y-120988509D01*
X149148369Y-120728369D01*
X149408509Y-120339042D01*
X149499858Y-119879800D01*
X149408509Y-119420558D01*
X149148369Y-119031231D01*
X148759042Y-118771091D01*
X148415720Y-118702800D01*
X148183880Y-118702800D01*
X147840558Y-118771091D01*
X147451231Y-119031231D01*
X147191091Y-119420558D01*
X147099742Y-119879800D01*
X145426800Y-119879800D01*
X145426800Y-117339800D01*
X147099742Y-117339800D01*
X147191091Y-117799042D01*
X147451231Y-118188369D01*
X147840558Y-118448509D01*
X148183880Y-118516800D01*
X148415720Y-118516800D01*
X148759042Y-118448509D01*
X149148369Y-118188369D01*
X149408509Y-117799042D01*
X149499858Y-117339800D01*
X149408509Y-116880558D01*
X149148369Y-116491231D01*
X148759042Y-116231091D01*
X148415720Y-116162800D01*
X148183880Y-116162800D01*
X147840558Y-116231091D01*
X147451231Y-116491231D01*
X147191091Y-116880558D01*
X147099742Y-117339800D01*
X145426800Y-117339800D01*
X145426800Y-113949800D01*
X147116394Y-113949800D01*
X147116394Y-115649800D01*
X147141773Y-115777389D01*
X147214046Y-115885554D01*
X147322211Y-115957827D01*
X147449800Y-115983206D01*
X149149800Y-115983206D01*
X149277389Y-115957827D01*
X149385554Y-115885554D01*
X149457827Y-115777389D01*
X149483206Y-115649800D01*
X149483206Y-113949800D01*
X149457827Y-113822211D01*
X149385554Y-113714046D01*
X149277389Y-113641773D01*
X149149800Y-113616394D01*
X147449800Y-113616394D01*
X147322211Y-113641773D01*
X147214046Y-113714046D01*
X147141773Y-113822211D01*
X147116394Y-113949800D01*
X145426800Y-113949800D01*
X145426800Y-113126800D01*
X153466788Y-113126800D01*
X153196233Y-114253741D01*
X152377336Y-117018293D01*
X151414875Y-119736198D01*
X150311489Y-122400007D01*
X149070202Y-125002419D01*
X147694417Y-127536300D01*
X146187904Y-129994706D01*
X144554793Y-132370897D01*
X142799560Y-134658362D01*
X140927015Y-136850830D01*
X138942292Y-138942292D01*
X136850830Y-140927015D01*
X134658362Y-142799560D01*
X132370897Y-144554793D01*
X129994706Y-146187904D01*
X127536300Y-147694417D01*
X125002419Y-149070202D01*
X122400007Y-150311489D01*
X119736198Y-151414875D01*
X117018293Y-152377336D01*
X114253741Y-153196233D01*
X111450121Y-153869323D01*
X108615115Y-154394760D01*
X105756496Y-154771104D01*
X102882098Y-154997324D01*
X99999800Y-155072800D01*
X97117502Y-154997324D01*
X94243104Y-154771104D01*
X91384485Y-154394760D01*
X88549479Y-153869323D01*
X85745859Y-153196233D01*
X82981307Y-152377336D01*
X80263402Y-151414875D01*
X77599593Y-150311489D01*
X77124812Y-150085030D01*
X113622800Y-150085030D01*
X113622800Y-150314574D01*
X113710643Y-150526646D01*
X113872956Y-150688959D01*
X114085028Y-150776802D01*
X114314572Y-150776802D01*
X114526644Y-150688959D01*
X114688957Y-150526646D01*
X114776800Y-150314574D01*
X114776800Y-150085030D01*
X114688957Y-149872958D01*
X114526644Y-149710645D01*
X114314572Y-149622802D01*
X114085028Y-149622802D01*
X113872956Y-149710645D01*
X113710643Y-149872958D01*
X113622800Y-150085030D01*
X77124812Y-150085030D01*
X76076490Y-149585006D01*
X116822800Y-149585006D01*
X116822800Y-149814550D01*
X116910643Y-150026622D01*
X117072956Y-150188935D01*
X117285028Y-150276778D01*
X117514572Y-150276778D01*
X117726644Y-150188935D01*
X117888957Y-150026622D01*
X117976800Y-149814550D01*
X117976800Y-149585006D01*
X117888957Y-149372934D01*
X117726644Y-149210621D01*
X117514572Y-149122778D01*
X117285028Y-149122778D01*
X117072956Y-149210621D01*
X116910643Y-149372934D01*
X116822800Y-149585006D01*
X76076490Y-149585006D01*
X74997181Y-149070202D01*
X72463300Y-147694417D01*
X72301112Y-147595028D01*
X89442800Y-147595028D01*
X89442800Y-147824572D01*
X89530643Y-148036644D01*
X89692956Y-148198957D01*
X89905028Y-148286800D01*
X90134572Y-148286800D01*
X90346644Y-148198957D01*
X90508957Y-148036644D01*
X90585603Y-147851604D01*
X90702956Y-147968957D01*
X90915028Y-148056800D01*
X91144572Y-148056800D01*
X91356644Y-147968957D01*
X91518957Y-147806644D01*
X91528238Y-147784239D01*
X91662956Y-147918957D01*
X91875028Y-148006800D01*
X92104572Y-148006800D01*
X92316644Y-147918957D01*
X92352800Y-147882801D01*
X92352800Y-147904572D01*
X92440643Y-148116644D01*
X92602956Y-148278957D01*
X92815028Y-148366800D01*
X93044572Y-148366800D01*
X93256644Y-148278957D01*
X93418957Y-148116644D01*
X93506800Y-147904572D01*
X93506800Y-147675028D01*
X93418957Y-147462956D01*
X93256644Y-147300643D01*
X93044572Y-147212800D01*
X92815028Y-147212800D01*
X92602956Y-147300643D01*
X92566800Y-147336799D01*
X92566800Y-147315028D01*
X92478957Y-147102956D01*
X92316644Y-146940643D01*
X92104572Y-146852800D01*
X91875028Y-146852800D01*
X91662956Y-146940643D01*
X91500643Y-147102956D01*
X91491362Y-147125361D01*
X91356644Y-146990643D01*
X91144572Y-146902800D01*
X90915028Y-146902800D01*
X90702956Y-146990643D01*
X90540643Y-147152956D01*
X90463997Y-147337996D01*
X90346644Y-147220643D01*
X90134572Y-147132800D01*
X89905028Y-147132800D01*
X89692956Y-147220643D01*
X89530643Y-147382956D01*
X89442800Y-147595028D01*
X72301112Y-147595028D01*
X70004894Y-146187904D01*
X68982204Y-145485028D01*
X85022800Y-145485028D01*
X85022800Y-145714572D01*
X85110643Y-145926644D01*
X85272956Y-146088957D01*
X85485028Y-146176800D01*
X85714572Y-146176800D01*
X85926644Y-146088957D01*
X86088957Y-145926644D01*
X86176800Y-145714572D01*
X86176800Y-145485028D01*
X86088957Y-145272956D01*
X85926644Y-145110643D01*
X85714572Y-145022800D01*
X85485028Y-145022800D01*
X85272956Y-145110643D01*
X85110643Y-145272956D01*
X85022800Y-145485028D01*
X68982204Y-145485028D01*
X67628703Y-144554793D01*
X67016494Y-144085028D01*
X79832800Y-144085028D01*
X79832800Y-144314572D01*
X79920643Y-144526644D01*
X80082956Y-144688957D01*
X80295028Y-144776800D01*
X80524572Y-144776800D01*
X80552992Y-144765028D01*
X81282800Y-144765028D01*
X81282800Y-144994572D01*
X81370643Y-145206644D01*
X81532956Y-145368957D01*
X81745028Y-145456800D01*
X81974572Y-145456800D01*
X82186644Y-145368957D01*
X82348957Y-145206644D01*
X82436800Y-144994572D01*
X82436800Y-144765028D01*
X82348957Y-144552956D01*
X82186644Y-144390643D01*
X82173089Y-144385028D01*
X82842800Y-144385028D01*
X82842800Y-144614572D01*
X82930643Y-144826644D01*
X83092956Y-144988957D01*
X83305028Y-145076800D01*
X83534572Y-145076800D01*
X83746644Y-144988957D01*
X83908957Y-144826644D01*
X83996800Y-144614572D01*
X83996800Y-144575028D01*
X99022800Y-144575028D01*
X99022800Y-144804572D01*
X99110643Y-145016644D01*
X99272956Y-145178957D01*
X99485028Y-145266800D01*
X99714572Y-145266800D01*
X99926644Y-145178957D01*
X100088957Y-145016644D01*
X100176800Y-144804572D01*
X100176800Y-144575028D01*
X100088957Y-144362956D01*
X99926644Y-144200643D01*
X99828591Y-144160028D01*
X111897800Y-144160028D01*
X111897800Y-144389572D01*
X111985643Y-144601644D01*
X112147956Y-144763957D01*
X112360028Y-144851800D01*
X112589572Y-144851800D01*
X112801644Y-144763957D01*
X112963957Y-144601644D01*
X113051800Y-144389572D01*
X113051800Y-144160028D01*
X112963957Y-143947956D01*
X112801644Y-143785643D01*
X112589572Y-143697800D01*
X112360028Y-143697800D01*
X112147956Y-143785643D01*
X111985643Y-143947956D01*
X111897800Y-144160028D01*
X99828591Y-144160028D01*
X99714572Y-144112800D01*
X99485028Y-144112800D01*
X99272956Y-144200643D01*
X99110643Y-144362956D01*
X99022800Y-144575028D01*
X83996800Y-144575028D01*
X83996800Y-144385028D01*
X83908957Y-144172956D01*
X83746644Y-144010643D01*
X83534572Y-143922800D01*
X83305028Y-143922800D01*
X83092956Y-144010643D01*
X82930643Y-144172956D01*
X82842800Y-144385028D01*
X82173089Y-144385028D01*
X81974572Y-144302800D01*
X81745028Y-144302800D01*
X81532956Y-144390643D01*
X81370643Y-144552956D01*
X81282800Y-144765028D01*
X80552992Y-144765028D01*
X80736644Y-144688957D01*
X80898957Y-144526644D01*
X80986800Y-144314572D01*
X80986800Y-144085028D01*
X80898957Y-143872956D01*
X80736644Y-143710643D01*
X80524572Y-143622800D01*
X80295028Y-143622800D01*
X80082956Y-143710643D01*
X79920643Y-143872956D01*
X79832800Y-144085028D01*
X67016494Y-144085028D01*
X65387474Y-142835038D01*
X101822800Y-142835038D01*
X101822800Y-143064582D01*
X101910643Y-143276654D01*
X102072956Y-143438967D01*
X102285028Y-143526810D01*
X102514572Y-143526810D01*
X102726644Y-143438967D01*
X102888957Y-143276654D01*
X102976800Y-143064582D01*
X102976800Y-142835038D01*
X102888957Y-142622966D01*
X102726644Y-142460653D01*
X102514572Y-142372810D01*
X102285028Y-142372810D01*
X102072956Y-142460653D01*
X101910643Y-142622966D01*
X101822800Y-142835038D01*
X65387474Y-142835038D01*
X65341238Y-142799560D01*
X64738799Y-142285028D01*
X111222800Y-142285028D01*
X111222800Y-142514572D01*
X111310643Y-142726644D01*
X111472956Y-142888957D01*
X111685028Y-142976800D01*
X111914572Y-142976800D01*
X112126644Y-142888957D01*
X112288957Y-142726644D01*
X112376800Y-142514572D01*
X112376800Y-142285028D01*
X112288957Y-142072956D01*
X112126644Y-141910643D01*
X111914572Y-141822800D01*
X111685028Y-141822800D01*
X111472956Y-141910643D01*
X111310643Y-142072956D01*
X111222800Y-142285028D01*
X64738799Y-142285028D01*
X63148770Y-140927015D01*
X61808376Y-139655028D01*
X71472802Y-139655028D01*
X71472802Y-139884572D01*
X71560645Y-140096644D01*
X71722958Y-140258957D01*
X71935030Y-140346800D01*
X72164574Y-140346800D01*
X72376646Y-140258957D01*
X72538959Y-140096644D01*
X72626802Y-139884572D01*
X72626802Y-139835028D01*
X72932800Y-139835028D01*
X72932800Y-140064572D01*
X73020643Y-140276644D01*
X73182956Y-140438957D01*
X73395028Y-140526800D01*
X73624572Y-140526800D01*
X73836644Y-140438957D01*
X73998957Y-140276644D01*
X74086800Y-140064572D01*
X74086800Y-139835028D01*
X73998957Y-139622956D01*
X73836644Y-139460643D01*
X73624572Y-139372800D01*
X73395028Y-139372800D01*
X73182956Y-139460643D01*
X73020643Y-139622956D01*
X72932800Y-139835028D01*
X72626802Y-139835028D01*
X72626802Y-139655028D01*
X72538959Y-139442956D01*
X72376646Y-139280643D01*
X72164574Y-139192800D01*
X71935030Y-139192800D01*
X71722958Y-139280643D01*
X71560645Y-139442956D01*
X71472802Y-139655028D01*
X61808376Y-139655028D01*
X61057308Y-138942292D01*
X59072585Y-136850830D01*
X58917466Y-136669208D01*
X62583564Y-136669208D01*
X62583564Y-137167284D01*
X62774170Y-137627447D01*
X63126363Y-137979640D01*
X63586526Y-138170246D01*
X64084602Y-138170246D01*
X64531757Y-137985028D01*
X70052800Y-137985028D01*
X70052800Y-138214572D01*
X70140643Y-138426644D01*
X70302956Y-138588957D01*
X70515028Y-138676800D01*
X70699345Y-138676800D01*
X70662800Y-138765028D01*
X70662800Y-138994572D01*
X70750643Y-139206644D01*
X70912956Y-139368957D01*
X71125028Y-139456800D01*
X71354572Y-139456800D01*
X71566644Y-139368957D01*
X71728957Y-139206644D01*
X71816800Y-138994572D01*
X71816800Y-138765028D01*
X71728957Y-138552956D01*
X71566644Y-138390643D01*
X71354572Y-138302800D01*
X71170255Y-138302800D01*
X71206800Y-138214572D01*
X71206800Y-137985028D01*
X71118957Y-137772956D01*
X70956644Y-137610643D01*
X70744572Y-137522800D01*
X70515028Y-137522800D01*
X70302956Y-137610643D01*
X70140643Y-137772956D01*
X70052800Y-137985028D01*
X64531757Y-137985028D01*
X64544765Y-137979640D01*
X64896958Y-137627447D01*
X65045100Y-137269800D01*
X93666394Y-137269800D01*
X93666394Y-141769800D01*
X93691773Y-141897389D01*
X93764046Y-142005554D01*
X93872211Y-142077827D01*
X93999800Y-142103206D01*
X96949800Y-142103206D01*
X97077389Y-142077827D01*
X97185554Y-142005554D01*
X97257827Y-141897389D01*
X97283206Y-141769800D01*
X97283206Y-141285018D01*
X99422800Y-141285018D01*
X99422800Y-141514562D01*
X99510643Y-141726634D01*
X99672956Y-141888947D01*
X99885028Y-141976790D01*
X100114572Y-141976790D01*
X100326644Y-141888947D01*
X100488957Y-141726634D01*
X100576800Y-141514562D01*
X100576800Y-141285018D01*
X100488957Y-141072946D01*
X100326644Y-140910633D01*
X100114572Y-140822790D01*
X99885028Y-140822790D01*
X99672956Y-140910633D01*
X99510643Y-141072946D01*
X99422800Y-141285018D01*
X97283206Y-141285018D01*
X97283206Y-137269800D01*
X97257827Y-137142211D01*
X97185554Y-137034046D01*
X97077389Y-136961773D01*
X96949800Y-136936394D01*
X93999800Y-136936394D01*
X93872211Y-136961773D01*
X93764046Y-137034046D01*
X93691773Y-137142211D01*
X93666394Y-137269800D01*
X65045100Y-137269800D01*
X65087564Y-137167284D01*
X65087564Y-136669208D01*
X64896958Y-136209045D01*
X64544765Y-135856852D01*
X64084602Y-135666246D01*
X63586526Y-135666246D01*
X63126363Y-135856852D01*
X62774170Y-136209045D01*
X62583564Y-136669208D01*
X58917466Y-136669208D01*
X57200040Y-134658362D01*
X56153156Y-133294035D01*
X59663060Y-133294035D01*
X59663060Y-133591211D01*
X59776784Y-133865765D01*
X59986918Y-134075899D01*
X60261472Y-134189623D01*
X60558648Y-134189623D01*
X60562854Y-134187881D01*
X60532930Y-134260124D01*
X60532930Y-134557300D01*
X60646654Y-134831854D01*
X60856788Y-135041988D01*
X61131342Y-135155712D01*
X61288922Y-135155712D01*
X61255717Y-135200179D01*
X61223695Y-135326265D01*
X61242362Y-135455007D01*
X61308875Y-135566806D01*
X61870945Y-136191048D01*
X61975179Y-136268883D01*
X62101265Y-136300905D01*
X62230007Y-136282238D01*
X62341806Y-136215725D01*
X62966048Y-135653655D01*
X63043883Y-135549421D01*
X63075905Y-135423335D01*
X63070351Y-135385028D01*
X99922800Y-135385028D01*
X99922800Y-135614572D01*
X100010643Y-135826644D01*
X100172956Y-135988957D01*
X100199133Y-135999800D01*
X100172956Y-136010643D01*
X100010643Y-136172956D01*
X99922800Y-136385028D01*
X99922800Y-136614572D01*
X100010643Y-136826644D01*
X100172956Y-136988957D01*
X100385028Y-137076800D01*
X100614572Y-137076800D01*
X100826644Y-136988957D01*
X100988957Y-136826644D01*
X101076800Y-136614572D01*
X101076800Y-136385028D01*
X100988957Y-136172956D01*
X100826644Y-136010643D01*
X100800467Y-135999800D01*
X100826644Y-135988957D01*
X100988957Y-135826644D01*
X101076800Y-135614572D01*
X101076800Y-135385028D01*
X100988957Y-135172956D01*
X100826644Y-135010643D01*
X100614572Y-134922800D01*
X100385028Y-134922800D01*
X100172956Y-135010643D01*
X100010643Y-135172956D01*
X99922800Y-135385028D01*
X63070351Y-135385028D01*
X63057238Y-135294593D01*
X62990725Y-135182794D01*
X62746579Y-134911643D01*
X62881152Y-134855901D01*
X63091286Y-134645767D01*
X63205010Y-134371213D01*
X63205010Y-134074037D01*
X63126720Y-133885028D01*
X68222800Y-133885028D01*
X68222800Y-134114572D01*
X68310643Y-134326644D01*
X68472956Y-134488957D01*
X68685028Y-134576800D01*
X68914572Y-134576800D01*
X69126644Y-134488957D01*
X69288957Y-134326644D01*
X69368326Y-134135028D01*
X99922800Y-134135028D01*
X99922800Y-134364572D01*
X100010643Y-134576644D01*
X100172956Y-134738957D01*
X100385028Y-134826800D01*
X100614572Y-134826800D01*
X100826644Y-134738957D01*
X100988957Y-134576644D01*
X101076800Y-134364572D01*
X101076800Y-134135028D01*
X100988957Y-133922956D01*
X100826644Y-133760643D01*
X100614572Y-133672800D01*
X100385028Y-133672800D01*
X100172956Y-133760643D01*
X100010643Y-133922956D01*
X99922800Y-134135028D01*
X69368326Y-134135028D01*
X69376800Y-134114572D01*
X69376800Y-133885028D01*
X69288957Y-133672956D01*
X69126644Y-133510643D01*
X68914572Y-133422800D01*
X68685028Y-133422800D01*
X68472956Y-133510643D01*
X68310643Y-133672956D01*
X68222800Y-133885028D01*
X63126720Y-133885028D01*
X63091286Y-133799483D01*
X62881152Y-133589349D01*
X62606598Y-133475625D01*
X62309422Y-133475625D01*
X62305216Y-133477367D01*
X62335140Y-133405125D01*
X62335140Y-133107949D01*
X62221416Y-132833395D01*
X62011282Y-132623261D01*
X61736728Y-132509537D01*
X61439552Y-132509537D01*
X61164998Y-132623261D01*
X60954864Y-132833395D01*
X60926274Y-132902419D01*
X60833202Y-132809347D01*
X60558648Y-132695623D01*
X60261472Y-132695623D01*
X59986918Y-132809347D01*
X59776784Y-133019481D01*
X59663060Y-133294035D01*
X56153156Y-133294035D01*
X55444807Y-132370897D01*
X54747097Y-131355722D01*
X57799280Y-131355722D01*
X57799280Y-131853798D01*
X57989886Y-132313961D01*
X58342079Y-132666154D01*
X58802242Y-132856760D01*
X59300318Y-132856760D01*
X59760481Y-132666154D01*
X60112674Y-132313961D01*
X60145369Y-132235028D01*
X70372800Y-132235028D01*
X70372800Y-132464572D01*
X70460643Y-132676644D01*
X70622956Y-132838957D01*
X70835028Y-132926800D01*
X71064572Y-132926800D01*
X71276644Y-132838957D01*
X71438957Y-132676644D01*
X71526800Y-132464572D01*
X71526800Y-132335028D01*
X72372800Y-132335028D01*
X72372800Y-132564572D01*
X72460643Y-132776644D01*
X72622956Y-132938957D01*
X72835028Y-133026800D01*
X73064572Y-133026800D01*
X73276644Y-132938957D01*
X73330573Y-132885028D01*
X99922800Y-132885028D01*
X99922800Y-133114572D01*
X100010643Y-133326644D01*
X100172956Y-133488957D01*
X100385028Y-133576800D01*
X100614572Y-133576800D01*
X100826644Y-133488957D01*
X100988957Y-133326644D01*
X101076800Y-133114572D01*
X101076800Y-132885028D01*
X100988957Y-132672956D01*
X100826644Y-132510643D01*
X100614572Y-132422800D01*
X100385028Y-132422800D01*
X100172956Y-132510643D01*
X100010643Y-132672956D01*
X99922800Y-132885028D01*
X73330573Y-132885028D01*
X73438957Y-132776644D01*
X73526800Y-132564572D01*
X73526800Y-132335028D01*
X73438957Y-132122956D01*
X73276644Y-131960643D01*
X73064572Y-131872800D01*
X72835028Y-131872800D01*
X72622956Y-131960643D01*
X72460643Y-132122956D01*
X72372800Y-132335028D01*
X71526800Y-132335028D01*
X71526800Y-132235028D01*
X71438957Y-132022956D01*
X71276644Y-131860643D01*
X71064572Y-131772800D01*
X70835028Y-131772800D01*
X70622956Y-131860643D01*
X70460643Y-132022956D01*
X70372800Y-132235028D01*
X60145369Y-132235028D01*
X60303280Y-131853798D01*
X60303280Y-131635028D01*
X99922800Y-131635028D01*
X99922800Y-131864572D01*
X100010643Y-132076644D01*
X100172956Y-132238957D01*
X100385028Y-132326800D01*
X100614572Y-132326800D01*
X100826644Y-132238957D01*
X100988957Y-132076644D01*
X101076800Y-131864572D01*
X101076800Y-131635028D01*
X100988957Y-131422956D01*
X100826644Y-131260643D01*
X100614572Y-131172800D01*
X100385028Y-131172800D01*
X100172956Y-131260643D01*
X100010643Y-131422956D01*
X99922800Y-131635028D01*
X60303280Y-131635028D01*
X60303280Y-131355722D01*
X60112674Y-130895559D01*
X60002143Y-130785028D01*
X64522800Y-130785028D01*
X64522800Y-131014572D01*
X64610643Y-131226644D01*
X64772956Y-131388957D01*
X64985028Y-131476800D01*
X65214572Y-131476800D01*
X65426644Y-131388957D01*
X65588957Y-131226644D01*
X65676800Y-131014572D01*
X65676800Y-130976800D01*
X65814572Y-130976800D01*
X66026644Y-130888957D01*
X66188957Y-130726644D01*
X66276800Y-130514572D01*
X66276800Y-130385028D01*
X99922800Y-130385028D01*
X99922800Y-130614572D01*
X100010643Y-130826644D01*
X100172956Y-130988957D01*
X100385028Y-131076800D01*
X100614572Y-131076800D01*
X100826644Y-130988957D01*
X100988957Y-130826644D01*
X101076800Y-130614572D01*
X101076800Y-130385028D01*
X100988957Y-130172956D01*
X100826644Y-130010643D01*
X100614572Y-129922800D01*
X100385028Y-129922800D01*
X100172956Y-130010643D01*
X100010643Y-130172956D01*
X99922800Y-130385028D01*
X66276800Y-130385028D01*
X66276800Y-130285028D01*
X66188957Y-130072956D01*
X66026644Y-129910643D01*
X65814572Y-129822800D01*
X65585028Y-129822800D01*
X65372956Y-129910643D01*
X65210643Y-130072956D01*
X65122800Y-130285028D01*
X65122800Y-130322800D01*
X64985028Y-130322800D01*
X64772956Y-130410643D01*
X64610643Y-130572956D01*
X64522800Y-130785028D01*
X60002143Y-130785028D01*
X59760481Y-130543366D01*
X59300318Y-130352760D01*
X58802242Y-130352760D01*
X58342079Y-130543366D01*
X57989886Y-130895559D01*
X57799280Y-131355722D01*
X54747097Y-131355722D01*
X53811696Y-129994706D01*
X52886565Y-128485028D01*
X67422800Y-128485028D01*
X67422800Y-128714572D01*
X67510643Y-128926644D01*
X67672956Y-129088957D01*
X67885028Y-129176800D01*
X68114572Y-129176800D01*
X68326644Y-129088957D01*
X68488957Y-128926644D01*
X68551024Y-128776800D01*
X68714572Y-128776800D01*
X68926644Y-128688957D01*
X68930573Y-128685028D01*
X95522800Y-128685028D01*
X95522800Y-128914572D01*
X95610643Y-129126644D01*
X95772956Y-129288957D01*
X95985028Y-129376800D01*
X96214572Y-129376800D01*
X96426644Y-129288957D01*
X96499800Y-129215801D01*
X96572956Y-129288957D01*
X96785028Y-129376800D01*
X97014572Y-129376800D01*
X97226644Y-129288957D01*
X97299800Y-129215801D01*
X97372956Y-129288957D01*
X97585028Y-129376800D01*
X97814572Y-129376800D01*
X98026644Y-129288957D01*
X98149800Y-129165801D01*
X98272956Y-129288957D01*
X98485028Y-129376800D01*
X98714572Y-129376800D01*
X98926644Y-129288957D01*
X99080573Y-129135028D01*
X99922800Y-129135028D01*
X99922800Y-129364572D01*
X100010643Y-129576644D01*
X100172956Y-129738957D01*
X100385028Y-129826800D01*
X100614572Y-129826800D01*
X100826644Y-129738957D01*
X100988957Y-129576644D01*
X101076800Y-129364572D01*
X101076800Y-129135028D01*
X100988957Y-128922956D01*
X100826644Y-128760643D01*
X100614572Y-128672800D01*
X100385028Y-128672800D01*
X100172956Y-128760643D01*
X100010643Y-128922956D01*
X99922800Y-129135028D01*
X99080573Y-129135028D01*
X99088957Y-129126644D01*
X99176800Y-128914572D01*
X99176800Y-128685028D01*
X99088957Y-128472956D01*
X98926644Y-128310643D01*
X98714572Y-128222800D01*
X98485028Y-128222800D01*
X98272956Y-128310643D01*
X98149800Y-128433799D01*
X98026644Y-128310643D01*
X97814572Y-128222800D01*
X97585028Y-128222800D01*
X97372956Y-128310643D01*
X97299800Y-128383799D01*
X97226644Y-128310643D01*
X97014572Y-128222800D01*
X96785028Y-128222800D01*
X96572956Y-128310643D01*
X96499800Y-128383799D01*
X96426644Y-128310643D01*
X96214572Y-128222800D01*
X95985028Y-128222800D01*
X95772956Y-128310643D01*
X95610643Y-128472956D01*
X95522800Y-128685028D01*
X68930573Y-128685028D01*
X69088957Y-128526644D01*
X69176800Y-128314572D01*
X69176800Y-128085028D01*
X69088957Y-127872956D01*
X68926644Y-127710643D01*
X68714572Y-127622800D01*
X68485028Y-127622800D01*
X68272956Y-127710643D01*
X68110643Y-127872956D01*
X68048576Y-128022800D01*
X67885028Y-128022800D01*
X67672956Y-128110643D01*
X67510643Y-128272956D01*
X67422800Y-128485028D01*
X52886565Y-128485028D01*
X52305183Y-127536300D01*
X51127185Y-125366696D01*
X53472692Y-125366696D01*
X53472692Y-126133304D01*
X53766060Y-126841558D01*
X54308134Y-127383632D01*
X55016388Y-127677000D01*
X55782996Y-127677000D01*
X56491250Y-127383632D01*
X57033324Y-126841558D01*
X57326692Y-126133304D01*
X57326692Y-126005028D01*
X62512800Y-126005028D01*
X62512800Y-126234572D01*
X62600643Y-126446644D01*
X62762956Y-126608957D01*
X62975028Y-126696800D01*
X63204572Y-126696800D01*
X63416644Y-126608957D01*
X63459800Y-126565801D01*
X63542956Y-126648957D01*
X63755028Y-126736800D01*
X63984572Y-126736800D01*
X64196644Y-126648957D01*
X64358957Y-126486644D01*
X64442563Y-126284800D01*
X75049742Y-126284800D01*
X75141091Y-126744042D01*
X75401231Y-127133369D01*
X75790558Y-127393509D01*
X76133880Y-127461800D01*
X76365720Y-127461800D01*
X76709042Y-127393509D01*
X77098369Y-127133369D01*
X77358509Y-126744042D01*
X77449858Y-126284800D01*
X77358509Y-125825558D01*
X77098369Y-125436231D01*
X76709042Y-125176091D01*
X76365720Y-125107800D01*
X76133880Y-125107800D01*
X75790558Y-125176091D01*
X75401231Y-125436231D01*
X75141091Y-125825558D01*
X75049742Y-126284800D01*
X64442563Y-126284800D01*
X64446800Y-126274572D01*
X64446800Y-126045028D01*
X64358957Y-125832956D01*
X64196644Y-125670643D01*
X63984572Y-125582800D01*
X63755028Y-125582800D01*
X63542956Y-125670643D01*
X63499800Y-125713799D01*
X63416644Y-125630643D01*
X63204572Y-125542800D01*
X62975028Y-125542800D01*
X62762956Y-125630643D01*
X62600643Y-125792956D01*
X62512800Y-126005028D01*
X57326692Y-126005028D01*
X57326692Y-125366696D01*
X57033324Y-124658442D01*
X56491250Y-124116368D01*
X55782996Y-123823000D01*
X55016388Y-123823000D01*
X54308134Y-124116368D01*
X53766060Y-124658442D01*
X53472692Y-125366696D01*
X51127185Y-125366696D01*
X50929398Y-125002419D01*
X50329545Y-123744800D01*
X75049742Y-123744800D01*
X75141091Y-124204042D01*
X75401231Y-124593369D01*
X75790558Y-124853509D01*
X76133880Y-124921800D01*
X76365720Y-124921800D01*
X76709042Y-124853509D01*
X77098369Y-124593369D01*
X77358509Y-124204042D01*
X77449858Y-123744800D01*
X77358509Y-123285558D01*
X77224520Y-123085028D01*
X79422796Y-123085028D01*
X79422796Y-123314572D01*
X79510639Y-123526644D01*
X79672952Y-123688957D01*
X79885024Y-123776800D01*
X80114568Y-123776800D01*
X80326640Y-123688957D01*
X80488953Y-123526644D01*
X80576796Y-123314572D01*
X80576796Y-123085028D01*
X80488953Y-122872956D01*
X80326640Y-122710643D01*
X80114568Y-122622800D01*
X79885024Y-122622800D01*
X79672952Y-122710643D01*
X79510639Y-122872956D01*
X79422796Y-123085028D01*
X77224520Y-123085028D01*
X77098369Y-122896231D01*
X76709042Y-122636091D01*
X76365720Y-122567800D01*
X76133880Y-122567800D01*
X75790558Y-122636091D01*
X75401231Y-122896231D01*
X75141091Y-123285558D01*
X75049742Y-123744800D01*
X50329545Y-123744800D01*
X49688111Y-122400007D01*
X49193040Y-121204800D01*
X75049742Y-121204800D01*
X75141091Y-121664042D01*
X75401231Y-122053369D01*
X75790558Y-122313509D01*
X76133880Y-122381800D01*
X76365720Y-122381800D01*
X76709042Y-122313509D01*
X77098369Y-122053369D01*
X77358509Y-121664042D01*
X77449858Y-121204800D01*
X77358509Y-120745558D01*
X77098369Y-120356231D01*
X76709042Y-120096091D01*
X76365720Y-120027800D01*
X76133880Y-120027800D01*
X75790558Y-120096091D01*
X75401231Y-120356231D01*
X75141091Y-120745558D01*
X75049742Y-121204800D01*
X49193040Y-121204800D01*
X48584725Y-119736198D01*
X48584311Y-119735028D01*
X63892800Y-119735028D01*
X63892800Y-119964572D01*
X63980643Y-120176644D01*
X64142956Y-120338957D01*
X64355028Y-120426800D01*
X64584572Y-120426800D01*
X64796644Y-120338957D01*
X64958957Y-120176644D01*
X65046800Y-119964572D01*
X65046800Y-119735028D01*
X64958957Y-119522956D01*
X64796644Y-119360643D01*
X64584572Y-119272800D01*
X64355028Y-119272800D01*
X64142956Y-119360643D01*
X63980643Y-119522956D01*
X63892800Y-119735028D01*
X48584311Y-119735028D01*
X48187522Y-118614528D01*
X72552300Y-118614528D01*
X72552300Y-118844072D01*
X72640143Y-119056144D01*
X72802456Y-119218457D01*
X73014528Y-119306300D01*
X73244072Y-119306300D01*
X73456144Y-119218457D01*
X73618457Y-119056144D01*
X73706300Y-118844072D01*
X73706300Y-118664800D01*
X75049742Y-118664800D01*
X75141091Y-119124042D01*
X75401231Y-119513369D01*
X75790558Y-119773509D01*
X76133880Y-119841800D01*
X76365720Y-119841800D01*
X76709042Y-119773509D01*
X77098369Y-119513369D01*
X77358509Y-119124042D01*
X77449858Y-118664800D01*
X77358509Y-118205558D01*
X77098369Y-117816231D01*
X76709042Y-117556091D01*
X76365720Y-117487800D01*
X76133880Y-117487800D01*
X75790558Y-117556091D01*
X75401231Y-117816231D01*
X75141091Y-118205558D01*
X75049742Y-118664800D01*
X73706300Y-118664800D01*
X73706300Y-118614528D01*
X73618457Y-118402456D01*
X73456144Y-118240143D01*
X73244072Y-118152300D01*
X73014528Y-118152300D01*
X72802456Y-118240143D01*
X72640143Y-118402456D01*
X72552300Y-118614528D01*
X48187522Y-118614528D01*
X47840662Y-117635028D01*
X58793300Y-117635028D01*
X58793300Y-117864572D01*
X58881143Y-118076644D01*
X59043456Y-118238957D01*
X59255528Y-118326800D01*
X59485072Y-118326800D01*
X59697144Y-118238957D01*
X59859457Y-118076644D01*
X59947300Y-117864572D01*
X59947300Y-117705026D01*
X61742800Y-117705026D01*
X61742800Y-117934570D01*
X61830643Y-118146642D01*
X61992956Y-118308955D01*
X62205028Y-118396798D01*
X62434572Y-118396798D01*
X62536398Y-118354620D01*
X62629988Y-118448210D01*
X62842060Y-118536053D01*
X63071604Y-118536053D01*
X63283676Y-118448210D01*
X63445989Y-118285897D01*
X63533832Y-118073825D01*
X63533832Y-117844281D01*
X63488578Y-117735028D01*
X63912800Y-117735028D01*
X63912800Y-117964572D01*
X64000643Y-118176644D01*
X64162956Y-118338957D01*
X64375028Y-118426800D01*
X64604572Y-118426800D01*
X64816644Y-118338957D01*
X64978957Y-118176644D01*
X65066800Y-117964572D01*
X65066800Y-117735028D01*
X64978957Y-117522956D01*
X64816644Y-117360643D01*
X64604572Y-117272800D01*
X64375028Y-117272800D01*
X64162956Y-117360643D01*
X64000643Y-117522956D01*
X63912800Y-117735028D01*
X63488578Y-117735028D01*
X63445989Y-117632209D01*
X63283676Y-117469896D01*
X63071604Y-117382053D01*
X62842060Y-117382053D01*
X62740234Y-117424231D01*
X62646644Y-117330641D01*
X62434572Y-117242798D01*
X62205028Y-117242798D01*
X61992956Y-117330641D01*
X61830643Y-117492954D01*
X61742800Y-117705026D01*
X59947300Y-117705026D01*
X59947300Y-117635028D01*
X59859457Y-117422956D01*
X59697144Y-117260643D01*
X59485072Y-117172800D01*
X59255528Y-117172800D01*
X59043456Y-117260643D01*
X58881143Y-117422956D01*
X58793300Y-117635028D01*
X47840662Y-117635028D01*
X47622264Y-117018293D01*
X47237695Y-115720007D01*
X65571370Y-115720007D01*
X65571370Y-115949551D01*
X65659213Y-116161623D01*
X65821526Y-116323936D01*
X66033598Y-116411779D01*
X66263142Y-116411779D01*
X66475214Y-116323936D01*
X66637527Y-116161623D01*
X66676337Y-116067928D01*
X66814759Y-116067928D01*
X67026831Y-115980085D01*
X67189144Y-115817772D01*
X67276987Y-115605700D01*
X67276987Y-115376156D01*
X67230591Y-115264145D01*
X77993683Y-115264145D01*
X77993683Y-115493689D01*
X78081526Y-115705761D01*
X78138364Y-115762599D01*
X78062800Y-115945028D01*
X78062800Y-116174572D01*
X78150643Y-116386644D01*
X78312956Y-116548957D01*
X78525028Y-116636800D01*
X78754572Y-116636800D01*
X78966644Y-116548957D01*
X79128957Y-116386644D01*
X79216800Y-116174572D01*
X79216800Y-115945028D01*
X79128957Y-115732956D01*
X79072119Y-115676118D01*
X79147683Y-115493689D01*
X79147683Y-115264145D01*
X79059840Y-115052073D01*
X78897527Y-114889760D01*
X78685455Y-114801917D01*
X78455911Y-114801917D01*
X78243839Y-114889760D01*
X78081526Y-115052073D01*
X77993683Y-115264145D01*
X67230591Y-115264145D01*
X67189144Y-115164084D01*
X67026831Y-115001771D01*
X66814759Y-114913928D01*
X66585215Y-114913928D01*
X66373143Y-115001771D01*
X66210830Y-115164084D01*
X66172020Y-115257779D01*
X66033598Y-115257779D01*
X65821526Y-115345622D01*
X65659213Y-115507935D01*
X65571370Y-115720007D01*
X47237695Y-115720007D01*
X47025909Y-115005028D01*
X47522800Y-115005028D01*
X47522800Y-115234572D01*
X47610643Y-115446644D01*
X47772956Y-115608957D01*
X47985028Y-115696800D01*
X48214572Y-115696800D01*
X48426644Y-115608957D01*
X48588957Y-115446644D01*
X48676800Y-115234572D01*
X48676800Y-115005028D01*
X48588957Y-114792956D01*
X48426644Y-114630643D01*
X48214572Y-114542800D01*
X47985028Y-114542800D01*
X47772956Y-114630643D01*
X47610643Y-114792956D01*
X47522800Y-115005028D01*
X47025909Y-115005028D01*
X46803367Y-114253741D01*
X46662030Y-113665028D01*
X49472800Y-113665028D01*
X49472800Y-113894572D01*
X49560643Y-114106644D01*
X49722956Y-114268957D01*
X49935028Y-114356800D01*
X50164572Y-114356800D01*
X50376644Y-114268957D01*
X50440573Y-114205028D01*
X56662800Y-114205028D01*
X56662800Y-114434572D01*
X56750643Y-114646644D01*
X56912956Y-114808957D01*
X57125028Y-114896800D01*
X57354572Y-114896800D01*
X57566644Y-114808957D01*
X57728957Y-114646644D01*
X57816800Y-114434572D01*
X57816800Y-114205028D01*
X57728957Y-113992956D01*
X57566644Y-113830643D01*
X57354572Y-113742800D01*
X57125028Y-113742800D01*
X56912956Y-113830643D01*
X56750643Y-113992956D01*
X56662800Y-114205028D01*
X50440573Y-114205028D01*
X50538957Y-114106644D01*
X50626800Y-113894572D01*
X50626800Y-113665032D01*
X58892804Y-113665032D01*
X58892804Y-113894576D01*
X58980647Y-114106648D01*
X59087596Y-114213597D01*
X59022800Y-114370028D01*
X59022800Y-114599572D01*
X59110643Y-114811644D01*
X59272956Y-114973957D01*
X59485028Y-115061800D01*
X59714572Y-115061800D01*
X59926644Y-114973957D01*
X60088957Y-114811644D01*
X60176800Y-114599572D01*
X60176800Y-114370028D01*
X65112800Y-114370028D01*
X65112800Y-114599572D01*
X65200643Y-114811644D01*
X65362956Y-114973957D01*
X65575028Y-115061800D01*
X65804572Y-115061800D01*
X66016644Y-114973957D01*
X66178957Y-114811644D01*
X66266800Y-114599572D01*
X66266800Y-114370028D01*
X66178957Y-114157956D01*
X66016644Y-113995643D01*
X65804572Y-113907800D01*
X65575028Y-113907800D01*
X65362956Y-113995643D01*
X65200643Y-114157956D01*
X65112800Y-114370028D01*
X60176800Y-114370028D01*
X60088957Y-114157956D01*
X59982008Y-114051007D01*
X60046804Y-113894576D01*
X60046804Y-113665032D01*
X59982601Y-113510030D01*
X67222800Y-113510030D01*
X67222800Y-113739574D01*
X67310643Y-113951646D01*
X67472956Y-114113959D01*
X67685028Y-114201802D01*
X67914572Y-114201802D01*
X68126644Y-114113959D01*
X68222800Y-114017803D01*
X68222800Y-114214574D01*
X68310643Y-114426646D01*
X68472956Y-114588959D01*
X68685028Y-114676802D01*
X68914572Y-114676802D01*
X69126644Y-114588959D01*
X69288957Y-114426646D01*
X69376800Y-114214574D01*
X69376800Y-113985030D01*
X69316730Y-113840007D01*
X76772800Y-113840007D01*
X76772800Y-114069551D01*
X76860643Y-114281623D01*
X77022956Y-114443936D01*
X77235028Y-114531779D01*
X77464572Y-114531779D01*
X77676644Y-114443936D01*
X77838957Y-114281623D01*
X77846655Y-114263038D01*
X77880314Y-114276980D01*
X78109858Y-114276980D01*
X78321930Y-114189137D01*
X78484243Y-114026824D01*
X78572086Y-113814752D01*
X78572086Y-113585208D01*
X78484243Y-113373136D01*
X78321930Y-113210823D01*
X78109858Y-113122980D01*
X77880314Y-113122980D01*
X77668242Y-113210823D01*
X77505929Y-113373136D01*
X77498231Y-113391721D01*
X77464572Y-113377779D01*
X77235028Y-113377779D01*
X77022956Y-113465622D01*
X76860643Y-113627935D01*
X76772800Y-113840007D01*
X69316730Y-113840007D01*
X69288957Y-113772958D01*
X69126644Y-113610645D01*
X68914572Y-113522802D01*
X68685028Y-113522802D01*
X68472956Y-113610645D01*
X68376800Y-113706801D01*
X68376800Y-113510030D01*
X68288957Y-113297958D01*
X68126644Y-113135645D01*
X67914572Y-113047802D01*
X67685028Y-113047802D01*
X67472956Y-113135645D01*
X67310643Y-113297958D01*
X67222800Y-113510030D01*
X59982601Y-113510030D01*
X59958961Y-113452960D01*
X59796648Y-113290647D01*
X59584576Y-113202804D01*
X59355032Y-113202804D01*
X59142960Y-113290647D01*
X58980647Y-113452960D01*
X58892804Y-113665032D01*
X50626800Y-113665032D01*
X50626800Y-113665028D01*
X50538957Y-113452956D01*
X50376644Y-113290643D01*
X50164572Y-113202800D01*
X49935028Y-113202800D01*
X49722956Y-113290643D01*
X49560643Y-113452956D01*
X49472800Y-113665028D01*
X46662030Y-113665028D01*
X46419551Y-112655028D01*
X55622800Y-112655028D01*
X55622800Y-112884572D01*
X55710643Y-113096644D01*
X55872956Y-113258957D01*
X56085028Y-113346800D01*
X56314572Y-113346800D01*
X56526644Y-113258957D01*
X56688957Y-113096644D01*
X56776800Y-112884572D01*
X56776800Y-112655028D01*
X56688957Y-112442956D01*
X56526644Y-112280643D01*
X56314572Y-112192800D01*
X56085028Y-112192800D01*
X55872956Y-112280643D01*
X55710643Y-112442956D01*
X55622800Y-112655028D01*
X46419551Y-112655028D01*
X46130277Y-111450121D01*
X46062612Y-111085028D01*
X55522800Y-111085028D01*
X55522800Y-111314572D01*
X55610643Y-111526644D01*
X55772956Y-111688957D01*
X55985028Y-111776800D01*
X56214572Y-111776800D01*
X56426644Y-111688957D01*
X56555563Y-111560038D01*
X61322800Y-111560038D01*
X61322800Y-111789582D01*
X61410643Y-112001654D01*
X61572956Y-112163967D01*
X61785028Y-112251810D01*
X62014572Y-112251810D01*
X62226644Y-112163967D01*
X62388957Y-112001654D01*
X62476800Y-111789582D01*
X62476800Y-111560038D01*
X62388957Y-111347966D01*
X62226644Y-111185653D01*
X62014572Y-111097810D01*
X61785028Y-111097810D01*
X61572956Y-111185653D01*
X61410643Y-111347966D01*
X61322800Y-111560038D01*
X56555563Y-111560038D01*
X56588957Y-111526644D01*
X56676800Y-111314572D01*
X56676800Y-111085028D01*
X56588957Y-110872956D01*
X56426644Y-110710643D01*
X56364804Y-110685028D01*
X58822796Y-110685028D01*
X58822796Y-110914572D01*
X58910639Y-111126644D01*
X59072952Y-111288957D01*
X59285024Y-111376800D01*
X59514568Y-111376800D01*
X59726640Y-111288957D01*
X59888953Y-111126644D01*
X59976796Y-110914572D01*
X59976796Y-110685028D01*
X59945731Y-110610028D01*
X67322800Y-110610028D01*
X67322800Y-110839572D01*
X67410643Y-111051644D01*
X67572956Y-111213957D01*
X67785028Y-111301800D01*
X68014572Y-111301800D01*
X68129336Y-111254263D01*
X68010643Y-111372956D01*
X67922800Y-111585028D01*
X67922800Y-111814572D01*
X68010643Y-112026644D01*
X68172956Y-112188957D01*
X68328859Y-112253534D01*
X68328859Y-112322146D01*
X68396984Y-112486613D01*
X68310643Y-112572954D01*
X68222800Y-112785026D01*
X68222800Y-113014570D01*
X68310643Y-113226642D01*
X68472956Y-113388955D01*
X68685028Y-113476798D01*
X68914572Y-113476798D01*
X69126644Y-113388955D01*
X69288957Y-113226642D01*
X69376800Y-113014570D01*
X69376800Y-112785026D01*
X69308675Y-112620559D01*
X69395016Y-112534218D01*
X69482859Y-112322146D01*
X69482859Y-112092602D01*
X69446179Y-112004047D01*
X70185709Y-112004047D01*
X70185709Y-112233591D01*
X70273552Y-112445663D01*
X70435865Y-112607976D01*
X70647937Y-112695819D01*
X70877481Y-112695819D01*
X71065824Y-112617805D01*
X70910673Y-112772956D01*
X70822830Y-112985028D01*
X70822830Y-113214572D01*
X70910673Y-113426644D01*
X71072986Y-113588957D01*
X71285058Y-113676800D01*
X71514602Y-113676800D01*
X71726674Y-113588957D01*
X71888987Y-113426644D01*
X71976830Y-113214572D01*
X71976830Y-112985028D01*
X71888987Y-112772956D01*
X71726674Y-112610643D01*
X71514602Y-112522800D01*
X71285058Y-112522800D01*
X71096715Y-112600814D01*
X71251866Y-112445663D01*
X71339709Y-112233591D01*
X71339709Y-112004047D01*
X71251866Y-111791975D01*
X71089553Y-111629662D01*
X70877481Y-111541819D01*
X70647937Y-111541819D01*
X70435865Y-111629662D01*
X70273552Y-111791975D01*
X70185709Y-112004047D01*
X69446179Y-112004047D01*
X69395016Y-111880530D01*
X69232703Y-111718217D01*
X69076800Y-111653640D01*
X69076800Y-111585028D01*
X68988957Y-111372956D01*
X68826644Y-111210643D01*
X68614572Y-111122800D01*
X68385028Y-111122800D01*
X68270264Y-111170337D01*
X68388957Y-111051644D01*
X68476800Y-110839572D01*
X68476800Y-110610028D01*
X68476650Y-110609665D01*
X68526644Y-110588957D01*
X68688957Y-110426644D01*
X68776800Y-110214572D01*
X68776800Y-110140306D01*
X68961072Y-110063978D01*
X69123385Y-109901665D01*
X69211228Y-109689593D01*
X69211228Y-109584124D01*
X70247790Y-109584124D01*
X70247790Y-109813668D01*
X70335633Y-110025740D01*
X70497946Y-110188053D01*
X70525215Y-110199348D01*
X70497946Y-110210643D01*
X70335633Y-110372956D01*
X70247790Y-110585028D01*
X70247790Y-110814572D01*
X70335633Y-111026644D01*
X70497946Y-111188957D01*
X70710018Y-111276800D01*
X70939562Y-111276800D01*
X71151634Y-111188957D01*
X71255563Y-111085028D01*
X73222800Y-111085028D01*
X73222800Y-111314572D01*
X73310643Y-111526644D01*
X73472956Y-111688957D01*
X73685028Y-111776800D01*
X73914572Y-111776800D01*
X74126644Y-111688957D01*
X74288957Y-111526644D01*
X74376800Y-111314572D01*
X74376800Y-111085028D01*
X74288957Y-110872956D01*
X74126644Y-110710643D01*
X73914572Y-110622800D01*
X73685028Y-110622800D01*
X73472956Y-110710643D01*
X73310643Y-110872956D01*
X73222800Y-111085028D01*
X71255563Y-111085028D01*
X71313947Y-111026644D01*
X71401790Y-110814572D01*
X71401790Y-110585028D01*
X71313947Y-110372956D01*
X71151634Y-110210643D01*
X71124365Y-110199348D01*
X71151634Y-110188053D01*
X71313947Y-110025740D01*
X71401790Y-109813668D01*
X71401790Y-109584124D01*
X71313947Y-109372052D01*
X71151634Y-109209739D01*
X70939562Y-109121896D01*
X70710018Y-109121896D01*
X70497946Y-109209739D01*
X70335633Y-109372052D01*
X70247790Y-109584124D01*
X69211228Y-109584124D01*
X69211228Y-109460049D01*
X69123385Y-109247977D01*
X68961072Y-109085664D01*
X68749000Y-108997821D01*
X68519456Y-108997821D01*
X68307384Y-109085664D01*
X68145071Y-109247977D01*
X68057228Y-109460049D01*
X68057228Y-109534315D01*
X67872956Y-109610643D01*
X67710643Y-109772956D01*
X67622800Y-109985028D01*
X67622800Y-110214572D01*
X67622950Y-110214935D01*
X67572956Y-110235643D01*
X67410643Y-110397956D01*
X67322800Y-110610028D01*
X59945731Y-110610028D01*
X59888953Y-110472956D01*
X59726640Y-110310643D01*
X59514568Y-110222800D01*
X59285024Y-110222800D01*
X59072952Y-110310643D01*
X58910639Y-110472956D01*
X58822796Y-110685028D01*
X56364804Y-110685028D01*
X56214572Y-110622800D01*
X55985028Y-110622800D01*
X55772956Y-110710643D01*
X55610643Y-110872956D01*
X55522800Y-111085028D01*
X46062612Y-111085028D01*
X45604840Y-108615115D01*
X45482392Y-107685028D01*
X50322800Y-107685028D01*
X50322800Y-107914572D01*
X50410643Y-108126644D01*
X50433799Y-108149800D01*
X50410643Y-108172956D01*
X50322800Y-108385028D01*
X50322800Y-108614572D01*
X50410643Y-108826644D01*
X50572956Y-108988957D01*
X50785028Y-109076800D01*
X51014572Y-109076800D01*
X51226644Y-108988957D01*
X51388957Y-108826644D01*
X51476800Y-108614572D01*
X51476800Y-108415028D01*
X55422790Y-108415028D01*
X55422790Y-108644572D01*
X55510633Y-108856644D01*
X55672946Y-109018957D01*
X55885018Y-109106800D01*
X56114562Y-109106800D01*
X56326634Y-109018957D01*
X56488947Y-108856644D01*
X56576790Y-108644572D01*
X56576790Y-108415028D01*
X56488947Y-108202956D01*
X56471019Y-108185028D01*
X56722789Y-108185028D01*
X56722789Y-108414572D01*
X56810632Y-108626644D01*
X56868834Y-108684846D01*
X56810633Y-108743047D01*
X56722790Y-108955119D01*
X56722790Y-109184663D01*
X56809872Y-109394897D01*
X56722790Y-109605132D01*
X56722790Y-109834676D01*
X56810633Y-110046748D01*
X56972946Y-110209061D01*
X57185018Y-110296904D01*
X57414562Y-110296904D01*
X57626634Y-110209061D01*
X57788947Y-110046748D01*
X57876790Y-109834676D01*
X57876790Y-109605132D01*
X57789708Y-109394897D01*
X57876790Y-109184663D01*
X57876790Y-108955119D01*
X57788947Y-108743047D01*
X57730745Y-108684845D01*
X57771566Y-108644024D01*
X58653563Y-108644024D01*
X58653563Y-108873568D01*
X58741406Y-109085640D01*
X58903719Y-109247953D01*
X59115791Y-109335796D01*
X59345335Y-109335796D01*
X59557407Y-109247953D01*
X59719720Y-109085640D01*
X59807563Y-108873568D01*
X59807563Y-108644024D01*
X59757740Y-108523741D01*
X59872956Y-108638957D01*
X60085028Y-108726800D01*
X60314572Y-108726800D01*
X60526644Y-108638957D01*
X60688957Y-108476644D01*
X60747621Y-108335015D01*
X63022800Y-108335015D01*
X63022800Y-108564559D01*
X63109882Y-108774794D01*
X63022800Y-108985028D01*
X63022800Y-109214572D01*
X63110643Y-109426644D01*
X63272956Y-109588957D01*
X63485028Y-109676800D01*
X63714572Y-109676800D01*
X63926644Y-109588957D01*
X64088957Y-109426644D01*
X64176800Y-109214572D01*
X64176800Y-108985028D01*
X64089718Y-108774794D01*
X64176800Y-108564559D01*
X64176800Y-108335015D01*
X64088957Y-108122943D01*
X63926644Y-107960630D01*
X63744125Y-107885028D01*
X67947779Y-107885028D01*
X67947779Y-108114572D01*
X68035622Y-108326644D01*
X68197935Y-108488957D01*
X68410007Y-108576800D01*
X68639551Y-108576800D01*
X68851623Y-108488957D01*
X69013936Y-108326644D01*
X69014776Y-108324616D01*
X73193212Y-108324616D01*
X73193212Y-108554160D01*
X73281055Y-108766232D01*
X73443368Y-108928545D01*
X73655440Y-109016388D01*
X73884984Y-109016388D01*
X74097056Y-108928545D01*
X74259369Y-108766232D01*
X74347212Y-108554160D01*
X74347212Y-108324616D01*
X74259369Y-108112544D01*
X74097056Y-107950231D01*
X73884984Y-107862388D01*
X73655440Y-107862388D01*
X73443368Y-107950231D01*
X73281055Y-108112544D01*
X73193212Y-108324616D01*
X69014776Y-108324616D01*
X69101779Y-108114572D01*
X69101779Y-107885028D01*
X69013936Y-107672956D01*
X68851623Y-107510643D01*
X68639551Y-107422800D01*
X68410007Y-107422800D01*
X68197935Y-107510643D01*
X68035622Y-107672956D01*
X67947779Y-107885028D01*
X63744125Y-107885028D01*
X63714572Y-107872787D01*
X63485028Y-107872787D01*
X63272956Y-107960630D01*
X63110643Y-108122943D01*
X63022800Y-108335015D01*
X60747621Y-108335015D01*
X60776800Y-108264572D01*
X60776800Y-108035028D01*
X60742382Y-107951936D01*
X60847943Y-107846375D01*
X60935786Y-107634303D01*
X60935786Y-107404759D01*
X60847943Y-107192687D01*
X60685630Y-107030374D01*
X60473558Y-106942531D01*
X60244014Y-106942531D01*
X60031942Y-107030374D01*
X59869629Y-107192687D01*
X59781786Y-107404759D01*
X59781786Y-107634303D01*
X59816204Y-107717395D01*
X59710643Y-107822956D01*
X59622800Y-108035028D01*
X59622800Y-108264572D01*
X59672623Y-108384855D01*
X59557407Y-108269639D01*
X59345335Y-108181796D01*
X59115791Y-108181796D01*
X58903719Y-108269639D01*
X58741406Y-108431952D01*
X58653563Y-108644024D01*
X57771566Y-108644024D01*
X57788946Y-108626644D01*
X57876789Y-108414572D01*
X57876789Y-108185028D01*
X57788946Y-107972956D01*
X57715796Y-107899806D01*
X57788957Y-107826644D01*
X57876800Y-107614572D01*
X57876800Y-107385028D01*
X57788957Y-107172956D01*
X57626644Y-107010643D01*
X57414572Y-106922800D01*
X57185028Y-106922800D01*
X56972956Y-107010643D01*
X56810643Y-107172956D01*
X56722800Y-107385028D01*
X56722800Y-107614572D01*
X56810643Y-107826644D01*
X56883794Y-107899795D01*
X56810632Y-107972956D01*
X56722789Y-108185028D01*
X56471019Y-108185028D01*
X56326634Y-108040643D01*
X56114562Y-107952800D01*
X55885018Y-107952800D01*
X55672946Y-108040643D01*
X55510633Y-108202956D01*
X55422790Y-108415028D01*
X51476800Y-108415028D01*
X51476800Y-108385028D01*
X51388957Y-108172956D01*
X51365801Y-108149800D01*
X51388957Y-108126644D01*
X51476800Y-107914572D01*
X51476800Y-107685028D01*
X51388957Y-107472956D01*
X51226644Y-107310643D01*
X51014572Y-107222800D01*
X50785028Y-107222800D01*
X50572956Y-107310643D01*
X50410643Y-107472956D01*
X50322800Y-107685028D01*
X45482392Y-107685028D01*
X45324409Y-106485024D01*
X60722810Y-106485024D01*
X60722810Y-106714568D01*
X60810653Y-106926640D01*
X60972966Y-107088953D01*
X61185038Y-107176796D01*
X61414582Y-107176796D01*
X61626654Y-107088953D01*
X61663087Y-107052520D01*
X61832805Y-107122819D01*
X62062349Y-107122819D01*
X62274421Y-107034976D01*
X62436734Y-106872663D01*
X62524577Y-106660591D01*
X62524577Y-106533559D01*
X65612800Y-106533559D01*
X65612800Y-106763103D01*
X65700643Y-106975175D01*
X65862956Y-107137488D01*
X66075028Y-107225331D01*
X66304572Y-107225331D01*
X66516644Y-107137488D01*
X66678957Y-106975175D01*
X66679272Y-106974416D01*
X66685028Y-106976800D01*
X66914572Y-106976800D01*
X67126644Y-106888957D01*
X67180573Y-106835028D01*
X73372800Y-106835028D01*
X73372800Y-107064572D01*
X73460643Y-107276644D01*
X73622956Y-107438957D01*
X73835028Y-107526800D01*
X74064572Y-107526800D01*
X74276644Y-107438957D01*
X74438957Y-107276644D01*
X74526800Y-107064572D01*
X74526800Y-106835028D01*
X74438957Y-106622956D01*
X74276644Y-106460643D01*
X74064572Y-106372800D01*
X73835028Y-106372800D01*
X73622956Y-106460643D01*
X73460643Y-106622956D01*
X73372800Y-106835028D01*
X67180573Y-106835028D01*
X67288957Y-106726644D01*
X67376800Y-106514572D01*
X67376800Y-106285028D01*
X67288957Y-106072956D01*
X67126644Y-105910643D01*
X66914572Y-105822800D01*
X66685028Y-105822800D01*
X66472956Y-105910643D01*
X66310643Y-106072956D01*
X66310328Y-106073715D01*
X66304572Y-106071331D01*
X66075028Y-106071331D01*
X65862956Y-106159174D01*
X65700643Y-106321487D01*
X65612800Y-106533559D01*
X62524577Y-106533559D01*
X62524577Y-106431047D01*
X62436734Y-106218975D01*
X62274421Y-106056662D01*
X62062349Y-105968819D01*
X61832805Y-105968819D01*
X61620733Y-106056662D01*
X61584300Y-106093095D01*
X61414582Y-106022796D01*
X61185038Y-106022796D01*
X60972966Y-106110639D01*
X60810653Y-106272952D01*
X60722810Y-106485024D01*
X45324409Y-106485024D01*
X45228496Y-105756496D01*
X45199262Y-105385028D01*
X67747779Y-105385028D01*
X67747779Y-105614572D01*
X67835622Y-105826644D01*
X67997935Y-105988957D01*
X68210007Y-106076800D01*
X68439551Y-106076800D01*
X68651623Y-105988957D01*
X68813936Y-105826644D01*
X68901779Y-105614572D01*
X68901779Y-105385028D01*
X68813936Y-105172956D01*
X68651623Y-105010643D01*
X68439551Y-104922800D01*
X68210007Y-104922800D01*
X67997935Y-105010643D01*
X67835622Y-105172956D01*
X67747779Y-105385028D01*
X45199262Y-105385028D01*
X45112690Y-104285028D01*
X62222800Y-104285028D01*
X62222800Y-104514572D01*
X62310643Y-104726644D01*
X62472956Y-104888957D01*
X62685028Y-104976800D01*
X62914572Y-104976800D01*
X63126644Y-104888957D01*
X63130573Y-104885028D01*
X73912800Y-104885028D01*
X73912800Y-105114572D01*
X74000643Y-105326644D01*
X74162956Y-105488957D01*
X74375028Y-105576800D01*
X74604572Y-105576800D01*
X74816644Y-105488957D01*
X74978957Y-105326644D01*
X75066800Y-105114572D01*
X75066800Y-104885028D01*
X74978957Y-104672956D01*
X74816644Y-104510643D01*
X74604572Y-104422800D01*
X74375028Y-104422800D01*
X74162956Y-104510643D01*
X74000643Y-104672956D01*
X73912800Y-104885028D01*
X63130573Y-104885028D01*
X63288957Y-104726644D01*
X63376800Y-104514572D01*
X63376800Y-104285028D01*
X63288957Y-104072956D01*
X63184415Y-103968414D01*
X64822810Y-103968414D01*
X64822810Y-104197958D01*
X64910653Y-104410030D01*
X65072966Y-104572343D01*
X65285038Y-104660186D01*
X65514582Y-104660186D01*
X65726654Y-104572343D01*
X65888967Y-104410030D01*
X65976810Y-104197958D01*
X65976810Y-103968414D01*
X65888967Y-103756342D01*
X65726654Y-103594029D01*
X65514582Y-103506186D01*
X65285038Y-103506186D01*
X65072966Y-103594029D01*
X64910653Y-103756342D01*
X64822810Y-103968414D01*
X63184415Y-103968414D01*
X63126644Y-103910643D01*
X62914572Y-103822800D01*
X62685028Y-103822800D01*
X62472956Y-103910643D01*
X62310643Y-104072956D01*
X62222800Y-104285028D01*
X45112690Y-104285028D01*
X45002507Y-102885028D01*
X58822800Y-102885028D01*
X58822800Y-103114572D01*
X58910643Y-103326644D01*
X59072956Y-103488957D01*
X59285028Y-103576800D01*
X59514572Y-103576800D01*
X59726644Y-103488957D01*
X59888957Y-103326644D01*
X59976800Y-103114572D01*
X59976800Y-102885028D01*
X59966497Y-102860152D01*
X65922780Y-102860152D01*
X65922780Y-103089696D01*
X66010623Y-103301768D01*
X66172936Y-103464081D01*
X66385008Y-103551924D01*
X66614552Y-103551924D01*
X66826624Y-103464081D01*
X66988937Y-103301768D01*
X67076780Y-103089696D01*
X67076780Y-102860152D01*
X66988937Y-102648080D01*
X66826624Y-102485767D01*
X66614552Y-102397924D01*
X66385008Y-102397924D01*
X66172936Y-102485767D01*
X66010623Y-102648080D01*
X65922780Y-102860152D01*
X59966497Y-102860152D01*
X59888957Y-102672956D01*
X59726644Y-102510643D01*
X59514572Y-102422800D01*
X59285028Y-102422800D01*
X59072956Y-102510643D01*
X58910643Y-102672956D01*
X58822800Y-102885028D01*
X45002507Y-102885028D01*
X45002276Y-102882098D01*
X44965693Y-101485034D01*
X48222800Y-101485034D01*
X48222800Y-101714578D01*
X48310643Y-101926650D01*
X48472956Y-102088963D01*
X48685028Y-102176806D01*
X48914572Y-102176806D01*
X49126644Y-102088963D01*
X49288957Y-101926650D01*
X49376800Y-101714578D01*
X49376800Y-101485034D01*
X49288957Y-101272962D01*
X49126644Y-101110649D01*
X48914572Y-101022806D01*
X48685028Y-101022806D01*
X48472956Y-101110649D01*
X48310643Y-101272962D01*
X48222800Y-101485034D01*
X44965693Y-101485034D01*
X44926800Y-99999800D01*
X44942898Y-99385028D01*
X54322796Y-99385028D01*
X54322796Y-99614572D01*
X54410639Y-99826644D01*
X54572952Y-99988957D01*
X54785024Y-100076800D01*
X55014568Y-100076800D01*
X55226640Y-99988957D01*
X55388953Y-99826644D01*
X55476796Y-99614572D01*
X55476796Y-99385028D01*
X55435375Y-99285028D01*
X69692800Y-99285028D01*
X69692800Y-99514572D01*
X69780643Y-99726644D01*
X69942956Y-99888957D01*
X70155028Y-99976800D01*
X70384572Y-99976800D01*
X70596644Y-99888957D01*
X70758957Y-99726644D01*
X70846800Y-99514572D01*
X70846800Y-99385028D01*
X72522800Y-99385028D01*
X72522800Y-99614572D01*
X72610643Y-99826644D01*
X72772956Y-99988957D01*
X72985028Y-100076800D01*
X73214572Y-100076800D01*
X73426644Y-99988957D01*
X73588957Y-99826644D01*
X73676800Y-99614572D01*
X73676800Y-99385028D01*
X73588957Y-99172956D01*
X73426644Y-99010643D01*
X73214572Y-98922800D01*
X72985028Y-98922800D01*
X72772956Y-99010643D01*
X72610643Y-99172956D01*
X72522800Y-99385028D01*
X70846800Y-99385028D01*
X70846800Y-99285028D01*
X70758957Y-99072956D01*
X70596644Y-98910643D01*
X70384572Y-98822800D01*
X70155028Y-98822800D01*
X69942956Y-98910643D01*
X69780643Y-99072956D01*
X69692800Y-99285028D01*
X55435375Y-99285028D01*
X55388953Y-99172956D01*
X55226640Y-99010643D01*
X55014568Y-98922800D01*
X54785024Y-98922800D01*
X54572952Y-99010643D01*
X54410639Y-99172956D01*
X54322796Y-99385028D01*
X44942898Y-99385028D01*
X44971702Y-98285028D01*
X65322820Y-98285028D01*
X65322820Y-98514572D01*
X65410663Y-98726644D01*
X65572976Y-98888957D01*
X65785048Y-98976800D01*
X66014592Y-98976800D01*
X66226664Y-98888957D01*
X66388977Y-98726644D01*
X66476820Y-98514572D01*
X66476820Y-98285028D01*
X66388977Y-98072956D01*
X66226664Y-97910643D01*
X66014592Y-97822800D01*
X65785048Y-97822800D01*
X65572976Y-97910643D01*
X65410663Y-98072956D01*
X65322820Y-98285028D01*
X44971702Y-98285028D01*
X44997889Y-97285028D01*
X48322800Y-97285028D01*
X48322800Y-97514572D01*
X48410643Y-97726644D01*
X48572956Y-97888957D01*
X48785028Y-97976800D01*
X49014572Y-97976800D01*
X49226644Y-97888957D01*
X49388957Y-97726644D01*
X49476800Y-97514572D01*
X49476800Y-97485028D01*
X57522804Y-97485028D01*
X57522804Y-97714572D01*
X57610647Y-97926644D01*
X57772960Y-98088957D01*
X57985032Y-98176800D01*
X58214576Y-98176800D01*
X58426648Y-98088957D01*
X58588961Y-97926644D01*
X58676804Y-97714572D01*
X58676804Y-97485028D01*
X58588961Y-97272956D01*
X58506929Y-97190924D01*
X66725780Y-97190924D01*
X66725780Y-97420468D01*
X66813623Y-97632540D01*
X66975936Y-97794853D01*
X67188008Y-97882696D01*
X67417552Y-97882696D01*
X67629624Y-97794853D01*
X67791937Y-97632540D01*
X67879780Y-97420468D01*
X67879780Y-97190924D01*
X67791937Y-96978852D01*
X67629624Y-96816539D01*
X67417552Y-96728696D01*
X67188008Y-96728696D01*
X66975936Y-96816539D01*
X66813623Y-96978852D01*
X66725780Y-97190924D01*
X58506929Y-97190924D01*
X58426648Y-97110643D01*
X58214576Y-97022800D01*
X57985032Y-97022800D01*
X57772960Y-97110643D01*
X57610647Y-97272956D01*
X57522804Y-97485028D01*
X49476800Y-97485028D01*
X49476800Y-97285028D01*
X49388957Y-97072956D01*
X49226644Y-96910643D01*
X49014572Y-96822800D01*
X48785028Y-96822800D01*
X48572956Y-96910643D01*
X48410643Y-97072956D01*
X48322800Y-97285028D01*
X44997889Y-97285028D01*
X45002276Y-97117502D01*
X45228496Y-94243104D01*
X45270700Y-93922528D01*
X50222800Y-93922528D01*
X50222800Y-94152072D01*
X50310643Y-94364144D01*
X50472956Y-94526457D01*
X50685028Y-94614300D01*
X50914572Y-94614300D01*
X51000209Y-94578828D01*
X60222800Y-94578828D01*
X60222800Y-94808372D01*
X60310643Y-95020444D01*
X60472956Y-95182757D01*
X60685028Y-95270600D01*
X60914572Y-95270600D01*
X61126644Y-95182757D01*
X61288957Y-95020444D01*
X61376800Y-94808372D01*
X61376800Y-94578828D01*
X61288957Y-94366756D01*
X61126644Y-94204443D01*
X61079772Y-94185028D01*
X70922800Y-94185028D01*
X70922800Y-94414572D01*
X71010643Y-94626644D01*
X71172956Y-94788957D01*
X71385028Y-94876800D01*
X71614572Y-94876800D01*
X71826644Y-94788957D01*
X71988957Y-94626644D01*
X72076800Y-94414572D01*
X72076800Y-94185028D01*
X71988957Y-93972956D01*
X71826644Y-93810643D01*
X71614572Y-93722800D01*
X71385028Y-93722800D01*
X71172956Y-93810643D01*
X71010643Y-93972956D01*
X70922800Y-94185028D01*
X61079772Y-94185028D01*
X60914572Y-94116600D01*
X60685028Y-94116600D01*
X60472956Y-94204443D01*
X60310643Y-94366756D01*
X60222800Y-94578828D01*
X51000209Y-94578828D01*
X51126644Y-94526457D01*
X51288957Y-94364144D01*
X51376800Y-94152072D01*
X51376800Y-93922528D01*
X51288957Y-93710456D01*
X51126644Y-93548143D01*
X50914572Y-93460300D01*
X50685028Y-93460300D01*
X50472956Y-93548143D01*
X50310643Y-93710456D01*
X50222800Y-93922528D01*
X45270700Y-93922528D01*
X45486281Y-92285028D01*
X64822800Y-92285028D01*
X64822800Y-92514572D01*
X64910643Y-92726644D01*
X65072956Y-92888957D01*
X65285028Y-92976800D01*
X65514572Y-92976800D01*
X65726644Y-92888957D01*
X65888957Y-92726644D01*
X65976800Y-92514572D01*
X65976800Y-92285028D01*
X65888957Y-92072956D01*
X65726644Y-91910643D01*
X65514572Y-91822800D01*
X65285028Y-91822800D01*
X65072956Y-91910643D01*
X64910643Y-92072956D01*
X64822800Y-92285028D01*
X45486281Y-92285028D01*
X45604840Y-91384485D01*
X46130277Y-88549479D01*
X46447824Y-87226800D01*
X78584359Y-87226800D01*
X77772060Y-88674299D01*
X77772060Y-88674299D01*
G37*
X77772060Y-88674299D02*
X76935350Y-90493437D01*
X76247228Y-92373819D01*
X75712127Y-94303331D01*
X75333495Y-96269542D01*
X75113770Y-98259785D01*
X75054368Y-100261240D01*
X75155672Y-102261011D01*
X75417029Y-104246216D01*
X75836756Y-106204067D01*
X76412148Y-108121949D01*
X77139499Y-109987507D01*
X78014123Y-111788724D01*
X79030385Y-113513995D01*
X80181738Y-115152205D01*
X81460766Y-116692801D01*
X82859228Y-118125858D01*
X84368115Y-119442144D01*
X85977706Y-120633179D01*
X87677632Y-121691290D01*
X89456942Y-122609660D01*
X91304173Y-123382374D01*
X93207425Y-124004452D01*
X95154436Y-124471888D01*
X97132663Y-124781670D01*
X99129362Y-124931803D01*
X101131670Y-124921319D01*
X103126688Y-124750285D01*
X105101563Y-124419805D01*
X107043572Y-123932006D01*
X108940205Y-123290031D01*
X110779243Y-122498016D01*
X112548839Y-121561063D01*
X114237591Y-120485209D01*
X115834622Y-119277384D01*
X117329642Y-117945370D01*
X118713021Y-116497747D01*
X119975846Y-114943842D01*
X121109981Y-113293664D01*
X121205932Y-113126800D01*
X139822800Y-113126800D01*
X139822800Y-122572800D01*
X138726800Y-122572800D01*
X138726800Y-114899800D01*
X138717133Y-114851199D01*
X138689603Y-114809997D01*
X138648401Y-114782467D01*
X138599800Y-114772800D01*
X122999800Y-114772800D01*
X122951199Y-114782467D01*
X122909997Y-114809997D01*
X122882467Y-114851199D01*
X122872800Y-114899800D01*
X122872800Y-122572800D01*
X113499800Y-122572800D01*
X113374663Y-122597691D01*
X113268576Y-122668576D01*
X113197691Y-122774663D01*
X113172800Y-122899800D01*
X113172800Y-146999800D01*
X113197691Y-147124937D01*
X113268576Y-147231024D01*
X113374663Y-147301909D01*
X113499800Y-147326800D01*
X118658635Y-147326800D01*
X118642800Y-147365028D01*
X118642800Y-147594572D01*
X118730643Y-147806644D01*
X118892956Y-147968957D01*
X119105028Y-148056800D01*
X119334572Y-148056800D01*
X119546644Y-147968957D01*
X119708957Y-147806644D01*
X119796800Y-147594572D01*
X119796800Y-147365028D01*
X119780965Y-147326800D01*
X121499800Y-147326800D01*
X121624937Y-147301909D01*
X121731024Y-147231024D01*
X121801909Y-147124937D01*
X121826800Y-146999800D01*
X121826800Y-144342801D01*
X121972956Y-144488957D01*
X122185028Y-144576800D01*
X122414572Y-144576800D01*
X122626644Y-144488957D01*
X122788957Y-144326644D01*
X122876800Y-144114572D01*
X122876800Y-143885028D01*
X122788957Y-143672956D01*
X122626644Y-143510643D01*
X122414572Y-143422800D01*
X122185028Y-143422800D01*
X121972956Y-143510643D01*
X121826800Y-143656799D01*
X121826800Y-135785028D01*
X132122800Y-135785028D01*
X132122800Y-136014572D01*
X132210643Y-136226644D01*
X132372956Y-136388957D01*
X132585028Y-136476800D01*
X132814572Y-136476800D01*
X133026644Y-136388957D01*
X133188957Y-136226644D01*
X133276800Y-136014572D01*
X133276800Y-135985028D01*
X136522800Y-135985028D01*
X136522800Y-136214572D01*
X136610643Y-136426644D01*
X136772956Y-136588957D01*
X136985028Y-136676800D01*
X137214572Y-136676800D01*
X137426644Y-136588957D01*
X137588957Y-136426644D01*
X137676800Y-136214572D01*
X137676800Y-135985028D01*
X137588957Y-135772956D01*
X137426644Y-135610643D01*
X137214572Y-135522800D01*
X136985028Y-135522800D01*
X136772956Y-135610643D01*
X136610643Y-135772956D01*
X136522800Y-135985028D01*
X133276800Y-135985028D01*
X133276800Y-135785028D01*
X133188957Y-135572956D01*
X133026644Y-135410643D01*
X132814572Y-135322800D01*
X132585028Y-135322800D01*
X132372956Y-135410643D01*
X132210643Y-135572956D01*
X132122800Y-135785028D01*
X121826800Y-135785028D01*
X121826800Y-132885028D01*
X135422800Y-132885028D01*
X135422800Y-133114572D01*
X135510643Y-133326644D01*
X135672956Y-133488957D01*
X135885028Y-133576800D01*
X136114572Y-133576800D01*
X136326644Y-133488957D01*
X136488957Y-133326644D01*
X136576800Y-133114572D01*
X136576800Y-132885028D01*
X136488957Y-132672956D01*
X136326644Y-132510643D01*
X136114572Y-132422800D01*
X135885028Y-132422800D01*
X135672956Y-132510643D01*
X135510643Y-132672956D01*
X135422800Y-132885028D01*
X121826800Y-132885028D01*
X121826800Y-131685028D01*
X128922800Y-131685028D01*
X128922800Y-131914572D01*
X129010643Y-132126644D01*
X129172956Y-132288957D01*
X129385028Y-132376800D01*
X129614572Y-132376800D01*
X129822800Y-132290549D01*
X129822800Y-132414572D01*
X129910643Y-132626644D01*
X130072956Y-132788957D01*
X130285028Y-132876800D01*
X130514572Y-132876800D01*
X130726644Y-132788957D01*
X130888957Y-132626644D01*
X130976800Y-132414572D01*
X130976800Y-132185028D01*
X130888957Y-131972956D01*
X130726644Y-131810643D01*
X130514572Y-131722800D01*
X130285028Y-131722800D01*
X130076800Y-131809051D01*
X130076800Y-131685028D01*
X129988957Y-131472956D01*
X129826644Y-131310643D01*
X129614572Y-131222800D01*
X129385028Y-131222800D01*
X129172956Y-131310643D01*
X129010643Y-131472956D01*
X128922800Y-131685028D01*
X121826800Y-131685028D01*
X121826800Y-127625417D01*
X127322800Y-127602129D01*
X127322800Y-127614572D01*
X127399467Y-127799662D01*
X127372956Y-127810643D01*
X127210643Y-127972956D01*
X127122800Y-128185028D01*
X127122800Y-128414572D01*
X127210643Y-128626644D01*
X127372956Y-128788957D01*
X127585028Y-128876800D01*
X127814572Y-128876800D01*
X128026644Y-128788957D01*
X128188957Y-128626644D01*
X128276800Y-128414572D01*
X128276800Y-128185028D01*
X128200133Y-127999938D01*
X128226644Y-127988957D01*
X128388957Y-127826644D01*
X128476800Y-127614572D01*
X128476800Y-127597239D01*
X143867007Y-127532027D01*
X144217004Y-127677000D01*
X144983612Y-127677000D01*
X145691866Y-127383632D01*
X146233940Y-126841558D01*
X146527308Y-126133304D01*
X146527308Y-125366696D01*
X146233940Y-124658442D01*
X145691866Y-124116368D01*
X145426800Y-124006574D01*
X145426800Y-119879800D01*
X147099742Y-119879800D01*
X147191091Y-120339042D01*
X147451231Y-120728369D01*
X147840558Y-120988509D01*
X148183880Y-121056800D01*
X148415720Y-121056800D01*
X148759042Y-120988509D01*
X149148369Y-120728369D01*
X149408509Y-120339042D01*
X149499858Y-119879800D01*
X149408509Y-119420558D01*
X149148369Y-119031231D01*
X148759042Y-118771091D01*
X148415720Y-118702800D01*
X148183880Y-118702800D01*
X147840558Y-118771091D01*
X147451231Y-119031231D01*
X147191091Y-119420558D01*
X147099742Y-119879800D01*
X145426800Y-119879800D01*
X145426800Y-117339800D01*
X147099742Y-117339800D01*
X147191091Y-117799042D01*
X147451231Y-118188369D01*
X147840558Y-118448509D01*
X148183880Y-118516800D01*
X148415720Y-118516800D01*
X148759042Y-118448509D01*
X149148369Y-118188369D01*
X149408509Y-117799042D01*
X149499858Y-117339800D01*
X149408509Y-116880558D01*
X149148369Y-116491231D01*
X148759042Y-116231091D01*
X148415720Y-116162800D01*
X148183880Y-116162800D01*
X147840558Y-116231091D01*
X147451231Y-116491231D01*
X147191091Y-116880558D01*
X147099742Y-117339800D01*
X145426800Y-117339800D01*
X145426800Y-113949800D01*
X147116394Y-113949800D01*
X147116394Y-115649800D01*
X147141773Y-115777389D01*
X147214046Y-115885554D01*
X147322211Y-115957827D01*
X147449800Y-115983206D01*
X149149800Y-115983206D01*
X149277389Y-115957827D01*
X149385554Y-115885554D01*
X149457827Y-115777389D01*
X149483206Y-115649800D01*
X149483206Y-113949800D01*
X149457827Y-113822211D01*
X149385554Y-113714046D01*
X149277389Y-113641773D01*
X149149800Y-113616394D01*
X147449800Y-113616394D01*
X147322211Y-113641773D01*
X147214046Y-113714046D01*
X147141773Y-113822211D01*
X147116394Y-113949800D01*
X145426800Y-113949800D01*
X145426800Y-113126800D01*
X153466788Y-113126800D01*
X153196233Y-114253741D01*
X152377336Y-117018293D01*
X151414875Y-119736198D01*
X150311489Y-122400007D01*
X149070202Y-125002419D01*
X147694417Y-127536300D01*
X146187904Y-129994706D01*
X144554793Y-132370897D01*
X142799560Y-134658362D01*
X140927015Y-136850830D01*
X138942292Y-138942292D01*
X136850830Y-140927015D01*
X134658362Y-142799560D01*
X132370897Y-144554793D01*
X129994706Y-146187904D01*
X127536300Y-147694417D01*
X125002419Y-149070202D01*
X122400007Y-150311489D01*
X119736198Y-151414875D01*
X117018293Y-152377336D01*
X114253741Y-153196233D01*
X111450121Y-153869323D01*
X108615115Y-154394760D01*
X105756496Y-154771104D01*
X102882098Y-154997324D01*
X99999800Y-155072800D01*
X97117502Y-154997324D01*
X94243104Y-154771104D01*
X91384485Y-154394760D01*
X88549479Y-153869323D01*
X85745859Y-153196233D01*
X82981307Y-152377336D01*
X80263402Y-151414875D01*
X77599593Y-150311489D01*
X77124812Y-150085030D01*
X113622800Y-150085030D01*
X113622800Y-150314574D01*
X113710643Y-150526646D01*
X113872956Y-150688959D01*
X114085028Y-150776802D01*
X114314572Y-150776802D01*
X114526644Y-150688959D01*
X114688957Y-150526646D01*
X114776800Y-150314574D01*
X114776800Y-150085030D01*
X114688957Y-149872958D01*
X114526644Y-149710645D01*
X114314572Y-149622802D01*
X114085028Y-149622802D01*
X113872956Y-149710645D01*
X113710643Y-149872958D01*
X113622800Y-150085030D01*
X77124812Y-150085030D01*
X76076490Y-149585006D01*
X116822800Y-149585006D01*
X116822800Y-149814550D01*
X116910643Y-150026622D01*
X117072956Y-150188935D01*
X117285028Y-150276778D01*
X117514572Y-150276778D01*
X117726644Y-150188935D01*
X117888957Y-150026622D01*
X117976800Y-149814550D01*
X117976800Y-149585006D01*
X117888957Y-149372934D01*
X117726644Y-149210621D01*
X117514572Y-149122778D01*
X117285028Y-149122778D01*
X117072956Y-149210621D01*
X116910643Y-149372934D01*
X116822800Y-149585006D01*
X76076490Y-149585006D01*
X74997181Y-149070202D01*
X72463300Y-147694417D01*
X72301112Y-147595028D01*
X89442800Y-147595028D01*
X89442800Y-147824572D01*
X89530643Y-148036644D01*
X89692956Y-148198957D01*
X89905028Y-148286800D01*
X90134572Y-148286800D01*
X90346644Y-148198957D01*
X90508957Y-148036644D01*
X90585603Y-147851604D01*
X90702956Y-147968957D01*
X90915028Y-148056800D01*
X91144572Y-148056800D01*
X91356644Y-147968957D01*
X91518957Y-147806644D01*
X91528238Y-147784239D01*
X91662956Y-147918957D01*
X91875028Y-148006800D01*
X92104572Y-148006800D01*
X92316644Y-147918957D01*
X92352800Y-147882801D01*
X92352800Y-147904572D01*
X92440643Y-148116644D01*
X92602956Y-148278957D01*
X92815028Y-148366800D01*
X93044572Y-148366800D01*
X93256644Y-148278957D01*
X93418957Y-148116644D01*
X93506800Y-147904572D01*
X93506800Y-147675028D01*
X93418957Y-147462956D01*
X93256644Y-147300643D01*
X93044572Y-147212800D01*
X92815028Y-147212800D01*
X92602956Y-147300643D01*
X92566800Y-147336799D01*
X92566800Y-147315028D01*
X92478957Y-147102956D01*
X92316644Y-146940643D01*
X92104572Y-146852800D01*
X91875028Y-146852800D01*
X91662956Y-146940643D01*
X91500643Y-147102956D01*
X91491362Y-147125361D01*
X91356644Y-146990643D01*
X91144572Y-146902800D01*
X90915028Y-146902800D01*
X90702956Y-146990643D01*
X90540643Y-147152956D01*
X90463997Y-147337996D01*
X90346644Y-147220643D01*
X90134572Y-147132800D01*
X89905028Y-147132800D01*
X89692956Y-147220643D01*
X89530643Y-147382956D01*
X89442800Y-147595028D01*
X72301112Y-147595028D01*
X70004894Y-146187904D01*
X68982204Y-145485028D01*
X85022800Y-145485028D01*
X85022800Y-145714572D01*
X85110643Y-145926644D01*
X85272956Y-146088957D01*
X85485028Y-146176800D01*
X85714572Y-146176800D01*
X85926644Y-146088957D01*
X86088957Y-145926644D01*
X86176800Y-145714572D01*
X86176800Y-145485028D01*
X86088957Y-145272956D01*
X85926644Y-145110643D01*
X85714572Y-145022800D01*
X85485028Y-145022800D01*
X85272956Y-145110643D01*
X85110643Y-145272956D01*
X85022800Y-145485028D01*
X68982204Y-145485028D01*
X67628703Y-144554793D01*
X67016494Y-144085028D01*
X79832800Y-144085028D01*
X79832800Y-144314572D01*
X79920643Y-144526644D01*
X80082956Y-144688957D01*
X80295028Y-144776800D01*
X80524572Y-144776800D01*
X80552992Y-144765028D01*
X81282800Y-144765028D01*
X81282800Y-144994572D01*
X81370643Y-145206644D01*
X81532956Y-145368957D01*
X81745028Y-145456800D01*
X81974572Y-145456800D01*
X82186644Y-145368957D01*
X82348957Y-145206644D01*
X82436800Y-144994572D01*
X82436800Y-144765028D01*
X82348957Y-144552956D01*
X82186644Y-144390643D01*
X82173089Y-144385028D01*
X82842800Y-144385028D01*
X82842800Y-144614572D01*
X82930643Y-144826644D01*
X83092956Y-144988957D01*
X83305028Y-145076800D01*
X83534572Y-145076800D01*
X83746644Y-144988957D01*
X83908957Y-144826644D01*
X83996800Y-144614572D01*
X83996800Y-144575028D01*
X99022800Y-144575028D01*
X99022800Y-144804572D01*
X99110643Y-145016644D01*
X99272956Y-145178957D01*
X99485028Y-145266800D01*
X99714572Y-145266800D01*
X99926644Y-145178957D01*
X100088957Y-145016644D01*
X100176800Y-144804572D01*
X100176800Y-144575028D01*
X100088957Y-144362956D01*
X99926644Y-144200643D01*
X99828591Y-144160028D01*
X111897800Y-144160028D01*
X111897800Y-144389572D01*
X111985643Y-144601644D01*
X112147956Y-144763957D01*
X112360028Y-144851800D01*
X112589572Y-144851800D01*
X112801644Y-144763957D01*
X112963957Y-144601644D01*
X113051800Y-144389572D01*
X113051800Y-144160028D01*
X112963957Y-143947956D01*
X112801644Y-143785643D01*
X112589572Y-143697800D01*
X112360028Y-143697800D01*
X112147956Y-143785643D01*
X111985643Y-143947956D01*
X111897800Y-144160028D01*
X99828591Y-144160028D01*
X99714572Y-144112800D01*
X99485028Y-144112800D01*
X99272956Y-144200643D01*
X99110643Y-144362956D01*
X99022800Y-144575028D01*
X83996800Y-144575028D01*
X83996800Y-144385028D01*
X83908957Y-144172956D01*
X83746644Y-144010643D01*
X83534572Y-143922800D01*
X83305028Y-143922800D01*
X83092956Y-144010643D01*
X82930643Y-144172956D01*
X82842800Y-144385028D01*
X82173089Y-144385028D01*
X81974572Y-144302800D01*
X81745028Y-144302800D01*
X81532956Y-144390643D01*
X81370643Y-144552956D01*
X81282800Y-144765028D01*
X80552992Y-144765028D01*
X80736644Y-144688957D01*
X80898957Y-144526644D01*
X80986800Y-144314572D01*
X80986800Y-144085028D01*
X80898957Y-143872956D01*
X80736644Y-143710643D01*
X80524572Y-143622800D01*
X80295028Y-143622800D01*
X80082956Y-143710643D01*
X79920643Y-143872956D01*
X79832800Y-144085028D01*
X67016494Y-144085028D01*
X65387474Y-142835038D01*
X101822800Y-142835038D01*
X101822800Y-143064582D01*
X101910643Y-143276654D01*
X102072956Y-143438967D01*
X102285028Y-143526810D01*
X102514572Y-143526810D01*
X102726644Y-143438967D01*
X102888957Y-143276654D01*
X102976800Y-143064582D01*
X102976800Y-142835038D01*
X102888957Y-142622966D01*
X102726644Y-142460653D01*
X102514572Y-142372810D01*
X102285028Y-142372810D01*
X102072956Y-142460653D01*
X101910643Y-142622966D01*
X101822800Y-142835038D01*
X65387474Y-142835038D01*
X65341238Y-142799560D01*
X64738799Y-142285028D01*
X111222800Y-142285028D01*
X111222800Y-142514572D01*
X111310643Y-142726644D01*
X111472956Y-142888957D01*
X111685028Y-142976800D01*
X111914572Y-142976800D01*
X112126644Y-142888957D01*
X112288957Y-142726644D01*
X112376800Y-142514572D01*
X112376800Y-142285028D01*
X112288957Y-142072956D01*
X112126644Y-141910643D01*
X111914572Y-141822800D01*
X111685028Y-141822800D01*
X111472956Y-141910643D01*
X111310643Y-142072956D01*
X111222800Y-142285028D01*
X64738799Y-142285028D01*
X63148770Y-140927015D01*
X61808376Y-139655028D01*
X71472802Y-139655028D01*
X71472802Y-139884572D01*
X71560645Y-140096644D01*
X71722958Y-140258957D01*
X71935030Y-140346800D01*
X72164574Y-140346800D01*
X72376646Y-140258957D01*
X72538959Y-140096644D01*
X72626802Y-139884572D01*
X72626802Y-139835028D01*
X72932800Y-139835028D01*
X72932800Y-140064572D01*
X73020643Y-140276644D01*
X73182956Y-140438957D01*
X73395028Y-140526800D01*
X73624572Y-140526800D01*
X73836644Y-140438957D01*
X73998957Y-140276644D01*
X74086800Y-140064572D01*
X74086800Y-139835028D01*
X73998957Y-139622956D01*
X73836644Y-139460643D01*
X73624572Y-139372800D01*
X73395028Y-139372800D01*
X73182956Y-139460643D01*
X73020643Y-139622956D01*
X72932800Y-139835028D01*
X72626802Y-139835028D01*
X72626802Y-139655028D01*
X72538959Y-139442956D01*
X72376646Y-139280643D01*
X72164574Y-139192800D01*
X71935030Y-139192800D01*
X71722958Y-139280643D01*
X71560645Y-139442956D01*
X71472802Y-139655028D01*
X61808376Y-139655028D01*
X61057308Y-138942292D01*
X59072585Y-136850830D01*
X58917466Y-136669208D01*
X62583564Y-136669208D01*
X62583564Y-137167284D01*
X62774170Y-137627447D01*
X63126363Y-137979640D01*
X63586526Y-138170246D01*
X64084602Y-138170246D01*
X64531757Y-137985028D01*
X70052800Y-137985028D01*
X70052800Y-138214572D01*
X70140643Y-138426644D01*
X70302956Y-138588957D01*
X70515028Y-138676800D01*
X70699345Y-138676800D01*
X70662800Y-138765028D01*
X70662800Y-138994572D01*
X70750643Y-139206644D01*
X70912956Y-139368957D01*
X71125028Y-139456800D01*
X71354572Y-139456800D01*
X71566644Y-139368957D01*
X71728957Y-139206644D01*
X71816800Y-138994572D01*
X71816800Y-138765028D01*
X71728957Y-138552956D01*
X71566644Y-138390643D01*
X71354572Y-138302800D01*
X71170255Y-138302800D01*
X71206800Y-138214572D01*
X71206800Y-137985028D01*
X71118957Y-137772956D01*
X70956644Y-137610643D01*
X70744572Y-137522800D01*
X70515028Y-137522800D01*
X70302956Y-137610643D01*
X70140643Y-137772956D01*
X70052800Y-137985028D01*
X64531757Y-137985028D01*
X64544765Y-137979640D01*
X64896958Y-137627447D01*
X65045100Y-137269800D01*
X93666394Y-137269800D01*
X93666394Y-141769800D01*
X93691773Y-141897389D01*
X93764046Y-142005554D01*
X93872211Y-142077827D01*
X93999800Y-142103206D01*
X96949800Y-142103206D01*
X97077389Y-142077827D01*
X97185554Y-142005554D01*
X97257827Y-141897389D01*
X97283206Y-141769800D01*
X97283206Y-141285018D01*
X99422800Y-141285018D01*
X99422800Y-141514562D01*
X99510643Y-141726634D01*
X99672956Y-141888947D01*
X99885028Y-141976790D01*
X100114572Y-141976790D01*
X100326644Y-141888947D01*
X100488957Y-141726634D01*
X100576800Y-141514562D01*
X100576800Y-141285018D01*
X100488957Y-141072946D01*
X100326644Y-140910633D01*
X100114572Y-140822790D01*
X99885028Y-140822790D01*
X99672956Y-140910633D01*
X99510643Y-141072946D01*
X99422800Y-141285018D01*
X97283206Y-141285018D01*
X97283206Y-137269800D01*
X97257827Y-137142211D01*
X97185554Y-137034046D01*
X97077389Y-136961773D01*
X96949800Y-136936394D01*
X93999800Y-136936394D01*
X93872211Y-136961773D01*
X93764046Y-137034046D01*
X93691773Y-137142211D01*
X93666394Y-137269800D01*
X65045100Y-137269800D01*
X65087564Y-137167284D01*
X65087564Y-136669208D01*
X64896958Y-136209045D01*
X64544765Y-135856852D01*
X64084602Y-135666246D01*
X63586526Y-135666246D01*
X63126363Y-135856852D01*
X62774170Y-136209045D01*
X62583564Y-136669208D01*
X58917466Y-136669208D01*
X57200040Y-134658362D01*
X56153156Y-133294035D01*
X59663060Y-133294035D01*
X59663060Y-133591211D01*
X59776784Y-133865765D01*
X59986918Y-134075899D01*
X60261472Y-134189623D01*
X60558648Y-134189623D01*
X60562854Y-134187881D01*
X60532930Y-134260124D01*
X60532930Y-134557300D01*
X60646654Y-134831854D01*
X60856788Y-135041988D01*
X61131342Y-135155712D01*
X61288922Y-135155712D01*
X61255717Y-135200179D01*
X61223695Y-135326265D01*
X61242362Y-135455007D01*
X61308875Y-135566806D01*
X61870945Y-136191048D01*
X61975179Y-136268883D01*
X62101265Y-136300905D01*
X62230007Y-136282238D01*
X62341806Y-136215725D01*
X62966048Y-135653655D01*
X63043883Y-135549421D01*
X63075905Y-135423335D01*
X63070351Y-135385028D01*
X99922800Y-135385028D01*
X99922800Y-135614572D01*
X100010643Y-135826644D01*
X100172956Y-135988957D01*
X100199133Y-135999800D01*
X100172956Y-136010643D01*
X100010643Y-136172956D01*
X99922800Y-136385028D01*
X99922800Y-136614572D01*
X100010643Y-136826644D01*
X100172956Y-136988957D01*
X100385028Y-137076800D01*
X100614572Y-137076800D01*
X100826644Y-136988957D01*
X100988957Y-136826644D01*
X101076800Y-136614572D01*
X101076800Y-136385028D01*
X100988957Y-136172956D01*
X100826644Y-136010643D01*
X100800467Y-135999800D01*
X100826644Y-135988957D01*
X100988957Y-135826644D01*
X101076800Y-135614572D01*
X101076800Y-135385028D01*
X100988957Y-135172956D01*
X100826644Y-135010643D01*
X100614572Y-134922800D01*
X100385028Y-134922800D01*
X100172956Y-135010643D01*
X100010643Y-135172956D01*
X99922800Y-135385028D01*
X63070351Y-135385028D01*
X63057238Y-135294593D01*
X62990725Y-135182794D01*
X62746579Y-134911643D01*
X62881152Y-134855901D01*
X63091286Y-134645767D01*
X63205010Y-134371213D01*
X63205010Y-134074037D01*
X63126720Y-133885028D01*
X68222800Y-133885028D01*
X68222800Y-134114572D01*
X68310643Y-134326644D01*
X68472956Y-134488957D01*
X68685028Y-134576800D01*
X68914572Y-134576800D01*
X69126644Y-134488957D01*
X69288957Y-134326644D01*
X69368326Y-134135028D01*
X99922800Y-134135028D01*
X99922800Y-134364572D01*
X100010643Y-134576644D01*
X100172956Y-134738957D01*
X100385028Y-134826800D01*
X100614572Y-134826800D01*
X100826644Y-134738957D01*
X100988957Y-134576644D01*
X101076800Y-134364572D01*
X101076800Y-134135028D01*
X100988957Y-133922956D01*
X100826644Y-133760643D01*
X100614572Y-133672800D01*
X100385028Y-133672800D01*
X100172956Y-133760643D01*
X100010643Y-133922956D01*
X99922800Y-134135028D01*
X69368326Y-134135028D01*
X69376800Y-134114572D01*
X69376800Y-133885028D01*
X69288957Y-133672956D01*
X69126644Y-133510643D01*
X68914572Y-133422800D01*
X68685028Y-133422800D01*
X68472956Y-133510643D01*
X68310643Y-133672956D01*
X68222800Y-133885028D01*
X63126720Y-133885028D01*
X63091286Y-133799483D01*
X62881152Y-133589349D01*
X62606598Y-133475625D01*
X62309422Y-133475625D01*
X62305216Y-133477367D01*
X62335140Y-133405125D01*
X62335140Y-133107949D01*
X62221416Y-132833395D01*
X62011282Y-132623261D01*
X61736728Y-132509537D01*
X61439552Y-132509537D01*
X61164998Y-132623261D01*
X60954864Y-132833395D01*
X60926274Y-132902419D01*
X60833202Y-132809347D01*
X60558648Y-132695623D01*
X60261472Y-132695623D01*
X59986918Y-132809347D01*
X59776784Y-133019481D01*
X59663060Y-133294035D01*
X56153156Y-133294035D01*
X55444807Y-132370897D01*
X54747097Y-131355722D01*
X57799280Y-131355722D01*
X57799280Y-131853798D01*
X57989886Y-132313961D01*
X58342079Y-132666154D01*
X58802242Y-132856760D01*
X59300318Y-132856760D01*
X59760481Y-132666154D01*
X60112674Y-132313961D01*
X60145369Y-132235028D01*
X70372800Y-132235028D01*
X70372800Y-132464572D01*
X70460643Y-132676644D01*
X70622956Y-132838957D01*
X70835028Y-132926800D01*
X71064572Y-132926800D01*
X71276644Y-132838957D01*
X71438957Y-132676644D01*
X71526800Y-132464572D01*
X71526800Y-132335028D01*
X72372800Y-132335028D01*
X72372800Y-132564572D01*
X72460643Y-132776644D01*
X72622956Y-132938957D01*
X72835028Y-133026800D01*
X73064572Y-133026800D01*
X73276644Y-132938957D01*
X73330573Y-132885028D01*
X99922800Y-132885028D01*
X99922800Y-133114572D01*
X100010643Y-133326644D01*
X100172956Y-133488957D01*
X100385028Y-133576800D01*
X100614572Y-133576800D01*
X100826644Y-133488957D01*
X100988957Y-133326644D01*
X101076800Y-133114572D01*
X101076800Y-132885028D01*
X100988957Y-132672956D01*
X100826644Y-132510643D01*
X100614572Y-132422800D01*
X100385028Y-132422800D01*
X100172956Y-132510643D01*
X100010643Y-132672956D01*
X99922800Y-132885028D01*
X73330573Y-132885028D01*
X73438957Y-132776644D01*
X73526800Y-132564572D01*
X73526800Y-132335028D01*
X73438957Y-132122956D01*
X73276644Y-131960643D01*
X73064572Y-131872800D01*
X72835028Y-131872800D01*
X72622956Y-131960643D01*
X72460643Y-132122956D01*
X72372800Y-132335028D01*
X71526800Y-132335028D01*
X71526800Y-132235028D01*
X71438957Y-132022956D01*
X71276644Y-131860643D01*
X71064572Y-131772800D01*
X70835028Y-131772800D01*
X70622956Y-131860643D01*
X70460643Y-132022956D01*
X70372800Y-132235028D01*
X60145369Y-132235028D01*
X60303280Y-131853798D01*
X60303280Y-131635028D01*
X99922800Y-131635028D01*
X99922800Y-131864572D01*
X100010643Y-132076644D01*
X100172956Y-132238957D01*
X100385028Y-132326800D01*
X100614572Y-132326800D01*
X100826644Y-132238957D01*
X100988957Y-132076644D01*
X101076800Y-131864572D01*
X101076800Y-131635028D01*
X100988957Y-131422956D01*
X100826644Y-131260643D01*
X100614572Y-131172800D01*
X100385028Y-131172800D01*
X100172956Y-131260643D01*
X100010643Y-131422956D01*
X99922800Y-131635028D01*
X60303280Y-131635028D01*
X60303280Y-131355722D01*
X60112674Y-130895559D01*
X60002143Y-130785028D01*
X64522800Y-130785028D01*
X64522800Y-131014572D01*
X64610643Y-131226644D01*
X64772956Y-131388957D01*
X64985028Y-131476800D01*
X65214572Y-131476800D01*
X65426644Y-131388957D01*
X65588957Y-131226644D01*
X65676800Y-131014572D01*
X65676800Y-130976800D01*
X65814572Y-130976800D01*
X66026644Y-130888957D01*
X66188957Y-130726644D01*
X66276800Y-130514572D01*
X66276800Y-130385028D01*
X99922800Y-130385028D01*
X99922800Y-130614572D01*
X100010643Y-130826644D01*
X100172956Y-130988957D01*
X100385028Y-131076800D01*
X100614572Y-131076800D01*
X100826644Y-130988957D01*
X100988957Y-130826644D01*
X101076800Y-130614572D01*
X101076800Y-130385028D01*
X100988957Y-130172956D01*
X100826644Y-130010643D01*
X100614572Y-129922800D01*
X100385028Y-129922800D01*
X100172956Y-130010643D01*
X100010643Y-130172956D01*
X99922800Y-130385028D01*
X66276800Y-130385028D01*
X66276800Y-130285028D01*
X66188957Y-130072956D01*
X66026644Y-129910643D01*
X65814572Y-129822800D01*
X65585028Y-129822800D01*
X65372956Y-129910643D01*
X65210643Y-130072956D01*
X65122800Y-130285028D01*
X65122800Y-130322800D01*
X64985028Y-130322800D01*
X64772956Y-130410643D01*
X64610643Y-130572956D01*
X64522800Y-130785028D01*
X60002143Y-130785028D01*
X59760481Y-130543366D01*
X59300318Y-130352760D01*
X58802242Y-130352760D01*
X58342079Y-130543366D01*
X57989886Y-130895559D01*
X57799280Y-131355722D01*
X54747097Y-131355722D01*
X53811696Y-129994706D01*
X52886565Y-128485028D01*
X67422800Y-128485028D01*
X67422800Y-128714572D01*
X67510643Y-128926644D01*
X67672956Y-129088957D01*
X67885028Y-129176800D01*
X68114572Y-129176800D01*
X68326644Y-129088957D01*
X68488957Y-128926644D01*
X68551024Y-128776800D01*
X68714572Y-128776800D01*
X68926644Y-128688957D01*
X68930573Y-128685028D01*
X95522800Y-128685028D01*
X95522800Y-128914572D01*
X95610643Y-129126644D01*
X95772956Y-129288957D01*
X95985028Y-129376800D01*
X96214572Y-129376800D01*
X96426644Y-129288957D01*
X96499800Y-129215801D01*
X96572956Y-129288957D01*
X96785028Y-129376800D01*
X97014572Y-129376800D01*
X97226644Y-129288957D01*
X97299800Y-129215801D01*
X97372956Y-129288957D01*
X97585028Y-129376800D01*
X97814572Y-129376800D01*
X98026644Y-129288957D01*
X98149800Y-129165801D01*
X98272956Y-129288957D01*
X98485028Y-129376800D01*
X98714572Y-129376800D01*
X98926644Y-129288957D01*
X99080573Y-129135028D01*
X99922800Y-129135028D01*
X99922800Y-129364572D01*
X100010643Y-129576644D01*
X100172956Y-129738957D01*
X100385028Y-129826800D01*
X100614572Y-129826800D01*
X100826644Y-129738957D01*
X100988957Y-129576644D01*
X101076800Y-129364572D01*
X101076800Y-129135028D01*
X100988957Y-128922956D01*
X100826644Y-128760643D01*
X100614572Y-128672800D01*
X100385028Y-128672800D01*
X100172956Y-128760643D01*
X100010643Y-128922956D01*
X99922800Y-129135028D01*
X99080573Y-129135028D01*
X99088957Y-129126644D01*
X99176800Y-128914572D01*
X99176800Y-128685028D01*
X99088957Y-128472956D01*
X98926644Y-128310643D01*
X98714572Y-128222800D01*
X98485028Y-128222800D01*
X98272956Y-128310643D01*
X98149800Y-128433799D01*
X98026644Y-128310643D01*
X97814572Y-128222800D01*
X97585028Y-128222800D01*
X97372956Y-128310643D01*
X97299800Y-128383799D01*
X97226644Y-128310643D01*
X97014572Y-128222800D01*
X96785028Y-128222800D01*
X96572956Y-128310643D01*
X96499800Y-128383799D01*
X96426644Y-128310643D01*
X96214572Y-128222800D01*
X95985028Y-128222800D01*
X95772956Y-128310643D01*
X95610643Y-128472956D01*
X95522800Y-128685028D01*
X68930573Y-128685028D01*
X69088957Y-128526644D01*
X69176800Y-128314572D01*
X69176800Y-128085028D01*
X69088957Y-127872956D01*
X68926644Y-127710643D01*
X68714572Y-127622800D01*
X68485028Y-127622800D01*
X68272956Y-127710643D01*
X68110643Y-127872956D01*
X68048576Y-128022800D01*
X67885028Y-128022800D01*
X67672956Y-128110643D01*
X67510643Y-128272956D01*
X67422800Y-128485028D01*
X52886565Y-128485028D01*
X52305183Y-127536300D01*
X51127185Y-125366696D01*
X53472692Y-125366696D01*
X53472692Y-126133304D01*
X53766060Y-126841558D01*
X54308134Y-127383632D01*
X55016388Y-127677000D01*
X55782996Y-127677000D01*
X56491250Y-127383632D01*
X57033324Y-126841558D01*
X57326692Y-126133304D01*
X57326692Y-126005028D01*
X62512800Y-126005028D01*
X62512800Y-126234572D01*
X62600643Y-126446644D01*
X62762956Y-126608957D01*
X62975028Y-126696800D01*
X63204572Y-126696800D01*
X63416644Y-126608957D01*
X63459800Y-126565801D01*
X63542956Y-126648957D01*
X63755028Y-126736800D01*
X63984572Y-126736800D01*
X64196644Y-126648957D01*
X64358957Y-126486644D01*
X64442563Y-126284800D01*
X75049742Y-126284800D01*
X75141091Y-126744042D01*
X75401231Y-127133369D01*
X75790558Y-127393509D01*
X76133880Y-127461800D01*
X76365720Y-127461800D01*
X76709042Y-127393509D01*
X77098369Y-127133369D01*
X77358509Y-126744042D01*
X77449858Y-126284800D01*
X77358509Y-125825558D01*
X77098369Y-125436231D01*
X76709042Y-125176091D01*
X76365720Y-125107800D01*
X76133880Y-125107800D01*
X75790558Y-125176091D01*
X75401231Y-125436231D01*
X75141091Y-125825558D01*
X75049742Y-126284800D01*
X64442563Y-126284800D01*
X64446800Y-126274572D01*
X64446800Y-126045028D01*
X64358957Y-125832956D01*
X64196644Y-125670643D01*
X63984572Y-125582800D01*
X63755028Y-125582800D01*
X63542956Y-125670643D01*
X63499800Y-125713799D01*
X63416644Y-125630643D01*
X63204572Y-125542800D01*
X62975028Y-125542800D01*
X62762956Y-125630643D01*
X62600643Y-125792956D01*
X62512800Y-126005028D01*
X57326692Y-126005028D01*
X57326692Y-125366696D01*
X57033324Y-124658442D01*
X56491250Y-124116368D01*
X55782996Y-123823000D01*
X55016388Y-123823000D01*
X54308134Y-124116368D01*
X53766060Y-124658442D01*
X53472692Y-125366696D01*
X51127185Y-125366696D01*
X50929398Y-125002419D01*
X50329545Y-123744800D01*
X75049742Y-123744800D01*
X75141091Y-124204042D01*
X75401231Y-124593369D01*
X75790558Y-124853509D01*
X76133880Y-124921800D01*
X76365720Y-124921800D01*
X76709042Y-124853509D01*
X77098369Y-124593369D01*
X77358509Y-124204042D01*
X77449858Y-123744800D01*
X77358509Y-123285558D01*
X77224520Y-123085028D01*
X79422796Y-123085028D01*
X79422796Y-123314572D01*
X79510639Y-123526644D01*
X79672952Y-123688957D01*
X79885024Y-123776800D01*
X80114568Y-123776800D01*
X80326640Y-123688957D01*
X80488953Y-123526644D01*
X80576796Y-123314572D01*
X80576796Y-123085028D01*
X80488953Y-122872956D01*
X80326640Y-122710643D01*
X80114568Y-122622800D01*
X79885024Y-122622800D01*
X79672952Y-122710643D01*
X79510639Y-122872956D01*
X79422796Y-123085028D01*
X77224520Y-123085028D01*
X77098369Y-122896231D01*
X76709042Y-122636091D01*
X76365720Y-122567800D01*
X76133880Y-122567800D01*
X75790558Y-122636091D01*
X75401231Y-122896231D01*
X75141091Y-123285558D01*
X75049742Y-123744800D01*
X50329545Y-123744800D01*
X49688111Y-122400007D01*
X49193040Y-121204800D01*
X75049742Y-121204800D01*
X75141091Y-121664042D01*
X75401231Y-122053369D01*
X75790558Y-122313509D01*
X76133880Y-122381800D01*
X76365720Y-122381800D01*
X76709042Y-122313509D01*
X77098369Y-122053369D01*
X77358509Y-121664042D01*
X77449858Y-121204800D01*
X77358509Y-120745558D01*
X77098369Y-120356231D01*
X76709042Y-120096091D01*
X76365720Y-120027800D01*
X76133880Y-120027800D01*
X75790558Y-120096091D01*
X75401231Y-120356231D01*
X75141091Y-120745558D01*
X75049742Y-121204800D01*
X49193040Y-121204800D01*
X48584725Y-119736198D01*
X48584311Y-119735028D01*
X63892800Y-119735028D01*
X63892800Y-119964572D01*
X63980643Y-120176644D01*
X64142956Y-120338957D01*
X64355028Y-120426800D01*
X64584572Y-120426800D01*
X64796644Y-120338957D01*
X64958957Y-120176644D01*
X65046800Y-119964572D01*
X65046800Y-119735028D01*
X64958957Y-119522956D01*
X64796644Y-119360643D01*
X64584572Y-119272800D01*
X64355028Y-119272800D01*
X64142956Y-119360643D01*
X63980643Y-119522956D01*
X63892800Y-119735028D01*
X48584311Y-119735028D01*
X48187522Y-118614528D01*
X72552300Y-118614528D01*
X72552300Y-118844072D01*
X72640143Y-119056144D01*
X72802456Y-119218457D01*
X73014528Y-119306300D01*
X73244072Y-119306300D01*
X73456144Y-119218457D01*
X73618457Y-119056144D01*
X73706300Y-118844072D01*
X73706300Y-118664800D01*
X75049742Y-118664800D01*
X75141091Y-119124042D01*
X75401231Y-119513369D01*
X75790558Y-119773509D01*
X76133880Y-119841800D01*
X76365720Y-119841800D01*
X76709042Y-119773509D01*
X77098369Y-119513369D01*
X77358509Y-119124042D01*
X77449858Y-118664800D01*
X77358509Y-118205558D01*
X77098369Y-117816231D01*
X76709042Y-117556091D01*
X76365720Y-117487800D01*
X76133880Y-117487800D01*
X75790558Y-117556091D01*
X75401231Y-117816231D01*
X75141091Y-118205558D01*
X75049742Y-118664800D01*
X73706300Y-118664800D01*
X73706300Y-118614528D01*
X73618457Y-118402456D01*
X73456144Y-118240143D01*
X73244072Y-118152300D01*
X73014528Y-118152300D01*
X72802456Y-118240143D01*
X72640143Y-118402456D01*
X72552300Y-118614528D01*
X48187522Y-118614528D01*
X47840662Y-117635028D01*
X58793300Y-117635028D01*
X58793300Y-117864572D01*
X58881143Y-118076644D01*
X59043456Y-118238957D01*
X59255528Y-118326800D01*
X59485072Y-118326800D01*
X59697144Y-118238957D01*
X59859457Y-118076644D01*
X59947300Y-117864572D01*
X59947300Y-117705026D01*
X61742800Y-117705026D01*
X61742800Y-117934570D01*
X61830643Y-118146642D01*
X61992956Y-118308955D01*
X62205028Y-118396798D01*
X62434572Y-118396798D01*
X62536398Y-118354620D01*
X62629988Y-118448210D01*
X62842060Y-118536053D01*
X63071604Y-118536053D01*
X63283676Y-118448210D01*
X63445989Y-118285897D01*
X63533832Y-118073825D01*
X63533832Y-117844281D01*
X63488578Y-117735028D01*
X63912800Y-117735028D01*
X63912800Y-117964572D01*
X64000643Y-118176644D01*
X64162956Y-118338957D01*
X64375028Y-118426800D01*
X64604572Y-118426800D01*
X64816644Y-118338957D01*
X64978957Y-118176644D01*
X65066800Y-117964572D01*
X65066800Y-117735028D01*
X64978957Y-117522956D01*
X64816644Y-117360643D01*
X64604572Y-117272800D01*
X64375028Y-117272800D01*
X64162956Y-117360643D01*
X64000643Y-117522956D01*
X63912800Y-117735028D01*
X63488578Y-117735028D01*
X63445989Y-117632209D01*
X63283676Y-117469896D01*
X63071604Y-117382053D01*
X62842060Y-117382053D01*
X62740234Y-117424231D01*
X62646644Y-117330641D01*
X62434572Y-117242798D01*
X62205028Y-117242798D01*
X61992956Y-117330641D01*
X61830643Y-117492954D01*
X61742800Y-117705026D01*
X59947300Y-117705026D01*
X59947300Y-117635028D01*
X59859457Y-117422956D01*
X59697144Y-117260643D01*
X59485072Y-117172800D01*
X59255528Y-117172800D01*
X59043456Y-117260643D01*
X58881143Y-117422956D01*
X58793300Y-117635028D01*
X47840662Y-117635028D01*
X47622264Y-117018293D01*
X47237695Y-115720007D01*
X65571370Y-115720007D01*
X65571370Y-115949551D01*
X65659213Y-116161623D01*
X65821526Y-116323936D01*
X66033598Y-116411779D01*
X66263142Y-116411779D01*
X66475214Y-116323936D01*
X66637527Y-116161623D01*
X66676337Y-116067928D01*
X66814759Y-116067928D01*
X67026831Y-115980085D01*
X67189144Y-115817772D01*
X67276987Y-115605700D01*
X67276987Y-115376156D01*
X67230591Y-115264145D01*
X77993683Y-115264145D01*
X77993683Y-115493689D01*
X78081526Y-115705761D01*
X78138364Y-115762599D01*
X78062800Y-115945028D01*
X78062800Y-116174572D01*
X78150643Y-116386644D01*
X78312956Y-116548957D01*
X78525028Y-116636800D01*
X78754572Y-116636800D01*
X78966644Y-116548957D01*
X79128957Y-116386644D01*
X79216800Y-116174572D01*
X79216800Y-115945028D01*
X79128957Y-115732956D01*
X79072119Y-115676118D01*
X79147683Y-115493689D01*
X79147683Y-115264145D01*
X79059840Y-115052073D01*
X78897527Y-114889760D01*
X78685455Y-114801917D01*
X78455911Y-114801917D01*
X78243839Y-114889760D01*
X78081526Y-115052073D01*
X77993683Y-115264145D01*
X67230591Y-115264145D01*
X67189144Y-115164084D01*
X67026831Y-115001771D01*
X66814759Y-114913928D01*
X66585215Y-114913928D01*
X66373143Y-115001771D01*
X66210830Y-115164084D01*
X66172020Y-115257779D01*
X66033598Y-115257779D01*
X65821526Y-115345622D01*
X65659213Y-115507935D01*
X65571370Y-115720007D01*
X47237695Y-115720007D01*
X47025909Y-115005028D01*
X47522800Y-115005028D01*
X47522800Y-115234572D01*
X47610643Y-115446644D01*
X47772956Y-115608957D01*
X47985028Y-115696800D01*
X48214572Y-115696800D01*
X48426644Y-115608957D01*
X48588957Y-115446644D01*
X48676800Y-115234572D01*
X48676800Y-115005028D01*
X48588957Y-114792956D01*
X48426644Y-114630643D01*
X48214572Y-114542800D01*
X47985028Y-114542800D01*
X47772956Y-114630643D01*
X47610643Y-114792956D01*
X47522800Y-115005028D01*
X47025909Y-115005028D01*
X46803367Y-114253741D01*
X46662030Y-113665028D01*
X49472800Y-113665028D01*
X49472800Y-113894572D01*
X49560643Y-114106644D01*
X49722956Y-114268957D01*
X49935028Y-114356800D01*
X50164572Y-114356800D01*
X50376644Y-114268957D01*
X50440573Y-114205028D01*
X56662800Y-114205028D01*
X56662800Y-114434572D01*
X56750643Y-114646644D01*
X56912956Y-114808957D01*
X57125028Y-114896800D01*
X57354572Y-114896800D01*
X57566644Y-114808957D01*
X57728957Y-114646644D01*
X57816800Y-114434572D01*
X57816800Y-114205028D01*
X57728957Y-113992956D01*
X57566644Y-113830643D01*
X57354572Y-113742800D01*
X57125028Y-113742800D01*
X56912956Y-113830643D01*
X56750643Y-113992956D01*
X56662800Y-114205028D01*
X50440573Y-114205028D01*
X50538957Y-114106644D01*
X50626800Y-113894572D01*
X50626800Y-113665032D01*
X58892804Y-113665032D01*
X58892804Y-113894576D01*
X58980647Y-114106648D01*
X59087596Y-114213597D01*
X59022800Y-114370028D01*
X59022800Y-114599572D01*
X59110643Y-114811644D01*
X59272956Y-114973957D01*
X59485028Y-115061800D01*
X59714572Y-115061800D01*
X59926644Y-114973957D01*
X60088957Y-114811644D01*
X60176800Y-114599572D01*
X60176800Y-114370028D01*
X65112800Y-114370028D01*
X65112800Y-114599572D01*
X65200643Y-114811644D01*
X65362956Y-114973957D01*
X65575028Y-115061800D01*
X65804572Y-115061800D01*
X66016644Y-114973957D01*
X66178957Y-114811644D01*
X66266800Y-114599572D01*
X66266800Y-114370028D01*
X66178957Y-114157956D01*
X66016644Y-113995643D01*
X65804572Y-113907800D01*
X65575028Y-113907800D01*
X65362956Y-113995643D01*
X65200643Y-114157956D01*
X65112800Y-114370028D01*
X60176800Y-114370028D01*
X60088957Y-114157956D01*
X59982008Y-114051007D01*
X60046804Y-113894576D01*
X60046804Y-113665032D01*
X59982601Y-113510030D01*
X67222800Y-113510030D01*
X67222800Y-113739574D01*
X67310643Y-113951646D01*
X67472956Y-114113959D01*
X67685028Y-114201802D01*
X67914572Y-114201802D01*
X68126644Y-114113959D01*
X68222800Y-114017803D01*
X68222800Y-114214574D01*
X68310643Y-114426646D01*
X68472956Y-114588959D01*
X68685028Y-114676802D01*
X68914572Y-114676802D01*
X69126644Y-114588959D01*
X69288957Y-114426646D01*
X69376800Y-114214574D01*
X69376800Y-113985030D01*
X69316730Y-113840007D01*
X76772800Y-113840007D01*
X76772800Y-114069551D01*
X76860643Y-114281623D01*
X77022956Y-114443936D01*
X77235028Y-114531779D01*
X77464572Y-114531779D01*
X77676644Y-114443936D01*
X77838957Y-114281623D01*
X77846655Y-114263038D01*
X77880314Y-114276980D01*
X78109858Y-114276980D01*
X78321930Y-114189137D01*
X78484243Y-114026824D01*
X78572086Y-113814752D01*
X78572086Y-113585208D01*
X78484243Y-113373136D01*
X78321930Y-113210823D01*
X78109858Y-113122980D01*
X77880314Y-113122980D01*
X77668242Y-113210823D01*
X77505929Y-113373136D01*
X77498231Y-113391721D01*
X77464572Y-113377779D01*
X77235028Y-113377779D01*
X77022956Y-113465622D01*
X76860643Y-113627935D01*
X76772800Y-113840007D01*
X69316730Y-113840007D01*
X69288957Y-113772958D01*
X69126644Y-113610645D01*
X68914572Y-113522802D01*
X68685028Y-113522802D01*
X68472956Y-113610645D01*
X68376800Y-113706801D01*
X68376800Y-113510030D01*
X68288957Y-113297958D01*
X68126644Y-113135645D01*
X67914572Y-113047802D01*
X67685028Y-113047802D01*
X67472956Y-113135645D01*
X67310643Y-113297958D01*
X67222800Y-113510030D01*
X59982601Y-113510030D01*
X59958961Y-113452960D01*
X59796648Y-113290647D01*
X59584576Y-113202804D01*
X59355032Y-113202804D01*
X59142960Y-113290647D01*
X58980647Y-113452960D01*
X58892804Y-113665032D01*
X50626800Y-113665032D01*
X50626800Y-113665028D01*
X50538957Y-113452956D01*
X50376644Y-113290643D01*
X50164572Y-113202800D01*
X49935028Y-113202800D01*
X49722956Y-113290643D01*
X49560643Y-113452956D01*
X49472800Y-113665028D01*
X46662030Y-113665028D01*
X46419551Y-112655028D01*
X55622800Y-112655028D01*
X55622800Y-112884572D01*
X55710643Y-113096644D01*
X55872956Y-113258957D01*
X56085028Y-113346800D01*
X56314572Y-113346800D01*
X56526644Y-113258957D01*
X56688957Y-113096644D01*
X56776800Y-112884572D01*
X56776800Y-112655028D01*
X56688957Y-112442956D01*
X56526644Y-112280643D01*
X56314572Y-112192800D01*
X56085028Y-112192800D01*
X55872956Y-112280643D01*
X55710643Y-112442956D01*
X55622800Y-112655028D01*
X46419551Y-112655028D01*
X46130277Y-111450121D01*
X46062612Y-111085028D01*
X55522800Y-111085028D01*
X55522800Y-111314572D01*
X55610643Y-111526644D01*
X55772956Y-111688957D01*
X55985028Y-111776800D01*
X56214572Y-111776800D01*
X56426644Y-111688957D01*
X56555563Y-111560038D01*
X61322800Y-111560038D01*
X61322800Y-111789582D01*
X61410643Y-112001654D01*
X61572956Y-112163967D01*
X61785028Y-112251810D01*
X62014572Y-112251810D01*
X62226644Y-112163967D01*
X62388957Y-112001654D01*
X62476800Y-111789582D01*
X62476800Y-111560038D01*
X62388957Y-111347966D01*
X62226644Y-111185653D01*
X62014572Y-111097810D01*
X61785028Y-111097810D01*
X61572956Y-111185653D01*
X61410643Y-111347966D01*
X61322800Y-111560038D01*
X56555563Y-111560038D01*
X56588957Y-111526644D01*
X56676800Y-111314572D01*
X56676800Y-111085028D01*
X56588957Y-110872956D01*
X56426644Y-110710643D01*
X56364804Y-110685028D01*
X58822796Y-110685028D01*
X58822796Y-110914572D01*
X58910639Y-111126644D01*
X59072952Y-111288957D01*
X59285024Y-111376800D01*
X59514568Y-111376800D01*
X59726640Y-111288957D01*
X59888953Y-111126644D01*
X59976796Y-110914572D01*
X59976796Y-110685028D01*
X59945731Y-110610028D01*
X67322800Y-110610028D01*
X67322800Y-110839572D01*
X67410643Y-111051644D01*
X67572956Y-111213957D01*
X67785028Y-111301800D01*
X68014572Y-111301800D01*
X68129336Y-111254263D01*
X68010643Y-111372956D01*
X67922800Y-111585028D01*
X67922800Y-111814572D01*
X68010643Y-112026644D01*
X68172956Y-112188957D01*
X68328859Y-112253534D01*
X68328859Y-112322146D01*
X68396984Y-112486613D01*
X68310643Y-112572954D01*
X68222800Y-112785026D01*
X68222800Y-113014570D01*
X68310643Y-113226642D01*
X68472956Y-113388955D01*
X68685028Y-113476798D01*
X68914572Y-113476798D01*
X69126644Y-113388955D01*
X69288957Y-113226642D01*
X69376800Y-113014570D01*
X69376800Y-112785026D01*
X69308675Y-112620559D01*
X69395016Y-112534218D01*
X69482859Y-112322146D01*
X69482859Y-112092602D01*
X69446179Y-112004047D01*
X70185709Y-112004047D01*
X70185709Y-112233591D01*
X70273552Y-112445663D01*
X70435865Y-112607976D01*
X70647937Y-112695819D01*
X70877481Y-112695819D01*
X71065824Y-112617805D01*
X70910673Y-112772956D01*
X70822830Y-112985028D01*
X70822830Y-113214572D01*
X70910673Y-113426644D01*
X71072986Y-113588957D01*
X71285058Y-113676800D01*
X71514602Y-113676800D01*
X71726674Y-113588957D01*
X71888987Y-113426644D01*
X71976830Y-113214572D01*
X71976830Y-112985028D01*
X71888987Y-112772956D01*
X71726674Y-112610643D01*
X71514602Y-112522800D01*
X71285058Y-112522800D01*
X71096715Y-112600814D01*
X71251866Y-112445663D01*
X71339709Y-112233591D01*
X71339709Y-112004047D01*
X71251866Y-111791975D01*
X71089553Y-111629662D01*
X70877481Y-111541819D01*
X70647937Y-111541819D01*
X70435865Y-111629662D01*
X70273552Y-111791975D01*
X70185709Y-112004047D01*
X69446179Y-112004047D01*
X69395016Y-111880530D01*
X69232703Y-111718217D01*
X69076800Y-111653640D01*
X69076800Y-111585028D01*
X68988957Y-111372956D01*
X68826644Y-111210643D01*
X68614572Y-111122800D01*
X68385028Y-111122800D01*
X68270264Y-111170337D01*
X68388957Y-111051644D01*
X68476800Y-110839572D01*
X68476800Y-110610028D01*
X68476650Y-110609665D01*
X68526644Y-110588957D01*
X68688957Y-110426644D01*
X68776800Y-110214572D01*
X68776800Y-110140306D01*
X68961072Y-110063978D01*
X69123385Y-109901665D01*
X69211228Y-109689593D01*
X69211228Y-109584124D01*
X70247790Y-109584124D01*
X70247790Y-109813668D01*
X70335633Y-110025740D01*
X70497946Y-110188053D01*
X70525215Y-110199348D01*
X70497946Y-110210643D01*
X70335633Y-110372956D01*
X70247790Y-110585028D01*
X70247790Y-110814572D01*
X70335633Y-111026644D01*
X70497946Y-111188957D01*
X70710018Y-111276800D01*
X70939562Y-111276800D01*
X71151634Y-111188957D01*
X71255563Y-111085028D01*
X73222800Y-111085028D01*
X73222800Y-111314572D01*
X73310643Y-111526644D01*
X73472956Y-111688957D01*
X73685028Y-111776800D01*
X73914572Y-111776800D01*
X74126644Y-111688957D01*
X74288957Y-111526644D01*
X74376800Y-111314572D01*
X74376800Y-111085028D01*
X74288957Y-110872956D01*
X74126644Y-110710643D01*
X73914572Y-110622800D01*
X73685028Y-110622800D01*
X73472956Y-110710643D01*
X73310643Y-110872956D01*
X73222800Y-111085028D01*
X71255563Y-111085028D01*
X71313947Y-111026644D01*
X71401790Y-110814572D01*
X71401790Y-110585028D01*
X71313947Y-110372956D01*
X71151634Y-110210643D01*
X71124365Y-110199348D01*
X71151634Y-110188053D01*
X71313947Y-110025740D01*
X71401790Y-109813668D01*
X71401790Y-109584124D01*
X71313947Y-109372052D01*
X71151634Y-109209739D01*
X70939562Y-109121896D01*
X70710018Y-109121896D01*
X70497946Y-109209739D01*
X70335633Y-109372052D01*
X70247790Y-109584124D01*
X69211228Y-109584124D01*
X69211228Y-109460049D01*
X69123385Y-109247977D01*
X68961072Y-109085664D01*
X68749000Y-108997821D01*
X68519456Y-108997821D01*
X68307384Y-109085664D01*
X68145071Y-109247977D01*
X68057228Y-109460049D01*
X68057228Y-109534315D01*
X67872956Y-109610643D01*
X67710643Y-109772956D01*
X67622800Y-109985028D01*
X67622800Y-110214572D01*
X67622950Y-110214935D01*
X67572956Y-110235643D01*
X67410643Y-110397956D01*
X67322800Y-110610028D01*
X59945731Y-110610028D01*
X59888953Y-110472956D01*
X59726640Y-110310643D01*
X59514568Y-110222800D01*
X59285024Y-110222800D01*
X59072952Y-110310643D01*
X58910639Y-110472956D01*
X58822796Y-110685028D01*
X56364804Y-110685028D01*
X56214572Y-110622800D01*
X55985028Y-110622800D01*
X55772956Y-110710643D01*
X55610643Y-110872956D01*
X55522800Y-111085028D01*
X46062612Y-111085028D01*
X45604840Y-108615115D01*
X45482392Y-107685028D01*
X50322800Y-107685028D01*
X50322800Y-107914572D01*
X50410643Y-108126644D01*
X50433799Y-108149800D01*
X50410643Y-108172956D01*
X50322800Y-108385028D01*
X50322800Y-108614572D01*
X50410643Y-108826644D01*
X50572956Y-108988957D01*
X50785028Y-109076800D01*
X51014572Y-109076800D01*
X51226644Y-108988957D01*
X51388957Y-108826644D01*
X51476800Y-108614572D01*
X51476800Y-108415028D01*
X55422790Y-108415028D01*
X55422790Y-108644572D01*
X55510633Y-108856644D01*
X55672946Y-109018957D01*
X55885018Y-109106800D01*
X56114562Y-109106800D01*
X56326634Y-109018957D01*
X56488947Y-108856644D01*
X56576790Y-108644572D01*
X56576790Y-108415028D01*
X56488947Y-108202956D01*
X56471019Y-108185028D01*
X56722789Y-108185028D01*
X56722789Y-108414572D01*
X56810632Y-108626644D01*
X56868834Y-108684846D01*
X56810633Y-108743047D01*
X56722790Y-108955119D01*
X56722790Y-109184663D01*
X56809872Y-109394897D01*
X56722790Y-109605132D01*
X56722790Y-109834676D01*
X56810633Y-110046748D01*
X56972946Y-110209061D01*
X57185018Y-110296904D01*
X57414562Y-110296904D01*
X57626634Y-110209061D01*
X57788947Y-110046748D01*
X57876790Y-109834676D01*
X57876790Y-109605132D01*
X57789708Y-109394897D01*
X57876790Y-109184663D01*
X57876790Y-108955119D01*
X57788947Y-108743047D01*
X57730745Y-108684845D01*
X57771566Y-108644024D01*
X58653563Y-108644024D01*
X58653563Y-108873568D01*
X58741406Y-109085640D01*
X58903719Y-109247953D01*
X59115791Y-109335796D01*
X59345335Y-109335796D01*
X59557407Y-109247953D01*
X59719720Y-109085640D01*
X59807563Y-108873568D01*
X59807563Y-108644024D01*
X59757740Y-108523741D01*
X59872956Y-108638957D01*
X60085028Y-108726800D01*
X60314572Y-108726800D01*
X60526644Y-108638957D01*
X60688957Y-108476644D01*
X60747621Y-108335015D01*
X63022800Y-108335015D01*
X63022800Y-108564559D01*
X63109882Y-108774794D01*
X63022800Y-108985028D01*
X63022800Y-109214572D01*
X63110643Y-109426644D01*
X63272956Y-109588957D01*
X63485028Y-109676800D01*
X63714572Y-109676800D01*
X63926644Y-109588957D01*
X64088957Y-109426644D01*
X64176800Y-109214572D01*
X64176800Y-108985028D01*
X64089718Y-108774794D01*
X64176800Y-108564559D01*
X64176800Y-108335015D01*
X64088957Y-108122943D01*
X63926644Y-107960630D01*
X63744125Y-107885028D01*
X67947779Y-107885028D01*
X67947779Y-108114572D01*
X68035622Y-108326644D01*
X68197935Y-108488957D01*
X68410007Y-108576800D01*
X68639551Y-108576800D01*
X68851623Y-108488957D01*
X69013936Y-108326644D01*
X69014776Y-108324616D01*
X73193212Y-108324616D01*
X73193212Y-108554160D01*
X73281055Y-108766232D01*
X73443368Y-108928545D01*
X73655440Y-109016388D01*
X73884984Y-109016388D01*
X74097056Y-108928545D01*
X74259369Y-108766232D01*
X74347212Y-108554160D01*
X74347212Y-108324616D01*
X74259369Y-108112544D01*
X74097056Y-107950231D01*
X73884984Y-107862388D01*
X73655440Y-107862388D01*
X73443368Y-107950231D01*
X73281055Y-108112544D01*
X73193212Y-108324616D01*
X69014776Y-108324616D01*
X69101779Y-108114572D01*
X69101779Y-107885028D01*
X69013936Y-107672956D01*
X68851623Y-107510643D01*
X68639551Y-107422800D01*
X68410007Y-107422800D01*
X68197935Y-107510643D01*
X68035622Y-107672956D01*
X67947779Y-107885028D01*
X63744125Y-107885028D01*
X63714572Y-107872787D01*
X63485028Y-107872787D01*
X63272956Y-107960630D01*
X63110643Y-108122943D01*
X63022800Y-108335015D01*
X60747621Y-108335015D01*
X60776800Y-108264572D01*
X60776800Y-108035028D01*
X60742382Y-107951936D01*
X60847943Y-107846375D01*
X60935786Y-107634303D01*
X60935786Y-107404759D01*
X60847943Y-107192687D01*
X60685630Y-107030374D01*
X60473558Y-106942531D01*
X60244014Y-106942531D01*
X60031942Y-107030374D01*
X59869629Y-107192687D01*
X59781786Y-107404759D01*
X59781786Y-107634303D01*
X59816204Y-107717395D01*
X59710643Y-107822956D01*
X59622800Y-108035028D01*
X59622800Y-108264572D01*
X59672623Y-108384855D01*
X59557407Y-108269639D01*
X59345335Y-108181796D01*
X59115791Y-108181796D01*
X58903719Y-108269639D01*
X58741406Y-108431952D01*
X58653563Y-108644024D01*
X57771566Y-108644024D01*
X57788946Y-108626644D01*
X57876789Y-108414572D01*
X57876789Y-108185028D01*
X57788946Y-107972956D01*
X57715796Y-107899806D01*
X57788957Y-107826644D01*
X57876800Y-107614572D01*
X57876800Y-107385028D01*
X57788957Y-107172956D01*
X57626644Y-107010643D01*
X57414572Y-106922800D01*
X57185028Y-106922800D01*
X56972956Y-107010643D01*
X56810643Y-107172956D01*
X56722800Y-107385028D01*
X56722800Y-107614572D01*
X56810643Y-107826644D01*
X56883794Y-107899795D01*
X56810632Y-107972956D01*
X56722789Y-108185028D01*
X56471019Y-108185028D01*
X56326634Y-108040643D01*
X56114562Y-107952800D01*
X55885018Y-107952800D01*
X55672946Y-108040643D01*
X55510633Y-108202956D01*
X55422790Y-108415028D01*
X51476800Y-108415028D01*
X51476800Y-108385028D01*
X51388957Y-108172956D01*
X51365801Y-108149800D01*
X51388957Y-108126644D01*
X51476800Y-107914572D01*
X51476800Y-107685028D01*
X51388957Y-107472956D01*
X51226644Y-107310643D01*
X51014572Y-107222800D01*
X50785028Y-107222800D01*
X50572956Y-107310643D01*
X50410643Y-107472956D01*
X50322800Y-107685028D01*
X45482392Y-107685028D01*
X45324409Y-106485024D01*
X60722810Y-106485024D01*
X60722810Y-106714568D01*
X60810653Y-106926640D01*
X60972966Y-107088953D01*
X61185038Y-107176796D01*
X61414582Y-107176796D01*
X61626654Y-107088953D01*
X61663087Y-107052520D01*
X61832805Y-107122819D01*
X62062349Y-107122819D01*
X62274421Y-107034976D01*
X62436734Y-106872663D01*
X62524577Y-106660591D01*
X62524577Y-106533559D01*
X65612800Y-106533559D01*
X65612800Y-106763103D01*
X65700643Y-106975175D01*
X65862956Y-107137488D01*
X66075028Y-107225331D01*
X66304572Y-107225331D01*
X66516644Y-107137488D01*
X66678957Y-106975175D01*
X66679272Y-106974416D01*
X66685028Y-106976800D01*
X66914572Y-106976800D01*
X67126644Y-106888957D01*
X67180573Y-106835028D01*
X73372800Y-106835028D01*
X73372800Y-107064572D01*
X73460643Y-107276644D01*
X73622956Y-107438957D01*
X73835028Y-107526800D01*
X74064572Y-107526800D01*
X74276644Y-107438957D01*
X74438957Y-107276644D01*
X74526800Y-107064572D01*
X74526800Y-106835028D01*
X74438957Y-106622956D01*
X74276644Y-106460643D01*
X74064572Y-106372800D01*
X73835028Y-106372800D01*
X73622956Y-106460643D01*
X73460643Y-106622956D01*
X73372800Y-106835028D01*
X67180573Y-106835028D01*
X67288957Y-106726644D01*
X67376800Y-106514572D01*
X67376800Y-106285028D01*
X67288957Y-106072956D01*
X67126644Y-105910643D01*
X66914572Y-105822800D01*
X66685028Y-105822800D01*
X66472956Y-105910643D01*
X66310643Y-106072956D01*
X66310328Y-106073715D01*
X66304572Y-106071331D01*
X66075028Y-106071331D01*
X65862956Y-106159174D01*
X65700643Y-106321487D01*
X65612800Y-106533559D01*
X62524577Y-106533559D01*
X62524577Y-106431047D01*
X62436734Y-106218975D01*
X62274421Y-106056662D01*
X62062349Y-105968819D01*
X61832805Y-105968819D01*
X61620733Y-106056662D01*
X61584300Y-106093095D01*
X61414582Y-106022796D01*
X61185038Y-106022796D01*
X60972966Y-106110639D01*
X60810653Y-106272952D01*
X60722810Y-106485024D01*
X45324409Y-106485024D01*
X45228496Y-105756496D01*
X45199262Y-105385028D01*
X67747779Y-105385028D01*
X67747779Y-105614572D01*
X67835622Y-105826644D01*
X67997935Y-105988957D01*
X68210007Y-106076800D01*
X68439551Y-106076800D01*
X68651623Y-105988957D01*
X68813936Y-105826644D01*
X68901779Y-105614572D01*
X68901779Y-105385028D01*
X68813936Y-105172956D01*
X68651623Y-105010643D01*
X68439551Y-104922800D01*
X68210007Y-104922800D01*
X67997935Y-105010643D01*
X67835622Y-105172956D01*
X67747779Y-105385028D01*
X45199262Y-105385028D01*
X45112690Y-104285028D01*
X62222800Y-104285028D01*
X62222800Y-104514572D01*
X62310643Y-104726644D01*
X62472956Y-104888957D01*
X62685028Y-104976800D01*
X62914572Y-104976800D01*
X63126644Y-104888957D01*
X63130573Y-104885028D01*
X73912800Y-104885028D01*
X73912800Y-105114572D01*
X74000643Y-105326644D01*
X74162956Y-105488957D01*
X74375028Y-105576800D01*
X74604572Y-105576800D01*
X74816644Y-105488957D01*
X74978957Y-105326644D01*
X75066800Y-105114572D01*
X75066800Y-104885028D01*
X74978957Y-104672956D01*
X74816644Y-104510643D01*
X74604572Y-104422800D01*
X74375028Y-104422800D01*
X74162956Y-104510643D01*
X74000643Y-104672956D01*
X73912800Y-104885028D01*
X63130573Y-104885028D01*
X63288957Y-104726644D01*
X63376800Y-104514572D01*
X63376800Y-104285028D01*
X63288957Y-104072956D01*
X63184415Y-103968414D01*
X64822810Y-103968414D01*
X64822810Y-104197958D01*
X64910653Y-104410030D01*
X65072966Y-104572343D01*
X65285038Y-104660186D01*
X65514582Y-104660186D01*
X65726654Y-104572343D01*
X65888967Y-104410030D01*
X65976810Y-104197958D01*
X65976810Y-103968414D01*
X65888967Y-103756342D01*
X65726654Y-103594029D01*
X65514582Y-103506186D01*
X65285038Y-103506186D01*
X65072966Y-103594029D01*
X64910653Y-103756342D01*
X64822810Y-103968414D01*
X63184415Y-103968414D01*
X63126644Y-103910643D01*
X62914572Y-103822800D01*
X62685028Y-103822800D01*
X62472956Y-103910643D01*
X62310643Y-104072956D01*
X62222800Y-104285028D01*
X45112690Y-104285028D01*
X45002507Y-102885028D01*
X58822800Y-102885028D01*
X58822800Y-103114572D01*
X58910643Y-103326644D01*
X59072956Y-103488957D01*
X59285028Y-103576800D01*
X59514572Y-103576800D01*
X59726644Y-103488957D01*
X59888957Y-103326644D01*
X59976800Y-103114572D01*
X59976800Y-102885028D01*
X59966497Y-102860152D01*
X65922780Y-102860152D01*
X65922780Y-103089696D01*
X66010623Y-103301768D01*
X66172936Y-103464081D01*
X66385008Y-103551924D01*
X66614552Y-103551924D01*
X66826624Y-103464081D01*
X66988937Y-103301768D01*
X67076780Y-103089696D01*
X67076780Y-102860152D01*
X66988937Y-102648080D01*
X66826624Y-102485767D01*
X66614552Y-102397924D01*
X66385008Y-102397924D01*
X66172936Y-102485767D01*
X66010623Y-102648080D01*
X65922780Y-102860152D01*
X59966497Y-102860152D01*
X59888957Y-102672956D01*
X59726644Y-102510643D01*
X59514572Y-102422800D01*
X59285028Y-102422800D01*
X59072956Y-102510643D01*
X58910643Y-102672956D01*
X58822800Y-102885028D01*
X45002507Y-102885028D01*
X45002276Y-102882098D01*
X44965693Y-101485034D01*
X48222800Y-101485034D01*
X48222800Y-101714578D01*
X48310643Y-101926650D01*
X48472956Y-102088963D01*
X48685028Y-102176806D01*
X48914572Y-102176806D01*
X49126644Y-102088963D01*
X49288957Y-101926650D01*
X49376800Y-101714578D01*
X49376800Y-101485034D01*
X49288957Y-101272962D01*
X49126644Y-101110649D01*
X48914572Y-101022806D01*
X48685028Y-101022806D01*
X48472956Y-101110649D01*
X48310643Y-101272962D01*
X48222800Y-101485034D01*
X44965693Y-101485034D01*
X44926800Y-99999800D01*
X44942898Y-99385028D01*
X54322796Y-99385028D01*
X54322796Y-99614572D01*
X54410639Y-99826644D01*
X54572952Y-99988957D01*
X54785024Y-100076800D01*
X55014568Y-100076800D01*
X55226640Y-99988957D01*
X55388953Y-99826644D01*
X55476796Y-99614572D01*
X55476796Y-99385028D01*
X55435375Y-99285028D01*
X69692800Y-99285028D01*
X69692800Y-99514572D01*
X69780643Y-99726644D01*
X69942956Y-99888957D01*
X70155028Y-99976800D01*
X70384572Y-99976800D01*
X70596644Y-99888957D01*
X70758957Y-99726644D01*
X70846800Y-99514572D01*
X70846800Y-99385028D01*
X72522800Y-99385028D01*
X72522800Y-99614572D01*
X72610643Y-99826644D01*
X72772956Y-99988957D01*
X72985028Y-100076800D01*
X73214572Y-100076800D01*
X73426644Y-99988957D01*
X73588957Y-99826644D01*
X73676800Y-99614572D01*
X73676800Y-99385028D01*
X73588957Y-99172956D01*
X73426644Y-99010643D01*
X73214572Y-98922800D01*
X72985028Y-98922800D01*
X72772956Y-99010643D01*
X72610643Y-99172956D01*
X72522800Y-99385028D01*
X70846800Y-99385028D01*
X70846800Y-99285028D01*
X70758957Y-99072956D01*
X70596644Y-98910643D01*
X70384572Y-98822800D01*
X70155028Y-98822800D01*
X69942956Y-98910643D01*
X69780643Y-99072956D01*
X69692800Y-99285028D01*
X55435375Y-99285028D01*
X55388953Y-99172956D01*
X55226640Y-99010643D01*
X55014568Y-98922800D01*
X54785024Y-98922800D01*
X54572952Y-99010643D01*
X54410639Y-99172956D01*
X54322796Y-99385028D01*
X44942898Y-99385028D01*
X44971702Y-98285028D01*
X65322820Y-98285028D01*
X65322820Y-98514572D01*
X65410663Y-98726644D01*
X65572976Y-98888957D01*
X65785048Y-98976800D01*
X66014592Y-98976800D01*
X66226664Y-98888957D01*
X66388977Y-98726644D01*
X66476820Y-98514572D01*
X66476820Y-98285028D01*
X66388977Y-98072956D01*
X66226664Y-97910643D01*
X66014592Y-97822800D01*
X65785048Y-97822800D01*
X65572976Y-97910643D01*
X65410663Y-98072956D01*
X65322820Y-98285028D01*
X44971702Y-98285028D01*
X44997889Y-97285028D01*
X48322800Y-97285028D01*
X48322800Y-97514572D01*
X48410643Y-97726644D01*
X48572956Y-97888957D01*
X48785028Y-97976800D01*
X49014572Y-97976800D01*
X49226644Y-97888957D01*
X49388957Y-97726644D01*
X49476800Y-97514572D01*
X49476800Y-97485028D01*
X57522804Y-97485028D01*
X57522804Y-97714572D01*
X57610647Y-97926644D01*
X57772960Y-98088957D01*
X57985032Y-98176800D01*
X58214576Y-98176800D01*
X58426648Y-98088957D01*
X58588961Y-97926644D01*
X58676804Y-97714572D01*
X58676804Y-97485028D01*
X58588961Y-97272956D01*
X58506929Y-97190924D01*
X66725780Y-97190924D01*
X66725780Y-97420468D01*
X66813623Y-97632540D01*
X66975936Y-97794853D01*
X67188008Y-97882696D01*
X67417552Y-97882696D01*
X67629624Y-97794853D01*
X67791937Y-97632540D01*
X67879780Y-97420468D01*
X67879780Y-97190924D01*
X67791937Y-96978852D01*
X67629624Y-96816539D01*
X67417552Y-96728696D01*
X67188008Y-96728696D01*
X66975936Y-96816539D01*
X66813623Y-96978852D01*
X66725780Y-97190924D01*
X58506929Y-97190924D01*
X58426648Y-97110643D01*
X58214576Y-97022800D01*
X57985032Y-97022800D01*
X57772960Y-97110643D01*
X57610647Y-97272956D01*
X57522804Y-97485028D01*
X49476800Y-97485028D01*
X49476800Y-97285028D01*
X49388957Y-97072956D01*
X49226644Y-96910643D01*
X49014572Y-96822800D01*
X48785028Y-96822800D01*
X48572956Y-96910643D01*
X48410643Y-97072956D01*
X48322800Y-97285028D01*
X44997889Y-97285028D01*
X45002276Y-97117502D01*
X45228496Y-94243104D01*
X45270700Y-93922528D01*
X50222800Y-93922528D01*
X50222800Y-94152072D01*
X50310643Y-94364144D01*
X50472956Y-94526457D01*
X50685028Y-94614300D01*
X50914572Y-94614300D01*
X51000209Y-94578828D01*
X60222800Y-94578828D01*
X60222800Y-94808372D01*
X60310643Y-95020444D01*
X60472956Y-95182757D01*
X60685028Y-95270600D01*
X60914572Y-95270600D01*
X61126644Y-95182757D01*
X61288957Y-95020444D01*
X61376800Y-94808372D01*
X61376800Y-94578828D01*
X61288957Y-94366756D01*
X61126644Y-94204443D01*
X61079772Y-94185028D01*
X70922800Y-94185028D01*
X70922800Y-94414572D01*
X71010643Y-94626644D01*
X71172956Y-94788957D01*
X71385028Y-94876800D01*
X71614572Y-94876800D01*
X71826644Y-94788957D01*
X71988957Y-94626644D01*
X72076800Y-94414572D01*
X72076800Y-94185028D01*
X71988957Y-93972956D01*
X71826644Y-93810643D01*
X71614572Y-93722800D01*
X71385028Y-93722800D01*
X71172956Y-93810643D01*
X71010643Y-93972956D01*
X70922800Y-94185028D01*
X61079772Y-94185028D01*
X60914572Y-94116600D01*
X60685028Y-94116600D01*
X60472956Y-94204443D01*
X60310643Y-94366756D01*
X60222800Y-94578828D01*
X51000209Y-94578828D01*
X51126644Y-94526457D01*
X51288957Y-94364144D01*
X51376800Y-94152072D01*
X51376800Y-93922528D01*
X51288957Y-93710456D01*
X51126644Y-93548143D01*
X50914572Y-93460300D01*
X50685028Y-93460300D01*
X50472956Y-93548143D01*
X50310643Y-93710456D01*
X50222800Y-93922528D01*
X45270700Y-93922528D01*
X45486281Y-92285028D01*
X64822800Y-92285028D01*
X64822800Y-92514572D01*
X64910643Y-92726644D01*
X65072956Y-92888957D01*
X65285028Y-92976800D01*
X65514572Y-92976800D01*
X65726644Y-92888957D01*
X65888957Y-92726644D01*
X65976800Y-92514572D01*
X65976800Y-92285028D01*
X65888957Y-92072956D01*
X65726644Y-91910643D01*
X65514572Y-91822800D01*
X65285028Y-91822800D01*
X65072956Y-91910643D01*
X64910643Y-92072956D01*
X64822800Y-92285028D01*
X45486281Y-92285028D01*
X45604840Y-91384485D01*
X46130277Y-88549479D01*
X46447824Y-87226800D01*
X78584359Y-87226800D01*
X77772060Y-88674299D01*
G36*
X144972800Y-123823000D02*
X144217004Y-123823000D01*
X143508750Y-124116368D01*
X142966676Y-124658442D01*
X142673308Y-125366696D01*
X142673308Y-126133304D01*
X142966676Y-126841558D01*
X143205942Y-127080824D01*
X128359732Y-127143731D01*
X128226644Y-127010643D01*
X128014572Y-126922800D01*
X127785028Y-126922800D01*
X127572956Y-127010643D01*
X127435953Y-127147646D01*
X121499262Y-127172801D01*
X121450702Y-127182674D01*
X121409618Y-127210379D01*
X121382262Y-127251697D01*
X121372800Y-127299800D01*
X121372800Y-146872800D01*
X113626800Y-146872800D01*
X113626800Y-140785028D01*
X116422800Y-140785028D01*
X116422800Y-141014572D01*
X116510643Y-141226644D01*
X116672956Y-141388957D01*
X116885028Y-141476800D01*
X117114572Y-141476800D01*
X117326644Y-141388957D01*
X117488957Y-141226644D01*
X117576800Y-141014572D01*
X117576800Y-140785028D01*
X117488957Y-140572956D01*
X117326644Y-140410643D01*
X117114572Y-140322800D01*
X116885028Y-140322800D01*
X116672956Y-140410643D01*
X116510643Y-140572956D01*
X116422800Y-140785028D01*
X113626800Y-140785028D01*
X113626800Y-123026800D01*
X122872800Y-123026800D01*
X122872800Y-123199800D01*
X122882467Y-123248401D01*
X122909997Y-123289603D01*
X122951199Y-123317133D01*
X122999800Y-123326800D01*
X133499800Y-123326800D01*
X133502290Y-123326776D01*
X138602290Y-123226776D01*
X138648401Y-123217133D01*
X138689603Y-123189603D01*
X138717133Y-123148401D01*
X138726800Y-123099800D01*
X138726800Y-123026800D01*
X140149800Y-123026800D01*
X140198401Y-123017133D01*
X140239603Y-122989603D01*
X140267133Y-122948401D01*
X140276800Y-122899800D01*
X140276800Y-106526800D01*
X144972800Y-106526800D01*
X144972800Y-123823000D01*
X144972800Y-123823000D01*
G37*
X144972800Y-123823000D02*
X144217004Y-123823000D01*
X143508750Y-124116368D01*
X142966676Y-124658442D01*
X142673308Y-125366696D01*
X142673308Y-126133304D01*
X142966676Y-126841558D01*
X143205942Y-127080824D01*
X128359732Y-127143731D01*
X128226644Y-127010643D01*
X128014572Y-126922800D01*
X127785028Y-126922800D01*
X127572956Y-127010643D01*
X127435953Y-127147646D01*
X121499262Y-127172801D01*
X121450702Y-127182674D01*
X121409618Y-127210379D01*
X121382262Y-127251697D01*
X121372800Y-127299800D01*
X121372800Y-146872800D01*
X113626800Y-146872800D01*
X113626800Y-140785028D01*
X116422800Y-140785028D01*
X116422800Y-141014572D01*
X116510643Y-141226644D01*
X116672956Y-141388957D01*
X116885028Y-141476800D01*
X117114572Y-141476800D01*
X117326644Y-141388957D01*
X117488957Y-141226644D01*
X117576800Y-141014572D01*
X117576800Y-140785028D01*
X117488957Y-140572956D01*
X117326644Y-140410643D01*
X117114572Y-140322800D01*
X116885028Y-140322800D01*
X116672956Y-140410643D01*
X116510643Y-140572956D01*
X116422800Y-140785028D01*
X113626800Y-140785028D01*
X113626800Y-123026800D01*
X122872800Y-123026800D01*
X122872800Y-123199800D01*
X122882467Y-123248401D01*
X122909997Y-123289603D01*
X122951199Y-123317133D01*
X122999800Y-123326800D01*
X133499800Y-123326800D01*
X133502290Y-123326776D01*
X138602290Y-123226776D01*
X138648401Y-123217133D01*
X138689603Y-123189603D01*
X138717133Y-123148401D01*
X138726800Y-123099800D01*
X138726800Y-123026800D01*
X140149800Y-123026800D01*
X140198401Y-123017133D01*
X140239603Y-122989603D01*
X140267133Y-122948401D01*
X140276800Y-122899800D01*
X140276800Y-106526800D01*
X144972800Y-106526800D01*
X144972800Y-123823000D01*
M02*
