%TF.GenerationSoftware,KiCad,Pcbnew,5.0.2-bee76a0~70~ubuntu18.04.1*%
%TF.CreationDate,2020-08-20T12:10:36+02:00*%
%TF.ProjectId,gsvesc,67737665-7363-42e6-9b69-6361645f7063,rev?*%
%TF.SameCoordinates,Original*%
%TF.FileFunction,Soldermask,Bot*%
%TF.FilePolarity,Negative*%
%FSLAX46Y46*%
G04 Gerber Fmt 4.6, Leading zero omitted, Abs format (unit mm)*
G04 Created by KiCad (PCBNEW 5.0.2-bee76a0~70~ubuntu18.04.1) date Do 20 Aug 2020 12:10:36 CEST*
%MOMM*%
%LPD*%
G01*
G04 APERTURE LIST*
%ADD10C,0.200000*%
%ADD11C,0.100000*%
G04 APERTURE END LIST*
D10*
X155499800Y-99999800D02*
G75*
G03X155499800Y-99999800I-55500000J0D01*
G01*
X124500000Y-100000000D02*
G75*
G03X124500000Y-100000000I-24500000J0D01*
G01*
D11*
G36*
X64120250Y-135979753D02*
X64120252Y-135979754D01*
X64120253Y-135979754D01*
X64297873Y-136053326D01*
X64297874Y-136053327D01*
X64457730Y-136160140D01*
X64593670Y-136296080D01*
X64593672Y-136296083D01*
X64700484Y-136455937D01*
X64774056Y-136633557D01*
X64811564Y-136822118D01*
X64811564Y-137014374D01*
X64774056Y-137202935D01*
X64700484Y-137380555D01*
X64700483Y-137380556D01*
X64593670Y-137540412D01*
X64457730Y-137676352D01*
X64457727Y-137676354D01*
X64297873Y-137783166D01*
X64120253Y-137856738D01*
X64120252Y-137856738D01*
X64120250Y-137856739D01*
X63931693Y-137894246D01*
X63739435Y-137894246D01*
X63550878Y-137856739D01*
X63550876Y-137856738D01*
X63550875Y-137856738D01*
X63373255Y-137783166D01*
X63213401Y-137676354D01*
X63213398Y-137676352D01*
X63077458Y-137540412D01*
X62970645Y-137380556D01*
X62970644Y-137380555D01*
X62897072Y-137202935D01*
X62859564Y-137014374D01*
X62859564Y-136822118D01*
X62897072Y-136633557D01*
X62970644Y-136455937D01*
X63077456Y-136296083D01*
X63077458Y-136296080D01*
X63213398Y-136160140D01*
X63373254Y-136053327D01*
X63373255Y-136053326D01*
X63550875Y-135979754D01*
X63550876Y-135979754D01*
X63550878Y-135979753D01*
X63739435Y-135942246D01*
X63931693Y-135942246D01*
X64120250Y-135979753D01*
X64120250Y-135979753D01*
G37*
G36*
X62595396Y-133769725D02*
X62681112Y-133805229D01*
X62758258Y-133856777D01*
X62823858Y-133922377D01*
X62875406Y-133999523D01*
X62910910Y-134085239D01*
X62929010Y-134176234D01*
X62929010Y-134269016D01*
X62910910Y-134360011D01*
X62875406Y-134445727D01*
X62823858Y-134522873D01*
X62758258Y-134588473D01*
X62681112Y-134640021D01*
X62595396Y-134675525D01*
X62504401Y-134693625D01*
X62451015Y-134693625D01*
X62426629Y-134696027D01*
X62403180Y-134703140D01*
X62381569Y-134714691D01*
X62362627Y-134730237D01*
X62347081Y-134749179D01*
X62335530Y-134770790D01*
X62328417Y-134794239D01*
X62326015Y-134818625D01*
X62328417Y-134843011D01*
X62335530Y-134866460D01*
X62347081Y-134888071D01*
X62358122Y-134902266D01*
X62814982Y-135409660D01*
X62814982Y-135409661D01*
X62446617Y-135741338D01*
X62114940Y-136039982D01*
X62114939Y-136039982D01*
X61783262Y-135671617D01*
X61484618Y-135339940D01*
X61484618Y-135339939D01*
X62136366Y-134753103D01*
X62152881Y-134735002D01*
X62165547Y-134714025D01*
X62173878Y-134690980D01*
X62177553Y-134666753D01*
X62176430Y-134642274D01*
X62170554Y-134618485D01*
X62160150Y-134596299D01*
X62141112Y-134571823D01*
X62092162Y-134522873D01*
X62040614Y-134445727D01*
X62005110Y-134360011D01*
X61998528Y-134326920D01*
X61991415Y-134303471D01*
X61985746Y-134292865D01*
X61987010Y-134280031D01*
X61987010Y-134176234D01*
X62005110Y-134085239D01*
X62040614Y-133999523D01*
X62092162Y-133922377D01*
X62157762Y-133856777D01*
X62234908Y-133805229D01*
X62320624Y-133769725D01*
X62411619Y-133751625D01*
X62504401Y-133751625D01*
X62595396Y-133769725D01*
X62595396Y-133769725D01*
G37*
G36*
X61381222Y-133948633D02*
X61405602Y-133951034D01*
X61407436Y-133950853D01*
X61414632Y-133954700D01*
X61503031Y-133991316D01*
X61580178Y-134042864D01*
X61645778Y-134108464D01*
X61697326Y-134185610D01*
X61732830Y-134271326D01*
X61739412Y-134304417D01*
X61746525Y-134327866D01*
X61752194Y-134338472D01*
X61750930Y-134351306D01*
X61750930Y-134455103D01*
X61732830Y-134546098D01*
X61697326Y-134631814D01*
X61645778Y-134708960D01*
X61580178Y-134774560D01*
X61503032Y-134826108D01*
X61417316Y-134861612D01*
X61326321Y-134879712D01*
X61233539Y-134879712D01*
X61142544Y-134861612D01*
X61056828Y-134826108D01*
X60979682Y-134774560D01*
X60914082Y-134708960D01*
X60862534Y-134631814D01*
X60827030Y-134546098D01*
X60808930Y-134455103D01*
X60808930Y-134362321D01*
X60827030Y-134271326D01*
X60862534Y-134185610D01*
X60914082Y-134108464D01*
X60979682Y-134042864D01*
X61056828Y-133991316D01*
X61142544Y-133955812D01*
X61233539Y-133937712D01*
X61326319Y-133937712D01*
X61381222Y-133948633D01*
X61381222Y-133948633D01*
G37*
G36*
X60547446Y-132989723D02*
X60633162Y-133025227D01*
X60710308Y-133076775D01*
X60775908Y-133142375D01*
X60827456Y-133219521D01*
X60862960Y-133305237D01*
X60869542Y-133338328D01*
X60876655Y-133361777D01*
X60882324Y-133372384D01*
X60881060Y-133385218D01*
X60881060Y-133489014D01*
X60862960Y-133580009D01*
X60827456Y-133665725D01*
X60775908Y-133742871D01*
X60710308Y-133808471D01*
X60633162Y-133860019D01*
X60547446Y-133895523D01*
X60456451Y-133913623D01*
X60363669Y-133913623D01*
X60272674Y-133895523D01*
X60186958Y-133860019D01*
X60109812Y-133808471D01*
X60044212Y-133742871D01*
X59992664Y-133665725D01*
X59957160Y-133580009D01*
X59939060Y-133489014D01*
X59939060Y-133396232D01*
X59957160Y-133305237D01*
X59992664Y-133219521D01*
X60044212Y-133142375D01*
X60109812Y-133076775D01*
X60186958Y-133025227D01*
X60272674Y-132989723D01*
X60363669Y-132971623D01*
X60456451Y-132971623D01*
X60547446Y-132989723D01*
X60547446Y-132989723D01*
G37*
G36*
X61725526Y-132803637D02*
X61811242Y-132839141D01*
X61888388Y-132890689D01*
X61953988Y-132956289D01*
X62005536Y-133033435D01*
X62041040Y-133119151D01*
X62059140Y-133210146D01*
X62059140Y-133302928D01*
X62041040Y-133393923D01*
X62005536Y-133479639D01*
X61953988Y-133556785D01*
X61888388Y-133622385D01*
X61811242Y-133673933D01*
X61725526Y-133709437D01*
X61634531Y-133727537D01*
X61541751Y-133727537D01*
X61486848Y-133716616D01*
X61462468Y-133714215D01*
X61460634Y-133714396D01*
X61453438Y-133710549D01*
X61365039Y-133673933D01*
X61287892Y-133622385D01*
X61222292Y-133556785D01*
X61170744Y-133479639D01*
X61135240Y-133393923D01*
X61128658Y-133360832D01*
X61121545Y-133337383D01*
X61115876Y-133326776D01*
X61117140Y-133313942D01*
X61117140Y-133210146D01*
X61135240Y-133119151D01*
X61170744Y-133033435D01*
X61222292Y-132956289D01*
X61287892Y-132890689D01*
X61365038Y-132839141D01*
X61450754Y-132803637D01*
X61541749Y-132785537D01*
X61634531Y-132785537D01*
X61725526Y-132803637D01*
X61725526Y-132803637D01*
G37*
G36*
X59335966Y-130666267D02*
X59335968Y-130666268D01*
X59335969Y-130666268D01*
X59513589Y-130739840D01*
X59513590Y-130739841D01*
X59673446Y-130846654D01*
X59809386Y-130982594D01*
X59809388Y-130982597D01*
X59916200Y-131142451D01*
X59989772Y-131320071D01*
X60027280Y-131508632D01*
X60027280Y-131700888D01*
X59989772Y-131889449D01*
X59916200Y-132067069D01*
X59916199Y-132067070D01*
X59809386Y-132226926D01*
X59673446Y-132362866D01*
X59673443Y-132362868D01*
X59513589Y-132469680D01*
X59335969Y-132543252D01*
X59335968Y-132543252D01*
X59335966Y-132543253D01*
X59147409Y-132580760D01*
X58955151Y-132580760D01*
X58766594Y-132543253D01*
X58766592Y-132543252D01*
X58766591Y-132543252D01*
X58588971Y-132469680D01*
X58429117Y-132362868D01*
X58429114Y-132362866D01*
X58293174Y-132226926D01*
X58186361Y-132067070D01*
X58186360Y-132067069D01*
X58112788Y-131889449D01*
X58075280Y-131700888D01*
X58075280Y-131508632D01*
X58112788Y-131320071D01*
X58186360Y-131142451D01*
X58293172Y-130982597D01*
X58293174Y-130982594D01*
X58429114Y-130846654D01*
X58588970Y-130739841D01*
X58588971Y-130739840D01*
X58766591Y-130666268D01*
X58766592Y-130666268D01*
X58766594Y-130666267D01*
X58955151Y-130628760D01*
X59147409Y-130628760D01*
X59335966Y-130666267D01*
X59335966Y-130666267D01*
G37*
G36*
X55774948Y-124141298D02*
X55881271Y-124162447D01*
X56181734Y-124286903D01*
X56328525Y-124384986D01*
X56452146Y-124467587D01*
X56682105Y-124697546D01*
X56862790Y-124967960D01*
X56987245Y-125268422D01*
X57050692Y-125587389D01*
X57050692Y-125912611D01*
X56987245Y-126231578D01*
X56862790Y-126532040D01*
X56682105Y-126802454D01*
X56452146Y-127032413D01*
X56452143Y-127032415D01*
X56181734Y-127213097D01*
X55881271Y-127337553D01*
X55774948Y-127358702D01*
X55562303Y-127401000D01*
X55237081Y-127401000D01*
X55024436Y-127358702D01*
X54918113Y-127337553D01*
X54617650Y-127213097D01*
X54347241Y-127032415D01*
X54347238Y-127032413D01*
X54117279Y-126802454D01*
X53936594Y-126532040D01*
X53812139Y-126231578D01*
X53748692Y-125912611D01*
X53748692Y-125587389D01*
X53812139Y-125268422D01*
X53936594Y-124967960D01*
X54117279Y-124697546D01*
X54347238Y-124467587D01*
X54470859Y-124384986D01*
X54617650Y-124286903D01*
X54918113Y-124162447D01*
X55024436Y-124141298D01*
X55237081Y-124099000D01*
X55562303Y-124099000D01*
X55774948Y-124141298D01*
X55774948Y-124141298D01*
G37*
G36*
X144975564Y-124141298D02*
X145081887Y-124162447D01*
X145382350Y-124286903D01*
X145529141Y-124384986D01*
X145652762Y-124467587D01*
X145882721Y-124697546D01*
X146063406Y-124967960D01*
X146187861Y-125268422D01*
X146251308Y-125587389D01*
X146251308Y-125912611D01*
X146187861Y-126231578D01*
X146063406Y-126532040D01*
X145882721Y-126802454D01*
X145652762Y-127032413D01*
X145652759Y-127032415D01*
X145382350Y-127213097D01*
X145081887Y-127337553D01*
X144975564Y-127358702D01*
X144762919Y-127401000D01*
X144437697Y-127401000D01*
X144225052Y-127358702D01*
X144118729Y-127337553D01*
X143818266Y-127213097D01*
X143547857Y-127032415D01*
X143547854Y-127032413D01*
X143317895Y-126802454D01*
X143137210Y-126532040D01*
X143012755Y-126231578D01*
X142949308Y-125912611D01*
X142949308Y-125587389D01*
X143012755Y-125268422D01*
X143137210Y-124967960D01*
X143317895Y-124697546D01*
X143547854Y-124467587D01*
X143671475Y-124384986D01*
X143818266Y-124286903D01*
X144118729Y-124162447D01*
X144225052Y-124141298D01*
X144437697Y-124099000D01*
X144762919Y-124099000D01*
X144975564Y-124141298D01*
X144975564Y-124141298D01*
G37*
G36*
X76360243Y-125390319D02*
X76426427Y-125396837D01*
X76539653Y-125431184D01*
X76596267Y-125448357D01*
X76734887Y-125522452D01*
X76752791Y-125532022D01*
X76788529Y-125561352D01*
X76889986Y-125644614D01*
X76973248Y-125746071D01*
X77002578Y-125781809D01*
X77002579Y-125781811D01*
X77086243Y-125938333D01*
X77086243Y-125938334D01*
X77137763Y-126108173D01*
X77155159Y-126284800D01*
X77137763Y-126461427D01*
X77116343Y-126532040D01*
X77086243Y-126631267D01*
X77012148Y-126769887D01*
X77002578Y-126787791D01*
X76990544Y-126802454D01*
X76889986Y-126924986D01*
X76788529Y-127008248D01*
X76752791Y-127037578D01*
X76752789Y-127037579D01*
X76596267Y-127121243D01*
X76539653Y-127138416D01*
X76426427Y-127172763D01*
X76360243Y-127179281D01*
X76294060Y-127185800D01*
X76205540Y-127185800D01*
X76139357Y-127179281D01*
X76073173Y-127172763D01*
X75959947Y-127138416D01*
X75903333Y-127121243D01*
X75746811Y-127037579D01*
X75746809Y-127037578D01*
X75711071Y-127008248D01*
X75609614Y-126924986D01*
X75509056Y-126802454D01*
X75497022Y-126787791D01*
X75487452Y-126769887D01*
X75413357Y-126631267D01*
X75383257Y-126532040D01*
X75361837Y-126461427D01*
X75344441Y-126284800D01*
X75361837Y-126108173D01*
X75413357Y-125938334D01*
X75413357Y-125938333D01*
X75497021Y-125781811D01*
X75497022Y-125781809D01*
X75526352Y-125746071D01*
X75609614Y-125644614D01*
X75711071Y-125561352D01*
X75746809Y-125532022D01*
X75764713Y-125522452D01*
X75903333Y-125448357D01*
X75959947Y-125431184D01*
X76073173Y-125396837D01*
X76139357Y-125390319D01*
X76205540Y-125383800D01*
X76294060Y-125383800D01*
X76360243Y-125390319D01*
X76360243Y-125390319D01*
G37*
G36*
X76360242Y-122850318D02*
X76426427Y-122856837D01*
X76539653Y-122891184D01*
X76596267Y-122908357D01*
X76734887Y-122982452D01*
X76752791Y-122992022D01*
X76788529Y-123021352D01*
X76889986Y-123104614D01*
X76973248Y-123206071D01*
X77002578Y-123241809D01*
X77002579Y-123241811D01*
X77086243Y-123398333D01*
X77086243Y-123398334D01*
X77137763Y-123568173D01*
X77155159Y-123744800D01*
X77137763Y-123921427D01*
X77103416Y-124034653D01*
X77086243Y-124091267D01*
X77048196Y-124162447D01*
X77002578Y-124247791D01*
X76973248Y-124283529D01*
X76889986Y-124384986D01*
X76789337Y-124467585D01*
X76752791Y-124497578D01*
X76752789Y-124497579D01*
X76596267Y-124581243D01*
X76539653Y-124598416D01*
X76426427Y-124632763D01*
X76360243Y-124639281D01*
X76294060Y-124645800D01*
X76205540Y-124645800D01*
X76139357Y-124639281D01*
X76073173Y-124632763D01*
X75959947Y-124598416D01*
X75903333Y-124581243D01*
X75746811Y-124497579D01*
X75746809Y-124497578D01*
X75710263Y-124467585D01*
X75609614Y-124384986D01*
X75526352Y-124283529D01*
X75497022Y-124247791D01*
X75451404Y-124162447D01*
X75413357Y-124091267D01*
X75396184Y-124034653D01*
X75361837Y-123921427D01*
X75344441Y-123744800D01*
X75361837Y-123568173D01*
X75413357Y-123398334D01*
X75413357Y-123398333D01*
X75497021Y-123241811D01*
X75497022Y-123241809D01*
X75526352Y-123206071D01*
X75609614Y-123104614D01*
X75711071Y-123021352D01*
X75746809Y-122992022D01*
X75764713Y-122982452D01*
X75903333Y-122908357D01*
X75959947Y-122891184D01*
X76073173Y-122856837D01*
X76139358Y-122850318D01*
X76205540Y-122843800D01*
X76294060Y-122843800D01*
X76360242Y-122850318D01*
X76360242Y-122850318D01*
G37*
G36*
X76360242Y-120310318D02*
X76426427Y-120316837D01*
X76539653Y-120351184D01*
X76596267Y-120368357D01*
X76734887Y-120442452D01*
X76752791Y-120452022D01*
X76788529Y-120481352D01*
X76889986Y-120564614D01*
X76973248Y-120666071D01*
X77002578Y-120701809D01*
X77002579Y-120701811D01*
X77086243Y-120858333D01*
X77086243Y-120858334D01*
X77137763Y-121028173D01*
X77155159Y-121204800D01*
X77137763Y-121381427D01*
X77103416Y-121494653D01*
X77086243Y-121551267D01*
X77012148Y-121689887D01*
X77002578Y-121707791D01*
X76973248Y-121743529D01*
X76889986Y-121844986D01*
X76788529Y-121928248D01*
X76752791Y-121957578D01*
X76752789Y-121957579D01*
X76596267Y-122041243D01*
X76539653Y-122058416D01*
X76426427Y-122092763D01*
X76360242Y-122099282D01*
X76294060Y-122105800D01*
X76205540Y-122105800D01*
X76139358Y-122099282D01*
X76073173Y-122092763D01*
X75959947Y-122058416D01*
X75903333Y-122041243D01*
X75746811Y-121957579D01*
X75746809Y-121957578D01*
X75711071Y-121928248D01*
X75609614Y-121844986D01*
X75526352Y-121743529D01*
X75497022Y-121707791D01*
X75487452Y-121689887D01*
X75413357Y-121551267D01*
X75396184Y-121494653D01*
X75361837Y-121381427D01*
X75344441Y-121204800D01*
X75361837Y-121028173D01*
X75413357Y-120858334D01*
X75413357Y-120858333D01*
X75497021Y-120701811D01*
X75497022Y-120701809D01*
X75526352Y-120666071D01*
X75609614Y-120564614D01*
X75711071Y-120481352D01*
X75746809Y-120452022D01*
X75764713Y-120442452D01*
X75903333Y-120368357D01*
X75959947Y-120351184D01*
X76073173Y-120316837D01*
X76139358Y-120310318D01*
X76205540Y-120303800D01*
X76294060Y-120303800D01*
X76360242Y-120310318D01*
X76360242Y-120310318D01*
G37*
G36*
X148410243Y-118985319D02*
X148476427Y-118991837D01*
X148589653Y-119026184D01*
X148646267Y-119043357D01*
X148784887Y-119117452D01*
X148802791Y-119127022D01*
X148838529Y-119156352D01*
X148939986Y-119239614D01*
X149023248Y-119341071D01*
X149052578Y-119376809D01*
X149052579Y-119376811D01*
X149136243Y-119533333D01*
X149153416Y-119589947D01*
X149187763Y-119703173D01*
X149205159Y-119879800D01*
X149187763Y-120056427D01*
X149153416Y-120169653D01*
X149136243Y-120226267D01*
X149062148Y-120364887D01*
X149052578Y-120382791D01*
X149023248Y-120418529D01*
X148939986Y-120519986D01*
X148838529Y-120603248D01*
X148802791Y-120632578D01*
X148802789Y-120632579D01*
X148646267Y-120716243D01*
X148589653Y-120733416D01*
X148476427Y-120767763D01*
X148410243Y-120774281D01*
X148344060Y-120780800D01*
X148255540Y-120780800D01*
X148189357Y-120774281D01*
X148123173Y-120767763D01*
X148009947Y-120733416D01*
X147953333Y-120716243D01*
X147796811Y-120632579D01*
X147796809Y-120632578D01*
X147761071Y-120603248D01*
X147659614Y-120519986D01*
X147576352Y-120418529D01*
X147547022Y-120382791D01*
X147537452Y-120364887D01*
X147463357Y-120226267D01*
X147446184Y-120169653D01*
X147411837Y-120056427D01*
X147394441Y-119879800D01*
X147411837Y-119703173D01*
X147446184Y-119589947D01*
X147463357Y-119533333D01*
X147547021Y-119376811D01*
X147547022Y-119376809D01*
X147576352Y-119341071D01*
X147659614Y-119239614D01*
X147761071Y-119156352D01*
X147796809Y-119127022D01*
X147814713Y-119117452D01*
X147953333Y-119043357D01*
X148009947Y-119026184D01*
X148123173Y-118991837D01*
X148189357Y-118985319D01*
X148255540Y-118978800D01*
X148344060Y-118978800D01*
X148410243Y-118985319D01*
X148410243Y-118985319D01*
G37*
G36*
X76360243Y-117770319D02*
X76426427Y-117776837D01*
X76539653Y-117811184D01*
X76596267Y-117828357D01*
X76734887Y-117902452D01*
X76752791Y-117912022D01*
X76788529Y-117941352D01*
X76889986Y-118024614D01*
X76973248Y-118126071D01*
X77002578Y-118161809D01*
X77002579Y-118161811D01*
X77086243Y-118318333D01*
X77086243Y-118318334D01*
X77137763Y-118488173D01*
X77155159Y-118664800D01*
X77137763Y-118841427D01*
X77103416Y-118954653D01*
X77086243Y-119011267D01*
X77069090Y-119043357D01*
X77002578Y-119167791D01*
X76973248Y-119203529D01*
X76889986Y-119304986D01*
X76788529Y-119388248D01*
X76752791Y-119417578D01*
X76752789Y-119417579D01*
X76596267Y-119501243D01*
X76539653Y-119518416D01*
X76426427Y-119552763D01*
X76360242Y-119559282D01*
X76294060Y-119565800D01*
X76205540Y-119565800D01*
X76139358Y-119559282D01*
X76073173Y-119552763D01*
X75959947Y-119518416D01*
X75903333Y-119501243D01*
X75746811Y-119417579D01*
X75746809Y-119417578D01*
X75711071Y-119388248D01*
X75609614Y-119304986D01*
X75526352Y-119203529D01*
X75497022Y-119167791D01*
X75430510Y-119043357D01*
X75413357Y-119011267D01*
X75396184Y-118954653D01*
X75361837Y-118841427D01*
X75344441Y-118664800D01*
X75361837Y-118488173D01*
X75413357Y-118318334D01*
X75413357Y-118318333D01*
X75497021Y-118161811D01*
X75497022Y-118161809D01*
X75526352Y-118126071D01*
X75609614Y-118024614D01*
X75711071Y-117941352D01*
X75746809Y-117912022D01*
X75764713Y-117902452D01*
X75903333Y-117828357D01*
X75959947Y-117811184D01*
X76073173Y-117776837D01*
X76139357Y-117770319D01*
X76205540Y-117763800D01*
X76294060Y-117763800D01*
X76360243Y-117770319D01*
X76360243Y-117770319D01*
G37*
G36*
X148410243Y-116445319D02*
X148476427Y-116451837D01*
X148589653Y-116486184D01*
X148646267Y-116503357D01*
X148784887Y-116577452D01*
X148802791Y-116587022D01*
X148838529Y-116616352D01*
X148939986Y-116699614D01*
X149023248Y-116801071D01*
X149052578Y-116836809D01*
X149052579Y-116836811D01*
X149136243Y-116993333D01*
X149153416Y-117049947D01*
X149187763Y-117163173D01*
X149205159Y-117339800D01*
X149187763Y-117516427D01*
X149153416Y-117629653D01*
X149136243Y-117686267D01*
X149062148Y-117824887D01*
X149052578Y-117842791D01*
X149023248Y-117878529D01*
X148939986Y-117979986D01*
X148838529Y-118063248D01*
X148802791Y-118092578D01*
X148802789Y-118092579D01*
X148646267Y-118176243D01*
X148589653Y-118193416D01*
X148476427Y-118227763D01*
X148410243Y-118234281D01*
X148344060Y-118240800D01*
X148255540Y-118240800D01*
X148189357Y-118234281D01*
X148123173Y-118227763D01*
X148009947Y-118193416D01*
X147953333Y-118176243D01*
X147796811Y-118092579D01*
X147796809Y-118092578D01*
X147761071Y-118063248D01*
X147659614Y-117979986D01*
X147576352Y-117878529D01*
X147547022Y-117842791D01*
X147537452Y-117824887D01*
X147463357Y-117686267D01*
X147446184Y-117629653D01*
X147411837Y-117516427D01*
X147394441Y-117339800D01*
X147411837Y-117163173D01*
X147446184Y-117049947D01*
X147463357Y-116993333D01*
X147547021Y-116836811D01*
X147547022Y-116836809D01*
X147576352Y-116801071D01*
X147659614Y-116699614D01*
X147761071Y-116616352D01*
X147796809Y-116587022D01*
X147814713Y-116577452D01*
X147953333Y-116503357D01*
X148009947Y-116486184D01*
X148123173Y-116451837D01*
X148189357Y-116445319D01*
X148255540Y-116438800D01*
X148344060Y-116438800D01*
X148410243Y-116445319D01*
X148410243Y-116445319D01*
G37*
G36*
X77150800Y-117025800D02*
X75348800Y-117025800D01*
X75348800Y-115223800D01*
X77150800Y-115223800D01*
X77150800Y-117025800D01*
X77150800Y-117025800D01*
G37*
G36*
X149200800Y-115700800D02*
X147398800Y-115700800D01*
X147398800Y-113898800D01*
X149200800Y-113898800D01*
X149200800Y-115700800D01*
X149200800Y-115700800D01*
G37*
G36*
X100375256Y-46891298D02*
X100481579Y-46912447D01*
X100782042Y-47036903D01*
X101048852Y-47215180D01*
X101052454Y-47217587D01*
X101282413Y-47447546D01*
X101463098Y-47717960D01*
X101587553Y-48018422D01*
X101651000Y-48337389D01*
X101651000Y-48662611D01*
X101587553Y-48981578D01*
X101463098Y-49282040D01*
X101282413Y-49552454D01*
X101052454Y-49782413D01*
X101052451Y-49782415D01*
X100782042Y-49963097D01*
X100481579Y-50087553D01*
X100375256Y-50108702D01*
X100162611Y-50151000D01*
X99837389Y-50151000D01*
X99624744Y-50108702D01*
X99518421Y-50087553D01*
X99217958Y-49963097D01*
X98947549Y-49782415D01*
X98947546Y-49782413D01*
X98717587Y-49552454D01*
X98536902Y-49282040D01*
X98412447Y-48981578D01*
X98349000Y-48662611D01*
X98349000Y-48337389D01*
X98412447Y-48018422D01*
X98536902Y-47717960D01*
X98717587Y-47447546D01*
X98947546Y-47217587D01*
X98951148Y-47215180D01*
X99217958Y-47036903D01*
X99518421Y-46912447D01*
X99624744Y-46891298D01*
X99837389Y-46849000D01*
X100162611Y-46849000D01*
X100375256Y-46891298D01*
X100375256Y-46891298D01*
G37*
M02*
