M48
;DRILL file {KiCad 5.0.2-bee76a0~70~ubuntu18.04.1} date Mo 04 Mai 2020 10:45:05 CEST
;FORMAT={-:-/ absolute / inch / decimal}
FMAT,2
INCH,TZ
T1C0.0079
T2C0.0118
T3C0.0173
T4C0.0394
T5C0.0531
%
G90
G05
T1
X-2.1378Y0.3346
X-2.0453Y0.4154
X-2.0433Y-0.5953
X-2.0157Y-0.063
X-2.0118Y0.1024
X-1.9665Y-0.5425
X-1.9331Y-0.3071
X-1.9331Y-0.3346
X-1.8976Y0.2795
X-1.8228Y0.5472
X-1.8228Y0.4646
X-1.8209Y1.0433
X-1.8209Y1.0157
X-1.8209Y0.9882
X-1.8209Y0.9606
X-1.8209Y0.9331
X-1.8209Y0.9055
X-1.8209Y0.878
X-1.8209Y0.8504
X-1.8209Y0.8228
X-1.8209Y0.7953
X-1.8209Y0.6969
X-1.8209Y0.6693
X-1.816Y0.064
X-1.812Y-0.0261
X-1.8087Y-0.1614
X-1.7953Y0.5472
X-1.7953Y0.4646
X-1.7933Y1.0433
X-1.7933Y1.0157
X-1.7933Y0.9882
X-1.7933Y0.9606
X-1.7933Y0.9331
X-1.7933Y0.9055
X-1.7933Y0.878
X-1.7933Y0.8504
X-1.7933Y0.8228
X-1.7933Y0.7953
X-1.7933Y0.6969
X-1.7933Y0.6693
X-1.7756Y0.0197
X-1.7717Y-0.6461
X-1.7677Y0.4646
X-1.7657Y1.0433
X-1.7657Y1.0157
X-1.7657Y0.9882
X-1.7657Y0.9606
X-1.7657Y0.9331
X-1.7657Y0.9055
X-1.7657Y0.878
X-1.7657Y0.8504
X-1.7657Y0.8228
X-1.7657Y0.7953
X-1.7402Y0.5472
X-1.7402Y0.4646
X-1.7382Y1.0433
X-1.7382Y1.0157
X-1.7382Y0.9882
X-1.7382Y0.9606
X-1.7382Y0.9331
X-1.7382Y0.9055
X-1.7382Y0.878
X-1.7382Y0.8504
X-1.7382Y0.8228
X-1.7382Y0.7953
X-1.7382Y0.6969
X-1.7382Y0.6693
X-1.7323Y-0.3358
X-1.7256Y-0.4189
X-1.7244Y-0.5028
X-1.7165Y0.378
X-1.7126Y0.5472
X-1.7126Y0.4646
X-1.7106Y1.0433
X-1.7106Y1.0157
X-1.7106Y0.9882
X-1.7106Y0.9606
X-1.7106Y0.9331
X-1.7106Y0.9055
X-1.7106Y0.878
X-1.7106Y0.8504
X-1.7106Y0.8228
X-1.7106Y0.7953
X-1.7106Y0.6969
X-1.7106Y0.6693
X-1.7087Y0.3031
X-1.685Y0.5472
X-1.685Y0.5197
X-1.685Y0.4921
X-1.685Y0.4646
X-1.6835Y-0.5638
X-1.6831Y1.0433
X-1.6831Y1.0157
X-1.6831Y0.9882
X-1.6831Y0.9606
X-1.6831Y0.9331
X-1.6831Y0.9055
X-1.6831Y0.878
X-1.6831Y0.8504
X-1.6831Y0.8228
X-1.6811Y-0.3571
X-1.6811Y-0.3827
X-1.6575Y0.7126
X-1.6575Y0.685
X-1.6575Y0.6575
X-1.6575Y0.6299
X-1.6575Y0.6024
X-1.6575Y0.5748
X-1.6575Y0.4646
X-1.6575Y0.4016
X-1.6575Y0.374
X-1.6575Y0.3465
X-1.6575Y0.3189
X-1.6575Y0.2913
X-1.6575Y0.2638
X-1.6575Y0.1496
X-1.6575Y0.122
X-1.6555Y1.0433
X-1.6555Y1.0157
X-1.6555Y0.9882
X-1.6555Y0.9606
X-1.6555Y0.9331
X-1.6555Y0.9055
X-1.6555Y0.878
X-1.6555Y0.8504
X-1.6555Y0.8228
X-1.6417Y0.0945
X-1.6299Y0.7126
X-1.6299Y0.685
X-1.6299Y0.6575
X-1.6299Y0.6299
X-1.6299Y0.6024
X-1.6299Y0.5748
X-1.6299Y0.4646
X-1.6299Y0.4016
X-1.6299Y0.374
X-1.6299Y0.3465
X-1.6299Y0.3189
X-1.6299Y0.2913
X-1.6299Y0.2638
X-1.6299Y0.1496
X-1.6299Y0.122
X-1.628Y1.0433
X-1.628Y1.0157
X-1.628Y0.9882
X-1.628Y0.9606
X-1.628Y0.9331
X-1.628Y0.9055
X-1.628Y0.878
X-1.628Y0.8504
X-1.628Y0.8228
X-1.6024Y0.7126
X-1.6024Y0.685
X-1.6024Y0.6575
X-1.6024Y0.6299
X-1.6024Y0.6024
X-1.6024Y0.5748
X-1.6024Y0.4646
X-1.6024Y0.4016
X-1.6024Y0.374
X-1.6024Y0.3465
X-1.6024Y0.3189
X-1.6024Y0.2913
X-1.6024Y0.2638
X-1.6024Y0.1496
X-1.6024Y0.122
X-1.5996Y-0.6988
X-1.5984Y-0.1181
X-1.5957Y-0.5425
X-1.5906Y-0.4217
X-1.5906Y-0.5703
X-1.5906Y-0.3236
X-1.5866Y-0.3489
X-1.584Y-0.2989
X-1.5835Y-0.9142
X-1.5748Y0.7126
X-1.5748Y0.685
X-1.5748Y0.6575
X-1.5748Y0.6299
X-1.5748Y0.6024
X-1.5748Y0.5748
X-1.5748Y0.4646
X-1.5748Y0.4016
X-1.5748Y0.374
X-1.5748Y0.3465
X-1.5748Y0.3189
X-1.5748Y0.2913
X-1.5748Y0.2638
X-1.5748Y0.1496
X-1.5748Y0.122
X-1.5472Y0.7126
X-1.5472Y0.685
X-1.5472Y0.6575
X-1.5472Y0.6299
X-1.5472Y0.6024
X-1.5472Y0.5748
X-1.5472Y0.4646
X-1.5472Y0.4016
X-1.5472Y0.374
X-1.5472Y0.3465
X-1.5472Y0.3189
X-1.5472Y0.2913
X-1.5472Y0.2638
X-1.5472Y0.1496
X-1.5472Y0.122
X-1.5472Y-0.2835
X-1.5236Y-0.1732
X-1.5197Y0.7126
X-1.5197Y0.685
X-1.5197Y0.6575
X-1.5197Y0.6299
X-1.5197Y0.6024
X-1.5197Y0.5748
X-1.5197Y0.4646
X-1.5197Y0.4016
X-1.5197Y0.374
X-1.5197Y0.3465
X-1.5197Y0.3189
X-1.5197Y0.2913
X-1.5197Y0.2638
X-1.5197Y0.1496
X-1.5197Y0.122
X-1.5156Y-0.7827
X-1.5039Y0.0669
X-1.498Y-0.1732
X-1.4921Y0.7126
X-1.4921Y0.685
X-1.4921Y0.6575
X-1.4921Y0.6299
X-1.4921Y0.6024
X-1.4921Y0.5748
X-1.4921Y0.4646
X-1.4921Y0.4016
X-1.4921Y0.374
X-1.4921Y0.3465
X-1.4921Y0.3189
X-1.4921Y0.2913
X-1.4921Y0.2638
X-1.4921Y0.1496
X-1.4921Y0.122
X-1.4921Y-0.8622
X-1.4835Y-0.7016
X-1.468Y-0.267
X-1.4646Y0.7126
X-1.4646Y0.685
X-1.4646Y0.6575
X-1.4646Y0.6299
X-1.4646Y0.6024
X-1.4646Y0.5748
X-1.4646Y0.4646
X-1.4646Y0.4016
X-1.4646Y0.374
X-1.4646Y0.3465
X-1.4646Y0.3189
X-1.4646Y0.2913
X-1.4646Y0.2638
X-1.4646Y0.1496
X-1.4646Y0.122
X-1.4584Y-0.7071
X-1.4567Y-0.8661
X-1.4531Y-1.0283
X-1.44Y0.8898
X-1.44Y0.8622
X-1.44Y0.8346
X-1.44Y0.8071
X-1.44Y0.7795
X-1.44Y0.752
X-1.44Y0.7244
X-1.44Y0.6969
X-1.44Y0.6693
X-1.44Y0.6417
X-1.437Y-0.2638
X-1.4339Y-0.3524
X-1.4331Y1.0709
X-1.4331Y-0.1181
X-1.4252Y-0.1673
X-1.4246Y-0.3776
X-1.4224Y-1.0299
X-1.3988Y-0.7815
X-1.398Y-0.7028
X-1.3661Y0.1535
X-1.3622Y0.8898
X-1.3622Y0.8622
X-1.3622Y0.8346
X-1.3622Y0.8071
X-1.3622Y0.7795
X-1.3622Y0.752
X-1.3622Y0.7244
X-1.3622Y0.6969
X-1.3622Y0.6693
X-1.3622Y0.6417
X-1.3622Y-0.1608
X-1.3508Y-0.5703
X-1.3465Y0.063
X-1.3346Y0.1496
X-1.3327Y-0.6234
X-1.3189Y-0.1171
X-1.3115Y-1.3768
X-1.311Y-0.6099
X-1.3071Y0.9488
X-1.2835Y1.6969
X-1.2835Y-0.4567
X-1.2638Y1.6732
X-1.2598Y0.1142
X-1.2528Y-0.3393
X-1.247Y-0.2165
X-1.247Y-0.3643
X-1.2384Y-0.4009
X-1.2292Y0.1171
X-1.2283Y-0.5079
X-1.2283Y-0.5551
X-1.2244Y-0.4803
X-1.2234Y-0.7972
X-1.2126Y1.2087
X-1.2126Y1.126
X-1.2067Y1.7008
X-1.2067Y1.6732
X-1.2067Y1.6457
X-1.2067Y1.6181
X-1.2067Y1.5906
X-1.2067Y1.563
X-1.2067Y1.5354
X-1.2067Y1.5079
X-1.2067Y1.4803
X-1.2067Y1.4528
X-1.2067Y1.3583
X-1.2067Y1.3307
X-1.2036Y0.1181
X-1.185Y1.2087
X-1.185Y1.126
X-1.1791Y1.7008
X-1.1791Y1.6732
X-1.1791Y1.6457
X-1.1791Y1.6181
X-1.1791Y1.5906
X-1.1791Y1.563
X-1.1791Y1.5354
X-1.1791Y1.5079
X-1.1791Y1.4803
X-1.1791Y1.4528
X-1.1791Y1.3583
X-1.1791Y1.3307
X-1.1742Y-0.6929
X-1.1705Y0.0236
X-1.1575Y1.126
X-1.1563Y-1.5
X-1.1516Y1.7008
X-1.1516Y1.6732
X-1.1516Y1.6457
X-1.1516Y1.6181
X-1.1516Y1.5906
X-1.1516Y1.563
X-1.1516Y1.5354
X-1.1516Y1.5079
X-1.1516Y1.4803
X-1.1516Y1.4528
X-1.1496Y-0.4016
X-1.1496Y-0.4646
X-1.1496Y-0.3232
X-1.1481Y-0.439
X-1.1339Y-0.5406
X-1.1323Y-1.5307
X-1.1299Y1.2087
X-1.1299Y1.126
X-1.124Y1.7008
X-1.124Y1.6732
X-1.124Y1.6457
X-1.124Y1.6181
X-1.124Y1.5906
X-1.124Y1.563
X-1.124Y1.5354
X-1.124Y1.5079
X-1.124Y1.4803
X-1.124Y1.4528
X-1.124Y1.3583
X-1.124Y1.3307
X-1.1181Y1.0197
X-1.1181Y0.9449
X-1.1102Y-0.378
X-1.1024Y1.2087
X-1.1024Y1.126
X-1.1004Y-1.5657
X-1.0965Y1.7008
X-1.0965Y1.6732
X-1.0965Y1.6457
X-1.0965Y1.6181
X-1.0965Y1.5906
X-1.0965Y1.563
X-1.0965Y1.5354
X-1.0965Y1.5079
X-1.0965Y1.4803
X-1.0965Y1.4528
X-1.0965Y1.3583
X-1.0965Y1.3307
X-1.0827Y-0.5236
X-1.0748Y1.2087
X-1.0748Y1.1811
X-1.0748Y1.1535
X-1.0748Y1.126
X-1.0689Y1.7008
X-1.0689Y1.6732
X-1.0689Y1.6457
X-1.0689Y1.6181
X-1.0689Y1.5906
X-1.0689Y1.563
X-1.0689Y1.5354
X-1.0689Y1.5079
X-1.0689Y1.4803
X-1.064Y-0.2295
X-1.0591Y0.0197
X-1.0591Y0.063
X-1.0472Y1.126
X-1.0472Y1.0551
X-1.0472Y1.0276
X-1.0472Y1.
X-1.0472Y0.9724
X-1.0472Y0.9449
X-1.0472Y0.9173
X-1.0472Y0.7992
X-1.0472Y0.7717
X-1.0433Y1.3701
X-1.0433Y1.3425
X-1.0433Y1.315
X-1.0433Y1.2874
X-1.0433Y1.2598
X-1.0433Y1.2323
X-1.0429Y-1.5728
X-1.0413Y1.7008
X-1.0413Y1.6732
X-1.0413Y1.6457
X-1.0413Y1.6181
X-1.0413Y1.5906
X-1.0413Y1.563
X-1.0413Y1.5354
X-1.0413Y1.5079
X-1.0413Y1.4803
X-1.0315Y0.5787
X-1.0299Y-0.3295
X-1.0276Y-0.4331
X-1.026Y-0.2358
X-1.0198Y0.4607
X-1.0197Y1.126
X-1.0197Y1.0551
X-1.0197Y1.0276
X-1.0197Y1.
X-1.0197Y0.9724
X-1.0197Y0.9449
X-1.0197Y0.9173
X-1.0197Y0.7992
X-1.0197Y0.7717
X-1.0157Y1.3701
X-1.0157Y1.3425
X-1.0157Y1.315
X-1.0157Y1.2874
X-1.0157Y1.2598
X-1.0157Y1.2323
X-1.0138Y1.7008
X-1.0138Y1.6732
X-1.0138Y1.6457
X-1.0138Y1.6181
X-1.0138Y1.5906
X-1.0138Y1.563
X-1.0138Y1.5354
X-1.0138Y1.5079
X-1.0138Y1.4803
X-1.0043Y-0.1969
X-0.9961Y-1.7098
X-0.9921Y1.126
X-0.9921Y1.0551
X-0.9921Y1.0276
X-0.9921Y1.
X-0.9921Y0.9724
X-0.9921Y0.9449
X-0.9921Y0.9173
X-0.9921Y0.7992
X-0.9921Y0.7717
X-0.9882Y1.3701
X-0.9882Y1.3425
X-0.9882Y1.315
X-0.9882Y1.2874
X-0.9882Y1.2598
X-0.9882Y1.2323
X-0.9843Y0.1811
X-0.9646Y1.126
X-0.9646Y1.0551
X-0.9646Y1.0276
X-0.9646Y1.
X-0.9646Y0.9724
X-0.9646Y0.9449
X-0.9646Y0.9173
X-0.9646Y0.7992
X-0.9646Y0.7717
X-0.9606Y1.3701
X-0.9606Y1.3425
X-0.9606Y1.315
X-0.9606Y1.2874
X-0.9606Y1.2598
X-0.9606Y1.2323
X-0.937Y1.126
X-0.937Y1.0551
X-0.937Y1.0276
X-0.937Y1.
X-0.937Y0.9724
X-0.937Y0.9449
X-0.937Y0.9173
X-0.937Y0.7992
X-0.937Y0.7717
X-0.9331Y1.3701
X-0.9331Y1.3425
X-0.9331Y1.315
X-0.9331Y1.2874
X-0.9331Y1.2598
X-0.9331Y1.2323
X-0.9094Y1.126
X-0.9094Y1.0551
X-0.9094Y1.0276
X-0.9094Y1.
X-0.9094Y0.9724
X-0.9094Y0.9449
X-0.9094Y0.9173
X-0.9094Y0.7992
X-0.9094Y0.7717
X-0.9055Y1.3701
X-0.9055Y1.3425
X-0.9055Y1.315
X-0.9055Y1.2874
X-0.9055Y1.2598
X-0.9055Y1.2323
X-0.8917Y-0.5494
X-0.8819Y1.126
X-0.8819Y1.0551
X-0.8819Y1.0276
X-0.8819Y1.
X-0.8819Y0.9724
X-0.8819Y0.9449
X-0.8819Y0.9173
X-0.8819Y0.7992
X-0.8819Y0.7717
X-0.878Y1.3701
X-0.878Y1.3425
X-0.878Y1.315
X-0.878Y1.2874
X-0.878Y1.2598
X-0.878Y1.2323
X-0.8663Y-0.5394
X-0.8622Y0.5157
X-0.8543Y1.126
X-0.8543Y1.0551
X-0.8543Y1.0276
X-0.8543Y1.
X-0.8543Y0.9724
X-0.8543Y0.9449
X-0.8543Y0.9173
X-0.8543Y0.7992
X-0.8543Y0.7717
X-0.8504Y1.3701
X-0.8504Y1.3425
X-0.8504Y1.315
X-0.8504Y1.2874
X-0.8504Y1.2598
X-0.8504Y1.2323
X-0.8437Y-0.6055
X-0.8425Y1.7402
X-0.8409Y-0.6323
X-0.8244Y-0.7835
X-0.8228Y1.6732
X-0.8228Y1.4961
X-0.8228Y1.4685
X-0.8228Y1.4409
X-0.8228Y1.4134
X-0.8228Y1.3858
X-0.8228Y1.3583
X-0.8228Y1.3307
X-0.8228Y1.3031
X-0.8228Y1.2756
X-0.8228Y1.248
X-0.7933Y-1.6445
X-0.7713Y-1.7402
X-0.7283Y1.4961
X-0.7283Y1.4685
X-0.7283Y1.4409
X-0.7283Y1.4134
X-0.7283Y1.3858
X-0.7283Y1.3583
X-0.7283Y1.3307
X-0.7283Y1.3031
X-0.7283Y1.2756
X-0.7283Y1.248
X-0.7142Y-1.7669
X-0.7028Y-1.676
X-0.6978Y1.7195
X-0.689Y-1.1024
X-0.689Y-1.1417
X-0.689Y-1.1811
X-0.689Y-1.2205
X-0.689Y-1.2598
X-0.6594Y-1.1024
X-0.6594Y-1.1417
X-0.6594Y-1.1811
X-0.6594Y-1.2205
X-0.6594Y-1.2598
X-0.6528Y-1.752
X-0.6466Y0.9021
X-0.6299Y1.8307
X-0.6201Y0.9016
X-0.6138Y-1.7083
X-0.5988Y-1.8917
X-0.5709Y1.3622
X-0.5669Y-1.7953
X-0.5213Y-1.7587
X-0.4872Y1.2805
X-0.4724Y0.8937
X-0.4134Y0.9685
X-0.4035Y1.9528
X-0.4035Y1.9252
X-0.4035Y1.8976
X-0.4035Y1.8701
X-0.4035Y1.8425
X-0.4035Y1.815
X-0.4035Y1.7874
X-0.4035Y1.7598
X-0.4035Y1.7323
X-0.4035Y1.7047
X-0.4016Y1.4606
X-0.4016Y1.378
X-0.3957Y1.6102
X-0.3957Y1.5827
X-0.3929Y-1.8783
X-0.376Y1.9528
X-0.376Y1.9252
X-0.376Y1.8976
X-0.376Y1.8701
X-0.376Y1.8425
X-0.376Y1.815
X-0.376Y1.7874
X-0.376Y1.7598
X-0.376Y1.7323
X-0.376Y1.7047
X-0.374Y1.4606
X-0.374Y1.378
X-0.3681Y1.6102
X-0.3681Y1.5827
X-0.3531Y-1.8693
X-0.3484Y1.9528
X-0.3484Y1.9252
X-0.3484Y1.8976
X-0.3484Y1.8701
X-0.3484Y1.8425
X-0.3484Y1.815
X-0.3484Y1.7874
X-0.3484Y1.7598
X-0.3484Y1.7323
X-0.3484Y1.7047
X-0.3465Y1.378
X-0.3209Y1.9528
X-0.3209Y1.9252
X-0.3209Y1.8976
X-0.3209Y1.8701
X-0.3209Y1.8425
X-0.3209Y1.815
X-0.3209Y1.7874
X-0.3209Y1.7598
X-0.3209Y1.7323
X-0.3209Y1.7047
X-0.3189Y1.4606
X-0.3189Y1.378
X-0.3154Y-1.8673
X-0.313Y1.6102
X-0.313Y1.5827
X-0.2992Y1.2953
X-0.2933Y1.9528
X-0.2933Y1.9252
X-0.2933Y1.8976
X-0.2933Y1.8701
X-0.2933Y1.8425
X-0.2933Y1.815
X-0.2933Y1.7874
X-0.2933Y1.7598
X-0.2933Y1.7323
X-0.2933Y1.7047
X-0.2913Y1.4606
X-0.2913Y1.378
X-0.2854Y1.6102
X-0.2854Y1.5827
X-0.2811Y1.2126
X-0.2783Y-1.8815
X-0.2657Y1.9528
X-0.2657Y1.9252
X-0.2657Y1.8976
X-0.2657Y1.8701
X-0.2657Y1.8425
X-0.2657Y1.815
X-0.2657Y1.7874
X-0.2657Y1.7598
X-0.2657Y1.7323
X-0.2638Y1.4606
X-0.2638Y1.4331
X-0.2638Y1.4055
X-0.2638Y1.378
X-0.2402Y1.0551
X-0.2402Y1.0276
X-0.2382Y1.9528
X-0.2382Y1.9252
X-0.2382Y1.8976
X-0.2382Y1.8701
X-0.2382Y1.8425
X-0.2382Y1.815
X-0.2382Y1.7874
X-0.2382Y1.7598
X-0.2382Y1.7323
X-0.2362Y1.6299
X-0.2362Y1.6024
X-0.2362Y1.5748
X-0.2362Y1.5472
X-0.2362Y1.5197
X-0.2362Y1.4921
X-0.2362Y1.378
X-0.2362Y1.3031
X-0.2362Y1.2756
X-0.2362Y1.248
X-0.2362Y1.2205
X-0.2362Y1.1929
X-0.2362Y1.1654
X-0.2126Y1.0551
X-0.2126Y1.0276
X-0.2106Y1.9528
X-0.2106Y1.9252
X-0.2106Y1.8976
X-0.2106Y1.8701
X-0.2106Y1.8425
X-0.2106Y1.815
X-0.2106Y1.7874
X-0.2106Y1.7598
X-0.2106Y1.7323
X-0.2087Y1.6299
X-0.2087Y1.6024
X-0.2087Y1.5748
X-0.2087Y1.5472
X-0.2087Y1.5197
X-0.2087Y1.4921
X-0.2087Y1.378
X-0.2087Y1.3031
X-0.2087Y1.2756
X-0.2087Y1.248
X-0.2087Y1.2205
X-0.2087Y1.1929
X-0.2087Y1.1654
X-0.185Y1.0551
X-0.185Y1.0276
X-0.1811Y1.6299
X-0.1811Y1.6024
X-0.1811Y1.5748
X-0.1811Y1.5472
X-0.1811Y1.5197
X-0.1811Y1.4921
X-0.1811Y1.378
X-0.1811Y1.3031
X-0.1811Y1.2756
X-0.1811Y1.248
X-0.1811Y1.2205
X-0.1811Y1.1929
X-0.1811Y1.1654
X-0.1598Y-1.9827
X-0.1575Y1.0551
X-0.1575Y1.0276
X-0.1535Y1.6299
X-0.1535Y1.6024
X-0.1535Y1.5748
X-0.1535Y1.5472
X-0.1535Y1.5197
X-0.1535Y1.4921
X-0.1535Y1.378
X-0.1535Y1.3031
X-0.1535Y1.2756
X-0.1535Y1.248
X-0.1535Y1.2205
X-0.1535Y1.1929
X-0.1535Y1.1654
X-0.1535Y-1.1339
X-0.1299Y1.0551
X-0.1299Y1.0276
X-0.126Y1.6299
X-0.126Y1.6024
X-0.126Y1.5748
X-0.126Y1.5472
X-0.126Y1.5197
X-0.126Y1.4921
X-0.126Y1.378
X-0.126Y1.3031
X-0.126Y1.2756
X-0.126Y1.248
X-0.126Y1.2205
X-0.126Y1.1929
X-0.126Y1.1654
X-0.122Y-1.1339
X-0.1024Y1.0551
X-0.1024Y1.0276
X-0.0984Y1.6299
X-0.0984Y1.6024
X-0.0984Y1.5748
X-0.0984Y1.5472
X-0.0984Y1.5197
X-0.0984Y1.4921
X-0.0984Y1.378
X-0.0984Y1.3031
X-0.0984Y1.2756
X-0.0984Y1.248
X-0.0984Y1.2205
X-0.0984Y1.1929
X-0.0984Y1.1654
X-0.0906Y-1.1339
X-0.0748Y1.0551
X-0.0748Y1.0276
X-0.0709Y1.6299
X-0.0709Y1.6024
X-0.0709Y1.5748
X-0.0709Y1.5472
X-0.0709Y1.5197
X-0.0709Y1.4921
X-0.0709Y1.378
X-0.0709Y1.3031
X-0.0709Y1.2756
X-0.0709Y1.248
X-0.0709Y1.2205
X-0.0709Y1.1929
X-0.0709Y1.1654
X-0.0551Y-1.1339
X-0.0472Y1.0551
X-0.0472Y1.0276
X-0.0433Y1.6299
X-0.0433Y1.6024
X-0.0433Y1.5748
X-0.0433Y1.5472
X-0.0433Y1.5197
X-0.0433Y1.4921
X-0.0433Y1.378
X-0.0433Y1.3031
X-0.0433Y1.2756
X-0.0433Y1.248
X-0.0433Y1.2205
X-0.0433Y1.1929
X-0.0433Y1.1654
X-0.0157Y1.7402
X-0.0157Y1.7126
X-0.0157Y1.685
X-0.0157Y1.6575
X-0.0157Y1.6299
X-0.0157Y1.6024
X-0.0157Y1.5748
X-0.0157Y1.5472
X-0.0157Y1.5197
X-0.0157Y1.4921
X-0.0157Y-1.7594
X0.0197Y-1.1516
X0.0197Y-1.2008
X0.0197Y-1.25
X0.0197Y-1.2992
X0.0197Y-1.3484
X0.0197Y-1.3976
X0.0197Y-1.437
X0.0772Y-2.063
X0.0787Y1.7402
X0.0787Y1.7126
X0.0787Y1.685
X0.0787Y1.6575
X0.0787Y1.6299
X0.0787Y1.6024
X0.0787Y1.5748
X0.0787Y1.5472
X0.0787Y1.5197
X0.0787Y1.4921
X0.1429Y-1.6516
X0.1673Y1.0544
X0.1929Y1.0551
X0.4055Y1.1417
X0.4646Y-1.6693
X0.4911Y-1.7431
X0.4931Y1.4596
X0.4931Y1.4321
X0.4931Y1.4045
X0.4931Y1.377
X0.4931Y1.3494
X0.4931Y1.3219
X0.4931Y1.2943
X0.4931Y1.2667
X0.4941Y1.8819
X0.4941Y1.8543
X0.4941Y1.8268
X0.4941Y1.7992
X0.4941Y1.7717
X0.4941Y1.7441
X0.4941Y1.7165
X0.4941Y1.689
X0.5207Y1.4596
X0.5207Y1.4321
X0.5207Y1.4045
X0.5207Y1.377
X0.5207Y1.3494
X0.5207Y1.3219
X0.5207Y1.2943
X0.5207Y1.2667
X0.5217Y1.8819
X0.5217Y1.8543
X0.5217Y1.8268
X0.5217Y1.7992
X0.5217Y1.7717
X0.5217Y1.7441
X0.5217Y1.7165
X0.5217Y1.689
X0.5413Y-1.7421
X0.5482Y1.4596
X0.5482Y1.4321
X0.5482Y1.4045
X0.5482Y1.377
X0.5482Y1.3494
X0.5482Y1.3219
X0.5482Y1.2943
X0.5482Y1.2667
X0.5492Y1.8819
X0.5492Y1.8543
X0.5492Y1.8268
X0.5492Y1.7992
X0.5492Y1.7717
X0.5492Y1.7441
X0.5492Y1.7165
X0.5492Y1.689
X0.561Y-2.0768
X0.5709Y-1.7421
X0.5758Y1.4596
X0.5758Y1.4321
X0.5758Y1.4045
X0.5758Y1.377
X0.5758Y1.3494
X0.5758Y1.3219
X0.5758Y1.2943
X0.5758Y1.2667
X0.5768Y1.8819
X0.5768Y1.8543
X0.5768Y1.8268
X0.5768Y1.7992
X0.5768Y1.7717
X0.5768Y1.7441
X0.5768Y1.7165
X0.5768Y1.689
X0.6004Y-1.7421
X0.6033Y1.4596
X0.6033Y1.4321
X0.6033Y1.4045
X0.6033Y1.377
X0.6033Y1.3494
X0.6033Y1.3219
X0.6033Y1.2943
X0.6033Y1.2667
X0.6043Y1.8819
X0.6043Y1.8543
X0.6043Y1.8268
X0.6043Y1.7992
X0.6043Y1.7717
X0.6043Y1.7441
X0.6043Y1.7165
X0.6043Y1.689
X0.6299Y-1.7421
X0.6309Y1.4596
X0.6309Y1.4321
X0.6309Y1.4045
X0.6309Y1.377
X0.6309Y1.3494
X0.6309Y1.3219
X0.6309Y1.2943
X0.6309Y1.2667
X0.6319Y1.8819
X0.6319Y1.8543
X0.6319Y1.8268
X0.6319Y1.7992
X0.6319Y1.7717
X0.6319Y1.7441
X0.6319Y1.7165
X0.6319Y1.689
X0.6585Y1.4596
X0.6585Y1.4321
X0.6585Y1.4045
X0.6585Y1.377
X0.6585Y1.3494
X0.6585Y1.3219
X0.6585Y1.2943
X0.6585Y1.2667
X0.6594Y1.8819
X0.6594Y1.8543
X0.6594Y1.8268
X0.6594Y1.7992
X0.6594Y1.7717
X0.6594Y1.7441
X0.6594Y1.7165
X0.6594Y1.689
X0.6594Y-1.7421
X0.6693Y-1.6102
X0.685Y-1.9567
X0.686Y1.4596
X0.686Y1.4321
X0.686Y1.4045
X0.686Y1.377
X0.686Y1.3494
X0.686Y1.3219
X0.686Y1.2943
X0.686Y1.2667
X0.687Y1.8819
X0.687Y1.8543
X0.687Y1.8268
X0.687Y1.7992
X0.687Y1.7717
X0.687Y1.7441
X0.687Y1.7165
X0.687Y1.689
X0.689Y-1.7421
X0.7185Y-1.7421
X0.748Y-1.7421
X0.7567Y-1.8693
X0.7776Y-1.7421
X0.8071Y-1.7421
X0.8366Y-1.7421
X1.4488Y0.0433
X1.4698Y0.0242
X1.6063Y0.437
X1.6142Y0.1339
X1.6378Y0.437
X1.6457Y0.1339
X1.6732Y-0.2402
T2
X-0.2018Y-1.485
X-0.2018Y-1.5323
X-0.2018Y-1.5835
X-0.2018Y-1.6268
X-0.1545Y-1.485
X-0.1545Y-1.5323
X-0.1545Y-1.5835
X-0.1545Y-1.6268
T3
X-1.5587Y-1.3166
X-1.5244Y-1.3547
X-1.5123Y-1.3093
X-1.4902Y-1.3927
X-1.478Y-1.3474
T4
X-0.935Y-0.6348
X-0.935Y-0.7348
X-0.935Y-0.8348
X-0.935Y-0.9348
X-0.935Y-1.0348
T5
X-1.6121Y-1.2443
X-1.4238Y-1.4535
T0
M30
