%TF.GenerationSoftware,KiCad,Pcbnew,5.0.2-bee76a0~70~ubuntu18.04.1*%
%TF.CreationDate,2020-04-28T20:19:42+02:00*%
%TF.ProjectId,gsvesc,67737665-7363-42e6-9b69-6361645f7063,rev?*%
%TF.SameCoordinates,PX5f5e038PY5f5e038*%
%TF.FileFunction,Legend,Top*%
%TF.FilePolarity,Positive*%
%FSLAX46Y46*%
G04 Gerber Fmt 4.6, Leading zero omitted, Abs format (unit mm)*
G04 Created by KiCad (PCBNEW 5.0.2-bee76a0~70~ubuntu18.04.1) date Di 28 Apr 2020 20:19:42 CEST*
%MOMM*%
%LPD*%
G01*
G04 APERTURE LIST*
%ADD10C,0.150000*%
%ADD11C,0.200000*%
%ADD12C,0.120000*%
%ADD13C,0.300000*%
%ADD14C,0.127000*%
%ADD15C,0.152400*%
%ADD16C,0.015000*%
G04 APERTURE END LIST*
D10*
X39428571Y15607143D02*
X39642857Y15535715D01*
X39714285Y15464286D01*
X39785714Y15321429D01*
X39785714Y15107143D01*
X39714285Y14964286D01*
X39642857Y14892858D01*
X39500000Y14821429D01*
X38928571Y14821429D01*
X38928571Y16321429D01*
X39428571Y16321429D01*
X39571428Y16250000D01*
X39642857Y16178572D01*
X39714285Y16035715D01*
X39714285Y15892858D01*
X39642857Y15750000D01*
X39571428Y15678572D01*
X39428571Y15607143D01*
X38928571Y15607143D01*
X41142857Y14821429D02*
X40428571Y14821429D01*
X40428571Y16321429D01*
X41642857Y15607143D02*
X42142857Y15607143D01*
X42357142Y14821429D02*
X41642857Y14821429D01*
X41642857Y16321429D01*
X42357142Y16321429D01*
X44071428Y14892858D02*
X44285714Y14821429D01*
X44642857Y14821429D01*
X44785714Y14892858D01*
X44857142Y14964286D01*
X44928571Y15107143D01*
X44928571Y15250000D01*
X44857142Y15392858D01*
X44785714Y15464286D01*
X44642857Y15535715D01*
X44357142Y15607143D01*
X44214285Y15678572D01*
X44142857Y15750000D01*
X44071428Y15892858D01*
X44071428Y16035715D01*
X44142857Y16178572D01*
X44214285Y16250000D01*
X44357142Y16321429D01*
X44714285Y16321429D01*
X44928571Y16250000D01*
X45428571Y16321429D02*
X45785714Y14821429D01*
X46071428Y15892858D01*
X46357142Y14821429D01*
X46714285Y16321429D01*
X47285714Y14821429D02*
X47285714Y16321429D01*
X47642857Y16321429D01*
X47857142Y16250000D01*
X48000000Y16107143D01*
X48071428Y15964286D01*
X48142857Y15678572D01*
X48142857Y15464286D01*
X48071428Y15178572D01*
X48000000Y15035715D01*
X47857142Y14892858D01*
X47642857Y14821429D01*
X47285714Y14821429D01*
X34664285Y-6592857D02*
X34878571Y-6664285D01*
X34950000Y-6735714D01*
X35021428Y-6878571D01*
X35021428Y-7092857D01*
X34950000Y-7235714D01*
X34878571Y-7307142D01*
X34735714Y-7378571D01*
X34164285Y-7378571D01*
X34164285Y-5878571D01*
X34664285Y-5878571D01*
X34807142Y-5950000D01*
X34878571Y-6021428D01*
X34950000Y-6164285D01*
X34950000Y-6307142D01*
X34878571Y-6450000D01*
X34807142Y-6521428D01*
X34664285Y-6592857D01*
X34164285Y-6592857D01*
X36378571Y-7378571D02*
X35664285Y-7378571D01*
X35664285Y-5878571D01*
X36878571Y-6592857D02*
X37378571Y-6592857D01*
X37592857Y-7378571D02*
X36878571Y-7378571D01*
X36878571Y-5878571D01*
X37592857Y-5878571D01*
X39378571Y-7378571D02*
X39378571Y-5878571D01*
X39878571Y-6950000D01*
X40378571Y-5878571D01*
X40378571Y-7378571D01*
X41307142Y-7378571D02*
X41164285Y-7307142D01*
X41092857Y-7235714D01*
X41021428Y-7092857D01*
X41021428Y-6664285D01*
X41092857Y-6521428D01*
X41164285Y-6450000D01*
X41307142Y-6378571D01*
X41521428Y-6378571D01*
X41664285Y-6450000D01*
X41735714Y-6521428D01*
X41807142Y-6664285D01*
X41807142Y-7092857D01*
X41735714Y-7235714D01*
X41664285Y-7307142D01*
X41521428Y-7378571D01*
X41307142Y-7378571D01*
X43092857Y-7378571D02*
X43092857Y-5878571D01*
X43092857Y-7307142D02*
X42950000Y-7378571D01*
X42664285Y-7378571D01*
X42521428Y-7307142D01*
X42450000Y-7235714D01*
X42378571Y-7092857D01*
X42378571Y-6664285D01*
X42450000Y-6521428D01*
X42521428Y-6450000D01*
X42664285Y-6378571D01*
X42950000Y-6378571D01*
X43092857Y-6450000D01*
X44450000Y-6378571D02*
X44450000Y-7378571D01*
X43807142Y-6378571D02*
X43807142Y-7164285D01*
X43878571Y-7307142D01*
X44021428Y-7378571D01*
X44235714Y-7378571D01*
X44378571Y-7307142D01*
X44450000Y-7235714D01*
X45378571Y-7378571D02*
X45235714Y-7307142D01*
X45164285Y-7164285D01*
X45164285Y-5878571D01*
X-50407143Y16241429D02*
X-49550000Y16241429D01*
X-49978572Y14741429D02*
X-49978572Y16241429D01*
X-49050000Y15312858D02*
X-47907143Y15312858D01*
X-47192858Y14741429D02*
X-47192858Y16241429D01*
X-46621429Y16241429D01*
X-46478572Y16170000D01*
X-46407143Y16098572D01*
X-46335715Y15955715D01*
X-46335715Y15741429D01*
X-46407143Y15598572D01*
X-46478572Y15527143D01*
X-46621429Y15455715D01*
X-47192858Y15455715D01*
X-44835715Y14884286D02*
X-44907143Y14812858D01*
X-45121429Y14741429D01*
X-45264286Y14741429D01*
X-45478572Y14812858D01*
X-45621429Y14955715D01*
X-45692858Y15098572D01*
X-45764286Y15384286D01*
X-45764286Y15598572D01*
X-45692858Y15884286D01*
X-45621429Y16027143D01*
X-45478572Y16170000D01*
X-45264286Y16241429D01*
X-45121429Y16241429D01*
X-44907143Y16170000D01*
X-44835715Y16098572D01*
X-43692858Y15527143D02*
X-43478572Y15455715D01*
X-43407143Y15384286D01*
X-43335715Y15241429D01*
X-43335715Y15027143D01*
X-43407143Y14884286D01*
X-43478572Y14812858D01*
X-43621429Y14741429D01*
X-44192858Y14741429D01*
X-44192858Y16241429D01*
X-43692858Y16241429D01*
X-43550000Y16170000D01*
X-43478572Y16098572D01*
X-43407143Y15955715D01*
X-43407143Y15812858D01*
X-43478572Y15670000D01*
X-43550000Y15598572D01*
X-43692858Y15527143D01*
X-44192858Y15527143D01*
X-21184286Y-21978571D02*
X-20327143Y-21978571D01*
X-20755715Y-23478571D02*
X-20755715Y-21978571D01*
X-19827143Y-22907142D02*
X-18684286Y-22907142D01*
X-17970000Y-23478571D02*
X-17970000Y-21978571D01*
X-17470000Y-23050000D01*
X-16970000Y-21978571D01*
X-16970000Y-23478571D01*
X-16041429Y-23478571D02*
X-16184286Y-23407142D01*
X-16255715Y-23335714D01*
X-16327143Y-23192857D01*
X-16327143Y-22764285D01*
X-16255715Y-22621428D01*
X-16184286Y-22550000D01*
X-16041429Y-22478571D01*
X-15827143Y-22478571D01*
X-15684286Y-22550000D01*
X-15612858Y-22621428D01*
X-15541429Y-22764285D01*
X-15541429Y-23192857D01*
X-15612858Y-23335714D01*
X-15684286Y-23407142D01*
X-15827143Y-23478571D01*
X-16041429Y-23478571D01*
X-15112858Y-22478571D02*
X-14541429Y-22478571D01*
X-14898572Y-21978571D02*
X-14898572Y-23264285D01*
X-14827143Y-23407142D01*
X-14684286Y-23478571D01*
X-14541429Y-23478571D01*
X-13827143Y-23478571D02*
X-13970000Y-23407142D01*
X-14041429Y-23335714D01*
X-14112858Y-23192857D01*
X-14112858Y-22764285D01*
X-14041429Y-22621428D01*
X-13970000Y-22550000D01*
X-13827143Y-22478571D01*
X-13612858Y-22478571D01*
X-13470000Y-22550000D01*
X-13398572Y-22621428D01*
X-13327143Y-22764285D01*
X-13327143Y-23192857D01*
X-13398572Y-23335714D01*
X-13470000Y-23407142D01*
X-13612858Y-23478571D01*
X-13827143Y-23478571D01*
X-12684286Y-23478571D02*
X-12684286Y-22478571D01*
X-12684286Y-22764285D02*
X-12612858Y-22621428D01*
X-12541429Y-22550000D01*
X-12398572Y-22478571D01*
X-12255715Y-22478571D01*
X23423214Y-16431428D02*
X23494642Y-16360000D01*
X23637500Y-16288571D01*
X23994642Y-16288571D01*
X24137500Y-16360000D01*
X24208928Y-16431428D01*
X24280357Y-16574285D01*
X24280357Y-16717142D01*
X24208928Y-16931428D01*
X23351785Y-17788571D01*
X24280357Y-17788571D01*
X25208928Y-16288571D02*
X25351785Y-16288571D01*
X25494642Y-16360000D01*
X25566071Y-16431428D01*
X25637500Y-16574285D01*
X25708928Y-16860000D01*
X25708928Y-17217142D01*
X25637500Y-17502857D01*
X25566071Y-17645714D01*
X25494642Y-17717142D01*
X25351785Y-17788571D01*
X25208928Y-17788571D01*
X25066071Y-17717142D01*
X24994642Y-17645714D01*
X24923214Y-17502857D01*
X24851785Y-17217142D01*
X24851785Y-16860000D01*
X24923214Y-16574285D01*
X24994642Y-16431428D01*
X25066071Y-16360000D01*
X25208928Y-16288571D01*
X26280357Y-16431428D02*
X26351785Y-16360000D01*
X26494642Y-16288571D01*
X26851785Y-16288571D01*
X26994642Y-16360000D01*
X27066071Y-16431428D01*
X27137500Y-16574285D01*
X27137500Y-16717142D01*
X27066071Y-16931428D01*
X26208928Y-17788571D01*
X27137500Y-17788571D01*
X28066071Y-16288571D02*
X28208928Y-16288571D01*
X28351785Y-16360000D01*
X28423214Y-16431428D01*
X28494642Y-16574285D01*
X28566071Y-16860000D01*
X28566071Y-17217142D01*
X28494642Y-17502857D01*
X28423214Y-17645714D01*
X28351785Y-17717142D01*
X28208928Y-17788571D01*
X28066071Y-17788571D01*
X27923214Y-17717142D01*
X27851785Y-17645714D01*
X27780357Y-17502857D01*
X27708928Y-17217142D01*
X27708928Y-16860000D01*
X27780357Y-16574285D01*
X27851785Y-16431428D01*
X27923214Y-16360000D01*
X28066071Y-16288571D01*
X23423214Y-20117142D02*
X23566071Y-20188571D01*
X23851785Y-20188571D01*
X23994642Y-20117142D01*
X24066071Y-19974285D01*
X24066071Y-19902857D01*
X23994642Y-19760000D01*
X23851785Y-19688571D01*
X23637500Y-19688571D01*
X23494642Y-19617142D01*
X23423214Y-19474285D01*
X23423214Y-19402857D01*
X23494642Y-19260000D01*
X23637500Y-19188571D01*
X23851785Y-19188571D01*
X23994642Y-19260000D01*
X25351785Y-20117142D02*
X25208928Y-20188571D01*
X24923214Y-20188571D01*
X24780357Y-20117142D01*
X24708928Y-20045714D01*
X24637500Y-19902857D01*
X24637500Y-19474285D01*
X24708928Y-19331428D01*
X24780357Y-19260000D01*
X24923214Y-19188571D01*
X25208928Y-19188571D01*
X25351785Y-19260000D01*
X25994642Y-20188571D02*
X25994642Y-18688571D01*
X26637500Y-20188571D02*
X26637500Y-19402857D01*
X26566071Y-19260000D01*
X26423214Y-19188571D01*
X26208928Y-19188571D01*
X26066071Y-19260000D01*
X25994642Y-19331428D01*
X27994642Y-20188571D02*
X27994642Y-19402857D01*
X27923214Y-19260000D01*
X27780357Y-19188571D01*
X27494642Y-19188571D01*
X27351785Y-19260000D01*
X27994642Y-20117142D02*
X27851785Y-20188571D01*
X27494642Y-20188571D01*
X27351785Y-20117142D01*
X27280357Y-19974285D01*
X27280357Y-19831428D01*
X27351785Y-19688571D01*
X27494642Y-19617142D01*
X27851785Y-19617142D01*
X27994642Y-19545714D01*
X28708928Y-20188571D02*
X28708928Y-19188571D01*
X28708928Y-19474285D02*
X28780357Y-19331428D01*
X28851785Y-19260000D01*
X28994642Y-19188571D01*
X29137500Y-19188571D01*
X30280357Y-20188571D02*
X30280357Y-18688571D01*
X30280357Y-20117142D02*
X30137500Y-20188571D01*
X29851785Y-20188571D01*
X29708928Y-20117142D01*
X29637500Y-20045714D01*
X29566071Y-19902857D01*
X29566071Y-19474285D01*
X29637500Y-19331428D01*
X29708928Y-19260000D01*
X29851785Y-19188571D01*
X30137500Y-19188571D01*
X30280357Y-19260000D01*
X30780357Y-19188571D02*
X31351785Y-19188571D01*
X30994642Y-18688571D02*
X30994642Y-19974285D01*
X31066071Y-20117142D01*
X31208928Y-20188571D01*
X31351785Y-20188571D01*
X32780357Y-19474285D02*
X32708928Y-19402857D01*
X32566071Y-19331428D01*
X32423214Y-19331428D01*
X32280357Y-19402857D01*
X32208928Y-19474285D01*
X32137500Y-19617142D01*
X32137500Y-19760000D01*
X32208928Y-19902857D01*
X32280357Y-19974285D01*
X32423214Y-20045714D01*
X32566071Y-20045714D01*
X32708928Y-19974285D01*
X32780357Y-19902857D01*
X32780357Y-19331428D02*
X32780357Y-19902857D01*
X32851785Y-19974285D01*
X32923214Y-19974285D01*
X33066071Y-19902857D01*
X33137500Y-19760000D01*
X33137500Y-19402857D01*
X32994642Y-19188571D01*
X32780357Y-19045714D01*
X32494642Y-18974285D01*
X32208928Y-19045714D01*
X31994642Y-19188571D01*
X31851785Y-19402857D01*
X31780357Y-19688571D01*
X31851785Y-19974285D01*
X31994642Y-20188571D01*
X32208928Y-20331428D01*
X32494642Y-20402857D01*
X32780357Y-20331428D01*
X32994642Y-20188571D01*
X33566071Y-19188571D02*
X34137500Y-19188571D01*
X33780357Y-18688571D02*
X33780357Y-19974285D01*
X33851785Y-20117142D01*
X33994642Y-20188571D01*
X34137500Y-20188571D01*
X35208928Y-20117142D02*
X35066071Y-20188571D01*
X34780357Y-20188571D01*
X34637500Y-20117142D01*
X34566071Y-19974285D01*
X34566071Y-19402857D01*
X34637500Y-19260000D01*
X34780357Y-19188571D01*
X35066071Y-19188571D01*
X35208928Y-19260000D01*
X35280357Y-19402857D01*
X35280357Y-19545714D01*
X34566071Y-19688571D01*
X36566071Y-20188571D02*
X36566071Y-19402857D01*
X36494642Y-19260000D01*
X36351785Y-19188571D01*
X36066071Y-19188571D01*
X35923214Y-19260000D01*
X36566071Y-20117142D02*
X36423214Y-20188571D01*
X36066071Y-20188571D01*
X35923214Y-20117142D01*
X35851785Y-19974285D01*
X35851785Y-19831428D01*
X35923214Y-19688571D01*
X36066071Y-19617142D01*
X36423214Y-19617142D01*
X36566071Y-19545714D01*
X37280357Y-20188571D02*
X37280357Y-19188571D01*
X37280357Y-19331428D02*
X37351785Y-19260000D01*
X37494642Y-19188571D01*
X37708928Y-19188571D01*
X37851785Y-19260000D01*
X37923214Y-19402857D01*
X37923214Y-20188571D01*
X37923214Y-19402857D02*
X37994642Y-19260000D01*
X38137500Y-19188571D01*
X38351785Y-19188571D01*
X38494642Y-19260000D01*
X38566071Y-19402857D01*
X38566071Y-20188571D01*
X39280357Y-19617142D02*
X40423214Y-19617142D01*
X41780357Y-20117142D02*
X41637500Y-20188571D01*
X41351785Y-20188571D01*
X41208928Y-20117142D01*
X41137500Y-20045714D01*
X41066071Y-19902857D01*
X41066071Y-19474285D01*
X41137500Y-19331428D01*
X41208928Y-19260000D01*
X41351785Y-19188571D01*
X41637500Y-19188571D01*
X41780357Y-19260000D01*
X42208928Y-19188571D02*
X42780357Y-19188571D01*
X42423214Y-18688571D02*
X42423214Y-19974285D01*
X42494642Y-20117142D01*
X42637500Y-20188571D01*
X42780357Y-20188571D01*
X43851785Y-20117142D02*
X43708928Y-20188571D01*
X43423214Y-20188571D01*
X43280357Y-20117142D01*
X43208928Y-19974285D01*
X43208928Y-19402857D01*
X43280357Y-19260000D01*
X43423214Y-19188571D01*
X43708928Y-19188571D01*
X43851785Y-19260000D01*
X43923214Y-19402857D01*
X43923214Y-19545714D01*
X43208928Y-19688571D01*
X45208928Y-20117142D02*
X45066071Y-20188571D01*
X44780357Y-20188571D01*
X44637500Y-20117142D01*
X44566071Y-20045714D01*
X44494642Y-19902857D01*
X44494642Y-19474285D01*
X44566071Y-19331428D01*
X44637500Y-19260000D01*
X44780357Y-19188571D01*
X45066071Y-19188571D01*
X45208928Y-19260000D01*
X45851785Y-20188571D02*
X45851785Y-18688571D01*
X46494642Y-20188571D02*
X46494642Y-19402857D01*
X46423214Y-19260000D01*
X46280357Y-19188571D01*
X46066071Y-19188571D01*
X45923214Y-19260000D01*
X45851785Y-19331428D01*
X47208928Y-20045714D02*
X47280357Y-20117142D01*
X47208928Y-20188571D01*
X47137500Y-20117142D01*
X47208928Y-20045714D01*
X47208928Y-20188571D01*
X48566071Y-20188571D02*
X48566071Y-18688571D01*
X48566071Y-20117142D02*
X48423214Y-20188571D01*
X48137500Y-20188571D01*
X47994642Y-20117142D01*
X47923214Y-20045714D01*
X47851785Y-19902857D01*
X47851785Y-19474285D01*
X47923214Y-19331428D01*
X47994642Y-19260000D01*
X48137500Y-19188571D01*
X48423214Y-19188571D01*
X48566071Y-19260000D01*
X49851785Y-20117142D02*
X49708928Y-20188571D01*
X49423214Y-20188571D01*
X49280357Y-20117142D01*
X49208928Y-19974285D01*
X49208928Y-19402857D01*
X49280357Y-19260000D01*
X49423214Y-19188571D01*
X49708928Y-19188571D01*
X49851785Y-19260000D01*
X49923214Y-19402857D01*
X49923214Y-19545714D01*
X49208928Y-19688571D01*
X-22693000Y46946429D02*
X-22693000Y48446429D01*
X-22121572Y48446429D01*
X-21978715Y48375000D01*
X-21907286Y48303572D01*
X-21835858Y48160715D01*
X-21835858Y47946429D01*
X-21907286Y47803572D01*
X-21978715Y47732143D01*
X-22121572Y47660715D01*
X-22693000Y47660715D01*
X-21193000Y46946429D02*
X-21193000Y48446429D01*
X-21193000Y47732143D02*
X-20335858Y47732143D01*
X-20335858Y46946429D02*
X-20335858Y48446429D01*
X-17978715Y47732143D02*
X-17764429Y47660715D01*
X-17693000Y47589286D01*
X-17621572Y47446429D01*
X-17621572Y47232143D01*
X-17693000Y47089286D01*
X-17764429Y47017858D01*
X-17907286Y46946429D01*
X-18478715Y46946429D01*
X-18478715Y48446429D01*
X-17978715Y48446429D01*
X-17835858Y48375000D01*
X-17764429Y48303572D01*
X-17693000Y48160715D01*
X-17693000Y48017858D01*
X-17764429Y47875000D01*
X-17835858Y47803572D01*
X-17978715Y47732143D01*
X-18478715Y47732143D01*
D11*
X24500200Y-200D02*
G75*
G03X24500200Y-200I-24500000J0D01*
G01*
X55500200Y-200D02*
G75*
G03X55500200Y-200I-55500000J0D01*
G01*
X29464000Y46990000D02*
X29591000Y46863000D01*
D10*
X4231000Y47962429D02*
X4231000Y49462429D01*
X4802428Y49462429D01*
X4945285Y49391000D01*
X5016714Y49319572D01*
X5088142Y49176715D01*
X5088142Y48962429D01*
X5016714Y48819572D01*
X4945285Y48748143D01*
X4802428Y48676715D01*
X4231000Y48676715D01*
X5731000Y47962429D02*
X5731000Y49462429D01*
X5731000Y48748143D02*
X6588142Y48748143D01*
X6588142Y47962429D02*
X6588142Y49462429D01*
X9302428Y48105286D02*
X9231000Y48033858D01*
X9016714Y47962429D01*
X8873857Y47962429D01*
X8659571Y48033858D01*
X8516714Y48176715D01*
X8445285Y48319572D01*
X8373857Y48605286D01*
X8373857Y48819572D01*
X8445285Y49105286D01*
X8516714Y49248143D01*
X8659571Y49391000D01*
X8873857Y49462429D01*
X9016714Y49462429D01*
X9231000Y49391000D01*
X9302428Y49319572D01*
X-37952858Y38437429D02*
X-37952858Y39937429D01*
X-37381429Y39937429D01*
X-37238572Y39866000D01*
X-37167143Y39794572D01*
X-37095715Y39651715D01*
X-37095715Y39437429D01*
X-37167143Y39294572D01*
X-37238572Y39223143D01*
X-37381429Y39151715D01*
X-37952858Y39151715D01*
X-36452858Y38437429D02*
X-36452858Y39937429D01*
X-36452858Y39223143D02*
X-35595715Y39223143D01*
X-35595715Y38437429D02*
X-35595715Y39937429D01*
X-33810000Y38866000D02*
X-33095715Y38866000D01*
X-33952858Y38437429D02*
X-33452858Y39937429D01*
X-32952858Y38437429D01*
X-38292858Y-30198571D02*
X-38292858Y-31412857D01*
X-38221429Y-31555714D01*
X-38150000Y-31627142D01*
X-38007143Y-31698571D01*
X-37721429Y-31698571D01*
X-37578572Y-31627142D01*
X-37507143Y-31555714D01*
X-37435715Y-31412857D01*
X-37435715Y-30198571D01*
X-36792858Y-31627142D02*
X-36578572Y-31698571D01*
X-36221429Y-31698571D01*
X-36078572Y-31627142D01*
X-36007143Y-31555714D01*
X-35935715Y-31412857D01*
X-35935715Y-31270000D01*
X-36007143Y-31127142D01*
X-36078572Y-31055714D01*
X-36221429Y-30984285D01*
X-36507143Y-30912857D01*
X-36650000Y-30841428D01*
X-36721429Y-30770000D01*
X-36792858Y-30627142D01*
X-36792858Y-30484285D01*
X-36721429Y-30341428D01*
X-36650000Y-30270000D01*
X-36507143Y-30198571D01*
X-36150000Y-30198571D01*
X-35935715Y-30270000D01*
X-34792858Y-30912857D02*
X-34578572Y-30984285D01*
X-34507143Y-31055714D01*
X-34435715Y-31198571D01*
X-34435715Y-31412857D01*
X-34507143Y-31555714D01*
X-34578572Y-31627142D01*
X-34721429Y-31698571D01*
X-35292858Y-31698571D01*
X-35292858Y-30198571D01*
X-34792858Y-30198571D01*
X-34650000Y-30270000D01*
X-34578572Y-30341428D01*
X-34507143Y-30484285D01*
X-34507143Y-30627142D01*
X-34578572Y-30770000D01*
X-34650000Y-30841428D01*
X-34792858Y-30912857D01*
X-35292858Y-30912857D01*
X-26565715Y-13387142D02*
X-26351429Y-13458571D01*
X-25994286Y-13458571D01*
X-25851429Y-13387142D01*
X-25780000Y-13315714D01*
X-25708572Y-13172857D01*
X-25708572Y-13030000D01*
X-25780000Y-12887142D01*
X-25851429Y-12815714D01*
X-25994286Y-12744285D01*
X-26280000Y-12672857D01*
X-26422858Y-12601428D01*
X-26494286Y-12530000D01*
X-26565715Y-12387142D01*
X-26565715Y-12244285D01*
X-26494286Y-12101428D01*
X-26422858Y-12030000D01*
X-26280000Y-11958571D01*
X-25922858Y-11958571D01*
X-25708572Y-12030000D01*
X-25208572Y-11958571D02*
X-24851429Y-13458571D01*
X-24565715Y-12387142D01*
X-24280000Y-13458571D01*
X-23922858Y-11958571D01*
X-23351429Y-13458571D02*
X-23351429Y-11958571D01*
X-22994286Y-11958571D01*
X-22780000Y-12030000D01*
X-22637143Y-12172857D01*
X-22565715Y-12315714D01*
X-22494286Y-12601428D01*
X-22494286Y-12815714D01*
X-22565715Y-13101428D01*
X-22637143Y-13244285D01*
X-22780000Y-13387142D01*
X-22994286Y-13458571D01*
X-23351429Y-13458571D01*
X6544285Y-52887142D02*
X6758571Y-52958571D01*
X7115714Y-52958571D01*
X7258571Y-52887142D01*
X7330000Y-52815714D01*
X7401428Y-52672857D01*
X7401428Y-52530000D01*
X7330000Y-52387142D01*
X7258571Y-52315714D01*
X7115714Y-52244285D01*
X6830000Y-52172857D01*
X6687142Y-52101428D01*
X6615714Y-52030000D01*
X6544285Y-51887142D01*
X6544285Y-51744285D01*
X6615714Y-51601428D01*
X6687142Y-51530000D01*
X6830000Y-51458571D01*
X7187142Y-51458571D01*
X7401428Y-51530000D01*
X8615714Y-52887142D02*
X8472857Y-52958571D01*
X8187142Y-52958571D01*
X8044285Y-52887142D01*
X7972857Y-52744285D01*
X7972857Y-52172857D01*
X8044285Y-52030000D01*
X8187142Y-51958571D01*
X8472857Y-51958571D01*
X8615714Y-52030000D01*
X8687142Y-52172857D01*
X8687142Y-52315714D01*
X7972857Y-52458571D01*
X9330000Y-52958571D02*
X9330000Y-51958571D01*
X9330000Y-52244285D02*
X9401428Y-52101428D01*
X9472857Y-52030000D01*
X9615714Y-51958571D01*
X9758571Y-51958571D01*
X10115714Y-51958571D02*
X10472857Y-52958571D01*
X10830000Y-51958571D01*
X11615714Y-52958571D02*
X11472857Y-52887142D01*
X11401428Y-52815714D01*
X11330000Y-52672857D01*
X11330000Y-52244285D01*
X11401428Y-52101428D01*
X11472857Y-52030000D01*
X11615714Y-51958571D01*
X11830000Y-51958571D01*
X11972857Y-52030000D01*
X12044285Y-52101428D01*
X12115714Y-52244285D01*
X12115714Y-52672857D01*
X12044285Y-52815714D01*
X11972857Y-52887142D01*
X11830000Y-52958571D01*
X11615714Y-52958571D01*
X-9414286Y-47375714D02*
X-9485715Y-47447142D01*
X-9700000Y-47518571D01*
X-9842858Y-47518571D01*
X-10057143Y-47447142D01*
X-10200000Y-47304285D01*
X-10271429Y-47161428D01*
X-10342858Y-46875714D01*
X-10342858Y-46661428D01*
X-10271429Y-46375714D01*
X-10200000Y-46232857D01*
X-10057143Y-46090000D01*
X-9842858Y-46018571D01*
X-9700000Y-46018571D01*
X-9485715Y-46090000D01*
X-9414286Y-46161428D01*
X-8557143Y-47518571D02*
X-8700000Y-47447142D01*
X-8771429Y-47375714D01*
X-8842858Y-47232857D01*
X-8842858Y-46804285D01*
X-8771429Y-46661428D01*
X-8700000Y-46590000D01*
X-8557143Y-46518571D01*
X-8342858Y-46518571D01*
X-8200000Y-46590000D01*
X-8128572Y-46661428D01*
X-8057143Y-46804285D01*
X-8057143Y-47232857D01*
X-8128572Y-47375714D01*
X-8200000Y-47447142D01*
X-8342858Y-47518571D01*
X-8557143Y-47518571D01*
X-7414286Y-47518571D02*
X-7414286Y-46518571D01*
X-7414286Y-46661428D02*
X-7342858Y-46590000D01*
X-7200000Y-46518571D01*
X-6985715Y-46518571D01*
X-6842858Y-46590000D01*
X-6771429Y-46732857D01*
X-6771429Y-47518571D01*
X-6771429Y-46732857D02*
X-6700000Y-46590000D01*
X-6557143Y-46518571D01*
X-6342858Y-46518571D01*
X-6200000Y-46590000D01*
X-6128572Y-46732857D01*
X-6128572Y-47518571D01*
X-5414286Y-47518571D02*
X-5414286Y-46518571D01*
X-5414286Y-46661428D02*
X-5342858Y-46590000D01*
X-5200000Y-46518571D01*
X-4985715Y-46518571D01*
X-4842858Y-46590000D01*
X-4771429Y-46732857D01*
X-4771429Y-47518571D01*
X-4771429Y-46732857D02*
X-4700000Y-46590000D01*
X-4557143Y-46518571D01*
X-4342858Y-46518571D01*
X-4200000Y-46590000D01*
X-4128572Y-46732857D01*
X-4128572Y-47518571D01*
X-23678572Y-38878571D02*
X-23678572Y-37378571D01*
X-23678572Y-38092857D02*
X-22821429Y-38092857D01*
X-22821429Y-38878571D02*
X-22821429Y-37378571D01*
X-21464286Y-38878571D02*
X-21464286Y-38092857D01*
X-21535715Y-37950000D01*
X-21678572Y-37878571D01*
X-21964286Y-37878571D01*
X-22107143Y-37950000D01*
X-21464286Y-38807142D02*
X-21607143Y-38878571D01*
X-21964286Y-38878571D01*
X-22107143Y-38807142D01*
X-22178572Y-38664285D01*
X-22178572Y-38521428D01*
X-22107143Y-38378571D01*
X-21964286Y-38307142D01*
X-21607143Y-38307142D01*
X-21464286Y-38235714D01*
X-20535715Y-38878571D02*
X-20678572Y-38807142D01*
X-20750000Y-38664285D01*
X-20750000Y-37378571D01*
X-19750000Y-38878571D02*
X-19892858Y-38807142D01*
X-19964286Y-38664285D01*
X-19964286Y-37378571D01*
X-18107143Y-37307142D02*
X-19392858Y-39235714D01*
X-17607143Y-38092857D02*
X-17107143Y-38092857D01*
X-16892858Y-38878571D02*
X-17607143Y-38878571D01*
X-17607143Y-37378571D01*
X-16892858Y-37378571D01*
X-16250000Y-37878571D02*
X-16250000Y-38878571D01*
X-16250000Y-38021428D02*
X-16178572Y-37950000D01*
X-16035715Y-37878571D01*
X-15821429Y-37878571D01*
X-15678572Y-37950000D01*
X-15607143Y-38092857D01*
X-15607143Y-38878571D01*
X-14250000Y-38807142D02*
X-14392858Y-38878571D01*
X-14678572Y-38878571D01*
X-14821429Y-38807142D01*
X-14892858Y-38735714D01*
X-14964286Y-38592857D01*
X-14964286Y-38164285D01*
X-14892858Y-38021428D01*
X-14821429Y-37950000D01*
X-14678572Y-37878571D01*
X-14392858Y-37878571D01*
X-14250000Y-37950000D01*
X-31571429Y-34778571D02*
X-30714286Y-34778571D01*
X-31142858Y-36278571D02*
X-31142858Y-34778571D01*
X-30214286Y-36278571D02*
X-30214286Y-35278571D01*
X-30214286Y-35564285D02*
X-30142858Y-35421428D01*
X-30071429Y-35350000D01*
X-29928572Y-35278571D01*
X-29785715Y-35278571D01*
X-29285715Y-36278571D02*
X-29285715Y-35278571D01*
X-29285715Y-34778571D02*
X-29357143Y-34850000D01*
X-29285715Y-34921428D01*
X-29214286Y-34850000D01*
X-29285715Y-34778571D01*
X-29285715Y-34921428D01*
X-27928572Y-35278571D02*
X-27928572Y-36492857D01*
X-28000000Y-36635714D01*
X-28071429Y-36707142D01*
X-28214286Y-36778571D01*
X-28428572Y-36778571D01*
X-28571429Y-36707142D01*
X-27928572Y-36207142D02*
X-28071429Y-36278571D01*
X-28357143Y-36278571D01*
X-28500000Y-36207142D01*
X-28571429Y-36135714D01*
X-28642858Y-35992857D01*
X-28642858Y-35564285D01*
X-28571429Y-35421428D01*
X-28500000Y-35350000D01*
X-28357143Y-35278571D01*
X-28071429Y-35278571D01*
X-27928572Y-35350000D01*
X-26142858Y-34707142D02*
X-27428572Y-36635714D01*
X-25714286Y-36207142D02*
X-25500000Y-36278571D01*
X-25142858Y-36278571D01*
X-25000000Y-36207142D01*
X-24928572Y-36135714D01*
X-24857143Y-35992857D01*
X-24857143Y-35850000D01*
X-24928572Y-35707142D01*
X-25000000Y-35635714D01*
X-25142858Y-35564285D01*
X-25428572Y-35492857D01*
X-25571429Y-35421428D01*
X-25642858Y-35350000D01*
X-25714286Y-35207142D01*
X-25714286Y-35064285D01*
X-25642858Y-34921428D01*
X-25571429Y-34850000D01*
X-25428572Y-34778571D01*
X-25071429Y-34778571D01*
X-24857143Y-34850000D01*
X-24214286Y-35278571D02*
X-24214286Y-36778571D01*
X-24214286Y-35350000D02*
X-24071429Y-35278571D01*
X-23785715Y-35278571D01*
X-23642858Y-35350000D01*
X-23571429Y-35421428D01*
X-23500000Y-35564285D01*
X-23500000Y-35992857D01*
X-23571429Y-36135714D01*
X-23642858Y-36207142D01*
X-23785715Y-36278571D01*
X-24071429Y-36278571D01*
X-24214286Y-36207142D01*
X-22285715Y-36207142D02*
X-22428572Y-36278571D01*
X-22714286Y-36278571D01*
X-22857143Y-36207142D01*
X-22928572Y-36064285D01*
X-22928572Y-35492857D01*
X-22857143Y-35350000D01*
X-22714286Y-35278571D01*
X-22428572Y-35278571D01*
X-22285715Y-35350000D01*
X-22214286Y-35492857D01*
X-22214286Y-35635714D01*
X-22928572Y-35778571D01*
X-21000000Y-36207142D02*
X-21142858Y-36278571D01*
X-21428572Y-36278571D01*
X-21571429Y-36207142D01*
X-21642858Y-36064285D01*
X-21642858Y-35492857D01*
X-21571429Y-35350000D01*
X-21428572Y-35278571D01*
X-21142858Y-35278571D01*
X-21000000Y-35350000D01*
X-20928572Y-35492857D01*
X-20928572Y-35635714D01*
X-21642858Y-35778571D01*
X-19642858Y-36278571D02*
X-19642858Y-34778571D01*
X-19642858Y-36207142D02*
X-19785715Y-36278571D01*
X-20071429Y-36278571D01*
X-20214286Y-36207142D01*
X-20285715Y-36135714D01*
X-20357143Y-35992857D01*
X-20357143Y-35564285D01*
X-20285715Y-35421428D01*
X-20214286Y-35350000D01*
X-20071429Y-35278571D01*
X-19785715Y-35278571D01*
X-19642858Y-35350000D01*
X24245714Y-13820000D02*
X24102857Y-13748571D01*
X23888571Y-13748571D01*
X23674285Y-13820000D01*
X23531428Y-13962857D01*
X23460000Y-14105714D01*
X23388571Y-14391428D01*
X23388571Y-14605714D01*
X23460000Y-14891428D01*
X23531428Y-15034285D01*
X23674285Y-15177142D01*
X23888571Y-15248571D01*
X24031428Y-15248571D01*
X24245714Y-15177142D01*
X24317142Y-15105714D01*
X24317142Y-14605714D01*
X24031428Y-14605714D01*
X24888571Y-15177142D02*
X25102857Y-15248571D01*
X25460000Y-15248571D01*
X25602857Y-15177142D01*
X25674285Y-15105714D01*
X25745714Y-14962857D01*
X25745714Y-14820000D01*
X25674285Y-14677142D01*
X25602857Y-14605714D01*
X25460000Y-14534285D01*
X25174285Y-14462857D01*
X25031428Y-14391428D01*
X24960000Y-14320000D01*
X24888571Y-14177142D01*
X24888571Y-14034285D01*
X24960000Y-13891428D01*
X25031428Y-13820000D01*
X25174285Y-13748571D01*
X25531428Y-13748571D01*
X25745714Y-13820000D01*
X26174285Y-13748571D02*
X26674285Y-15248571D01*
X27174285Y-13748571D01*
X27674285Y-14462857D02*
X28174285Y-14462857D01*
X28388571Y-15248571D02*
X27674285Y-15248571D01*
X27674285Y-13748571D01*
X28388571Y-13748571D01*
X28960000Y-15177142D02*
X29174285Y-15248571D01*
X29531428Y-15248571D01*
X29674285Y-15177142D01*
X29745714Y-15105714D01*
X29817142Y-14962857D01*
X29817142Y-14820000D01*
X29745714Y-14677142D01*
X29674285Y-14605714D01*
X29531428Y-14534285D01*
X29245714Y-14462857D01*
X29102857Y-14391428D01*
X29031428Y-14320000D01*
X28960000Y-14177142D01*
X28960000Y-14034285D01*
X29031428Y-13891428D01*
X29102857Y-13820000D01*
X29245714Y-13748571D01*
X29602857Y-13748571D01*
X29817142Y-13820000D01*
X31317142Y-15105714D02*
X31245714Y-15177142D01*
X31031428Y-15248571D01*
X30888571Y-15248571D01*
X30674285Y-15177142D01*
X30531428Y-15034285D01*
X30460000Y-14891428D01*
X30388571Y-14605714D01*
X30388571Y-14391428D01*
X30460000Y-14105714D01*
X30531428Y-13962857D01*
X30674285Y-13820000D01*
X30888571Y-13748571D01*
X31031428Y-13748571D01*
X31245714Y-13820000D01*
X31317142Y-13891428D01*
X33745714Y-14248571D02*
X33745714Y-15248571D01*
X33388571Y-13677142D02*
X33031428Y-14748571D01*
X33960000Y-14748571D01*
X34531428Y-15105714D02*
X34602857Y-15177142D01*
X34531428Y-15248571D01*
X34460000Y-15177142D01*
X34531428Y-15105714D01*
X34531428Y-15248571D01*
X35531428Y-13748571D02*
X35674285Y-13748571D01*
X35817142Y-13820000D01*
X35888571Y-13891428D01*
X35960000Y-14034285D01*
X36031428Y-14320000D01*
X36031428Y-14677142D01*
X35960000Y-14962857D01*
X35888571Y-15105714D01*
X35817142Y-15177142D01*
X35674285Y-15248571D01*
X35531428Y-15248571D01*
X35388571Y-15177142D01*
X35317142Y-15105714D01*
X35245714Y-14962857D01*
X35174285Y-14677142D01*
X35174285Y-14320000D01*
X35245714Y-14034285D01*
X35317142Y-13891428D01*
X35388571Y-13820000D01*
X35531428Y-13748571D01*
D12*
X-25080000Y-14795000D02*
X-23750000Y-14795000D01*
X-25080000Y-16125000D02*
X-25080000Y-14795000D01*
X-25080000Y-17395000D02*
X-22420000Y-17395000D01*
X-22420000Y-17395000D02*
X-22420000Y-27615000D01*
X-25080000Y-17395000D02*
X-25080000Y-27615000D01*
X-25080000Y-27615000D02*
X-22420000Y-27615000D01*
D13*
X38400000Y-3000000D02*
G75*
G03X38400000Y-3000000I-100000J0D01*
G01*
D14*
X37800000Y-2300000D02*
X37800000Y2800000D01*
X49100000Y-2300000D02*
X37800000Y-2300000D01*
X49100000Y2800000D02*
X49100000Y-2300000D01*
X37800000Y2800000D02*
X49100000Y2800000D01*
D12*
X43203922Y-3390000D02*
X43721078Y-3390000D01*
X43203922Y-4810000D02*
X43721078Y-4810000D01*
X44410000Y11360000D02*
X44410000Y12510000D01*
X44410000Y12510000D02*
X43360000Y12510000D01*
X43360000Y12510000D02*
X43360000Y13500000D01*
X39190000Y11360000D02*
X39190000Y12510000D01*
X39190000Y12510000D02*
X40240000Y12510000D01*
X43240000Y9390000D02*
X40360000Y9390000D01*
X42637500Y3940000D02*
X45322500Y3940000D01*
X45322500Y3940000D02*
X45322500Y5860000D01*
X45322500Y5860000D02*
X42637500Y5860000D01*
X39503922Y5610000D02*
X40021078Y5610000D01*
X39503922Y4190000D02*
X40021078Y4190000D01*
X-48374400Y-10850000D02*
X-48374400Y-5100000D01*
X-48374400Y-5100000D02*
X-51974400Y-5100000D01*
X-51974400Y-5100000D02*
X-51974400Y-10850000D01*
X-33980000Y9340000D02*
X-33050000Y9340000D01*
X-30820000Y9340000D02*
X-31750000Y9340000D01*
X-30820000Y9340000D02*
X-30820000Y11500000D01*
X-33980000Y9340000D02*
X-33980000Y10800000D01*
X-53480000Y8240000D02*
X-53480000Y9700000D01*
X-50320000Y8240000D02*
X-50320000Y10400000D01*
X-50320000Y8240000D02*
X-51250000Y8240000D01*
X-53480000Y8240000D02*
X-52550000Y8240000D01*
X-43680000Y8840000D02*
X-42750000Y8840000D01*
X-40520000Y8840000D02*
X-41450000Y8840000D01*
X-40520000Y8840000D02*
X-40520000Y11000000D01*
X-43680000Y8840000D02*
X-43680000Y10300000D01*
X-28796078Y10990000D02*
X-28278922Y10990000D01*
X-28796078Y12410000D02*
X-28278922Y12410000D01*
D10*
X-49630000Y4825000D02*
X-49630000Y3425000D01*
X-44530000Y4825000D02*
X-44530000Y8975000D01*
X-49680000Y4825000D02*
X-49680000Y8975000D01*
X-44530000Y4825000D02*
X-44675000Y4825000D01*
X-44530000Y8975000D02*
X-44675000Y8975000D01*
X-49680000Y8975000D02*
X-49535000Y8975000D01*
X-49680000Y4825000D02*
X-49630000Y4825000D01*
D12*
X-50590000Y4803922D02*
X-50590000Y5321078D01*
X-52010000Y4803922D02*
X-52010000Y5321078D01*
X-47596078Y11228000D02*
X-47078922Y11228000D01*
X-47596078Y12648000D02*
X-47078922Y12648000D01*
X-45472500Y16827500D02*
X-46272500Y16827500D01*
X-48172500Y19227500D02*
X-47072500Y19227500D01*
X-48172500Y18077500D02*
X-48172500Y19227500D01*
X-45172500Y19227500D02*
X-46272500Y19227500D01*
X-45172500Y18077500D02*
X-45172500Y19227500D01*
X-18431472Y-20668528D02*
X-18997157Y-20102843D01*
X-18643604Y-17062284D02*
X-17865786Y-17840101D01*
X-19456777Y-17875456D02*
X-18643604Y-17062284D01*
X-16522284Y-19183604D02*
X-17300101Y-18405786D01*
X-17335456Y-19996777D02*
X-16522284Y-19183604D01*
D10*
X-41103200Y-6806400D02*
X-42128200Y-6806400D01*
X-30753200Y-5806400D02*
X-31828200Y-5806400D01*
X-30753200Y-16156400D02*
X-31828200Y-16156400D01*
X-41103200Y-16156400D02*
X-40028200Y-16156400D01*
X-41103200Y-5806400D02*
X-40028200Y-5806400D01*
X-41103200Y-16156400D02*
X-41103200Y-15081400D01*
X-30753200Y-16156400D02*
X-30753200Y-15081400D01*
X-30753200Y-5806400D02*
X-30753200Y-6881400D01*
X-41103200Y-5806400D02*
X-41103200Y-6806400D01*
D12*
X-50221078Y-15710000D02*
X-49703922Y-15710000D01*
X-50221078Y-14290000D02*
X-49703922Y-14290000D01*
X-32687422Y-18275000D02*
X-33204578Y-18275000D01*
X-32687422Y-19695000D02*
X-33204578Y-19695000D01*
X-12990000Y-29497500D02*
X-12990000Y-25287500D01*
X-16010000Y-29497500D02*
X-12990000Y-29497500D01*
X-16010000Y-25287500D02*
X-16010000Y-29497500D01*
X-4775000Y-35750000D02*
X-7075000Y-35750000D01*
X-4775000Y-28350000D02*
X-4775000Y-35750000D01*
X-7075000Y-28350000D02*
X-4775000Y-28350000D01*
X-12175000Y-28350000D02*
X-9875000Y-28350000D01*
X-12175000Y-35750000D02*
X-12175000Y-28350000D01*
X-9875000Y-35750000D02*
X-12175000Y-35750000D01*
X-27249000Y-24314577D02*
X-27249000Y-23797421D01*
X-28669000Y-24314577D02*
X-28669000Y-23797421D01*
D10*
X-39925000Y4925000D02*
X-39925000Y3525000D01*
X-34825000Y4925000D02*
X-34825000Y9075000D01*
X-39975000Y4925000D02*
X-39975000Y9075000D01*
X-34825000Y4925000D02*
X-34970000Y4925000D01*
X-34825000Y9075000D02*
X-34970000Y9075000D01*
X-39975000Y9075000D02*
X-39830000Y9075000D01*
X-39975000Y4925000D02*
X-39925000Y4925000D01*
D12*
X-4150000Y-36150000D02*
X-4150000Y-30750000D01*
X-850000Y-36150000D02*
X-850000Y-30750000D01*
X-4150000Y-36150000D02*
X-850000Y-36150000D01*
X2641422Y-32560000D02*
X3158578Y-32560000D01*
X2641422Y-31140000D02*
X3158578Y-31140000D01*
X-12920000Y-37878922D02*
X-12920000Y-38396078D01*
X-11500000Y-37878922D02*
X-11500000Y-38396078D01*
X-10310000Y-41938922D02*
X-10310000Y-42456078D01*
X-8890000Y-41938922D02*
X-8890000Y-42456078D01*
X1000000Y-46481422D02*
X1000000Y-46998578D01*
X2420000Y-46481422D02*
X2420000Y-46998578D01*
X-20862005Y-41528922D02*
X-20862005Y-42046078D01*
X-19442005Y-41528922D02*
X-19442005Y-42046078D01*
X-1100000Y-46503921D02*
X-1100000Y-47021077D01*
X320000Y-46503921D02*
X320000Y-47021077D01*
X-18560000Y-42378922D02*
X-18560000Y-42896078D01*
X-17140000Y-42378922D02*
X-17140000Y-42896078D01*
X-16285000Y-43203922D02*
X-16285000Y-43721078D01*
X-14865000Y-43203922D02*
X-14865000Y-43721078D01*
X-13960000Y-44403922D02*
X-13960000Y-44921078D01*
X-12540000Y-44403922D02*
X-12540000Y-44921078D01*
X2641422Y-30210000D02*
X3158578Y-30210000D01*
X2641422Y-28790000D02*
X3158578Y-28790000D01*
X9138579Y-47040000D02*
X8621423Y-47040000D01*
X9138579Y-48460000D02*
X8621423Y-48460000D01*
X8621423Y-46210000D02*
X9138579Y-46210000D01*
X8621423Y-44790000D02*
X9138579Y-44790000D01*
X-10210000Y-37928922D02*
X-10210000Y-38446078D01*
X-8790000Y-37928922D02*
X-8790000Y-38446078D01*
D10*
X-6600000Y-36995000D02*
X-8000000Y-36995000D01*
X-6600000Y-42095000D02*
X-2450000Y-42095000D01*
X-6600000Y-36945000D02*
X-2450000Y-36945000D01*
X-6600000Y-42095000D02*
X-6600000Y-41950000D01*
X-2450000Y-42095000D02*
X-2450000Y-41950000D01*
X-2450000Y-36945000D02*
X-2450000Y-37090000D01*
X-6600000Y-36945000D02*
X-6600000Y-36995000D01*
D12*
X2591422Y-34910000D02*
X3108578Y-34910000D01*
X2591422Y-33490000D02*
X3108578Y-33490000D01*
X-16010000Y-30077500D02*
X-16010000Y-34287500D01*
X-12990000Y-30077500D02*
X-16010000Y-30077500D01*
X-12990000Y-34287500D02*
X-12990000Y-30077500D01*
X2616422Y-37210000D02*
X3133578Y-37210000D01*
X2616422Y-35790000D02*
X3133578Y-35790000D01*
D10*
X14300000Y-41700000D02*
X14300000Y-40450000D01*
X11125000Y-41700000D02*
X11125000Y-45050000D01*
X14475000Y-41700000D02*
X14475000Y-45050000D01*
X11125000Y-41700000D02*
X11375000Y-41700000D01*
X11125000Y-45050000D02*
X11375000Y-45050000D01*
X14475000Y-45050000D02*
X14225000Y-45050000D01*
X14475000Y-41700000D02*
X14300000Y-41700000D01*
D12*
X8621423Y-44060000D02*
X9138579Y-44060000D01*
X8621423Y-42640000D02*
X9138579Y-42640000D01*
X9058578Y-40490000D02*
X8541422Y-40490000D01*
X9058578Y-41910000D02*
X8541422Y-41910000D01*
X11065000Y-48591422D02*
X11065000Y-49108578D01*
X12485000Y-48591422D02*
X12485000Y-49108578D01*
X16535000Y-42108578D02*
X16535000Y-41591422D01*
X15115000Y-42108578D02*
X15115000Y-41591422D01*
X2616422Y-39710000D02*
X3133578Y-39710000D01*
X2616422Y-38290000D02*
X3133578Y-38290000D01*
X15200000Y-47250000D02*
X15200000Y-51150000D01*
X13200000Y-47250000D02*
X13200000Y-51150000D01*
X15200000Y-47250000D02*
X13200000Y-47250000D01*
X850000Y-40950000D02*
X4750000Y-40950000D01*
X850000Y-42950000D02*
X4750000Y-42950000D01*
X850000Y-40950000D02*
X850000Y-42950000D01*
X-36035000Y-27828922D02*
X-36035000Y-28346078D01*
X-34615000Y-27828922D02*
X-34615000Y-28346078D01*
X3390000Y-54085000D02*
X510000Y-54085000D01*
X-660000Y-50965000D02*
X390000Y-50965000D01*
X-660000Y-52115000D02*
X-660000Y-50965000D01*
X3510000Y-50965000D02*
X3510000Y-49975000D01*
X4560000Y-50965000D02*
X3510000Y-50965000D01*
X4560000Y-52115000D02*
X4560000Y-50965000D01*
X-16927039Y-50989983D02*
X-22378880Y-48787296D01*
X-22294912Y-45456193D02*
X-21321369Y-45849530D01*
X-22725710Y-46522454D02*
X-22294912Y-45456193D01*
X-15647004Y-48142122D02*
X-15276144Y-47224210D01*
X-14673461Y-48535459D02*
X-15647004Y-48142122D01*
X-15104259Y-49601720D02*
X-14673461Y-48535459D01*
X-5403698Y-53589989D02*
X-11194368Y-52568938D01*
X-11804810Y-49293169D02*
X-10770762Y-49475500D01*
X-12004506Y-50425698D02*
X-11804810Y-49293169D01*
X-4743739Y-50538227D02*
X-4571827Y-49563267D01*
X-3709691Y-50720557D02*
X-4743739Y-50538227D01*
X-3909386Y-51853086D02*
X-3709691Y-50720557D01*
X-27519582Y-45932810D02*
X-32336196Y-42560181D01*
X-31505045Y-39333342D02*
X-30644935Y-39935597D01*
X-32164658Y-40275367D02*
X-31505045Y-39333342D01*
X-25631725Y-43445885D02*
X-25063884Y-42634925D01*
X-24771615Y-44048140D02*
X-25631725Y-43445885D01*
X-25431228Y-44990165D02*
X-24771615Y-44048140D01*
X-48390000Y378922D02*
X-48390000Y896078D01*
X-49810000Y378922D02*
X-49810000Y896078D01*
X18885000Y-42133578D02*
X18885000Y-41616422D01*
X17465000Y-42133578D02*
X17465000Y-41616422D01*
X-40690000Y4803922D02*
X-40690000Y5321078D01*
X-42110000Y4803922D02*
X-42110000Y5321078D01*
X-40302922Y-2338000D02*
X-40820078Y-2338000D01*
X-40302922Y-3758000D02*
X-40820078Y-3758000D01*
X-38296078Y11290000D02*
X-37778922Y11290000D01*
X-38296078Y12710000D02*
X-37778922Y12710000D01*
X-30990000Y4903922D02*
X-30990000Y5421078D01*
X-32410000Y4903922D02*
X-32410000Y5421078D01*
X-30495422Y-2318000D02*
X-31012578Y-2318000D01*
X-30495422Y-3738000D02*
X-31012578Y-3738000D01*
X16040000Y-46497936D02*
X16040000Y-47702064D01*
X18760000Y-46497936D02*
X18760000Y-47702064D01*
X20150000Y-39150000D02*
X20150000Y-33750000D01*
X23450000Y-39150000D02*
X23450000Y-33750000D01*
X20150000Y-39150000D02*
X23450000Y-39150000D01*
X18350000Y-26500000D02*
X18350000Y-29500000D01*
X5750000Y-26500000D02*
X18350000Y-26500000D01*
X5750000Y-29500000D02*
X5750000Y-26500000D01*
X5750000Y-39100000D02*
X5750000Y-36100000D01*
X18350000Y-39100000D02*
X5750000Y-39100000D01*
X18350000Y-36100000D02*
X18350000Y-39100000D01*
D10*
X-30225000Y4725000D02*
X-30225000Y3325000D01*
X-25125000Y4725000D02*
X-25125000Y8875000D01*
X-30275000Y4725000D02*
X-30275000Y8875000D01*
X-25125000Y4725000D02*
X-25270000Y4725000D01*
X-25125000Y8875000D02*
X-25270000Y8875000D01*
X-30275000Y8875000D02*
X-30130000Y8875000D01*
X-30275000Y4725000D02*
X-30225000Y4725000D01*
D12*
X-40334000Y726578D02*
X-40334000Y209422D01*
X-38914000Y726578D02*
X-38914000Y209422D01*
X-54010000Y896078D02*
X-54010000Y378922D01*
X-52590000Y896078D02*
X-52590000Y378922D01*
X-51910000Y896078D02*
X-51910000Y378922D01*
X-50490000Y896078D02*
X-50490000Y378922D01*
X21160000Y-46783578D02*
X21160000Y-46266422D01*
X19740000Y-46783578D02*
X19740000Y-46266422D01*
X-42620000Y726578D02*
X-42620000Y209422D01*
X-41200000Y726578D02*
X-41200000Y209422D01*
X-33348000Y845078D02*
X-33348000Y327922D01*
X-31928000Y845078D02*
X-31928000Y327922D01*
X-50221078Y-17910000D02*
X-49703922Y-17910000D01*
X-50221078Y-16490000D02*
X-49703922Y-16490000D01*
X-30936000Y845078D02*
X-30936000Y327922D01*
X-29516000Y845078D02*
X-29516000Y327922D01*
D15*
X-34696400Y-368300D02*
X-34696400Y1384300D01*
X-35988739Y1384300D02*
X-36655261Y1384300D01*
X-37947600Y1384300D02*
X-37947600Y-368300D01*
X-44374400Y-444500D02*
X-44374400Y1308100D01*
X-45666739Y1308100D02*
X-46333261Y1308100D01*
X-47625600Y1308100D02*
X-47625600Y-444500D01*
X-25442400Y-444500D02*
X-25442400Y1308100D01*
X-26734739Y1308100D02*
X-27401261Y1308100D01*
X-28693600Y1308100D02*
X-28693600Y-444500D01*
D11*
X-5965600Y30603600D02*
G75*
G03X-5965600Y30603600I-100000J0D01*
G01*
D14*
X-6715600Y32103600D02*
X-6715600Y37103600D01*
X-1615600Y32103600D02*
X-1615600Y37103600D01*
D11*
X-33129730Y22497174D02*
G75*
G03X-33129730Y22497174I-100000J0D01*
G01*
D14*
X-33879730Y23997174D02*
X-33879730Y28997174D01*
X-28779730Y23997174D02*
X-28779730Y28997174D01*
D11*
X-33129730Y14581174D02*
G75*
G03X-33129730Y14581174I-100000J0D01*
G01*
D14*
X-33879730Y16081174D02*
X-33879730Y21081174D01*
X-28779730Y16081174D02*
X-28779730Y21081174D01*
D11*
X-5965600Y38722800D02*
G75*
G03X-5965600Y38722800I-100000J0D01*
G01*
D14*
X-6715600Y40222800D02*
X-6715600Y45222800D01*
X-1615600Y40222800D02*
X-1615600Y45222800D01*
D11*
X-17675000Y30848800D02*
G75*
G03X-17675000Y30848800I-100000J0D01*
G01*
D14*
X-18425000Y32348800D02*
X-18425000Y37348800D01*
X-13325000Y32348800D02*
X-13325000Y37348800D01*
D11*
X-17802000Y22847800D02*
G75*
G03X-17802000Y22847800I-100000J0D01*
G01*
D14*
X-18552000Y24347800D02*
X-18552000Y29347800D01*
X-13452000Y24347800D02*
X-13452000Y29347800D01*
D12*
X-35885000Y-24378077D02*
X-35885000Y-23860921D01*
X-37305000Y-24378077D02*
X-37305000Y-23860921D01*
X-31567000Y-24314577D02*
X-31567000Y-23797421D01*
X-32987000Y-24314577D02*
X-32987000Y-23797421D01*
X-37794000Y-25804499D02*
X-37794000Y-23119499D01*
X-39714000Y-25804499D02*
X-37794000Y-25804499D01*
X-39714000Y-23119499D02*
X-39714000Y-25804499D01*
X-29158000Y-25702328D02*
X-29158000Y-23017328D01*
X-31078000Y-25702328D02*
X-29158000Y-25702328D01*
X-31078000Y-23017328D02*
X-31078000Y-25702328D01*
X-33476000Y-25740999D02*
X-33476000Y-23055999D01*
X-35396000Y-25740999D02*
X-33476000Y-25740999D01*
X-35396000Y-23055999D02*
X-35396000Y-25740999D01*
D15*
X1747401Y33972500D02*
X1747401Y29324300D01*
X4998601Y29324300D02*
X4998601Y33972500D01*
X4424201Y35876700D02*
G75*
G03X4424201Y35876700I-76200J0D01*
G01*
X-23977600Y32829500D02*
X-23977600Y37477700D01*
X-27228800Y37477700D02*
X-27228800Y32829500D01*
X-26502000Y30925300D02*
G75*
G03X-26502000Y30925300I-76200J0D01*
G01*
X-42875200Y28282900D02*
X-42875200Y23634700D01*
X-39624000Y23634700D02*
X-39624000Y28282900D01*
X-40198400Y30187100D02*
G75*
G03X-40198400Y30187100I-76200J0D01*
G01*
D12*
X-37000922Y16839000D02*
X-37518078Y16839000D01*
X-37000922Y15419000D02*
X-37518078Y15419000D01*
X-30678622Y43026400D02*
X-31195778Y43026400D01*
X-30678622Y41606400D02*
X-31195778Y41606400D01*
X-45658922Y-7773000D02*
X-46176078Y-7773000D01*
X-45658922Y-9193000D02*
X-46176078Y-9193000D01*
X-45658922Y-9932000D02*
X-46176078Y-9932000D01*
X-45658922Y-11352000D02*
X-46176078Y-11352000D01*
X-3925500Y27158422D02*
X-3925500Y27675578D01*
X-5345500Y27158422D02*
X-5345500Y27675578D01*
X-41339500Y-19630422D02*
X-41339500Y-20147578D01*
X-39919500Y-19630422D02*
X-39919500Y-20147578D01*
X-43587600Y25875722D02*
X-43587600Y26392878D01*
X-45007600Y25875722D02*
X-45007600Y26392878D01*
X7377500Y31616122D02*
X7377500Y32133278D01*
X5957500Y31616122D02*
X5957500Y32133278D01*
X-45658922Y-12091000D02*
X-46176078Y-12091000D01*
X-45658922Y-13511000D02*
X-46176078Y-13511000D01*
X-10428864Y31456800D02*
X-9224736Y31456800D01*
X-10428864Y34176800D02*
X-9224736Y34176800D01*
X-9732736Y42101600D02*
X-10936864Y42101600D01*
X-9732736Y39381600D02*
X-10936864Y39381600D01*
X-26005064Y26453000D02*
X-24800936Y26453000D01*
X-26005064Y29173000D02*
X-24800936Y29173000D01*
X-9732736Y45911600D02*
X-10936864Y45911600D01*
X-9732736Y43191600D02*
X-10936864Y43191600D01*
X-10428864Y35266800D02*
X-9224736Y35266800D01*
X-10428864Y37986800D02*
X-9224736Y37986800D01*
X-26005064Y23024000D02*
X-24800936Y23024000D01*
X-26005064Y25744000D02*
X-24800936Y25744000D01*
X3939278Y26821200D02*
X3422122Y26821200D01*
X3939278Y25401200D02*
X3422122Y25401200D01*
X-46951078Y20460000D02*
X-46433922Y20460000D01*
X-46951078Y21880000D02*
X-46433922Y21880000D01*
X710000Y42715922D02*
X710000Y43233078D01*
X-710000Y42715922D02*
X-710000Y43233078D01*
X-583000Y32755578D02*
X-583000Y32238422D01*
X837000Y32755578D02*
X837000Y32238422D01*
X-27989600Y21160478D02*
X-27989600Y20643322D01*
X-26569600Y21160478D02*
X-26569600Y20643322D01*
X-41413500Y19865078D02*
X-41413500Y19347922D01*
X-39993500Y19865078D02*
X-39993500Y19347922D01*
X-28144400Y38575722D02*
X-28144400Y39092878D01*
X-29564400Y38575722D02*
X-29564400Y39092878D01*
X-26569600Y16274522D02*
X-26569600Y16791678D01*
X-27989600Y16274522D02*
X-27989600Y16791678D01*
X5502064Y39937000D02*
X1397936Y39937000D01*
X5502064Y36517000D02*
X1397936Y36517000D01*
D15*
X-38087300Y17678400D02*
X-36334700Y17678400D01*
X-36334700Y18970739D02*
X-36334700Y19637261D01*
X-36334700Y20929600D02*
X-38087300Y20929600D01*
X-24597401Y41910000D02*
X-24597401Y43662600D01*
X-25889740Y43662600D02*
X-26556262Y43662600D01*
X-27848601Y43662600D02*
X-27848601Y41910000D01*
X254000Y29118601D02*
X-1498600Y29118601D01*
X-1498600Y27826262D02*
X-1498600Y27159740D01*
X-1498600Y25867401D02*
X254000Y25867401D01*
D12*
X9017000Y46609000D02*
X9017000Y41021000D01*
X3429000Y46609000D02*
X9017000Y46609000D01*
X3429000Y41021000D02*
X3429000Y46609000D01*
X9017000Y41021000D02*
X3429000Y41021000D01*
X-23114000Y40386000D02*
X-23114000Y45974000D01*
X-17526000Y40386000D02*
X-23114000Y40386000D01*
X-17526000Y45974000D02*
X-17526000Y40386000D01*
X-23114000Y45974000D02*
X-17526000Y45974000D01*
X19583400Y42341800D02*
X19583400Y36753800D01*
X13995400Y42341800D02*
X19583400Y42341800D01*
X13995400Y36753800D02*
X13995400Y42341800D01*
X19583400Y36753800D02*
X13995400Y36753800D01*
X16687800Y33528000D02*
X16687800Y27940000D01*
X11099800Y33528000D02*
X16687800Y33528000D01*
X11099800Y27940000D02*
X11099800Y33528000D01*
X16687800Y27940000D02*
X11099800Y27940000D01*
X-28144400Y34562522D02*
X-28144400Y35079678D01*
X-29564400Y34562522D02*
X-29564400Y35079678D01*
X-10974000Y24379422D02*
X-10974000Y24896578D01*
X-12394000Y24379422D02*
X-12394000Y24896578D01*
X-12343200Y29034478D02*
X-12343200Y28517322D01*
X-10923200Y29034478D02*
X-10923200Y28517322D01*
X-38667000Y28087064D02*
X-38667000Y23982936D01*
X-35247000Y28087064D02*
X-35247000Y23982936D01*
X-22792000Y37104064D02*
X-22792000Y32999936D01*
X-19372000Y37104064D02*
X-19372000Y32999936D01*
X-38811200Y37287200D02*
X-33223200Y37287200D01*
X-38811200Y31699200D02*
X-38811200Y37287200D01*
X-33223200Y31699200D02*
X-38811200Y31699200D01*
X-33223200Y37287200D02*
X-33223200Y31699200D01*
X-37212000Y-19615422D02*
X-37212000Y-20132578D01*
X-35792000Y-19615422D02*
X-35792000Y-20132578D01*
X-50212978Y-4410000D02*
X-49695822Y-4410000D01*
X-50212978Y-2990000D02*
X-49695822Y-2990000D01*
X-50212978Y-13233000D02*
X-49695822Y-13233000D01*
X-50212978Y-11813000D02*
X-49695822Y-11813000D01*
X-45667922Y-5479000D02*
X-46185078Y-5479000D01*
X-45667922Y-6899000D02*
X-46185078Y-6899000D01*
X-25831422Y-8910000D02*
X-26348578Y-8910000D01*
X-25831422Y-10330000D02*
X-26348578Y-10330000D01*
X-46185078Y-4740000D02*
X-45667922Y-4740000D01*
X-46185078Y-3320000D02*
X-45667922Y-3320000D01*
X-37824000Y-20147578D02*
X-37824000Y-19630422D01*
X-39244000Y-20147578D02*
X-39244000Y-19630422D01*
X-29019422Y-18275000D02*
X-29536578Y-18275000D01*
X-29019422Y-19695000D02*
X-29536578Y-19695000D01*
X-25801722Y-6591000D02*
X-26318878Y-6591000D01*
X-25801722Y-8011000D02*
X-26318878Y-8011000D01*
X-36141922Y-2338000D02*
X-36659078Y-2338000D01*
X-36141922Y-3758000D02*
X-36659078Y-3758000D01*
X-46112578Y-15670000D02*
X-45595422Y-15670000D01*
X-46112578Y-14250000D02*
X-45595422Y-14250000D01*
D10*
X-38429353Y-37242284D02*
X-39767614Y-35755995D01*
X-40144238Y-30107043D02*
X-40497232Y-30424880D01*
X-34590454Y-36275145D02*
X-40144238Y-30107043D01*
X-34943448Y-36592982D02*
X-34590454Y-36275145D01*
X-42522302Y-32248261D02*
X-42169308Y-31930424D01*
X-36968518Y-38416363D02*
X-42522302Y-32248261D01*
X-36615524Y-38098526D02*
X-36968518Y-38416363D01*
D12*
X-32610000Y-33166078D02*
X-32610000Y-32648922D01*
X-34030000Y-33166078D02*
X-34030000Y-32648922D01*
X-38335000Y-27878922D02*
X-38335000Y-28396078D01*
X-36915000Y-27878922D02*
X-36915000Y-28396078D01*
D16*
X34926307Y-1425097D02*
X34926307Y-2127127D01*
X34967603Y-2209718D01*
X35008899Y-2251014D01*
X35091491Y-2292310D01*
X35256674Y-2292310D01*
X35339266Y-2251014D01*
X35380562Y-2209718D01*
X35421858Y-2127127D01*
X35421858Y-1425097D01*
X36289071Y-2292310D02*
X35793520Y-2292310D01*
X36041295Y-2292310D02*
X36041295Y-1425097D01*
X35958704Y-1548985D01*
X35876112Y-1631576D01*
X35793520Y-1672872D01*
X37032396Y-1425097D02*
X36867213Y-1425097D01*
X36784621Y-1466393D01*
X36743325Y-1507689D01*
X36660733Y-1631576D01*
X36619437Y-1796760D01*
X36619437Y-2127127D01*
X36660733Y-2209718D01*
X36702029Y-2251014D01*
X36784621Y-2292310D01*
X36949804Y-2292310D01*
X37032396Y-2251014D01*
X37073692Y-2209718D01*
X37114988Y-2127127D01*
X37114988Y-1920647D01*
X37073692Y-1838056D01*
X37032396Y-1796760D01*
X36949804Y-1755464D01*
X36784621Y-1755464D01*
X36702029Y-1796760D01*
X36660733Y-1838056D01*
X36619437Y-1920647D01*
D10*
X-47398210Y-8626190D02*
X-46922020Y-8626190D01*
X-47922020Y-8959523D02*
X-47398210Y-8626190D01*
X-47922020Y-8292857D01*
X-46922020Y-7435714D02*
X-46922020Y-8007142D01*
X-46922020Y-7721428D02*
X-47922020Y-7721428D01*
X-47779162Y-7816666D01*
X-47683924Y-7911904D01*
X-47636305Y-8007142D01*
X-29447620Y9361905D02*
X-30447620Y9361905D01*
X-30447620Y9600000D01*
X-30400000Y9742858D01*
X-30304762Y9838096D01*
X-30209524Y9885715D01*
X-30019048Y9933334D01*
X-29876191Y9933334D01*
X-29685715Y9885715D01*
X-29590477Y9838096D01*
X-29495239Y9742858D01*
X-29447620Y9600000D01*
X-29447620Y9361905D01*
X-30019048Y10504762D02*
X-30066667Y10409524D01*
X-30114286Y10361905D01*
X-30209524Y10314286D01*
X-30257143Y10314286D01*
X-30352381Y10361905D01*
X-30400000Y10409524D01*
X-30447620Y10504762D01*
X-30447620Y10695239D01*
X-30400000Y10790477D01*
X-30352381Y10838096D01*
X-30257143Y10885715D01*
X-30209524Y10885715D01*
X-30114286Y10838096D01*
X-30066667Y10790477D01*
X-30019048Y10695239D01*
X-30019048Y10504762D01*
X-29971429Y10409524D01*
X-29923810Y10361905D01*
X-29828572Y10314286D01*
X-29638096Y10314286D01*
X-29542858Y10361905D01*
X-29495239Y10409524D01*
X-29447620Y10504762D01*
X-29447620Y10695239D01*
X-29495239Y10790477D01*
X-29542858Y10838096D01*
X-29638096Y10885715D01*
X-29828572Y10885715D01*
X-29923810Y10838096D01*
X-29971429Y10790477D01*
X-30019048Y10695239D01*
X-48947620Y8261905D02*
X-49947620Y8261905D01*
X-49947620Y8500000D01*
X-49900000Y8642858D01*
X-49804762Y8738096D01*
X-49709524Y8785715D01*
X-49519048Y8833334D01*
X-49376191Y8833334D01*
X-49185715Y8785715D01*
X-49090477Y8738096D01*
X-48995239Y8642858D01*
X-48947620Y8500000D01*
X-48947620Y8261905D01*
X-48947620Y9309524D02*
X-48947620Y9500000D01*
X-48995239Y9595239D01*
X-49042858Y9642858D01*
X-49185715Y9738096D01*
X-49376191Y9785715D01*
X-49757143Y9785715D01*
X-49852381Y9738096D01*
X-49900000Y9690477D01*
X-49947620Y9595239D01*
X-49947620Y9404762D01*
X-49900000Y9309524D01*
X-49852381Y9261905D01*
X-49757143Y9214286D01*
X-49519048Y9214286D01*
X-49423810Y9261905D01*
X-49376191Y9309524D01*
X-49328572Y9404762D01*
X-49328572Y9595239D01*
X-49376191Y9690477D01*
X-49423810Y9738096D01*
X-49519048Y9785715D01*
X-39147620Y8385715D02*
X-40147620Y8385715D01*
X-40147620Y8623810D01*
X-40100000Y8766667D01*
X-40004762Y8861905D01*
X-39909524Y8909524D01*
X-39719048Y8957143D01*
X-39576191Y8957143D01*
X-39385715Y8909524D01*
X-39290477Y8861905D01*
X-39195239Y8766667D01*
X-39147620Y8623810D01*
X-39147620Y8385715D01*
X-39147620Y9909524D02*
X-39147620Y9338096D01*
X-39147620Y9623810D02*
X-40147620Y9623810D01*
X-40004762Y9528572D01*
X-39909524Y9433334D01*
X-39861905Y9338096D01*
X-40147620Y10528572D02*
X-40147620Y10623810D01*
X-40100000Y10719048D01*
X-40052381Y10766667D01*
X-39957143Y10814286D01*
X-39766667Y10861905D01*
X-39528572Y10861905D01*
X-39338096Y10814286D01*
X-39242858Y10766667D01*
X-39195239Y10719048D01*
X-39147620Y10623810D01*
X-39147620Y10528572D01*
X-39195239Y10433334D01*
X-39242858Y10385715D01*
X-39338096Y10338096D01*
X-39528572Y10290477D01*
X-39766667Y10290477D01*
X-39957143Y10338096D01*
X-40052381Y10385715D01*
X-40100000Y10433334D01*
X-40147620Y10528572D01*
X-48091905Y11767620D02*
X-48091905Y10958096D01*
X-48044286Y10862858D01*
X-47996667Y10815239D01*
X-47901429Y10767620D01*
X-47710953Y10767620D01*
X-47615715Y10815239D01*
X-47568096Y10862858D01*
X-47520477Y10958096D01*
X-47520477Y11767620D01*
X-47139524Y11767620D02*
X-46520477Y11767620D01*
X-46853810Y11386667D01*
X-46710953Y11386667D01*
X-46615715Y11339048D01*
X-46568096Y11291429D01*
X-46520477Y11196191D01*
X-46520477Y10958096D01*
X-46568096Y10862858D01*
X-46615715Y10815239D01*
X-46710953Y10767620D01*
X-46996667Y10767620D01*
X-47091905Y10815239D01*
X-47139524Y10862858D01*
X-44569524Y18927620D02*
X-44569524Y18213334D01*
X-44617143Y18070477D01*
X-44712381Y17975239D01*
X-44855239Y17927620D01*
X-44950477Y17927620D01*
X-43569524Y17927620D02*
X-44140953Y17927620D01*
X-43855239Y17927620D02*
X-43855239Y18927620D01*
X-43950477Y18784762D01*
X-44045715Y18689524D01*
X-44140953Y18641905D01*
X-43188572Y18832381D02*
X-43140953Y18880000D01*
X-43045715Y18927620D01*
X-42807620Y18927620D01*
X-42712381Y18880000D01*
X-42664762Y18832381D01*
X-42617143Y18737143D01*
X-42617143Y18641905D01*
X-42664762Y18499048D01*
X-43236191Y17927620D01*
X-42617143Y17927620D01*
X-20525855Y-19213908D02*
X-21030931Y-19718984D01*
X-21165618Y-19786327D01*
X-21300305Y-19786327D01*
X-21434992Y-19718984D01*
X-21502336Y-19651640D01*
X-20525855Y-20628121D02*
X-20929916Y-20224060D01*
X-20727886Y-20426091D02*
X-20020779Y-19718984D01*
X-20189138Y-19752656D01*
X-20323825Y-19752656D01*
X-20424840Y-19718984D01*
X-19583046Y-20156717D02*
X-19145313Y-20594449D01*
X-19650390Y-20628121D01*
X-19549374Y-20729136D01*
X-19515703Y-20830152D01*
X-19515703Y-20897495D01*
X-19549374Y-20998510D01*
X-19717733Y-21166869D01*
X-19818748Y-21200541D01*
X-19886092Y-21200541D01*
X-19987107Y-21166869D01*
X-20189138Y-20964839D01*
X-20222809Y-20863823D01*
X-20222809Y-20796480D01*
X-36690105Y-3233780D02*
X-36690105Y-4043304D01*
X-36642486Y-4138542D01*
X-36594867Y-4186161D01*
X-36499629Y-4233780D01*
X-36309153Y-4233780D01*
X-36213915Y-4186161D01*
X-36166296Y-4138542D01*
X-36118677Y-4043304D01*
X-36118677Y-3233780D01*
X-35118677Y-4233780D02*
X-35690105Y-4233780D01*
X-35404391Y-4233780D02*
X-35404391Y-3233780D01*
X-35499629Y-3376638D01*
X-35594867Y-3471876D01*
X-35690105Y-3519495D01*
X-2466667Y-28672380D02*
X-2942858Y-28672380D01*
X-2942858Y-27672380D01*
X-2180953Y-27767619D02*
X-2133334Y-27720000D01*
X-2038096Y-27672380D01*
X-1800000Y-27672380D01*
X-1704762Y-27720000D01*
X-1657143Y-27767619D01*
X-1609524Y-27862857D01*
X-1609524Y-27958095D01*
X-1657143Y-28100952D01*
X-2228572Y-28672380D01*
X-1609524Y-28672380D01*
X-38588096Y12067620D02*
X-38588096Y11258096D01*
X-38540477Y11162858D01*
X-38492858Y11115239D01*
X-38397620Y11067620D01*
X-38207143Y11067620D01*
X-38111905Y11115239D01*
X-38064286Y11162858D01*
X-38016667Y11258096D01*
X-38016667Y12067620D01*
X-37016667Y11067620D02*
X-37588096Y11067620D01*
X-37302381Y11067620D02*
X-37302381Y12067620D01*
X-37397620Y11924762D01*
X-37492858Y11829524D01*
X-37588096Y11781905D01*
X-36635715Y11972381D02*
X-36588096Y12020000D01*
X-36492858Y12067620D01*
X-36254762Y12067620D01*
X-36159524Y12020000D01*
X-36111905Y11972381D01*
X-36064286Y11877143D01*
X-36064286Y11781905D01*
X-36111905Y11639048D01*
X-36683334Y11067620D01*
X-36064286Y11067620D01*
X-9278096Y-27582380D02*
X-9278096Y-26582380D01*
X-9040000Y-26582380D01*
X-8897143Y-26630000D01*
X-8801905Y-26725238D01*
X-8754286Y-26820476D01*
X-8706667Y-27010952D01*
X-8706667Y-27153809D01*
X-8754286Y-27344285D01*
X-8801905Y-27439523D01*
X-8897143Y-27534761D01*
X-9040000Y-27582380D01*
X-9278096Y-27582380D01*
X-7801905Y-26582380D02*
X-8278096Y-26582380D01*
X-8325715Y-27058571D01*
X-8278096Y-27010952D01*
X-8182858Y-26963333D01*
X-7944762Y-26963333D01*
X-7849524Y-27010952D01*
X-7801905Y-27058571D01*
X-7754286Y-27153809D01*
X-7754286Y-27391904D01*
X-7801905Y-27487142D01*
X-7849524Y-27534761D01*
X-7944762Y-27582380D01*
X-8182858Y-27582380D01*
X-8278096Y-27534761D01*
X-8325715Y-27487142D01*
X-5618096Y-42782380D02*
X-5618096Y-43591904D01*
X-5570477Y-43687142D01*
X-5522858Y-43734761D01*
X-5427620Y-43782380D01*
X-5237143Y-43782380D01*
X-5141905Y-43734761D01*
X-5094286Y-43687142D01*
X-5046667Y-43591904D01*
X-5046667Y-42782380D01*
X-4046667Y-43782380D02*
X-4618096Y-43782380D01*
X-4332381Y-43782380D02*
X-4332381Y-42782380D01*
X-4427620Y-42925238D01*
X-4522858Y-43020476D01*
X-4618096Y-43068095D01*
X-3189524Y-43115714D02*
X-3189524Y-43782380D01*
X-3427620Y-42734761D02*
X-3665715Y-43449047D01*
X-3046667Y-43449047D01*
X14821904Y-43502380D02*
X14821904Y-44311904D01*
X14869523Y-44407142D01*
X14917142Y-44454761D01*
X15012380Y-44502380D01*
X15202857Y-44502380D01*
X15298095Y-44454761D01*
X15345714Y-44407142D01*
X15393333Y-44311904D01*
X15393333Y-43502380D01*
X16393333Y-44502380D02*
X15821904Y-44502380D01*
X16107619Y-44502380D02*
X16107619Y-43502380D01*
X16012380Y-43645238D01*
X15917142Y-43740476D01*
X15821904Y-43788095D01*
X17012380Y-43502380D02*
X17107619Y-43502380D01*
X17202857Y-43550000D01*
X17250476Y-43597619D01*
X17298095Y-43692857D01*
X17345714Y-43883333D01*
X17345714Y-44121428D01*
X17298095Y-44311904D01*
X17250476Y-44407142D01*
X17202857Y-44454761D01*
X17107619Y-44502380D01*
X17012380Y-44502380D01*
X16917142Y-44454761D01*
X16869523Y-44407142D01*
X16821904Y-44311904D01*
X16774285Y-44121428D01*
X16774285Y-43883333D01*
X16821904Y-43692857D01*
X16869523Y-43597619D01*
X16917142Y-43550000D01*
X17012380Y-43502380D01*
X16181904Y-51692380D02*
X16181904Y-50692380D01*
X16420000Y-50692380D01*
X16562857Y-50740000D01*
X16658095Y-50835238D01*
X16705714Y-50930476D01*
X16753333Y-51120952D01*
X16753333Y-51263809D01*
X16705714Y-51454285D01*
X16658095Y-51549523D01*
X16562857Y-51644761D01*
X16420000Y-51692380D01*
X16181904Y-51692380D01*
X17610476Y-50692380D02*
X17420000Y-50692380D01*
X17324761Y-50740000D01*
X17277142Y-50787619D01*
X17181904Y-50930476D01*
X17134285Y-51120952D01*
X17134285Y-51501904D01*
X17181904Y-51597142D01*
X17229523Y-51644761D01*
X17324761Y-51692380D01*
X17515238Y-51692380D01*
X17610476Y-51644761D01*
X17658095Y-51597142D01*
X17705714Y-51501904D01*
X17705714Y-51263809D01*
X17658095Y-51168571D01*
X17610476Y-51120952D01*
X17515238Y-51073333D01*
X17324761Y-51073333D01*
X17229523Y-51120952D01*
X17181904Y-51168571D01*
X17134285Y-51263809D01*
X3081904Y-44522380D02*
X3081904Y-43522380D01*
X3320000Y-43522380D01*
X3462857Y-43570000D01*
X3558095Y-43665238D01*
X3605714Y-43760476D01*
X3653333Y-43950952D01*
X3653333Y-44093809D01*
X3605714Y-44284285D01*
X3558095Y-44379523D01*
X3462857Y-44474761D01*
X3320000Y-44522380D01*
X3081904Y-44522380D01*
X3986666Y-43522380D02*
X4653333Y-43522380D01*
X4224761Y-44522380D01*
X4238666Y-48220380D02*
X4238666Y-48934666D01*
X4191047Y-49077523D01*
X4095809Y-49172761D01*
X3952952Y-49220380D01*
X3857714Y-49220380D01*
X5191047Y-48220380D02*
X4714857Y-48220380D01*
X4667238Y-48696571D01*
X4714857Y-48648952D01*
X4810095Y-48601333D01*
X5048190Y-48601333D01*
X5143428Y-48648952D01*
X5191047Y-48696571D01*
X5238666Y-48791809D01*
X5238666Y-49029904D01*
X5191047Y-49125142D01*
X5143428Y-49172761D01*
X5048190Y-49220380D01*
X4810095Y-49220380D01*
X4714857Y-49172761D01*
X4667238Y-49125142D01*
X-14327920Y-51437387D02*
X-14595496Y-52099661D01*
X-14693163Y-52214278D01*
X-14817143Y-52266904D01*
X-14967436Y-52257540D01*
X-15055740Y-52221864D01*
X-13775343Y-52739178D02*
X-14305162Y-52525117D01*
X-14040252Y-52632147D02*
X-13665646Y-51704963D01*
X-13807464Y-51801741D01*
X-13931444Y-51854368D01*
X-14037586Y-51862842D01*
X-3535177Y-47916817D02*
X-3659211Y-48620251D01*
X-3730914Y-48752669D01*
X-3841243Y-48829923D01*
X-3990199Y-48852011D01*
X-4083990Y-48835473D01*
X-3129654Y-48085029D02*
X-3074490Y-48046403D01*
X-2972429Y-48016045D01*
X-2737951Y-48057390D01*
X-2652429Y-48120823D01*
X-2613802Y-48175988D01*
X-2583445Y-48278048D01*
X-2599983Y-48371839D01*
X-2671685Y-48504257D01*
X-3333660Y-48967777D01*
X-2724017Y-49075273D01*
X-30626752Y-44663426D02*
X-31036449Y-45248535D01*
X-31157396Y-45338243D01*
X-31290037Y-45361631D01*
X-31434372Y-45318699D01*
X-31512386Y-45264073D01*
X-30314694Y-44881931D02*
X-29807600Y-45237003D01*
X-30299156Y-45357868D01*
X-30182134Y-45439808D01*
X-30131433Y-45533441D01*
X-30119739Y-45599762D01*
X-30135358Y-45705089D01*
X-30271924Y-45900126D01*
X-30365557Y-45950827D01*
X-30431878Y-45962521D01*
X-30537205Y-45946902D01*
X-30771249Y-45783023D01*
X-30821950Y-45689389D01*
X-30833644Y-45623069D01*
X20861904Y-31622380D02*
X20861904Y-30622380D01*
X21100000Y-30622380D01*
X21242857Y-30670000D01*
X21338095Y-30765238D01*
X21385714Y-30860476D01*
X21433333Y-31050952D01*
X21433333Y-31193809D01*
X21385714Y-31384285D01*
X21338095Y-31479523D01*
X21242857Y-31574761D01*
X21100000Y-31622380D01*
X20861904Y-31622380D01*
X22290476Y-30955714D02*
X22290476Y-31622380D01*
X22052380Y-30574761D02*
X21814285Y-31289047D01*
X22433333Y-31289047D01*
X12243333Y-25312380D02*
X11767142Y-25312380D01*
X11767142Y-24312380D01*
X13100476Y-25312380D02*
X12529047Y-25312380D01*
X12814761Y-25312380D02*
X12814761Y-24312380D01*
X12719523Y-24455238D01*
X12624285Y-24550476D01*
X12529047Y-24598095D01*
X-27283096Y11967620D02*
X-27283096Y11158096D01*
X-27235477Y11062858D01*
X-27187858Y11015239D01*
X-27092620Y10967620D01*
X-26902143Y10967620D01*
X-26806905Y11015239D01*
X-26759286Y11062858D01*
X-26711667Y11158096D01*
X-26711667Y11967620D01*
X-25711667Y10967620D02*
X-26283096Y10967620D01*
X-25997381Y10967620D02*
X-25997381Y11967620D01*
X-26092620Y11824762D01*
X-26187858Y11729524D01*
X-26283096Y11681905D01*
X-24806905Y11967620D02*
X-25283096Y11967620D01*
X-25330715Y11491429D01*
X-25283096Y11539048D01*
X-25187858Y11586667D01*
X-24949762Y11586667D01*
X-24854524Y11539048D01*
X-24806905Y11491429D01*
X-24759286Y11396191D01*
X-24759286Y11158096D01*
X-24806905Y11062858D01*
X-24854524Y11015239D01*
X-24949762Y10967620D01*
X-25187858Y10967620D01*
X-25283096Y11015239D01*
X-25330715Y11062858D01*
X-36470096Y-1748180D02*
X-36470096Y-2557704D01*
X-36422477Y-2652942D01*
X-36374858Y-2700561D01*
X-36279620Y-2748180D01*
X-36089143Y-2748180D01*
X-35993905Y-2700561D01*
X-35946286Y-2652942D01*
X-35898667Y-2557704D01*
X-35898667Y-1748180D01*
X-34898667Y-2748180D02*
X-35470096Y-2748180D01*
X-35184381Y-2748180D02*
X-35184381Y-1748180D01*
X-35279620Y-1891038D01*
X-35374858Y-1986276D01*
X-35470096Y-2033895D01*
X-33946286Y-2748180D02*
X-34517715Y-2748180D01*
X-34232000Y-2748180D02*
X-34232000Y-1748180D01*
X-34327239Y-1891038D01*
X-34422477Y-1986276D01*
X-34517715Y-2033895D01*
X-46561905Y-1880580D02*
X-46561905Y-2690104D01*
X-46514286Y-2785342D01*
X-46466667Y-2832961D01*
X-46371429Y-2880580D01*
X-46180953Y-2880580D01*
X-46085715Y-2832961D01*
X-46038096Y-2785342D01*
X-45990477Y-2690104D01*
X-45990477Y-1880580D01*
X-45561905Y-1975819D02*
X-45514286Y-1928200D01*
X-45419048Y-1880580D01*
X-45180953Y-1880580D01*
X-45085715Y-1928200D01*
X-45038096Y-1975819D01*
X-44990477Y-2071057D01*
X-44990477Y-2166295D01*
X-45038096Y-2309152D01*
X-45609524Y-2880580D01*
X-44990477Y-2880580D01*
X-27216096Y-2140580D02*
X-27216096Y-2950104D01*
X-27168477Y-3045342D01*
X-27120858Y-3092961D01*
X-27025620Y-3140580D01*
X-26835143Y-3140580D01*
X-26739905Y-3092961D01*
X-26692286Y-3045342D01*
X-26644667Y-2950104D01*
X-26644667Y-2140580D01*
X-25644667Y-3140580D02*
X-26216096Y-3140580D01*
X-25930381Y-3140580D02*
X-25930381Y-2140580D01*
X-26025620Y-2283438D01*
X-26120858Y-2378676D01*
X-26216096Y-2426295D01*
X-25311334Y-2140580D02*
X-24692286Y-2140580D01*
X-25025620Y-2521533D01*
X-24882762Y-2521533D01*
X-24787524Y-2569152D01*
X-24739905Y-2616771D01*
X-24692286Y-2712009D01*
X-24692286Y-2950104D01*
X-24739905Y-3045342D01*
X-24787524Y-3092961D01*
X-24882762Y-3140580D01*
X-25168477Y-3140580D01*
X-25263715Y-3092961D01*
X-25311334Y-3045342D01*
X-7080239Y29487881D02*
X-7175477Y29535500D01*
X-7270715Y29630739D01*
X-7413572Y29773596D01*
X-7508810Y29821215D01*
X-7604048Y29821215D01*
X-7556429Y29583120D02*
X-7651667Y29630739D01*
X-7746905Y29725977D01*
X-7794524Y29916453D01*
X-7794524Y30249786D01*
X-7746905Y30440262D01*
X-7651667Y30535500D01*
X-7556429Y30583120D01*
X-7365953Y30583120D01*
X-7270715Y30535500D01*
X-7175477Y30440262D01*
X-7127858Y30249786D01*
X-7127858Y29916453D01*
X-7175477Y29725977D01*
X-7270715Y29630739D01*
X-7365953Y29583120D01*
X-7556429Y29583120D01*
X-6270715Y30249786D02*
X-6270715Y29583120D01*
X-6508810Y30630739D02*
X-6746905Y29916453D01*
X-6127858Y29916453D01*
X-30892739Y30313381D02*
X-30987977Y30361000D01*
X-31083215Y30456239D01*
X-31226072Y30599096D01*
X-31321310Y30646715D01*
X-31416548Y30646715D01*
X-31368929Y30408620D02*
X-31464167Y30456239D01*
X-31559405Y30551477D01*
X-31607024Y30741953D01*
X-31607024Y31075286D01*
X-31559405Y31265762D01*
X-31464167Y31361000D01*
X-31368929Y31408620D01*
X-31178453Y31408620D01*
X-31083215Y31361000D01*
X-30987977Y31265762D01*
X-30940358Y31075286D01*
X-30940358Y30741953D01*
X-30987977Y30551477D01*
X-31083215Y30456239D01*
X-31178453Y30408620D01*
X-31368929Y30408620D01*
X-29987977Y30408620D02*
X-30559405Y30408620D01*
X-30273691Y30408620D02*
X-30273691Y31408620D01*
X-30368929Y31265762D01*
X-30464167Y31170524D01*
X-30559405Y31122905D01*
X-31337239Y13549381D02*
X-31432477Y13597000D01*
X-31527715Y13692239D01*
X-31670572Y13835096D01*
X-31765810Y13882715D01*
X-31861048Y13882715D01*
X-31813429Y13644620D02*
X-31908667Y13692239D01*
X-32003905Y13787477D01*
X-32051524Y13977953D01*
X-32051524Y14311286D01*
X-32003905Y14501762D01*
X-31908667Y14597000D01*
X-31813429Y14644620D01*
X-31622953Y14644620D01*
X-31527715Y14597000D01*
X-31432477Y14501762D01*
X-31384858Y14311286D01*
X-31384858Y13977953D01*
X-31432477Y13787477D01*
X-31527715Y13692239D01*
X-31622953Y13644620D01*
X-31813429Y13644620D01*
X-31003905Y14549381D02*
X-30956286Y14597000D01*
X-30861048Y14644620D01*
X-30622953Y14644620D01*
X-30527715Y14597000D01*
X-30480096Y14549381D01*
X-30432477Y14454143D01*
X-30432477Y14358905D01*
X-30480096Y14216048D01*
X-31051524Y13644620D01*
X-30432477Y13644620D01*
X-5810239Y46632881D02*
X-5905477Y46680500D01*
X-6000715Y46775739D01*
X-6143572Y46918596D01*
X-6238810Y46966215D01*
X-6334048Y46966215D01*
X-6286429Y46728120D02*
X-6381667Y46775739D01*
X-6476905Y46870977D01*
X-6524524Y47061453D01*
X-6524524Y47394786D01*
X-6476905Y47585262D01*
X-6381667Y47680500D01*
X-6286429Y47728120D01*
X-6095953Y47728120D01*
X-6000715Y47680500D01*
X-5905477Y47585262D01*
X-5857858Y47394786D01*
X-5857858Y47061453D01*
X-5905477Y46870977D01*
X-6000715Y46775739D01*
X-6095953Y46728120D01*
X-6286429Y46728120D01*
X-5524524Y47728120D02*
X-4905477Y47728120D01*
X-5238810Y47347167D01*
X-5095953Y47347167D01*
X-5000715Y47299548D01*
X-4953096Y47251929D01*
X-4905477Y47156691D01*
X-4905477Y46918596D01*
X-4953096Y46823358D01*
X-5000715Y46775739D01*
X-5095953Y46728120D01*
X-5381667Y46728120D01*
X-5476905Y46775739D01*
X-5524524Y46823358D01*
X-17367239Y38695381D02*
X-17462477Y38743000D01*
X-17557715Y38838239D01*
X-17700572Y38981096D01*
X-17795810Y39028715D01*
X-17891048Y39028715D01*
X-17843429Y38790620D02*
X-17938667Y38838239D01*
X-18033905Y38933477D01*
X-18081524Y39123953D01*
X-18081524Y39457286D01*
X-18033905Y39647762D01*
X-17938667Y39743000D01*
X-17843429Y39790620D01*
X-17652953Y39790620D01*
X-17557715Y39743000D01*
X-17462477Y39647762D01*
X-17414858Y39457286D01*
X-17414858Y39123953D01*
X-17462477Y38933477D01*
X-17557715Y38838239D01*
X-17652953Y38790620D01*
X-17843429Y38790620D01*
X-16510096Y39790620D02*
X-16986286Y39790620D01*
X-17033905Y39314429D01*
X-16986286Y39362048D01*
X-16891048Y39409667D01*
X-16652953Y39409667D01*
X-16557715Y39362048D01*
X-16510096Y39314429D01*
X-16462477Y39219191D01*
X-16462477Y38981096D01*
X-16510096Y38885858D01*
X-16557715Y38838239D01*
X-16652953Y38790620D01*
X-16891048Y38790620D01*
X-16986286Y38838239D01*
X-17033905Y38885858D01*
X-17303739Y21169381D02*
X-17398977Y21217000D01*
X-17494215Y21312239D01*
X-17637072Y21455096D01*
X-17732310Y21502715D01*
X-17827548Y21502715D01*
X-17779929Y21264620D02*
X-17875167Y21312239D01*
X-17970405Y21407477D01*
X-18018024Y21597953D01*
X-18018024Y21931286D01*
X-17970405Y22121762D01*
X-17875167Y22217000D01*
X-17779929Y22264620D01*
X-17589453Y22264620D01*
X-17494215Y22217000D01*
X-17398977Y22121762D01*
X-17351358Y21931286D01*
X-17351358Y21597953D01*
X-17398977Y21407477D01*
X-17494215Y21312239D01*
X-17589453Y21264620D01*
X-17779929Y21264620D01*
X-16494215Y22264620D02*
X-16684691Y22264620D01*
X-16779929Y22217000D01*
X-16827548Y22169381D01*
X-16922786Y22026524D01*
X-16970405Y21836048D01*
X-16970405Y21455096D01*
X-16922786Y21359858D01*
X-16875167Y21312239D01*
X-16779929Y21264620D01*
X-16589453Y21264620D01*
X-16494215Y21312239D01*
X-16446596Y21359858D01*
X-16398977Y21455096D01*
X-16398977Y21693191D01*
X-16446596Y21788429D01*
X-16494215Y21836048D01*
X-16589453Y21883667D01*
X-16779929Y21883667D01*
X-16875167Y21836048D01*
X-16922786Y21788429D01*
X-16970405Y21693191D01*
X5392396Y35536120D02*
X5392396Y34726596D01*
X5440015Y34631358D01*
X5487634Y34583739D01*
X5582872Y34536120D01*
X5773348Y34536120D01*
X5868586Y34583739D01*
X5916205Y34631358D01*
X5963824Y34726596D01*
X5963824Y35536120D01*
X6916205Y35536120D02*
X6440015Y35536120D01*
X6392396Y35059929D01*
X6440015Y35107548D01*
X6535253Y35155167D01*
X6773348Y35155167D01*
X6868586Y35107548D01*
X6916205Y35059929D01*
X6963824Y34964691D01*
X6963824Y34726596D01*
X6916205Y34631358D01*
X6868586Y34583739D01*
X6773348Y34536120D01*
X6535253Y34536120D01*
X6440015Y34583739D01*
X6392396Y34631358D01*
X3952380Y34970000D02*
X4190476Y34970000D01*
X4095238Y34731905D02*
X4190476Y34970000D01*
X4095238Y35208096D01*
X4380952Y34827143D02*
X4190476Y34970000D01*
X4380952Y35112858D01*
X-25463405Y30964120D02*
X-25463405Y30154596D01*
X-25415786Y30059358D01*
X-25368167Y30011739D01*
X-25272929Y29964120D01*
X-25082453Y29964120D01*
X-24987215Y30011739D01*
X-24939596Y30059358D01*
X-24891977Y30154596D01*
X-24891977Y30964120D01*
X-23987215Y30964120D02*
X-24177691Y30964120D01*
X-24272929Y30916500D01*
X-24320548Y30868881D01*
X-24415786Y30726024D01*
X-24463405Y30535548D01*
X-24463405Y30154596D01*
X-24415786Y30059358D01*
X-24368167Y30011739D01*
X-24272929Y29964120D01*
X-24082453Y29964120D01*
X-23987215Y30011739D01*
X-23939596Y30059358D01*
X-23891977Y30154596D01*
X-23891977Y30392691D01*
X-23939596Y30487929D01*
X-23987215Y30535548D01*
X-24082453Y30583167D01*
X-24272929Y30583167D01*
X-24368167Y30535548D01*
X-24415786Y30487929D01*
X-24463405Y30392691D01*
X-26707620Y32020000D02*
X-26469524Y32020000D01*
X-26564762Y31781905D02*
X-26469524Y32020000D01*
X-26564762Y32258096D01*
X-26279048Y31877143D02*
X-26469524Y32020000D01*
X-26279048Y32162858D01*
X-42671905Y31408620D02*
X-42671905Y30599096D01*
X-42624286Y30503858D01*
X-42576667Y30456239D01*
X-42481429Y30408620D01*
X-42290953Y30408620D01*
X-42195715Y30456239D01*
X-42148096Y30503858D01*
X-42100477Y30599096D01*
X-42100477Y31408620D01*
X-41195715Y31075286D02*
X-41195715Y30408620D01*
X-41433810Y31456239D02*
X-41671905Y30741953D01*
X-41052858Y30741953D01*
X-41797220Y25958800D02*
X-41559124Y25958800D01*
X-41654362Y25720705D02*
X-41559124Y25958800D01*
X-41654362Y26196896D01*
X-41368648Y25815943D02*
X-41559124Y25958800D01*
X-41368648Y26101658D01*
X-40893905Y17311620D02*
X-40893905Y16502096D01*
X-40846286Y16406858D01*
X-40798667Y16359239D01*
X-40703429Y16311620D01*
X-40512953Y16311620D01*
X-40417715Y16359239D01*
X-40370096Y16406858D01*
X-40322477Y16502096D01*
X-40322477Y17311620D01*
X-39941524Y17311620D02*
X-39274858Y17311620D01*
X-39703429Y16311620D01*
X-38658800Y22512620D02*
X-38658800Y22274524D01*
X-38896896Y22369762D02*
X-38658800Y22274524D01*
X-38420705Y22369762D01*
X-38801658Y22084048D02*
X-38658800Y22274524D01*
X-38515943Y22084048D01*
X-38658800Y22512620D02*
X-38658800Y22274524D01*
X-38896896Y22369762D02*
X-38658800Y22274524D01*
X-38420705Y22369762D01*
X-38801658Y22084048D02*
X-38658800Y22274524D01*
X-38515943Y22084048D01*
X-26860405Y46331120D02*
X-26860405Y45521596D01*
X-26812786Y45426358D01*
X-26765167Y45378739D01*
X-26669929Y45331120D01*
X-26479453Y45331120D01*
X-26384215Y45378739D01*
X-26336596Y45426358D01*
X-26288977Y45521596D01*
X-26288977Y46331120D01*
X-25669929Y45902548D02*
X-25765167Y45950167D01*
X-25812786Y45997786D01*
X-25860405Y46093024D01*
X-25860405Y46140643D01*
X-25812786Y46235881D01*
X-25765167Y46283500D01*
X-25669929Y46331120D01*
X-25479453Y46331120D01*
X-25384215Y46283500D01*
X-25336596Y46235881D01*
X-25288977Y46140643D01*
X-25288977Y46093024D01*
X-25336596Y45997786D01*
X-25384215Y45950167D01*
X-25479453Y45902548D01*
X-25669929Y45902548D01*
X-25765167Y45854929D01*
X-25812786Y45807310D01*
X-25860405Y45712072D01*
X-25860405Y45521596D01*
X-25812786Y45426358D01*
X-25765167Y45378739D01*
X-25669929Y45331120D01*
X-25479453Y45331120D01*
X-25384215Y45378739D01*
X-25336596Y45426358D01*
X-25288977Y45521596D01*
X-25288977Y45712072D01*
X-25336596Y45807310D01*
X-25384215Y45854929D01*
X-25479453Y45902548D01*
X-29431621Y41338500D02*
X-29193525Y41338500D01*
X-29288763Y41100405D02*
X-29193525Y41338500D01*
X-29288763Y41576596D01*
X-29003049Y41195643D02*
X-29193525Y41338500D01*
X-29003049Y41481358D01*
X-29431621Y41338500D02*
X-29193525Y41338500D01*
X-29288763Y41100405D02*
X-29193525Y41338500D01*
X-29288763Y41576596D01*
X-29003049Y41195643D02*
X-29193525Y41338500D01*
X-29003049Y41481358D01*
X-1384205Y30646620D02*
X-1384205Y29837096D01*
X-1336586Y29741858D01*
X-1288967Y29694239D01*
X-1193729Y29646620D01*
X-1003253Y29646620D01*
X-908015Y29694239D01*
X-860396Y29741858D01*
X-812777Y29837096D01*
X-812777Y30646620D01*
X-288967Y29646620D02*
X-98491Y29646620D01*
X-3253Y29694239D01*
X44366Y29741858D01*
X139604Y29884715D01*
X187223Y30075191D01*
X187223Y30456143D01*
X139604Y30551381D01*
X91985Y30599000D01*
X-3253Y30646620D01*
X-193729Y30646620D01*
X-288967Y30599000D01*
X-336586Y30551381D01*
X-384205Y30456143D01*
X-384205Y30218048D01*
X-336586Y30122810D01*
X-288967Y30075191D01*
X-193729Y30027572D01*
X-3253Y30027572D01*
X91985Y30075191D01*
X139604Y30122810D01*
X187223Y30218048D01*
X825500Y25379621D02*
X825500Y25141525D01*
X587404Y25236763D02*
X825500Y25141525D01*
X1063595Y25236763D01*
X682642Y24951049D02*
X825500Y25141525D01*
X968357Y24951049D01*
X825500Y25379621D02*
X825500Y25141525D01*
X587404Y25236763D02*
X825500Y25141525D01*
X1063595Y25236763D01*
X682642Y24951049D02*
X825500Y25141525D01*
X968357Y24951049D01*
X17726066Y36031420D02*
X17726066Y35317134D01*
X17678447Y35174277D01*
X17583209Y35079039D01*
X17440352Y35031420D01*
X17345114Y35031420D01*
X18107019Y36031420D02*
X18773685Y36031420D01*
X18345114Y35031420D01*
X14830466Y27217620D02*
X14830466Y26503334D01*
X14782847Y26360477D01*
X14687609Y26265239D01*
X14544752Y26217620D01*
X14449514Y26217620D01*
X15449514Y26789048D02*
X15354276Y26836667D01*
X15306657Y26884286D01*
X15259038Y26979524D01*
X15259038Y27027143D01*
X15306657Y27122381D01*
X15354276Y27170000D01*
X15449514Y27217620D01*
X15639990Y27217620D01*
X15735228Y27170000D01*
X15782847Y27122381D01*
X15830466Y27027143D01*
X15830466Y26979524D01*
X15782847Y26884286D01*
X15735228Y26836667D01*
X15639990Y26789048D01*
X15449514Y26789048D01*
X15354276Y26741429D01*
X15306657Y26693810D01*
X15259038Y26598572D01*
X15259038Y26408096D01*
X15306657Y26312858D01*
X15354276Y26265239D01*
X15449514Y26217620D01*
X15639990Y26217620D01*
X15735228Y26265239D01*
X15782847Y26312858D01*
X15830466Y26408096D01*
X15830466Y26598572D01*
X15782847Y26693810D01*
X15735228Y26741429D01*
X15639990Y26789048D01*
X-37637958Y29997820D02*
X-37971291Y30474010D01*
X-38209386Y29997820D02*
X-38209386Y30997820D01*
X-37828434Y30997820D01*
X-37733196Y30950200D01*
X-37685577Y30902581D01*
X-37637958Y30807343D01*
X-37637958Y30664486D01*
X-37685577Y30569248D01*
X-37733196Y30521629D01*
X-37828434Y30474010D01*
X-38209386Y30474010D01*
X-36780815Y30664486D02*
X-36780815Y29997820D01*
X-37018910Y31045439D02*
X-37257005Y30331153D01*
X-36637958Y30331153D01*
X-35780815Y30997820D02*
X-36257005Y30997820D01*
X-36304624Y30521629D01*
X-36257005Y30569248D01*
X-36161767Y30616867D01*
X-35923672Y30616867D01*
X-35828434Y30569248D01*
X-35780815Y30521629D01*
X-35733196Y30426391D01*
X-35733196Y30188296D01*
X-35780815Y30093058D01*
X-35828434Y30045439D01*
X-35923672Y29997820D01*
X-36161767Y29997820D01*
X-36257005Y30045439D01*
X-36304624Y30093058D01*
X-21978858Y29710120D02*
X-22312191Y30186310D01*
X-22550286Y29710120D02*
X-22550286Y30710120D01*
X-22169334Y30710120D01*
X-22074096Y30662500D01*
X-22026477Y30614881D01*
X-21978858Y30519643D01*
X-21978858Y30376786D01*
X-22026477Y30281548D01*
X-22074096Y30233929D01*
X-22169334Y30186310D01*
X-22550286Y30186310D01*
X-21121715Y30376786D02*
X-21121715Y29710120D01*
X-21359810Y30757739D02*
X-21597905Y30043453D01*
X-20978858Y30043453D01*
X-20169334Y30710120D02*
X-20359810Y30710120D01*
X-20455048Y30662500D01*
X-20502667Y30614881D01*
X-20597905Y30472024D01*
X-20645524Y30281548D01*
X-20645524Y29900596D01*
X-20597905Y29805358D01*
X-20550286Y29757739D01*
X-20455048Y29710120D01*
X-20264572Y29710120D01*
X-20169334Y29757739D01*
X-20121715Y29805358D01*
X-20074096Y29900596D01*
X-20074096Y30138691D01*
X-20121715Y30233929D01*
X-20169334Y30281548D01*
X-20264572Y30329167D01*
X-20455048Y30329167D01*
X-20550286Y30281548D01*
X-20597905Y30233929D01*
X-20645524Y30138691D01*
X-43021866Y-29484617D02*
X-42543916Y-30015435D01*
X-42483713Y-30153461D01*
X-42490762Y-30287964D01*
X-42565063Y-30418942D01*
X-42635838Y-30482668D01*
X-42349497Y-28879213D02*
X-42491048Y-29006666D01*
X-42529961Y-29105781D01*
X-42533485Y-29173032D01*
X-42508671Y-29342922D01*
X-42416605Y-29516337D01*
X-42161698Y-29799440D01*
X-42062584Y-29838352D01*
X-41995333Y-29841877D01*
X-41892693Y-29813538D01*
X-41751142Y-29686084D01*
X-41712230Y-29586970D01*
X-41708705Y-29519719D01*
X-41737044Y-29417080D01*
X-41896361Y-29240140D01*
X-41995476Y-29201228D01*
X-42062727Y-29197704D01*
X-42165366Y-29226042D01*
X-42306917Y-29353496D01*
X-42345830Y-29452610D01*
X-42349354Y-29519862D01*
X-42321015Y-29622501D01*
M02*
