%TF.GenerationSoftware,KiCad,Pcbnew,5.0.2-bee76a0~70~ubuntu18.04.1*%
%TF.CreationDate,2020-02-12T14:16:48+01:00*%
%TF.ProjectId,gsvesc,67737665-7363-42e6-9b69-6361645f7063,rev?*%
%TF.SameCoordinates,Original*%
%TF.FileFunction,Soldermask,Bot*%
%TF.FilePolarity,Negative*%
%FSLAX45Y45*%
G04 Gerber Fmt 4.5, Leading zero omitted, Abs format (unit mm)*
G04 Created by KiCad (PCBNEW 5.0.2-bee76a0~70~ubuntu18.04.1) date Mi 12 Feb 2020 14:16:48 CET*
%MOMM*%
%LPD*%
G01*
G04 APERTURE LIST*
%ADD10C,0.200000*%
%ADD11C,0.100000*%
G04 APERTURE END LIST*
D10*
X12450000Y-10000000D02*
G75*
G03X12450000Y-10000000I-2450000J0D01*
G01*
X15550000Y-10000000D02*
G75*
G03X15550000Y-10000000I-5550000J0D01*
G01*
D11*
G36*
X6785220Y-14074124D02*
X6785220Y-14074124D01*
X6785221Y-14074124D01*
X6802983Y-14081481D01*
X6802983Y-14081481D01*
X6818968Y-14092162D01*
X6832562Y-14105756D01*
X6832562Y-14105757D01*
X6843244Y-14121742D01*
X6850601Y-14139504D01*
X6854352Y-14158360D01*
X6854352Y-14177586D01*
X6850601Y-14196442D01*
X6843244Y-14214204D01*
X6843244Y-14214204D01*
X6832562Y-14230190D01*
X6818968Y-14243784D01*
X6818968Y-14243784D01*
X6802983Y-14254465D01*
X6785221Y-14261822D01*
X6785220Y-14261822D01*
X6785220Y-14261822D01*
X6766365Y-14265573D01*
X6747139Y-14265573D01*
X6728283Y-14261822D01*
X6728283Y-14261822D01*
X6728283Y-14261822D01*
X6710521Y-14254465D01*
X6694535Y-14243784D01*
X6694535Y-14243784D01*
X6680941Y-14230190D01*
X6670260Y-14214204D01*
X6670260Y-14214204D01*
X6662902Y-14196442D01*
X6659152Y-14177586D01*
X6659152Y-14158360D01*
X6662902Y-14139504D01*
X6670260Y-14121742D01*
X6680941Y-14105757D01*
X6680941Y-14105756D01*
X6694535Y-14092162D01*
X6710521Y-14081481D01*
X6710521Y-14081481D01*
X6728283Y-14074124D01*
X6728283Y-14074124D01*
X6728283Y-14074124D01*
X6747139Y-14070373D01*
X6766365Y-14070373D01*
X6785220Y-14074124D01*
X6785220Y-14074124D01*
G37*
G36*
X6596560Y-13874916D02*
X6605131Y-13878467D01*
X6612846Y-13883621D01*
X6619406Y-13890181D01*
X6624561Y-13897896D01*
X6628111Y-13906468D01*
X6629921Y-13915567D01*
X6629921Y-13924845D01*
X6628111Y-13933945D01*
X6624561Y-13942516D01*
X6619406Y-13950231D01*
X6612846Y-13956791D01*
X6605131Y-13961946D01*
X6596560Y-13965496D01*
X6588118Y-13967175D01*
X6585773Y-13967887D01*
X6583612Y-13969042D01*
X6581718Y-13970596D01*
X6580163Y-13972491D01*
X6579008Y-13974652D01*
X6578297Y-13976997D01*
X6578056Y-13979435D01*
X6578297Y-13981874D01*
X6579008Y-13984219D01*
X6580163Y-13986380D01*
X6582522Y-13989011D01*
X6598156Y-14002129D01*
X6634691Y-14032786D01*
X6574141Y-14104948D01*
X6501979Y-14044397D01*
X6541944Y-13996769D01*
X6558374Y-13977188D01*
X6559758Y-13975166D01*
X6560720Y-13972912D01*
X6561224Y-13970514D01*
X6561251Y-13968064D01*
X6560799Y-13965656D01*
X6559886Y-13963382D01*
X6558547Y-13961330D01*
X6556833Y-13959578D01*
X6555743Y-13958760D01*
X6552797Y-13956791D01*
X6546236Y-13950231D01*
X6541081Y-13942516D01*
X6538093Y-13935301D01*
X6537416Y-13934035D01*
X6537286Y-13932713D01*
X6535721Y-13924845D01*
X6535721Y-13915567D01*
X6537531Y-13906468D01*
X6541082Y-13897896D01*
X6546236Y-13890181D01*
X6552796Y-13883621D01*
X6560511Y-13878467D01*
X6569083Y-13874916D01*
X6578182Y-13873106D01*
X6587460Y-13873106D01*
X6596560Y-13874916D01*
X6596560Y-13874916D01*
G37*
G36*
X6476275Y-13908504D02*
X6482488Y-13909739D01*
X6491060Y-13913290D01*
X6498774Y-13918445D01*
X6505334Y-13925005D01*
X6510489Y-13932719D01*
X6513478Y-13939935D01*
X6514154Y-13941201D01*
X6514285Y-13942523D01*
X6515849Y-13950390D01*
X6515849Y-13959669D01*
X6514039Y-13968768D01*
X6510489Y-13977340D01*
X6505334Y-13985054D01*
X6498774Y-13991614D01*
X6491060Y-13996769D01*
X6482488Y-14000319D01*
X6473389Y-14002129D01*
X6464110Y-14002129D01*
X6455011Y-14000319D01*
X6446439Y-13996769D01*
X6438725Y-13991614D01*
X6432165Y-13985054D01*
X6427010Y-13977340D01*
X6423459Y-13968768D01*
X6421649Y-13959669D01*
X6421649Y-13950390D01*
X6423459Y-13941291D01*
X6427010Y-13932719D01*
X6432165Y-13925005D01*
X6438725Y-13918445D01*
X6446439Y-13913290D01*
X6455011Y-13909739D01*
X6464110Y-13907929D01*
X6473271Y-13907929D01*
X6474110Y-13907847D01*
X6476275Y-13908504D01*
X6476275Y-13908504D01*
G37*
G36*
X6382902Y-13826177D02*
X6391474Y-13829727D01*
X6399188Y-13834882D01*
X6405748Y-13841442D01*
X6410903Y-13849157D01*
X6413892Y-13856372D01*
X6414569Y-13857638D01*
X6414699Y-13858960D01*
X6416264Y-13866828D01*
X6416264Y-13876106D01*
X6414454Y-13885206D01*
X6410903Y-13893777D01*
X6405748Y-13901492D01*
X6399188Y-13908052D01*
X6391474Y-13913207D01*
X6382902Y-13916757D01*
X6373803Y-13918567D01*
X6364525Y-13918567D01*
X6355425Y-13916757D01*
X6346853Y-13913207D01*
X6339139Y-13908052D01*
X6332579Y-13901492D01*
X6327424Y-13893777D01*
X6323874Y-13885206D01*
X6322064Y-13876106D01*
X6322064Y-13866828D01*
X6323874Y-13857728D01*
X6327424Y-13849157D01*
X6332579Y-13841442D01*
X6339139Y-13834882D01*
X6346853Y-13829727D01*
X6355425Y-13826177D01*
X6364525Y-13824367D01*
X6373803Y-13824367D01*
X6382902Y-13826177D01*
X6382902Y-13826177D01*
G37*
G36*
X6496974Y-13791354D02*
X6505546Y-13794904D01*
X6513260Y-13800059D01*
X6519820Y-13806619D01*
X6524975Y-13814334D01*
X6528525Y-13822905D01*
X6530335Y-13832005D01*
X6530335Y-13841283D01*
X6528525Y-13850382D01*
X6524975Y-13858954D01*
X6519820Y-13866669D01*
X6513260Y-13873229D01*
X6505546Y-13878383D01*
X6496974Y-13881934D01*
X6487874Y-13883744D01*
X6478714Y-13883744D01*
X6477875Y-13883826D01*
X6475710Y-13883170D01*
X6469497Y-13881934D01*
X6460925Y-13878383D01*
X6453211Y-13873229D01*
X6446651Y-13866669D01*
X6441496Y-13858954D01*
X6438507Y-13851738D01*
X6437830Y-13850473D01*
X6437700Y-13849150D01*
X6436135Y-13841283D01*
X6436135Y-13832005D01*
X6437945Y-13822905D01*
X6441496Y-13814334D01*
X6446651Y-13806619D01*
X6453211Y-13800059D01*
X6460925Y-13794904D01*
X6469497Y-13791354D01*
X6478596Y-13789544D01*
X6487874Y-13789544D01*
X6496974Y-13791354D01*
X6496974Y-13791354D01*
G37*
G36*
X9774804Y-13664652D02*
X9781423Y-13665304D01*
X9792745Y-13668738D01*
X9798407Y-13670456D01*
X9811683Y-13677552D01*
X9814059Y-13678822D01*
X9817633Y-13681755D01*
X9827779Y-13690081D01*
X9834907Y-13698767D01*
X9839038Y-13703801D01*
X9839038Y-13703801D01*
X9847404Y-13719453D01*
X9847404Y-13719453D01*
X9852556Y-13736437D01*
X9854296Y-13754100D01*
X9852556Y-13771763D01*
X9849122Y-13783085D01*
X9847404Y-13788747D01*
X9844130Y-13794872D01*
X9839038Y-13804399D01*
X9837216Y-13806619D01*
X9827779Y-13818119D01*
X9817959Y-13826177D01*
X9814059Y-13829378D01*
X9814059Y-13829378D01*
X9798407Y-13837744D01*
X9792745Y-13839462D01*
X9781423Y-13842896D01*
X9774804Y-13843548D01*
X9768186Y-13844200D01*
X9759334Y-13844200D01*
X9752716Y-13843548D01*
X9746097Y-13842896D01*
X9734775Y-13839462D01*
X9729113Y-13837744D01*
X9713461Y-13829378D01*
X9713461Y-13829378D01*
X9709561Y-13826177D01*
X9699741Y-13818119D01*
X9690304Y-13806619D01*
X9688482Y-13804399D01*
X9683390Y-13794872D01*
X9680116Y-13788747D01*
X9678398Y-13783085D01*
X9674964Y-13771763D01*
X9673224Y-13754100D01*
X9674964Y-13736437D01*
X9680116Y-13719453D01*
X9680116Y-13719453D01*
X9688482Y-13703801D01*
X9688482Y-13703801D01*
X9692613Y-13698767D01*
X9699741Y-13690081D01*
X9709887Y-13681755D01*
X9713461Y-13678822D01*
X9715837Y-13677552D01*
X9729113Y-13670456D01*
X9734775Y-13668738D01*
X9746097Y-13665304D01*
X9752716Y-13664652D01*
X9759334Y-13664000D01*
X9768186Y-13664000D01*
X9774804Y-13664652D01*
X9774804Y-13664652D01*
G37*
G36*
X9520804Y-13664652D02*
X9527423Y-13665304D01*
X9538745Y-13668738D01*
X9544407Y-13670456D01*
X9557683Y-13677552D01*
X9560059Y-13678822D01*
X9563633Y-13681755D01*
X9573779Y-13690081D01*
X9580907Y-13698767D01*
X9585038Y-13703801D01*
X9585038Y-13703801D01*
X9593404Y-13719453D01*
X9593404Y-13719453D01*
X9598556Y-13736437D01*
X9600296Y-13754100D01*
X9598556Y-13771763D01*
X9595122Y-13783085D01*
X9593404Y-13788747D01*
X9590130Y-13794872D01*
X9585038Y-13804399D01*
X9583216Y-13806619D01*
X9573779Y-13818119D01*
X9563959Y-13826177D01*
X9560059Y-13829378D01*
X9560059Y-13829378D01*
X9544407Y-13837744D01*
X9538745Y-13839462D01*
X9527423Y-13842896D01*
X9520804Y-13843548D01*
X9514186Y-13844200D01*
X9505334Y-13844200D01*
X9498716Y-13843548D01*
X9492097Y-13842896D01*
X9480775Y-13839462D01*
X9475113Y-13837744D01*
X9459461Y-13829378D01*
X9459461Y-13829378D01*
X9455561Y-13826177D01*
X9445741Y-13818119D01*
X9436304Y-13806619D01*
X9434482Y-13804399D01*
X9429390Y-13794872D01*
X9426116Y-13788747D01*
X9424398Y-13783085D01*
X9420964Y-13771763D01*
X9419224Y-13754100D01*
X9420964Y-13736437D01*
X9426116Y-13719453D01*
X9426116Y-13719453D01*
X9434482Y-13703801D01*
X9434482Y-13703801D01*
X9438613Y-13698767D01*
X9445741Y-13690081D01*
X9455887Y-13681755D01*
X9459461Y-13678822D01*
X9461837Y-13677552D01*
X9475113Y-13670456D01*
X9480775Y-13668738D01*
X9492097Y-13665304D01*
X9498716Y-13664652D01*
X9505334Y-13664000D01*
X9514186Y-13664000D01*
X9520804Y-13664652D01*
X9520804Y-13664652D01*
G37*
G36*
X10207874Y-13663382D02*
X10214493Y-13664034D01*
X10225815Y-13667468D01*
X10231477Y-13669186D01*
X10245339Y-13676595D01*
X10247129Y-13677552D01*
X10250003Y-13679911D01*
X10260849Y-13688811D01*
X10269019Y-13698767D01*
X10272108Y-13702531D01*
X10272108Y-13702531D01*
X10280474Y-13718183D01*
X10282192Y-13723845D01*
X10285626Y-13735167D01*
X10287366Y-13752830D01*
X10285626Y-13770493D01*
X10282192Y-13781815D01*
X10280474Y-13787477D01*
X10273749Y-13800059D01*
X10272108Y-13803129D01*
X10271066Y-13804399D01*
X10260849Y-13816849D01*
X10251687Y-13824367D01*
X10247129Y-13828108D01*
X10247129Y-13828108D01*
X10231477Y-13836474D01*
X10227290Y-13837744D01*
X10214493Y-13841626D01*
X10207874Y-13842278D01*
X10201256Y-13842930D01*
X10192404Y-13842930D01*
X10185786Y-13842278D01*
X10179167Y-13841626D01*
X10166370Y-13837744D01*
X10162183Y-13836474D01*
X10146531Y-13828108D01*
X10146531Y-13828108D01*
X10141973Y-13824367D01*
X10132811Y-13816849D01*
X10122594Y-13804399D01*
X10121552Y-13803129D01*
X10119911Y-13800059D01*
X10113186Y-13787477D01*
X10111468Y-13781815D01*
X10108034Y-13770493D01*
X10106294Y-13752830D01*
X10108034Y-13735167D01*
X10111468Y-13723845D01*
X10113186Y-13718183D01*
X10121552Y-13702531D01*
X10121552Y-13702531D01*
X10124641Y-13698767D01*
X10132811Y-13688811D01*
X10143657Y-13679911D01*
X10146531Y-13677552D01*
X10148321Y-13676595D01*
X10162183Y-13669186D01*
X10167845Y-13667468D01*
X10179167Y-13664034D01*
X10185786Y-13663382D01*
X10192404Y-13662730D01*
X10201256Y-13662730D01*
X10207874Y-13663382D01*
X10207874Y-13663382D01*
G37*
G36*
X6237499Y-13614531D02*
X6237499Y-13614531D01*
X6237499Y-13614531D01*
X6255261Y-13621888D01*
X6255261Y-13621888D01*
X6271247Y-13632569D01*
X6284841Y-13646163D01*
X6284841Y-13646164D01*
X6295522Y-13662149D01*
X6302879Y-13679911D01*
X6302879Y-13679911D01*
X6306630Y-13698767D01*
X6306630Y-13717993D01*
X6302961Y-13736437D01*
X6302879Y-13736849D01*
X6295522Y-13754611D01*
X6295522Y-13754611D01*
X6284841Y-13770597D01*
X6271247Y-13784191D01*
X6271246Y-13784191D01*
X6255261Y-13794872D01*
X6237499Y-13802229D01*
X6237499Y-13802229D01*
X6237499Y-13802229D01*
X6218643Y-13805980D01*
X6199417Y-13805980D01*
X6180561Y-13802229D01*
X6180561Y-13802229D01*
X6180561Y-13802229D01*
X6162799Y-13794872D01*
X6146814Y-13784191D01*
X6146813Y-13784191D01*
X6133219Y-13770597D01*
X6122538Y-13754611D01*
X6122538Y-13754611D01*
X6115181Y-13736849D01*
X6115099Y-13736437D01*
X6111430Y-13717993D01*
X6111430Y-13698767D01*
X6115181Y-13679911D01*
X6115181Y-13679911D01*
X6122538Y-13662149D01*
X6133219Y-13646164D01*
X6133219Y-13646163D01*
X6146813Y-13632569D01*
X6162799Y-13621888D01*
X6162799Y-13621888D01*
X6180561Y-13614531D01*
X6180561Y-13614531D01*
X6180561Y-13614531D01*
X6199417Y-13610780D01*
X6218643Y-13610780D01*
X6237499Y-13614531D01*
X6237499Y-13614531D01*
G37*
G36*
X9520804Y-13410652D02*
X9527423Y-13411304D01*
X9538745Y-13414738D01*
X9544407Y-13416456D01*
X9557683Y-13423552D01*
X9560059Y-13424822D01*
X9563633Y-13427755D01*
X9573779Y-13436081D01*
X9582105Y-13446227D01*
X9585038Y-13449801D01*
X9585038Y-13449801D01*
X9593404Y-13465453D01*
X9593404Y-13465453D01*
X9598556Y-13482437D01*
X9600296Y-13500100D01*
X9598556Y-13517763D01*
X9595122Y-13529085D01*
X9593404Y-13534747D01*
X9585995Y-13548609D01*
X9585038Y-13550399D01*
X9582105Y-13553973D01*
X9573779Y-13564119D01*
X9563633Y-13572445D01*
X9560059Y-13575378D01*
X9560059Y-13575378D01*
X9544407Y-13583744D01*
X9538745Y-13585462D01*
X9527423Y-13588896D01*
X9520804Y-13589548D01*
X9514186Y-13590200D01*
X9505334Y-13590200D01*
X9498716Y-13589548D01*
X9492097Y-13588896D01*
X9480775Y-13585462D01*
X9475113Y-13583744D01*
X9459461Y-13575378D01*
X9459461Y-13575378D01*
X9455887Y-13572445D01*
X9445741Y-13564119D01*
X9437415Y-13553973D01*
X9434482Y-13550399D01*
X9433525Y-13548609D01*
X9426116Y-13534747D01*
X9424398Y-13529085D01*
X9420964Y-13517763D01*
X9419224Y-13500100D01*
X9420964Y-13482437D01*
X9426116Y-13465453D01*
X9426116Y-13465453D01*
X9434482Y-13449801D01*
X9434482Y-13449801D01*
X9437415Y-13446227D01*
X9445741Y-13436081D01*
X9455887Y-13427755D01*
X9459461Y-13424822D01*
X9461837Y-13423552D01*
X9475113Y-13416456D01*
X9480775Y-13414738D01*
X9492097Y-13411304D01*
X9498716Y-13410652D01*
X9505334Y-13410000D01*
X9514186Y-13410000D01*
X9520804Y-13410652D01*
X9520804Y-13410652D01*
G37*
G36*
X9774804Y-13410652D02*
X9781423Y-13411304D01*
X9792745Y-13414738D01*
X9798407Y-13416456D01*
X9811683Y-13423552D01*
X9814059Y-13424822D01*
X9817633Y-13427755D01*
X9827779Y-13436081D01*
X9836105Y-13446227D01*
X9839038Y-13449801D01*
X9839038Y-13449801D01*
X9847404Y-13465453D01*
X9847404Y-13465453D01*
X9852556Y-13482437D01*
X9854296Y-13500100D01*
X9852556Y-13517763D01*
X9849122Y-13529085D01*
X9847404Y-13534747D01*
X9839995Y-13548609D01*
X9839038Y-13550399D01*
X9836105Y-13553973D01*
X9827779Y-13564119D01*
X9817633Y-13572445D01*
X9814059Y-13575378D01*
X9814059Y-13575378D01*
X9798407Y-13583744D01*
X9792745Y-13585462D01*
X9781423Y-13588896D01*
X9774804Y-13589548D01*
X9768186Y-13590200D01*
X9759334Y-13590200D01*
X9752716Y-13589548D01*
X9746097Y-13588896D01*
X9734775Y-13585462D01*
X9729113Y-13583744D01*
X9713461Y-13575378D01*
X9713461Y-13575378D01*
X9709887Y-13572445D01*
X9699741Y-13564119D01*
X9691415Y-13553973D01*
X9688482Y-13550399D01*
X9687525Y-13548609D01*
X9680116Y-13534747D01*
X9678398Y-13529085D01*
X9674964Y-13517763D01*
X9673224Y-13500100D01*
X9674964Y-13482437D01*
X9680116Y-13465453D01*
X9680116Y-13465453D01*
X9688482Y-13449801D01*
X9688482Y-13449801D01*
X9691415Y-13446227D01*
X9699741Y-13436081D01*
X9709887Y-13427755D01*
X9713461Y-13424822D01*
X9715837Y-13423552D01*
X9729113Y-13416456D01*
X9734775Y-13414738D01*
X9746097Y-13411304D01*
X9752716Y-13410652D01*
X9759334Y-13410000D01*
X9768186Y-13410000D01*
X9774804Y-13410652D01*
X9774804Y-13410652D01*
G37*
G36*
X10207874Y-13409382D02*
X10214493Y-13410034D01*
X10225815Y-13413468D01*
X10231477Y-13415186D01*
X10245339Y-13422595D01*
X10247129Y-13423552D01*
X10250703Y-13426485D01*
X10260849Y-13434811D01*
X10269175Y-13444957D01*
X10272108Y-13448531D01*
X10272108Y-13448531D01*
X10280474Y-13464183D01*
X10282192Y-13469845D01*
X10285626Y-13481167D01*
X10287366Y-13498830D01*
X10285626Y-13516493D01*
X10282192Y-13527815D01*
X10280474Y-13533477D01*
X10273065Y-13547339D01*
X10272108Y-13549129D01*
X10271066Y-13550399D01*
X10260849Y-13562849D01*
X10250703Y-13571175D01*
X10247129Y-13574108D01*
X10247129Y-13574108D01*
X10231477Y-13582474D01*
X10227290Y-13583744D01*
X10214493Y-13587626D01*
X10207874Y-13588278D01*
X10201256Y-13588930D01*
X10192404Y-13588930D01*
X10185786Y-13588278D01*
X10179167Y-13587626D01*
X10166370Y-13583744D01*
X10162183Y-13582474D01*
X10146531Y-13574108D01*
X10146531Y-13574108D01*
X10142957Y-13571175D01*
X10132811Y-13562849D01*
X10122594Y-13550399D01*
X10121552Y-13549129D01*
X10120595Y-13547339D01*
X10113186Y-13533477D01*
X10111468Y-13527815D01*
X10108034Y-13516493D01*
X10106294Y-13498830D01*
X10108034Y-13481167D01*
X10111468Y-13469845D01*
X10113186Y-13464183D01*
X10121552Y-13448531D01*
X10121552Y-13448531D01*
X10124485Y-13444957D01*
X10132811Y-13434811D01*
X10142957Y-13426485D01*
X10146531Y-13423552D01*
X10148321Y-13422595D01*
X10162183Y-13415186D01*
X10167845Y-13413468D01*
X10179167Y-13410034D01*
X10185786Y-13409382D01*
X10192404Y-13408730D01*
X10201256Y-13408730D01*
X10207874Y-13409382D01*
X10207874Y-13409382D01*
G37*
G36*
X9774804Y-13156652D02*
X9781423Y-13157304D01*
X9792745Y-13160738D01*
X9798407Y-13162456D01*
X9811683Y-13169552D01*
X9814059Y-13170822D01*
X9817633Y-13173755D01*
X9827779Y-13182081D01*
X9836105Y-13192227D01*
X9839038Y-13195801D01*
X9839038Y-13195801D01*
X9847404Y-13211453D01*
X9847404Y-13211453D01*
X9852556Y-13228437D01*
X9854296Y-13246100D01*
X9852556Y-13263763D01*
X9849122Y-13275085D01*
X9847404Y-13280747D01*
X9839995Y-13294609D01*
X9839038Y-13296399D01*
X9836105Y-13299973D01*
X9827779Y-13310119D01*
X9817633Y-13318445D01*
X9814059Y-13321378D01*
X9814059Y-13321378D01*
X9798407Y-13329744D01*
X9792745Y-13331462D01*
X9781423Y-13334896D01*
X9774804Y-13335548D01*
X9768186Y-13336200D01*
X9759334Y-13336200D01*
X9752716Y-13335548D01*
X9746097Y-13334896D01*
X9734775Y-13331462D01*
X9729113Y-13329744D01*
X9713461Y-13321378D01*
X9713461Y-13321378D01*
X9709887Y-13318445D01*
X9699741Y-13310119D01*
X9691415Y-13299973D01*
X9688482Y-13296399D01*
X9687525Y-13294609D01*
X9680116Y-13280747D01*
X9678398Y-13275085D01*
X9674964Y-13263763D01*
X9673224Y-13246100D01*
X9674964Y-13228437D01*
X9680116Y-13211453D01*
X9680116Y-13211453D01*
X9688482Y-13195801D01*
X9688482Y-13195801D01*
X9691415Y-13192227D01*
X9699741Y-13182081D01*
X9709887Y-13173755D01*
X9713461Y-13170822D01*
X9715837Y-13169552D01*
X9729113Y-13162456D01*
X9734775Y-13160738D01*
X9746097Y-13157304D01*
X9752716Y-13156652D01*
X9759334Y-13156000D01*
X9768186Y-13156000D01*
X9774804Y-13156652D01*
X9774804Y-13156652D01*
G37*
G36*
X9520804Y-13156652D02*
X9527423Y-13157304D01*
X9538745Y-13160738D01*
X9544407Y-13162456D01*
X9557683Y-13169552D01*
X9560059Y-13170822D01*
X9563633Y-13173755D01*
X9573779Y-13182081D01*
X9582105Y-13192227D01*
X9585038Y-13195801D01*
X9585038Y-13195801D01*
X9593404Y-13211453D01*
X9593404Y-13211453D01*
X9598556Y-13228437D01*
X9600296Y-13246100D01*
X9598556Y-13263763D01*
X9595122Y-13275085D01*
X9593404Y-13280747D01*
X9585995Y-13294609D01*
X9585038Y-13296399D01*
X9582105Y-13299973D01*
X9573779Y-13310119D01*
X9563633Y-13318445D01*
X9560059Y-13321378D01*
X9560059Y-13321378D01*
X9544407Y-13329744D01*
X9538745Y-13331462D01*
X9527423Y-13334896D01*
X9520804Y-13335548D01*
X9514186Y-13336200D01*
X9505334Y-13336200D01*
X9498716Y-13335548D01*
X9492097Y-13334896D01*
X9480775Y-13331462D01*
X9475113Y-13329744D01*
X9459461Y-13321378D01*
X9459461Y-13321378D01*
X9455887Y-13318445D01*
X9445741Y-13310119D01*
X9437415Y-13299973D01*
X9434482Y-13296399D01*
X9433525Y-13294609D01*
X9426116Y-13280747D01*
X9424398Y-13275085D01*
X9420964Y-13263763D01*
X9419224Y-13246100D01*
X9420964Y-13228437D01*
X9426116Y-13211453D01*
X9426116Y-13211453D01*
X9434482Y-13195801D01*
X9434482Y-13195801D01*
X9437415Y-13192227D01*
X9445741Y-13182081D01*
X9455887Y-13173755D01*
X9459461Y-13170822D01*
X9461837Y-13169552D01*
X9475113Y-13162456D01*
X9480775Y-13160738D01*
X9492097Y-13157304D01*
X9498716Y-13156652D01*
X9505334Y-13156000D01*
X9514186Y-13156000D01*
X9520804Y-13156652D01*
X9520804Y-13156652D01*
G37*
G36*
X10207874Y-13155382D02*
X10214493Y-13156034D01*
X10225815Y-13159468D01*
X10231477Y-13161186D01*
X10245339Y-13168595D01*
X10247129Y-13169552D01*
X10250703Y-13172485D01*
X10260849Y-13180811D01*
X10269175Y-13190957D01*
X10272108Y-13194531D01*
X10272108Y-13194531D01*
X10280474Y-13210183D01*
X10282192Y-13215845D01*
X10285626Y-13227167D01*
X10287366Y-13244830D01*
X10285626Y-13262493D01*
X10282192Y-13273815D01*
X10280474Y-13279477D01*
X10273065Y-13293339D01*
X10272108Y-13295129D01*
X10271066Y-13296399D01*
X10260849Y-13308849D01*
X10250703Y-13317175D01*
X10247129Y-13320108D01*
X10247129Y-13320108D01*
X10231477Y-13328474D01*
X10227290Y-13329744D01*
X10214493Y-13333626D01*
X10207874Y-13334278D01*
X10201256Y-13334930D01*
X10192404Y-13334930D01*
X10185786Y-13334278D01*
X10179167Y-13333626D01*
X10166370Y-13329744D01*
X10162183Y-13328474D01*
X10146531Y-13320108D01*
X10146531Y-13320108D01*
X10142957Y-13317175D01*
X10132811Y-13308849D01*
X10122594Y-13296399D01*
X10121552Y-13295129D01*
X10120595Y-13293339D01*
X10113186Y-13279477D01*
X10111468Y-13273815D01*
X10108034Y-13262493D01*
X10106294Y-13244830D01*
X10108034Y-13227167D01*
X10111468Y-13215845D01*
X10113186Y-13210183D01*
X10121552Y-13194531D01*
X10121552Y-13194531D01*
X10124485Y-13190957D01*
X10132811Y-13180811D01*
X10142957Y-13172485D01*
X10146531Y-13169552D01*
X10148321Y-13168595D01*
X10162183Y-13161186D01*
X10167845Y-13159468D01*
X10179167Y-13156034D01*
X10185786Y-13155382D01*
X10192404Y-13154730D01*
X10201256Y-13154730D01*
X10207874Y-13155382D01*
X10207874Y-13155382D01*
G37*
G36*
X9774804Y-12902652D02*
X9781423Y-12903304D01*
X9792745Y-12906738D01*
X9798407Y-12908456D01*
X9811683Y-12915552D01*
X9814059Y-12916822D01*
X9817633Y-12919755D01*
X9827779Y-12928081D01*
X9836105Y-12938227D01*
X9839038Y-12941801D01*
X9839038Y-12941801D01*
X9847404Y-12957453D01*
X9847404Y-12957453D01*
X9852556Y-12974437D01*
X9854296Y-12992100D01*
X9852556Y-13009763D01*
X9849122Y-13021085D01*
X9847404Y-13026747D01*
X9839995Y-13040609D01*
X9839038Y-13042399D01*
X9836105Y-13045973D01*
X9827779Y-13056119D01*
X9817633Y-13064445D01*
X9814059Y-13067378D01*
X9814059Y-13067378D01*
X9798407Y-13075744D01*
X9792745Y-13077462D01*
X9781423Y-13080896D01*
X9774804Y-13081548D01*
X9768186Y-13082200D01*
X9759334Y-13082200D01*
X9752716Y-13081548D01*
X9746097Y-13080896D01*
X9734775Y-13077462D01*
X9729113Y-13075744D01*
X9713461Y-13067378D01*
X9713461Y-13067378D01*
X9709887Y-13064445D01*
X9699741Y-13056119D01*
X9691415Y-13045973D01*
X9688482Y-13042399D01*
X9687525Y-13040609D01*
X9680116Y-13026747D01*
X9678398Y-13021085D01*
X9674964Y-13009763D01*
X9673224Y-12992100D01*
X9674964Y-12974437D01*
X9680116Y-12957453D01*
X9680116Y-12957453D01*
X9688482Y-12941801D01*
X9688482Y-12941801D01*
X9691415Y-12938227D01*
X9699741Y-12928081D01*
X9709887Y-12919755D01*
X9713461Y-12916822D01*
X9715837Y-12915552D01*
X9729113Y-12908456D01*
X9734775Y-12906738D01*
X9746097Y-12903304D01*
X9752716Y-12902652D01*
X9759334Y-12902000D01*
X9768186Y-12902000D01*
X9774804Y-12902652D01*
X9774804Y-12902652D01*
G37*
G36*
X9599860Y-13082200D02*
X9419660Y-13082200D01*
X9419660Y-12902000D01*
X9599860Y-12902000D01*
X9599860Y-13082200D01*
X9599860Y-13082200D01*
G37*
G36*
X10207874Y-12901382D02*
X10214493Y-12902034D01*
X10225815Y-12905468D01*
X10231477Y-12907186D01*
X10245339Y-12914595D01*
X10247129Y-12915552D01*
X10250703Y-12918485D01*
X10260849Y-12926811D01*
X10269175Y-12936957D01*
X10272108Y-12940531D01*
X10272108Y-12940531D01*
X10280474Y-12956183D01*
X10282192Y-12961845D01*
X10285626Y-12973167D01*
X10287366Y-12990830D01*
X10285626Y-13008493D01*
X10282192Y-13019815D01*
X10280474Y-13025477D01*
X10273065Y-13039339D01*
X10272108Y-13041129D01*
X10271066Y-13042399D01*
X10260849Y-13054849D01*
X10250703Y-13063175D01*
X10247129Y-13066108D01*
X10247129Y-13066108D01*
X10231477Y-13074474D01*
X10227290Y-13075744D01*
X10214493Y-13079626D01*
X10207874Y-13080278D01*
X10201256Y-13080930D01*
X10192404Y-13080930D01*
X10185786Y-13080278D01*
X10179167Y-13079626D01*
X10166370Y-13075744D01*
X10162183Y-13074474D01*
X10146531Y-13066108D01*
X10146531Y-13066108D01*
X10142957Y-13063175D01*
X10132811Y-13054849D01*
X10122594Y-13042399D01*
X10121552Y-13041129D01*
X10120595Y-13039339D01*
X10113186Y-13025477D01*
X10111468Y-13019815D01*
X10108034Y-13008493D01*
X10106294Y-12990830D01*
X10108034Y-12973167D01*
X10111468Y-12961845D01*
X10113186Y-12956183D01*
X10121552Y-12940531D01*
X10121552Y-12940531D01*
X10124485Y-12936957D01*
X10132811Y-12926811D01*
X10142957Y-12918485D01*
X10146531Y-12915552D01*
X10148321Y-12914595D01*
X10162183Y-12907186D01*
X10167845Y-12905468D01*
X10179167Y-12902034D01*
X10185786Y-12901382D01*
X10192404Y-12900730D01*
X10201256Y-12900730D01*
X10207874Y-12901382D01*
X10207874Y-12901382D01*
G37*
G36*
X10286930Y-12826930D02*
X10106730Y-12826930D01*
X10106730Y-12646730D01*
X10286930Y-12646730D01*
X10286930Y-12826930D01*
X10286930Y-12826930D01*
G37*
G36*
X14497556Y-12414130D02*
X14508189Y-12416245D01*
X14538235Y-12428690D01*
X14564916Y-12446518D01*
X14565276Y-12446759D01*
X14588272Y-12469755D01*
X14606341Y-12496796D01*
X14618786Y-12526842D01*
X14625131Y-12558739D01*
X14625131Y-12591261D01*
X14618786Y-12623158D01*
X14606341Y-12653204D01*
X14588272Y-12680245D01*
X14565276Y-12703241D01*
X14565276Y-12703241D01*
X14538235Y-12721310D01*
X14508189Y-12733755D01*
X14497556Y-12735870D01*
X14476292Y-12740100D01*
X14443770Y-12740100D01*
X14422505Y-12735870D01*
X14411873Y-12733755D01*
X14381827Y-12721310D01*
X14354786Y-12703241D01*
X14354785Y-12703241D01*
X14331789Y-12680245D01*
X14313721Y-12653204D01*
X14301275Y-12623158D01*
X14294931Y-12591261D01*
X14294931Y-12558739D01*
X14301275Y-12526842D01*
X14313721Y-12496796D01*
X14331789Y-12469755D01*
X14354785Y-12446759D01*
X14355146Y-12446518D01*
X14381827Y-12428690D01*
X14411873Y-12416245D01*
X14422505Y-12414130D01*
X14443770Y-12409900D01*
X14476292Y-12409900D01*
X14497556Y-12414130D01*
X14497556Y-12414130D01*
G37*
G36*
X5577495Y-12414130D02*
X5588127Y-12416245D01*
X5618173Y-12428690D01*
X5644854Y-12446518D01*
X5645215Y-12446759D01*
X5668210Y-12469755D01*
X5686279Y-12496796D01*
X5698724Y-12526842D01*
X5705069Y-12558739D01*
X5705069Y-12591261D01*
X5698724Y-12623158D01*
X5686279Y-12653204D01*
X5668210Y-12680245D01*
X5645215Y-12703241D01*
X5645214Y-12703241D01*
X5618173Y-12721310D01*
X5588127Y-12733755D01*
X5577495Y-12735870D01*
X5556230Y-12740100D01*
X5523708Y-12740100D01*
X5502444Y-12735870D01*
X5491811Y-12733755D01*
X5461765Y-12721310D01*
X5434724Y-12703241D01*
X5434724Y-12703241D01*
X5411728Y-12680245D01*
X5393659Y-12653204D01*
X5381214Y-12623158D01*
X5374869Y-12591261D01*
X5374869Y-12558739D01*
X5381214Y-12526842D01*
X5393659Y-12496796D01*
X5411728Y-12469755D01*
X5434724Y-12446759D01*
X5435084Y-12446518D01*
X5461765Y-12428690D01*
X5491811Y-12416245D01*
X5502444Y-12414130D01*
X5523708Y-12409900D01*
X5556230Y-12409900D01*
X5577495Y-12414130D01*
X5577495Y-12414130D01*
G37*
G36*
X5422830Y-8407330D02*
X5242630Y-8407330D01*
X5242630Y-8227130D01*
X5422830Y-8227130D01*
X5422830Y-8407330D01*
X5422830Y-8407330D01*
G37*
G36*
X5089774Y-8227782D02*
X5096393Y-8228434D01*
X5107715Y-8231868D01*
X5113377Y-8233586D01*
X5127239Y-8240995D01*
X5129029Y-8241952D01*
X5132603Y-8244885D01*
X5142749Y-8253211D01*
X5151075Y-8263357D01*
X5154008Y-8266931D01*
X5154008Y-8266931D01*
X5162374Y-8282583D01*
X5162374Y-8282583D01*
X5167526Y-8299567D01*
X5169266Y-8317230D01*
X5167526Y-8334893D01*
X5164092Y-8346215D01*
X5162374Y-8351877D01*
X5154965Y-8365739D01*
X5154008Y-8367529D01*
X5151075Y-8371103D01*
X5142749Y-8381249D01*
X5132603Y-8389575D01*
X5129029Y-8392508D01*
X5129029Y-8392508D01*
X5113377Y-8400874D01*
X5107715Y-8402592D01*
X5096393Y-8406026D01*
X5089774Y-8406678D01*
X5083156Y-8407330D01*
X5074304Y-8407330D01*
X5067686Y-8406678D01*
X5061067Y-8406026D01*
X5049745Y-8402592D01*
X5044083Y-8400874D01*
X5028431Y-8392508D01*
X5028431Y-8392508D01*
X5024857Y-8389575D01*
X5014711Y-8381249D01*
X5006385Y-8371103D01*
X5003452Y-8367529D01*
X5002495Y-8365739D01*
X4995086Y-8351877D01*
X4993368Y-8346215D01*
X4989934Y-8334893D01*
X4988194Y-8317230D01*
X4989934Y-8299567D01*
X4995086Y-8282583D01*
X4995086Y-8282583D01*
X5003452Y-8266931D01*
X5003452Y-8266931D01*
X5006385Y-8263357D01*
X5014711Y-8253211D01*
X5024857Y-8244885D01*
X5028431Y-8241952D01*
X5030221Y-8240995D01*
X5044083Y-8233586D01*
X5049745Y-8231868D01*
X5061067Y-8228434D01*
X5067686Y-8227782D01*
X5074304Y-8227130D01*
X5083156Y-8227130D01*
X5089774Y-8227782D01*
X5089774Y-8227782D01*
G37*
G36*
X10037526Y-4689130D02*
X10048158Y-4691245D01*
X10078204Y-4703690D01*
X10104885Y-4721518D01*
X10105245Y-4721759D01*
X10128241Y-4744755D01*
X10146310Y-4771796D01*
X10158755Y-4801842D01*
X10165100Y-4833739D01*
X10165100Y-4866261D01*
X10158755Y-4898158D01*
X10146310Y-4928204D01*
X10128241Y-4955245D01*
X10105245Y-4978241D01*
X10105245Y-4978242D01*
X10078204Y-4996310D01*
X10048158Y-5008755D01*
X10037526Y-5010870D01*
X10016261Y-5015100D01*
X9983739Y-5015100D01*
X9962474Y-5010870D01*
X9951842Y-5008755D01*
X9921796Y-4996310D01*
X9894755Y-4978242D01*
X9894755Y-4978241D01*
X9871759Y-4955245D01*
X9853690Y-4928204D01*
X9841245Y-4898158D01*
X9834900Y-4866261D01*
X9834900Y-4833739D01*
X9841245Y-4801842D01*
X9853690Y-4771796D01*
X9871759Y-4744755D01*
X9894755Y-4721759D01*
X9895115Y-4721518D01*
X9921796Y-4703690D01*
X9951842Y-4691245D01*
X9962474Y-4689130D01*
X9983739Y-4684900D01*
X10016261Y-4684900D01*
X10037526Y-4689130D01*
X10037526Y-4689130D01*
G37*
M02*
