%TF.GenerationSoftware,KiCad,Pcbnew,5.0.2-bee76a0~70~ubuntu18.04.1*%
%TF.CreationDate,2020-08-10T07:45:17+02:00*%
%TF.ProjectId,gsvesc,67737665-7363-42e6-9b69-6361645f7063,rev?*%
%TF.SameCoordinates,Original*%
%TF.FileFunction,Legend,Top*%
%TF.FilePolarity,Positive*%
%FSLAX46Y46*%
G04 Gerber Fmt 4.6, Leading zero omitted, Abs format (unit mm)*
G04 Created by KiCad (PCBNEW 5.0.2-bee76a0~70~ubuntu18.04.1) date Mo 10 Aug 2020 07:45:17 CEST*
%MOMM*%
%LPD*%
G01*
G04 APERTURE LIST*
%ADD10C,0.150000*%
%ADD11C,0.300000*%
%ADD12C,0.200000*%
%ADD13C,0.120000*%
%ADD14C,0.152400*%
%ADD15C,0.127000*%
G04 APERTURE END LIST*
D10*
X77949800Y-73328371D02*
X78806942Y-73328371D01*
X78378371Y-74828371D02*
X78378371Y-73328371D01*
X79306942Y-74256942D02*
X80449800Y-74256942D01*
X81664085Y-74042657D02*
X81164085Y-74042657D01*
X81164085Y-74828371D02*
X81164085Y-73328371D01*
X81878371Y-73328371D01*
X82449800Y-74042657D02*
X82949800Y-74042657D01*
X83164085Y-74828371D02*
X82449800Y-74828371D01*
X82449800Y-73328371D01*
X83164085Y-73328371D01*
X83592657Y-73328371D02*
X84449800Y-73328371D01*
X84021228Y-74828371D02*
X84021228Y-73328371D01*
D11*
X80814085Y-52978371D02*
X80814085Y-51478371D01*
X81385514Y-51478371D01*
X81528371Y-51549800D01*
X81599800Y-51621228D01*
X81671228Y-51764085D01*
X81671228Y-51978371D01*
X81599800Y-52121228D01*
X81528371Y-52192657D01*
X81385514Y-52264085D01*
X80814085Y-52264085D01*
X82314085Y-52978371D02*
X82314085Y-51478371D01*
X82956942Y-52978371D02*
X82956942Y-52192657D01*
X82885514Y-52049800D01*
X82742657Y-51978371D01*
X82528371Y-51978371D01*
X82385514Y-52049800D01*
X82314085Y-52121228D01*
X84742657Y-52549800D02*
X85456942Y-52549800D01*
X84599800Y-52978371D02*
X85099800Y-51478371D01*
X85599800Y-52978371D01*
X101256942Y-53378371D02*
X101256942Y-51878371D01*
X101828371Y-51878371D01*
X101971228Y-51949800D01*
X102042657Y-52021228D01*
X102114085Y-52164085D01*
X102114085Y-52378371D01*
X102042657Y-52521228D01*
X101971228Y-52592657D01*
X101828371Y-52664085D01*
X101256942Y-52664085D01*
X102756942Y-53378371D02*
X102756942Y-51878371D01*
X103399800Y-53378371D02*
X103399800Y-52592657D01*
X103328371Y-52449800D01*
X103185514Y-52378371D01*
X102971228Y-52378371D01*
X102828371Y-52449800D01*
X102756942Y-52521228D01*
X105756942Y-52592657D02*
X105971228Y-52664085D01*
X106042657Y-52735514D01*
X106114085Y-52878371D01*
X106114085Y-53092657D01*
X106042657Y-53235514D01*
X105971228Y-53306942D01*
X105828371Y-53378371D01*
X105256942Y-53378371D01*
X105256942Y-51878371D01*
X105756942Y-51878371D01*
X105899800Y-51949800D01*
X105971228Y-52021228D01*
X106042657Y-52164085D01*
X106042657Y-52306942D01*
X105971228Y-52449800D01*
X105899800Y-52521228D01*
X105756942Y-52592657D01*
X105256942Y-52592657D01*
D12*
X155499800Y-99999800D02*
G75*
G03X155499800Y-99999800I-55500000J0D01*
G01*
D10*
X126185514Y-134142657D02*
X126685514Y-134142657D01*
X126899800Y-134928371D02*
X126185514Y-134928371D01*
X126185514Y-133428371D01*
X126899800Y-133428371D01*
X127399800Y-133428371D02*
X128399800Y-134928371D01*
X128399800Y-133428371D02*
X127399800Y-134928371D01*
X128756942Y-133428371D02*
X129614085Y-133428371D01*
X129185514Y-134928371D02*
X129185514Y-133428371D01*
X131471228Y-134928371D02*
X131328371Y-134856942D01*
X131256942Y-134785514D01*
X131185514Y-134642657D01*
X131185514Y-134214085D01*
X131256942Y-134071228D01*
X131328371Y-133999800D01*
X131471228Y-133928371D01*
X131685514Y-133928371D01*
X131828371Y-133999800D01*
X131899800Y-134071228D01*
X131971228Y-134214085D01*
X131971228Y-134642657D01*
X131899800Y-134785514D01*
X131828371Y-134856942D01*
X131685514Y-134928371D01*
X131471228Y-134928371D01*
X132399800Y-133928371D02*
X132971228Y-133928371D01*
X132614085Y-134928371D02*
X132614085Y-133642657D01*
X132685514Y-133499800D01*
X132828371Y-133428371D01*
X132971228Y-133428371D01*
X133256942Y-133928371D02*
X133828371Y-133928371D01*
X133471228Y-134928371D02*
X133471228Y-133642657D01*
X133542657Y-133499800D01*
X133685514Y-133428371D01*
X133828371Y-133428371D01*
D11*
X121906942Y-53578371D02*
X121906942Y-52078371D01*
X122478371Y-52078371D01*
X122621228Y-52149800D01*
X122692657Y-52221228D01*
X122764085Y-52364085D01*
X122764085Y-52578371D01*
X122692657Y-52721228D01*
X122621228Y-52792657D01*
X122478371Y-52864085D01*
X121906942Y-52864085D01*
X123406942Y-53578371D02*
X123406942Y-52078371D01*
X124049800Y-53578371D02*
X124049800Y-52792657D01*
X123978371Y-52649800D01*
X123835514Y-52578371D01*
X123621228Y-52578371D01*
X123478371Y-52649800D01*
X123406942Y-52721228D01*
X126764085Y-53435514D02*
X126692657Y-53506942D01*
X126478371Y-53578371D01*
X126335514Y-53578371D01*
X126121228Y-53506942D01*
X125978371Y-53364085D01*
X125906942Y-53221228D01*
X125835514Y-52935514D01*
X125835514Y-52721228D01*
X125906942Y-52435514D01*
X125978371Y-52292657D01*
X126121228Y-52149800D01*
X126335514Y-52078371D01*
X126478371Y-52078371D01*
X126692657Y-52149800D01*
X126764085Y-52221228D01*
X132406942Y-109049800D02*
X132264085Y-108978371D01*
X132049800Y-108978371D01*
X131835514Y-109049800D01*
X131692657Y-109192657D01*
X131621228Y-109335514D01*
X131549800Y-109621228D01*
X131549800Y-109835514D01*
X131621228Y-110121228D01*
X131692657Y-110264085D01*
X131835514Y-110406942D01*
X132049800Y-110478371D01*
X132192657Y-110478371D01*
X132406942Y-110406942D01*
X132478371Y-110335514D01*
X132478371Y-109835514D01*
X132192657Y-109835514D01*
X133121228Y-110478371D02*
X133121228Y-108978371D01*
X133978371Y-110478371D01*
X133978371Y-108978371D01*
X134692657Y-110478371D02*
X134692657Y-108978371D01*
X135049800Y-108978371D01*
X135264085Y-109049800D01*
X135406942Y-109192657D01*
X135478371Y-109335514D01*
X135549800Y-109621228D01*
X135549800Y-109835514D01*
X135478371Y-110121228D01*
X135406942Y-110264085D01*
X135264085Y-110406942D01*
X135049800Y-110478371D01*
X134692657Y-110478371D01*
X144485514Y-109328371D02*
X144985514Y-110828371D01*
X145485514Y-109328371D01*
X146485514Y-110042657D02*
X146699800Y-110114085D01*
X146771228Y-110185514D01*
X146842657Y-110328371D01*
X146842657Y-110542657D01*
X146771228Y-110685514D01*
X146699800Y-110756942D01*
X146556942Y-110828371D01*
X145985514Y-110828371D01*
X145985514Y-109328371D01*
X146485514Y-109328371D01*
X146628371Y-109399800D01*
X146699800Y-109471228D01*
X146771228Y-109614085D01*
X146771228Y-109756942D01*
X146699800Y-109899800D01*
X146628371Y-109971228D01*
X146485514Y-110042657D01*
X145985514Y-110042657D01*
X147414085Y-110399800D02*
X148128371Y-110399800D01*
X147271228Y-110828371D02*
X147771228Y-109328371D01*
X148271228Y-110828371D01*
X148556942Y-109328371D02*
X149414085Y-109328371D01*
X148985514Y-110828371D02*
X148985514Y-109328371D01*
D10*
X141928371Y-112992657D02*
X142142657Y-113064085D01*
X142214085Y-113135514D01*
X142285514Y-113278371D01*
X142285514Y-113492657D01*
X142214085Y-113635514D01*
X142142657Y-113706942D01*
X141999800Y-113778371D01*
X141428371Y-113778371D01*
X141428371Y-112278371D01*
X141928371Y-112278371D01*
X142071228Y-112349800D01*
X142142657Y-112421228D01*
X142214085Y-112564085D01*
X142214085Y-112706942D01*
X142142657Y-112849800D01*
X142071228Y-112921228D01*
X141928371Y-112992657D01*
X141428371Y-112992657D01*
X143642657Y-113778371D02*
X142928371Y-113778371D01*
X142928371Y-112278371D01*
X144142657Y-112992657D02*
X144642657Y-112992657D01*
X144856942Y-113778371D02*
X144142657Y-113778371D01*
X144142657Y-112278371D01*
X144856942Y-112278371D01*
X146571228Y-113706942D02*
X146785514Y-113778371D01*
X147142657Y-113778371D01*
X147285514Y-113706942D01*
X147356942Y-113635514D01*
X147428371Y-113492657D01*
X147428371Y-113349800D01*
X147356942Y-113206942D01*
X147285514Y-113135514D01*
X147142657Y-113064085D01*
X146856942Y-112992657D01*
X146714085Y-112921228D01*
X146642657Y-112849800D01*
X146571228Y-112706942D01*
X146571228Y-112564085D01*
X146642657Y-112421228D01*
X146714085Y-112349800D01*
X146856942Y-112278371D01*
X147214085Y-112278371D01*
X147428371Y-112349800D01*
X147928371Y-112278371D02*
X148285514Y-113778371D01*
X148571228Y-112706942D01*
X148856942Y-113778371D01*
X149214085Y-112278371D01*
X149785514Y-113778371D02*
X149785514Y-112278371D01*
X150142657Y-112278371D01*
X150356942Y-112349800D01*
X150499800Y-112492657D01*
X150571228Y-112635514D01*
X150642657Y-112921228D01*
X150642657Y-113135514D01*
X150571228Y-113421228D01*
X150499800Y-113564085D01*
X150356942Y-113706942D01*
X150142657Y-113778371D01*
X149785514Y-113778371D01*
X116064085Y-124342657D02*
X116278371Y-124414085D01*
X116349800Y-124485514D01*
X116421228Y-124628371D01*
X116421228Y-124842657D01*
X116349800Y-124985514D01*
X116278371Y-125056942D01*
X116135514Y-125128371D01*
X115564085Y-125128371D01*
X115564085Y-123628371D01*
X116064085Y-123628371D01*
X116206942Y-123699800D01*
X116278371Y-123771228D01*
X116349800Y-123914085D01*
X116349800Y-124056942D01*
X116278371Y-124199800D01*
X116206942Y-124271228D01*
X116064085Y-124342657D01*
X115564085Y-124342657D01*
X117778371Y-125128371D02*
X117064085Y-125128371D01*
X117064085Y-123628371D01*
X118278371Y-124342657D02*
X118778371Y-124342657D01*
X118992657Y-125128371D02*
X118278371Y-125128371D01*
X118278371Y-123628371D01*
X118992657Y-123628371D01*
X120778371Y-125128371D02*
X120778371Y-123628371D01*
X121278371Y-124699800D01*
X121778371Y-123628371D01*
X121778371Y-125128371D01*
X122706942Y-125128371D02*
X122564085Y-125056942D01*
X122492657Y-124985514D01*
X122421228Y-124842657D01*
X122421228Y-124414085D01*
X122492657Y-124271228D01*
X122564085Y-124199800D01*
X122706942Y-124128371D01*
X122921228Y-124128371D01*
X123064085Y-124199800D01*
X123135514Y-124271228D01*
X123206942Y-124414085D01*
X123206942Y-124842657D01*
X123135514Y-124985514D01*
X123064085Y-125056942D01*
X122921228Y-125128371D01*
X122706942Y-125128371D01*
X124492657Y-125128371D02*
X124492657Y-123628371D01*
X124492657Y-125056942D02*
X124349800Y-125128371D01*
X124064085Y-125128371D01*
X123921228Y-125056942D01*
X123849800Y-124985514D01*
X123778371Y-124842657D01*
X123778371Y-124414085D01*
X123849800Y-124271228D01*
X123921228Y-124199800D01*
X124064085Y-124128371D01*
X124349800Y-124128371D01*
X124492657Y-124199800D01*
X125849800Y-124128371D02*
X125849800Y-125128371D01*
X125206942Y-124128371D02*
X125206942Y-124914085D01*
X125278371Y-125056942D01*
X125421228Y-125128371D01*
X125635514Y-125128371D01*
X125778371Y-125056942D01*
X125849800Y-124985514D01*
X126778371Y-125128371D02*
X126635514Y-125056942D01*
X126564085Y-124914085D01*
X126564085Y-123628371D01*
X88335514Y-124578371D02*
X89192657Y-124578371D01*
X88764085Y-126078371D02*
X88764085Y-124578371D01*
X89692657Y-125506942D02*
X90835514Y-125506942D01*
X91549800Y-126078371D02*
X91549800Y-124578371D01*
X92049800Y-125649800D01*
X92549800Y-124578371D01*
X92549800Y-126078371D01*
X93478371Y-126078371D02*
X93335514Y-126006942D01*
X93264085Y-125935514D01*
X93192657Y-125792657D01*
X93192657Y-125364085D01*
X93264085Y-125221228D01*
X93335514Y-125149800D01*
X93478371Y-125078371D01*
X93692657Y-125078371D01*
X93835514Y-125149800D01*
X93906942Y-125221228D01*
X93978371Y-125364085D01*
X93978371Y-125792657D01*
X93906942Y-125935514D01*
X93835514Y-126006942D01*
X93692657Y-126078371D01*
X93478371Y-126078371D01*
X94406942Y-125078371D02*
X94978371Y-125078371D01*
X94621228Y-124578371D02*
X94621228Y-125864085D01*
X94692657Y-126006942D01*
X94835514Y-126078371D01*
X94978371Y-126078371D01*
X95692657Y-126078371D02*
X95549800Y-126006942D01*
X95478371Y-125935514D01*
X95406942Y-125792657D01*
X95406942Y-125364085D01*
X95478371Y-125221228D01*
X95549800Y-125149800D01*
X95692657Y-125078371D01*
X95906942Y-125078371D01*
X96049800Y-125149800D01*
X96121228Y-125221228D01*
X96192657Y-125364085D01*
X96192657Y-125792657D01*
X96121228Y-125935514D01*
X96049800Y-126006942D01*
X95906942Y-126078371D01*
X95692657Y-126078371D01*
X96835514Y-126078371D02*
X96835514Y-125078371D01*
X96835514Y-125364085D02*
X96906942Y-125221228D01*
X96978371Y-125149800D01*
X97121228Y-125078371D01*
X97264085Y-125078371D01*
X121883014Y-115521228D02*
X121954442Y-115449800D01*
X122097300Y-115378371D01*
X122454442Y-115378371D01*
X122597300Y-115449800D01*
X122668728Y-115521228D01*
X122740157Y-115664085D01*
X122740157Y-115806942D01*
X122668728Y-116021228D01*
X121811585Y-116878371D01*
X122740157Y-116878371D01*
X123668728Y-115378371D02*
X123811585Y-115378371D01*
X123954442Y-115449800D01*
X124025871Y-115521228D01*
X124097300Y-115664085D01*
X124168728Y-115949800D01*
X124168728Y-116306942D01*
X124097300Y-116592657D01*
X124025871Y-116735514D01*
X123954442Y-116806942D01*
X123811585Y-116878371D01*
X123668728Y-116878371D01*
X123525871Y-116806942D01*
X123454442Y-116735514D01*
X123383014Y-116592657D01*
X123311585Y-116306942D01*
X123311585Y-115949800D01*
X123383014Y-115664085D01*
X123454442Y-115521228D01*
X123525871Y-115449800D01*
X123668728Y-115378371D01*
X124740157Y-115521228D02*
X124811585Y-115449800D01*
X124954442Y-115378371D01*
X125311585Y-115378371D01*
X125454442Y-115449800D01*
X125525871Y-115521228D01*
X125597300Y-115664085D01*
X125597300Y-115806942D01*
X125525871Y-116021228D01*
X124668728Y-116878371D01*
X125597300Y-116878371D01*
X126525871Y-115378371D02*
X126668728Y-115378371D01*
X126811585Y-115449800D01*
X126883014Y-115521228D01*
X126954442Y-115664085D01*
X127025871Y-115949800D01*
X127025871Y-116306942D01*
X126954442Y-116592657D01*
X126883014Y-116735514D01*
X126811585Y-116806942D01*
X126668728Y-116878371D01*
X126525871Y-116878371D01*
X126383014Y-116806942D01*
X126311585Y-116735514D01*
X126240157Y-116592657D01*
X126168728Y-116306942D01*
X126168728Y-115949800D01*
X126240157Y-115664085D01*
X126311585Y-115521228D01*
X126383014Y-115449800D01*
X126525871Y-115378371D01*
X121883014Y-119206942D02*
X122025871Y-119278371D01*
X122311585Y-119278371D01*
X122454442Y-119206942D01*
X122525871Y-119064085D01*
X122525871Y-118992657D01*
X122454442Y-118849800D01*
X122311585Y-118778371D01*
X122097300Y-118778371D01*
X121954442Y-118706942D01*
X121883014Y-118564085D01*
X121883014Y-118492657D01*
X121954442Y-118349800D01*
X122097300Y-118278371D01*
X122311585Y-118278371D01*
X122454442Y-118349800D01*
X123811585Y-119206942D02*
X123668728Y-119278371D01*
X123383014Y-119278371D01*
X123240157Y-119206942D01*
X123168728Y-119135514D01*
X123097300Y-118992657D01*
X123097300Y-118564085D01*
X123168728Y-118421228D01*
X123240157Y-118349800D01*
X123383014Y-118278371D01*
X123668728Y-118278371D01*
X123811585Y-118349800D01*
X124454442Y-119278371D02*
X124454442Y-117778371D01*
X125097300Y-119278371D02*
X125097300Y-118492657D01*
X125025871Y-118349800D01*
X124883014Y-118278371D01*
X124668728Y-118278371D01*
X124525871Y-118349800D01*
X124454442Y-118421228D01*
X126454442Y-119278371D02*
X126454442Y-118492657D01*
X126383014Y-118349800D01*
X126240157Y-118278371D01*
X125954442Y-118278371D01*
X125811585Y-118349800D01*
X126454442Y-119206942D02*
X126311585Y-119278371D01*
X125954442Y-119278371D01*
X125811585Y-119206942D01*
X125740157Y-119064085D01*
X125740157Y-118921228D01*
X125811585Y-118778371D01*
X125954442Y-118706942D01*
X126311585Y-118706942D01*
X126454442Y-118635514D01*
X127168728Y-119278371D02*
X127168728Y-118278371D01*
X127168728Y-118564085D02*
X127240157Y-118421228D01*
X127311585Y-118349800D01*
X127454442Y-118278371D01*
X127597300Y-118278371D01*
X128740157Y-119278371D02*
X128740157Y-117778371D01*
X128740157Y-119206942D02*
X128597300Y-119278371D01*
X128311585Y-119278371D01*
X128168728Y-119206942D01*
X128097300Y-119135514D01*
X128025871Y-118992657D01*
X128025871Y-118564085D01*
X128097300Y-118421228D01*
X128168728Y-118349800D01*
X128311585Y-118278371D01*
X128597300Y-118278371D01*
X128740157Y-118349800D01*
X129240157Y-118278371D02*
X129811585Y-118278371D01*
X129454442Y-117778371D02*
X129454442Y-119064085D01*
X129525871Y-119206942D01*
X129668728Y-119278371D01*
X129811585Y-119278371D01*
X131240157Y-118564085D02*
X131168728Y-118492657D01*
X131025871Y-118421228D01*
X130883014Y-118421228D01*
X130740157Y-118492657D01*
X130668728Y-118564085D01*
X130597300Y-118706942D01*
X130597300Y-118849800D01*
X130668728Y-118992657D01*
X130740157Y-119064085D01*
X130883014Y-119135514D01*
X131025871Y-119135514D01*
X131168728Y-119064085D01*
X131240157Y-118992657D01*
X131240157Y-118421228D02*
X131240157Y-118992657D01*
X131311585Y-119064085D01*
X131383014Y-119064085D01*
X131525871Y-118992657D01*
X131597300Y-118849800D01*
X131597300Y-118492657D01*
X131454442Y-118278371D01*
X131240157Y-118135514D01*
X130954442Y-118064085D01*
X130668728Y-118135514D01*
X130454442Y-118278371D01*
X130311585Y-118492657D01*
X130240157Y-118778371D01*
X130311585Y-119064085D01*
X130454442Y-119278371D01*
X130668728Y-119421228D01*
X130954442Y-119492657D01*
X131240157Y-119421228D01*
X131454442Y-119278371D01*
X132025871Y-118278371D02*
X132597300Y-118278371D01*
X132240157Y-117778371D02*
X132240157Y-119064085D01*
X132311585Y-119206942D01*
X132454442Y-119278371D01*
X132597300Y-119278371D01*
X133668728Y-119206942D02*
X133525871Y-119278371D01*
X133240157Y-119278371D01*
X133097300Y-119206942D01*
X133025871Y-119064085D01*
X133025871Y-118492657D01*
X133097300Y-118349800D01*
X133240157Y-118278371D01*
X133525871Y-118278371D01*
X133668728Y-118349800D01*
X133740157Y-118492657D01*
X133740157Y-118635514D01*
X133025871Y-118778371D01*
X135025871Y-119278371D02*
X135025871Y-118492657D01*
X134954442Y-118349800D01*
X134811585Y-118278371D01*
X134525871Y-118278371D01*
X134383014Y-118349800D01*
X135025871Y-119206942D02*
X134883014Y-119278371D01*
X134525871Y-119278371D01*
X134383014Y-119206942D01*
X134311585Y-119064085D01*
X134311585Y-118921228D01*
X134383014Y-118778371D01*
X134525871Y-118706942D01*
X134883014Y-118706942D01*
X135025871Y-118635514D01*
X135740157Y-119278371D02*
X135740157Y-118278371D01*
X135740157Y-118421228D02*
X135811585Y-118349800D01*
X135954442Y-118278371D01*
X136168728Y-118278371D01*
X136311585Y-118349800D01*
X136383014Y-118492657D01*
X136383014Y-119278371D01*
X136383014Y-118492657D02*
X136454442Y-118349800D01*
X136597300Y-118278371D01*
X136811585Y-118278371D01*
X136954442Y-118349800D01*
X137025871Y-118492657D01*
X137025871Y-119278371D01*
X137740157Y-118706942D02*
X138883014Y-118706942D01*
X140240157Y-119206942D02*
X140097300Y-119278371D01*
X139811585Y-119278371D01*
X139668728Y-119206942D01*
X139597300Y-119135514D01*
X139525871Y-118992657D01*
X139525871Y-118564085D01*
X139597300Y-118421228D01*
X139668728Y-118349800D01*
X139811585Y-118278371D01*
X140097300Y-118278371D01*
X140240157Y-118349800D01*
X140668728Y-118278371D02*
X141240157Y-118278371D01*
X140883014Y-117778371D02*
X140883014Y-119064085D01*
X140954442Y-119206942D01*
X141097300Y-119278371D01*
X141240157Y-119278371D01*
X142311585Y-119206942D02*
X142168728Y-119278371D01*
X141883014Y-119278371D01*
X141740157Y-119206942D01*
X141668728Y-119064085D01*
X141668728Y-118492657D01*
X141740157Y-118349800D01*
X141883014Y-118278371D01*
X142168728Y-118278371D01*
X142311585Y-118349800D01*
X142383014Y-118492657D01*
X142383014Y-118635514D01*
X141668728Y-118778371D01*
X143668728Y-119206942D02*
X143525871Y-119278371D01*
X143240157Y-119278371D01*
X143097300Y-119206942D01*
X143025871Y-119135514D01*
X142954442Y-118992657D01*
X142954442Y-118564085D01*
X143025871Y-118421228D01*
X143097300Y-118349800D01*
X143240157Y-118278371D01*
X143525871Y-118278371D01*
X143668728Y-118349800D01*
X144311585Y-119278371D02*
X144311585Y-117778371D01*
X144954442Y-119278371D02*
X144954442Y-118492657D01*
X144883014Y-118349800D01*
X144740157Y-118278371D01*
X144525871Y-118278371D01*
X144383014Y-118349800D01*
X144311585Y-118421228D01*
X145668728Y-119135514D02*
X145740157Y-119206942D01*
X145668728Y-119278371D01*
X145597300Y-119206942D01*
X145668728Y-119135514D01*
X145668728Y-119278371D01*
X147025871Y-119278371D02*
X147025871Y-117778371D01*
X147025871Y-119206942D02*
X146883014Y-119278371D01*
X146597300Y-119278371D01*
X146454442Y-119206942D01*
X146383014Y-119135514D01*
X146311585Y-118992657D01*
X146311585Y-118564085D01*
X146383014Y-118421228D01*
X146454442Y-118349800D01*
X146597300Y-118278371D01*
X146883014Y-118278371D01*
X147025871Y-118349800D01*
X148311585Y-119206942D02*
X148168728Y-119278371D01*
X147883014Y-119278371D01*
X147740157Y-119206942D01*
X147668728Y-119064085D01*
X147668728Y-118492657D01*
X147740157Y-118349800D01*
X147883014Y-118278371D01*
X148168728Y-118278371D01*
X148311585Y-118349800D01*
X148383014Y-118492657D01*
X148383014Y-118635514D01*
X147668728Y-118778371D01*
D12*
X124500000Y-100000000D02*
G75*
G03X124500000Y-100000000I-24500000J0D01*
G01*
X129463800Y-53009800D02*
X129590800Y-53136800D01*
D10*
X63156942Y-130878371D02*
X63156942Y-132092657D01*
X63228371Y-132235514D01*
X63299800Y-132306942D01*
X63442657Y-132378371D01*
X63728371Y-132378371D01*
X63871228Y-132306942D01*
X63942657Y-132235514D01*
X64014085Y-132092657D01*
X64014085Y-130878371D01*
X64656942Y-132306942D02*
X64871228Y-132378371D01*
X65228371Y-132378371D01*
X65371228Y-132306942D01*
X65442657Y-132235514D01*
X65514085Y-132092657D01*
X65514085Y-131949800D01*
X65442657Y-131806942D01*
X65371228Y-131735514D01*
X65228371Y-131664085D01*
X64942657Y-131592657D01*
X64799800Y-131521228D01*
X64728371Y-131449800D01*
X64656942Y-131306942D01*
X64656942Y-131164085D01*
X64728371Y-131021228D01*
X64799800Y-130949800D01*
X64942657Y-130878371D01*
X65299800Y-130878371D01*
X65514085Y-130949800D01*
X66656942Y-131592657D02*
X66871228Y-131664085D01*
X66942657Y-131735514D01*
X67014085Y-131878371D01*
X67014085Y-132092657D01*
X66942657Y-132235514D01*
X66871228Y-132306942D01*
X66728371Y-132378371D01*
X66156942Y-132378371D01*
X66156942Y-130878371D01*
X66656942Y-130878371D01*
X66799800Y-130949800D01*
X66871228Y-131021228D01*
X66942657Y-131164085D01*
X66942657Y-131306942D01*
X66871228Y-131449800D01*
X66799800Y-131521228D01*
X66656942Y-131592657D01*
X66156942Y-131592657D01*
X73434085Y-113386942D02*
X73648371Y-113458371D01*
X74005514Y-113458371D01*
X74148371Y-113386942D01*
X74219800Y-113315514D01*
X74291228Y-113172657D01*
X74291228Y-113029800D01*
X74219800Y-112886942D01*
X74148371Y-112815514D01*
X74005514Y-112744085D01*
X73719800Y-112672657D01*
X73576942Y-112601228D01*
X73505514Y-112529800D01*
X73434085Y-112386942D01*
X73434085Y-112244085D01*
X73505514Y-112101228D01*
X73576942Y-112029800D01*
X73719800Y-111958371D01*
X74076942Y-111958371D01*
X74291228Y-112029800D01*
X74791228Y-111958371D02*
X75148371Y-113458371D01*
X75434085Y-112386942D01*
X75719800Y-113458371D01*
X76076942Y-111958371D01*
X76648371Y-113458371D02*
X76648371Y-111958371D01*
X77005514Y-111958371D01*
X77219800Y-112029800D01*
X77362657Y-112172657D01*
X77434085Y-112315514D01*
X77505514Y-112601228D01*
X77505514Y-112815514D01*
X77434085Y-113101228D01*
X77362657Y-113244085D01*
X77219800Y-113386942D01*
X77005514Y-113458371D01*
X76648371Y-113458371D01*
X106544085Y-152886942D02*
X106758371Y-152958371D01*
X107115514Y-152958371D01*
X107258371Y-152886942D01*
X107329800Y-152815514D01*
X107401228Y-152672657D01*
X107401228Y-152529800D01*
X107329800Y-152386942D01*
X107258371Y-152315514D01*
X107115514Y-152244085D01*
X106829800Y-152172657D01*
X106686942Y-152101228D01*
X106615514Y-152029800D01*
X106544085Y-151886942D01*
X106544085Y-151744085D01*
X106615514Y-151601228D01*
X106686942Y-151529800D01*
X106829800Y-151458371D01*
X107186942Y-151458371D01*
X107401228Y-151529800D01*
X108615514Y-152886942D02*
X108472657Y-152958371D01*
X108186942Y-152958371D01*
X108044085Y-152886942D01*
X107972657Y-152744085D01*
X107972657Y-152172657D01*
X108044085Y-152029800D01*
X108186942Y-151958371D01*
X108472657Y-151958371D01*
X108615514Y-152029800D01*
X108686942Y-152172657D01*
X108686942Y-152315514D01*
X107972657Y-152458371D01*
X109329800Y-152958371D02*
X109329800Y-151958371D01*
X109329800Y-152244085D02*
X109401228Y-152101228D01*
X109472657Y-152029800D01*
X109615514Y-151958371D01*
X109758371Y-151958371D01*
X110115514Y-151958371D02*
X110472657Y-152958371D01*
X110829800Y-151958371D01*
X111615514Y-152958371D02*
X111472657Y-152886942D01*
X111401228Y-152815514D01*
X111329800Y-152672657D01*
X111329800Y-152244085D01*
X111401228Y-152101228D01*
X111472657Y-152029800D01*
X111615514Y-151958371D01*
X111829800Y-151958371D01*
X111972657Y-152029800D01*
X112044085Y-152101228D01*
X112115514Y-152244085D01*
X112115514Y-152672657D01*
X112044085Y-152815514D01*
X111972657Y-152886942D01*
X111829800Y-152958371D01*
X111615514Y-152958371D01*
X90585514Y-147375514D02*
X90514085Y-147446942D01*
X90299800Y-147518371D01*
X90156942Y-147518371D01*
X89942657Y-147446942D01*
X89799800Y-147304085D01*
X89728371Y-147161228D01*
X89656942Y-146875514D01*
X89656942Y-146661228D01*
X89728371Y-146375514D01*
X89799800Y-146232657D01*
X89942657Y-146089800D01*
X90156942Y-146018371D01*
X90299800Y-146018371D01*
X90514085Y-146089800D01*
X90585514Y-146161228D01*
X91442657Y-147518371D02*
X91299800Y-147446942D01*
X91228371Y-147375514D01*
X91156942Y-147232657D01*
X91156942Y-146804085D01*
X91228371Y-146661228D01*
X91299800Y-146589800D01*
X91442657Y-146518371D01*
X91656942Y-146518371D01*
X91799800Y-146589800D01*
X91871228Y-146661228D01*
X91942657Y-146804085D01*
X91942657Y-147232657D01*
X91871228Y-147375514D01*
X91799800Y-147446942D01*
X91656942Y-147518371D01*
X91442657Y-147518371D01*
X92585514Y-147518371D02*
X92585514Y-146518371D01*
X92585514Y-146661228D02*
X92656942Y-146589800D01*
X92799800Y-146518371D01*
X93014085Y-146518371D01*
X93156942Y-146589800D01*
X93228371Y-146732657D01*
X93228371Y-147518371D01*
X93228371Y-146732657D02*
X93299800Y-146589800D01*
X93442657Y-146518371D01*
X93656942Y-146518371D01*
X93799800Y-146589800D01*
X93871228Y-146732657D01*
X93871228Y-147518371D01*
X94585514Y-147518371D02*
X94585514Y-146518371D01*
X94585514Y-146661228D02*
X94656942Y-146589800D01*
X94799800Y-146518371D01*
X95014085Y-146518371D01*
X95156942Y-146589800D01*
X95228371Y-146732657D01*
X95228371Y-147518371D01*
X95228371Y-146732657D02*
X95299800Y-146589800D01*
X95442657Y-146518371D01*
X95656942Y-146518371D01*
X95799800Y-146589800D01*
X95871228Y-146732657D01*
X95871228Y-147518371D01*
X76721228Y-139528371D02*
X76721228Y-138028371D01*
X76721228Y-138742657D02*
X77578371Y-138742657D01*
X77578371Y-139528371D02*
X77578371Y-138028371D01*
X78935514Y-139528371D02*
X78935514Y-138742657D01*
X78864085Y-138599800D01*
X78721228Y-138528371D01*
X78435514Y-138528371D01*
X78292657Y-138599800D01*
X78935514Y-139456942D02*
X78792657Y-139528371D01*
X78435514Y-139528371D01*
X78292657Y-139456942D01*
X78221228Y-139314085D01*
X78221228Y-139171228D01*
X78292657Y-139028371D01*
X78435514Y-138956942D01*
X78792657Y-138956942D01*
X78935514Y-138885514D01*
X79864085Y-139528371D02*
X79721228Y-139456942D01*
X79649800Y-139314085D01*
X79649800Y-138028371D01*
X80649800Y-139528371D02*
X80506942Y-139456942D01*
X80435514Y-139314085D01*
X80435514Y-138028371D01*
X82292657Y-137956942D02*
X81006942Y-139885514D01*
X82792657Y-138742657D02*
X83292657Y-138742657D01*
X83506942Y-139528371D02*
X82792657Y-139528371D01*
X82792657Y-138028371D01*
X83506942Y-138028371D01*
X84149800Y-138528371D02*
X84149800Y-139528371D01*
X84149800Y-138671228D02*
X84221228Y-138599800D01*
X84364085Y-138528371D01*
X84578371Y-138528371D01*
X84721228Y-138599800D01*
X84792657Y-138742657D01*
X84792657Y-139528371D01*
X86149800Y-139456942D02*
X86006942Y-139528371D01*
X85721228Y-139528371D01*
X85578371Y-139456942D01*
X85506942Y-139385514D01*
X85435514Y-139242657D01*
X85435514Y-138814085D01*
X85506942Y-138671228D01*
X85578371Y-138599800D01*
X85721228Y-138528371D01*
X86006942Y-138528371D01*
X86149800Y-138599800D01*
X68978371Y-130528371D02*
X69835514Y-130528371D01*
X69406942Y-132028371D02*
X69406942Y-130528371D01*
X70335514Y-132028371D02*
X70335514Y-131028371D01*
X70335514Y-131314085D02*
X70406942Y-131171228D01*
X70478371Y-131099800D01*
X70621228Y-131028371D01*
X70764085Y-131028371D01*
X71264085Y-132028371D02*
X71264085Y-131028371D01*
X71264085Y-130528371D02*
X71192657Y-130599800D01*
X71264085Y-130671228D01*
X71335514Y-130599800D01*
X71264085Y-130528371D01*
X71264085Y-130671228D01*
X72621228Y-131028371D02*
X72621228Y-132242657D01*
X72549800Y-132385514D01*
X72478371Y-132456942D01*
X72335514Y-132528371D01*
X72121228Y-132528371D01*
X71978371Y-132456942D01*
X72621228Y-131956942D02*
X72478371Y-132028371D01*
X72192657Y-132028371D01*
X72049800Y-131956942D01*
X71978371Y-131885514D01*
X71906942Y-131742657D01*
X71906942Y-131314085D01*
X71978371Y-131171228D01*
X72049800Y-131099800D01*
X72192657Y-131028371D01*
X72478371Y-131028371D01*
X72621228Y-131099800D01*
X74406942Y-130456942D02*
X73121228Y-132385514D01*
X74835514Y-131956942D02*
X75049800Y-132028371D01*
X75406942Y-132028371D01*
X75549800Y-131956942D01*
X75621228Y-131885514D01*
X75692657Y-131742657D01*
X75692657Y-131599800D01*
X75621228Y-131456942D01*
X75549800Y-131385514D01*
X75406942Y-131314085D01*
X75121228Y-131242657D01*
X74978371Y-131171228D01*
X74906942Y-131099800D01*
X74835514Y-130956942D01*
X74835514Y-130814085D01*
X74906942Y-130671228D01*
X74978371Y-130599800D01*
X75121228Y-130528371D01*
X75478371Y-130528371D01*
X75692657Y-130599800D01*
X76335514Y-131028371D02*
X76335514Y-132528371D01*
X76335514Y-131099800D02*
X76478371Y-131028371D01*
X76764085Y-131028371D01*
X76906942Y-131099800D01*
X76978371Y-131171228D01*
X77049800Y-131314085D01*
X77049800Y-131742657D01*
X76978371Y-131885514D01*
X76906942Y-131956942D01*
X76764085Y-132028371D01*
X76478371Y-132028371D01*
X76335514Y-131956942D01*
X78264085Y-131956942D02*
X78121228Y-132028371D01*
X77835514Y-132028371D01*
X77692657Y-131956942D01*
X77621228Y-131814085D01*
X77621228Y-131242657D01*
X77692657Y-131099800D01*
X77835514Y-131028371D01*
X78121228Y-131028371D01*
X78264085Y-131099800D01*
X78335514Y-131242657D01*
X78335514Y-131385514D01*
X77621228Y-131528371D01*
X79549800Y-131956942D02*
X79406942Y-132028371D01*
X79121228Y-132028371D01*
X78978371Y-131956942D01*
X78906942Y-131814085D01*
X78906942Y-131242657D01*
X78978371Y-131099800D01*
X79121228Y-131028371D01*
X79406942Y-131028371D01*
X79549800Y-131099800D01*
X79621228Y-131242657D01*
X79621228Y-131385514D01*
X78906942Y-131528371D01*
X80906942Y-132028371D02*
X80906942Y-130528371D01*
X80906942Y-131956942D02*
X80764085Y-132028371D01*
X80478371Y-132028371D01*
X80335514Y-131956942D01*
X80264085Y-131885514D01*
X80192657Y-131742657D01*
X80192657Y-131314085D01*
X80264085Y-131171228D01*
X80335514Y-131099800D01*
X80478371Y-131028371D01*
X80764085Y-131028371D01*
X80906942Y-131099800D01*
X122835514Y-113099800D02*
X122692657Y-113028371D01*
X122478371Y-113028371D01*
X122264085Y-113099800D01*
X122121228Y-113242657D01*
X122049800Y-113385514D01*
X121978371Y-113671228D01*
X121978371Y-113885514D01*
X122049800Y-114171228D01*
X122121228Y-114314085D01*
X122264085Y-114456942D01*
X122478371Y-114528371D01*
X122621228Y-114528371D01*
X122835514Y-114456942D01*
X122906942Y-114385514D01*
X122906942Y-113885514D01*
X122621228Y-113885514D01*
X123478371Y-114456942D02*
X123692657Y-114528371D01*
X124049800Y-114528371D01*
X124192657Y-114456942D01*
X124264085Y-114385514D01*
X124335514Y-114242657D01*
X124335514Y-114099800D01*
X124264085Y-113956942D01*
X124192657Y-113885514D01*
X124049800Y-113814085D01*
X123764085Y-113742657D01*
X123621228Y-113671228D01*
X123549800Y-113599800D01*
X123478371Y-113456942D01*
X123478371Y-113314085D01*
X123549800Y-113171228D01*
X123621228Y-113099800D01*
X123764085Y-113028371D01*
X124121228Y-113028371D01*
X124335514Y-113099800D01*
X124764085Y-113028371D02*
X125264085Y-114528371D01*
X125764085Y-113028371D01*
X126264085Y-113742657D02*
X126764085Y-113742657D01*
X126978371Y-114528371D02*
X126264085Y-114528371D01*
X126264085Y-113028371D01*
X126978371Y-113028371D01*
X127549800Y-114456942D02*
X127764085Y-114528371D01*
X128121228Y-114528371D01*
X128264085Y-114456942D01*
X128335514Y-114385514D01*
X128406942Y-114242657D01*
X128406942Y-114099800D01*
X128335514Y-113956942D01*
X128264085Y-113885514D01*
X128121228Y-113814085D01*
X127835514Y-113742657D01*
X127692657Y-113671228D01*
X127621228Y-113599800D01*
X127549800Y-113456942D01*
X127549800Y-113314085D01*
X127621228Y-113171228D01*
X127692657Y-113099800D01*
X127835514Y-113028371D01*
X128192657Y-113028371D01*
X128406942Y-113099800D01*
X129906942Y-114385514D02*
X129835514Y-114456942D01*
X129621228Y-114528371D01*
X129478371Y-114528371D01*
X129264085Y-114456942D01*
X129121228Y-114314085D01*
X129049800Y-114171228D01*
X128978371Y-113885514D01*
X128978371Y-113671228D01*
X129049800Y-113385514D01*
X129121228Y-113242657D01*
X129264085Y-113099800D01*
X129478371Y-113028371D01*
X129621228Y-113028371D01*
X129835514Y-113099800D01*
X129906942Y-113171228D01*
X132406942Y-113028371D02*
X131692657Y-113028371D01*
X131621228Y-113742657D01*
X131692657Y-113671228D01*
X131835514Y-113599800D01*
X132192657Y-113599800D01*
X132335514Y-113671228D01*
X132406942Y-113742657D01*
X132478371Y-113885514D01*
X132478371Y-114242657D01*
X132406942Y-114385514D01*
X132335514Y-114456942D01*
X132192657Y-114528371D01*
X131835514Y-114528371D01*
X131692657Y-114456942D01*
X131621228Y-114385514D01*
X133121228Y-114385514D02*
X133192657Y-114456942D01*
X133121228Y-114528371D01*
X133049800Y-114456942D01*
X133121228Y-114385514D01*
X133121228Y-114528371D01*
X134121228Y-113028371D02*
X134264085Y-113028371D01*
X134406942Y-113099800D01*
X134478371Y-113171228D01*
X134549800Y-113314085D01*
X134621228Y-113599800D01*
X134621228Y-113956942D01*
X134549800Y-114242657D01*
X134478371Y-114385514D01*
X134406942Y-114456942D01*
X134264085Y-114528371D01*
X134121228Y-114528371D01*
X133978371Y-114456942D01*
X133906942Y-114385514D01*
X133835514Y-114242657D01*
X133764085Y-113956942D01*
X133764085Y-113599800D01*
X133835514Y-113314085D01*
X133906942Y-113171228D01*
X133978371Y-113099800D01*
X134121228Y-113028371D01*
D13*
X123651864Y-61339800D02*
X119547736Y-61339800D01*
X123651864Y-64759800D02*
X119547736Y-64759800D01*
X73809800Y-134453722D02*
X73809800Y-134970878D01*
X72389800Y-134453722D02*
X72389800Y-134970878D01*
D14*
X65303400Y-100368100D02*
X65303400Y-98615500D01*
X64011061Y-98615500D02*
X63344539Y-98615500D01*
X62052200Y-98615500D02*
X62052200Y-100368100D01*
D13*
X149509800Y-117529800D02*
X149509800Y-114869800D01*
X144369800Y-117529800D02*
X149509800Y-117529800D01*
X144369800Y-114869800D02*
X149509800Y-114869800D01*
X144369800Y-117529800D02*
X144369800Y-114869800D01*
X143099800Y-117529800D02*
X141769800Y-117529800D01*
X141769800Y-117529800D02*
X141769800Y-116199800D01*
X150884800Y-87474800D02*
X149634800Y-87474800D01*
X150259800Y-86849800D02*
X150259800Y-88099800D01*
X143204237Y-88339800D02*
X142139800Y-89404237D01*
X151795363Y-88339800D02*
X152859800Y-89404237D01*
X151795363Y-88339800D02*
X149009800Y-88339800D01*
X143204237Y-88339800D02*
X145989800Y-88339800D01*
X142139800Y-89404237D02*
X142139800Y-99059800D01*
X152859800Y-89404237D02*
X152859800Y-99059800D01*
X152859800Y-99059800D02*
X149009800Y-99059800D01*
X142139800Y-99059800D02*
X145989800Y-99059800D01*
X128739800Y-99059800D02*
X132589800Y-99059800D01*
X139459800Y-99059800D02*
X135609800Y-99059800D01*
X139459800Y-89404237D02*
X139459800Y-99059800D01*
X128739800Y-89404237D02*
X128739800Y-99059800D01*
X129804237Y-88339800D02*
X132589800Y-88339800D01*
X138395363Y-88339800D02*
X135609800Y-88339800D01*
X138395363Y-88339800D02*
X139459800Y-89404237D01*
X129804237Y-88339800D02*
X128739800Y-89404237D01*
X136859800Y-86849800D02*
X136859800Y-88099800D01*
X137484800Y-87474800D02*
X136234800Y-87474800D01*
X125514800Y-86524800D02*
X126764800Y-86524800D01*
X126139800Y-87149800D02*
X126139800Y-85899800D01*
X133195363Y-85659800D02*
X134259800Y-84595363D01*
X124604237Y-85659800D02*
X123539800Y-84595363D01*
X124604237Y-85659800D02*
X127389800Y-85659800D01*
X133195363Y-85659800D02*
X130409800Y-85659800D01*
X134259800Y-84595363D02*
X134259800Y-74939800D01*
X123539800Y-84595363D02*
X123539800Y-74939800D01*
X123539800Y-74939800D02*
X127389800Y-74939800D01*
X134259800Y-74939800D02*
X130409800Y-74939800D01*
X147159800Y-75039800D02*
X143309800Y-75039800D01*
X136439800Y-75039800D02*
X140289800Y-75039800D01*
X136439800Y-84695363D02*
X136439800Y-75039800D01*
X147159800Y-84695363D02*
X147159800Y-75039800D01*
X146095363Y-85759800D02*
X143309800Y-85759800D01*
X137504237Y-85759800D02*
X140289800Y-85759800D01*
X137504237Y-85759800D02*
X136439800Y-84695363D01*
X146095363Y-85759800D02*
X147159800Y-84695363D01*
X139039800Y-87249800D02*
X139039800Y-85999800D01*
X138414800Y-86624800D02*
X139664800Y-86624800D01*
X125358378Y-130509800D02*
X124841222Y-130509800D01*
X125358378Y-129089800D02*
X124841222Y-129089800D01*
D11*
X134099800Y-130999800D02*
G75*
G03X134099800Y-130999800I-100000J0D01*
G01*
D15*
X133299800Y-131499800D02*
X128199800Y-131499800D01*
X133299800Y-120199800D02*
X133299800Y-131499800D01*
X128199800Y-120199800D02*
X133299800Y-120199800D01*
X128199800Y-131499800D02*
X128199800Y-120199800D01*
D13*
X135189800Y-126595878D02*
X135189800Y-126078722D01*
X136609800Y-126595878D02*
X136609800Y-126078722D01*
X124037300Y-127759800D02*
X126722300Y-127759800D01*
X126722300Y-127759800D02*
X126722300Y-125839800D01*
X126722300Y-125839800D02*
X124037300Y-125839800D01*
X123849800Y-140499800D02*
X123849800Y-140849800D01*
X128549800Y-140499800D02*
X123849800Y-140499800D01*
X128549800Y-140849800D02*
X128549800Y-140499800D01*
X128549800Y-144749800D02*
X129799800Y-144749800D01*
X123849800Y-145099800D02*
X123849800Y-144749800D01*
X128549800Y-145099800D02*
X123849800Y-145099800D01*
X128549800Y-144749800D02*
X128549800Y-145099800D01*
X128549800Y-142179800D02*
X128549800Y-143419800D01*
X123849800Y-142179800D02*
X123849800Y-143419800D01*
X139537325Y-136587953D02*
X135099632Y-140445580D01*
X132169718Y-138858475D02*
X132962163Y-138169613D01*
X132924186Y-139726391D02*
X132169718Y-138858475D01*
X137580986Y-134154532D02*
X136931487Y-133407369D01*
X138373431Y-133465670D02*
X137580986Y-134154532D01*
X139127899Y-134333586D02*
X138373431Y-133465670D01*
X83180668Y-119235155D02*
X84510029Y-120564516D01*
X83131171Y-123598004D02*
X82388709Y-122855542D01*
X83944344Y-122784831D02*
X83131171Y-123598004D01*
X80889642Y-121356475D02*
X80189607Y-122056511D01*
X80147180Y-120614013D02*
X80889642Y-121356475D01*
X80960353Y-119800840D02*
X80147180Y-120614013D01*
X71759800Y-134441222D02*
X71759800Y-134958378D01*
X70339800Y-134441222D02*
X70339800Y-134958378D01*
D14*
X75204300Y-93874800D02*
G75*
G03X75204300Y-93874800I-76200J0D01*
G01*
X68575700Y-94525400D02*
X73223900Y-94525400D01*
X73223900Y-91274200D02*
X68575700Y-91274200D01*
X63023900Y-91274200D02*
X58375700Y-91274200D01*
X58375700Y-94525400D02*
X63023900Y-94525400D01*
X65004300Y-93874800D02*
G75*
G03X65004300Y-93874800I-76200J0D01*
G01*
X54904300Y-93874800D02*
G75*
G03X54904300Y-93874800I-76200J0D01*
G01*
X48275700Y-94525400D02*
X52923900Y-94525400D01*
X52923900Y-91274200D02*
X48275700Y-91274200D01*
D13*
X46889800Y-88503722D02*
X46889800Y-89020878D01*
X48309800Y-88503722D02*
X48309800Y-89020878D01*
X57959800Y-88603722D02*
X57959800Y-89120878D01*
X56539800Y-88603722D02*
X56539800Y-89120878D01*
X67389800Y-88603722D02*
X67389800Y-89120878D01*
X68809800Y-88603722D02*
X68809800Y-89120878D01*
X48078722Y-96709800D02*
X48595878Y-96709800D01*
X48078722Y-95289800D02*
X48595878Y-95289800D01*
X68478722Y-96809800D02*
X68995878Y-96809800D01*
X68478722Y-95389800D02*
X68995878Y-95389800D01*
X93389800Y-62147736D02*
X93389800Y-63351864D01*
X96109800Y-62147736D02*
X96109800Y-63351864D01*
X110039800Y-62497736D02*
X110039800Y-63701864D01*
X112759800Y-62497736D02*
X112759800Y-63701864D01*
X68439800Y-62397736D02*
X68439800Y-63601864D01*
X71159800Y-62397736D02*
X71159800Y-63601864D01*
X113589800Y-62497736D02*
X113589800Y-63701864D01*
X116309800Y-62497736D02*
X116309800Y-63701864D01*
X89989800Y-62147736D02*
X89989800Y-63351864D01*
X92709800Y-62147736D02*
X92709800Y-63351864D01*
X81799800Y-78724800D02*
X80999800Y-78724800D01*
X79099800Y-76324800D02*
X80199800Y-76324800D01*
X79099800Y-77474800D02*
X79099800Y-76324800D01*
X82099800Y-76324800D02*
X80999800Y-76324800D01*
X82099800Y-77474800D02*
X82099800Y-76324800D01*
X75779800Y-78039800D02*
X75779800Y-79499800D01*
X72619800Y-78039800D02*
X72619800Y-80199800D01*
X72619800Y-78039800D02*
X73549800Y-78039800D01*
X75779800Y-78039800D02*
X74849800Y-78039800D01*
D12*
X70549800Y-66699800D02*
G75*
G03X70549800Y-66699800I-100000J0D01*
G01*
D15*
X71949800Y-66049800D02*
X76949800Y-66049800D01*
X71949800Y-71149800D02*
X76949800Y-71149800D01*
D13*
X71839800Y-62397736D02*
X71839800Y-63601864D01*
X74559800Y-62397736D02*
X74559800Y-63601864D01*
X71109800Y-89020878D02*
X71109800Y-88503722D01*
X69689800Y-89020878D02*
X69689800Y-88503722D01*
X80378722Y-80909800D02*
X80895878Y-80909800D01*
X80378722Y-79489800D02*
X80895878Y-79489800D01*
X117495878Y-52789800D02*
X116978722Y-52789800D01*
X117495878Y-54209800D02*
X116978722Y-54209800D01*
X109689800Y-71341222D02*
X109689800Y-71858378D01*
X111109800Y-71341222D02*
X111109800Y-71858378D01*
X76758378Y-52389800D02*
X76241222Y-52389800D01*
X76758378Y-53809800D02*
X76241222Y-53809800D01*
X50609800Y-89020878D02*
X50609800Y-88503722D01*
X49189800Y-89020878D02*
X49189800Y-88503722D01*
X58689800Y-89095878D02*
X58689800Y-88578722D01*
X60109800Y-89095878D02*
X60109800Y-88578722D01*
X68689800Y-71141222D02*
X68689800Y-71658378D01*
X70109800Y-71141222D02*
X70109800Y-71658378D01*
D14*
X52523500Y-90425400D02*
X54276100Y-90425400D01*
X54276100Y-89133061D02*
X54276100Y-88466539D01*
X54276100Y-87174200D02*
X52523500Y-87174200D01*
X63869900Y-87174200D02*
X62117300Y-87174200D01*
X63869900Y-89133061D02*
X63869900Y-88466539D01*
X62117300Y-90425400D02*
X63869900Y-90425400D01*
X72923500Y-90525400D02*
X74676100Y-90525400D01*
X74676100Y-89233061D02*
X74676100Y-88566539D01*
X74676100Y-87274200D02*
X72923500Y-87274200D01*
D13*
X127293800Y-54705800D02*
X127293800Y-60293800D01*
X121705800Y-54705800D02*
X127293800Y-54705800D01*
X121705800Y-60293800D02*
X121705800Y-54705800D01*
X127293800Y-60293800D02*
X121705800Y-60293800D01*
X101005800Y-60043800D02*
X101005800Y-54455800D01*
X106593800Y-60043800D02*
X101005800Y-60043800D01*
X106593800Y-54455800D02*
X106593800Y-60043800D01*
X101005800Y-54455800D02*
X106593800Y-54455800D01*
X149493800Y-107593800D02*
X143905800Y-107593800D01*
X143905800Y-107593800D02*
X143905800Y-102005800D01*
X143905800Y-102005800D02*
X149493800Y-102005800D01*
X149493800Y-102005800D02*
X149493800Y-107593800D01*
X131305800Y-102205800D02*
X136893800Y-102205800D01*
X131305800Y-107793800D02*
X131305800Y-102205800D01*
X136893800Y-107793800D02*
X131305800Y-107793800D01*
X136893800Y-102205800D02*
X136893800Y-107793800D01*
X58178722Y-95289800D02*
X58695878Y-95289800D01*
X58178722Y-96709800D02*
X58695878Y-96709800D01*
X89189800Y-71141222D02*
X89189800Y-71658378D01*
X90609800Y-71141222D02*
X90609800Y-71658378D01*
X96895878Y-52489800D02*
X96378722Y-52489800D01*
X96895878Y-53909800D02*
X96378722Y-53909800D01*
X82651864Y-61189800D02*
X78547736Y-61189800D01*
X82651864Y-64609800D02*
X78547736Y-64609800D01*
X103251864Y-64609800D02*
X99147736Y-64609800D01*
X103251864Y-61189800D02*
X99147736Y-61189800D01*
X80505800Y-54355800D02*
X86093800Y-54355800D01*
X80505800Y-59943800D02*
X80505800Y-54355800D01*
X86093800Y-59943800D02*
X80505800Y-59943800D01*
X86093800Y-54355800D02*
X86093800Y-59943800D01*
X62409800Y-79158378D02*
X62409800Y-78641222D01*
X60989800Y-79158378D02*
X60989800Y-78641222D01*
X67389800Y-78641222D02*
X67389800Y-79158378D01*
X68809800Y-78641222D02*
X68809800Y-79158378D01*
X71909800Y-79120878D02*
X71909800Y-78603722D01*
X70489800Y-79120878D02*
X70489800Y-78603722D01*
D10*
X71524800Y-81224800D02*
X70124800Y-81224800D01*
X71524800Y-86324800D02*
X75674800Y-86324800D01*
X71524800Y-81174800D02*
X75674800Y-81174800D01*
X71524800Y-86324800D02*
X71524800Y-86179800D01*
X75674800Y-86324800D02*
X75674800Y-86179800D01*
X75674800Y-81174800D02*
X75674800Y-81319800D01*
X71524800Y-81174800D02*
X71524800Y-81224800D01*
X62124800Y-81174800D02*
X60724800Y-81174800D01*
X62124800Y-86274800D02*
X66274800Y-86274800D01*
X62124800Y-81124800D02*
X66274800Y-81124800D01*
X62124800Y-86274800D02*
X62124800Y-86129800D01*
X66274800Y-86274800D02*
X66274800Y-86129800D01*
X66274800Y-81124800D02*
X66274800Y-81269800D01*
X62124800Y-81124800D02*
X62124800Y-81174800D01*
D13*
X52209800Y-79258378D02*
X52209800Y-78741222D01*
X50789800Y-79258378D02*
X50789800Y-78741222D01*
D10*
X52124800Y-81274800D02*
X50724800Y-81274800D01*
X52124800Y-86374800D02*
X56274800Y-86374800D01*
X52124800Y-81224800D02*
X56274800Y-81224800D01*
X52124800Y-86374800D02*
X52124800Y-86229800D01*
X56274800Y-86374800D02*
X56274800Y-86229800D01*
X56274800Y-81224800D02*
X56274800Y-81369800D01*
X52124800Y-81224800D02*
X52124800Y-81274800D01*
D13*
X76689800Y-78503722D02*
X76689800Y-79020878D01*
X78109800Y-78503722D02*
X78109800Y-79020878D01*
X57489800Y-78703722D02*
X57489800Y-79220878D01*
X58909800Y-78703722D02*
X58909800Y-79220878D01*
X66479800Y-78139800D02*
X66479800Y-79599800D01*
X63319800Y-78139800D02*
X63319800Y-80299800D01*
X63319800Y-78139800D02*
X64249800Y-78139800D01*
X66479800Y-78139800D02*
X65549800Y-78139800D01*
X56379800Y-78239800D02*
X55449800Y-78239800D01*
X53219800Y-78239800D02*
X54149800Y-78239800D01*
X53219800Y-78239800D02*
X53219800Y-80399800D01*
X56379800Y-78239800D02*
X56379800Y-79699800D01*
D12*
X111549800Y-66799800D02*
G75*
G03X111549800Y-66799800I-100000J0D01*
G01*
D15*
X112949800Y-66149800D02*
X117949800Y-66149800D01*
X112949800Y-71249800D02*
X117949800Y-71249800D01*
D12*
X78599800Y-59299800D02*
G75*
G03X78599800Y-59299800I-100000J0D01*
G01*
D15*
X76999800Y-59949800D02*
X71999800Y-59949800D01*
X76999800Y-54849800D02*
X71999800Y-54849800D01*
D12*
X119399800Y-59399800D02*
G75*
G03X119399800Y-59399800I-100000J0D01*
G01*
D15*
X117799800Y-60049800D02*
X112799800Y-60049800D01*
X117799800Y-54949800D02*
X112799800Y-54949800D01*
X97449800Y-54749800D02*
X92449800Y-54749800D01*
X97449800Y-59849800D02*
X92449800Y-59849800D01*
D12*
X99049800Y-59199800D02*
G75*
G03X99049800Y-59199800I-100000J0D01*
G01*
D15*
X92449800Y-71049800D02*
X97449800Y-71049800D01*
X92449800Y-65949800D02*
X97449800Y-65949800D01*
D12*
X91049800Y-66599800D02*
G75*
G03X91049800Y-66599800I-100000J0D01*
G01*
D13*
X74919800Y-114794800D02*
X76249800Y-114794800D01*
X74919800Y-116124800D02*
X74919800Y-114794800D01*
X74919800Y-117394800D02*
X77579800Y-117394800D01*
X77579800Y-117394800D02*
X77579800Y-127614800D01*
X74919800Y-117394800D02*
X74919800Y-127614800D01*
X74919800Y-127614800D02*
X77579800Y-127614800D01*
X51625400Y-110849800D02*
X51625400Y-105099800D01*
X51625400Y-105099800D02*
X48025400Y-105099800D01*
X48025400Y-105099800D02*
X48025400Y-110849800D01*
D10*
X58896600Y-106806200D02*
X57871600Y-106806200D01*
X69246600Y-105806200D02*
X68171600Y-105806200D01*
X69246600Y-116156200D02*
X68171600Y-116156200D01*
X58896600Y-116156200D02*
X59971600Y-116156200D01*
X58896600Y-105806200D02*
X59971600Y-105806200D01*
X58896600Y-116156200D02*
X58896600Y-115081200D01*
X69246600Y-116156200D02*
X69246600Y-115081200D01*
X69246600Y-105806200D02*
X69246600Y-106881200D01*
X58896600Y-105806200D02*
X58896600Y-106806200D01*
D13*
X49778722Y-115709800D02*
X50295878Y-115709800D01*
X49778722Y-114289800D02*
X50295878Y-114289800D01*
X67312378Y-118274800D02*
X66795222Y-118274800D01*
X67312378Y-119694800D02*
X66795222Y-119694800D01*
X87009800Y-129497300D02*
X87009800Y-125287300D01*
X83989800Y-129497300D02*
X87009800Y-129497300D01*
X83989800Y-125287300D02*
X83989800Y-129497300D01*
X95224800Y-135749800D02*
X92924800Y-135749800D01*
X95224800Y-128349800D02*
X95224800Y-135749800D01*
X92924800Y-128349800D02*
X95224800Y-128349800D01*
X87824800Y-128349800D02*
X90124800Y-128349800D01*
X87824800Y-135749800D02*
X87824800Y-128349800D01*
X90124800Y-135749800D02*
X87824800Y-135749800D01*
X72750800Y-124314377D02*
X72750800Y-123797221D01*
X71330800Y-124314377D02*
X71330800Y-123797221D01*
X95849800Y-136149800D02*
X95849800Y-130749800D01*
X99149800Y-136149800D02*
X99149800Y-130749800D01*
X95849800Y-136149800D02*
X99149800Y-136149800D01*
X102641222Y-132559800D02*
X103158378Y-132559800D01*
X102641222Y-131139800D02*
X103158378Y-131139800D01*
X87079800Y-137878722D02*
X87079800Y-138395878D01*
X88499800Y-137878722D02*
X88499800Y-138395878D01*
X89689800Y-141938722D02*
X89689800Y-142455878D01*
X91109800Y-141938722D02*
X91109800Y-142455878D01*
X100999800Y-146481222D02*
X100999800Y-146998378D01*
X102419800Y-146481222D02*
X102419800Y-146998378D01*
X79137795Y-141528722D02*
X79137795Y-142045878D01*
X80557795Y-141528722D02*
X80557795Y-142045878D01*
X98899800Y-146503721D02*
X98899800Y-147020877D01*
X100319800Y-146503721D02*
X100319800Y-147020877D01*
X81439800Y-142378722D02*
X81439800Y-142895878D01*
X82859800Y-142378722D02*
X82859800Y-142895878D01*
X83714800Y-143203722D02*
X83714800Y-143720878D01*
X85134800Y-143203722D02*
X85134800Y-143720878D01*
X86039800Y-144403722D02*
X86039800Y-144920878D01*
X87459800Y-144403722D02*
X87459800Y-144920878D01*
X102641222Y-130209800D02*
X103158378Y-130209800D01*
X102641222Y-128789800D02*
X103158378Y-128789800D01*
X109138379Y-147039800D02*
X108621223Y-147039800D01*
X109138379Y-148459800D02*
X108621223Y-148459800D01*
X108641222Y-144109800D02*
X109158378Y-144109800D01*
X108641222Y-142689800D02*
X109158378Y-142689800D01*
X89789800Y-137928722D02*
X89789800Y-138445878D01*
X91209800Y-137928722D02*
X91209800Y-138445878D01*
D10*
X93399800Y-136944800D02*
X93399800Y-136994800D01*
X97549800Y-136944800D02*
X97549800Y-137089800D01*
X97549800Y-142094800D02*
X97549800Y-141949800D01*
X93399800Y-142094800D02*
X93399800Y-141949800D01*
X93399800Y-136944800D02*
X97549800Y-136944800D01*
X93399800Y-142094800D02*
X97549800Y-142094800D01*
X93399800Y-136994800D02*
X91999800Y-136994800D01*
D13*
X102591222Y-134909800D02*
X103108378Y-134909800D01*
X102591222Y-133489800D02*
X103108378Y-133489800D01*
X83989800Y-130077300D02*
X83989800Y-134287300D01*
X87009800Y-130077300D02*
X83989800Y-130077300D01*
X87009800Y-134287300D02*
X87009800Y-130077300D01*
X102616222Y-137209800D02*
X103133378Y-137209800D01*
X102616222Y-135789800D02*
X103133378Y-135789800D01*
D10*
X114474800Y-141699800D02*
X114299800Y-141699800D01*
X114474800Y-145049800D02*
X114224800Y-145049800D01*
X111124800Y-145049800D02*
X111374800Y-145049800D01*
X111124800Y-141699800D02*
X111374800Y-141699800D01*
X114474800Y-141699800D02*
X114474800Y-145049800D01*
X111124800Y-141699800D02*
X111124800Y-145049800D01*
X114299800Y-141699800D02*
X114299800Y-140449800D01*
D13*
X108621223Y-146309800D02*
X109138379Y-146309800D01*
X108621223Y-144889800D02*
X109138379Y-144889800D01*
X109058378Y-140489800D02*
X108541222Y-140489800D01*
X109058378Y-141909800D02*
X108541222Y-141909800D01*
X111064800Y-148591222D02*
X111064800Y-149108378D01*
X112484800Y-148591222D02*
X112484800Y-149108378D01*
X116534800Y-142108378D02*
X116534800Y-141591222D01*
X115114800Y-142108378D02*
X115114800Y-141591222D01*
X102616222Y-139709800D02*
X103133378Y-139709800D01*
X102616222Y-138289800D02*
X103133378Y-138289800D01*
X115199800Y-147249800D02*
X115199800Y-151149800D01*
X113199800Y-147249800D02*
X113199800Y-151149800D01*
X115199800Y-147249800D02*
X113199800Y-147249800D01*
X63964800Y-127828722D02*
X63964800Y-128345878D01*
X65384800Y-127828722D02*
X65384800Y-128345878D01*
X104559800Y-152114800D02*
X104559800Y-150964800D01*
X104559800Y-150964800D02*
X103509800Y-150964800D01*
X103509800Y-150964800D02*
X103509800Y-149974800D01*
X99339800Y-152114800D02*
X99339800Y-150964800D01*
X99339800Y-150964800D02*
X100389800Y-150964800D01*
X103389800Y-154084800D02*
X100509800Y-154084800D01*
X84895540Y-149601520D02*
X85326339Y-148535259D01*
X85326339Y-148535259D02*
X84352796Y-148141922D01*
X84352796Y-148141922D02*
X84723656Y-147224010D01*
X77274090Y-146522254D02*
X77704888Y-145455993D01*
X77704888Y-145455993D02*
X78678431Y-145849330D01*
X83072761Y-150989783D02*
X77620920Y-148787096D01*
X96090414Y-151852886D02*
X96290109Y-150720357D01*
X96290109Y-150720357D02*
X95256061Y-150538027D01*
X95256061Y-150538027D02*
X95427973Y-149563067D01*
X87995294Y-150425498D02*
X88194990Y-149292969D01*
X88194990Y-149292969D02*
X89229038Y-149475300D01*
X94596102Y-153589789D02*
X88805432Y-152568738D01*
X74568572Y-144989965D02*
X75228185Y-144047940D01*
X75228185Y-144047940D02*
X74368075Y-143445685D01*
X74368075Y-143445685D02*
X74935916Y-142634725D01*
X67835142Y-140275167D02*
X68494755Y-139333142D01*
X68494755Y-139333142D02*
X69354865Y-139935397D01*
X72480218Y-145932610D02*
X67663604Y-142559981D01*
X51609800Y-99620878D02*
X51609800Y-99103722D01*
X50189800Y-99620878D02*
X50189800Y-99103722D01*
X118884800Y-142133378D02*
X118884800Y-141616222D01*
X117464800Y-142133378D02*
X117464800Y-141616222D01*
X59696878Y-102337800D02*
X59179722Y-102337800D01*
X59696878Y-103757800D02*
X59179722Y-103757800D01*
X69504378Y-102317800D02*
X68987222Y-102317800D01*
X69504378Y-103737800D02*
X68987222Y-103737800D01*
X116039800Y-146497736D02*
X116039800Y-147701864D01*
X118759800Y-146497736D02*
X118759800Y-147701864D01*
X119549800Y-139299800D02*
X119549800Y-133899800D01*
X122849800Y-139299800D02*
X122849800Y-133899800D01*
X119549800Y-139299800D02*
X122849800Y-139299800D01*
X118349800Y-126499800D02*
X118349800Y-129499800D01*
X105749800Y-126499800D02*
X118349800Y-126499800D01*
X105749800Y-129499800D02*
X105749800Y-126499800D01*
X105749800Y-139099800D02*
X105749800Y-136099800D01*
X118349800Y-139099800D02*
X105749800Y-139099800D01*
X118349800Y-136099800D02*
X118349800Y-139099800D01*
X59665800Y-99273222D02*
X59665800Y-99790378D01*
X61085800Y-99273222D02*
X61085800Y-99790378D01*
X45989800Y-99103722D02*
X45989800Y-99620878D01*
X47409800Y-99103722D02*
X47409800Y-99620878D01*
X48089800Y-99103722D02*
X48089800Y-99620878D01*
X49509800Y-99103722D02*
X49509800Y-99620878D01*
X119739800Y-146783378D02*
X119739800Y-146266222D01*
X121159800Y-146783378D02*
X121159800Y-146266222D01*
X57379800Y-99273222D02*
X57379800Y-99790378D01*
X58799800Y-99273222D02*
X58799800Y-99790378D01*
X66651800Y-99154722D02*
X66651800Y-99671878D01*
X68071800Y-99154722D02*
X68071800Y-99671878D01*
X49778722Y-117909800D02*
X50295878Y-117909800D01*
X49778722Y-116489800D02*
X50295878Y-116489800D01*
X69063800Y-99154722D02*
X69063800Y-99671878D01*
X70483800Y-99154722D02*
X70483800Y-99671878D01*
D14*
X55625400Y-100444300D02*
X55625400Y-98691700D01*
X54333061Y-98691700D02*
X53666539Y-98691700D01*
X52374200Y-98691700D02*
X52374200Y-100444300D01*
X74557400Y-100444300D02*
X74557400Y-98691700D01*
X73265061Y-98691700D02*
X72598539Y-98691700D01*
X71306200Y-98691700D02*
X71306200Y-100444300D01*
D13*
X64114800Y-124377877D02*
X64114800Y-123860721D01*
X62694800Y-124377877D02*
X62694800Y-123860721D01*
X68432800Y-124314377D02*
X68432800Y-123797221D01*
X67012800Y-124314377D02*
X67012800Y-123797221D01*
X62205800Y-125804299D02*
X62205800Y-123119299D01*
X60285800Y-125804299D02*
X62205800Y-125804299D01*
X60285800Y-123119299D02*
X60285800Y-125804299D01*
X70841800Y-125702128D02*
X70841800Y-123017128D01*
X68921800Y-125702128D02*
X70841800Y-125702128D01*
X68921800Y-123017128D02*
X68921800Y-125702128D01*
X66523800Y-125740799D02*
X66523800Y-123055799D01*
X64603800Y-125740799D02*
X66523800Y-125740799D01*
X64603800Y-123055799D02*
X64603800Y-125740799D01*
X54340878Y-107772800D02*
X53823722Y-107772800D01*
X54340878Y-109192800D02*
X53823722Y-109192800D01*
X54340878Y-109931800D02*
X53823722Y-109931800D01*
X54340878Y-111351800D02*
X53823722Y-111351800D01*
X58660300Y-119630222D02*
X58660300Y-120147378D01*
X60080300Y-119630222D02*
X60080300Y-120147378D01*
X54340878Y-112090800D02*
X53823722Y-112090800D01*
X54340878Y-113510800D02*
X53823722Y-113510800D01*
X62787800Y-119615222D02*
X62787800Y-120132378D01*
X64207800Y-119615222D02*
X64207800Y-120132378D01*
X49786822Y-104409800D02*
X50303978Y-104409800D01*
X49786822Y-102989800D02*
X50303978Y-102989800D01*
X49786822Y-113232800D02*
X50303978Y-113232800D01*
X49786822Y-111812800D02*
X50303978Y-111812800D01*
X54331878Y-105478800D02*
X53814722Y-105478800D01*
X54331878Y-106898800D02*
X53814722Y-106898800D01*
X74168378Y-108909800D02*
X73651222Y-108909800D01*
X74168378Y-110329800D02*
X73651222Y-110329800D01*
X53814722Y-104739800D02*
X54331878Y-104739800D01*
X53814722Y-103319800D02*
X54331878Y-103319800D01*
X62175800Y-120147378D02*
X62175800Y-119630222D01*
X60755800Y-120147378D02*
X60755800Y-119630222D01*
X70980378Y-118274800D02*
X70463222Y-118274800D01*
X70980378Y-119694800D02*
X70463222Y-119694800D01*
X74198078Y-106590800D02*
X73680922Y-106590800D01*
X74198078Y-108010800D02*
X73680922Y-108010800D01*
X63857878Y-102337800D02*
X63340722Y-102337800D01*
X63857878Y-103757800D02*
X63340722Y-103757800D01*
X53887222Y-115669800D02*
X54404378Y-115669800D01*
X53887222Y-114249800D02*
X54404378Y-114249800D01*
D10*
X61570447Y-137242084D02*
X60232186Y-135755795D01*
X59855562Y-130106843D02*
X59502568Y-130424680D01*
X65409346Y-136274945D02*
X59855562Y-130106843D01*
X65056352Y-136592782D02*
X65409346Y-136274945D01*
X57477498Y-132248061D02*
X57830492Y-131930224D01*
X63031282Y-138416163D02*
X57477498Y-132248061D01*
X63384276Y-138098326D02*
X63031282Y-138416163D01*
D13*
X61664800Y-127878722D02*
X61664800Y-128395878D01*
X63084800Y-127878722D02*
X63084800Y-128395878D01*
D10*
X140222180Y-117009323D02*
X140936466Y-117009323D01*
X141079323Y-117056942D01*
X141174561Y-117152180D01*
X141222180Y-117295038D01*
X141222180Y-117390276D01*
X141222180Y-116009323D02*
X141222180Y-116580752D01*
X141222180Y-116295038D02*
X140222180Y-116295038D01*
X140365038Y-116390276D01*
X140460276Y-116485514D01*
X140507895Y-116580752D01*
X140555514Y-115152180D02*
X141222180Y-115152180D01*
X140174561Y-115390276D02*
X140888847Y-115628371D01*
X140888847Y-115009323D01*
X137194569Y-139608144D02*
X137663182Y-140147222D01*
X137720966Y-140286278D01*
X137711571Y-140420637D01*
X137634996Y-140550299D01*
X137563119Y-140612780D01*
X138605337Y-139706794D02*
X138174075Y-140081685D01*
X138389706Y-139894240D02*
X137733647Y-139139530D01*
X137755493Y-139309827D01*
X137746097Y-139444186D01*
X137705461Y-139542607D01*
X138632111Y-138358507D02*
X138272725Y-138670916D01*
X138549196Y-139061543D01*
X138553893Y-138994363D01*
X138594530Y-138895943D01*
X138774222Y-138739738D01*
X138877340Y-138713195D01*
X138944520Y-138717893D01*
X139042940Y-138758529D01*
X139199145Y-138938222D01*
X139225688Y-139041340D01*
X139220990Y-139108519D01*
X139180354Y-139206940D01*
X139000661Y-139363144D01*
X138897543Y-139389687D01*
X138830364Y-139384990D01*
X84572321Y-118028023D02*
X84067245Y-118533099D01*
X83932558Y-118600442D01*
X83797871Y-118600442D01*
X83663184Y-118533099D01*
X83595840Y-118465755D01*
X84572321Y-119442236D02*
X84168260Y-119038175D01*
X84370290Y-119240206D02*
X85077397Y-118533099D01*
X84909038Y-118566771D01*
X84774351Y-118566771D01*
X84673336Y-118533099D01*
X85515130Y-118970832D02*
X85952863Y-119408564D01*
X85447786Y-119442236D01*
X85548802Y-119543251D01*
X85582473Y-119644267D01*
X85582473Y-119711610D01*
X85548802Y-119812625D01*
X85380443Y-119980984D01*
X85279428Y-120014656D01*
X85212084Y-120014656D01*
X85111069Y-119980984D01*
X84909038Y-119778954D01*
X84875367Y-119677938D01*
X84875367Y-119610595D01*
X74221400Y-93479179D02*
X74221400Y-93717275D01*
X73983304Y-93622037D02*
X74221400Y-93717275D01*
X74459495Y-93622037D01*
X74078542Y-93907751D02*
X74221400Y-93717275D01*
X74364257Y-93907751D01*
X63833400Y-92908980D02*
X63833400Y-93147076D01*
X63595304Y-93051838D02*
X63833400Y-93147076D01*
X64071495Y-93051838D01*
X63690542Y-93337552D02*
X63833400Y-93147076D01*
X63976257Y-93337552D01*
X53699800Y-92902180D02*
X53699800Y-93140276D01*
X53461704Y-93045038D02*
X53699800Y-93140276D01*
X53937895Y-93045038D01*
X53556942Y-93330752D02*
X53699800Y-93140276D01*
X53842657Y-93330752D01*
X51952000Y-85591180D02*
X51952000Y-85829276D01*
X51713904Y-85734038D02*
X51952000Y-85829276D01*
X52190095Y-85734038D01*
X51809142Y-86019752D02*
X51952000Y-85829276D01*
X52094857Y-86019752D01*
X51952000Y-85591180D02*
X51952000Y-85829276D01*
X51713904Y-85734038D02*
X51952000Y-85829276D01*
X52190095Y-85734038D01*
X51809142Y-86019752D02*
X51952000Y-85829276D01*
X52094857Y-86019752D01*
X61545800Y-85591180D02*
X61545800Y-85829276D01*
X61307704Y-85734038D02*
X61545800Y-85829276D01*
X61783895Y-85734038D01*
X61402942Y-86019752D02*
X61545800Y-85829276D01*
X61688657Y-86019752D01*
X61545800Y-85591180D02*
X61545800Y-85829276D01*
X61307704Y-85734038D02*
X61545800Y-85829276D01*
X61783895Y-85734038D01*
X61402942Y-86019752D02*
X61545800Y-85829276D01*
X61688657Y-86019752D01*
X72352000Y-85691180D02*
X72352000Y-85929276D01*
X72113904Y-85834038D02*
X72352000Y-85929276D01*
X72590095Y-85834038D01*
X72209142Y-86119752D02*
X72352000Y-85929276D01*
X72494857Y-86119752D01*
X72352000Y-85691180D02*
X72352000Y-85929276D01*
X72113904Y-85834038D02*
X72352000Y-85929276D01*
X72590095Y-85834038D01*
X72209142Y-86119752D02*
X72352000Y-85929276D01*
X72494857Y-86119752D01*
X104238466Y-148220180D02*
X104238466Y-148934466D01*
X104190847Y-149077323D01*
X104095609Y-149172561D01*
X103952752Y-149220180D01*
X103857514Y-149220180D01*
X105190847Y-148220180D02*
X104714657Y-148220180D01*
X104667038Y-148696371D01*
X104714657Y-148648752D01*
X104809895Y-148601133D01*
X105047990Y-148601133D01*
X105143228Y-148648752D01*
X105190847Y-148696371D01*
X105238466Y-148791609D01*
X105238466Y-149029704D01*
X105190847Y-149124942D01*
X105143228Y-149172561D01*
X105047990Y-149220180D01*
X104809895Y-149220180D01*
X104714657Y-149172561D01*
X104667038Y-149124942D01*
X85671880Y-151437187D02*
X85404304Y-152099461D01*
X85306637Y-152214078D01*
X85182657Y-152266704D01*
X85032364Y-152257340D01*
X84944060Y-152221664D01*
X86224457Y-152738978D02*
X85694638Y-152524917D01*
X85959548Y-152631947D02*
X86334154Y-151704763D01*
X86192336Y-151801541D01*
X86068356Y-151854168D01*
X85962214Y-151862642D01*
X96464623Y-147916617D02*
X96340589Y-148620051D01*
X96268886Y-148752469D01*
X96158557Y-148829723D01*
X96009601Y-148851811D01*
X95915810Y-148835273D01*
X96870146Y-148084829D02*
X96925310Y-148046203D01*
X97027371Y-148015845D01*
X97261849Y-148057190D01*
X97347371Y-148120623D01*
X97385998Y-148175788D01*
X97416355Y-148277848D01*
X97399817Y-148371639D01*
X97328115Y-148504057D01*
X96666140Y-148967577D01*
X97275783Y-149075073D01*
X69373048Y-144663226D02*
X68963351Y-145248335D01*
X68842404Y-145338043D01*
X68709763Y-145361431D01*
X68565428Y-145318499D01*
X68487414Y-145263873D01*
X69685106Y-144881731D02*
X70192200Y-145236803D01*
X69700644Y-145357668D01*
X69817666Y-145439608D01*
X69868367Y-145533241D01*
X69880061Y-145599562D01*
X69864442Y-145704889D01*
X69727876Y-145899926D01*
X69634243Y-145950627D01*
X69567922Y-145962321D01*
X69462595Y-145946702D01*
X69228551Y-145782823D01*
X69177850Y-145689189D01*
X69166156Y-145622869D01*
X56977934Y-129484417D02*
X57455884Y-130015235D01*
X57516087Y-130153261D01*
X57509038Y-130287764D01*
X57434737Y-130418742D01*
X57363962Y-130482468D01*
X57650303Y-128879013D02*
X57508752Y-129006466D01*
X57469839Y-129105581D01*
X57466315Y-129172832D01*
X57491129Y-129342722D01*
X57583195Y-129516137D01*
X57838102Y-129799240D01*
X57937216Y-129838152D01*
X58004467Y-129841677D01*
X58107107Y-129813338D01*
X58248658Y-129685884D01*
X58287570Y-129586770D01*
X58291095Y-129519519D01*
X58262756Y-129416880D01*
X58103439Y-129239940D01*
X58004324Y-129201028D01*
X57937073Y-129197504D01*
X57834434Y-129225842D01*
X57692883Y-129353296D01*
X57653970Y-129452410D01*
X57650446Y-129519662D01*
X57678785Y-129622301D01*
M02*
