G04 #@! TF.GenerationSoftware,KiCad,Pcbnew,5.0.2-bee76a0~70~ubuntu18.04.1*
G04 #@! TF.CreationDate,2019-01-04T09:02:56+01:00*
G04 #@! TF.ProjectId,gsvesc,67737665-7363-42e6-9b69-6361645f7063,rev?*
G04 #@! TF.SameCoordinates,Original*
G04 #@! TF.FileFunction,Soldermask,Top*
G04 #@! TF.FilePolarity,Negative*
%FSLAX45Y45*%
G04 Gerber Fmt 4.5, Leading zero omitted, Abs format (unit mm)*
G04 Created by KiCad (PCBNEW 5.0.2-bee76a0~70~ubuntu18.04.1) date Fr 04 Jan 2019 09:02:56 CET*
%MOMM*%
%LPD*%
G01*
G04 APERTURE LIST*
%ADD10C,0.200000*%
%ADD11C,0.100000*%
G04 APERTURE END LIST*
D10*
X11340000Y-9398000D02*
G75*
G03X11340000Y-9398000I-2450000J0D01*
G01*
X14440000Y-9398000D02*
G75*
G03X14440000Y-9398000I-5550000J0D01*
G01*
D11*
G36*
X9003430Y-14510834D02*
X9015979Y-14513473D01*
X9015979Y-14513473D01*
X9015979Y-14513473D01*
X9022909Y-14516432D01*
X9027772Y-14518509D01*
X9037033Y-14524844D01*
X9038356Y-14525750D01*
X9047325Y-14534916D01*
X9054332Y-14545655D01*
X9059110Y-14557555D01*
X9060882Y-14567002D01*
X9063775Y-14600065D01*
X9066233Y-14628162D01*
X9066128Y-14637772D01*
X9063489Y-14650322D01*
X9063489Y-14650322D01*
X9058991Y-14660856D01*
X9058453Y-14662115D01*
X9051967Y-14671596D01*
X9051213Y-14672699D01*
X9042047Y-14681667D01*
X9031307Y-14688675D01*
X9026530Y-14690593D01*
X9019407Y-14693453D01*
X9009168Y-14695373D01*
X9006804Y-14695817D01*
X9006803Y-14695817D01*
X8993981Y-14695677D01*
X8989983Y-14694837D01*
X8981432Y-14693038D01*
X8974675Y-14690153D01*
X8969638Y-14688002D01*
X8959054Y-14680762D01*
X8950086Y-14671596D01*
X8949417Y-14670571D01*
X8943078Y-14660856D01*
X8938301Y-14648956D01*
X8936738Y-14640627D01*
X8936529Y-14639510D01*
X8936429Y-14638369D01*
X8932823Y-14597161D01*
X8931178Y-14578349D01*
X8931282Y-14568739D01*
X8933921Y-14556190D01*
X8938420Y-14545655D01*
X8938957Y-14544397D01*
X8939579Y-14543487D01*
X8946198Y-14533812D01*
X8953196Y-14526965D01*
X8955364Y-14524844D01*
X8966103Y-14517837D01*
X8970881Y-14515918D01*
X8978004Y-14513059D01*
X8989861Y-14510834D01*
X8990607Y-14510694D01*
X8990607Y-14510694D01*
X9003430Y-14510834D01*
X9003430Y-14510834D01*
G37*
G36*
X9202669Y-14493403D02*
X9215218Y-14496042D01*
X9227011Y-14501078D01*
X9236272Y-14507413D01*
X9237595Y-14508319D01*
X9246564Y-14517485D01*
X9253571Y-14528224D01*
X9258349Y-14540124D01*
X9260121Y-14549571D01*
X9262630Y-14578242D01*
X9265472Y-14610731D01*
X9265367Y-14620341D01*
X9262728Y-14632891D01*
X9262728Y-14632891D01*
X9258230Y-14643425D01*
X9257692Y-14644684D01*
X9251206Y-14654165D01*
X9250452Y-14655268D01*
X9241286Y-14664236D01*
X9230546Y-14671244D01*
X9225769Y-14673162D01*
X9218646Y-14676021D01*
X9208407Y-14677942D01*
X9206042Y-14678386D01*
X9206042Y-14678386D01*
X9193220Y-14678246D01*
X9189222Y-14677405D01*
X9180671Y-14675607D01*
X9173860Y-14672699D01*
X9168877Y-14670571D01*
X9158293Y-14663331D01*
X9149325Y-14654165D01*
X9149325Y-14654165D01*
X9142317Y-14643425D01*
X9137540Y-14631525D01*
X9135767Y-14622078D01*
X9131932Y-14578242D01*
X9130417Y-14560918D01*
X9130521Y-14551308D01*
X9133160Y-14538759D01*
X9135678Y-14532862D01*
X9138196Y-14526966D01*
X9138529Y-14526479D01*
X9145437Y-14516381D01*
X9154603Y-14507413D01*
X9154603Y-14507413D01*
X9165342Y-14500405D01*
X9170120Y-14498487D01*
X9177242Y-14495628D01*
X9187482Y-14493707D01*
X9189846Y-14493263D01*
X9189846Y-14493263D01*
X9202669Y-14493403D01*
X9202669Y-14493403D01*
G37*
G36*
X9401908Y-14475972D02*
X9414457Y-14478611D01*
X9426250Y-14483647D01*
X9435511Y-14489982D01*
X9436834Y-14490887D01*
X9445803Y-14500053D01*
X9452810Y-14510793D01*
X9457588Y-14522693D01*
X9459360Y-14532140D01*
X9461748Y-14559430D01*
X9464711Y-14593300D01*
X9464606Y-14602910D01*
X9461967Y-14615459D01*
X9459855Y-14620405D01*
X9457469Y-14625994D01*
X9456931Y-14627253D01*
X9450445Y-14636733D01*
X9449691Y-14637837D01*
X9440525Y-14646805D01*
X9429785Y-14653812D01*
X9426160Y-14655268D01*
X9417885Y-14658590D01*
X9407646Y-14660511D01*
X9405281Y-14660955D01*
X9405281Y-14660955D01*
X9392459Y-14660815D01*
X9388461Y-14659974D01*
X9379910Y-14658176D01*
X9373099Y-14655268D01*
X9368116Y-14653140D01*
X9357532Y-14645899D01*
X9348564Y-14636733D01*
X9347411Y-14634966D01*
X9341556Y-14625994D01*
X9336779Y-14614094D01*
X9335006Y-14604647D01*
X9331050Y-14559430D01*
X9329656Y-14543487D01*
X9329760Y-14533877D01*
X9332399Y-14521327D01*
X9336898Y-14510793D01*
X9337435Y-14509534D01*
X9338057Y-14508625D01*
X9344676Y-14498950D01*
X9346386Y-14497277D01*
X9353842Y-14489982D01*
X9364581Y-14482974D01*
X9369359Y-14481056D01*
X9376481Y-14478196D01*
X9388339Y-14475972D01*
X9389085Y-14475832D01*
X9389085Y-14475832D01*
X9401908Y-14475972D01*
X9401908Y-14475972D01*
G37*
G36*
X9601147Y-14458541D02*
X9613696Y-14461180D01*
X9625489Y-14466216D01*
X9635514Y-14473074D01*
X9636073Y-14473456D01*
X9645041Y-14482622D01*
X9652049Y-14493362D01*
X9656827Y-14505262D01*
X9658599Y-14514708D01*
X9661117Y-14543487D01*
X9663950Y-14575869D01*
X9663845Y-14585479D01*
X9661206Y-14598028D01*
X9661024Y-14598456D01*
X9656707Y-14608563D01*
X9656170Y-14609821D01*
X9649684Y-14619302D01*
X9648930Y-14620406D01*
X9639764Y-14629374D01*
X9629024Y-14636381D01*
X9624246Y-14638300D01*
X9617124Y-14641159D01*
X9606885Y-14643080D01*
X9604520Y-14643524D01*
X9604520Y-14643524D01*
X9591698Y-14643384D01*
X9587503Y-14642502D01*
X9579148Y-14640745D01*
X9572188Y-14637772D01*
X9567355Y-14635709D01*
X9556771Y-14628468D01*
X9547803Y-14619302D01*
X9547764Y-14619243D01*
X9540795Y-14608563D01*
X9536017Y-14596663D01*
X9534245Y-14587216D01*
X9530419Y-14543487D01*
X9528894Y-14526056D01*
X9528999Y-14516445D01*
X9531638Y-14503896D01*
X9534156Y-14498000D01*
X9536674Y-14492103D01*
X9537506Y-14490887D01*
X9543915Y-14481519D01*
X9553081Y-14472551D01*
X9553081Y-14472551D01*
X9563820Y-14465543D01*
X9572762Y-14461953D01*
X9575720Y-14460765D01*
X9587578Y-14458541D01*
X9588324Y-14458401D01*
X9588324Y-14458401D01*
X9601147Y-14458541D01*
X9601147Y-14458541D01*
G37*
G36*
X8032635Y-14440498D02*
X8039085Y-14442226D01*
X8039086Y-14442227D01*
X8099449Y-14458401D01*
X8118898Y-14463612D01*
X8123103Y-14465195D01*
X8126394Y-14467242D01*
X8129224Y-14469891D01*
X8131482Y-14473042D01*
X8133081Y-14476573D01*
X8133961Y-14480348D01*
X8134088Y-14484222D01*
X8133356Y-14488654D01*
X8096007Y-14628043D01*
X8094425Y-14632248D01*
X8092377Y-14635540D01*
X8089728Y-14638369D01*
X8086577Y-14640627D01*
X8083047Y-14642226D01*
X8079272Y-14643107D01*
X8075397Y-14643234D01*
X8070965Y-14642502D01*
X8064515Y-14640773D01*
X8064514Y-14640773D01*
X7997531Y-14622825D01*
X7984702Y-14619388D01*
X7980497Y-14617805D01*
X7977205Y-14615758D01*
X7974376Y-14613109D01*
X7972118Y-14609958D01*
X7970519Y-14606427D01*
X7969639Y-14602652D01*
X7969512Y-14598778D01*
X7970244Y-14594345D01*
X8007593Y-14454957D01*
X8009175Y-14450752D01*
X8011223Y-14447460D01*
X8013872Y-14444631D01*
X8017023Y-14442373D01*
X8020553Y-14440773D01*
X8024328Y-14439893D01*
X8028202Y-14439766D01*
X8032635Y-14440498D01*
X8032635Y-14440498D01*
G37*
G36*
X9800386Y-14441110D02*
X9812935Y-14443748D01*
X9824728Y-14448785D01*
X9835312Y-14456025D01*
X9835312Y-14456025D01*
X9844280Y-14465191D01*
X9851288Y-14475930D01*
X9856066Y-14487831D01*
X9856867Y-14492103D01*
X9857832Y-14497243D01*
X9857838Y-14497277D01*
X9860502Y-14527721D01*
X9863189Y-14558438D01*
X9863084Y-14568048D01*
X9860445Y-14580597D01*
X9858064Y-14586173D01*
X9855946Y-14591132D01*
X9855409Y-14592390D01*
X9848923Y-14601871D01*
X9848169Y-14602974D01*
X9839003Y-14611943D01*
X9828263Y-14618950D01*
X9824638Y-14620406D01*
X9816363Y-14623728D01*
X9806124Y-14625649D01*
X9803759Y-14626092D01*
X9803759Y-14626092D01*
X9790937Y-14625953D01*
X9786939Y-14625112D01*
X9778387Y-14623314D01*
X9769194Y-14619388D01*
X9766594Y-14618277D01*
X9756010Y-14611037D01*
X9749181Y-14604057D01*
X9747042Y-14601871D01*
X9740034Y-14591132D01*
X9735256Y-14579232D01*
X9733484Y-14569785D01*
X9729804Y-14527721D01*
X9728133Y-14508624D01*
X9728238Y-14499014D01*
X9730877Y-14486465D01*
X9735376Y-14475930D01*
X9735913Y-14474672D01*
X9736745Y-14473456D01*
X9743154Y-14464088D01*
X9752320Y-14455120D01*
X9752320Y-14455120D01*
X9763059Y-14448112D01*
X9768252Y-14446027D01*
X9774959Y-14443334D01*
X9786817Y-14441110D01*
X9787563Y-14440970D01*
X9787563Y-14440970D01*
X9800386Y-14441110D01*
X9800386Y-14441110D01*
G37*
G36*
X10035805Y-14420010D02*
X10039599Y-14420807D01*
X10043163Y-14422329D01*
X10046362Y-14424518D01*
X10049073Y-14427289D01*
X10051191Y-14430534D01*
X10052635Y-14434132D01*
X10053464Y-14438549D01*
X10066041Y-14582303D01*
X10065992Y-14586797D01*
X10065194Y-14590591D01*
X10063672Y-14594155D01*
X10061484Y-14597354D01*
X10058713Y-14600065D01*
X10055467Y-14602183D01*
X10051870Y-14603627D01*
X10047453Y-14604456D01*
X9958489Y-14612239D01*
X9953995Y-14612190D01*
X9950201Y-14611393D01*
X9946637Y-14609870D01*
X9943438Y-14607682D01*
X9940727Y-14604911D01*
X9938609Y-14601665D01*
X9937165Y-14598068D01*
X9936336Y-14593651D01*
X9923759Y-14449897D01*
X9923808Y-14445403D01*
X9924606Y-14441609D01*
X9926128Y-14438045D01*
X9928317Y-14434846D01*
X9931087Y-14432135D01*
X9934333Y-14430017D01*
X9937930Y-14428573D01*
X9942347Y-14427744D01*
X10031311Y-14419961D01*
X10035805Y-14420010D01*
X10035805Y-14420010D01*
G37*
G36*
X7880147Y-14399572D02*
X7882663Y-14399987D01*
X7888664Y-14402246D01*
X7894664Y-14404504D01*
X7905554Y-14411276D01*
X7914914Y-14420042D01*
X7922383Y-14430466D01*
X7927398Y-14441534D01*
X7927676Y-14442146D01*
X7930588Y-14454635D01*
X7931007Y-14467452D01*
X7929442Y-14476933D01*
X7929442Y-14476934D01*
X7923991Y-14497277D01*
X7913551Y-14536237D01*
X7910823Y-14543487D01*
X7910166Y-14545231D01*
X7903394Y-14556121D01*
X7894628Y-14565481D01*
X7884205Y-14572950D01*
X7872524Y-14578242D01*
X7860035Y-14581154D01*
X7848086Y-14581546D01*
X7847219Y-14581574D01*
X7847219Y-14581574D01*
X7834567Y-14579485D01*
X7822565Y-14574968D01*
X7819320Y-14572950D01*
X7811675Y-14568196D01*
X7802316Y-14559430D01*
X7794846Y-14549007D01*
X7789554Y-14537326D01*
X7787432Y-14528224D01*
X7786642Y-14524837D01*
X7786222Y-14512021D01*
X7787788Y-14502539D01*
X7788179Y-14501078D01*
X7798809Y-14461407D01*
X7803678Y-14443236D01*
X7807063Y-14434241D01*
X7809336Y-14430586D01*
X7813835Y-14423351D01*
X7822601Y-14413992D01*
X7833025Y-14406522D01*
X7844706Y-14401230D01*
X7857194Y-14398318D01*
X7858033Y-14398290D01*
X7870010Y-14397898D01*
X7880147Y-14399572D01*
X7880147Y-14399572D01*
G37*
G36*
X7686962Y-14347808D02*
X7689478Y-14348223D01*
X7695479Y-14350482D01*
X7701479Y-14352740D01*
X7712369Y-14359512D01*
X7721729Y-14368278D01*
X7729198Y-14378702D01*
X7734290Y-14389940D01*
X7734490Y-14390382D01*
X7737402Y-14402871D01*
X7737822Y-14415688D01*
X7736557Y-14423351D01*
X7736256Y-14425170D01*
X7730284Y-14447460D01*
X7720366Y-14484473D01*
X7717005Y-14493403D01*
X7716981Y-14493467D01*
X7710209Y-14504357D01*
X7701443Y-14513717D01*
X7691020Y-14521186D01*
X7680948Y-14525750D01*
X7679339Y-14526479D01*
X7666850Y-14529391D01*
X7654901Y-14529782D01*
X7654034Y-14529810D01*
X7654034Y-14529810D01*
X7641382Y-14527721D01*
X7629380Y-14523204D01*
X7628558Y-14522693D01*
X7618490Y-14516432D01*
X7609131Y-14507666D01*
X7601661Y-14497243D01*
X7596369Y-14485562D01*
X7594748Y-14478611D01*
X7593457Y-14473073D01*
X7593037Y-14460257D01*
X7594603Y-14450775D01*
X7594609Y-14450752D01*
X7607439Y-14402871D01*
X7610493Y-14391472D01*
X7613878Y-14382477D01*
X7614831Y-14380945D01*
X7620650Y-14371587D01*
X7629416Y-14362228D01*
X7639840Y-14354758D01*
X7651521Y-14349466D01*
X7664008Y-14346554D01*
X7664848Y-14346527D01*
X7676825Y-14346134D01*
X7686962Y-14347808D01*
X7686962Y-14347808D01*
G37*
G36*
X7493776Y-14296044D02*
X7496293Y-14296460D01*
X7502293Y-14298718D01*
X7508294Y-14300977D01*
X7519184Y-14307748D01*
X7528543Y-14316514D01*
X7536013Y-14326938D01*
X7541105Y-14338176D01*
X7541305Y-14338619D01*
X7544217Y-14351107D01*
X7544637Y-14363924D01*
X7543372Y-14371587D01*
X7543071Y-14373406D01*
X7536210Y-14399011D01*
X7527181Y-14432709D01*
X7523796Y-14441703D01*
X7523796Y-14441704D01*
X7517024Y-14452594D01*
X7508258Y-14461953D01*
X7497834Y-14469422D01*
X7486579Y-14474522D01*
X7486154Y-14474715D01*
X7473665Y-14477627D01*
X7461716Y-14478018D01*
X7460849Y-14478046D01*
X7460849Y-14478046D01*
X7448196Y-14475957D01*
X7436195Y-14471441D01*
X7432949Y-14469422D01*
X7425305Y-14464669D01*
X7415945Y-14455903D01*
X7408476Y-14445479D01*
X7403184Y-14433799D01*
X7400944Y-14424194D01*
X7400272Y-14421310D01*
X7399852Y-14408493D01*
X7401418Y-14399011D01*
X7401716Y-14397898D01*
X7414253Y-14351107D01*
X7417308Y-14339708D01*
X7420693Y-14330714D01*
X7421646Y-14329181D01*
X7427465Y-14319824D01*
X7436231Y-14310464D01*
X7446655Y-14302995D01*
X7458335Y-14297702D01*
X7470823Y-14294790D01*
X7471662Y-14294763D01*
X7483640Y-14294371D01*
X7493776Y-14296044D01*
X7493776Y-14296044D01*
G37*
G36*
X7300591Y-14244280D02*
X7303107Y-14244696D01*
X7309108Y-14246954D01*
X7315109Y-14249213D01*
X7325999Y-14255985D01*
X7335358Y-14264751D01*
X7342828Y-14275174D01*
X7348120Y-14286855D01*
X7351032Y-14299344D01*
X7351452Y-14312160D01*
X7350523Y-14317782D01*
X7349886Y-14321642D01*
X7343025Y-14347247D01*
X7333996Y-14380946D01*
X7330611Y-14389940D01*
X7330611Y-14389940D01*
X7323839Y-14400830D01*
X7315073Y-14410189D01*
X7304649Y-14417659D01*
X7294341Y-14422329D01*
X7292969Y-14422951D01*
X7280480Y-14425863D01*
X7268531Y-14426254D01*
X7267664Y-14426283D01*
X7267663Y-14426283D01*
X7255011Y-14424194D01*
X7243010Y-14419677D01*
X7239764Y-14417658D01*
X7232120Y-14412905D01*
X7222760Y-14404139D01*
X7215291Y-14393715D01*
X7209998Y-14382035D01*
X7207087Y-14369546D01*
X7207086Y-14369546D01*
X7206667Y-14356729D01*
X7208232Y-14347248D01*
X7208531Y-14346135D01*
X7221068Y-14299344D01*
X7224123Y-14287944D01*
X7227508Y-14278950D01*
X7227508Y-14278950D01*
X7234280Y-14268060D01*
X7243046Y-14258700D01*
X7253469Y-14251231D01*
X7265150Y-14245938D01*
X7277638Y-14243026D01*
X7278477Y-14242999D01*
X7290455Y-14242607D01*
X7300591Y-14244280D01*
X7300591Y-14244280D01*
G37*
G36*
X7107406Y-14192517D02*
X7109922Y-14192932D01*
X7115923Y-14195191D01*
X7121924Y-14197449D01*
X7132814Y-14204221D01*
X7142173Y-14212987D01*
X7149643Y-14223410D01*
X7154935Y-14235091D01*
X7157847Y-14247580D01*
X7158122Y-14255985D01*
X7158266Y-14260396D01*
X7156701Y-14269879D01*
X7149840Y-14295483D01*
X7140811Y-14329182D01*
X7137426Y-14338176D01*
X7137426Y-14338176D01*
X7130654Y-14349066D01*
X7121888Y-14358425D01*
X7111464Y-14365895D01*
X7099784Y-14371187D01*
X7087295Y-14374099D01*
X7075346Y-14374490D01*
X7074478Y-14374519D01*
X7074478Y-14374519D01*
X7061826Y-14372430D01*
X7049825Y-14367913D01*
X7046579Y-14365895D01*
X7038935Y-14361141D01*
X7029575Y-14352375D01*
X7022106Y-14341951D01*
X7016813Y-14330271D01*
X7013901Y-14317782D01*
X7013901Y-14317782D01*
X7013482Y-14304966D01*
X7015047Y-14295484D01*
X7015346Y-14294371D01*
X7027883Y-14247580D01*
X7030937Y-14236180D01*
X7034323Y-14227186D01*
X7034323Y-14227186D01*
X7041095Y-14216296D01*
X7049861Y-14206936D01*
X7060284Y-14199467D01*
X7071965Y-14194174D01*
X7084453Y-14191263D01*
X7085292Y-14191235D01*
X7097270Y-14190843D01*
X7107406Y-14192517D01*
X7107406Y-14192517D01*
G37*
G36*
X9113547Y-14056306D02*
X9117414Y-14057480D01*
X9120978Y-14059385D01*
X9124102Y-14061948D01*
X9126665Y-14065072D01*
X9128570Y-14068636D01*
X9129744Y-14072503D01*
X9130200Y-14077139D01*
X9130200Y-14142261D01*
X9129744Y-14146897D01*
X9128570Y-14150764D01*
X9126665Y-14154328D01*
X9124102Y-14157452D01*
X9120978Y-14160015D01*
X9117414Y-14161920D01*
X9113547Y-14163093D01*
X9108911Y-14163550D01*
X9001289Y-14163550D01*
X8996653Y-14163093D01*
X8992786Y-14161920D01*
X8989222Y-14160015D01*
X8986098Y-14157452D01*
X8983535Y-14154328D01*
X8981630Y-14150764D01*
X8980457Y-14146897D01*
X8980000Y-14142261D01*
X8980000Y-14077139D01*
X8980457Y-14072503D01*
X8981630Y-14068636D01*
X8983535Y-14065072D01*
X8986098Y-14061948D01*
X8989222Y-14059385D01*
X8992786Y-14057480D01*
X8996653Y-14056306D01*
X9001289Y-14055850D01*
X9108911Y-14055850D01*
X9113547Y-14056306D01*
X9113547Y-14056306D01*
G37*
G36*
X9342147Y-14035756D02*
X9346014Y-14036930D01*
X9349578Y-14038835D01*
X9352702Y-14041398D01*
X9355265Y-14044522D01*
X9357170Y-14048086D01*
X9358344Y-14051953D01*
X9358800Y-14056589D01*
X9358800Y-14121711D01*
X9358344Y-14126347D01*
X9357170Y-14130214D01*
X9355265Y-14133778D01*
X9352702Y-14136902D01*
X9349578Y-14139465D01*
X9346014Y-14141370D01*
X9342147Y-14142543D01*
X9337511Y-14143000D01*
X9229889Y-14143000D01*
X9225253Y-14142543D01*
X9221386Y-14141370D01*
X9217822Y-14139465D01*
X9214698Y-14136902D01*
X9212135Y-14133778D01*
X9210230Y-14130214D01*
X9209057Y-14126347D01*
X9208600Y-14121711D01*
X9208600Y-14056589D01*
X9209057Y-14051953D01*
X9210230Y-14048086D01*
X9212135Y-14044522D01*
X9214698Y-14041398D01*
X9217822Y-14038835D01*
X9221386Y-14036930D01*
X9225253Y-14035756D01*
X9229889Y-14035300D01*
X9337511Y-14035300D01*
X9342147Y-14035756D01*
X9342147Y-14035756D01*
G37*
G36*
X9570747Y-14005506D02*
X9574614Y-14006680D01*
X9578178Y-14008585D01*
X9581302Y-14011148D01*
X9583865Y-14014272D01*
X9585770Y-14017836D01*
X9586944Y-14021703D01*
X9587400Y-14026339D01*
X9587400Y-14091461D01*
X9586944Y-14096097D01*
X9585770Y-14099964D01*
X9583865Y-14103528D01*
X9581302Y-14106652D01*
X9578178Y-14109215D01*
X9574614Y-14111120D01*
X9570747Y-14112293D01*
X9566111Y-14112750D01*
X9458489Y-14112750D01*
X9453853Y-14112293D01*
X9449986Y-14111120D01*
X9446422Y-14109215D01*
X9443298Y-14106652D01*
X9440735Y-14103528D01*
X9438830Y-14099964D01*
X9437657Y-14096097D01*
X9437200Y-14091461D01*
X9437200Y-14026339D01*
X9437657Y-14021703D01*
X9438830Y-14017836D01*
X9440735Y-14014272D01*
X9443298Y-14011148D01*
X9446422Y-14008585D01*
X9449986Y-14006680D01*
X9453853Y-14005506D01*
X9458489Y-14005050D01*
X9566111Y-14005050D01*
X9570747Y-14005506D01*
X9570747Y-14005506D01*
G37*
G36*
X6422436Y-13890525D02*
X6426120Y-13891731D01*
X6430036Y-13893935D01*
X6435505Y-13897764D01*
X6435506Y-13897765D01*
X6497721Y-13941328D01*
X6503191Y-13945158D01*
X6506601Y-13948084D01*
X6508994Y-13951133D01*
X6510746Y-13954590D01*
X6511790Y-13958323D01*
X6512086Y-13962188D01*
X6511622Y-13966036D01*
X6510416Y-13969720D01*
X6508212Y-13973636D01*
X6504382Y-13979106D01*
X6504382Y-13979106D01*
X6501255Y-13983571D01*
X6425442Y-14091844D01*
X6422516Y-14095254D01*
X6419467Y-14097647D01*
X6416009Y-14099399D01*
X6412276Y-14100443D01*
X6408411Y-14100739D01*
X6404564Y-14100275D01*
X6400880Y-14099069D01*
X6396964Y-14096865D01*
X6391495Y-14093036D01*
X6391494Y-14093035D01*
X6329279Y-14049472D01*
X6329279Y-14049472D01*
X6323809Y-14045641D01*
X6320399Y-14042716D01*
X6318006Y-14039667D01*
X6316254Y-14036209D01*
X6315210Y-14032476D01*
X6314914Y-14028611D01*
X6315378Y-14024764D01*
X6316584Y-14021079D01*
X6318788Y-14017164D01*
X6323000Y-14011148D01*
X6343621Y-13981699D01*
X6401558Y-13898956D01*
X6404484Y-13895546D01*
X6407533Y-13893153D01*
X6410990Y-13891401D01*
X6414723Y-13890357D01*
X6418588Y-13890061D01*
X6422436Y-13890525D01*
X6422436Y-13890525D01*
G37*
G36*
X9799347Y-13980106D02*
X9803214Y-13981280D01*
X9806778Y-13983185D01*
X9809902Y-13985748D01*
X9812465Y-13988872D01*
X9814370Y-13992436D01*
X9815544Y-13996303D01*
X9816000Y-14000939D01*
X9816000Y-14066061D01*
X9815544Y-14070697D01*
X9814370Y-14074564D01*
X9812465Y-14078128D01*
X9809902Y-14081252D01*
X9806778Y-14083815D01*
X9803214Y-14085720D01*
X9799347Y-14086893D01*
X9794711Y-14087350D01*
X9687089Y-14087350D01*
X9682453Y-14086893D01*
X9678586Y-14085720D01*
X9675022Y-14083815D01*
X9671898Y-14081252D01*
X9669335Y-14078128D01*
X9667430Y-14074564D01*
X9666257Y-14070697D01*
X9665800Y-14066061D01*
X9665800Y-14000939D01*
X9666257Y-13996303D01*
X9667430Y-13992436D01*
X9669335Y-13988872D01*
X9671898Y-13985748D01*
X9675022Y-13983185D01*
X9678586Y-13981280D01*
X9682453Y-13980106D01*
X9687089Y-13979650D01*
X9794711Y-13979650D01*
X9799347Y-13980106D01*
X9799347Y-13980106D01*
G37*
G36*
X10040647Y-13967406D02*
X10044514Y-13968580D01*
X10048078Y-13970485D01*
X10051202Y-13973048D01*
X10053765Y-13976172D01*
X10055670Y-13979736D01*
X10056844Y-13983603D01*
X10057300Y-13988239D01*
X10057300Y-14053361D01*
X10056844Y-14057997D01*
X10055670Y-14061864D01*
X10053765Y-14065428D01*
X10051202Y-14068552D01*
X10048078Y-14071115D01*
X10044514Y-14073020D01*
X10040647Y-14074193D01*
X10036011Y-14074650D01*
X9928389Y-14074650D01*
X9923753Y-14074193D01*
X9919886Y-14073020D01*
X9916322Y-14071115D01*
X9913198Y-14068552D01*
X9910635Y-14065428D01*
X9908730Y-14061864D01*
X9907557Y-14057997D01*
X9907100Y-14053361D01*
X9907100Y-13988239D01*
X9907557Y-13983603D01*
X9908730Y-13979736D01*
X9910635Y-13976172D01*
X9913198Y-13973048D01*
X9916322Y-13970485D01*
X9919886Y-13968580D01*
X9923753Y-13967406D01*
X9928389Y-13966950D01*
X10036011Y-13966950D01*
X10040647Y-13967406D01*
X10040647Y-13967406D01*
G37*
G36*
X9113547Y-13868806D02*
X9117414Y-13869980D01*
X9120978Y-13871885D01*
X9124102Y-13874448D01*
X9126665Y-13877572D01*
X9128570Y-13881136D01*
X9129744Y-13885003D01*
X9130200Y-13889639D01*
X9130200Y-13954761D01*
X9129744Y-13959397D01*
X9128570Y-13963264D01*
X9126665Y-13966828D01*
X9124102Y-13969952D01*
X9120978Y-13972515D01*
X9117414Y-13974420D01*
X9113547Y-13975593D01*
X9108911Y-13976050D01*
X9001289Y-13976050D01*
X8996653Y-13975593D01*
X8992786Y-13974420D01*
X8989222Y-13972515D01*
X8986098Y-13969952D01*
X8983535Y-13966828D01*
X8981630Y-13963264D01*
X8980457Y-13959397D01*
X8980000Y-13954761D01*
X8980000Y-13889639D01*
X8980457Y-13885003D01*
X8981630Y-13881136D01*
X8983535Y-13877572D01*
X8986098Y-13874448D01*
X8989222Y-13871885D01*
X8992786Y-13869980D01*
X8996653Y-13868806D01*
X9001289Y-13868350D01*
X9108911Y-13868350D01*
X9113547Y-13868806D01*
X9113547Y-13868806D01*
G37*
G36*
X6273236Y-13793526D02*
X6279601Y-13794294D01*
X6291789Y-13798283D01*
X6302963Y-13804573D01*
X6302964Y-13804573D01*
X6311859Y-13812205D01*
X6312696Y-13812923D01*
X6316328Y-13817550D01*
X6320613Y-13823011D01*
X6326410Y-13834449D01*
X6326410Y-13834449D01*
X6326410Y-13834449D01*
X6329864Y-13846799D01*
X6330211Y-13851335D01*
X6330842Y-13859585D01*
X6330722Y-13860586D01*
X6329307Y-13872316D01*
X6325318Y-13884504D01*
X6325318Y-13884504D01*
X6320604Y-13892879D01*
X6285389Y-13943170D01*
X6279131Y-13950465D01*
X6269044Y-13958382D01*
X6257605Y-13964178D01*
X6257605Y-13964179D01*
X6257605Y-13964179D01*
X6245255Y-13967632D01*
X6232469Y-13968611D01*
X6232469Y-13968611D01*
X6219738Y-13967076D01*
X6207551Y-13963086D01*
X6199089Y-13958323D01*
X6196376Y-13956796D01*
X6196376Y-13956796D01*
X6196375Y-13956796D01*
X6186643Y-13948447D01*
X6178726Y-13938359D01*
X6172929Y-13926920D01*
X6171889Y-13923200D01*
X6169475Y-13914570D01*
X6168497Y-13901784D01*
X6168785Y-13899393D01*
X6170032Y-13889053D01*
X6171357Y-13885003D01*
X6174021Y-13876866D01*
X6178736Y-13868491D01*
X6202225Y-13834944D01*
X6213950Y-13818199D01*
X6220208Y-13810904D01*
X6230296Y-13802988D01*
X6241734Y-13797191D01*
X6241734Y-13797191D01*
X6254084Y-13793737D01*
X6266870Y-13792759D01*
X6266870Y-13792759D01*
X6273236Y-13793526D01*
X6273236Y-13793526D01*
G37*
G36*
X9342147Y-13848256D02*
X9346014Y-13849430D01*
X9349578Y-13851335D01*
X9352702Y-13853898D01*
X9355265Y-13857022D01*
X9357170Y-13860586D01*
X9358344Y-13864453D01*
X9358800Y-13869089D01*
X9358800Y-13934211D01*
X9358344Y-13938847D01*
X9357170Y-13942714D01*
X9355265Y-13946278D01*
X9352702Y-13949402D01*
X9349578Y-13951965D01*
X9346014Y-13953870D01*
X9342147Y-13955043D01*
X9337511Y-13955500D01*
X9229889Y-13955500D01*
X9225253Y-13955043D01*
X9221386Y-13953870D01*
X9217822Y-13951965D01*
X9214698Y-13949402D01*
X9212135Y-13946278D01*
X9210230Y-13942714D01*
X9209057Y-13938847D01*
X9208600Y-13934211D01*
X9208600Y-13869089D01*
X9209057Y-13864453D01*
X9210230Y-13860586D01*
X9212135Y-13857022D01*
X9214698Y-13853898D01*
X9217822Y-13851335D01*
X9221386Y-13849430D01*
X9225253Y-13848256D01*
X9229889Y-13847800D01*
X9337511Y-13847800D01*
X9342147Y-13848256D01*
X9342147Y-13848256D01*
G37*
G36*
X9570747Y-13818006D02*
X9574614Y-13819180D01*
X9578178Y-13821085D01*
X9581302Y-13823648D01*
X9583865Y-13826772D01*
X9585770Y-13830336D01*
X9586944Y-13834203D01*
X9587400Y-13838839D01*
X9587400Y-13903961D01*
X9586944Y-13908597D01*
X9585770Y-13912464D01*
X9583865Y-13916028D01*
X9581302Y-13919152D01*
X9578178Y-13921715D01*
X9574614Y-13923620D01*
X9570747Y-13924793D01*
X9566111Y-13925250D01*
X9458489Y-13925250D01*
X9453853Y-13924793D01*
X9449986Y-13923620D01*
X9446422Y-13921715D01*
X9443298Y-13919152D01*
X9440735Y-13916028D01*
X9438830Y-13912464D01*
X9437657Y-13908597D01*
X9437200Y-13903961D01*
X9437200Y-13838839D01*
X9437657Y-13834203D01*
X9438830Y-13830336D01*
X9440735Y-13826772D01*
X9443298Y-13823648D01*
X9446422Y-13821085D01*
X9449986Y-13819180D01*
X9453853Y-13818006D01*
X9458489Y-13817550D01*
X9566111Y-13817550D01*
X9570747Y-13818006D01*
X9570747Y-13818006D01*
G37*
G36*
X9799347Y-13792606D02*
X9803214Y-13793780D01*
X9806778Y-13795685D01*
X9809902Y-13798248D01*
X9812465Y-13801372D01*
X9814370Y-13804936D01*
X9815544Y-13808803D01*
X9816000Y-13813439D01*
X9816000Y-13878561D01*
X9815544Y-13883197D01*
X9814370Y-13887064D01*
X9812465Y-13890628D01*
X9809902Y-13893752D01*
X9806778Y-13896315D01*
X9803214Y-13898220D01*
X9799347Y-13899393D01*
X9794711Y-13899850D01*
X9687089Y-13899850D01*
X9682453Y-13899393D01*
X9678586Y-13898220D01*
X9675022Y-13896315D01*
X9671898Y-13893752D01*
X9669335Y-13890628D01*
X9667430Y-13887064D01*
X9666257Y-13883197D01*
X9665800Y-13878561D01*
X9665800Y-13813439D01*
X9666257Y-13808803D01*
X9667430Y-13804936D01*
X9669335Y-13801372D01*
X9671898Y-13798248D01*
X9675022Y-13795685D01*
X9678586Y-13793780D01*
X9682453Y-13792606D01*
X9687089Y-13792150D01*
X9794711Y-13792150D01*
X9799347Y-13792606D01*
X9799347Y-13792606D01*
G37*
G36*
X10040647Y-13779906D02*
X10044514Y-13781080D01*
X10048078Y-13782985D01*
X10051202Y-13785548D01*
X10053765Y-13788672D01*
X10055670Y-13792236D01*
X10056844Y-13796103D01*
X10057300Y-13800739D01*
X10057300Y-13865861D01*
X10056844Y-13870497D01*
X10055670Y-13874364D01*
X10053765Y-13877928D01*
X10051202Y-13881052D01*
X10048078Y-13883615D01*
X10044514Y-13885520D01*
X10040647Y-13886693D01*
X10036011Y-13887150D01*
X9928389Y-13887150D01*
X9923753Y-13886693D01*
X9919886Y-13885520D01*
X9916322Y-13883615D01*
X9913198Y-13881052D01*
X9910635Y-13877928D01*
X9908730Y-13874364D01*
X9907557Y-13870497D01*
X9907100Y-13865861D01*
X9907100Y-13800739D01*
X9907557Y-13796103D01*
X9908730Y-13792236D01*
X9910635Y-13788672D01*
X9913198Y-13785548D01*
X9916322Y-13782985D01*
X9919886Y-13781080D01*
X9923753Y-13779906D01*
X9928389Y-13779450D01*
X10036011Y-13779450D01*
X10040647Y-13779906D01*
X10040647Y-13779906D01*
G37*
G36*
X6109405Y-13678811D02*
X6115771Y-13679578D01*
X6127958Y-13683568D01*
X6139133Y-13689858D01*
X6139133Y-13689858D01*
X6148866Y-13698207D01*
X6156783Y-13708295D01*
X6162580Y-13719734D01*
X6162580Y-13719734D01*
X6162580Y-13719734D01*
X6166034Y-13732084D01*
X6167012Y-13744870D01*
X6165477Y-13757601D01*
X6161488Y-13769788D01*
X6161487Y-13769789D01*
X6156773Y-13778163D01*
X6121559Y-13828455D01*
X6115301Y-13835750D01*
X6105213Y-13843666D01*
X6093775Y-13849463D01*
X6093775Y-13849463D01*
X6093774Y-13849463D01*
X6081425Y-13852917D01*
X6068639Y-13853895D01*
X6068638Y-13853895D01*
X6055907Y-13852360D01*
X6043720Y-13848371D01*
X6040927Y-13846799D01*
X6032545Y-13842081D01*
X6032545Y-13842081D01*
X6032545Y-13842081D01*
X6022812Y-13833731D01*
X6014895Y-13823643D01*
X6009099Y-13812205D01*
X6005645Y-13799855D01*
X6005522Y-13798248D01*
X6004666Y-13787069D01*
X6004850Y-13785548D01*
X6006201Y-13774338D01*
X6007691Y-13769789D01*
X6010191Y-13762150D01*
X6014905Y-13753775D01*
X6038395Y-13720228D01*
X6050120Y-13703484D01*
X6056378Y-13696189D01*
X6066465Y-13688272D01*
X6077904Y-13682476D01*
X6077904Y-13682475D01*
X6090253Y-13679022D01*
X6103040Y-13678043D01*
X6103040Y-13678043D01*
X6109405Y-13678811D01*
X6109405Y-13678811D01*
G37*
G36*
X5945575Y-13564096D02*
X5951941Y-13564863D01*
X5964128Y-13568852D01*
X5975303Y-13575143D01*
X5975303Y-13575143D01*
X5985035Y-13583492D01*
X5992953Y-13593580D01*
X5998749Y-13605018D01*
X5998749Y-13605019D01*
X5998749Y-13605019D01*
X6002203Y-13617368D01*
X6003181Y-13630154D01*
X6001646Y-13642886D01*
X5997657Y-13655073D01*
X5997657Y-13655073D01*
X5992943Y-13663448D01*
X5957728Y-13713739D01*
X5951470Y-13721034D01*
X5941383Y-13728951D01*
X5929944Y-13734748D01*
X5929944Y-13734748D01*
X5929944Y-13734748D01*
X5917594Y-13738202D01*
X5904808Y-13739180D01*
X5904808Y-13739180D01*
X5892077Y-13737645D01*
X5879890Y-13733656D01*
X5877097Y-13732084D01*
X5868715Y-13727365D01*
X5868715Y-13727365D01*
X5868715Y-13727365D01*
X5858982Y-13719016D01*
X5851065Y-13708928D01*
X5845268Y-13697490D01*
X5841814Y-13685140D01*
X5841694Y-13683568D01*
X5840836Y-13672354D01*
X5842371Y-13659622D01*
X5846360Y-13647435D01*
X5851075Y-13639060D01*
X5874565Y-13605513D01*
X5886289Y-13588769D01*
X5891431Y-13582775D01*
X5892547Y-13581474D01*
X5892547Y-13581474D01*
X5902635Y-13573557D01*
X5914073Y-13567760D01*
X5914073Y-13567760D01*
X5926423Y-13564306D01*
X5939209Y-13563328D01*
X5939209Y-13563328D01*
X5945575Y-13564096D01*
X5945575Y-13564096D01*
G37*
G36*
X5781744Y-13449380D02*
X5788110Y-13450148D01*
X5800297Y-13454137D01*
X5811472Y-13460427D01*
X5811472Y-13460428D01*
X5821205Y-13468777D01*
X5829122Y-13478865D01*
X5834919Y-13490303D01*
X5834919Y-13490303D01*
X5834919Y-13490303D01*
X5838373Y-13502653D01*
X5839351Y-13515439D01*
X5837816Y-13528171D01*
X5833827Y-13540358D01*
X5833827Y-13540358D01*
X5829112Y-13548733D01*
X5793898Y-13599024D01*
X5793898Y-13599024D01*
X5788756Y-13605019D01*
X5787640Y-13606319D01*
X5777552Y-13614236D01*
X5766114Y-13620033D01*
X5766114Y-13620033D01*
X5766114Y-13620033D01*
X5753764Y-13623487D01*
X5740978Y-13624465D01*
X5740978Y-13624465D01*
X5728247Y-13622930D01*
X5716059Y-13618941D01*
X5716059Y-13618940D01*
X5704884Y-13612650D01*
X5704884Y-13612650D01*
X5704884Y-13612650D01*
X5695152Y-13604301D01*
X5687235Y-13594213D01*
X5681438Y-13582775D01*
X5681074Y-13581474D01*
X5677984Y-13570425D01*
X5677006Y-13557639D01*
X5678541Y-13544907D01*
X5682530Y-13532720D01*
X5687244Y-13524345D01*
X5710734Y-13490798D01*
X5722459Y-13474053D01*
X5728717Y-13466759D01*
X5738804Y-13458842D01*
X5750243Y-13453045D01*
X5750243Y-13453045D01*
X5762593Y-13449591D01*
X5775379Y-13448613D01*
X5775379Y-13448613D01*
X5781744Y-13449380D01*
X5781744Y-13449380D01*
G37*
G36*
X5617914Y-13334665D02*
X5624280Y-13335433D01*
X5636467Y-13339422D01*
X5647642Y-13345712D01*
X5647642Y-13345712D01*
X5657375Y-13354061D01*
X5665292Y-13364150D01*
X5671088Y-13375588D01*
X5671089Y-13375588D01*
X5671089Y-13375588D01*
X5674542Y-13387938D01*
X5675521Y-13400724D01*
X5673986Y-13413455D01*
X5669996Y-13425643D01*
X5669996Y-13425643D01*
X5665282Y-13434018D01*
X5630068Y-13484309D01*
X5623810Y-13491604D01*
X5613722Y-13499521D01*
X5602284Y-13505317D01*
X5602283Y-13505317D01*
X5602283Y-13505317D01*
X5589934Y-13508771D01*
X5577148Y-13509750D01*
X5577147Y-13509750D01*
X5564416Y-13508215D01*
X5552229Y-13504225D01*
X5549436Y-13502653D01*
X5541054Y-13497935D01*
X5541054Y-13497935D01*
X5541054Y-13497935D01*
X5531321Y-13489585D01*
X5523404Y-13479498D01*
X5517608Y-13468059D01*
X5514154Y-13455709D01*
X5514033Y-13454137D01*
X5513175Y-13442923D01*
X5514710Y-13430192D01*
X5518700Y-13418005D01*
X5523414Y-13409629D01*
X5546904Y-13376083D01*
X5558628Y-13359338D01*
X5564886Y-13352043D01*
X5574974Y-13344126D01*
X5586412Y-13338330D01*
X5586413Y-13338330D01*
X5598762Y-13334876D01*
X5611548Y-13333898D01*
X5611549Y-13333898D01*
X5617914Y-13334665D01*
X5617914Y-13334665D01*
G37*
G36*
X5112179Y-12866267D02*
X5115776Y-12867711D01*
X5119022Y-12869829D01*
X5122234Y-12872972D01*
X5141837Y-12896334D01*
X5175346Y-12936268D01*
X5175346Y-12936269D01*
X5179638Y-12941384D01*
X5182175Y-12945092D01*
X5183697Y-12948657D01*
X5184495Y-12952450D01*
X5184537Y-12956326D01*
X5183822Y-12960136D01*
X5182378Y-12963733D01*
X5180260Y-12966979D01*
X5177118Y-12970191D01*
X5172003Y-12974483D01*
X5172002Y-12974483D01*
X5071689Y-13058656D01*
X5071688Y-13058656D01*
X5066573Y-13062949D01*
X5062865Y-13065485D01*
X5059300Y-13067007D01*
X5055507Y-13067805D01*
X5051631Y-13067847D01*
X5047821Y-13067133D01*
X5044224Y-13065688D01*
X5040978Y-13063570D01*
X5037767Y-13060428D01*
X5014123Y-13032251D01*
X4984654Y-12997132D01*
X4984654Y-12997131D01*
X4980362Y-12992016D01*
X4977825Y-12988308D01*
X4976303Y-12984743D01*
X4975505Y-12980950D01*
X4975463Y-12977074D01*
X4976178Y-12973264D01*
X4977622Y-12969667D01*
X4979740Y-12966421D01*
X4982882Y-12963209D01*
X4987997Y-12958917D01*
X4987998Y-12958917D01*
X5088311Y-12874744D01*
X5088312Y-12874744D01*
X5093427Y-12870451D01*
X5097135Y-12867915D01*
X5100700Y-12866392D01*
X5104493Y-12865595D01*
X5108369Y-12865552D01*
X5112179Y-12866267D01*
X5112179Y-12866267D01*
G37*
G36*
X6538844Y-12724852D02*
X6545463Y-12725504D01*
X6556785Y-12728938D01*
X6562447Y-12730656D01*
X6575728Y-12737755D01*
X6578099Y-12739022D01*
X6580217Y-12740760D01*
X6591819Y-12750281D01*
X6600145Y-12760427D01*
X6603078Y-12764001D01*
X6603078Y-12764001D01*
X6611444Y-12779653D01*
X6613162Y-12785315D01*
X6616596Y-12796637D01*
X6618336Y-12814300D01*
X6616596Y-12831963D01*
X6614677Y-12838289D01*
X6611444Y-12848947D01*
X6610433Y-12850838D01*
X6603078Y-12864599D01*
X6601709Y-12866267D01*
X6591819Y-12878319D01*
X6581673Y-12886645D01*
X6578099Y-12889578D01*
X6578099Y-12889578D01*
X6562447Y-12897944D01*
X6556785Y-12899662D01*
X6545463Y-12903096D01*
X6538844Y-12903748D01*
X6532226Y-12904400D01*
X6523374Y-12904400D01*
X6516756Y-12903748D01*
X6510137Y-12903096D01*
X6498815Y-12899662D01*
X6493153Y-12897944D01*
X6477501Y-12889578D01*
X6477501Y-12889578D01*
X6473927Y-12886645D01*
X6463781Y-12878319D01*
X6453891Y-12866267D01*
X6452522Y-12864599D01*
X6445167Y-12850838D01*
X6444156Y-12848947D01*
X6440923Y-12838289D01*
X6439004Y-12831963D01*
X6437264Y-12814300D01*
X6439004Y-12796637D01*
X6442438Y-12785315D01*
X6444156Y-12779653D01*
X6452522Y-12764001D01*
X6452522Y-12764001D01*
X6455455Y-12760427D01*
X6463781Y-12750281D01*
X6475383Y-12740760D01*
X6477501Y-12739022D01*
X6479872Y-12737755D01*
X6493153Y-12730656D01*
X6498815Y-12728938D01*
X6510137Y-12725504D01*
X6516756Y-12724852D01*
X6523374Y-12724200D01*
X6532226Y-12724200D01*
X6538844Y-12724852D01*
X6538844Y-12724852D01*
G37*
G36*
X6792844Y-12724852D02*
X6799463Y-12725504D01*
X6810785Y-12728938D01*
X6816447Y-12730656D01*
X6829728Y-12737755D01*
X6832099Y-12739022D01*
X6834217Y-12740760D01*
X6845819Y-12750281D01*
X6854145Y-12760427D01*
X6857078Y-12764001D01*
X6857078Y-12764001D01*
X6865444Y-12779653D01*
X6867162Y-12785315D01*
X6870596Y-12796637D01*
X6872336Y-12814300D01*
X6870596Y-12831963D01*
X6868677Y-12838289D01*
X6865444Y-12848947D01*
X6864433Y-12850838D01*
X6857078Y-12864599D01*
X6855709Y-12866267D01*
X6845819Y-12878319D01*
X6835673Y-12886645D01*
X6832099Y-12889578D01*
X6832099Y-12889578D01*
X6816447Y-12897944D01*
X6810785Y-12899662D01*
X6799463Y-12903096D01*
X6792844Y-12903748D01*
X6786226Y-12904400D01*
X6777374Y-12904400D01*
X6770756Y-12903748D01*
X6764137Y-12903096D01*
X6752815Y-12899662D01*
X6747153Y-12897944D01*
X6731501Y-12889578D01*
X6731501Y-12889578D01*
X6727927Y-12886645D01*
X6717781Y-12878319D01*
X6707891Y-12866267D01*
X6706522Y-12864599D01*
X6699167Y-12850838D01*
X6698156Y-12848947D01*
X6694923Y-12838289D01*
X6693004Y-12831963D01*
X6691264Y-12814300D01*
X6693004Y-12796637D01*
X6696438Y-12785315D01*
X6698156Y-12779653D01*
X6706522Y-12764001D01*
X6706522Y-12764001D01*
X6709455Y-12760427D01*
X6717781Y-12750281D01*
X6729383Y-12740760D01*
X6731501Y-12739022D01*
X6733872Y-12737755D01*
X6747153Y-12730656D01*
X6752815Y-12728938D01*
X6764137Y-12725504D01*
X6770756Y-12724852D01*
X6777374Y-12724200D01*
X6786226Y-12724200D01*
X6792844Y-12724852D01*
X6792844Y-12724852D01*
G37*
G36*
X4990814Y-12733013D02*
X4999445Y-12736478D01*
X5002714Y-12737791D01*
X5005718Y-12739751D01*
X5013453Y-12744798D01*
X5018090Y-12749335D01*
X5022620Y-12753767D01*
X5029621Y-12764001D01*
X5029860Y-12764350D01*
X5034896Y-12776144D01*
X5037535Y-12788693D01*
X5037675Y-12801516D01*
X5035310Y-12814119D01*
X5030532Y-12826020D01*
X5023525Y-12836759D01*
X5016804Y-12843629D01*
X4969773Y-12883092D01*
X4961840Y-12888519D01*
X4950047Y-12893555D01*
X4937498Y-12896194D01*
X4924675Y-12896334D01*
X4924675Y-12896334D01*
X4912071Y-12893969D01*
X4900171Y-12889192D01*
X4894632Y-12885577D01*
X4889432Y-12882184D01*
X4880266Y-12873216D01*
X4880266Y-12873215D01*
X4873025Y-12862632D01*
X4867989Y-12850838D01*
X4867591Y-12848947D01*
X4865350Y-12838289D01*
X4865210Y-12825467D01*
X4867575Y-12812863D01*
X4867575Y-12812863D01*
X4872352Y-12800963D01*
X4875967Y-12795424D01*
X4879360Y-12790223D01*
X4886082Y-12783354D01*
X4933112Y-12743890D01*
X4941045Y-12738463D01*
X4950333Y-12734497D01*
X4952838Y-12733427D01*
X4965387Y-12730788D01*
X4971798Y-12730718D01*
X4978210Y-12730648D01*
X4978210Y-12730648D01*
X4990814Y-12733013D01*
X4990814Y-12733013D01*
G37*
G36*
X4860998Y-12579568D02*
X4862256Y-12579804D01*
X4874156Y-12584582D01*
X4884896Y-12591589D01*
X4888327Y-12594947D01*
X4894062Y-12600558D01*
X4900931Y-12610599D01*
X4901302Y-12611142D01*
X4905433Y-12620816D01*
X4906338Y-12622935D01*
X4908977Y-12635484D01*
X4909117Y-12648307D01*
X4908422Y-12652015D01*
X4906753Y-12660910D01*
X4901975Y-12672811D01*
X4894967Y-12683550D01*
X4888246Y-12690420D01*
X4841215Y-12729883D01*
X4833283Y-12735310D01*
X4821490Y-12740346D01*
X4808940Y-12742985D01*
X4796118Y-12743125D01*
X4796118Y-12743125D01*
X4783514Y-12740760D01*
X4771614Y-12735983D01*
X4766075Y-12732368D01*
X4760874Y-12728975D01*
X4751708Y-12720007D01*
X4751708Y-12720007D01*
X4744468Y-12709423D01*
X4739432Y-12697630D01*
X4738234Y-12691932D01*
X4736793Y-12685080D01*
X4736653Y-12672258D01*
X4736653Y-12672258D01*
X4739017Y-12659654D01*
X4743795Y-12647754D01*
X4748503Y-12640538D01*
X4750803Y-12637014D01*
X4757524Y-12630145D01*
X4804555Y-12590681D01*
X4812487Y-12585255D01*
X4821132Y-12581563D01*
X4824281Y-12580218D01*
X4836829Y-12577579D01*
X4843241Y-12577510D01*
X4849652Y-12577440D01*
X4849653Y-12577440D01*
X4860998Y-12579568D01*
X4860998Y-12579568D01*
G37*
G36*
X5461582Y-12575854D02*
X5465332Y-12577360D01*
X5468716Y-12579568D01*
X5472046Y-12582825D01*
X5475668Y-12587142D01*
X5475669Y-12587143D01*
X5537601Y-12660951D01*
X5541224Y-12665269D01*
X5543854Y-12669113D01*
X5545441Y-12672830D01*
X5546272Y-12676784D01*
X5546317Y-12680826D01*
X5545572Y-12684797D01*
X5544066Y-12688548D01*
X5541858Y-12691932D01*
X5538600Y-12695261D01*
X5534283Y-12698884D01*
X5534282Y-12698884D01*
X5493031Y-12733498D01*
X5493031Y-12733498D01*
X5488714Y-12737121D01*
X5484869Y-12739751D01*
X5481152Y-12741338D01*
X5477198Y-12742170D01*
X5473157Y-12742214D01*
X5469185Y-12741469D01*
X5465435Y-12739963D01*
X5462050Y-12737755D01*
X5458721Y-12734497D01*
X5455099Y-12730180D01*
X5455098Y-12730180D01*
X5393166Y-12656371D01*
X5393166Y-12656371D01*
X5389543Y-12652054D01*
X5386913Y-12648209D01*
X5385326Y-12644493D01*
X5384494Y-12640538D01*
X5384450Y-12636497D01*
X5385195Y-12632525D01*
X5386701Y-12628775D01*
X5388909Y-12625391D01*
X5392167Y-12622061D01*
X5396484Y-12618439D01*
X5396484Y-12618438D01*
X5437736Y-12583824D01*
X5437736Y-12583824D01*
X5442053Y-12580202D01*
X5445898Y-12577572D01*
X5449614Y-12575984D01*
X5453569Y-12575153D01*
X5457610Y-12575109D01*
X5461582Y-12575854D01*
X5461582Y-12575854D01*
G37*
G36*
X6538844Y-12470852D02*
X6545463Y-12471504D01*
X6556785Y-12474938D01*
X6562447Y-12476656D01*
X6576309Y-12484065D01*
X6578099Y-12485022D01*
X6581673Y-12487955D01*
X6591819Y-12496281D01*
X6598865Y-12504868D01*
X6603078Y-12510001D01*
X6603078Y-12510001D01*
X6611444Y-12525653D01*
X6613162Y-12531315D01*
X6616596Y-12542637D01*
X6618336Y-12560300D01*
X6616596Y-12577963D01*
X6613811Y-12587143D01*
X6611444Y-12594947D01*
X6608445Y-12600558D01*
X6603078Y-12610599D01*
X6600822Y-12613348D01*
X6591819Y-12624319D01*
X6583032Y-12631530D01*
X6578099Y-12635578D01*
X6578099Y-12635578D01*
X6562447Y-12643944D01*
X6556785Y-12645662D01*
X6545463Y-12649096D01*
X6538844Y-12649748D01*
X6532226Y-12650400D01*
X6523374Y-12650400D01*
X6516756Y-12649748D01*
X6510137Y-12649096D01*
X6498815Y-12645662D01*
X6493153Y-12643944D01*
X6477501Y-12635578D01*
X6477501Y-12635578D01*
X6472568Y-12631530D01*
X6463781Y-12624319D01*
X6454778Y-12613348D01*
X6452522Y-12610599D01*
X6447155Y-12600558D01*
X6444156Y-12594947D01*
X6441788Y-12587143D01*
X6439004Y-12577963D01*
X6437264Y-12560300D01*
X6439004Y-12542637D01*
X6442438Y-12531315D01*
X6444156Y-12525653D01*
X6452522Y-12510001D01*
X6452522Y-12510001D01*
X6456735Y-12504868D01*
X6463781Y-12496281D01*
X6473927Y-12487955D01*
X6477501Y-12485022D01*
X6479291Y-12484065D01*
X6493153Y-12476656D01*
X6498815Y-12474938D01*
X6510137Y-12471504D01*
X6516756Y-12470852D01*
X6523374Y-12470200D01*
X6532226Y-12470200D01*
X6538844Y-12470852D01*
X6538844Y-12470852D01*
G37*
G36*
X6792844Y-12470852D02*
X6799463Y-12471504D01*
X6810785Y-12474938D01*
X6816447Y-12476656D01*
X6830309Y-12484065D01*
X6832099Y-12485022D01*
X6835673Y-12487955D01*
X6845819Y-12496281D01*
X6852865Y-12504868D01*
X6857078Y-12510001D01*
X6857078Y-12510001D01*
X6865444Y-12525653D01*
X6867162Y-12531315D01*
X6870596Y-12542637D01*
X6872336Y-12560300D01*
X6870596Y-12577963D01*
X6867811Y-12587143D01*
X6865444Y-12594947D01*
X6862445Y-12600558D01*
X6857078Y-12610599D01*
X6854822Y-12613348D01*
X6845819Y-12624319D01*
X6837032Y-12631530D01*
X6832099Y-12635578D01*
X6832099Y-12635578D01*
X6816447Y-12643944D01*
X6810785Y-12645662D01*
X6799463Y-12649096D01*
X6792844Y-12649748D01*
X6786226Y-12650400D01*
X6777374Y-12650400D01*
X6770756Y-12649748D01*
X6764137Y-12649096D01*
X6752815Y-12645662D01*
X6747153Y-12643944D01*
X6731501Y-12635578D01*
X6731501Y-12635578D01*
X6726568Y-12631530D01*
X6717781Y-12624319D01*
X6708778Y-12613348D01*
X6706522Y-12610599D01*
X6701155Y-12600558D01*
X6698156Y-12594947D01*
X6695788Y-12587143D01*
X6693004Y-12577963D01*
X6691264Y-12560300D01*
X6693004Y-12542637D01*
X6696438Y-12531315D01*
X6698156Y-12525653D01*
X6706522Y-12510001D01*
X6706522Y-12510001D01*
X6710735Y-12504868D01*
X6717781Y-12496281D01*
X6727927Y-12487955D01*
X6731501Y-12485022D01*
X6733291Y-12484065D01*
X6747153Y-12476656D01*
X6752815Y-12474938D01*
X6764137Y-12471504D01*
X6770756Y-12470852D01*
X6777374Y-12470200D01*
X6786226Y-12470200D01*
X6792844Y-12470852D01*
X6792844Y-12470852D01*
G37*
G36*
X5605215Y-12455331D02*
X5608965Y-12456837D01*
X5612350Y-12459045D01*
X5615679Y-12462303D01*
X5619301Y-12466620D01*
X5619302Y-12466620D01*
X5669663Y-12526638D01*
X5684857Y-12544746D01*
X5687487Y-12548591D01*
X5689074Y-12552307D01*
X5689906Y-12556262D01*
X5689950Y-12560303D01*
X5689205Y-12564275D01*
X5687699Y-12568025D01*
X5685491Y-12571409D01*
X5682233Y-12574739D01*
X5677916Y-12578361D01*
X5677916Y-12578362D01*
X5636664Y-12612976D01*
X5636664Y-12612976D01*
X5632347Y-12616598D01*
X5628502Y-12619228D01*
X5624786Y-12620816D01*
X5620831Y-12621647D01*
X5616790Y-12621691D01*
X5612818Y-12620946D01*
X5609068Y-12619440D01*
X5605684Y-12617232D01*
X5602354Y-12613974D01*
X5598732Y-12609657D01*
X5598731Y-12609657D01*
X5536799Y-12535849D01*
X5536799Y-12535848D01*
X5533176Y-12531531D01*
X5530546Y-12527686D01*
X5528959Y-12523970D01*
X5528128Y-12520016D01*
X5528083Y-12515974D01*
X5528829Y-12512003D01*
X5530334Y-12508252D01*
X5532543Y-12504868D01*
X5535800Y-12501539D01*
X5540117Y-12497916D01*
X5540118Y-12497916D01*
X5581369Y-12463302D01*
X5581369Y-12463301D01*
X5585686Y-12459679D01*
X5589531Y-12457049D01*
X5593248Y-12455462D01*
X5597202Y-12454630D01*
X5601243Y-12454586D01*
X5605215Y-12455331D01*
X5605215Y-12455331D01*
G37*
G36*
X5177798Y-12248893D02*
X5181549Y-12250398D01*
X5184933Y-12252607D01*
X5188262Y-12255864D01*
X5191885Y-12260181D01*
X5191885Y-12260182D01*
X5237912Y-12315034D01*
X5257440Y-12338307D01*
X5260071Y-12342152D01*
X5261658Y-12345869D01*
X5262489Y-12349823D01*
X5262533Y-12353864D01*
X5261788Y-12357836D01*
X5260282Y-12361586D01*
X5258074Y-12364971D01*
X5254817Y-12368300D01*
X5250500Y-12371922D01*
X5250499Y-12371923D01*
X5209248Y-12406537D01*
X5209247Y-12406537D01*
X5204930Y-12410160D01*
X5201086Y-12412790D01*
X5197369Y-12414377D01*
X5193415Y-12415208D01*
X5189373Y-12415252D01*
X5185402Y-12414507D01*
X5181651Y-12413002D01*
X5178267Y-12410793D01*
X5174938Y-12407536D01*
X5171315Y-12403219D01*
X5171315Y-12403218D01*
X5109382Y-12329410D01*
X5109382Y-12329410D01*
X5105760Y-12325093D01*
X5103130Y-12321248D01*
X5101542Y-12317531D01*
X5100711Y-12313577D01*
X5100667Y-12309536D01*
X5101412Y-12305564D01*
X5102918Y-12301814D01*
X5105126Y-12298429D01*
X5108383Y-12295100D01*
X5112700Y-12291478D01*
X5112701Y-12291477D01*
X5153952Y-12256863D01*
X5153953Y-12256863D01*
X5158270Y-12253240D01*
X5162115Y-12250610D01*
X5165831Y-12249023D01*
X5169785Y-12248192D01*
X5173827Y-12248147D01*
X5177798Y-12248893D01*
X5177798Y-12248893D01*
G37*
G36*
X6792844Y-12216852D02*
X6799463Y-12217504D01*
X6810785Y-12220938D01*
X6816447Y-12222656D01*
X6828878Y-12229300D01*
X6832099Y-12231022D01*
X6834657Y-12233121D01*
X6845819Y-12242281D01*
X6852700Y-12250666D01*
X6857078Y-12256001D01*
X6857078Y-12256001D01*
X6865444Y-12271653D01*
X6865444Y-12271653D01*
X6870596Y-12288637D01*
X6872336Y-12306300D01*
X6870596Y-12323963D01*
X6870265Y-12325053D01*
X6865444Y-12340947D01*
X6864800Y-12342152D01*
X6857078Y-12356599D01*
X6856063Y-12357836D01*
X6845819Y-12370319D01*
X6835673Y-12378645D01*
X6832099Y-12381578D01*
X6832099Y-12381578D01*
X6816447Y-12389944D01*
X6810785Y-12391662D01*
X6799463Y-12395096D01*
X6792844Y-12395748D01*
X6786226Y-12396400D01*
X6777374Y-12396400D01*
X6770756Y-12395748D01*
X6764137Y-12395096D01*
X6752815Y-12391662D01*
X6747153Y-12389944D01*
X6731501Y-12381578D01*
X6731501Y-12381578D01*
X6727927Y-12378645D01*
X6717781Y-12370319D01*
X6707537Y-12357836D01*
X6706522Y-12356599D01*
X6698800Y-12342152D01*
X6698156Y-12340947D01*
X6693335Y-12325053D01*
X6693004Y-12323963D01*
X6691264Y-12306300D01*
X6693004Y-12288637D01*
X6698156Y-12271653D01*
X6698156Y-12271653D01*
X6706522Y-12256001D01*
X6706522Y-12256001D01*
X6710900Y-12250666D01*
X6717781Y-12242281D01*
X6728943Y-12233121D01*
X6731501Y-12231022D01*
X6734722Y-12229300D01*
X6747153Y-12222656D01*
X6752815Y-12220938D01*
X6764137Y-12217504D01*
X6770756Y-12216852D01*
X6777374Y-12216200D01*
X6786226Y-12216200D01*
X6792844Y-12216852D01*
X6792844Y-12216852D01*
G37*
G36*
X6538844Y-12216852D02*
X6545463Y-12217504D01*
X6556785Y-12220938D01*
X6562447Y-12222656D01*
X6574878Y-12229300D01*
X6578099Y-12231022D01*
X6580657Y-12233121D01*
X6591819Y-12242281D01*
X6598700Y-12250666D01*
X6603078Y-12256001D01*
X6603078Y-12256001D01*
X6611444Y-12271653D01*
X6611444Y-12271653D01*
X6616596Y-12288637D01*
X6618336Y-12306300D01*
X6616596Y-12323963D01*
X6616265Y-12325053D01*
X6611444Y-12340947D01*
X6610800Y-12342152D01*
X6603078Y-12356599D01*
X6602063Y-12357836D01*
X6591819Y-12370319D01*
X6581673Y-12378645D01*
X6578099Y-12381578D01*
X6578099Y-12381578D01*
X6562447Y-12389944D01*
X6556785Y-12391662D01*
X6545463Y-12395096D01*
X6538844Y-12395748D01*
X6532226Y-12396400D01*
X6523374Y-12396400D01*
X6516756Y-12395748D01*
X6510137Y-12395096D01*
X6498815Y-12391662D01*
X6493153Y-12389944D01*
X6477501Y-12381578D01*
X6477501Y-12381578D01*
X6473927Y-12378645D01*
X6463781Y-12370319D01*
X6453537Y-12357836D01*
X6452522Y-12356599D01*
X6444800Y-12342152D01*
X6444156Y-12340947D01*
X6439335Y-12325053D01*
X6439004Y-12323963D01*
X6437264Y-12306300D01*
X6439004Y-12288637D01*
X6444156Y-12271653D01*
X6444156Y-12271653D01*
X6452522Y-12256001D01*
X6452522Y-12256001D01*
X6456900Y-12250666D01*
X6463781Y-12242281D01*
X6474943Y-12233121D01*
X6477501Y-12231022D01*
X6480722Y-12229300D01*
X6493153Y-12222656D01*
X6498815Y-12220938D01*
X6510137Y-12217504D01*
X6516756Y-12216852D01*
X6523374Y-12216200D01*
X6532226Y-12216200D01*
X6538844Y-12216852D01*
X6538844Y-12216852D01*
G37*
G36*
X5321432Y-12128370D02*
X5325182Y-12129876D01*
X5328566Y-12132084D01*
X5331896Y-12135342D01*
X5335518Y-12139659D01*
X5335519Y-12139659D01*
X5381545Y-12194511D01*
X5401074Y-12217785D01*
X5403704Y-12221630D01*
X5405291Y-12225346D01*
X5406123Y-12229300D01*
X5406167Y-12233342D01*
X5405422Y-12237313D01*
X5403916Y-12241064D01*
X5401708Y-12244448D01*
X5398450Y-12247777D01*
X5394133Y-12251400D01*
X5394133Y-12251400D01*
X5352881Y-12286014D01*
X5352881Y-12286015D01*
X5348564Y-12289637D01*
X5344719Y-12292267D01*
X5341002Y-12293854D01*
X5337048Y-12294686D01*
X5333007Y-12294730D01*
X5329035Y-12293985D01*
X5325285Y-12292479D01*
X5321901Y-12290271D01*
X5318571Y-12287013D01*
X5314949Y-12282696D01*
X5314948Y-12282696D01*
X5253016Y-12208887D01*
X5253016Y-12208887D01*
X5249393Y-12204570D01*
X5246763Y-12200725D01*
X5245176Y-12197009D01*
X5244344Y-12193054D01*
X5244300Y-12189013D01*
X5245045Y-12185041D01*
X5246551Y-12181291D01*
X5248759Y-12177907D01*
X5252017Y-12174577D01*
X5256334Y-12170955D01*
X5256334Y-12170954D01*
X5297586Y-12136340D01*
X5297586Y-12136340D01*
X5301903Y-12132718D01*
X5305748Y-12130088D01*
X5309464Y-12128500D01*
X5313419Y-12127669D01*
X5317460Y-12127625D01*
X5321432Y-12128370D01*
X5321432Y-12128370D01*
G37*
G36*
X6617900Y-12142400D02*
X6437700Y-12142400D01*
X6437700Y-11962200D01*
X6617900Y-11962200D01*
X6617900Y-12142400D01*
X6617900Y-12142400D01*
G37*
G36*
X6792844Y-11962852D02*
X6799463Y-11963504D01*
X6810785Y-11966938D01*
X6816447Y-11968656D01*
X6830309Y-11976065D01*
X6832099Y-11977022D01*
X6835673Y-11979955D01*
X6845819Y-11988281D01*
X6854145Y-11998427D01*
X6857078Y-12002001D01*
X6857078Y-12002001D01*
X6865444Y-12017653D01*
X6867162Y-12023315D01*
X6870596Y-12034637D01*
X6872336Y-12052300D01*
X6870596Y-12069963D01*
X6868084Y-12078245D01*
X6865444Y-12086947D01*
X6858035Y-12100809D01*
X6857078Y-12102599D01*
X6854145Y-12106173D01*
X6845819Y-12116319D01*
X6835673Y-12124645D01*
X6832099Y-12127578D01*
X6832099Y-12127578D01*
X6816447Y-12135944D01*
X6810785Y-12137662D01*
X6799463Y-12141096D01*
X6792844Y-12141748D01*
X6786226Y-12142400D01*
X6777374Y-12142400D01*
X6770756Y-12141748D01*
X6764137Y-12141096D01*
X6752815Y-12137662D01*
X6747153Y-12135944D01*
X6731501Y-12127578D01*
X6731501Y-12127578D01*
X6727927Y-12124645D01*
X6717781Y-12116319D01*
X6709455Y-12106173D01*
X6706522Y-12102599D01*
X6705565Y-12100809D01*
X6698156Y-12086947D01*
X6695516Y-12078245D01*
X6693004Y-12069963D01*
X6691264Y-12052300D01*
X6693004Y-12034637D01*
X6696438Y-12023315D01*
X6698156Y-12017653D01*
X6706522Y-12002001D01*
X6706522Y-12002001D01*
X6709455Y-11998427D01*
X6717781Y-11988281D01*
X6727927Y-11979955D01*
X6731501Y-11977022D01*
X6733291Y-11976065D01*
X6747153Y-11968656D01*
X6752815Y-11966938D01*
X6764137Y-11963504D01*
X6770756Y-11962852D01*
X6777374Y-11962200D01*
X6786226Y-11962200D01*
X6792844Y-11962852D01*
X6792844Y-11962852D01*
G37*
G36*
X13387556Y-11812130D02*
X13398189Y-11814245D01*
X13428235Y-11826690D01*
X13454916Y-11844518D01*
X13455276Y-11844759D01*
X13478272Y-11867754D01*
X13496341Y-11894796D01*
X13508786Y-11924842D01*
X13515131Y-11956739D01*
X13515131Y-11989261D01*
X13508786Y-12021158D01*
X13496341Y-12051204D01*
X13478272Y-12078245D01*
X13455276Y-12101241D01*
X13455276Y-12101241D01*
X13428235Y-12119310D01*
X13398189Y-12131755D01*
X13390119Y-12133360D01*
X13366292Y-12138100D01*
X13333770Y-12138100D01*
X13309942Y-12133360D01*
X13301873Y-12131755D01*
X13271827Y-12119310D01*
X13244786Y-12101241D01*
X13244785Y-12101241D01*
X13221789Y-12078245D01*
X13203721Y-12051204D01*
X13191275Y-12021158D01*
X13184931Y-11989261D01*
X13184931Y-11956739D01*
X13191275Y-11924842D01*
X13203721Y-11894796D01*
X13221789Y-11867754D01*
X13244785Y-11844759D01*
X13245146Y-11844518D01*
X13271827Y-11826690D01*
X13301873Y-11814245D01*
X13312505Y-11812130D01*
X13333770Y-11807900D01*
X13366292Y-11807900D01*
X13387556Y-11812130D01*
X13387556Y-11812130D01*
G37*
G36*
X4467495Y-11812130D02*
X4478127Y-11814245D01*
X4508173Y-11826690D01*
X4534854Y-11844518D01*
X4535215Y-11844759D01*
X4558211Y-11867754D01*
X4576279Y-11894796D01*
X4588725Y-11924842D01*
X4595069Y-11956739D01*
X4595069Y-11989261D01*
X4588725Y-12021158D01*
X4576279Y-12051204D01*
X4558211Y-12078245D01*
X4535215Y-12101241D01*
X4535214Y-12101241D01*
X4508173Y-12119310D01*
X4478127Y-12131755D01*
X4470058Y-12133360D01*
X4446230Y-12138100D01*
X4413708Y-12138100D01*
X4389881Y-12133360D01*
X4381811Y-12131755D01*
X4351765Y-12119310D01*
X4324724Y-12101241D01*
X4324724Y-12101241D01*
X4301728Y-12078245D01*
X4283659Y-12051204D01*
X4271214Y-12021158D01*
X4264869Y-11989261D01*
X4264869Y-11956739D01*
X4271214Y-11924842D01*
X4283659Y-11894796D01*
X4301728Y-11867754D01*
X4324724Y-11844759D01*
X4325084Y-11844518D01*
X4351765Y-11826690D01*
X4381811Y-11814245D01*
X4392444Y-11812130D01*
X4413708Y-11807900D01*
X4446230Y-11807900D01*
X4467495Y-11812130D01*
X4467495Y-11812130D01*
G37*
G36*
X12836800Y-11901000D02*
X11826600Y-11901000D01*
X11826600Y-11390800D01*
X12836800Y-11390800D01*
X12836800Y-11901000D01*
X12836800Y-11901000D01*
G37*
G36*
X4217582Y-11166350D02*
X4048250Y-11227982D01*
X3986618Y-11058650D01*
X4155950Y-10997018D01*
X4217582Y-11166350D01*
X4217582Y-11166350D01*
G37*
G36*
X4526763Y-10935051D02*
X4530576Y-10936392D01*
X4534053Y-10938451D01*
X4537062Y-10941148D01*
X4539487Y-10944381D01*
X4541502Y-10948581D01*
X4543429Y-10953877D01*
X4543429Y-10953877D01*
X4573429Y-11036300D01*
X4578311Y-11049713D01*
X4579467Y-11054225D01*
X4579687Y-11058260D01*
X4579116Y-11062261D01*
X4577776Y-11066073D01*
X4575717Y-11069551D01*
X4573020Y-11072559D01*
X4569787Y-11074984D01*
X4565586Y-11076999D01*
X4560291Y-11078926D01*
X4560291Y-11078926D01*
X4519545Y-11093757D01*
X4504392Y-11099272D01*
X4499880Y-11100428D01*
X4495845Y-11100649D01*
X4491844Y-11100078D01*
X4488032Y-11098737D01*
X4484554Y-11096678D01*
X4481546Y-11093981D01*
X4479120Y-11090748D01*
X4477106Y-11086548D01*
X4473630Y-11076999D01*
X4442225Y-10990713D01*
X4440297Y-10985416D01*
X4439141Y-10980904D01*
X4438920Y-10976869D01*
X4439491Y-10972868D01*
X4440832Y-10969056D01*
X4442891Y-10965578D01*
X4445588Y-10962570D01*
X4448821Y-10960145D01*
X4453021Y-10958130D01*
X4458317Y-10956203D01*
X4458317Y-10956202D01*
X4508919Y-10937785D01*
X4508919Y-10937785D01*
X4514216Y-10935857D01*
X4518728Y-10934701D01*
X4522763Y-10934480D01*
X4526763Y-10935051D01*
X4526763Y-10935051D01*
G37*
G36*
X4702956Y-10870923D02*
X4706768Y-10872263D01*
X4710246Y-10874322D01*
X4713254Y-10877019D01*
X4715680Y-10880252D01*
X4717694Y-10884452D01*
X4719622Y-10889748D01*
X4719622Y-10889748D01*
X4744511Y-10958130D01*
X4754503Y-10985584D01*
X4755660Y-10990096D01*
X4755880Y-10994131D01*
X4755309Y-10998132D01*
X4753968Y-11001944D01*
X4751909Y-11005422D01*
X4749212Y-11008430D01*
X4745979Y-11010856D01*
X4741779Y-11012870D01*
X4736483Y-11014798D01*
X4736483Y-11014798D01*
X4695738Y-11029628D01*
X4680584Y-11035143D01*
X4676072Y-11036300D01*
X4672037Y-11036520D01*
X4668037Y-11035949D01*
X4664224Y-11034608D01*
X4660747Y-11032549D01*
X4657738Y-11029852D01*
X4655313Y-11026619D01*
X4653298Y-11022419D01*
X4649823Y-11012870D01*
X4618417Y-10926584D01*
X4616489Y-10921287D01*
X4615333Y-10916775D01*
X4615113Y-10912740D01*
X4615684Y-10908739D01*
X4617024Y-10904927D01*
X4619083Y-10901450D01*
X4621780Y-10898441D01*
X4625013Y-10896016D01*
X4629214Y-10894001D01*
X4634509Y-10892074D01*
X4634509Y-10892074D01*
X4685112Y-10873656D01*
X4685112Y-10873656D01*
X4690408Y-10871728D01*
X4694920Y-10870572D01*
X4698955Y-10870351D01*
X4702956Y-10870923D01*
X4702956Y-10870923D01*
G37*
G36*
X4026271Y-10784370D02*
X4032890Y-10785022D01*
X4044212Y-10788457D01*
X4049874Y-10790174D01*
X4063736Y-10797583D01*
X4065526Y-10798540D01*
X4069100Y-10801473D01*
X4079245Y-10809800D01*
X4086535Y-10818682D01*
X4090505Y-10823519D01*
X4090505Y-10823519D01*
X4098871Y-10839171D01*
X4098871Y-10839172D01*
X4104023Y-10856155D01*
X4105763Y-10873818D01*
X4104023Y-10891481D01*
X4102386Y-10896878D01*
X4098871Y-10908465D01*
X4094736Y-10916200D01*
X4090505Y-10924117D01*
X4088480Y-10926584D01*
X4079245Y-10937837D01*
X4070644Y-10944896D01*
X4065526Y-10949096D01*
X4065526Y-10949096D01*
X4049874Y-10957462D01*
X4046502Y-10958485D01*
X4032890Y-10962614D01*
X4026271Y-10963266D01*
X4019653Y-10963918D01*
X4010801Y-10963918D01*
X4004183Y-10963266D01*
X3997564Y-10962614D01*
X3983952Y-10958485D01*
X3980580Y-10957462D01*
X3964928Y-10949096D01*
X3964928Y-10949096D01*
X3959810Y-10944896D01*
X3951208Y-10937837D01*
X3941973Y-10926584D01*
X3939949Y-10924117D01*
X3935717Y-10916200D01*
X3931583Y-10908465D01*
X3928068Y-10896878D01*
X3926431Y-10891481D01*
X3924691Y-10873818D01*
X3926431Y-10856155D01*
X3931583Y-10839172D01*
X3931583Y-10839171D01*
X3939949Y-10823519D01*
X3939949Y-10823519D01*
X3943919Y-10818682D01*
X3951208Y-10809800D01*
X3961354Y-10801473D01*
X3964928Y-10798540D01*
X3966718Y-10797583D01*
X3980580Y-10790174D01*
X3986242Y-10788457D01*
X3997564Y-10785022D01*
X4004183Y-10784370D01*
X4010801Y-10783718D01*
X4019653Y-10783718D01*
X4026271Y-10784370D01*
X4026271Y-10784370D01*
G37*
G36*
X4450563Y-10731851D02*
X4454376Y-10733192D01*
X4457853Y-10735251D01*
X4460862Y-10737948D01*
X4463287Y-10741181D01*
X4465302Y-10745381D01*
X4467229Y-10750677D01*
X4467229Y-10750677D01*
X4497229Y-10833100D01*
X4502111Y-10846513D01*
X4503267Y-10851025D01*
X4503487Y-10855060D01*
X4502916Y-10859061D01*
X4501576Y-10862873D01*
X4499517Y-10866351D01*
X4496820Y-10869359D01*
X4493587Y-10871784D01*
X4489386Y-10873799D01*
X4484091Y-10875726D01*
X4484091Y-10875726D01*
X4433488Y-10894144D01*
X4428192Y-10896072D01*
X4423680Y-10897228D01*
X4419645Y-10897449D01*
X4415644Y-10896878D01*
X4411832Y-10895537D01*
X4408354Y-10893478D01*
X4405346Y-10890781D01*
X4402920Y-10887548D01*
X4400906Y-10883348D01*
X4397430Y-10873799D01*
X4366025Y-10787513D01*
X4364097Y-10782216D01*
X4362941Y-10777704D01*
X4362720Y-10773669D01*
X4363291Y-10769668D01*
X4364632Y-10765856D01*
X4366691Y-10762378D01*
X4369388Y-10759370D01*
X4372621Y-10756945D01*
X4376821Y-10754930D01*
X4382117Y-10753003D01*
X4382117Y-10753002D01*
X4432719Y-10734585D01*
X4432719Y-10734585D01*
X4438016Y-10732657D01*
X4442528Y-10731501D01*
X4446563Y-10731280D01*
X4450563Y-10731851D01*
X4450563Y-10731851D01*
G37*
G36*
X4626756Y-10667723D02*
X4630568Y-10669063D01*
X4634046Y-10671122D01*
X4637054Y-10673819D01*
X4639480Y-10677052D01*
X4641494Y-10681252D01*
X4643422Y-10686548D01*
X4643422Y-10686548D01*
X4669593Y-10758452D01*
X4678303Y-10782384D01*
X4679460Y-10786896D01*
X4679680Y-10790931D01*
X4679109Y-10794932D01*
X4677768Y-10798744D01*
X4675709Y-10802222D01*
X4673012Y-10805230D01*
X4669779Y-10807656D01*
X4665579Y-10809670D01*
X4660283Y-10811598D01*
X4660283Y-10811598D01*
X4627529Y-10823519D01*
X4604384Y-10831943D01*
X4599872Y-10833100D01*
X4595837Y-10833320D01*
X4591837Y-10832749D01*
X4588024Y-10831408D01*
X4584547Y-10829349D01*
X4581538Y-10826652D01*
X4579113Y-10823419D01*
X4577098Y-10819219D01*
X4573670Y-10809800D01*
X4542217Y-10723384D01*
X4540289Y-10718087D01*
X4539133Y-10713575D01*
X4538913Y-10709540D01*
X4539484Y-10705539D01*
X4540824Y-10701727D01*
X4542883Y-10698250D01*
X4545580Y-10695241D01*
X4548813Y-10692816D01*
X4553014Y-10690801D01*
X4558309Y-10688874D01*
X4558309Y-10688874D01*
X4608912Y-10670456D01*
X4608912Y-10670456D01*
X4614208Y-10668528D01*
X4618720Y-10667372D01*
X4622755Y-10667151D01*
X4626756Y-10667723D01*
X4626756Y-10667723D01*
G37*
G36*
X13465119Y-9802221D02*
X13467664Y-9802993D01*
X13470010Y-9804247D01*
X13472066Y-9805934D01*
X13473753Y-9807990D01*
X13475007Y-9810336D01*
X13475779Y-9812881D01*
X13476100Y-9816142D01*
X13476100Y-10757858D01*
X13475779Y-10761119D01*
X13475007Y-10763664D01*
X13473753Y-10766010D01*
X13472066Y-10768066D01*
X13470010Y-10769753D01*
X13467664Y-10771007D01*
X13465119Y-10771779D01*
X13461858Y-10772100D01*
X12700142Y-10772100D01*
X12696881Y-10771779D01*
X12694336Y-10771007D01*
X12691990Y-10769753D01*
X12689934Y-10768066D01*
X12688247Y-10766010D01*
X12686993Y-10763664D01*
X12686221Y-10761119D01*
X12685900Y-10757858D01*
X12685900Y-9816142D01*
X12686221Y-9812881D01*
X12686993Y-9810336D01*
X12688247Y-9807990D01*
X12689934Y-9805934D01*
X12691990Y-9804247D01*
X12694336Y-9802993D01*
X12696881Y-9802221D01*
X12700142Y-9801900D01*
X13461858Y-9801900D01*
X13465119Y-9802221D01*
X13465119Y-9802221D01*
G37*
G36*
X12215119Y-9802221D02*
X12217664Y-9802993D01*
X12220010Y-9804247D01*
X12222066Y-9805934D01*
X12223753Y-9807990D01*
X12225007Y-9810336D01*
X12225779Y-9812881D01*
X12226100Y-9816142D01*
X12226100Y-10757858D01*
X12225779Y-10761119D01*
X12225007Y-10763664D01*
X12223753Y-10766010D01*
X12222066Y-10768066D01*
X12220010Y-10769753D01*
X12217664Y-10771007D01*
X12215119Y-10771779D01*
X12211858Y-10772100D01*
X11450142Y-10772100D01*
X11446881Y-10771779D01*
X11444336Y-10771007D01*
X11441990Y-10769753D01*
X11439934Y-10768066D01*
X11438247Y-10766010D01*
X11436993Y-10763664D01*
X11436221Y-10761119D01*
X11435900Y-10757858D01*
X11435900Y-9816142D01*
X11436221Y-9812881D01*
X11436993Y-9810336D01*
X11438247Y-9807990D01*
X11439934Y-9805934D01*
X11441990Y-9804247D01*
X11444336Y-9802993D01*
X11446881Y-9802221D01*
X11450142Y-9801900D01*
X12211858Y-9801900D01*
X12215119Y-9802221D01*
X12215119Y-9802221D01*
G37*
G36*
X3939398Y-10545688D02*
X3946016Y-10546340D01*
X3957339Y-10549775D01*
X3963000Y-10551492D01*
X3976862Y-10558901D01*
X3978653Y-10559858D01*
X3982062Y-10562656D01*
X3992372Y-10571118D01*
X3998992Y-10579184D01*
X4003632Y-10584837D01*
X4003632Y-10584837D01*
X4011998Y-10600489D01*
X4012514Y-10602189D01*
X4017150Y-10617473D01*
X4018890Y-10635136D01*
X4017150Y-10652799D01*
X4013715Y-10664121D01*
X4011998Y-10669783D01*
X4005200Y-10682502D01*
X4003632Y-10685435D01*
X4002055Y-10687357D01*
X3992372Y-10699155D01*
X3984592Y-10705539D01*
X3978653Y-10710414D01*
X3978653Y-10710414D01*
X3963000Y-10718780D01*
X3957339Y-10720498D01*
X3946016Y-10723932D01*
X3939398Y-10724584D01*
X3932780Y-10725236D01*
X3923928Y-10725236D01*
X3917309Y-10724584D01*
X3910691Y-10723932D01*
X3899368Y-10720498D01*
X3893707Y-10718780D01*
X3878055Y-10710414D01*
X3878055Y-10710414D01*
X3872115Y-10705539D01*
X3864335Y-10699155D01*
X3854653Y-10687357D01*
X3853076Y-10685435D01*
X3851508Y-10682502D01*
X3844709Y-10669783D01*
X3842992Y-10664121D01*
X3839557Y-10652799D01*
X3837818Y-10635136D01*
X3839557Y-10617473D01*
X3844194Y-10602189D01*
X3844709Y-10600489D01*
X3853076Y-10584837D01*
X3853076Y-10584837D01*
X3857715Y-10579184D01*
X3864335Y-10571118D01*
X3874645Y-10562656D01*
X3878055Y-10559858D01*
X3879845Y-10558901D01*
X3893707Y-10551492D01*
X3899368Y-10549775D01*
X3910691Y-10546340D01*
X3917310Y-10545688D01*
X3923928Y-10545036D01*
X3932780Y-10545036D01*
X3939398Y-10545688D01*
X3939398Y-10545688D01*
G37*
G36*
X5748047Y-10589207D02*
X5751914Y-10590380D01*
X5755478Y-10592285D01*
X5758602Y-10594848D01*
X5761165Y-10597972D01*
X5763070Y-10601536D01*
X5764243Y-10605403D01*
X5764700Y-10610039D01*
X5764700Y-10675161D01*
X5764243Y-10679797D01*
X5763070Y-10683664D01*
X5761165Y-10687228D01*
X5758602Y-10690352D01*
X5755478Y-10692915D01*
X5751914Y-10694820D01*
X5748047Y-10695994D01*
X5743411Y-10696450D01*
X5635789Y-10696450D01*
X5631153Y-10695994D01*
X5627286Y-10694820D01*
X5623722Y-10692915D01*
X5620598Y-10690352D01*
X5618035Y-10687228D01*
X5616130Y-10683664D01*
X5614956Y-10679797D01*
X5614500Y-10675161D01*
X5614500Y-10610039D01*
X5614956Y-10605403D01*
X5616130Y-10601536D01*
X5618035Y-10597972D01*
X5620598Y-10594848D01*
X5623722Y-10592285D01*
X5627286Y-10590380D01*
X5631153Y-10589207D01*
X5635789Y-10588750D01*
X5743411Y-10588750D01*
X5748047Y-10589207D01*
X5748047Y-10589207D01*
G37*
G36*
X5544847Y-10589207D02*
X5548714Y-10590380D01*
X5552278Y-10592285D01*
X5555402Y-10594848D01*
X5557965Y-10597972D01*
X5559870Y-10601536D01*
X5561044Y-10605403D01*
X5561500Y-10610039D01*
X5561500Y-10675161D01*
X5561044Y-10679797D01*
X5559870Y-10683664D01*
X5557965Y-10687228D01*
X5555402Y-10690352D01*
X5552278Y-10692915D01*
X5548714Y-10694820D01*
X5544847Y-10695994D01*
X5540211Y-10696450D01*
X5432589Y-10696450D01*
X5427953Y-10695994D01*
X5424086Y-10694820D01*
X5420522Y-10692915D01*
X5417398Y-10690352D01*
X5414835Y-10687228D01*
X5412930Y-10683664D01*
X5411757Y-10679797D01*
X5411300Y-10675161D01*
X5411300Y-10610039D01*
X5411757Y-10605403D01*
X5412930Y-10601536D01*
X5414835Y-10597972D01*
X5417398Y-10594848D01*
X5420522Y-10592285D01*
X5424086Y-10590380D01*
X5427953Y-10589207D01*
X5432589Y-10588750D01*
X5540211Y-10588750D01*
X5544847Y-10589207D01*
X5544847Y-10589207D01*
G37*
G36*
X4374363Y-10528651D02*
X4378176Y-10529992D01*
X4381653Y-10532051D01*
X4384662Y-10534748D01*
X4387087Y-10537981D01*
X4389102Y-10542181D01*
X4391029Y-10547477D01*
X4391029Y-10547477D01*
X4421029Y-10629900D01*
X4425911Y-10643313D01*
X4427067Y-10647825D01*
X4427287Y-10651860D01*
X4426716Y-10655861D01*
X4425376Y-10659673D01*
X4423317Y-10663151D01*
X4420620Y-10666159D01*
X4417387Y-10668584D01*
X4413186Y-10670599D01*
X4407891Y-10672526D01*
X4407891Y-10672526D01*
X4357288Y-10690944D01*
X4351992Y-10692872D01*
X4347480Y-10694028D01*
X4343445Y-10694249D01*
X4339444Y-10693678D01*
X4335632Y-10692337D01*
X4332154Y-10690278D01*
X4329146Y-10687581D01*
X4326720Y-10684348D01*
X4324706Y-10680148D01*
X4322751Y-10674778D01*
X4289825Y-10584313D01*
X4287897Y-10579016D01*
X4286741Y-10574504D01*
X4286520Y-10570469D01*
X4287091Y-10566468D01*
X4288432Y-10562656D01*
X4290491Y-10559178D01*
X4293188Y-10556170D01*
X4296421Y-10553745D01*
X4300621Y-10551730D01*
X4305917Y-10549803D01*
X4305917Y-10549802D01*
X4356519Y-10531385D01*
X4356519Y-10531385D01*
X4361816Y-10529457D01*
X4366328Y-10528301D01*
X4370363Y-10528080D01*
X4374363Y-10528651D01*
X4374363Y-10528651D01*
G37*
G36*
X4947947Y-10581357D02*
X4951814Y-10582530D01*
X4955378Y-10584435D01*
X4958502Y-10586998D01*
X4961065Y-10590122D01*
X4962970Y-10593686D01*
X4964144Y-10597553D01*
X4964600Y-10602189D01*
X4964600Y-10667311D01*
X4964144Y-10671947D01*
X4962970Y-10675814D01*
X4961065Y-10679378D01*
X4958502Y-10682502D01*
X4955378Y-10685065D01*
X4951814Y-10686970D01*
X4947947Y-10688144D01*
X4943311Y-10688600D01*
X4835689Y-10688600D01*
X4831053Y-10688144D01*
X4827186Y-10686970D01*
X4823622Y-10685065D01*
X4820498Y-10682502D01*
X4817935Y-10679378D01*
X4816030Y-10675814D01*
X4814857Y-10671947D01*
X4814400Y-10667311D01*
X4814400Y-10602189D01*
X4814857Y-10597553D01*
X4816030Y-10593686D01*
X4817935Y-10590122D01*
X4820498Y-10586998D01*
X4823622Y-10584435D01*
X4827186Y-10582530D01*
X4831053Y-10581357D01*
X4835689Y-10580900D01*
X4943311Y-10580900D01*
X4947947Y-10581357D01*
X4947947Y-10581357D01*
G37*
G36*
X4550556Y-10464523D02*
X4554368Y-10465863D01*
X4557846Y-10467922D01*
X4560854Y-10470619D01*
X4563280Y-10473852D01*
X4565294Y-10478052D01*
X4567222Y-10483348D01*
X4567222Y-10483348D01*
X4592024Y-10551492D01*
X4602103Y-10579184D01*
X4603260Y-10583696D01*
X4603480Y-10587731D01*
X4602909Y-10591732D01*
X4601568Y-10595544D01*
X4599509Y-10599022D01*
X4596812Y-10602030D01*
X4593579Y-10604456D01*
X4589379Y-10606470D01*
X4584083Y-10608398D01*
X4584083Y-10608398D01*
X4543338Y-10623228D01*
X4528184Y-10628743D01*
X4523672Y-10629900D01*
X4519637Y-10630120D01*
X4515637Y-10629549D01*
X4511824Y-10628208D01*
X4508347Y-10626149D01*
X4505338Y-10623452D01*
X4502913Y-10620219D01*
X4500898Y-10616019D01*
X4498722Y-10610039D01*
X4466017Y-10520184D01*
X4464089Y-10514887D01*
X4462933Y-10510375D01*
X4462713Y-10506340D01*
X4463284Y-10502339D01*
X4464624Y-10498527D01*
X4466683Y-10495050D01*
X4469380Y-10492041D01*
X4472613Y-10489616D01*
X4476814Y-10487601D01*
X4482109Y-10485674D01*
X4482109Y-10485674D01*
X4532712Y-10467256D01*
X4532712Y-10467256D01*
X4538008Y-10465328D01*
X4542520Y-10464172D01*
X4546555Y-10463951D01*
X4550556Y-10464523D01*
X4550556Y-10464523D01*
G37*
G36*
X5544847Y-10401707D02*
X5548714Y-10402880D01*
X5552278Y-10404785D01*
X5555402Y-10407348D01*
X5557965Y-10410472D01*
X5559870Y-10414036D01*
X5561044Y-10417903D01*
X5561500Y-10422539D01*
X5561500Y-10487661D01*
X5561044Y-10492297D01*
X5559870Y-10496164D01*
X5557965Y-10499728D01*
X5555402Y-10502852D01*
X5552278Y-10505415D01*
X5548714Y-10507320D01*
X5544847Y-10508494D01*
X5540211Y-10508950D01*
X5432589Y-10508950D01*
X5427953Y-10508494D01*
X5424086Y-10507320D01*
X5420522Y-10505415D01*
X5417398Y-10502852D01*
X5414835Y-10499728D01*
X5412930Y-10496164D01*
X5411757Y-10492297D01*
X5411300Y-10487661D01*
X5411300Y-10422539D01*
X5411757Y-10417903D01*
X5412930Y-10414036D01*
X5414835Y-10410472D01*
X5417398Y-10407348D01*
X5420522Y-10404785D01*
X5424086Y-10402880D01*
X5427953Y-10401707D01*
X5432589Y-10401250D01*
X5540211Y-10401250D01*
X5544847Y-10401707D01*
X5544847Y-10401707D01*
G37*
G36*
X5748047Y-10401707D02*
X5751914Y-10402880D01*
X5755478Y-10404785D01*
X5758602Y-10407348D01*
X5761165Y-10410472D01*
X5763070Y-10414036D01*
X5764243Y-10417903D01*
X5764700Y-10422539D01*
X5764700Y-10487661D01*
X5764243Y-10492297D01*
X5763070Y-10496164D01*
X5761165Y-10499728D01*
X5758602Y-10502852D01*
X5755478Y-10505415D01*
X5751914Y-10507320D01*
X5748047Y-10508494D01*
X5743411Y-10508950D01*
X5635789Y-10508950D01*
X5631153Y-10508494D01*
X5627286Y-10507320D01*
X5623722Y-10505415D01*
X5620598Y-10502852D01*
X5618035Y-10499728D01*
X5616130Y-10496164D01*
X5614956Y-10492297D01*
X5614500Y-10487661D01*
X5614500Y-10422539D01*
X5614956Y-10417903D01*
X5616130Y-10414036D01*
X5618035Y-10410472D01*
X5620598Y-10407348D01*
X5623722Y-10404785D01*
X5627286Y-10402880D01*
X5631153Y-10401707D01*
X5635789Y-10401250D01*
X5743411Y-10401250D01*
X5748047Y-10401707D01*
X5748047Y-10401707D01*
G37*
G36*
X4947947Y-10393857D02*
X4951814Y-10395030D01*
X4955378Y-10396935D01*
X4958502Y-10399498D01*
X4961065Y-10402622D01*
X4962970Y-10406186D01*
X4964144Y-10410053D01*
X4964600Y-10414689D01*
X4964600Y-10479811D01*
X4964144Y-10484447D01*
X4962970Y-10488314D01*
X4961065Y-10491878D01*
X4958502Y-10495002D01*
X4955378Y-10497565D01*
X4951814Y-10499470D01*
X4947947Y-10500644D01*
X4943311Y-10501100D01*
X4835689Y-10501100D01*
X4831053Y-10500644D01*
X4827186Y-10499470D01*
X4823622Y-10497565D01*
X4820498Y-10495002D01*
X4817935Y-10491878D01*
X4816030Y-10488314D01*
X4814857Y-10484447D01*
X4814400Y-10479811D01*
X4814400Y-10414689D01*
X4814857Y-10410053D01*
X4816030Y-10406186D01*
X4817935Y-10402622D01*
X4820498Y-10399498D01*
X4823622Y-10396935D01*
X4827186Y-10395030D01*
X4831053Y-10393857D01*
X4835689Y-10393400D01*
X4943311Y-10393400D01*
X4947947Y-10393857D01*
X4947947Y-10393857D01*
G37*
G36*
X3852525Y-10307006D02*
X3859143Y-10307658D01*
X3870466Y-10311093D01*
X3876127Y-10312810D01*
X3889989Y-10320219D01*
X3891780Y-10321176D01*
X3895354Y-10324109D01*
X3905499Y-10332436D01*
X3913825Y-10342581D01*
X3916758Y-10346155D01*
X3916759Y-10346155D01*
X3925125Y-10361808D01*
X3925125Y-10361808D01*
X3930277Y-10378792D01*
X3932017Y-10396454D01*
X3930277Y-10414117D01*
X3928394Y-10420325D01*
X3925125Y-10431101D01*
X3917715Y-10444963D01*
X3916758Y-10446753D01*
X3913825Y-10450327D01*
X3905499Y-10460473D01*
X3896422Y-10467922D01*
X3891780Y-10471732D01*
X3891780Y-10471732D01*
X3876127Y-10480099D01*
X3870466Y-10481816D01*
X3859143Y-10485251D01*
X3854847Y-10485674D01*
X3845907Y-10486554D01*
X3837055Y-10486554D01*
X3828114Y-10485674D01*
X3823818Y-10485251D01*
X3812495Y-10481816D01*
X3806834Y-10480099D01*
X3791182Y-10471732D01*
X3791182Y-10471732D01*
X3786539Y-10467922D01*
X3777462Y-10460473D01*
X3769136Y-10450327D01*
X3766203Y-10446753D01*
X3765246Y-10444963D01*
X3757836Y-10431101D01*
X3754568Y-10420325D01*
X3752684Y-10414117D01*
X3750945Y-10396454D01*
X3752684Y-10378792D01*
X3757836Y-10361808D01*
X3757836Y-10361808D01*
X3766203Y-10346155D01*
X3766203Y-10346155D01*
X3769136Y-10342581D01*
X3777462Y-10332436D01*
X3787608Y-10324109D01*
X3791182Y-10321176D01*
X3792972Y-10320219D01*
X3806834Y-10312810D01*
X3812495Y-10311093D01*
X3823818Y-10307658D01*
X3830436Y-10307006D01*
X3837055Y-10306354D01*
X3845907Y-10306354D01*
X3852525Y-10307006D01*
X3852525Y-10307006D01*
G37*
G36*
X14225100Y-10411100D02*
X13714900Y-10411100D01*
X13714900Y-9400900D01*
X14225100Y-9400900D01*
X14225100Y-10411100D01*
X14225100Y-10411100D01*
G37*
G36*
X3765652Y-10068324D02*
X3772270Y-10068976D01*
X3783593Y-10072411D01*
X3789254Y-10074128D01*
X3803116Y-10081538D01*
X3804907Y-10082495D01*
X3808480Y-10085428D01*
X3818626Y-10093754D01*
X3826952Y-10103899D01*
X3829885Y-10107473D01*
X3829885Y-10107473D01*
X3838252Y-10123126D01*
X3838252Y-10123126D01*
X3843404Y-10140110D01*
X3845143Y-10157772D01*
X3843404Y-10175435D01*
X3839969Y-10186758D01*
X3838252Y-10192419D01*
X3830842Y-10206281D01*
X3829885Y-10208071D01*
X3826952Y-10211645D01*
X3818626Y-10221791D01*
X3808480Y-10230117D01*
X3804907Y-10233050D01*
X3804906Y-10233050D01*
X3789254Y-10241417D01*
X3783593Y-10243134D01*
X3772270Y-10246569D01*
X3765652Y-10247221D01*
X3759033Y-10247872D01*
X3750181Y-10247872D01*
X3743563Y-10247221D01*
X3736945Y-10246569D01*
X3725622Y-10243134D01*
X3719961Y-10241417D01*
X3704309Y-10233050D01*
X3704308Y-10233050D01*
X3700735Y-10230117D01*
X3690589Y-10221791D01*
X3682263Y-10211645D01*
X3679330Y-10208071D01*
X3678373Y-10206281D01*
X3670963Y-10192419D01*
X3669246Y-10186758D01*
X3665811Y-10175435D01*
X3664072Y-10157772D01*
X3665811Y-10140110D01*
X3670963Y-10123126D01*
X3670963Y-10123126D01*
X3679330Y-10107473D01*
X3679330Y-10107473D01*
X3682263Y-10103899D01*
X3690589Y-10093754D01*
X3700735Y-10085428D01*
X3704308Y-10082495D01*
X3706099Y-10081538D01*
X3719961Y-10074128D01*
X3725622Y-10072411D01*
X3736945Y-10068976D01*
X3743563Y-10068324D01*
X3750181Y-10067672D01*
X3759033Y-10067672D01*
X3765652Y-10068324D01*
X3765652Y-10068324D01*
G37*
G36*
X5588400Y-10223500D02*
X4803200Y-10223500D01*
X4803200Y-10113300D01*
X5588400Y-10113300D01*
X5588400Y-10223500D01*
X5588400Y-10223500D01*
G37*
G36*
X4680900Y-9991000D02*
X4570700Y-9991000D01*
X4570700Y-9205800D01*
X4680900Y-9205800D01*
X4680900Y-9991000D01*
X4680900Y-9991000D01*
G37*
G36*
X5820900Y-9991000D02*
X5710700Y-9991000D01*
X5710700Y-9205800D01*
X5820900Y-9205800D01*
X5820900Y-9991000D01*
X5820900Y-9991000D01*
G37*
G36*
X3752969Y-9410651D02*
X3752969Y-9410651D01*
X3752969Y-9410651D01*
X3770731Y-9418008D01*
X3770731Y-9418008D01*
X3786717Y-9428689D01*
X3800311Y-9442283D01*
X3800311Y-9442284D01*
X3810992Y-9458269D01*
X3817439Y-9473834D01*
X3818349Y-9476031D01*
X3820189Y-9485283D01*
X3822100Y-9494887D01*
X3822100Y-9514113D01*
X3818349Y-9532969D01*
X3810992Y-9550731D01*
X3810992Y-9550731D01*
X3800311Y-9566717D01*
X3786717Y-9580311D01*
X3786716Y-9580311D01*
X3770731Y-9590992D01*
X3752969Y-9598349D01*
X3752969Y-9598349D01*
X3752969Y-9598349D01*
X3734113Y-9602100D01*
X3714887Y-9602100D01*
X3696031Y-9598349D01*
X3696031Y-9598349D01*
X3696031Y-9598349D01*
X3678269Y-9590992D01*
X3662284Y-9580311D01*
X3662283Y-9580311D01*
X3648689Y-9566717D01*
X3638008Y-9550731D01*
X3638008Y-9550731D01*
X3630651Y-9532969D01*
X3626900Y-9514113D01*
X3626900Y-9494887D01*
X3628810Y-9485283D01*
X3630651Y-9476031D01*
X3631561Y-9473834D01*
X3638008Y-9458269D01*
X3648689Y-9442284D01*
X3648689Y-9442283D01*
X3662283Y-9428689D01*
X3678269Y-9418008D01*
X3678269Y-9418008D01*
X3696031Y-9410651D01*
X3696031Y-9410651D01*
X3696031Y-9410651D01*
X3714887Y-9406900D01*
X3734113Y-9406900D01*
X3752969Y-9410651D01*
X3752969Y-9410651D01*
G37*
G36*
X4075797Y-9336057D02*
X4079664Y-9337230D01*
X4083228Y-9339135D01*
X4086352Y-9341698D01*
X4088915Y-9344822D01*
X4090820Y-9348386D01*
X4091993Y-9352253D01*
X4092450Y-9356889D01*
X4092450Y-9464511D01*
X4091993Y-9469147D01*
X4090820Y-9473014D01*
X4088915Y-9476578D01*
X4086352Y-9479702D01*
X4083228Y-9482265D01*
X4079664Y-9484170D01*
X4075797Y-9485344D01*
X4071161Y-9485800D01*
X4006039Y-9485800D01*
X4001403Y-9485344D01*
X3997536Y-9484170D01*
X3993972Y-9482265D01*
X3990848Y-9479702D01*
X3988285Y-9476578D01*
X3986380Y-9473014D01*
X3985206Y-9469147D01*
X3984750Y-9464511D01*
X3984750Y-9356889D01*
X3985206Y-9352253D01*
X3986380Y-9348386D01*
X3988285Y-9344822D01*
X3990848Y-9341698D01*
X3993972Y-9339135D01*
X3997536Y-9337230D01*
X4001403Y-9336057D01*
X4006039Y-9335600D01*
X4071161Y-9335600D01*
X4075797Y-9336057D01*
X4075797Y-9336057D01*
G37*
G36*
X4263297Y-9336057D02*
X4267164Y-9337230D01*
X4270728Y-9339135D01*
X4273852Y-9341698D01*
X4276415Y-9344822D01*
X4278320Y-9348386D01*
X4279494Y-9352253D01*
X4279950Y-9356889D01*
X4279950Y-9464511D01*
X4279494Y-9469147D01*
X4278320Y-9473014D01*
X4276415Y-9476578D01*
X4273852Y-9479702D01*
X4270728Y-9482265D01*
X4267164Y-9484170D01*
X4263297Y-9485344D01*
X4258661Y-9485800D01*
X4193539Y-9485800D01*
X4188903Y-9485344D01*
X4185036Y-9484170D01*
X4181472Y-9482265D01*
X4178348Y-9479702D01*
X4175785Y-9476578D01*
X4173880Y-9473014D01*
X4172706Y-9469147D01*
X4172250Y-9464511D01*
X4172250Y-9356889D01*
X4172706Y-9352253D01*
X4173880Y-9348386D01*
X4175785Y-9344822D01*
X4178348Y-9341698D01*
X4181472Y-9339135D01*
X4185036Y-9337230D01*
X4188903Y-9336057D01*
X4193539Y-9335600D01*
X4258661Y-9335600D01*
X4263297Y-9336057D01*
X4263297Y-9336057D01*
G37*
G36*
X3760239Y-9231710D02*
X3768810Y-9235260D01*
X3776525Y-9240415D01*
X3783085Y-9246975D01*
X3788240Y-9254690D01*
X3791790Y-9263261D01*
X3793600Y-9272361D01*
X3793600Y-9281639D01*
X3791790Y-9290739D01*
X3788240Y-9299310D01*
X3783085Y-9307025D01*
X3776525Y-9313585D01*
X3768810Y-9318740D01*
X3760239Y-9322290D01*
X3751139Y-9324100D01*
X3741861Y-9324100D01*
X3732761Y-9322290D01*
X3724190Y-9318740D01*
X3716475Y-9313585D01*
X3709915Y-9307025D01*
X3704760Y-9299310D01*
X3701210Y-9290739D01*
X3699400Y-9281639D01*
X3699400Y-9272361D01*
X3701210Y-9263261D01*
X3704760Y-9254690D01*
X3709915Y-9246975D01*
X3716475Y-9240415D01*
X3724190Y-9235260D01*
X3732761Y-9231710D01*
X3741861Y-9229900D01*
X3751139Y-9229900D01*
X3760239Y-9231710D01*
X3760239Y-9231710D01*
G37*
G36*
X4088497Y-9120157D02*
X4092364Y-9121330D01*
X4095928Y-9123235D01*
X4099052Y-9125798D01*
X4101615Y-9128922D01*
X4103520Y-9132486D01*
X4104693Y-9136353D01*
X4105150Y-9140989D01*
X4105150Y-9248611D01*
X4104693Y-9253247D01*
X4103520Y-9257114D01*
X4101615Y-9260678D01*
X4099052Y-9263802D01*
X4095928Y-9266365D01*
X4092364Y-9268270D01*
X4088497Y-9269444D01*
X4083861Y-9269900D01*
X4018739Y-9269900D01*
X4014103Y-9269444D01*
X4010236Y-9268270D01*
X4006672Y-9266365D01*
X4003548Y-9263802D01*
X4000985Y-9260678D01*
X3999080Y-9257114D01*
X3997906Y-9253247D01*
X3997450Y-9248611D01*
X3997450Y-9140989D01*
X3997906Y-9136353D01*
X3999080Y-9132486D01*
X4000985Y-9128922D01*
X4003548Y-9125798D01*
X4006672Y-9123235D01*
X4010236Y-9121330D01*
X4014103Y-9120157D01*
X4018739Y-9119700D01*
X4083861Y-9119700D01*
X4088497Y-9120157D01*
X4088497Y-9120157D01*
G37*
G36*
X4275997Y-9120157D02*
X4279864Y-9121330D01*
X4283428Y-9123235D01*
X4286552Y-9125798D01*
X4289115Y-9128922D01*
X4291020Y-9132486D01*
X4292194Y-9136353D01*
X4292650Y-9140989D01*
X4292650Y-9248611D01*
X4292194Y-9253247D01*
X4291020Y-9257114D01*
X4289115Y-9260678D01*
X4286552Y-9263802D01*
X4283428Y-9266365D01*
X4279864Y-9268270D01*
X4275997Y-9269444D01*
X4271361Y-9269900D01*
X4206239Y-9269900D01*
X4201603Y-9269444D01*
X4197736Y-9268270D01*
X4194172Y-9266365D01*
X4191048Y-9263802D01*
X4188485Y-9260678D01*
X4186580Y-9257114D01*
X4185406Y-9253247D01*
X4184950Y-9248611D01*
X4184950Y-9140989D01*
X4185406Y-9136353D01*
X4186580Y-9132486D01*
X4188485Y-9128922D01*
X4191048Y-9125798D01*
X4194172Y-9123235D01*
X4197736Y-9121330D01*
X4201603Y-9120157D01*
X4206239Y-9119700D01*
X4271361Y-9119700D01*
X4275997Y-9120157D01*
X4275997Y-9120157D01*
G37*
G36*
X3660239Y-9166710D02*
X3668810Y-9170260D01*
X3676525Y-9175415D01*
X3683085Y-9181975D01*
X3688240Y-9189690D01*
X3691790Y-9198261D01*
X3693600Y-9207361D01*
X3693600Y-9216639D01*
X3691790Y-9225739D01*
X3688240Y-9234310D01*
X3683085Y-9242025D01*
X3676525Y-9248585D01*
X3668810Y-9253740D01*
X3660239Y-9257290D01*
X3651139Y-9259100D01*
X3641861Y-9259100D01*
X3632761Y-9257290D01*
X3624190Y-9253740D01*
X3616475Y-9248585D01*
X3609915Y-9242025D01*
X3604760Y-9234310D01*
X3601210Y-9225739D01*
X3599400Y-9216639D01*
X3599400Y-9207361D01*
X3601210Y-9198261D01*
X3604760Y-9189690D01*
X3609915Y-9181975D01*
X3616475Y-9175415D01*
X3624190Y-9170260D01*
X3632761Y-9166710D01*
X3641861Y-9164900D01*
X3651139Y-9164900D01*
X3660239Y-9166710D01*
X3660239Y-9166710D01*
G37*
G36*
X6052847Y-9128707D02*
X6056714Y-9129880D01*
X6060278Y-9131785D01*
X6063402Y-9134348D01*
X6065965Y-9137472D01*
X6067870Y-9141036D01*
X6069043Y-9144903D01*
X6069500Y-9149539D01*
X6069500Y-9214661D01*
X6069043Y-9219297D01*
X6067870Y-9223164D01*
X6065965Y-9226728D01*
X6063402Y-9229852D01*
X6060278Y-9232415D01*
X6056714Y-9234320D01*
X6052847Y-9235494D01*
X6048211Y-9235950D01*
X5940589Y-9235950D01*
X5935953Y-9235494D01*
X5932086Y-9234320D01*
X5928522Y-9232415D01*
X5925398Y-9229852D01*
X5922835Y-9226728D01*
X5920930Y-9223164D01*
X5919756Y-9219297D01*
X5919300Y-9214661D01*
X5919300Y-9149539D01*
X5919756Y-9144903D01*
X5920930Y-9141036D01*
X5922835Y-9137472D01*
X5925398Y-9134348D01*
X5928522Y-9131785D01*
X5932086Y-9129880D01*
X5935953Y-9128707D01*
X5940589Y-9128250D01*
X6048211Y-9128250D01*
X6052847Y-9128707D01*
X6052847Y-9128707D01*
G37*
G36*
X3760239Y-9101710D02*
X3768810Y-9105260D01*
X3776525Y-9110415D01*
X3783085Y-9116975D01*
X3788240Y-9124690D01*
X3791790Y-9133261D01*
X3793600Y-9142361D01*
X3793600Y-9151639D01*
X3791790Y-9160739D01*
X3788240Y-9169310D01*
X3783085Y-9177025D01*
X3776525Y-9183585D01*
X3768810Y-9188740D01*
X3760239Y-9192290D01*
X3751139Y-9194100D01*
X3741861Y-9194100D01*
X3732761Y-9192290D01*
X3724190Y-9188740D01*
X3716475Y-9183585D01*
X3709915Y-9177025D01*
X3704760Y-9169310D01*
X3701210Y-9160739D01*
X3699400Y-9151639D01*
X3699400Y-9142361D01*
X3701210Y-9133261D01*
X3704760Y-9124690D01*
X3709915Y-9116975D01*
X3716475Y-9110415D01*
X3724190Y-9105260D01*
X3732761Y-9101710D01*
X3741861Y-9099900D01*
X3751139Y-9099900D01*
X3760239Y-9101710D01*
X3760239Y-9101710D01*
G37*
G36*
X3793600Y-9064100D02*
X3706100Y-9064100D01*
X3703661Y-9064340D01*
X3701316Y-9065052D01*
X3699155Y-9066207D01*
X3697261Y-9067761D01*
X3695707Y-9069655D01*
X3694551Y-9071817D01*
X3693840Y-9074161D01*
X3693600Y-9076600D01*
X3693600Y-9086639D01*
X3691790Y-9095739D01*
X3688240Y-9104310D01*
X3683085Y-9112025D01*
X3676525Y-9118585D01*
X3668810Y-9123740D01*
X3660239Y-9127290D01*
X3651139Y-9129100D01*
X3641861Y-9129100D01*
X3632761Y-9127290D01*
X3624190Y-9123740D01*
X3616475Y-9118585D01*
X3609915Y-9112025D01*
X3604760Y-9104310D01*
X3601210Y-9095739D01*
X3599400Y-9086639D01*
X3599400Y-9077361D01*
X3601210Y-9068261D01*
X3604760Y-9059690D01*
X3609915Y-9051975D01*
X3616475Y-9045415D01*
X3624190Y-9040260D01*
X3632761Y-9036710D01*
X3641861Y-9034900D01*
X3651139Y-9034900D01*
X3660239Y-9036710D01*
X3668810Y-9040260D01*
X3676525Y-9045415D01*
X3678061Y-9046952D01*
X3679955Y-9048506D01*
X3682116Y-9049661D01*
X3684461Y-9050373D01*
X3686900Y-9050613D01*
X3689339Y-9050373D01*
X3691683Y-9049661D01*
X3693845Y-9048506D01*
X3695739Y-9046952D01*
X3697293Y-9045057D01*
X3698448Y-9042896D01*
X3699160Y-9040551D01*
X3699400Y-9038113D01*
X3699400Y-8969900D01*
X3793600Y-8969900D01*
X3793600Y-9064100D01*
X3793600Y-9064100D01*
G37*
G36*
X5588400Y-9083500D02*
X4803200Y-9083500D01*
X4803200Y-8973300D01*
X5588400Y-8973300D01*
X5588400Y-9083500D01*
X5588400Y-9083500D01*
G37*
G36*
X4088497Y-8904257D02*
X4092364Y-8905430D01*
X4095928Y-8907335D01*
X4099052Y-8909898D01*
X4101615Y-8913022D01*
X4103520Y-8916586D01*
X4104693Y-8920453D01*
X4105150Y-8925089D01*
X4105150Y-9032711D01*
X4104693Y-9037347D01*
X4103520Y-9041214D01*
X4101615Y-9044778D01*
X4099052Y-9047902D01*
X4095928Y-9050465D01*
X4092364Y-9052370D01*
X4088497Y-9053544D01*
X4083861Y-9054000D01*
X4018739Y-9054000D01*
X4014103Y-9053544D01*
X4010236Y-9052370D01*
X4006672Y-9050465D01*
X4003548Y-9047902D01*
X4000985Y-9044778D01*
X3999080Y-9041214D01*
X3997906Y-9037347D01*
X3997450Y-9032711D01*
X3997450Y-8925089D01*
X3997906Y-8920453D01*
X3999080Y-8916586D01*
X4000985Y-8913022D01*
X4003548Y-8909898D01*
X4006672Y-8907335D01*
X4010236Y-8905430D01*
X4014103Y-8904257D01*
X4018739Y-8903800D01*
X4083861Y-8903800D01*
X4088497Y-8904257D01*
X4088497Y-8904257D01*
G37*
G36*
X4275997Y-8904257D02*
X4279864Y-8905430D01*
X4283428Y-8907335D01*
X4286552Y-8909898D01*
X4289115Y-8913022D01*
X4291020Y-8916586D01*
X4292194Y-8920453D01*
X4292650Y-8925089D01*
X4292650Y-9032711D01*
X4292194Y-9037347D01*
X4291020Y-9041214D01*
X4289115Y-9044778D01*
X4286552Y-9047902D01*
X4283428Y-9050465D01*
X4279864Y-9052370D01*
X4275997Y-9053544D01*
X4271361Y-9054000D01*
X4206239Y-9054000D01*
X4201603Y-9053544D01*
X4197736Y-9052370D01*
X4194172Y-9050465D01*
X4191048Y-9047902D01*
X4188485Y-9044778D01*
X4186580Y-9041214D01*
X4185406Y-9037347D01*
X4184950Y-9032711D01*
X4184950Y-8925089D01*
X4185406Y-8920453D01*
X4186580Y-8916586D01*
X4188485Y-8913022D01*
X4191048Y-8909898D01*
X4194172Y-8907335D01*
X4197736Y-8905430D01*
X4201603Y-8904257D01*
X4206239Y-8903800D01*
X4271361Y-8903800D01*
X4275997Y-8904257D01*
X4275997Y-8904257D01*
G37*
G36*
X6052847Y-8941207D02*
X6056714Y-8942380D01*
X6060278Y-8944285D01*
X6063402Y-8946848D01*
X6065965Y-8949972D01*
X6067870Y-8953536D01*
X6069043Y-8957403D01*
X6069500Y-8962039D01*
X6069500Y-9027161D01*
X6069043Y-9031797D01*
X6067870Y-9035664D01*
X6065965Y-9039228D01*
X6063402Y-9042352D01*
X6060278Y-9044915D01*
X6056714Y-9046820D01*
X6052847Y-9047994D01*
X6048211Y-9048450D01*
X5940589Y-9048450D01*
X5935953Y-9047994D01*
X5932086Y-9046820D01*
X5928522Y-9044915D01*
X5925398Y-9042352D01*
X5922835Y-9039228D01*
X5920930Y-9035664D01*
X5919756Y-9031797D01*
X5919300Y-9027161D01*
X5919300Y-8962039D01*
X5919756Y-8957403D01*
X5920930Y-8953536D01*
X5922835Y-8949972D01*
X5925398Y-8946848D01*
X5928522Y-8944285D01*
X5932086Y-8942380D01*
X5935953Y-8941207D01*
X5940589Y-8940750D01*
X6048211Y-8940750D01*
X6052847Y-8941207D01*
X6052847Y-8941207D01*
G37*
G36*
X3752969Y-8695651D02*
X3752969Y-8695651D01*
X3752969Y-8695651D01*
X3770731Y-8703008D01*
X3770731Y-8703008D01*
X3786717Y-8713689D01*
X3800311Y-8727283D01*
X3800311Y-8727284D01*
X3810992Y-8743269D01*
X3818349Y-8761031D01*
X3822100Y-8779887D01*
X3822100Y-8799113D01*
X3818349Y-8817969D01*
X3810992Y-8835731D01*
X3800478Y-8851465D01*
X3800311Y-8851717D01*
X3786717Y-8865311D01*
X3786716Y-8865311D01*
X3770731Y-8875992D01*
X3752969Y-8883349D01*
X3752969Y-8883349D01*
X3752969Y-8883349D01*
X3734113Y-8887100D01*
X3714887Y-8887100D01*
X3696031Y-8883349D01*
X3696031Y-8883349D01*
X3696031Y-8883349D01*
X3678269Y-8875992D01*
X3662284Y-8865311D01*
X3662283Y-8865311D01*
X3648689Y-8851717D01*
X3648522Y-8851465D01*
X3638008Y-8835731D01*
X3630651Y-8817969D01*
X3626900Y-8799113D01*
X3626900Y-8779887D01*
X3630651Y-8761031D01*
X3638008Y-8743269D01*
X3648689Y-8727284D01*
X3648689Y-8727283D01*
X3662283Y-8713689D01*
X3678269Y-8703008D01*
X3678269Y-8703008D01*
X3696031Y-8695651D01*
X3696031Y-8695651D01*
X3696031Y-8695651D01*
X3714887Y-8691900D01*
X3734113Y-8691900D01*
X3752969Y-8695651D01*
X3752969Y-8695651D01*
G37*
G36*
X12205119Y-7897221D02*
X12207664Y-7897993D01*
X12210010Y-7899247D01*
X12212066Y-7900934D01*
X12213753Y-7902990D01*
X12215007Y-7905336D01*
X12215779Y-7907881D01*
X12216100Y-7911142D01*
X12216100Y-8852858D01*
X12215779Y-8856119D01*
X12215007Y-8858664D01*
X12213753Y-8861010D01*
X12212066Y-8863066D01*
X12210010Y-8864753D01*
X12207664Y-8866007D01*
X12205119Y-8866779D01*
X12201858Y-8867100D01*
X11440142Y-8867100D01*
X11436881Y-8866779D01*
X11434336Y-8866007D01*
X11431990Y-8864753D01*
X11429934Y-8863066D01*
X11428247Y-8861010D01*
X11426993Y-8858664D01*
X11426221Y-8856119D01*
X11425900Y-8852858D01*
X11425900Y-7911142D01*
X11426221Y-7907881D01*
X11426993Y-7905336D01*
X11428247Y-7902990D01*
X11429934Y-7900934D01*
X11431990Y-7899247D01*
X11434336Y-7897993D01*
X11436881Y-7897221D01*
X11440142Y-7896900D01*
X12201858Y-7896900D01*
X12205119Y-7897221D01*
X12205119Y-7897221D01*
G37*
G36*
X13455119Y-7897221D02*
X13457664Y-7897993D01*
X13460010Y-7899247D01*
X13462066Y-7900934D01*
X13463753Y-7902990D01*
X13465007Y-7905336D01*
X13465779Y-7907881D01*
X13466100Y-7911142D01*
X13466100Y-8852858D01*
X13465779Y-8856119D01*
X13465007Y-8858664D01*
X13463753Y-8861010D01*
X13462066Y-8863066D01*
X13460010Y-8864753D01*
X13457664Y-8866007D01*
X13455119Y-8866779D01*
X13451858Y-8867100D01*
X12690142Y-8867100D01*
X12686881Y-8866779D01*
X12684336Y-8866007D01*
X12681990Y-8864753D01*
X12679934Y-8863066D01*
X12678247Y-8861010D01*
X12676993Y-8858664D01*
X12676221Y-8856119D01*
X12675900Y-8852858D01*
X12675900Y-7911142D01*
X12676221Y-7907881D01*
X12676993Y-7905336D01*
X12678247Y-7902990D01*
X12679934Y-7900934D01*
X12681990Y-7899247D01*
X12684336Y-7897993D01*
X12686881Y-7897221D01*
X12690142Y-7896900D01*
X13451858Y-7896900D01*
X13455119Y-7897221D01*
X13455119Y-7897221D01*
G37*
G36*
X4961900Y-8766400D02*
X4791700Y-8766400D01*
X4791700Y-8626200D01*
X4961900Y-8626200D01*
X4961900Y-8766400D01*
X4961900Y-8766400D01*
G37*
G36*
X4631900Y-8766400D02*
X4461700Y-8766400D01*
X4461700Y-8626200D01*
X4631900Y-8626200D01*
X4631900Y-8766400D01*
X4631900Y-8766400D01*
G37*
G36*
X4363747Y-8630407D02*
X4367614Y-8631580D01*
X4371178Y-8633485D01*
X4374302Y-8636048D01*
X4376865Y-8639172D01*
X4378770Y-8642736D01*
X4379944Y-8646603D01*
X4380400Y-8651239D01*
X4380400Y-8716361D01*
X4379944Y-8720997D01*
X4378770Y-8724864D01*
X4376865Y-8728428D01*
X4374302Y-8731552D01*
X4371178Y-8734115D01*
X4367614Y-8736020D01*
X4363747Y-8737194D01*
X4359111Y-8737650D01*
X4251489Y-8737650D01*
X4246853Y-8737194D01*
X4242986Y-8736020D01*
X4239422Y-8734115D01*
X4236298Y-8731552D01*
X4233735Y-8728428D01*
X4231830Y-8724864D01*
X4230657Y-8720997D01*
X4230200Y-8716361D01*
X4230200Y-8651239D01*
X4230657Y-8646603D01*
X4231830Y-8642736D01*
X4233735Y-8639172D01*
X4236298Y-8636048D01*
X4239422Y-8633485D01*
X4242986Y-8631580D01*
X4246853Y-8630407D01*
X4251489Y-8629950D01*
X4359111Y-8629950D01*
X4363747Y-8630407D01*
X4363747Y-8630407D01*
G37*
G36*
X5163847Y-8625557D02*
X5167714Y-8626730D01*
X5171278Y-8628635D01*
X5174402Y-8631198D01*
X5176965Y-8634322D01*
X5178870Y-8637886D01*
X5180044Y-8641753D01*
X5180500Y-8646389D01*
X5180500Y-8711511D01*
X5180044Y-8716147D01*
X5178870Y-8720014D01*
X5176965Y-8723578D01*
X5174402Y-8726702D01*
X5171278Y-8729265D01*
X5167714Y-8731170D01*
X5163847Y-8732344D01*
X5159211Y-8732800D01*
X5051589Y-8732800D01*
X5046953Y-8732344D01*
X5043086Y-8731170D01*
X5039522Y-8729265D01*
X5036398Y-8726702D01*
X5033835Y-8723578D01*
X5031930Y-8720014D01*
X5030757Y-8716147D01*
X5030300Y-8711511D01*
X5030300Y-8646389D01*
X5030757Y-8641753D01*
X5031930Y-8637886D01*
X5033835Y-8634322D01*
X5036398Y-8631198D01*
X5039522Y-8628635D01*
X5043086Y-8626730D01*
X5046953Y-8625557D01*
X5051589Y-8625100D01*
X5159211Y-8625100D01*
X5163847Y-8625557D01*
X5163847Y-8625557D01*
G37*
G36*
X4961900Y-8566400D02*
X4791700Y-8566400D01*
X4791700Y-8426200D01*
X4961900Y-8426200D01*
X4961900Y-8566400D01*
X4961900Y-8566400D01*
G37*
G36*
X4631900Y-8566400D02*
X4461700Y-8566400D01*
X4461700Y-8426200D01*
X4631900Y-8426200D01*
X4631900Y-8566400D01*
X4631900Y-8566400D01*
G37*
G36*
X4363747Y-8442907D02*
X4367614Y-8444080D01*
X4371178Y-8445985D01*
X4374302Y-8448548D01*
X4376865Y-8451672D01*
X4378770Y-8455236D01*
X4379944Y-8459103D01*
X4380400Y-8463739D01*
X4380400Y-8528861D01*
X4379944Y-8533497D01*
X4378770Y-8537364D01*
X4376865Y-8540928D01*
X4374302Y-8544052D01*
X4371178Y-8546615D01*
X4367614Y-8548520D01*
X4363747Y-8549694D01*
X4359111Y-8550150D01*
X4251489Y-8550150D01*
X4246853Y-8549694D01*
X4242986Y-8548520D01*
X4239422Y-8546615D01*
X4236298Y-8544052D01*
X4233735Y-8540928D01*
X4231830Y-8537364D01*
X4230657Y-8533497D01*
X4230200Y-8528861D01*
X4230200Y-8463739D01*
X4230657Y-8459103D01*
X4231830Y-8455236D01*
X4233735Y-8451672D01*
X4236298Y-8448548D01*
X4239422Y-8445985D01*
X4242986Y-8444080D01*
X4246853Y-8442907D01*
X4251489Y-8442450D01*
X4359111Y-8442450D01*
X4363747Y-8442907D01*
X4363747Y-8442907D01*
G37*
G36*
X5163847Y-8438057D02*
X5167714Y-8439230D01*
X5171278Y-8441135D01*
X5174402Y-8443698D01*
X5176965Y-8446822D01*
X5178870Y-8450386D01*
X5180044Y-8454253D01*
X5180500Y-8458889D01*
X5180500Y-8524011D01*
X5180044Y-8528647D01*
X5178870Y-8532514D01*
X5176965Y-8536078D01*
X5174402Y-8539202D01*
X5171278Y-8541765D01*
X5167714Y-8543670D01*
X5163847Y-8544844D01*
X5159211Y-8545300D01*
X5051589Y-8545300D01*
X5046953Y-8544844D01*
X5043086Y-8543670D01*
X5039522Y-8541765D01*
X5036398Y-8539202D01*
X5033835Y-8536078D01*
X5031930Y-8532514D01*
X5030757Y-8528647D01*
X5030300Y-8524011D01*
X5030300Y-8458889D01*
X5030757Y-8454253D01*
X5031930Y-8450386D01*
X5033835Y-8446822D01*
X5036398Y-8443698D01*
X5039522Y-8441135D01*
X5043086Y-8439230D01*
X5046953Y-8438057D01*
X5051589Y-8437600D01*
X5159211Y-8437600D01*
X5163847Y-8438057D01*
X5163847Y-8438057D01*
G37*
G36*
X5958867Y-8435287D02*
X5962734Y-8436460D01*
X5966298Y-8438365D01*
X5969422Y-8440928D01*
X5971985Y-8444052D01*
X5973890Y-8447616D01*
X5975063Y-8451483D01*
X5975520Y-8456119D01*
X5975520Y-8521241D01*
X5975063Y-8525877D01*
X5973890Y-8529744D01*
X5971985Y-8533308D01*
X5969422Y-8536432D01*
X5966298Y-8538995D01*
X5962734Y-8540900D01*
X5958867Y-8542074D01*
X5954231Y-8542530D01*
X5846609Y-8542530D01*
X5841973Y-8542074D01*
X5838106Y-8540900D01*
X5834542Y-8538995D01*
X5831418Y-8536432D01*
X5828855Y-8533308D01*
X5826950Y-8529744D01*
X5825776Y-8525877D01*
X5825320Y-8521241D01*
X5825320Y-8456119D01*
X5825776Y-8451483D01*
X5826950Y-8447616D01*
X5828855Y-8444052D01*
X5831418Y-8440928D01*
X5834542Y-8438365D01*
X5838106Y-8436460D01*
X5841973Y-8435287D01*
X5846609Y-8434830D01*
X5954231Y-8434830D01*
X5958867Y-8435287D01*
X5958867Y-8435287D01*
G37*
G36*
X6558307Y-8356546D02*
X6562174Y-8357720D01*
X6565738Y-8359625D01*
X6568862Y-8362188D01*
X6571425Y-8365312D01*
X6573330Y-8368876D01*
X6574503Y-8372743D01*
X6574960Y-8377379D01*
X6574960Y-8442501D01*
X6574503Y-8447137D01*
X6573330Y-8451004D01*
X6571425Y-8454568D01*
X6568862Y-8457692D01*
X6565738Y-8460255D01*
X6562174Y-8462160D01*
X6558307Y-8463334D01*
X6553671Y-8463790D01*
X6446049Y-8463790D01*
X6441413Y-8463334D01*
X6437546Y-8462160D01*
X6433982Y-8460255D01*
X6430858Y-8457692D01*
X6428295Y-8454568D01*
X6426390Y-8451004D01*
X6425216Y-8447137D01*
X6424760Y-8442501D01*
X6424760Y-8377379D01*
X6425216Y-8372743D01*
X6426390Y-8368876D01*
X6428295Y-8365312D01*
X6430858Y-8362188D01*
X6433982Y-8359625D01*
X6437546Y-8357720D01*
X6441413Y-8356546D01*
X6446049Y-8356090D01*
X6553671Y-8356090D01*
X6558307Y-8356546D01*
X6558307Y-8356546D01*
G37*
G36*
X5958867Y-8247786D02*
X5962734Y-8248960D01*
X5966298Y-8250865D01*
X5969422Y-8253428D01*
X5971985Y-8256552D01*
X5973890Y-8260116D01*
X5975063Y-8263983D01*
X5975520Y-8268619D01*
X5975520Y-8333741D01*
X5975063Y-8338377D01*
X5973890Y-8342244D01*
X5971985Y-8345808D01*
X5969422Y-8348932D01*
X5966298Y-8351495D01*
X5962734Y-8353400D01*
X5958867Y-8354573D01*
X5954231Y-8355030D01*
X5846609Y-8355030D01*
X5841973Y-8354573D01*
X5838106Y-8353400D01*
X5834542Y-8351495D01*
X5831418Y-8348932D01*
X5828855Y-8345808D01*
X5826950Y-8342244D01*
X5825776Y-8338377D01*
X5825320Y-8333741D01*
X5825320Y-8268619D01*
X5825776Y-8263983D01*
X5826950Y-8260116D01*
X5828855Y-8256552D01*
X5831418Y-8253428D01*
X5834542Y-8250865D01*
X5838106Y-8248960D01*
X5841973Y-8247786D01*
X5846609Y-8247330D01*
X5954231Y-8247330D01*
X5958867Y-8247786D01*
X5958867Y-8247786D01*
G37*
G36*
X6558307Y-8169046D02*
X6562174Y-8170220D01*
X6565738Y-8172125D01*
X6568862Y-8174688D01*
X6571425Y-8177812D01*
X6573330Y-8181376D01*
X6574503Y-8185243D01*
X6574960Y-8189879D01*
X6574960Y-8255001D01*
X6574503Y-8259637D01*
X6573330Y-8263504D01*
X6571425Y-8267068D01*
X6568862Y-8270192D01*
X6565738Y-8272755D01*
X6562174Y-8274660D01*
X6558307Y-8275833D01*
X6553671Y-8276290D01*
X6446049Y-8276290D01*
X6441413Y-8275833D01*
X6437546Y-8274660D01*
X6433982Y-8272755D01*
X6430858Y-8270192D01*
X6428295Y-8267068D01*
X6426390Y-8263504D01*
X6425216Y-8259637D01*
X6424760Y-8255001D01*
X6424760Y-8189879D01*
X6425216Y-8185243D01*
X6426390Y-8181376D01*
X6428295Y-8177812D01*
X6430858Y-8174688D01*
X6433982Y-8172125D01*
X6437546Y-8170220D01*
X6441413Y-8169046D01*
X6446049Y-8168590D01*
X6553671Y-8168590D01*
X6558307Y-8169046D01*
X6558307Y-8169046D01*
G37*
G36*
X5117197Y-8104156D02*
X5121064Y-8105330D01*
X5124628Y-8107235D01*
X5127752Y-8109798D01*
X5130315Y-8112922D01*
X5132220Y-8116486D01*
X5133394Y-8120353D01*
X5133850Y-8124989D01*
X5133850Y-8232611D01*
X5133394Y-8237247D01*
X5132220Y-8241114D01*
X5130315Y-8244678D01*
X5127752Y-8247802D01*
X5124628Y-8250365D01*
X5121064Y-8252270D01*
X5117197Y-8253443D01*
X5112561Y-8253900D01*
X5047439Y-8253900D01*
X5042803Y-8253443D01*
X5038936Y-8252270D01*
X5035372Y-8250365D01*
X5032248Y-8247802D01*
X5029685Y-8244678D01*
X5027780Y-8241114D01*
X5026607Y-8237247D01*
X5026150Y-8232611D01*
X5026150Y-8124989D01*
X5026607Y-8120353D01*
X5027780Y-8116486D01*
X5029685Y-8112922D01*
X5032248Y-8109798D01*
X5035372Y-8107235D01*
X5038936Y-8105330D01*
X5042803Y-8104156D01*
X5047439Y-8103700D01*
X5112561Y-8103700D01*
X5117197Y-8104156D01*
X5117197Y-8104156D01*
G37*
G36*
X4929697Y-8104156D02*
X4933564Y-8105330D01*
X4937128Y-8107235D01*
X4940252Y-8109798D01*
X4942815Y-8112922D01*
X4944720Y-8116486D01*
X4945894Y-8120353D01*
X4946350Y-8124989D01*
X4946350Y-8232611D01*
X4945894Y-8237247D01*
X4944720Y-8241114D01*
X4942815Y-8244678D01*
X4940252Y-8247802D01*
X4937128Y-8250365D01*
X4933564Y-8252270D01*
X4929697Y-8253443D01*
X4925061Y-8253900D01*
X4859939Y-8253900D01*
X4855303Y-8253443D01*
X4851436Y-8252270D01*
X4847872Y-8250365D01*
X4844748Y-8247802D01*
X4842185Y-8244678D01*
X4840280Y-8241114D01*
X4839107Y-8237247D01*
X4838650Y-8232611D01*
X4838650Y-8124989D01*
X4839107Y-8120353D01*
X4840280Y-8116486D01*
X4842185Y-8112922D01*
X4844748Y-8109798D01*
X4847872Y-8107235D01*
X4851436Y-8105330D01*
X4855303Y-8104156D01*
X4859939Y-8103700D01*
X4925061Y-8103700D01*
X4929697Y-8104156D01*
X4929697Y-8104156D01*
G37*
G36*
X5364037Y-8093996D02*
X5367904Y-8095170D01*
X5371468Y-8097075D01*
X5374592Y-8099638D01*
X5377155Y-8102762D01*
X5379060Y-8106326D01*
X5380234Y-8110193D01*
X5380690Y-8114829D01*
X5380690Y-8222451D01*
X5380234Y-8227087D01*
X5379060Y-8230954D01*
X5377155Y-8234518D01*
X5374592Y-8237642D01*
X5371468Y-8240205D01*
X5367904Y-8242110D01*
X5364037Y-8243283D01*
X5359401Y-8243740D01*
X5294279Y-8243740D01*
X5289643Y-8243283D01*
X5285776Y-8242110D01*
X5282212Y-8240205D01*
X5279088Y-8237642D01*
X5276525Y-8234518D01*
X5274620Y-8230954D01*
X5273447Y-8227087D01*
X5272990Y-8222451D01*
X5272990Y-8114829D01*
X5273447Y-8110193D01*
X5274620Y-8106326D01*
X5276525Y-8102762D01*
X5279088Y-8099638D01*
X5282212Y-8097075D01*
X5285776Y-8095170D01*
X5289643Y-8093996D01*
X5294279Y-8093540D01*
X5359401Y-8093540D01*
X5364037Y-8093996D01*
X5364037Y-8093996D01*
G37*
G36*
X5551537Y-8093996D02*
X5555404Y-8095170D01*
X5558968Y-8097075D01*
X5562092Y-8099638D01*
X5564655Y-8102762D01*
X5566560Y-8106326D01*
X5567734Y-8110193D01*
X5568190Y-8114829D01*
X5568190Y-8222451D01*
X5567734Y-8227087D01*
X5566560Y-8230954D01*
X5564655Y-8234518D01*
X5562092Y-8237642D01*
X5558968Y-8240205D01*
X5555404Y-8242110D01*
X5551537Y-8243283D01*
X5546901Y-8243740D01*
X5481779Y-8243740D01*
X5477143Y-8243283D01*
X5473276Y-8242110D01*
X5469712Y-8240205D01*
X5466588Y-8237642D01*
X5464025Y-8234518D01*
X5462120Y-8230954D01*
X5460947Y-8227087D01*
X5460490Y-8222451D01*
X5460490Y-8114829D01*
X5460947Y-8110193D01*
X5462120Y-8106326D01*
X5464025Y-8102762D01*
X5466588Y-8099638D01*
X5469712Y-8097075D01*
X5473276Y-8095170D01*
X5477143Y-8093996D01*
X5481779Y-8093540D01*
X5546901Y-8093540D01*
X5551537Y-8093996D01*
X5551537Y-8093996D01*
G37*
G36*
X6554837Y-7959376D02*
X6558704Y-7960550D01*
X6562268Y-7962455D01*
X6565392Y-7965018D01*
X6567955Y-7968142D01*
X6569860Y-7971706D01*
X6571033Y-7975573D01*
X6571490Y-7980209D01*
X6571490Y-8087831D01*
X6571033Y-8092467D01*
X6569860Y-8096334D01*
X6567955Y-8099898D01*
X6565392Y-8103022D01*
X6562268Y-8105585D01*
X6558704Y-8107490D01*
X6554837Y-8108663D01*
X6550201Y-8109120D01*
X6485079Y-8109120D01*
X6480443Y-8108663D01*
X6476576Y-8107490D01*
X6473012Y-8105585D01*
X6469888Y-8103022D01*
X6467325Y-8099898D01*
X6465420Y-8096334D01*
X6464246Y-8092467D01*
X6463790Y-8087831D01*
X6463790Y-7980209D01*
X6464246Y-7975573D01*
X6465420Y-7971706D01*
X6467325Y-7968142D01*
X6469888Y-7965018D01*
X6473012Y-7962455D01*
X6476576Y-7960550D01*
X6480443Y-7959376D01*
X6485079Y-7958920D01*
X6550201Y-7958920D01*
X6554837Y-7959376D01*
X6554837Y-7959376D01*
G37*
G36*
X6742337Y-7959376D02*
X6746204Y-7960550D01*
X6749768Y-7962455D01*
X6752892Y-7965018D01*
X6755455Y-7968142D01*
X6757360Y-7971706D01*
X6758533Y-7975573D01*
X6758990Y-7980209D01*
X6758990Y-8087831D01*
X6758533Y-8092467D01*
X6757360Y-8096334D01*
X6755455Y-8099898D01*
X6752892Y-8103022D01*
X6749768Y-8105585D01*
X6746204Y-8107490D01*
X6742337Y-8108663D01*
X6737701Y-8109120D01*
X6672579Y-8109120D01*
X6667943Y-8108663D01*
X6664076Y-8107490D01*
X6660512Y-8105585D01*
X6657388Y-8103022D01*
X6654825Y-8099898D01*
X6652920Y-8096334D01*
X6651746Y-8092467D01*
X6651290Y-8087831D01*
X6651290Y-7980209D01*
X6651746Y-7975573D01*
X6652920Y-7971706D01*
X6654825Y-7968142D01*
X6657388Y-7965018D01*
X6660512Y-7962455D01*
X6664076Y-7960550D01*
X6667943Y-7959376D01*
X6672579Y-7958920D01*
X6737701Y-7958920D01*
X6742337Y-7959376D01*
X6742337Y-7959376D01*
G37*
G36*
X4390297Y-7951756D02*
X4394164Y-7952930D01*
X4397728Y-7954835D01*
X4400852Y-7957398D01*
X4403415Y-7960522D01*
X4405320Y-7964086D01*
X4406494Y-7967953D01*
X4406950Y-7972589D01*
X4406950Y-8080211D01*
X4406494Y-8084847D01*
X4405320Y-8088714D01*
X4403415Y-8092278D01*
X4400852Y-8095402D01*
X4397728Y-8097965D01*
X4394164Y-8099870D01*
X4390297Y-8101043D01*
X4385661Y-8101500D01*
X4320539Y-8101500D01*
X4315903Y-8101043D01*
X4312036Y-8099870D01*
X4308472Y-8097965D01*
X4305348Y-8095402D01*
X4302785Y-8092278D01*
X4300880Y-8088714D01*
X4299707Y-8084847D01*
X4299250Y-8080211D01*
X4299250Y-7972589D01*
X4299707Y-7967953D01*
X4300880Y-7964086D01*
X4302785Y-7960522D01*
X4305348Y-7957398D01*
X4308472Y-7954835D01*
X4312036Y-7952930D01*
X4315903Y-7951756D01*
X4320539Y-7951300D01*
X4385661Y-7951300D01*
X4390297Y-7951756D01*
X4390297Y-7951756D01*
G37*
G36*
X4202797Y-7951756D02*
X4206664Y-7952930D01*
X4210228Y-7954835D01*
X4213352Y-7957398D01*
X4215915Y-7960522D01*
X4217820Y-7964086D01*
X4218994Y-7967953D01*
X4219450Y-7972589D01*
X4219450Y-8080211D01*
X4218994Y-8084847D01*
X4217820Y-8088714D01*
X4215915Y-8092278D01*
X4213352Y-8095402D01*
X4210228Y-8097965D01*
X4206664Y-8099870D01*
X4202797Y-8101043D01*
X4198161Y-8101500D01*
X4133039Y-8101500D01*
X4128403Y-8101043D01*
X4124536Y-8099870D01*
X4120972Y-8097965D01*
X4117848Y-8095402D01*
X4115285Y-8092278D01*
X4113380Y-8088714D01*
X4112206Y-8084847D01*
X4111750Y-8080211D01*
X4111750Y-7972589D01*
X4112206Y-7967953D01*
X4113380Y-7964086D01*
X4115285Y-7960522D01*
X4117848Y-7957398D01*
X4120972Y-7954835D01*
X4124536Y-7952930D01*
X4128403Y-7951756D01*
X4133039Y-7951300D01*
X4198161Y-7951300D01*
X4202797Y-7951756D01*
X4202797Y-7951756D01*
G37*
G36*
X4929697Y-7850156D02*
X4933564Y-7851330D01*
X4937128Y-7853235D01*
X4940252Y-7855798D01*
X4942815Y-7858922D01*
X4944720Y-7862486D01*
X4945894Y-7866353D01*
X4946350Y-7870989D01*
X4946350Y-7978611D01*
X4945894Y-7983247D01*
X4944720Y-7987114D01*
X4942815Y-7990678D01*
X4940252Y-7993802D01*
X4937128Y-7996365D01*
X4933564Y-7998270D01*
X4929697Y-7999443D01*
X4925061Y-7999900D01*
X4859939Y-7999900D01*
X4855303Y-7999443D01*
X4851436Y-7998270D01*
X4847872Y-7996365D01*
X4844748Y-7993802D01*
X4842185Y-7990678D01*
X4840280Y-7987114D01*
X4839107Y-7983247D01*
X4838650Y-7978611D01*
X4838650Y-7870989D01*
X4839107Y-7866353D01*
X4840280Y-7862486D01*
X4842185Y-7858922D01*
X4844748Y-7855798D01*
X4847872Y-7853235D01*
X4851436Y-7851330D01*
X4855303Y-7850156D01*
X4859939Y-7849700D01*
X4925061Y-7849700D01*
X4929697Y-7850156D01*
X4929697Y-7850156D01*
G37*
G36*
X5117197Y-7850156D02*
X5121064Y-7851330D01*
X5124628Y-7853235D01*
X5127752Y-7855798D01*
X5130315Y-7858922D01*
X5132220Y-7862486D01*
X5133394Y-7866353D01*
X5133850Y-7870989D01*
X5133850Y-7978611D01*
X5133394Y-7983247D01*
X5132220Y-7987114D01*
X5130315Y-7990678D01*
X5127752Y-7993802D01*
X5124628Y-7996365D01*
X5121064Y-7998270D01*
X5117197Y-7999443D01*
X5112561Y-7999900D01*
X5047439Y-7999900D01*
X5042803Y-7999443D01*
X5038936Y-7998270D01*
X5035372Y-7996365D01*
X5032248Y-7993802D01*
X5029685Y-7990678D01*
X5027780Y-7987114D01*
X5026607Y-7983247D01*
X5026150Y-7978611D01*
X5026150Y-7870989D01*
X5026607Y-7866353D01*
X5027780Y-7862486D01*
X5029685Y-7858922D01*
X5032248Y-7855798D01*
X5035372Y-7853235D01*
X5038936Y-7851330D01*
X5042803Y-7850156D01*
X5047439Y-7849700D01*
X5112561Y-7849700D01*
X5117197Y-7850156D01*
X5117197Y-7850156D01*
G37*
G36*
X6689739Y-7898150D02*
X5299061Y-7898150D01*
X5299061Y-7720310D01*
X6689739Y-7720310D01*
X6689739Y-7898150D01*
X6689739Y-7898150D01*
G37*
G36*
X4390297Y-7723156D02*
X4394164Y-7724330D01*
X4397728Y-7726235D01*
X4400852Y-7728798D01*
X4403415Y-7731922D01*
X4405320Y-7735486D01*
X4406494Y-7739353D01*
X4406950Y-7743989D01*
X4406950Y-7851611D01*
X4406494Y-7856247D01*
X4405320Y-7860114D01*
X4403415Y-7863678D01*
X4400852Y-7866802D01*
X4397728Y-7869365D01*
X4394164Y-7871270D01*
X4390297Y-7872443D01*
X4385661Y-7872900D01*
X4320539Y-7872900D01*
X4315903Y-7872443D01*
X4312036Y-7871270D01*
X4308472Y-7869365D01*
X4305348Y-7866802D01*
X4302785Y-7863678D01*
X4300880Y-7860114D01*
X4299707Y-7856247D01*
X4299250Y-7851611D01*
X4299250Y-7743989D01*
X4299707Y-7739353D01*
X4300880Y-7735486D01*
X4302785Y-7731922D01*
X4305348Y-7728798D01*
X4308472Y-7726235D01*
X4312036Y-7724330D01*
X4315903Y-7723156D01*
X4320539Y-7722700D01*
X4385661Y-7722700D01*
X4390297Y-7723156D01*
X4390297Y-7723156D01*
G37*
G36*
X4202797Y-7723156D02*
X4206664Y-7724330D01*
X4210228Y-7726235D01*
X4213352Y-7728798D01*
X4215915Y-7731922D01*
X4217820Y-7735486D01*
X4218994Y-7739353D01*
X4219450Y-7743989D01*
X4219450Y-7851611D01*
X4218994Y-7856247D01*
X4217820Y-7860114D01*
X4215915Y-7863678D01*
X4213352Y-7866802D01*
X4210228Y-7869365D01*
X4206664Y-7871270D01*
X4202797Y-7872443D01*
X4198161Y-7872900D01*
X4133039Y-7872900D01*
X4128403Y-7872443D01*
X4124536Y-7871270D01*
X4120972Y-7869365D01*
X4117848Y-7866802D01*
X4115285Y-7863678D01*
X4113380Y-7860114D01*
X4112206Y-7856247D01*
X4111750Y-7851611D01*
X4111750Y-7743989D01*
X4112206Y-7739353D01*
X4113380Y-7735486D01*
X4115285Y-7731922D01*
X4117848Y-7728798D01*
X4120972Y-7726235D01*
X4124536Y-7724330D01*
X4128403Y-7723156D01*
X4133039Y-7722700D01*
X4198161Y-7722700D01*
X4202797Y-7723156D01*
X4202797Y-7723156D01*
G37*
G36*
X6317000Y-7627800D02*
X5671800Y-7627800D01*
X5671800Y-7256600D01*
X6317000Y-7256600D01*
X6317000Y-7627800D01*
X6317000Y-7627800D01*
G37*
G36*
X4931100Y-7598500D02*
X4720900Y-7598500D01*
X4720900Y-7438300D01*
X4931100Y-7438300D01*
X4931100Y-7598500D01*
X4931100Y-7598500D01*
G37*
G36*
X4301100Y-7483500D02*
X4090900Y-7483500D01*
X4090900Y-7093300D01*
X4301100Y-7093300D01*
X4301100Y-7483500D01*
X4301100Y-7483500D01*
G37*
G36*
X7043360Y-7298835D02*
X7047014Y-7299943D01*
X7050382Y-7301743D01*
X7053334Y-7304166D01*
X7055757Y-7307118D01*
X7057557Y-7310485D01*
X7058665Y-7314140D01*
X7059100Y-7318554D01*
X7059100Y-7413446D01*
X7058665Y-7417860D01*
X7057557Y-7421514D01*
X7055757Y-7424882D01*
X7053334Y-7427834D01*
X7050382Y-7430257D01*
X7047014Y-7432057D01*
X7043360Y-7433165D01*
X7038946Y-7433600D01*
X6804054Y-7433600D01*
X6799640Y-7433165D01*
X6795985Y-7432057D01*
X6792618Y-7430257D01*
X6789666Y-7427834D01*
X6787243Y-7424882D01*
X6785443Y-7421514D01*
X6784335Y-7417860D01*
X6783900Y-7413446D01*
X6783900Y-7318554D01*
X6784335Y-7314140D01*
X6785443Y-7310485D01*
X6787243Y-7307118D01*
X6789666Y-7304166D01*
X6792618Y-7301743D01*
X6795985Y-7299943D01*
X6799640Y-7298835D01*
X6804054Y-7298400D01*
X7038946Y-7298400D01*
X7043360Y-7298835D01*
X7043360Y-7298835D01*
G37*
G36*
X4931100Y-7368500D02*
X4720900Y-7368500D01*
X4720900Y-7208300D01*
X4931100Y-7208300D01*
X4931100Y-7368500D01*
X4931100Y-7368500D01*
G37*
G36*
X13569700Y-7365900D02*
X13049500Y-7365900D01*
X13049500Y-7120700D01*
X13569700Y-7120700D01*
X13569700Y-7365900D01*
X13569700Y-7365900D01*
G37*
G36*
X12036600Y-7363000D02*
X11966400Y-7363000D01*
X11966400Y-7197800D01*
X12036600Y-7197800D01*
X12036600Y-7363000D01*
X12036600Y-7363000D01*
G37*
G36*
X12290600Y-7363000D02*
X12220400Y-7363000D01*
X12220400Y-7197800D01*
X12290600Y-7197800D01*
X12290600Y-7363000D01*
X12290600Y-7363000D01*
G37*
G36*
X12417600Y-7363000D02*
X12347400Y-7363000D01*
X12347400Y-7197800D01*
X12417600Y-7197800D01*
X12417600Y-7363000D01*
X12417600Y-7363000D01*
G37*
G36*
X12163600Y-7363000D02*
X12093400Y-7363000D01*
X12093400Y-7197800D01*
X12163600Y-7197800D01*
X12163600Y-7363000D01*
X12163600Y-7363000D01*
G37*
G36*
X12820500Y-7362700D02*
X12630300Y-7362700D01*
X12630300Y-7102500D01*
X12820500Y-7102500D01*
X12820500Y-7362700D01*
X12820500Y-7362700D01*
G37*
G36*
X7241567Y-7246106D02*
X7245434Y-7247280D01*
X7248998Y-7249185D01*
X7252122Y-7251748D01*
X7254685Y-7254872D01*
X7256590Y-7258436D01*
X7257763Y-7262303D01*
X7258220Y-7266939D01*
X7258220Y-7332061D01*
X7257763Y-7336697D01*
X7256590Y-7340564D01*
X7254685Y-7344128D01*
X7252122Y-7347252D01*
X7248998Y-7349815D01*
X7245434Y-7351720D01*
X7241567Y-7352893D01*
X7236931Y-7353350D01*
X7129309Y-7353350D01*
X7124673Y-7352893D01*
X7120806Y-7351720D01*
X7117242Y-7349815D01*
X7114118Y-7347252D01*
X7111555Y-7344128D01*
X7109650Y-7340564D01*
X7108476Y-7336697D01*
X7108020Y-7332061D01*
X7108020Y-7266939D01*
X7108476Y-7262303D01*
X7109650Y-7258436D01*
X7111555Y-7254872D01*
X7114118Y-7251748D01*
X7117242Y-7249185D01*
X7120806Y-7247280D01*
X7124673Y-7246106D01*
X7129309Y-7245650D01*
X7236931Y-7245650D01*
X7241567Y-7246106D01*
X7241567Y-7246106D01*
G37*
G36*
X7447307Y-7246106D02*
X7451174Y-7247280D01*
X7454738Y-7249185D01*
X7457862Y-7251748D01*
X7460425Y-7254872D01*
X7462330Y-7258436D01*
X7463503Y-7262303D01*
X7463960Y-7266939D01*
X7463960Y-7332061D01*
X7463503Y-7336697D01*
X7462330Y-7340564D01*
X7460425Y-7344128D01*
X7457862Y-7347252D01*
X7454738Y-7349815D01*
X7451174Y-7351720D01*
X7447307Y-7352893D01*
X7442671Y-7353350D01*
X7335049Y-7353350D01*
X7330413Y-7352893D01*
X7326546Y-7351720D01*
X7322982Y-7349815D01*
X7319858Y-7347252D01*
X7317295Y-7344128D01*
X7315390Y-7340564D01*
X7314216Y-7336697D01*
X7313760Y-7332061D01*
X7313760Y-7266939D01*
X7314216Y-7262303D01*
X7315390Y-7258436D01*
X7317295Y-7254872D01*
X7319858Y-7251748D01*
X7322982Y-7249185D01*
X7326546Y-7247280D01*
X7330413Y-7246106D01*
X7335049Y-7245650D01*
X7442671Y-7245650D01*
X7447307Y-7246106D01*
X7447307Y-7246106D01*
G37*
G36*
X5201947Y-7228556D02*
X5205814Y-7229730D01*
X5209378Y-7231635D01*
X5212502Y-7234198D01*
X5215065Y-7237322D01*
X5216970Y-7240886D01*
X5218144Y-7244753D01*
X5218600Y-7249389D01*
X5218600Y-7314511D01*
X5218144Y-7319147D01*
X5216970Y-7323014D01*
X5215065Y-7326578D01*
X5212502Y-7329702D01*
X5209378Y-7332265D01*
X5205814Y-7334170D01*
X5201947Y-7335343D01*
X5197311Y-7335800D01*
X5089689Y-7335800D01*
X5085053Y-7335343D01*
X5081186Y-7334170D01*
X5077622Y-7332265D01*
X5074498Y-7329702D01*
X5071935Y-7326578D01*
X5070030Y-7323014D01*
X5068857Y-7319147D01*
X5068400Y-7314511D01*
X5068400Y-7249389D01*
X5068857Y-7244753D01*
X5070030Y-7240886D01*
X5071935Y-7237322D01*
X5074498Y-7234198D01*
X5077622Y-7231635D01*
X5081186Y-7229730D01*
X5085053Y-7228556D01*
X5089689Y-7228100D01*
X5197311Y-7228100D01*
X5201947Y-7228556D01*
X5201947Y-7228556D01*
G37*
G36*
X11175800Y-7248700D02*
X11010600Y-7248700D01*
X11010600Y-7178500D01*
X11175800Y-7178500D01*
X11175800Y-7248700D01*
X11175800Y-7248700D01*
G37*
G36*
X11715800Y-7248700D02*
X11550600Y-7248700D01*
X11550600Y-7178500D01*
X11715800Y-7178500D01*
X11715800Y-7248700D01*
X11715800Y-7248700D01*
G37*
G36*
X7447307Y-7058606D02*
X7451174Y-7059780D01*
X7454738Y-7061685D01*
X7457862Y-7064248D01*
X7460425Y-7067372D01*
X7462330Y-7070936D01*
X7463503Y-7074803D01*
X7463960Y-7079439D01*
X7463960Y-7144561D01*
X7463503Y-7149197D01*
X7462330Y-7153064D01*
X7460425Y-7156628D01*
X7457862Y-7159752D01*
X7454738Y-7162315D01*
X7451174Y-7164220D01*
X7447307Y-7165393D01*
X7442671Y-7165850D01*
X7335049Y-7165850D01*
X7330413Y-7165393D01*
X7326546Y-7164220D01*
X7322982Y-7162315D01*
X7319858Y-7159752D01*
X7317295Y-7156628D01*
X7315390Y-7153064D01*
X7314216Y-7149197D01*
X7313760Y-7144561D01*
X7313760Y-7079439D01*
X7314216Y-7074803D01*
X7315390Y-7070936D01*
X7317295Y-7067372D01*
X7319858Y-7064248D01*
X7322982Y-7061685D01*
X7326546Y-7059780D01*
X7330413Y-7058606D01*
X7335049Y-7058150D01*
X7442671Y-7058150D01*
X7447307Y-7058606D01*
X7447307Y-7058606D01*
G37*
G36*
X7241567Y-7058606D02*
X7245434Y-7059780D01*
X7248998Y-7061685D01*
X7252122Y-7064248D01*
X7254685Y-7067372D01*
X7256590Y-7070936D01*
X7257763Y-7074803D01*
X7258220Y-7079439D01*
X7258220Y-7144561D01*
X7257763Y-7149197D01*
X7256590Y-7153064D01*
X7254685Y-7156628D01*
X7252122Y-7159752D01*
X7248998Y-7162315D01*
X7245434Y-7164220D01*
X7241567Y-7165393D01*
X7236931Y-7165850D01*
X7129309Y-7165850D01*
X7124673Y-7165393D01*
X7120806Y-7164220D01*
X7117242Y-7162315D01*
X7114118Y-7159752D01*
X7111555Y-7156628D01*
X7109650Y-7153064D01*
X7108476Y-7149197D01*
X7108020Y-7144561D01*
X7108020Y-7079439D01*
X7108476Y-7074803D01*
X7109650Y-7070936D01*
X7111555Y-7067372D01*
X7114118Y-7064248D01*
X7117242Y-7061685D01*
X7120806Y-7059780D01*
X7124673Y-7058606D01*
X7129309Y-7058150D01*
X7236931Y-7058150D01*
X7241567Y-7058606D01*
X7241567Y-7058606D01*
G37*
G36*
X6689739Y-7164090D02*
X5299061Y-7164090D01*
X5299061Y-6986250D01*
X6689739Y-6986250D01*
X6689739Y-7164090D01*
X6689739Y-7164090D01*
G37*
G36*
X7043360Y-7018835D02*
X7047014Y-7019943D01*
X7050382Y-7021743D01*
X7053334Y-7024166D01*
X7055757Y-7027118D01*
X7057557Y-7030485D01*
X7058665Y-7034140D01*
X7059100Y-7038554D01*
X7059100Y-7133446D01*
X7058665Y-7137860D01*
X7057557Y-7141514D01*
X7055757Y-7144882D01*
X7053334Y-7147834D01*
X7050382Y-7150257D01*
X7047014Y-7152057D01*
X7043360Y-7153165D01*
X7038946Y-7153600D01*
X6804054Y-7153600D01*
X6799640Y-7153165D01*
X6795985Y-7152057D01*
X6792618Y-7150257D01*
X6789666Y-7147834D01*
X6787243Y-7144882D01*
X6785443Y-7141514D01*
X6784335Y-7137860D01*
X6783900Y-7133446D01*
X6783900Y-7038554D01*
X6784335Y-7034140D01*
X6785443Y-7030485D01*
X6787243Y-7027118D01*
X6789666Y-7024166D01*
X6792618Y-7021743D01*
X6795985Y-7019943D01*
X6799640Y-7018835D01*
X6804054Y-7018400D01*
X7038946Y-7018400D01*
X7043360Y-7018835D01*
X7043360Y-7018835D01*
G37*
G36*
X5201947Y-7041056D02*
X5205814Y-7042230D01*
X5209378Y-7044135D01*
X5212502Y-7046698D01*
X5215065Y-7049822D01*
X5216970Y-7053386D01*
X5218144Y-7057253D01*
X5218600Y-7061889D01*
X5218600Y-7127011D01*
X5218144Y-7131647D01*
X5216970Y-7135514D01*
X5215065Y-7139078D01*
X5212502Y-7142202D01*
X5209378Y-7144765D01*
X5205814Y-7146670D01*
X5201947Y-7147843D01*
X5197311Y-7148300D01*
X5089689Y-7148300D01*
X5085053Y-7147843D01*
X5081186Y-7146670D01*
X5077622Y-7144765D01*
X5074498Y-7142202D01*
X5071935Y-7139078D01*
X5070030Y-7135514D01*
X5068857Y-7131647D01*
X5068400Y-7127011D01*
X5068400Y-7061889D01*
X5068857Y-7057253D01*
X5070030Y-7053386D01*
X5071935Y-7049822D01*
X5074498Y-7046698D01*
X5077622Y-7044135D01*
X5081186Y-7042230D01*
X5085053Y-7041056D01*
X5089689Y-7040600D01*
X5197311Y-7040600D01*
X5201947Y-7041056D01*
X5201947Y-7041056D01*
G37*
G36*
X4931100Y-7138500D02*
X4720900Y-7138500D01*
X4720900Y-6978300D01*
X4931100Y-6978300D01*
X4931100Y-7138500D01*
X4931100Y-7138500D01*
G37*
G36*
X11715800Y-7121700D02*
X11550600Y-7121700D01*
X11550600Y-7051500D01*
X11715800Y-7051500D01*
X11715800Y-7121700D01*
X11715800Y-7121700D01*
G37*
G36*
X11175800Y-7121700D02*
X11010600Y-7121700D01*
X11010600Y-7051500D01*
X11175800Y-7051500D01*
X11175800Y-7121700D01*
X11175800Y-7121700D01*
G37*
G36*
X11715800Y-6994700D02*
X11550600Y-6994700D01*
X11550600Y-6924500D01*
X11715800Y-6924500D01*
X11715800Y-6994700D01*
X11715800Y-6994700D01*
G37*
G36*
X11175800Y-6994700D02*
X11010600Y-6994700D01*
X11010600Y-6924500D01*
X11175800Y-6924500D01*
X11175800Y-6994700D01*
X11175800Y-6994700D01*
G37*
G36*
X12820500Y-6962700D02*
X12630300Y-6962700D01*
X12630300Y-6702500D01*
X12820500Y-6702500D01*
X12820500Y-6962700D01*
X12820500Y-6962700D01*
G37*
G36*
X13569700Y-6950900D02*
X13049500Y-6950900D01*
X13049500Y-6705700D01*
X13569700Y-6705700D01*
X13569700Y-6950900D01*
X13569700Y-6950900D01*
G37*
G36*
X5182660Y-6644635D02*
X5186315Y-6645743D01*
X5189682Y-6647543D01*
X5192634Y-6649966D01*
X5195057Y-6652918D01*
X5196857Y-6656285D01*
X5197965Y-6659940D01*
X5198400Y-6664354D01*
X5198400Y-6899246D01*
X5197965Y-6903660D01*
X5196857Y-6907314D01*
X5195057Y-6910682D01*
X5192634Y-6913634D01*
X5189682Y-6916057D01*
X5186315Y-6917857D01*
X5182660Y-6918965D01*
X5178246Y-6919400D01*
X5083354Y-6919400D01*
X5078940Y-6918965D01*
X5075286Y-6917857D01*
X5071918Y-6916057D01*
X5068966Y-6913634D01*
X5066543Y-6910682D01*
X5064743Y-6907314D01*
X5063635Y-6903660D01*
X5063200Y-6899246D01*
X5063200Y-6664354D01*
X5063635Y-6659940D01*
X5064743Y-6656285D01*
X5066543Y-6652918D01*
X5068966Y-6649966D01*
X5071918Y-6647543D01*
X5075286Y-6645743D01*
X5078940Y-6644635D01*
X5083354Y-6644200D01*
X5178246Y-6644200D01*
X5182660Y-6644635D01*
X5182660Y-6644635D01*
G37*
G36*
X5462660Y-6644635D02*
X5466315Y-6645743D01*
X5469682Y-6647543D01*
X5472634Y-6649966D01*
X5475057Y-6652918D01*
X5476857Y-6656285D01*
X5477965Y-6659940D01*
X5478400Y-6664354D01*
X5478400Y-6899246D01*
X5477965Y-6903660D01*
X5476857Y-6907314D01*
X5475057Y-6910682D01*
X5472634Y-6913634D01*
X5469682Y-6916057D01*
X5466315Y-6917857D01*
X5462660Y-6918965D01*
X5458246Y-6919400D01*
X5363354Y-6919400D01*
X5358940Y-6918965D01*
X5355286Y-6917857D01*
X5351918Y-6916057D01*
X5348966Y-6913634D01*
X5346543Y-6910682D01*
X5344743Y-6907314D01*
X5343635Y-6903660D01*
X5343200Y-6899246D01*
X5343200Y-6664354D01*
X5343635Y-6659940D01*
X5344743Y-6656285D01*
X5346543Y-6652918D01*
X5348966Y-6649966D01*
X5351918Y-6647543D01*
X5355286Y-6645743D01*
X5358940Y-6644635D01*
X5363354Y-6644200D01*
X5458246Y-6644200D01*
X5462660Y-6644635D01*
X5462660Y-6644635D01*
G37*
G36*
X11715800Y-6867700D02*
X11550600Y-6867700D01*
X11550600Y-6797500D01*
X11715800Y-6797500D01*
X11715800Y-6867700D01*
X11715800Y-6867700D01*
G37*
G36*
X11175800Y-6867700D02*
X11010600Y-6867700D01*
X11010600Y-6797500D01*
X11175800Y-6797500D01*
X11175800Y-6867700D01*
X11175800Y-6867700D01*
G37*
G36*
X12036600Y-6823000D02*
X11966400Y-6823000D01*
X11966400Y-6657800D01*
X12036600Y-6657800D01*
X12036600Y-6823000D01*
X12036600Y-6823000D01*
G37*
G36*
X12290600Y-6823000D02*
X12220400Y-6823000D01*
X12220400Y-6657800D01*
X12290600Y-6657800D01*
X12290600Y-6823000D01*
X12290600Y-6823000D01*
G37*
G36*
X12163600Y-6823000D02*
X12093400Y-6823000D01*
X12093400Y-6657800D01*
X12163600Y-6657800D01*
X12163600Y-6823000D01*
X12163600Y-6823000D01*
G37*
G36*
X12417600Y-6823000D02*
X12347400Y-6823000D01*
X12347400Y-6657800D01*
X12417600Y-6657800D01*
X12417600Y-6823000D01*
X12417600Y-6823000D01*
G37*
G36*
X5932109Y-6653408D02*
X5935507Y-6654439D01*
X5938639Y-6656113D01*
X5941384Y-6658366D01*
X5943637Y-6661111D01*
X5945311Y-6664243D01*
X5946341Y-6667641D01*
X5946750Y-6671789D01*
X5946750Y-6739411D01*
X5946341Y-6743559D01*
X5945311Y-6746957D01*
X5943637Y-6750089D01*
X5941384Y-6752834D01*
X5938639Y-6755087D01*
X5935507Y-6756761D01*
X5932109Y-6757791D01*
X5927961Y-6758200D01*
X5867839Y-6758200D01*
X5863691Y-6757791D01*
X5860293Y-6756761D01*
X5857161Y-6755087D01*
X5854416Y-6752834D01*
X5852163Y-6750089D01*
X5850489Y-6746957D01*
X5849458Y-6743559D01*
X5849050Y-6739411D01*
X5849050Y-6671789D01*
X5849458Y-6667641D01*
X5850489Y-6664243D01*
X5852163Y-6661111D01*
X5854416Y-6658366D01*
X5857161Y-6656113D01*
X5860293Y-6654439D01*
X5863691Y-6653408D01*
X5867839Y-6653000D01*
X5927961Y-6653000D01*
X5932109Y-6653408D01*
X5932109Y-6653408D01*
G37*
G36*
X5774609Y-6653408D02*
X5778007Y-6654439D01*
X5781139Y-6656113D01*
X5783884Y-6658366D01*
X5786137Y-6661111D01*
X5787811Y-6664243D01*
X5788841Y-6667641D01*
X5789250Y-6671789D01*
X5789250Y-6739411D01*
X5788841Y-6743559D01*
X5787811Y-6746957D01*
X5786137Y-6750089D01*
X5783884Y-6752834D01*
X5781139Y-6755087D01*
X5778007Y-6756761D01*
X5774609Y-6757791D01*
X5770461Y-6758200D01*
X5710339Y-6758200D01*
X5706191Y-6757791D01*
X5702793Y-6756761D01*
X5699661Y-6755087D01*
X5696916Y-6752834D01*
X5694663Y-6750089D01*
X5692989Y-6746957D01*
X5691958Y-6743559D01*
X5691550Y-6739411D01*
X5691550Y-6671789D01*
X5691958Y-6667641D01*
X5692989Y-6664243D01*
X5694663Y-6661111D01*
X5696916Y-6658366D01*
X5699661Y-6656113D01*
X5702793Y-6654439D01*
X5706191Y-6653408D01*
X5710339Y-6653000D01*
X5770461Y-6653000D01*
X5774609Y-6653408D01*
X5774609Y-6653408D01*
G37*
G36*
X6262309Y-6653408D02*
X6265707Y-6654439D01*
X6268839Y-6656113D01*
X6271584Y-6658366D01*
X6273837Y-6661111D01*
X6275511Y-6664243D01*
X6276541Y-6667641D01*
X6276950Y-6671789D01*
X6276950Y-6739411D01*
X6276541Y-6743559D01*
X6275511Y-6746957D01*
X6273837Y-6750089D01*
X6271584Y-6752834D01*
X6268839Y-6755087D01*
X6265707Y-6756761D01*
X6262309Y-6757791D01*
X6258161Y-6758200D01*
X6198039Y-6758200D01*
X6193891Y-6757791D01*
X6190493Y-6756761D01*
X6187361Y-6755087D01*
X6184616Y-6752834D01*
X6182363Y-6750089D01*
X6180689Y-6746957D01*
X6179658Y-6743559D01*
X6179250Y-6739411D01*
X6179250Y-6671789D01*
X6179658Y-6667641D01*
X6180689Y-6664243D01*
X6182363Y-6661111D01*
X6184616Y-6658366D01*
X6187361Y-6656113D01*
X6190493Y-6654439D01*
X6193891Y-6653408D01*
X6198039Y-6653000D01*
X6258161Y-6653000D01*
X6262309Y-6653408D01*
X6262309Y-6653408D01*
G37*
G36*
X6104809Y-6653408D02*
X6108207Y-6654439D01*
X6111339Y-6656113D01*
X6114084Y-6658366D01*
X6116337Y-6661111D01*
X6118011Y-6664243D01*
X6119041Y-6667641D01*
X6119450Y-6671789D01*
X6119450Y-6739411D01*
X6119041Y-6743559D01*
X6118011Y-6746957D01*
X6116337Y-6750089D01*
X6114084Y-6752834D01*
X6111339Y-6755087D01*
X6108207Y-6756761D01*
X6104809Y-6757791D01*
X6100661Y-6758200D01*
X6040539Y-6758200D01*
X6036391Y-6757791D01*
X6032993Y-6756761D01*
X6029861Y-6755087D01*
X6027116Y-6752834D01*
X6024863Y-6750089D01*
X6023189Y-6746957D01*
X6022158Y-6743559D01*
X6021750Y-6739411D01*
X6021750Y-6671789D01*
X6022158Y-6667641D01*
X6023189Y-6664243D01*
X6024863Y-6661111D01*
X6027116Y-6658366D01*
X6029861Y-6656113D01*
X6032993Y-6654439D01*
X6036391Y-6653408D01*
X6040539Y-6653000D01*
X6100661Y-6653000D01*
X6104809Y-6653408D01*
X6104809Y-6653408D01*
G37*
G36*
X6429909Y-6653408D02*
X6433307Y-6654439D01*
X6436439Y-6656113D01*
X6439184Y-6658366D01*
X6441437Y-6661111D01*
X6443111Y-6664243D01*
X6444141Y-6667641D01*
X6444550Y-6671789D01*
X6444550Y-6739411D01*
X6444141Y-6743559D01*
X6443111Y-6746957D01*
X6441437Y-6750089D01*
X6439184Y-6752834D01*
X6436439Y-6755087D01*
X6433307Y-6756761D01*
X6429909Y-6757791D01*
X6425761Y-6758200D01*
X6365639Y-6758200D01*
X6361491Y-6757791D01*
X6358093Y-6756761D01*
X6354961Y-6755087D01*
X6352216Y-6752834D01*
X6349963Y-6750089D01*
X6348289Y-6746957D01*
X6347258Y-6743559D01*
X6346850Y-6739411D01*
X6346850Y-6671789D01*
X6347258Y-6667641D01*
X6348289Y-6664243D01*
X6349963Y-6661111D01*
X6352216Y-6658366D01*
X6354961Y-6656113D01*
X6358093Y-6654439D01*
X6361491Y-6653408D01*
X6365639Y-6653000D01*
X6425761Y-6653000D01*
X6429909Y-6653408D01*
X6429909Y-6653408D01*
G37*
G36*
X6587409Y-6653408D02*
X6590807Y-6654439D01*
X6593939Y-6656113D01*
X6596684Y-6658366D01*
X6598937Y-6661111D01*
X6600611Y-6664243D01*
X6601641Y-6667641D01*
X6602050Y-6671789D01*
X6602050Y-6739411D01*
X6601641Y-6743559D01*
X6600611Y-6746957D01*
X6598937Y-6750089D01*
X6596684Y-6752834D01*
X6593939Y-6755087D01*
X6590807Y-6756761D01*
X6587409Y-6757791D01*
X6583261Y-6758200D01*
X6523139Y-6758200D01*
X6518991Y-6757791D01*
X6515593Y-6756761D01*
X6512461Y-6755087D01*
X6509716Y-6752834D01*
X6507463Y-6750089D01*
X6505789Y-6746957D01*
X6504758Y-6743559D01*
X6504350Y-6739411D01*
X6504350Y-6671789D01*
X6504758Y-6667641D01*
X6505789Y-6664243D01*
X6507463Y-6661111D01*
X6509716Y-6658366D01*
X6512461Y-6656113D01*
X6515593Y-6654439D01*
X6518991Y-6653408D01*
X6523139Y-6653000D01*
X6583261Y-6653000D01*
X6587409Y-6653408D01*
X6587409Y-6653408D01*
G37*
G36*
X4782147Y-6605556D02*
X4786014Y-6606730D01*
X4789578Y-6608635D01*
X4792702Y-6611198D01*
X4795265Y-6614322D01*
X4797170Y-6617886D01*
X4798344Y-6621753D01*
X4798800Y-6626389D01*
X4798800Y-6734011D01*
X4798344Y-6738647D01*
X4797170Y-6742514D01*
X4795265Y-6746078D01*
X4792702Y-6749202D01*
X4789578Y-6751765D01*
X4786014Y-6753670D01*
X4782147Y-6754843D01*
X4777511Y-6755300D01*
X4712389Y-6755300D01*
X4707753Y-6754843D01*
X4703886Y-6753670D01*
X4700322Y-6751765D01*
X4697198Y-6749202D01*
X4694635Y-6746078D01*
X4692730Y-6742514D01*
X4691557Y-6738647D01*
X4691100Y-6734011D01*
X4691100Y-6626389D01*
X4691557Y-6621753D01*
X4692730Y-6617886D01*
X4694635Y-6614322D01*
X4697198Y-6611198D01*
X4700322Y-6608635D01*
X4703886Y-6606730D01*
X4707753Y-6605556D01*
X4712389Y-6605100D01*
X4777511Y-6605100D01*
X4782147Y-6605556D01*
X4782147Y-6605556D01*
G37*
G36*
X4969647Y-6605556D02*
X4973514Y-6606730D01*
X4977078Y-6608635D01*
X4980202Y-6611198D01*
X4982765Y-6614322D01*
X4984670Y-6617886D01*
X4985844Y-6621753D01*
X4986300Y-6626389D01*
X4986300Y-6734011D01*
X4985844Y-6738647D01*
X4984670Y-6742514D01*
X4982765Y-6746078D01*
X4980202Y-6749202D01*
X4977078Y-6751765D01*
X4973514Y-6753670D01*
X4969647Y-6754843D01*
X4965011Y-6755300D01*
X4899889Y-6755300D01*
X4895253Y-6754843D01*
X4891386Y-6753670D01*
X4887822Y-6751765D01*
X4884698Y-6749202D01*
X4882135Y-6746078D01*
X4880230Y-6742514D01*
X4879057Y-6738647D01*
X4878600Y-6734011D01*
X4878600Y-6626389D01*
X4879057Y-6621753D01*
X4880230Y-6617886D01*
X4882135Y-6614322D01*
X4884698Y-6611198D01*
X4887822Y-6608635D01*
X4891386Y-6606730D01*
X4895253Y-6605556D01*
X4899889Y-6605100D01*
X4965011Y-6605100D01*
X4969647Y-6605556D01*
X4969647Y-6605556D01*
G37*
G36*
X10269247Y-6576006D02*
X10273114Y-6577180D01*
X10276678Y-6579085D01*
X10279802Y-6581648D01*
X10282365Y-6584772D01*
X10284270Y-6588336D01*
X10285444Y-6592203D01*
X10285900Y-6596839D01*
X10285900Y-6661961D01*
X10285444Y-6666597D01*
X10284270Y-6670464D01*
X10282365Y-6674028D01*
X10279802Y-6677152D01*
X10276678Y-6679715D01*
X10273114Y-6681620D01*
X10269247Y-6682793D01*
X10264611Y-6683250D01*
X10156989Y-6683250D01*
X10152353Y-6682793D01*
X10148486Y-6681620D01*
X10144922Y-6679715D01*
X10141798Y-6677152D01*
X10139235Y-6674028D01*
X10137330Y-6670464D01*
X10136157Y-6666597D01*
X10135700Y-6661961D01*
X10135700Y-6596839D01*
X10136157Y-6592203D01*
X10137330Y-6588336D01*
X10139235Y-6584772D01*
X10141798Y-6581648D01*
X10144922Y-6579085D01*
X10148486Y-6577180D01*
X10152353Y-6576006D01*
X10156989Y-6575550D01*
X10264611Y-6575550D01*
X10269247Y-6576006D01*
X10269247Y-6576006D01*
G37*
G36*
X10015247Y-6576006D02*
X10019114Y-6577180D01*
X10022678Y-6579085D01*
X10025802Y-6581648D01*
X10028365Y-6584772D01*
X10030270Y-6588336D01*
X10031444Y-6592203D01*
X10031900Y-6596839D01*
X10031900Y-6661961D01*
X10031444Y-6666597D01*
X10030270Y-6670464D01*
X10028365Y-6674028D01*
X10025802Y-6677152D01*
X10022678Y-6679715D01*
X10019114Y-6681620D01*
X10015247Y-6682793D01*
X10010611Y-6683250D01*
X9902989Y-6683250D01*
X9898353Y-6682793D01*
X9894486Y-6681620D01*
X9890922Y-6679715D01*
X9887798Y-6677152D01*
X9885235Y-6674028D01*
X9883330Y-6670464D01*
X9882157Y-6666597D01*
X9881700Y-6661961D01*
X9881700Y-6596839D01*
X9882157Y-6592203D01*
X9883330Y-6588336D01*
X9885235Y-6584772D01*
X9887798Y-6581648D01*
X9890922Y-6579085D01*
X9894486Y-6577180D01*
X9898353Y-6576006D01*
X9902989Y-6575550D01*
X10010611Y-6575550D01*
X10015247Y-6576006D01*
X10015247Y-6576006D01*
G37*
G36*
X8542047Y-6499806D02*
X8545914Y-6500980D01*
X8549478Y-6502885D01*
X8552602Y-6505448D01*
X8555165Y-6508572D01*
X8557070Y-6512136D01*
X8558244Y-6516003D01*
X8558700Y-6520639D01*
X8558700Y-6585761D01*
X8558244Y-6590397D01*
X8557070Y-6594264D01*
X8555165Y-6597828D01*
X8552602Y-6600952D01*
X8549478Y-6603515D01*
X8545914Y-6605420D01*
X8542047Y-6606593D01*
X8537411Y-6607050D01*
X8429789Y-6607050D01*
X8425153Y-6606593D01*
X8421286Y-6605420D01*
X8417722Y-6603515D01*
X8414598Y-6600952D01*
X8412035Y-6597828D01*
X8410130Y-6594264D01*
X8408957Y-6590397D01*
X8408500Y-6585761D01*
X8408500Y-6520639D01*
X8408957Y-6516003D01*
X8410130Y-6512136D01*
X8412035Y-6508572D01*
X8414598Y-6505448D01*
X8417722Y-6502885D01*
X8421286Y-6500980D01*
X8425153Y-6499806D01*
X8429789Y-6499350D01*
X8537411Y-6499350D01*
X8542047Y-6499806D01*
X8542047Y-6499806D01*
G37*
G36*
X8796047Y-6499806D02*
X8799914Y-6500980D01*
X8803478Y-6502885D01*
X8806602Y-6505448D01*
X8809165Y-6508572D01*
X8811070Y-6512136D01*
X8812244Y-6516003D01*
X8812700Y-6520639D01*
X8812700Y-6585761D01*
X8812244Y-6590397D01*
X8811070Y-6594264D01*
X8809165Y-6597828D01*
X8806602Y-6600952D01*
X8803478Y-6603515D01*
X8799914Y-6605420D01*
X8796047Y-6606593D01*
X8791411Y-6607050D01*
X8683789Y-6607050D01*
X8679153Y-6606593D01*
X8675286Y-6605420D01*
X8671722Y-6603515D01*
X8668598Y-6600952D01*
X8666035Y-6597828D01*
X8664130Y-6594264D01*
X8662957Y-6590397D01*
X8662500Y-6585761D01*
X8662500Y-6520639D01*
X8662957Y-6516003D01*
X8664130Y-6512136D01*
X8666035Y-6508572D01*
X8668598Y-6505448D01*
X8671722Y-6502885D01*
X8675286Y-6500980D01*
X8679153Y-6499806D01*
X8683789Y-6499350D01*
X8791411Y-6499350D01*
X8796047Y-6499806D01*
X8796047Y-6499806D01*
G37*
G36*
X11183647Y-6474406D02*
X11187514Y-6475580D01*
X11191078Y-6477485D01*
X11194202Y-6480048D01*
X11196765Y-6483172D01*
X11198670Y-6486736D01*
X11199843Y-6490603D01*
X11200300Y-6495239D01*
X11200300Y-6560361D01*
X11199843Y-6564997D01*
X11198670Y-6568864D01*
X11196765Y-6572428D01*
X11194202Y-6575552D01*
X11191078Y-6578115D01*
X11187514Y-6580020D01*
X11183647Y-6581193D01*
X11179011Y-6581650D01*
X11071389Y-6581650D01*
X11066753Y-6581193D01*
X11062886Y-6580020D01*
X11059322Y-6578115D01*
X11056198Y-6575552D01*
X11053635Y-6572428D01*
X11051730Y-6568864D01*
X11050557Y-6564997D01*
X11050100Y-6560361D01*
X11050100Y-6495239D01*
X11050557Y-6490603D01*
X11051730Y-6486736D01*
X11053635Y-6483172D01*
X11056198Y-6480048D01*
X11059322Y-6477485D01*
X11062886Y-6475580D01*
X11066753Y-6474406D01*
X11071389Y-6473950D01*
X11179011Y-6473950D01*
X11183647Y-6474406D01*
X11183647Y-6474406D01*
G37*
G36*
X11640847Y-6474406D02*
X11644714Y-6475580D01*
X11648278Y-6477485D01*
X11651402Y-6480048D01*
X11653965Y-6483172D01*
X11655870Y-6486736D01*
X11657043Y-6490603D01*
X11657500Y-6495239D01*
X11657500Y-6560361D01*
X11657043Y-6564997D01*
X11655870Y-6568864D01*
X11653965Y-6572428D01*
X11651402Y-6575552D01*
X11648278Y-6578115D01*
X11644714Y-6580020D01*
X11640847Y-6581193D01*
X11636211Y-6581650D01*
X11528589Y-6581650D01*
X11523953Y-6581193D01*
X11520086Y-6580020D01*
X11516522Y-6578115D01*
X11513398Y-6575552D01*
X11510835Y-6572428D01*
X11508930Y-6568864D01*
X11507756Y-6564997D01*
X11507300Y-6560361D01*
X11507300Y-6495239D01*
X11507756Y-6490603D01*
X11508930Y-6486736D01*
X11510835Y-6483172D01*
X11513398Y-6480048D01*
X11516522Y-6477485D01*
X11520086Y-6475580D01*
X11523953Y-6474406D01*
X11528589Y-6473950D01*
X11636211Y-6473950D01*
X11640847Y-6474406D01*
X11640847Y-6474406D01*
G37*
G36*
X7322847Y-6474406D02*
X7326714Y-6475580D01*
X7330278Y-6477485D01*
X7333402Y-6480048D01*
X7335965Y-6483172D01*
X7337870Y-6486736D01*
X7339043Y-6490603D01*
X7339500Y-6495239D01*
X7339500Y-6560361D01*
X7339043Y-6564997D01*
X7337870Y-6568864D01*
X7335965Y-6572428D01*
X7333402Y-6575552D01*
X7330278Y-6578115D01*
X7326714Y-6580020D01*
X7322847Y-6581193D01*
X7318211Y-6581650D01*
X7210589Y-6581650D01*
X7205953Y-6581193D01*
X7202086Y-6580020D01*
X7198522Y-6578115D01*
X7195398Y-6575552D01*
X7192835Y-6572428D01*
X7190930Y-6568864D01*
X7189756Y-6564997D01*
X7189300Y-6560361D01*
X7189300Y-6495239D01*
X7189756Y-6490603D01*
X7190930Y-6486736D01*
X7192835Y-6483172D01*
X7195398Y-6480048D01*
X7198522Y-6477485D01*
X7202086Y-6475580D01*
X7205953Y-6474406D01*
X7210589Y-6473950D01*
X7318211Y-6473950D01*
X7322847Y-6474406D01*
X7322847Y-6474406D01*
G37*
G36*
X11412247Y-6474406D02*
X11416114Y-6475580D01*
X11419678Y-6477485D01*
X11422802Y-6480048D01*
X11425365Y-6483172D01*
X11427270Y-6486736D01*
X11428443Y-6490603D01*
X11428900Y-6495239D01*
X11428900Y-6560361D01*
X11428443Y-6564997D01*
X11427270Y-6568864D01*
X11425365Y-6572428D01*
X11422802Y-6575552D01*
X11419678Y-6578115D01*
X11416114Y-6580020D01*
X11412247Y-6581193D01*
X11407611Y-6581650D01*
X11299989Y-6581650D01*
X11295353Y-6581193D01*
X11291486Y-6580020D01*
X11287922Y-6578115D01*
X11284798Y-6575552D01*
X11282235Y-6572428D01*
X11280330Y-6568864D01*
X11279156Y-6564997D01*
X11278700Y-6560361D01*
X11278700Y-6495239D01*
X11279156Y-6490603D01*
X11280330Y-6486736D01*
X11282235Y-6483172D01*
X11284798Y-6480048D01*
X11287922Y-6477485D01*
X11291486Y-6475580D01*
X11295353Y-6474406D01*
X11299989Y-6473950D01*
X11407611Y-6473950D01*
X11412247Y-6474406D01*
X11412247Y-6474406D01*
G37*
G36*
X7094247Y-6474406D02*
X7098114Y-6475580D01*
X7101678Y-6477485D01*
X7104802Y-6480048D01*
X7107365Y-6483172D01*
X7109270Y-6486736D01*
X7110443Y-6490603D01*
X7110900Y-6495239D01*
X7110900Y-6560361D01*
X7110443Y-6564997D01*
X7109270Y-6568864D01*
X7107365Y-6572428D01*
X7104802Y-6575552D01*
X7101678Y-6578115D01*
X7098114Y-6580020D01*
X7094247Y-6581193D01*
X7089611Y-6581650D01*
X6981989Y-6581650D01*
X6977353Y-6581193D01*
X6973486Y-6580020D01*
X6969922Y-6578115D01*
X6966798Y-6575552D01*
X6964235Y-6572428D01*
X6962330Y-6568864D01*
X6961156Y-6564997D01*
X6960700Y-6560361D01*
X6960700Y-6495239D01*
X6961156Y-6490603D01*
X6962330Y-6486736D01*
X6964235Y-6483172D01*
X6966798Y-6480048D01*
X6969922Y-6477485D01*
X6973486Y-6475580D01*
X6977353Y-6474406D01*
X6981989Y-6473950D01*
X7089611Y-6473950D01*
X7094247Y-6474406D01*
X7094247Y-6474406D01*
G37*
G36*
X5667917Y-6425216D02*
X5671784Y-6426390D01*
X5675348Y-6428295D01*
X5678472Y-6430858D01*
X5681035Y-6433982D01*
X5682940Y-6437546D01*
X5684113Y-6441413D01*
X5684570Y-6446049D01*
X5684570Y-6553671D01*
X5684113Y-6558307D01*
X5682940Y-6562174D01*
X5681035Y-6565738D01*
X5678472Y-6568862D01*
X5675348Y-6571425D01*
X5671784Y-6573330D01*
X5667917Y-6574503D01*
X5663281Y-6574960D01*
X5598159Y-6574960D01*
X5593523Y-6574503D01*
X5589656Y-6573330D01*
X5586092Y-6571425D01*
X5582968Y-6568862D01*
X5580405Y-6565738D01*
X5578500Y-6562174D01*
X5577327Y-6558307D01*
X5576870Y-6553671D01*
X5576870Y-6446049D01*
X5577327Y-6441413D01*
X5578500Y-6437546D01*
X5580405Y-6433982D01*
X5582968Y-6430858D01*
X5586092Y-6428295D01*
X5589656Y-6426390D01*
X5593523Y-6425216D01*
X5598159Y-6424760D01*
X5663281Y-6424760D01*
X5667917Y-6425216D01*
X5667917Y-6425216D01*
G37*
G36*
X5480417Y-6425216D02*
X5484284Y-6426390D01*
X5487848Y-6428295D01*
X5490972Y-6430858D01*
X5493535Y-6433982D01*
X5495440Y-6437546D01*
X5496614Y-6441413D01*
X5497070Y-6446049D01*
X5497070Y-6553671D01*
X5496614Y-6558307D01*
X5495440Y-6562174D01*
X5493535Y-6565738D01*
X5490972Y-6568862D01*
X5487848Y-6571425D01*
X5484284Y-6573330D01*
X5480417Y-6574503D01*
X5475781Y-6574960D01*
X5410659Y-6574960D01*
X5406023Y-6574503D01*
X5402156Y-6573330D01*
X5398592Y-6571425D01*
X5395468Y-6568862D01*
X5392905Y-6565738D01*
X5391000Y-6562174D01*
X5389827Y-6558307D01*
X5389370Y-6553671D01*
X5389370Y-6446049D01*
X5389827Y-6441413D01*
X5391000Y-6437546D01*
X5392905Y-6433982D01*
X5395468Y-6430858D01*
X5398592Y-6428295D01*
X5402156Y-6426390D01*
X5406023Y-6425216D01*
X5410659Y-6424760D01*
X5475781Y-6424760D01*
X5480417Y-6425216D01*
X5480417Y-6425216D01*
G37*
G36*
X12810580Y-6417525D02*
X12814137Y-6418604D01*
X12817414Y-6420355D01*
X12820287Y-6422713D01*
X12822645Y-6425586D01*
X12824396Y-6428863D01*
X12825475Y-6432420D01*
X12825900Y-6436732D01*
X12825900Y-6542668D01*
X12825475Y-6546980D01*
X12824396Y-6550537D01*
X12822645Y-6553814D01*
X12820287Y-6556687D01*
X12817414Y-6559045D01*
X12814137Y-6560796D01*
X12810580Y-6561875D01*
X12806268Y-6562300D01*
X12695332Y-6562300D01*
X12691020Y-6561875D01*
X12687463Y-6560796D01*
X12684186Y-6559045D01*
X12681313Y-6556687D01*
X12678955Y-6553814D01*
X12677204Y-6550537D01*
X12676125Y-6546980D01*
X12675700Y-6542668D01*
X12675700Y-6436732D01*
X12676125Y-6432420D01*
X12677204Y-6428863D01*
X12678955Y-6425586D01*
X12681313Y-6422713D01*
X12684186Y-6420355D01*
X12687463Y-6418604D01*
X12691020Y-6417525D01*
X12695332Y-6417100D01*
X12806268Y-6417100D01*
X12810580Y-6417525D01*
X12810580Y-6417525D01*
G37*
G36*
X13080580Y-6417525D02*
X13084137Y-6418604D01*
X13087414Y-6420355D01*
X13090287Y-6422713D01*
X13092645Y-6425586D01*
X13094396Y-6428863D01*
X13095475Y-6432420D01*
X13095900Y-6436732D01*
X13095900Y-6542668D01*
X13095475Y-6546980D01*
X13094396Y-6550537D01*
X13092645Y-6553814D01*
X13090287Y-6556687D01*
X13087414Y-6559045D01*
X13084137Y-6560796D01*
X13080580Y-6561875D01*
X13076268Y-6562300D01*
X12965332Y-6562300D01*
X12961020Y-6561875D01*
X12957463Y-6560796D01*
X12954186Y-6559045D01*
X12951313Y-6556687D01*
X12948955Y-6553814D01*
X12947204Y-6550537D01*
X12946125Y-6546980D01*
X12945700Y-6542668D01*
X12945700Y-6436732D01*
X12946125Y-6432420D01*
X12947204Y-6428863D01*
X12948955Y-6425586D01*
X12951313Y-6422713D01*
X12954186Y-6420355D01*
X12957463Y-6418604D01*
X12961020Y-6417525D01*
X12965332Y-6417100D01*
X13076268Y-6417100D01*
X13080580Y-6417525D01*
X13080580Y-6417525D01*
G37*
G36*
X10679797Y-6376956D02*
X10683664Y-6378130D01*
X10687228Y-6380035D01*
X10690352Y-6382598D01*
X10692915Y-6385722D01*
X10694820Y-6389286D01*
X10695994Y-6393153D01*
X10696450Y-6397789D01*
X10696450Y-6505411D01*
X10695994Y-6510047D01*
X10694820Y-6513914D01*
X10692915Y-6517478D01*
X10690352Y-6520602D01*
X10687228Y-6523165D01*
X10683664Y-6525070D01*
X10679797Y-6526243D01*
X10675161Y-6526700D01*
X10610039Y-6526700D01*
X10605403Y-6526243D01*
X10601536Y-6525070D01*
X10597972Y-6523165D01*
X10594848Y-6520602D01*
X10592285Y-6517478D01*
X10590380Y-6513914D01*
X10589207Y-6510047D01*
X10588750Y-6505411D01*
X10588750Y-6397789D01*
X10589207Y-6393153D01*
X10590380Y-6389286D01*
X10592285Y-6385722D01*
X10594848Y-6382598D01*
X10597972Y-6380035D01*
X10601536Y-6378130D01*
X10605403Y-6376956D01*
X10610039Y-6376500D01*
X10675161Y-6376500D01*
X10679797Y-6376956D01*
X10679797Y-6376956D01*
G37*
G36*
X10492297Y-6376956D02*
X10496164Y-6378130D01*
X10499728Y-6380035D01*
X10502852Y-6382598D01*
X10505415Y-6385722D01*
X10507320Y-6389286D01*
X10508494Y-6393153D01*
X10508950Y-6397789D01*
X10508950Y-6505411D01*
X10508494Y-6510047D01*
X10507320Y-6513914D01*
X10505415Y-6517478D01*
X10502852Y-6520602D01*
X10499728Y-6523165D01*
X10496164Y-6525070D01*
X10492297Y-6526243D01*
X10487661Y-6526700D01*
X10422539Y-6526700D01*
X10417903Y-6526243D01*
X10414036Y-6525070D01*
X10410472Y-6523165D01*
X10407348Y-6520602D01*
X10404785Y-6517478D01*
X10402880Y-6513914D01*
X10401707Y-6510047D01*
X10401250Y-6505411D01*
X10401250Y-6397789D01*
X10401707Y-6393153D01*
X10402880Y-6389286D01*
X10404785Y-6385722D01*
X10407348Y-6382598D01*
X10410472Y-6380035D01*
X10414036Y-6378130D01*
X10417903Y-6376956D01*
X10422539Y-6376500D01*
X10487661Y-6376500D01*
X10492297Y-6376956D01*
X10492297Y-6376956D01*
G37*
G36*
X10015247Y-6388506D02*
X10019114Y-6389680D01*
X10022678Y-6391585D01*
X10025802Y-6394148D01*
X10028365Y-6397272D01*
X10030270Y-6400836D01*
X10031444Y-6404703D01*
X10031900Y-6409339D01*
X10031900Y-6474461D01*
X10031444Y-6479096D01*
X10030270Y-6482964D01*
X10028365Y-6486528D01*
X10025802Y-6489652D01*
X10022678Y-6492215D01*
X10019114Y-6494120D01*
X10015247Y-6495293D01*
X10010611Y-6495750D01*
X9902989Y-6495750D01*
X9898353Y-6495293D01*
X9894486Y-6494120D01*
X9890922Y-6492215D01*
X9887798Y-6489652D01*
X9885235Y-6486528D01*
X9883330Y-6482964D01*
X9882157Y-6479096D01*
X9881700Y-6474461D01*
X9881700Y-6409339D01*
X9882157Y-6404703D01*
X9883330Y-6400836D01*
X9885235Y-6397272D01*
X9887798Y-6394148D01*
X9890922Y-6391585D01*
X9894486Y-6389680D01*
X9898353Y-6388506D01*
X9902989Y-6388050D01*
X10010611Y-6388050D01*
X10015247Y-6388506D01*
X10015247Y-6388506D01*
G37*
G36*
X10269247Y-6388506D02*
X10273114Y-6389680D01*
X10276678Y-6391585D01*
X10279802Y-6394148D01*
X10282365Y-6397272D01*
X10284270Y-6400836D01*
X10285444Y-6404703D01*
X10285900Y-6409339D01*
X10285900Y-6474461D01*
X10285444Y-6479096D01*
X10284270Y-6482964D01*
X10282365Y-6486528D01*
X10279802Y-6489652D01*
X10276678Y-6492215D01*
X10273114Y-6494120D01*
X10269247Y-6495293D01*
X10264611Y-6495750D01*
X10156989Y-6495750D01*
X10152353Y-6495293D01*
X10148486Y-6494120D01*
X10144922Y-6492215D01*
X10141798Y-6489652D01*
X10139235Y-6486528D01*
X10137330Y-6482964D01*
X10136157Y-6479096D01*
X10135700Y-6474461D01*
X10135700Y-6409339D01*
X10136157Y-6404703D01*
X10137330Y-6400836D01*
X10139235Y-6397272D01*
X10141798Y-6394148D01*
X10144922Y-6391585D01*
X10148486Y-6389680D01*
X10152353Y-6388506D01*
X10156989Y-6388050D01*
X10264611Y-6388050D01*
X10269247Y-6388506D01*
X10269247Y-6388506D01*
G37*
G36*
X4974680Y-6341325D02*
X4978237Y-6342404D01*
X4981514Y-6344155D01*
X4984387Y-6346513D01*
X4986745Y-6349386D01*
X4988496Y-6352663D01*
X4989575Y-6356220D01*
X4990000Y-6360532D01*
X4990000Y-6466468D01*
X4989575Y-6470780D01*
X4988496Y-6474337D01*
X4986745Y-6477614D01*
X4984387Y-6480487D01*
X4981514Y-6482845D01*
X4978237Y-6484596D01*
X4974680Y-6485675D01*
X4970368Y-6486100D01*
X4859432Y-6486100D01*
X4855120Y-6485675D01*
X4851563Y-6484596D01*
X4848286Y-6482845D01*
X4845413Y-6480487D01*
X4843055Y-6477614D01*
X4841304Y-6474337D01*
X4840225Y-6470780D01*
X4839800Y-6466468D01*
X4839800Y-6360532D01*
X4840225Y-6356220D01*
X4841304Y-6352663D01*
X4843055Y-6349386D01*
X4845413Y-6346513D01*
X4848286Y-6344155D01*
X4851563Y-6342404D01*
X4855120Y-6341325D01*
X4859432Y-6340900D01*
X4970368Y-6340900D01*
X4974680Y-6341325D01*
X4974680Y-6341325D01*
G37*
G36*
X4704680Y-6341325D02*
X4708237Y-6342404D01*
X4711514Y-6344155D01*
X4714387Y-6346513D01*
X4716745Y-6349386D01*
X4718496Y-6352663D01*
X4719575Y-6356220D01*
X4720000Y-6360532D01*
X4720000Y-6466468D01*
X4719575Y-6470780D01*
X4718496Y-6474337D01*
X4716745Y-6477614D01*
X4714387Y-6480487D01*
X4711514Y-6482845D01*
X4708237Y-6484596D01*
X4704680Y-6485675D01*
X4700368Y-6486100D01*
X4589432Y-6486100D01*
X4585120Y-6485675D01*
X4581563Y-6484596D01*
X4578286Y-6482845D01*
X4575413Y-6480487D01*
X4573055Y-6477614D01*
X4571304Y-6474337D01*
X4570225Y-6470780D01*
X4569800Y-6466468D01*
X4569800Y-6360532D01*
X4570225Y-6356220D01*
X4571304Y-6352663D01*
X4573055Y-6349386D01*
X4575413Y-6346513D01*
X4578286Y-6344155D01*
X4581563Y-6342404D01*
X4585120Y-6341325D01*
X4589432Y-6340900D01*
X4700368Y-6340900D01*
X4704680Y-6341325D01*
X4704680Y-6341325D01*
G37*
G36*
X7555597Y-6300756D02*
X7559464Y-6301930D01*
X7563028Y-6303835D01*
X7566152Y-6306398D01*
X7568715Y-6309522D01*
X7570620Y-6313086D01*
X7571793Y-6316953D01*
X7572250Y-6321589D01*
X7572250Y-6429211D01*
X7571793Y-6433847D01*
X7570620Y-6437714D01*
X7568715Y-6441278D01*
X7566152Y-6444402D01*
X7563028Y-6446965D01*
X7559464Y-6448870D01*
X7555597Y-6450043D01*
X7550961Y-6450500D01*
X7485839Y-6450500D01*
X7481203Y-6450043D01*
X7477336Y-6448870D01*
X7473772Y-6446965D01*
X7470648Y-6444402D01*
X7468085Y-6441278D01*
X7466180Y-6437714D01*
X7465006Y-6433847D01*
X7464550Y-6429211D01*
X7464550Y-6321589D01*
X7465006Y-6316953D01*
X7466180Y-6313086D01*
X7468085Y-6309522D01*
X7470648Y-6306398D01*
X7473772Y-6303835D01*
X7477336Y-6301930D01*
X7481203Y-6300756D01*
X7485839Y-6300300D01*
X7550961Y-6300300D01*
X7555597Y-6300756D01*
X7555597Y-6300756D01*
G37*
G36*
X7743097Y-6300756D02*
X7746964Y-6301930D01*
X7750528Y-6303835D01*
X7753652Y-6306398D01*
X7756215Y-6309522D01*
X7758120Y-6313086D01*
X7759293Y-6316953D01*
X7759750Y-6321589D01*
X7759750Y-6429211D01*
X7759293Y-6433847D01*
X7758120Y-6437714D01*
X7756215Y-6441278D01*
X7753652Y-6444402D01*
X7750528Y-6446965D01*
X7746964Y-6448870D01*
X7743097Y-6450043D01*
X7738461Y-6450500D01*
X7673339Y-6450500D01*
X7668703Y-6450043D01*
X7664836Y-6448870D01*
X7661272Y-6446965D01*
X7658148Y-6444402D01*
X7655585Y-6441278D01*
X7653680Y-6437714D01*
X7652506Y-6433847D01*
X7652050Y-6429211D01*
X7652050Y-6321589D01*
X7652506Y-6316953D01*
X7653680Y-6313086D01*
X7655585Y-6309522D01*
X7658148Y-6306398D01*
X7661272Y-6303835D01*
X7664836Y-6301930D01*
X7668703Y-6300756D01*
X7673339Y-6300300D01*
X7738461Y-6300300D01*
X7743097Y-6300756D01*
X7743097Y-6300756D01*
G37*
G36*
X9181197Y-6300756D02*
X9185064Y-6301930D01*
X9188628Y-6303835D01*
X9191752Y-6306398D01*
X9194315Y-6309522D01*
X9196220Y-6313086D01*
X9197394Y-6316953D01*
X9197850Y-6321589D01*
X9197850Y-6429211D01*
X9197394Y-6433847D01*
X9196220Y-6437714D01*
X9194315Y-6441278D01*
X9191752Y-6444402D01*
X9188628Y-6446965D01*
X9185064Y-6448870D01*
X9181197Y-6450043D01*
X9176561Y-6450500D01*
X9111439Y-6450500D01*
X9106803Y-6450043D01*
X9102936Y-6448870D01*
X9099372Y-6446965D01*
X9096248Y-6444402D01*
X9093685Y-6441278D01*
X9091780Y-6437714D01*
X9090607Y-6433847D01*
X9090150Y-6429211D01*
X9090150Y-6321589D01*
X9090607Y-6316953D01*
X9091780Y-6313086D01*
X9093685Y-6309522D01*
X9096248Y-6306398D01*
X9099372Y-6303835D01*
X9102936Y-6301930D01*
X9106803Y-6300756D01*
X9111439Y-6300300D01*
X9176561Y-6300300D01*
X9181197Y-6300756D01*
X9181197Y-6300756D01*
G37*
G36*
X8993697Y-6300756D02*
X8997564Y-6301930D01*
X9001128Y-6303835D01*
X9004252Y-6306398D01*
X9006815Y-6309522D01*
X9008720Y-6313086D01*
X9009894Y-6316953D01*
X9010350Y-6321589D01*
X9010350Y-6429211D01*
X9009894Y-6433847D01*
X9008720Y-6437714D01*
X9006815Y-6441278D01*
X9004252Y-6444402D01*
X9001128Y-6446965D01*
X8997564Y-6448870D01*
X8993697Y-6450043D01*
X8989061Y-6450500D01*
X8923939Y-6450500D01*
X8919303Y-6450043D01*
X8915436Y-6448870D01*
X8911872Y-6446965D01*
X8908748Y-6444402D01*
X8906185Y-6441278D01*
X8904280Y-6437714D01*
X8903107Y-6433847D01*
X8902650Y-6429211D01*
X8902650Y-6321589D01*
X8903107Y-6316953D01*
X8904280Y-6313086D01*
X8906185Y-6309522D01*
X8908748Y-6306398D01*
X8911872Y-6303835D01*
X8915436Y-6301930D01*
X8919303Y-6300756D01*
X8923939Y-6300300D01*
X8989061Y-6300300D01*
X8993697Y-6300756D01*
X8993697Y-6300756D01*
G37*
G36*
X8796047Y-6312306D02*
X8799914Y-6313480D01*
X8803478Y-6315385D01*
X8806602Y-6317948D01*
X8809165Y-6321072D01*
X8811070Y-6324636D01*
X8812244Y-6328503D01*
X8812700Y-6333139D01*
X8812700Y-6398261D01*
X8812244Y-6402897D01*
X8811070Y-6406764D01*
X8809165Y-6410328D01*
X8806602Y-6413452D01*
X8803478Y-6416015D01*
X8799914Y-6417920D01*
X8796047Y-6419093D01*
X8791411Y-6419550D01*
X8683789Y-6419550D01*
X8679153Y-6419093D01*
X8675286Y-6417920D01*
X8671722Y-6416015D01*
X8668598Y-6413452D01*
X8666035Y-6410328D01*
X8664130Y-6406764D01*
X8662957Y-6402897D01*
X8662500Y-6398261D01*
X8662500Y-6333139D01*
X8662957Y-6328503D01*
X8664130Y-6324636D01*
X8666035Y-6321072D01*
X8668598Y-6317948D01*
X8671722Y-6315385D01*
X8675286Y-6313480D01*
X8679153Y-6312306D01*
X8683789Y-6311850D01*
X8791411Y-6311850D01*
X8796047Y-6312306D01*
X8796047Y-6312306D01*
G37*
G36*
X8542047Y-6312306D02*
X8545914Y-6313480D01*
X8549478Y-6315385D01*
X8552602Y-6317948D01*
X8555165Y-6321072D01*
X8557070Y-6324636D01*
X8558244Y-6328503D01*
X8558700Y-6333139D01*
X8558700Y-6398261D01*
X8558244Y-6402897D01*
X8557070Y-6406764D01*
X8555165Y-6410328D01*
X8552602Y-6413452D01*
X8549478Y-6416015D01*
X8545914Y-6417920D01*
X8542047Y-6419093D01*
X8537411Y-6419550D01*
X8429789Y-6419550D01*
X8425153Y-6419093D01*
X8421286Y-6417920D01*
X8417722Y-6416015D01*
X8414598Y-6413452D01*
X8412035Y-6410328D01*
X8410130Y-6406764D01*
X8408957Y-6402897D01*
X8408500Y-6398261D01*
X8408500Y-6333139D01*
X8408957Y-6328503D01*
X8410130Y-6324636D01*
X8412035Y-6321072D01*
X8414598Y-6317948D01*
X8417722Y-6315385D01*
X8421286Y-6313480D01*
X8425153Y-6312306D01*
X8429789Y-6311850D01*
X8537411Y-6311850D01*
X8542047Y-6312306D01*
X8542047Y-6312306D01*
G37*
G36*
X11412247Y-6286906D02*
X11416114Y-6288080D01*
X11419678Y-6289985D01*
X11422802Y-6292548D01*
X11425365Y-6295672D01*
X11427270Y-6299236D01*
X11428443Y-6303103D01*
X11428900Y-6307739D01*
X11428900Y-6372861D01*
X11428443Y-6377497D01*
X11427270Y-6381364D01*
X11425365Y-6384928D01*
X11422802Y-6388052D01*
X11419678Y-6390615D01*
X11416114Y-6392520D01*
X11412247Y-6393693D01*
X11407611Y-6394150D01*
X11299989Y-6394150D01*
X11295353Y-6393693D01*
X11291486Y-6392520D01*
X11287922Y-6390615D01*
X11284798Y-6388052D01*
X11282235Y-6384928D01*
X11280330Y-6381364D01*
X11279156Y-6377497D01*
X11278700Y-6372861D01*
X11278700Y-6307739D01*
X11279156Y-6303103D01*
X11280330Y-6299236D01*
X11282235Y-6295672D01*
X11284798Y-6292548D01*
X11287922Y-6289985D01*
X11291486Y-6288080D01*
X11295353Y-6286906D01*
X11299989Y-6286450D01*
X11407611Y-6286450D01*
X11412247Y-6286906D01*
X11412247Y-6286906D01*
G37*
G36*
X11640847Y-6286906D02*
X11644714Y-6288080D01*
X11648278Y-6289985D01*
X11651402Y-6292548D01*
X11653965Y-6295672D01*
X11655870Y-6299236D01*
X11657043Y-6303103D01*
X11657500Y-6307739D01*
X11657500Y-6372861D01*
X11657043Y-6377497D01*
X11655870Y-6381364D01*
X11653965Y-6384928D01*
X11651402Y-6388052D01*
X11648278Y-6390615D01*
X11644714Y-6392520D01*
X11640847Y-6393693D01*
X11636211Y-6394150D01*
X11528589Y-6394150D01*
X11523953Y-6393693D01*
X11520086Y-6392520D01*
X11516522Y-6390615D01*
X11513398Y-6388052D01*
X11510835Y-6384928D01*
X11508930Y-6381364D01*
X11507756Y-6377497D01*
X11507300Y-6372861D01*
X11507300Y-6307739D01*
X11507756Y-6303103D01*
X11508930Y-6299236D01*
X11510835Y-6295672D01*
X11513398Y-6292548D01*
X11516522Y-6289985D01*
X11520086Y-6288080D01*
X11523953Y-6286906D01*
X11528589Y-6286450D01*
X11636211Y-6286450D01*
X11640847Y-6286906D01*
X11640847Y-6286906D01*
G37*
G36*
X11183647Y-6286906D02*
X11187514Y-6288080D01*
X11191078Y-6289985D01*
X11194202Y-6292548D01*
X11196765Y-6295672D01*
X11198670Y-6299236D01*
X11199843Y-6303103D01*
X11200300Y-6307739D01*
X11200300Y-6372861D01*
X11199843Y-6377497D01*
X11198670Y-6381364D01*
X11196765Y-6384928D01*
X11194202Y-6388052D01*
X11191078Y-6390615D01*
X11187514Y-6392520D01*
X11183647Y-6393693D01*
X11179011Y-6394150D01*
X11071389Y-6394150D01*
X11066753Y-6393693D01*
X11062886Y-6392520D01*
X11059322Y-6390615D01*
X11056198Y-6388052D01*
X11053635Y-6384928D01*
X11051730Y-6381364D01*
X11050557Y-6377497D01*
X11050100Y-6372861D01*
X11050100Y-6307739D01*
X11050557Y-6303103D01*
X11051730Y-6299236D01*
X11053635Y-6295672D01*
X11056198Y-6292548D01*
X11059322Y-6289985D01*
X11062886Y-6288080D01*
X11066753Y-6286906D01*
X11071389Y-6286450D01*
X11179011Y-6286450D01*
X11183647Y-6286906D01*
X11183647Y-6286906D01*
G37*
G36*
X7322847Y-6286906D02*
X7326714Y-6288080D01*
X7330278Y-6289985D01*
X7333402Y-6292548D01*
X7335965Y-6295672D01*
X7337870Y-6299236D01*
X7339043Y-6303103D01*
X7339500Y-6307739D01*
X7339500Y-6372861D01*
X7339043Y-6377497D01*
X7337870Y-6381364D01*
X7335965Y-6384928D01*
X7333402Y-6388052D01*
X7330278Y-6390615D01*
X7326714Y-6392520D01*
X7322847Y-6393693D01*
X7318211Y-6394150D01*
X7210589Y-6394150D01*
X7205953Y-6393693D01*
X7202086Y-6392520D01*
X7198522Y-6390615D01*
X7195398Y-6388052D01*
X7192835Y-6384928D01*
X7190930Y-6381364D01*
X7189756Y-6377497D01*
X7189300Y-6372861D01*
X7189300Y-6307739D01*
X7189756Y-6303103D01*
X7190930Y-6299236D01*
X7192835Y-6295672D01*
X7195398Y-6292548D01*
X7198522Y-6289985D01*
X7202086Y-6288080D01*
X7205953Y-6286906D01*
X7210589Y-6286450D01*
X7318211Y-6286450D01*
X7322847Y-6286906D01*
X7322847Y-6286906D01*
G37*
G36*
X7094247Y-6286906D02*
X7098114Y-6288080D01*
X7101678Y-6289985D01*
X7104802Y-6292548D01*
X7107365Y-6295672D01*
X7109270Y-6299236D01*
X7110443Y-6303103D01*
X7110900Y-6307739D01*
X7110900Y-6372861D01*
X7110443Y-6377497D01*
X7109270Y-6381364D01*
X7107365Y-6384928D01*
X7104802Y-6388052D01*
X7101678Y-6390615D01*
X7098114Y-6392520D01*
X7094247Y-6393693D01*
X7089611Y-6394150D01*
X6981989Y-6394150D01*
X6977353Y-6393693D01*
X6973486Y-6392520D01*
X6969922Y-6390615D01*
X6966798Y-6388052D01*
X6964235Y-6384928D01*
X6962330Y-6381364D01*
X6961156Y-6377497D01*
X6960700Y-6372861D01*
X6960700Y-6307739D01*
X6961156Y-6303103D01*
X6962330Y-6299236D01*
X6964235Y-6295672D01*
X6966798Y-6292548D01*
X6969922Y-6289985D01*
X6973486Y-6288080D01*
X6977353Y-6286906D01*
X6981989Y-6286450D01*
X7089611Y-6286450D01*
X7094247Y-6286906D01*
X7094247Y-6286906D01*
G37*
G36*
X12787997Y-6173756D02*
X12791864Y-6174930D01*
X12795428Y-6176835D01*
X12798552Y-6179398D01*
X12801115Y-6182522D01*
X12803020Y-6186086D01*
X12804193Y-6189953D01*
X12804650Y-6194589D01*
X12804650Y-6302211D01*
X12804193Y-6306847D01*
X12803020Y-6310714D01*
X12801115Y-6314278D01*
X12798552Y-6317402D01*
X12795428Y-6319965D01*
X12791864Y-6321870D01*
X12787997Y-6323043D01*
X12783361Y-6323500D01*
X12718239Y-6323500D01*
X12713603Y-6323043D01*
X12709736Y-6321870D01*
X12706172Y-6319965D01*
X12703048Y-6317402D01*
X12700485Y-6314278D01*
X12698580Y-6310714D01*
X12697406Y-6306847D01*
X12696950Y-6302211D01*
X12696950Y-6194589D01*
X12697406Y-6189953D01*
X12698580Y-6186086D01*
X12700485Y-6182522D01*
X12703048Y-6179398D01*
X12706172Y-6176835D01*
X12709736Y-6174930D01*
X12713603Y-6173756D01*
X12718239Y-6173300D01*
X12783361Y-6173300D01*
X12787997Y-6173756D01*
X12787997Y-6173756D01*
G37*
G36*
X12975497Y-6173756D02*
X12979364Y-6174930D01*
X12982928Y-6176835D01*
X12986052Y-6179398D01*
X12988615Y-6182522D01*
X12990520Y-6186086D01*
X12991693Y-6189953D01*
X12992150Y-6194589D01*
X12992150Y-6302211D01*
X12991693Y-6306847D01*
X12990520Y-6310714D01*
X12988615Y-6314278D01*
X12986052Y-6317402D01*
X12982928Y-6319965D01*
X12979364Y-6321870D01*
X12975497Y-6323043D01*
X12970861Y-6323500D01*
X12905739Y-6323500D01*
X12901103Y-6323043D01*
X12897236Y-6321870D01*
X12893672Y-6319965D01*
X12890548Y-6317402D01*
X12887985Y-6314278D01*
X12886080Y-6310714D01*
X12884906Y-6306847D01*
X12884450Y-6302211D01*
X12884450Y-6194589D01*
X12884906Y-6189953D01*
X12886080Y-6186086D01*
X12887985Y-6182522D01*
X12890548Y-6179398D01*
X12893672Y-6176835D01*
X12897236Y-6174930D01*
X12901103Y-6173756D01*
X12905739Y-6173300D01*
X12970861Y-6173300D01*
X12975497Y-6173756D01*
X12975497Y-6173756D01*
G37*
G36*
X5391100Y-6313020D02*
X5130900Y-6313020D01*
X5130900Y-6122820D01*
X5391100Y-6122820D01*
X5391100Y-6313020D01*
X5391100Y-6313020D01*
G37*
G36*
X5791100Y-6313020D02*
X5530900Y-6313020D01*
X5530900Y-6122820D01*
X5791100Y-6122820D01*
X5791100Y-6313020D01*
X5791100Y-6313020D01*
G37*
G36*
X4969647Y-6097556D02*
X4973514Y-6098730D01*
X4977078Y-6100635D01*
X4980202Y-6103198D01*
X4982765Y-6106322D01*
X4984670Y-6109886D01*
X4985844Y-6113753D01*
X4986300Y-6118389D01*
X4986300Y-6226011D01*
X4985844Y-6230647D01*
X4984670Y-6234514D01*
X4982765Y-6238078D01*
X4980202Y-6241202D01*
X4977078Y-6243765D01*
X4973514Y-6245670D01*
X4969647Y-6246843D01*
X4965011Y-6247300D01*
X4899889Y-6247300D01*
X4895253Y-6246843D01*
X4891386Y-6245670D01*
X4887822Y-6243765D01*
X4884698Y-6241202D01*
X4882135Y-6238078D01*
X4880230Y-6234514D01*
X4879057Y-6230647D01*
X4878600Y-6226011D01*
X4878600Y-6118389D01*
X4879057Y-6113753D01*
X4880230Y-6109886D01*
X4882135Y-6106322D01*
X4884698Y-6103198D01*
X4887822Y-6100635D01*
X4891386Y-6098730D01*
X4895253Y-6097556D01*
X4899889Y-6097100D01*
X4965011Y-6097100D01*
X4969647Y-6097556D01*
X4969647Y-6097556D01*
G37*
G36*
X4782147Y-6097556D02*
X4786014Y-6098730D01*
X4789578Y-6100635D01*
X4792702Y-6103198D01*
X4795265Y-6106322D01*
X4797170Y-6109886D01*
X4798344Y-6113753D01*
X4798800Y-6118389D01*
X4798800Y-6226011D01*
X4798344Y-6230647D01*
X4797170Y-6234514D01*
X4795265Y-6238078D01*
X4792702Y-6241202D01*
X4789578Y-6243765D01*
X4786014Y-6245670D01*
X4782147Y-6246843D01*
X4777511Y-6247300D01*
X4712389Y-6247300D01*
X4707753Y-6246843D01*
X4703886Y-6245670D01*
X4700322Y-6243765D01*
X4697198Y-6241202D01*
X4694635Y-6238078D01*
X4692730Y-6234514D01*
X4691557Y-6230647D01*
X4691100Y-6226011D01*
X4691100Y-6118389D01*
X4691557Y-6113753D01*
X4692730Y-6109886D01*
X4694635Y-6106322D01*
X4697198Y-6103198D01*
X4700322Y-6100635D01*
X4703886Y-6098730D01*
X4707753Y-6097556D01*
X4712389Y-6097100D01*
X4777511Y-6097100D01*
X4782147Y-6097556D01*
X4782147Y-6097556D01*
G37*
G36*
X10398600Y-6246500D02*
X10243400Y-6246500D01*
X10243400Y-5996300D01*
X10398600Y-5996300D01*
X10398600Y-6246500D01*
X10398600Y-6246500D01*
G37*
G36*
X10838600Y-6246500D02*
X10683400Y-6246500D01*
X10683400Y-5996300D01*
X10838600Y-5996300D01*
X10838600Y-6246500D01*
X10838600Y-6246500D01*
G37*
G36*
X8908600Y-6177400D02*
X8753400Y-6177400D01*
X8753400Y-5927200D01*
X8908600Y-5927200D01*
X8908600Y-6177400D01*
X8908600Y-6177400D01*
G37*
G36*
X9348600Y-6177400D02*
X9193400Y-6177400D01*
X9193400Y-5927200D01*
X9348600Y-5927200D01*
X9348600Y-6177400D01*
X9348600Y-6177400D01*
G37*
G36*
X7824600Y-6166200D02*
X7669400Y-6166200D01*
X7669400Y-5916000D01*
X7824600Y-5916000D01*
X7824600Y-6166200D01*
X7824600Y-6166200D01*
G37*
G36*
X7384600Y-6166200D02*
X7229400Y-6166200D01*
X7229400Y-5916000D01*
X7384600Y-5916000D01*
X7384600Y-6166200D01*
X7384600Y-6166200D01*
G37*
G36*
X5379420Y-5962400D02*
X5134220Y-5962400D01*
X5134220Y-5442200D01*
X5379420Y-5442200D01*
X5379420Y-5962400D01*
X5379420Y-5962400D01*
G37*
G36*
X5794420Y-5962400D02*
X5549220Y-5962400D01*
X5549220Y-5442200D01*
X5794420Y-5442200D01*
X5794420Y-5962400D01*
X5794420Y-5962400D01*
G37*
G36*
X12367703Y-5637545D02*
X12371412Y-5638670D01*
X12374831Y-5640497D01*
X12378304Y-5643348D01*
X12441452Y-5706496D01*
X12444303Y-5709969D01*
X12446130Y-5713387D01*
X12447255Y-5717097D01*
X12447635Y-5720955D01*
X12447255Y-5724812D01*
X12446130Y-5728522D01*
X12444303Y-5731940D01*
X12441452Y-5735413D01*
X12339413Y-5837452D01*
X12335940Y-5840303D01*
X12332522Y-5842130D01*
X12328812Y-5843255D01*
X12324955Y-5843635D01*
X12321097Y-5843255D01*
X12317387Y-5842130D01*
X12313969Y-5840303D01*
X12310496Y-5837452D01*
X12247348Y-5774304D01*
X12244497Y-5770831D01*
X12242670Y-5767412D01*
X12241545Y-5763703D01*
X12241165Y-5759845D01*
X12241545Y-5755988D01*
X12242670Y-5752278D01*
X12244497Y-5748860D01*
X12247348Y-5745387D01*
X12349387Y-5643348D01*
X12352860Y-5640497D01*
X12356278Y-5638670D01*
X12359988Y-5637545D01*
X12363845Y-5637165D01*
X12367703Y-5637545D01*
X12367703Y-5637545D01*
G37*
G36*
X9424500Y-5724800D02*
X8914300Y-5724800D01*
X8914300Y-4714600D01*
X9424500Y-4714600D01*
X9424500Y-5724800D01*
X9424500Y-5724800D01*
G37*
G36*
X7925900Y-5724800D02*
X7415700Y-5724800D01*
X7415700Y-4714600D01*
X7925900Y-4714600D01*
X7925900Y-5724800D01*
X7925900Y-5724800D01*
G37*
G36*
X10897700Y-5724800D02*
X10387500Y-5724800D01*
X10387500Y-4714600D01*
X10897700Y-4714600D01*
X10897700Y-5724800D01*
X10897700Y-5724800D01*
G37*
G36*
X12223394Y-5514214D02*
X12235186Y-5515375D01*
X12247457Y-5519098D01*
X12247457Y-5519098D01*
X12258767Y-5525143D01*
X12268679Y-5533278D01*
X12276814Y-5543191D01*
X12282859Y-5554500D01*
X12282859Y-5554500D01*
X12286582Y-5566771D01*
X12287839Y-5579533D01*
X12286582Y-5592295D01*
X12282859Y-5604566D01*
X12276814Y-5615876D01*
X12270717Y-5623305D01*
X12227305Y-5666717D01*
X12224257Y-5669219D01*
X12219876Y-5672814D01*
X12208566Y-5678859D01*
X12208566Y-5678859D01*
X12196295Y-5682582D01*
X12183533Y-5683839D01*
X12170771Y-5682582D01*
X12158500Y-5678859D01*
X12158500Y-5678859D01*
X12147191Y-5672814D01*
X12137278Y-5664679D01*
X12129143Y-5654767D01*
X12123098Y-5643457D01*
X12123098Y-5643457D01*
X12119375Y-5631186D01*
X12118118Y-5618424D01*
X12119375Y-5605662D01*
X12123098Y-5593391D01*
X12123683Y-5592295D01*
X12129143Y-5582081D01*
X12132738Y-5577701D01*
X12135240Y-5574652D01*
X12178652Y-5531240D01*
X12186081Y-5525143D01*
X12186081Y-5525143D01*
X12186081Y-5525143D01*
X12197391Y-5519098D01*
X12197391Y-5519098D01*
X12209662Y-5515375D01*
X12222424Y-5514118D01*
X12222424Y-5514118D01*
X12223394Y-5514214D01*
X12223394Y-5514214D01*
G37*
G36*
X12081973Y-5372793D02*
X12093765Y-5373954D01*
X12106036Y-5377676D01*
X12106036Y-5377677D01*
X12117345Y-5383721D01*
X12127258Y-5391857D01*
X12135393Y-5401769D01*
X12141302Y-5412825D01*
X12141438Y-5413079D01*
X12145161Y-5425350D01*
X12146417Y-5438112D01*
X12145161Y-5450874D01*
X12141438Y-5463145D01*
X12135393Y-5474455D01*
X12129296Y-5481884D01*
X12085884Y-5525296D01*
X12083956Y-5526878D01*
X12078454Y-5531393D01*
X12067145Y-5537438D01*
X12067145Y-5537438D01*
X12054874Y-5541161D01*
X12042112Y-5542418D01*
X12029350Y-5541161D01*
X12017079Y-5537438D01*
X12017079Y-5537438D01*
X12005769Y-5531393D01*
X11995857Y-5523258D01*
X11987721Y-5513345D01*
X11981676Y-5502036D01*
X11981507Y-5501478D01*
X11977954Y-5489765D01*
X11976697Y-5477003D01*
X11977954Y-5464241D01*
X11981676Y-5451970D01*
X11982262Y-5450874D01*
X11987721Y-5440660D01*
X11991317Y-5436279D01*
X11993818Y-5433231D01*
X12037231Y-5389819D01*
X12044660Y-5383722D01*
X12044660Y-5383722D01*
X12044660Y-5383721D01*
X12055969Y-5377677D01*
X12055970Y-5377676D01*
X12068241Y-5373954D01*
X12081003Y-5372697D01*
X12081003Y-5372697D01*
X12081973Y-5372793D01*
X12081973Y-5372793D01*
G37*
G36*
X8708297Y-5386357D02*
X8712164Y-5387530D01*
X8715728Y-5389435D01*
X8718852Y-5391998D01*
X8721415Y-5395122D01*
X8723320Y-5398686D01*
X8724494Y-5402553D01*
X8724950Y-5407189D01*
X8724950Y-5514811D01*
X8724494Y-5519447D01*
X8723320Y-5523314D01*
X8721415Y-5526878D01*
X8718852Y-5530002D01*
X8715728Y-5532565D01*
X8712164Y-5534470D01*
X8708297Y-5535644D01*
X8703661Y-5536100D01*
X8638539Y-5536100D01*
X8633903Y-5535644D01*
X8630036Y-5534470D01*
X8626472Y-5532565D01*
X8623348Y-5530002D01*
X8620785Y-5526878D01*
X8618880Y-5523314D01*
X8617707Y-5519447D01*
X8617250Y-5514811D01*
X8617250Y-5407189D01*
X8617707Y-5402553D01*
X8618880Y-5398686D01*
X8620785Y-5395122D01*
X8623348Y-5391998D01*
X8626472Y-5389435D01*
X8630036Y-5387530D01*
X8633903Y-5386357D01*
X8638539Y-5385900D01*
X8703661Y-5385900D01*
X8708297Y-5386357D01*
X8708297Y-5386357D01*
G37*
G36*
X8520797Y-5386357D02*
X8524664Y-5387530D01*
X8528228Y-5389435D01*
X8531352Y-5391998D01*
X8533915Y-5395122D01*
X8535820Y-5398686D01*
X8536994Y-5402553D01*
X8537450Y-5407189D01*
X8537450Y-5514811D01*
X8536994Y-5519447D01*
X8535820Y-5523314D01*
X8533915Y-5526878D01*
X8531352Y-5530002D01*
X8528228Y-5532565D01*
X8524664Y-5534470D01*
X8520797Y-5535644D01*
X8516161Y-5536100D01*
X8451039Y-5536100D01*
X8446403Y-5535644D01*
X8442536Y-5534470D01*
X8438972Y-5532565D01*
X8435848Y-5530002D01*
X8433285Y-5526878D01*
X8431380Y-5523314D01*
X8430207Y-5519447D01*
X8429750Y-5514811D01*
X8429750Y-5407189D01*
X8430207Y-5402553D01*
X8431380Y-5398686D01*
X8433285Y-5395122D01*
X8435848Y-5391998D01*
X8438972Y-5389435D01*
X8442536Y-5387530D01*
X8446403Y-5386357D01*
X8451039Y-5385900D01*
X8516161Y-5385900D01*
X8520797Y-5386357D01*
X8520797Y-5386357D01*
G37*
G36*
X10019397Y-5360957D02*
X10023264Y-5362130D01*
X10026828Y-5364035D01*
X10029952Y-5366598D01*
X10032515Y-5369722D01*
X10034420Y-5373286D01*
X10035594Y-5377153D01*
X10036050Y-5381789D01*
X10036050Y-5489411D01*
X10035594Y-5494047D01*
X10034420Y-5497914D01*
X10032515Y-5501478D01*
X10029952Y-5504602D01*
X10026828Y-5507165D01*
X10023264Y-5509070D01*
X10019397Y-5510244D01*
X10014761Y-5510700D01*
X9949639Y-5510700D01*
X9945003Y-5510244D01*
X9941136Y-5509070D01*
X9937572Y-5507165D01*
X9934448Y-5504602D01*
X9931885Y-5501478D01*
X9929980Y-5497914D01*
X9928807Y-5494047D01*
X9928350Y-5489411D01*
X9928350Y-5381789D01*
X9928807Y-5377153D01*
X9929980Y-5373286D01*
X9931885Y-5369722D01*
X9934448Y-5366598D01*
X9937572Y-5364035D01*
X9941136Y-5362130D01*
X9945003Y-5360957D01*
X9949639Y-5360500D01*
X10014761Y-5360500D01*
X10019397Y-5360957D01*
X10019397Y-5360957D01*
G37*
G36*
X10206897Y-5360957D02*
X10210764Y-5362130D01*
X10214328Y-5364035D01*
X10217452Y-5366598D01*
X10220015Y-5369722D01*
X10221920Y-5373286D01*
X10223094Y-5377153D01*
X10223550Y-5381789D01*
X10223550Y-5489411D01*
X10223094Y-5494047D01*
X10221920Y-5497914D01*
X10220015Y-5501478D01*
X10217452Y-5504602D01*
X10214328Y-5507165D01*
X10210764Y-5509070D01*
X10206897Y-5510244D01*
X10202261Y-5510700D01*
X10137139Y-5510700D01*
X10132503Y-5510244D01*
X10128636Y-5509070D01*
X10125072Y-5507165D01*
X10121948Y-5504602D01*
X10119385Y-5501478D01*
X10117480Y-5497914D01*
X10116307Y-5494047D01*
X10115850Y-5489411D01*
X10115850Y-5381789D01*
X10116307Y-5377153D01*
X10117480Y-5373286D01*
X10119385Y-5369722D01*
X10121948Y-5366598D01*
X10125072Y-5364035D01*
X10128636Y-5362130D01*
X10132503Y-5360957D01*
X10137139Y-5360500D01*
X10202261Y-5360500D01*
X10206897Y-5360957D01*
X10206897Y-5360957D01*
G37*
G36*
X7260497Y-5360957D02*
X7264364Y-5362130D01*
X7267928Y-5364035D01*
X7271052Y-5366598D01*
X7273615Y-5369722D01*
X7275520Y-5373286D01*
X7276693Y-5377153D01*
X7277150Y-5381789D01*
X7277150Y-5489411D01*
X7276693Y-5494047D01*
X7275520Y-5497914D01*
X7273615Y-5501478D01*
X7271052Y-5504602D01*
X7267928Y-5507165D01*
X7264364Y-5509070D01*
X7260497Y-5510244D01*
X7255861Y-5510700D01*
X7190739Y-5510700D01*
X7186103Y-5510244D01*
X7182236Y-5509070D01*
X7178672Y-5507165D01*
X7175548Y-5504602D01*
X7172985Y-5501478D01*
X7171080Y-5497914D01*
X7169906Y-5494047D01*
X7169450Y-5489411D01*
X7169450Y-5381789D01*
X7169906Y-5377153D01*
X7171080Y-5373286D01*
X7172985Y-5369722D01*
X7175548Y-5366598D01*
X7178672Y-5364035D01*
X7182236Y-5362130D01*
X7186103Y-5360957D01*
X7190739Y-5360500D01*
X7255861Y-5360500D01*
X7260497Y-5360957D01*
X7260497Y-5360957D01*
G37*
G36*
X7072997Y-5360957D02*
X7076864Y-5362130D01*
X7080428Y-5364035D01*
X7083552Y-5366598D01*
X7086115Y-5369722D01*
X7088020Y-5373286D01*
X7089193Y-5377153D01*
X7089650Y-5381789D01*
X7089650Y-5489411D01*
X7089193Y-5494047D01*
X7088020Y-5497914D01*
X7086115Y-5501478D01*
X7083552Y-5504602D01*
X7080428Y-5507165D01*
X7076864Y-5509070D01*
X7072997Y-5510244D01*
X7068361Y-5510700D01*
X7003239Y-5510700D01*
X6998603Y-5510244D01*
X6994736Y-5509070D01*
X6991172Y-5507165D01*
X6988048Y-5504602D01*
X6985485Y-5501478D01*
X6983580Y-5497914D01*
X6982406Y-5494047D01*
X6981950Y-5489411D01*
X6981950Y-5381789D01*
X6982406Y-5377153D01*
X6983580Y-5373286D01*
X6985485Y-5369722D01*
X6988048Y-5366598D01*
X6991172Y-5364035D01*
X6994736Y-5362130D01*
X6998603Y-5360957D01*
X7003239Y-5360500D01*
X7068361Y-5360500D01*
X7072997Y-5360957D01*
X7072997Y-5360957D01*
G37*
G36*
X6567100Y-5347900D02*
X6386900Y-5347900D01*
X6386900Y-5167700D01*
X6567100Y-5167700D01*
X6567100Y-5347900D01*
X6567100Y-5347900D01*
G37*
G36*
X5951247Y-5204407D02*
X5955114Y-5205580D01*
X5958678Y-5207485D01*
X5961802Y-5210048D01*
X5964365Y-5213172D01*
X5966270Y-5216736D01*
X5967443Y-5220603D01*
X5967900Y-5225239D01*
X5967900Y-5290361D01*
X5967443Y-5294997D01*
X5966270Y-5298864D01*
X5964365Y-5302428D01*
X5961802Y-5305552D01*
X5958678Y-5308115D01*
X5955114Y-5310020D01*
X5951247Y-5311194D01*
X5946611Y-5311650D01*
X5838989Y-5311650D01*
X5834353Y-5311194D01*
X5830486Y-5310020D01*
X5826922Y-5308115D01*
X5823798Y-5305552D01*
X5821235Y-5302428D01*
X5819330Y-5298864D01*
X5818156Y-5294997D01*
X5817700Y-5290361D01*
X5817700Y-5225239D01*
X5818156Y-5220603D01*
X5819330Y-5216736D01*
X5821235Y-5213172D01*
X5823798Y-5210048D01*
X5826922Y-5207485D01*
X5830486Y-5205580D01*
X5834353Y-5204407D01*
X5838989Y-5203950D01*
X5946611Y-5203950D01*
X5951247Y-5204407D01*
X5951247Y-5204407D01*
G37*
G36*
X6205247Y-5204407D02*
X6209114Y-5205580D01*
X6212678Y-5207485D01*
X6215802Y-5210048D01*
X6218365Y-5213172D01*
X6220270Y-5216736D01*
X6221443Y-5220603D01*
X6221900Y-5225239D01*
X6221900Y-5290361D01*
X6221443Y-5294997D01*
X6220270Y-5298864D01*
X6218365Y-5302428D01*
X6215802Y-5305552D01*
X6212678Y-5308115D01*
X6209114Y-5310020D01*
X6205247Y-5311194D01*
X6200611Y-5311650D01*
X6092989Y-5311650D01*
X6088353Y-5311194D01*
X6084486Y-5310020D01*
X6080922Y-5308115D01*
X6077798Y-5305552D01*
X6075235Y-5302428D01*
X6073330Y-5298864D01*
X6072156Y-5294997D01*
X6071700Y-5290361D01*
X6071700Y-5225239D01*
X6072156Y-5220603D01*
X6073330Y-5216736D01*
X6075235Y-5213172D01*
X6077798Y-5210048D01*
X6080922Y-5207485D01*
X6084486Y-5205580D01*
X6088353Y-5204407D01*
X6092989Y-5203950D01*
X6200611Y-5203950D01*
X6205247Y-5204407D01*
X6205247Y-5204407D01*
G37*
G36*
X5951247Y-5016907D02*
X5955114Y-5018080D01*
X5958678Y-5019985D01*
X5961802Y-5022548D01*
X5964365Y-5025672D01*
X5966270Y-5029236D01*
X5967443Y-5033103D01*
X5967900Y-5037739D01*
X5967900Y-5102861D01*
X5967443Y-5107497D01*
X5966270Y-5111364D01*
X5964365Y-5114928D01*
X5961802Y-5118052D01*
X5958678Y-5120615D01*
X5955114Y-5122520D01*
X5951247Y-5123694D01*
X5946611Y-5124150D01*
X5838989Y-5124150D01*
X5834353Y-5123694D01*
X5830486Y-5122520D01*
X5826922Y-5120615D01*
X5823798Y-5118052D01*
X5821235Y-5114928D01*
X5819330Y-5111364D01*
X5818156Y-5107497D01*
X5817700Y-5102861D01*
X5817700Y-5037739D01*
X5818156Y-5033103D01*
X5819330Y-5029236D01*
X5821235Y-5025672D01*
X5823798Y-5022548D01*
X5826922Y-5019985D01*
X5830486Y-5018080D01*
X5834353Y-5016907D01*
X5838989Y-5016450D01*
X5946611Y-5016450D01*
X5951247Y-5016907D01*
X5951247Y-5016907D01*
G37*
G36*
X6205247Y-5016907D02*
X6209114Y-5018080D01*
X6212678Y-5019985D01*
X6215802Y-5022548D01*
X6218365Y-5025672D01*
X6220270Y-5029236D01*
X6221443Y-5033103D01*
X6221900Y-5037739D01*
X6221900Y-5102861D01*
X6221443Y-5107497D01*
X6220270Y-5111364D01*
X6218365Y-5114928D01*
X6215802Y-5118052D01*
X6212678Y-5120615D01*
X6209114Y-5122520D01*
X6205247Y-5123694D01*
X6200611Y-5124150D01*
X6092989Y-5124150D01*
X6088353Y-5123694D01*
X6084486Y-5122520D01*
X6080922Y-5120615D01*
X6077798Y-5118052D01*
X6075235Y-5114928D01*
X6073330Y-5111364D01*
X6072156Y-5107497D01*
X6071700Y-5102861D01*
X6071700Y-5037739D01*
X6072156Y-5033103D01*
X6073330Y-5029236D01*
X6075235Y-5025672D01*
X6077798Y-5022548D01*
X6080922Y-5019985D01*
X6084486Y-5018080D01*
X6088353Y-5016907D01*
X6092989Y-5016450D01*
X6200611Y-5016450D01*
X6205247Y-5016907D01*
X6205247Y-5016907D01*
G37*
G36*
X6488044Y-4914352D02*
X6494663Y-4915004D01*
X6505985Y-4918438D01*
X6511647Y-4920156D01*
X6525509Y-4927565D01*
X6527299Y-4928522D01*
X6530873Y-4931455D01*
X6541019Y-4939781D01*
X6549345Y-4949927D01*
X6552278Y-4953501D01*
X6552278Y-4953501D01*
X6560644Y-4969153D01*
X6560644Y-4969153D01*
X6565796Y-4986137D01*
X6567536Y-5003800D01*
X6565796Y-5021463D01*
X6563438Y-5029236D01*
X6560644Y-5038447D01*
X6558010Y-5043375D01*
X6552278Y-5054099D01*
X6549345Y-5057673D01*
X6541019Y-5067819D01*
X6530873Y-5076145D01*
X6527299Y-5079078D01*
X6527299Y-5079078D01*
X6511647Y-5087444D01*
X6505985Y-5089162D01*
X6494663Y-5092596D01*
X6488044Y-5093248D01*
X6481426Y-5093900D01*
X6472574Y-5093900D01*
X6465956Y-5093248D01*
X6459337Y-5092596D01*
X6448015Y-5089162D01*
X6442353Y-5087444D01*
X6426701Y-5079078D01*
X6426701Y-5079078D01*
X6423127Y-5076145D01*
X6412981Y-5067819D01*
X6404655Y-5057673D01*
X6401722Y-5054099D01*
X6395990Y-5043375D01*
X6393356Y-5038447D01*
X6390562Y-5029236D01*
X6388204Y-5021463D01*
X6386464Y-5003800D01*
X6388204Y-4986137D01*
X6393356Y-4969153D01*
X6393356Y-4969153D01*
X6401722Y-4953501D01*
X6401722Y-4953501D01*
X6404655Y-4949927D01*
X6412981Y-4939781D01*
X6423127Y-4931455D01*
X6426701Y-4928522D01*
X6428491Y-4927565D01*
X6442353Y-4920156D01*
X6448015Y-4918438D01*
X6459337Y-4915004D01*
X6465956Y-4914352D01*
X6472574Y-4913700D01*
X6481426Y-4913700D01*
X6488044Y-4914352D01*
X6488044Y-4914352D01*
G37*
G36*
X7242947Y-4649757D02*
X7246814Y-4650930D01*
X7250378Y-4652835D01*
X7253502Y-4655398D01*
X7256065Y-4658522D01*
X7257970Y-4662086D01*
X7259143Y-4665953D01*
X7259600Y-4670589D01*
X7259600Y-4778211D01*
X7259143Y-4782847D01*
X7257970Y-4786714D01*
X7256065Y-4790278D01*
X7253502Y-4793402D01*
X7250378Y-4795965D01*
X7246814Y-4797870D01*
X7242947Y-4799044D01*
X7238311Y-4799500D01*
X7173189Y-4799500D01*
X7168553Y-4799044D01*
X7164686Y-4797870D01*
X7161122Y-4795965D01*
X7157998Y-4793402D01*
X7155435Y-4790278D01*
X7153530Y-4786714D01*
X7152356Y-4782847D01*
X7151900Y-4778211D01*
X7151900Y-4670589D01*
X7152356Y-4665953D01*
X7153530Y-4662086D01*
X7155435Y-4658522D01*
X7157998Y-4655398D01*
X7161122Y-4652835D01*
X7164686Y-4650930D01*
X7168553Y-4649757D01*
X7173189Y-4649300D01*
X7238311Y-4649300D01*
X7242947Y-4649757D01*
X7242947Y-4649757D01*
G37*
G36*
X7055447Y-4649757D02*
X7059314Y-4650930D01*
X7062878Y-4652835D01*
X7066002Y-4655398D01*
X7068565Y-4658522D01*
X7070470Y-4662086D01*
X7071643Y-4665953D01*
X7072100Y-4670589D01*
X7072100Y-4778211D01*
X7071643Y-4782847D01*
X7070470Y-4786714D01*
X7068565Y-4790278D01*
X7066002Y-4793402D01*
X7062878Y-4795965D01*
X7059314Y-4797870D01*
X7055447Y-4799044D01*
X7050811Y-4799500D01*
X6985689Y-4799500D01*
X6981053Y-4799044D01*
X6977186Y-4797870D01*
X6973622Y-4795965D01*
X6970498Y-4793402D01*
X6967935Y-4790278D01*
X6966030Y-4786714D01*
X6964856Y-4782847D01*
X6964400Y-4778211D01*
X6964400Y-4670589D01*
X6964856Y-4665953D01*
X6966030Y-4662086D01*
X6967935Y-4658522D01*
X6970498Y-4655398D01*
X6973622Y-4652835D01*
X6977186Y-4650930D01*
X6981053Y-4649757D01*
X6985689Y-4649300D01*
X7050811Y-4649300D01*
X7055447Y-4649757D01*
X7055447Y-4649757D01*
G37*
G36*
X8520797Y-4624357D02*
X8524664Y-4625530D01*
X8528228Y-4627435D01*
X8531352Y-4629998D01*
X8533915Y-4633122D01*
X8535820Y-4636686D01*
X8536994Y-4640553D01*
X8537450Y-4645189D01*
X8537450Y-4752811D01*
X8536994Y-4757447D01*
X8535820Y-4761314D01*
X8533915Y-4764878D01*
X8531352Y-4768002D01*
X8528228Y-4770565D01*
X8524664Y-4772470D01*
X8520797Y-4773644D01*
X8516161Y-4774100D01*
X8451039Y-4774100D01*
X8446403Y-4773644D01*
X8442536Y-4772470D01*
X8438972Y-4770565D01*
X8435848Y-4768002D01*
X8433285Y-4764878D01*
X8431380Y-4761314D01*
X8430207Y-4757447D01*
X8429750Y-4752811D01*
X8429750Y-4645189D01*
X8430207Y-4640553D01*
X8431380Y-4636686D01*
X8433285Y-4633122D01*
X8435848Y-4629998D01*
X8438972Y-4627435D01*
X8442536Y-4625530D01*
X8446403Y-4624357D01*
X8451039Y-4623900D01*
X8516161Y-4623900D01*
X8520797Y-4624357D01*
X8520797Y-4624357D01*
G37*
G36*
X8708297Y-4624357D02*
X8712164Y-4625530D01*
X8715728Y-4627435D01*
X8718852Y-4629998D01*
X8721415Y-4633122D01*
X8723320Y-4636686D01*
X8724494Y-4640553D01*
X8724950Y-4645189D01*
X8724950Y-4752811D01*
X8724494Y-4757447D01*
X8723320Y-4761314D01*
X8721415Y-4764878D01*
X8718852Y-4768002D01*
X8715728Y-4770565D01*
X8712164Y-4772470D01*
X8708297Y-4773644D01*
X8703661Y-4774100D01*
X8638539Y-4774100D01*
X8633903Y-4773644D01*
X8630036Y-4772470D01*
X8626472Y-4770565D01*
X8623348Y-4768002D01*
X8620785Y-4764878D01*
X8618880Y-4761314D01*
X8617707Y-4757447D01*
X8617250Y-4752811D01*
X8617250Y-4645189D01*
X8617707Y-4640553D01*
X8618880Y-4636686D01*
X8620785Y-4633122D01*
X8623348Y-4629998D01*
X8626472Y-4627435D01*
X8630036Y-4625530D01*
X8633903Y-4624357D01*
X8638539Y-4623900D01*
X8703661Y-4623900D01*
X8708297Y-4624357D01*
X8708297Y-4624357D01*
G37*
G36*
X10197197Y-4598957D02*
X10201064Y-4600130D01*
X10204628Y-4602035D01*
X10207752Y-4604598D01*
X10210315Y-4607722D01*
X10212220Y-4611286D01*
X10213394Y-4615153D01*
X10213850Y-4619789D01*
X10213850Y-4727411D01*
X10213394Y-4732047D01*
X10212220Y-4735914D01*
X10210315Y-4739478D01*
X10207752Y-4742602D01*
X10204628Y-4745165D01*
X10201064Y-4747070D01*
X10197197Y-4748244D01*
X10192561Y-4748700D01*
X10127439Y-4748700D01*
X10122803Y-4748244D01*
X10118936Y-4747070D01*
X10115372Y-4745165D01*
X10112248Y-4742602D01*
X10109685Y-4739478D01*
X10107780Y-4735914D01*
X10106607Y-4732047D01*
X10106150Y-4727411D01*
X10106150Y-4619789D01*
X10106607Y-4615153D01*
X10107780Y-4611286D01*
X10109685Y-4607722D01*
X10112248Y-4604598D01*
X10115372Y-4602035D01*
X10118936Y-4600130D01*
X10122803Y-4598957D01*
X10127439Y-4598500D01*
X10192561Y-4598500D01*
X10197197Y-4598957D01*
X10197197Y-4598957D01*
G37*
G36*
X10009697Y-4598957D02*
X10013564Y-4600130D01*
X10017128Y-4602035D01*
X10020252Y-4604598D01*
X10022815Y-4607722D01*
X10024720Y-4611286D01*
X10025894Y-4615153D01*
X10026350Y-4619789D01*
X10026350Y-4727411D01*
X10025894Y-4732047D01*
X10024720Y-4735914D01*
X10022815Y-4739478D01*
X10020252Y-4742602D01*
X10017128Y-4745165D01*
X10013564Y-4747070D01*
X10009697Y-4748244D01*
X10005061Y-4748700D01*
X9939939Y-4748700D01*
X9935303Y-4748244D01*
X9931436Y-4747070D01*
X9927872Y-4745165D01*
X9924748Y-4742602D01*
X9922185Y-4739478D01*
X9920280Y-4735914D01*
X9919107Y-4732047D01*
X9918650Y-4727411D01*
X9918650Y-4619789D01*
X9919107Y-4615153D01*
X9920280Y-4611286D01*
X9922185Y-4607722D01*
X9924748Y-4604598D01*
X9927872Y-4602035D01*
X9931436Y-4600130D01*
X9935303Y-4598957D01*
X9939939Y-4598500D01*
X10005061Y-4598500D01*
X10009697Y-4598957D01*
X10009697Y-4598957D01*
G37*
G36*
X8927526Y-4087130D02*
X8938158Y-4089245D01*
X8968204Y-4101690D01*
X8994885Y-4119518D01*
X8995245Y-4119759D01*
X9018241Y-4142755D01*
X9036310Y-4169796D01*
X9048755Y-4199842D01*
X9055100Y-4231739D01*
X9055100Y-4264261D01*
X9048755Y-4296158D01*
X9036310Y-4326204D01*
X9018241Y-4353245D01*
X8995245Y-4376241D01*
X8995245Y-4376242D01*
X8968204Y-4394310D01*
X8938158Y-4406755D01*
X8927526Y-4408870D01*
X8906261Y-4413100D01*
X8873739Y-4413100D01*
X8852474Y-4408870D01*
X8841842Y-4406755D01*
X8811796Y-4394310D01*
X8784755Y-4376242D01*
X8784755Y-4376241D01*
X8761759Y-4353245D01*
X8743690Y-4326204D01*
X8731245Y-4296158D01*
X8724900Y-4264261D01*
X8724900Y-4231739D01*
X8731245Y-4199842D01*
X8743690Y-4169796D01*
X8761759Y-4142755D01*
X8784755Y-4119759D01*
X8785115Y-4119518D01*
X8811796Y-4101690D01*
X8841842Y-4089245D01*
X8852474Y-4087130D01*
X8873739Y-4082900D01*
X8906261Y-4082900D01*
X8927526Y-4087130D01*
X8927526Y-4087130D01*
G37*
M02*
