M48
;DRILL file {KiCad 5.0.2-bee76a0~70~ubuntu18.04.1} date Mo 10 Aug 2020 14:48:13 CEST
;FORMAT={-:-/ absolute / inch / decimal}
FMAT,2
INCH,TZ
T1C0.0079
T2C0.0118
T3C0.0173
T4C0.0394
T5C0.0531
%
G90
G05
T1
X1.8661Y-3.8307
X1.8937Y-4.5323
X1.9213Y-4.
X1.9252Y-3.8346
X1.9705Y-4.4795
X1.9764Y-3.374
X1.9778Y-3.1471
X1.9803Y-3.0748
X2.0039Y-4.2441
X2.0039Y-4.2716
X2.0118Y-3.4606
X2.059Y-3.6457
X2.0802Y-3.0733
X2.0813Y-3.3085
X2.0827Y-3.2795
X2.0866Y-3.374
X2.121Y-3.873
X2.125Y-3.9631
X2.1279Y-3.5
X2.1283Y-4.0984
X2.1614Y-3.9173
X2.1634Y-3.498
X2.1653Y-4.5831
X2.1732Y-3.2756
X2.2047Y-4.2728
X2.2087Y-4.3779
X2.2126Y-4.4398
X2.2283Y-4.5354
X2.2535Y-4.5008
X2.2559Y-4.2677
X2.2559Y-4.2941
X2.2559Y-4.3197
X2.2874Y-3.8307
X2.2953Y-3.3268
X2.2953Y-3.374
X2.3104Y-3.8539
X2.3307Y-4.2831
X2.3374Y-4.6358
X2.3386Y-4.0551
X2.3413Y-4.4795
X2.3464Y-4.5073
X2.3479Y-4.3583
X2.3535Y-4.8512
X2.3701Y-4.2579
X2.374Y-3.3701
X2.3763Y-4.2331
X2.3882Y-3.0694
X2.3898Y-3.4646
X2.4114Y-4.1968
X2.4183Y-4.7197
X2.4291Y-3.1083
X2.4331Y-3.8701
X2.437Y-4.1949
X2.437Y-4.3819
X2.4488Y-3.6457
X2.4535Y-4.6386
X2.4724Y-4.1102
X2.475Y-3.2703
X2.4757Y-3.325
X2.4764Y-3.3701
X2.4778Y-3.0694
X2.4786Y-4.6441
X2.4839Y-4.9653
X2.4842Y-3.5315
X2.5031Y-4.289
X2.5039Y-4.0551
X2.5045Y-4.3146
X2.5146Y-4.9669
X2.5276Y-3.4842
X2.5382Y-4.7185
X2.539Y-4.6398
X2.5551Y-3.6968
X2.563Y-5.1535
X2.5709Y-3.2716
X2.5748Y-4.0978
X2.5862Y-4.5073
X2.5866Y-5.1339
X2.5905Y-3.874
X2.6043Y-4.5604
X2.6059Y-4.1988
X2.6181Y-4.0541
X2.626Y-4.5469
X2.6299Y-4.189
X2.6535Y-3.8307
X2.6614Y-2.8504
X2.6693Y-4.4734
X2.6752Y-2.5866
X2.6752Y-2.622
X2.6752Y-2.6575
X2.6752Y-2.6929
X2.6752Y-2.7224
X2.6772Y-5.063
X2.6811Y-4.3504
X2.69Y-4.1535
X2.6968Y-3.3228
X2.6968Y-3.8307
X2.6978Y-4.252
X2.7008Y-3.3701
X2.7008Y-4.3307
X2.7008Y-5.0472
X2.7047Y-2.5866
X2.7047Y-2.622
X2.7047Y-2.6575
X2.7047Y-2.6929
X2.7047Y-2.7224
X2.7087Y-4.4449
X2.7087Y-4.4921
X2.7087Y-5.2756
X2.7098Y-4.3836
X2.7126Y-4.4173
X2.7136Y-4.7342
X2.7205Y-2.189
X2.7205Y-2.2244
X2.7205Y-2.2598
X2.7205Y-2.2953
X2.7205Y-2.3307
X2.7283Y-3.4567
X2.7342Y-2.5866
X2.7342Y-2.622
X2.7342Y-2.6575
X2.7342Y-2.6929
X2.7342Y-2.7224
X2.7559Y-2.189
X2.7559Y-2.2244
X2.7559Y-2.2598
X2.7559Y-2.2953
X2.7559Y-2.3307
X2.7638Y-2.5866
X2.7638Y-2.622
X2.7638Y-2.6575
X2.7638Y-2.6929
X2.7638Y-2.7224
X2.7665Y-3.9134
X2.7807Y-5.437
X2.7866Y-4.4093
X2.7894Y-4.3838
X2.7913Y-3.3976
X2.7933Y-5.2106
X2.8031Y-3.0354
X2.8047Y-5.4677
X2.8071Y-3.1063
X2.809Y-2.5
X2.809Y-2.5354
X2.809Y-2.5709
X2.812Y-4.3189
X2.812Y-4.3504
X2.8344Y-3.2747
X2.8366Y-5.5027
X2.8386Y-2.5
X2.8386Y-2.5354
X2.8386Y-2.5709
X2.8425Y-4.4291
X2.8504Y-2.1811
X2.8504Y-2.2126
X2.8504Y-2.2441
X2.8504Y-2.2756
X2.8504Y-2.3071
X2.8504Y-2.3386
X2.8504Y-3.3722
X2.8543Y-3.3228
X2.8612Y-3.0679
X2.872Y-5.2146
X2.873Y-4.1663
X2.8779Y-3.9173
X2.8779Y-3.874
X2.8791Y-4.6744
X2.8819Y-2.1811
X2.8819Y-2.2126
X2.8819Y-2.2441
X2.8819Y-2.2756
X2.8819Y-2.3071
X2.8819Y-2.3386
X2.8858Y-2.622
X2.8858Y-2.6535
X2.8858Y-2.685
X2.8858Y-2.7165
X2.8858Y-2.748
X2.8858Y-2.7795
X2.8941Y-5.5098
X2.9043Y-4.2693
X2.9094Y-2.0945
X2.9094Y-3.5394
X2.9094Y-4.3701
X2.9114Y-4.2106
X2.9134Y-2.1811
X2.9134Y-2.2126
X2.9134Y-2.2441
X2.9134Y-2.2756
X2.9134Y-2.3071
X2.9134Y-2.3386
X2.9173Y-2.622
X2.9173Y-2.6535
X2.9173Y-2.685
X2.9173Y-2.7165
X2.9173Y-2.748
X2.9173Y-2.7795
X2.9327Y-4.1339
X2.9409Y-5.6468
X2.9449Y-2.1811
X2.9449Y-2.2126
X2.9449Y-2.2441
X2.9449Y-2.2756
X2.9449Y-2.3071
X2.9449Y-2.3386
X2.9488Y-2.622
X2.9488Y-2.6535
X2.9488Y-2.685
X2.9488Y-2.7165
X2.9488Y-2.748
X2.9488Y-2.7795
X2.9488Y-3.2756
X2.9527Y-3.4921
X2.9558Y-3.6438
X2.9764Y-2.1811
X2.9764Y-2.2126
X2.9764Y-2.2441
X2.9764Y-2.2756
X2.9764Y-2.3071
X2.9764Y-2.3386
X2.9803Y-2.622
X2.9803Y-2.6535
X2.9803Y-2.685
X2.9803Y-2.7165
X2.9803Y-2.748
X2.9803Y-2.7795
X3.0118Y-2.622
X3.0118Y-2.6535
X3.0118Y-2.685
X3.0118Y-2.7165
X3.0118Y-2.748
X3.0118Y-2.7795
X3.0453Y-4.4864
X3.0549Y-3.3742
X3.063Y-3.3031
X3.0707Y-4.4764
X3.0933Y-4.5425
X3.0961Y-4.5693
X3.0984Y-3.1575
X3.1417Y-3.1063
X3.1437Y-5.5815
X3.1496Y-4.8504
X3.1657Y-5.6772
X3.1968Y-2.1713
X3.1968Y-2.2027
X3.1968Y-2.2342
X3.1968Y-2.2657
X3.1968Y-2.2972
X3.1968Y-2.3287
X3.2116Y-3.1063
X3.2228Y-5.7039
X3.2283Y-2.1713
X3.2283Y-2.2027
X3.2283Y-2.2342
X3.2283Y-2.2657
X3.2283Y-2.2972
X3.2283Y-2.3287
X3.2342Y-5.613
X3.248Y-5.0394
X3.248Y-5.0787
X3.248Y-5.1181
X3.248Y-5.1575
X3.248Y-5.1968
X3.2598Y-2.1713
X3.2598Y-2.2027
X3.2598Y-2.2342
X3.2598Y-2.2657
X3.2598Y-2.2972
X3.2598Y-2.3287
X3.2776Y-5.0394
X3.2776Y-5.0787
X3.2776Y-5.1181
X3.2776Y-5.1575
X3.2776Y-5.1968
X3.2842Y-5.689
X3.2913Y-2.1713
X3.2913Y-2.2027
X3.2913Y-2.2342
X3.2913Y-2.2657
X3.2913Y-2.2972
X3.2913Y-2.3287
X3.3228Y-2.1713
X3.3228Y-2.2027
X3.3228Y-2.2342
X3.3228Y-2.2657
X3.3228Y-2.2972
X3.3228Y-2.3287
X3.3232Y-5.6453
X3.3382Y-5.8287
X3.3563Y-2.1713
X3.3563Y-2.2027
X3.3563Y-2.2342
X3.3563Y-2.2657
X3.3563Y-2.2972
X3.3563Y-2.3287
X3.3701Y-5.7323
X3.4157Y-5.6957
X3.4188Y-2.8479
X3.4764Y-2.5905
X3.4764Y-2.626
X3.4764Y-2.6614
X3.4764Y-2.6968
X3.4764Y-2.7283
X3.5079Y-2.5905
X3.5079Y-2.626
X3.5079Y-2.6614
X3.5079Y-2.6968
X3.5079Y-2.7283
X3.5236Y-2.189
X3.5236Y-2.2244
X3.5236Y-2.2598
X3.5236Y-2.2953
X3.5236Y-2.3307
X3.5394Y-2.5905
X3.5394Y-2.626
X3.5394Y-2.6614
X3.5394Y-2.6968
X3.5394Y-2.7283
X3.5441Y-5.8153
X3.559Y-2.189
X3.559Y-2.2244
X3.559Y-2.2598
X3.559Y-2.2953
X3.559Y-2.3307
X3.5709Y-2.5905
X3.5709Y-2.626
X3.5709Y-2.6614
X3.5709Y-2.6968
X3.5709Y-2.7283
X3.5839Y-5.8063
X3.6216Y-5.8043
X3.622Y-2.5
X3.622Y-2.5354
X3.622Y-2.5709
X3.6535Y-2.5
X3.6535Y-2.5354
X3.6535Y-2.5709
X3.6575Y-2.1772
X3.6575Y-2.2087
X3.6575Y-2.2401
X3.6575Y-2.2716
X3.6575Y-2.3031
X3.6575Y-2.3346
X3.6587Y-5.8185
X3.689Y-2.1772
X3.689Y-2.2087
X3.689Y-2.2401
X3.689Y-2.2716
X3.689Y-2.3031
X3.689Y-2.3346
X3.6929Y-2.6181
X3.6929Y-2.6496
X3.6929Y-2.6811
X3.6929Y-2.7126
X3.6929Y-2.7441
X3.6929Y-2.7756
X3.7205Y-2.1772
X3.7205Y-2.2087
X3.7205Y-2.2401
X3.7205Y-2.2716
X3.7205Y-2.3031
X3.7205Y-2.3346
X3.7244Y-2.0905
X3.7244Y-2.6181
X3.7244Y-2.6496
X3.7244Y-2.6811
X3.7244Y-2.7126
X3.7244Y-2.7441
X3.7244Y-2.7756
X3.752Y-2.1772
X3.752Y-2.2087
X3.752Y-2.2401
X3.752Y-2.2716
X3.752Y-2.3031
X3.752Y-2.3346
X3.7559Y-2.6181
X3.7559Y-2.6496
X3.7559Y-2.6811
X3.7559Y-2.7126
X3.7559Y-2.7441
X3.7559Y-2.7756
X3.7772Y-5.9197
X3.7835Y-2.1772
X3.7835Y-2.2087
X3.7835Y-2.2401
X3.7835Y-2.2716
X3.7835Y-2.3031
X3.7835Y-2.3346
X3.7835Y-5.0709
X3.7874Y-2.6181
X3.7874Y-2.6496
X3.7874Y-2.6811
X3.7874Y-2.7126
X3.7874Y-2.7441
X3.7874Y-2.7756
X3.815Y-5.0709
X3.8189Y-2.6181
X3.8189Y-2.6496
X3.8189Y-2.6811
X3.8189Y-2.7126
X3.8189Y-2.7441
X3.8189Y-2.7756
X3.8464Y-5.0709
X3.8819Y-5.0709
X3.9213Y-5.6964
X3.937Y-5.5669
X3.9567Y-5.0886
X3.9567Y-5.1378
X3.9567Y-5.187
X3.9567Y-5.2362
X3.9567Y-5.2854
X3.9567Y-5.3346
X3.9567Y-5.374
X4.0039Y-2.1713
X4.0039Y-2.2027
X4.0039Y-2.2342
X4.0039Y-2.2657
X4.0039Y-2.2972
X4.0039Y-2.3287
X4.0142Y-6.
X4.0315Y-5.6279
X4.0354Y-2.1713
X4.0354Y-2.2027
X4.0354Y-2.2342
X4.0354Y-2.2657
X4.0354Y-2.2972
X4.0354Y-2.3287
X4.0669Y-2.1713
X4.0669Y-2.2027
X4.0669Y-2.2342
X4.0669Y-2.2657
X4.0669Y-2.2972
X4.0669Y-2.3287
X4.0984Y-2.1713
X4.0984Y-2.2027
X4.0984Y-2.2342
X4.0984Y-2.2657
X4.0984Y-2.2972
X4.0984Y-2.3287
X4.1299Y-2.1713
X4.1299Y-2.2027
X4.1299Y-2.2342
X4.1299Y-2.2657
X4.1299Y-2.2972
X4.1299Y-2.3287
X4.1614Y-2.1713
X4.1614Y-2.2027
X4.1614Y-2.2342
X4.1614Y-2.2657
X4.1614Y-2.2972
X4.1614Y-2.3287
X4.2756Y-2.8543
X4.2795Y-2.5945
X4.2795Y-2.6299
X4.2795Y-2.6653
X4.2795Y-2.7008
X4.2795Y-2.7323
X4.311Y-2.5945
X4.311Y-2.6299
X4.311Y-2.6653
X4.311Y-2.7008
X4.311Y-2.7323
X4.3268Y-2.1929
X4.3268Y-2.2283
X4.3268Y-2.2638
X4.3268Y-2.2992
X4.3268Y-2.3346
X4.3425Y-2.5945
X4.3425Y-2.6299
X4.3425Y-2.6653
X4.3425Y-2.7008
X4.3425Y-2.7323
X4.3622Y-2.1929
X4.3622Y-2.2283
X4.3622Y-2.2638
X4.3622Y-2.2992
X4.3622Y-2.3346
X4.374Y-2.5945
X4.374Y-2.6299
X4.374Y-2.6653
X4.374Y-2.7008
X4.374Y-2.7323
X4.4016Y-5.6063
X4.4173Y-2.5
X4.4173Y-2.5354
X4.4173Y-2.5709
X4.4281Y-5.6801
X4.4488Y-2.5
X4.4488Y-2.5354
X4.4488Y-2.5709
X4.4567Y-2.185
X4.4567Y-2.2165
X4.4567Y-2.248
X4.4567Y-2.2795
X4.4567Y-2.311
X4.4567Y-2.3425
X4.4783Y-5.6791
X4.4882Y-2.185
X4.4882Y-2.2165
X4.4882Y-2.248
X4.4882Y-2.2795
X4.4882Y-2.311
X4.4882Y-2.3425
X4.4961Y-5.9134
X4.5Y-2.626
X4.5Y-2.6575
X4.5Y-2.689
X4.5Y-2.7205
X4.5Y-2.752
X4.5Y-2.7835
X4.5079Y-5.6791
X4.5197Y-2.1102
X4.5197Y-2.185
X4.5197Y-2.2165
X4.5197Y-2.248
X4.5197Y-2.2795
X4.5197Y-2.311
X4.5197Y-2.3425
X4.5315Y-2.626
X4.5315Y-2.6575
X4.5315Y-2.689
X4.5315Y-2.7205
X4.5315Y-2.752
X4.5315Y-2.7835
X4.5374Y-5.6791
X4.5512Y-2.185
X4.5512Y-2.2165
X4.5512Y-2.248
X4.5512Y-2.2795
X4.5512Y-2.311
X4.5512Y-2.3425
X4.563Y-2.626
X4.563Y-2.6575
X4.563Y-2.689
X4.563Y-2.7205
X4.563Y-2.752
X4.563Y-2.7835
X4.5669Y-5.6791
X4.5827Y-2.185
X4.5827Y-2.2165
X4.5827Y-2.248
X4.5827Y-2.2795
X4.5827Y-2.311
X4.5827Y-2.3425
X4.5945Y-2.626
X4.5945Y-2.6575
X4.5945Y-2.689
X4.5945Y-2.7205
X4.5945Y-2.752
X4.5945Y-2.7835
X4.5964Y-5.6791
X4.6063Y-5.5472
X4.622Y-5.8937
X4.626Y-2.626
X4.626Y-2.6575
X4.626Y-2.689
X4.626Y-2.7205
X4.626Y-2.752
X4.626Y-2.7835
X4.626Y-5.6791
X4.6555Y-5.6791
X4.685Y-5.6791
X4.6937Y-5.8063
X4.7146Y-5.6791
X4.7441Y-5.6791
X4.7736Y-5.6791
X4.815Y-5.6693
X4.8189Y-2.8779
X4.8189Y-2.9094
X4.8189Y-2.9409
X4.8189Y-2.9724
X4.8189Y-3.0039
X4.8189Y-3.0354
X4.8189Y-3.0709
X4.8189Y-3.1024
X4.8189Y-3.1339
X4.8228Y-2.185
X4.8228Y-2.2165
X4.8228Y-2.248
X4.8228Y-2.2795
X4.8228Y-2.311
X4.8228Y-2.3425
X4.8504Y-2.8779
X4.8504Y-2.9094
X4.8504Y-2.9409
X4.8504Y-2.9724
X4.8504Y-3.0039
X4.8504Y-3.0354
X4.8504Y-3.0709
X4.8504Y-3.1024
X4.8504Y-3.1339
X4.8543Y-2.185
X4.8543Y-2.2165
X4.8543Y-2.248
X4.8543Y-2.2795
X4.8543Y-2.311
X4.8543Y-2.3425
X4.8819Y-2.8779
X4.8819Y-2.9094
X4.8819Y-2.9409
X4.8819Y-2.9724
X4.8819Y-3.0039
X4.8819Y-3.0354
X4.8819Y-3.0709
X4.8819Y-3.1024
X4.8819Y-3.1339
X4.8858Y-2.185
X4.8858Y-2.2165
X4.8858Y-2.248
X4.8858Y-2.2795
X4.8858Y-2.311
X4.8858Y-2.3425
X4.9134Y-2.8779
X4.9134Y-2.9094
X4.9134Y-2.9409
X4.9134Y-2.9724
X4.9134Y-3.0039
X4.9134Y-3.0354
X4.9134Y-3.0709
X4.9134Y-3.1024
X4.9134Y-3.1339
X4.9173Y-2.185
X4.9173Y-2.2165
X4.9173Y-2.248
X4.9173Y-2.2795
X4.9173Y-2.311
X4.9173Y-2.3425
X4.9449Y-2.8779
X4.9449Y-2.9094
X4.9449Y-2.9409
X4.9449Y-2.9724
X4.9449Y-3.0039
X4.9449Y-3.0354
X4.9449Y-3.0709
X4.9449Y-3.1024
X4.9449Y-3.1339
X4.9488Y-2.185
X4.9488Y-2.2165
X4.9488Y-2.248
X4.9488Y-2.2795
X4.9488Y-2.311
X4.9488Y-2.3425
X4.9764Y-2.8779
X4.9764Y-2.9094
X4.9764Y-2.9409
X4.9764Y-2.9724
X4.9764Y-3.0039
X4.9764Y-3.0354
X4.9764Y-3.0709
X4.9764Y-3.1024
X4.9764Y-3.1339
X4.9803Y-2.185
X4.9803Y-2.2165
X4.9803Y-2.248
X4.9803Y-2.2795
X4.9803Y-2.311
X4.9803Y-2.3425
X5.0276Y-5.0512
X5.0354Y-5.0197
X5.0984Y-5.189
X5.1339Y-3.7795
X5.1339Y-3.811
X5.1339Y-3.8425
X5.1339Y-3.874
X5.1339Y-3.9055
X5.1339Y-3.937
X5.1339Y-5.2087
X5.1653Y-3.7795
X5.1653Y-3.811
X5.1653Y-3.8425
X5.1653Y-3.874
X5.1653Y-3.9055
X5.1653Y-3.937
X5.1693Y-4.0236
X5.1693Y-4.0551
X5.1693Y-4.0866
X5.1693Y-4.1181
X5.1693Y-4.1496
X5.1693Y-4.1811
X5.1693Y-4.2126
X5.1693Y-4.2441
X5.1968Y-3.7795
X5.1968Y-3.811
X5.1968Y-3.8425
X5.1968Y-3.874
X5.1968Y-3.9055
X5.1968Y-3.937
X5.2008Y-4.0236
X5.2008Y-4.0551
X5.2008Y-4.0866
X5.2008Y-4.1181
X5.2008Y-4.1496
X5.2008Y-4.1811
X5.2008Y-4.2126
X5.2008Y-4.2441
X5.2244Y-5.3504
X5.2323Y-4.0236
X5.2323Y-4.0551
X5.2323Y-4.0866
X5.2323Y-4.1181
X5.2323Y-4.1496
X5.2323Y-4.1811
X5.2323Y-4.2126
X5.2323Y-4.2441
X5.2638Y-4.0236
X5.2638Y-4.0551
X5.2638Y-4.0866
X5.2638Y-4.1181
X5.2638Y-4.1496
X5.2638Y-4.1811
X5.2638Y-4.2126
X5.2638Y-4.2441
X5.2756Y-5.2992
X5.2953Y-4.0236
X5.2953Y-4.0551
X5.2953Y-4.0866
X5.2953Y-4.1181
X5.2953Y-4.1496
X5.2953Y-4.1811
X5.2953Y-4.2126
X5.2953Y-4.2441
X5.3268Y-4.0236
X5.3268Y-4.0551
X5.3268Y-4.0866
X5.3268Y-4.1181
X5.3268Y-4.1496
X5.3268Y-4.1811
X5.3268Y-4.2126
X5.3268Y-4.2441
X5.3543Y-5.0669
X5.3543Y-5.2362
X5.3583Y-4.0236
X5.3583Y-4.0551
X5.3583Y-4.0866
X5.3583Y-4.1181
X5.3583Y-4.1496
X5.3583Y-4.1811
X5.3583Y-4.2126
X5.3583Y-4.2441
X5.3661Y-3.7795
X5.3661Y-3.811
X5.3661Y-3.8425
X5.3661Y-3.874
X5.3661Y-3.9055
X5.3661Y-3.937
X5.3898Y-4.0236
X5.3898Y-4.0551
X5.3898Y-4.0866
X5.3898Y-4.1181
X5.3898Y-4.1496
X5.3898Y-4.1811
X5.3898Y-4.2126
X5.3898Y-4.2441
X5.3976Y-3.7795
X5.3976Y-3.811
X5.3976Y-3.8425
X5.3976Y-3.874
X5.3976Y-3.9055
X5.3976Y-3.937
X5.3976Y-5.3583
X5.4291Y-3.248
X5.4291Y-3.2795
X5.4291Y-3.311
X5.4291Y-3.3425
X5.4291Y-3.374
X5.4291Y-3.4055
X5.4291Y-3.7795
X5.4291Y-3.811
X5.4291Y-3.8425
X5.4291Y-3.874
X5.4291Y-3.9055
X5.4291Y-3.937
X5.4606Y-3.248
X5.4606Y-3.2795
X5.4606Y-3.311
X5.4606Y-3.3425
X5.4606Y-3.374
X5.4606Y-3.4055
X5.4921Y-3.248
X5.4921Y-3.2795
X5.4921Y-3.311
X5.4921Y-3.3425
X5.4921Y-3.374
X5.4921Y-3.4055
X5.4961Y-4.9862
X5.5394Y-3.4606
X5.5394Y-3.4921
X5.5394Y-3.5236
X5.5709Y-3.4606
X5.5709Y-3.4921
X5.5709Y-3.5236
X5.6024Y-3.4606
X5.6024Y-3.4921
X5.6024Y-3.5236
X5.6339Y-3.4606
X5.6339Y-3.4921
X5.6339Y-3.5236
X5.6653Y-3.2401
X5.6653Y-3.2716
X5.6653Y-3.3031
X5.6653Y-3.3346
X5.6653Y-3.3661
X5.6653Y-3.3976
X5.6653Y-3.4606
X5.6653Y-3.4921
X5.6653Y-3.5236
X5.6653Y-4.0157
X5.6653Y-4.0472
X5.6653Y-4.0787
X5.6653Y-4.1102
X5.6653Y-4.1417
X5.6653Y-4.1732
X5.6653Y-4.2047
X5.6653Y-4.2362
X5.6968Y-3.2401
X5.6968Y-3.2716
X5.6968Y-3.3031
X5.6968Y-3.3346
X5.6968Y-3.3661
X5.6968Y-3.3976
X5.6968Y-3.4606
X5.6968Y-3.4921
X5.6968Y-3.5236
X5.6968Y-4.0157
X5.6968Y-4.0472
X5.6968Y-4.0787
X5.6968Y-4.1102
X5.6968Y-4.1417
X5.6968Y-4.1732
X5.6968Y-4.2047
X5.6968Y-4.2362
X5.7283Y-3.2401
X5.7283Y-3.2716
X5.7283Y-3.3031
X5.7283Y-3.3346
X5.7283Y-3.3661
X5.7283Y-3.3976
X5.7283Y-4.0157
X5.7283Y-4.0472
X5.7283Y-4.0787
X5.7283Y-4.1102
X5.7283Y-4.1417
X5.7283Y-4.1732
X5.7283Y-4.2047
X5.7283Y-4.2362
X5.7598Y-4.0157
X5.7598Y-4.0472
X5.7598Y-4.0787
X5.7598Y-4.1102
X5.7598Y-4.1417
X5.7598Y-4.1732
X5.7598Y-4.2047
X5.7598Y-4.2362
X5.7913Y-4.0157
X5.7913Y-4.0472
X5.7913Y-4.0787
X5.7913Y-4.1102
X5.7913Y-4.1417
X5.7913Y-4.1732
X5.7913Y-4.2047
X5.7913Y-4.2362
X5.8228Y-4.0157
X5.8228Y-4.0472
X5.8228Y-4.0787
X5.8228Y-4.1102
X5.8228Y-4.1417
X5.8228Y-4.1732
X5.8228Y-4.2047
X5.8228Y-4.2362
X5.8543Y-4.0157
X5.8543Y-4.0472
X5.8543Y-4.0787
X5.8543Y-4.1102
X5.8543Y-4.1417
X5.8543Y-4.1732
X5.8543Y-4.2047
X5.8543Y-4.2362
X5.8858Y-4.0157
X5.8858Y-4.0472
X5.8858Y-4.0787
X5.8858Y-4.1102
X5.8858Y-4.1417
X5.8858Y-4.1732
X5.8858Y-4.2047
X5.8858Y-4.2362
X5.8937Y-3.4449
X5.8937Y-3.4764
X5.8937Y-3.5079
X5.8937Y-3.5394
X5.8937Y-3.5709
X5.8937Y-3.6024
X5.9252Y-3.4449
X5.9252Y-3.4764
X5.9252Y-3.5079
X5.9252Y-3.5394
X5.9252Y-3.5709
X5.9252Y-3.6024
X5.9567Y-3.4449
X5.9567Y-3.4764
X5.9567Y-3.5079
X5.9567Y-3.5394
X5.9567Y-3.5709
X5.9567Y-3.6024
T2
X3.7352Y-5.422
X3.7352Y-5.4693
X3.7352Y-5.5205
X3.7352Y-5.5638
X3.7825Y-5.422
X3.7825Y-5.4693
X3.7825Y-5.5205
X3.7825Y-5.5638
T3
X2.3783Y-5.2536
X2.4126Y-5.2917
X2.4247Y-5.2463
X2.4468Y-5.3297
X2.459Y-5.2844
T4
X3.002Y-4.5718
X3.002Y-4.6718
X3.002Y-4.7718
X3.002Y-4.8718
X3.002Y-4.9718
X5.6339Y-4.5748
X5.7339Y-4.5748
X5.8339Y-4.5748
T5
X2.3249Y-5.1813
X2.5132Y-5.3905
T0
M30
