%TF.GenerationSoftware,KiCad,Pcbnew,5.1.6+dfsg1-1*%
%TF.CreationDate,2021-01-25T10:35:50+01:00*%
%TF.ProjectId,gesc,67657363-2e6b-4696-9361-645f70636258,rev?*%
%TF.SameCoordinates,Original*%
%TF.FileFunction,Soldermask,Bot*%
%TF.FilePolarity,Negative*%
%FSLAX46Y46*%
G04 Gerber Fmt 4.6, Leading zero omitted, Abs format (unit mm)*
G04 Created by KiCad (PCBNEW 5.1.6+dfsg1-1) date 2021-01-25 10:35:50*
%MOMM*%
%LPD*%
G01*
G04 APERTURE LIST*
%TA.AperFunction,Profile*%
%ADD10C,0.200000*%
%TD*%
%ADD11C,0.100000*%
G04 APERTURE END LIST*
D10*
X155499800Y-99999800D02*
G75*
G03*
X155499800Y-99999800I-55500000J0D01*
G01*
X124500000Y-100000000D02*
G75*
G03*
X124500000Y-100000000I-24500000J0D01*
G01*
D11*
G36*
X64120251Y-135979753D02*
G01*
X64120254Y-135979754D01*
X64120253Y-135979754D01*
X64297873Y-136053326D01*
X64297874Y-136053327D01*
X64457725Y-136160135D01*
X64593675Y-136296085D01*
X64682722Y-136429355D01*
X64700484Y-136455937D01*
X64757389Y-136593319D01*
X64774057Y-136633559D01*
X64811564Y-136822117D01*
X64811564Y-137014375D01*
X64774057Y-137202933D01*
X64774056Y-137202935D01*
X64700484Y-137380555D01*
X64700483Y-137380556D01*
X64593675Y-137540407D01*
X64457725Y-137676357D01*
X64324455Y-137765404D01*
X64297873Y-137783166D01*
X64160491Y-137840071D01*
X64120251Y-137856739D01*
X63931693Y-137894246D01*
X63739435Y-137894246D01*
X63550877Y-137856739D01*
X63510637Y-137840071D01*
X63373255Y-137783166D01*
X63346673Y-137765404D01*
X63213403Y-137676357D01*
X63077453Y-137540407D01*
X62970645Y-137380556D01*
X62970644Y-137380555D01*
X62897072Y-137202935D01*
X62897071Y-137202933D01*
X62859564Y-137014375D01*
X62859564Y-136822117D01*
X62897071Y-136633559D01*
X62913739Y-136593319D01*
X62970644Y-136455937D01*
X62988406Y-136429355D01*
X63077453Y-136296085D01*
X63213403Y-136160135D01*
X63373254Y-136053327D01*
X63373255Y-136053326D01*
X63550875Y-135979754D01*
X63550874Y-135979754D01*
X63550877Y-135979753D01*
X63739435Y-135942246D01*
X63931693Y-135942246D01*
X64120251Y-135979753D01*
G37*
G36*
X62565064Y-133763692D02*
G01*
X62595396Y-133769725D01*
X62681112Y-133805230D01*
X62758255Y-133856775D01*
X62823860Y-133922380D01*
X62869921Y-133991316D01*
X62875406Y-133999525D01*
X62910910Y-134085240D01*
X62929010Y-134176234D01*
X62929010Y-134269016D01*
X62928550Y-134271327D01*
X62910910Y-134360011D01*
X62875405Y-134445727D01*
X62823860Y-134522870D01*
X62758255Y-134588475D01*
X62681112Y-134640020D01*
X62595396Y-134675525D01*
X62565064Y-134681558D01*
X62504401Y-134693625D01*
X62451013Y-134693625D01*
X62426627Y-134696027D01*
X62403178Y-134703140D01*
X62381567Y-134714691D01*
X62362625Y-134730236D01*
X62347080Y-134749178D01*
X62335529Y-134770789D01*
X62328416Y-134794238D01*
X62326014Y-134818624D01*
X62328416Y-134843010D01*
X62335529Y-134866459D01*
X62347080Y-134888070D01*
X62358121Y-134902265D01*
X62814982Y-135409660D01*
X62814982Y-135409661D01*
X62446617Y-135741338D01*
X62114940Y-136039982D01*
X62114939Y-136039982D01*
X61783262Y-135671617D01*
X61484618Y-135339940D01*
X61484618Y-135339939D01*
X61814536Y-135042880D01*
X62136366Y-134753102D01*
X62152881Y-134735000D01*
X62165547Y-134714023D01*
X62173878Y-134690979D01*
X62177553Y-134666752D01*
X62176430Y-134642273D01*
X62170554Y-134618484D01*
X62160150Y-134596299D01*
X62141116Y-134571826D01*
X62092160Y-134522870D01*
X62040615Y-134445727D01*
X62005110Y-134360011D01*
X61998526Y-134326910D01*
X61991413Y-134303461D01*
X61985747Y-134292861D01*
X61987010Y-134280041D01*
X61987010Y-134176234D01*
X62005110Y-134085240D01*
X62040614Y-133999525D01*
X62046099Y-133991316D01*
X62092160Y-133922380D01*
X62157765Y-133856775D01*
X62234908Y-133805230D01*
X62320624Y-133769725D01*
X62350956Y-133763692D01*
X62411619Y-133751625D01*
X62504401Y-133751625D01*
X62565064Y-133763692D01*
G37*
G36*
X61381228Y-133948633D02*
G01*
X61405614Y-133951035D01*
X61407436Y-133950856D01*
X61414623Y-133954697D01*
X61417314Y-133955812D01*
X61417316Y-133955812D01*
X61449162Y-133969003D01*
X61503029Y-133991315D01*
X61503030Y-133991316D01*
X61503032Y-133991317D01*
X61580175Y-134042862D01*
X61645780Y-134108467D01*
X61697325Y-134185610D01*
X61697326Y-134185612D01*
X61732830Y-134271326D01*
X61739414Y-134304427D01*
X61746527Y-134327876D01*
X61752193Y-134338476D01*
X61750930Y-134351296D01*
X61750930Y-134455101D01*
X61732830Y-134546098D01*
X61697325Y-134631814D01*
X61645780Y-134708957D01*
X61580175Y-134774562D01*
X61503032Y-134826107D01*
X61417316Y-134861612D01*
X61392948Y-134866459D01*
X61326321Y-134879712D01*
X61233539Y-134879712D01*
X61166912Y-134866459D01*
X61142544Y-134861612D01*
X61056828Y-134826107D01*
X60979685Y-134774562D01*
X60914080Y-134708957D01*
X60862535Y-134631814D01*
X60827030Y-134546098D01*
X60808930Y-134455101D01*
X60808930Y-134362323D01*
X60809390Y-134360011D01*
X60827030Y-134271327D01*
X60862534Y-134185612D01*
X60862535Y-134185610D01*
X60914080Y-134108467D01*
X60979685Y-134042862D01*
X61056828Y-133991317D01*
X61056833Y-133991315D01*
X61081935Y-133980917D01*
X61142544Y-133955812D01*
X61178636Y-133948633D01*
X61233539Y-133937712D01*
X61326322Y-133937712D01*
X61381228Y-133948633D01*
G37*
G36*
X60517114Y-132983690D02*
G01*
X60547446Y-132989723D01*
X60633162Y-133025228D01*
X60710305Y-133076773D01*
X60775910Y-133142378D01*
X60821192Y-133210148D01*
X60827456Y-133219523D01*
X60862960Y-133305237D01*
X60869544Y-133338338D01*
X60876657Y-133361787D01*
X60882323Y-133372387D01*
X60881060Y-133385208D01*
X60881060Y-133489012D01*
X60862960Y-133580009D01*
X60827455Y-133665725D01*
X60775910Y-133742868D01*
X60710305Y-133808473D01*
X60633162Y-133860018D01*
X60547446Y-133895523D01*
X60517114Y-133901556D01*
X60456451Y-133913623D01*
X60363669Y-133913623D01*
X60303006Y-133901556D01*
X60272674Y-133895523D01*
X60186958Y-133860018D01*
X60109815Y-133808473D01*
X60044210Y-133742868D01*
X59992665Y-133665725D01*
X59957160Y-133580009D01*
X59939060Y-133489012D01*
X59939060Y-133396234D01*
X59939520Y-133393923D01*
X59957160Y-133305238D01*
X59958117Y-133302928D01*
X59992665Y-133219521D01*
X60044210Y-133142378D01*
X60109815Y-133076773D01*
X60186958Y-133025228D01*
X60272674Y-132989723D01*
X60303006Y-132983690D01*
X60363669Y-132971623D01*
X60456451Y-132971623D01*
X60517114Y-132983690D01*
G37*
G36*
X61695194Y-132797604D02*
G01*
X61725526Y-132803637D01*
X61811242Y-132839142D01*
X61888385Y-132890687D01*
X61953990Y-132956292D01*
X62000051Y-133025228D01*
X62005536Y-133033437D01*
X62041040Y-133119152D01*
X62059140Y-133210146D01*
X62059140Y-133302928D01*
X62056947Y-133313952D01*
X62041040Y-133393923D01*
X62005535Y-133479639D01*
X61953990Y-133556782D01*
X61888385Y-133622387D01*
X61811242Y-133673932D01*
X61811241Y-133673933D01*
X61811240Y-133673933D01*
X61786135Y-133684332D01*
X61725526Y-133709437D01*
X61719920Y-133710552D01*
X61634531Y-133727537D01*
X61541748Y-133727537D01*
X61486842Y-133716616D01*
X61462456Y-133714214D01*
X61460634Y-133714393D01*
X61453447Y-133710552D01*
X61450756Y-133709437D01*
X61450754Y-133709437D01*
X61418908Y-133696246D01*
X61365041Y-133673934D01*
X61352752Y-133665723D01*
X61287895Y-133622387D01*
X61222290Y-133556782D01*
X61170745Y-133479639D01*
X61135240Y-133393923D01*
X61128656Y-133360822D01*
X61121543Y-133337373D01*
X61115877Y-133326773D01*
X61117140Y-133313952D01*
X61117140Y-133210146D01*
X61135240Y-133119152D01*
X61170744Y-133033437D01*
X61176229Y-133025228D01*
X61222290Y-132956292D01*
X61287895Y-132890687D01*
X61365038Y-132839142D01*
X61450754Y-132803637D01*
X61481086Y-132797604D01*
X61541749Y-132785537D01*
X61634531Y-132785537D01*
X61695194Y-132797604D01*
G37*
G36*
X59335967Y-130666267D02*
G01*
X59335970Y-130666268D01*
X59335969Y-130666268D01*
X59513589Y-130739840D01*
X59513590Y-130739841D01*
X59673441Y-130846649D01*
X59809391Y-130982599D01*
X59898438Y-131115869D01*
X59916200Y-131142451D01*
X59973105Y-131279833D01*
X59989773Y-131320073D01*
X60027280Y-131508631D01*
X60027280Y-131700889D01*
X59989773Y-131889447D01*
X59989772Y-131889449D01*
X59916200Y-132067069D01*
X59916199Y-132067070D01*
X59809391Y-132226921D01*
X59673441Y-132362871D01*
X59540171Y-132451918D01*
X59513589Y-132469680D01*
X59376207Y-132526585D01*
X59335967Y-132543253D01*
X59147409Y-132580760D01*
X58955151Y-132580760D01*
X58766593Y-132543253D01*
X58726353Y-132526585D01*
X58588971Y-132469680D01*
X58562389Y-132451918D01*
X58429119Y-132362871D01*
X58293169Y-132226921D01*
X58186361Y-132067070D01*
X58186360Y-132067069D01*
X58112788Y-131889449D01*
X58112787Y-131889447D01*
X58075280Y-131700889D01*
X58075280Y-131508631D01*
X58112787Y-131320073D01*
X58129455Y-131279833D01*
X58186360Y-131142451D01*
X58204122Y-131115869D01*
X58293169Y-130982599D01*
X58429119Y-130846649D01*
X58588970Y-130739841D01*
X58588971Y-130739840D01*
X58766591Y-130666268D01*
X58766590Y-130666268D01*
X58766593Y-130666267D01*
X58955151Y-130628760D01*
X59147409Y-130628760D01*
X59335967Y-130666267D01*
G37*
G36*
X55774948Y-124141298D02*
G01*
X55881271Y-124162447D01*
X56181734Y-124286903D01*
X56452143Y-124467585D01*
X56682107Y-124697549D01*
X56862789Y-124967958D01*
X56987245Y-125268421D01*
X57050692Y-125587391D01*
X57050692Y-125912609D01*
X56987245Y-126231579D01*
X56862789Y-126532042D01*
X56682107Y-126802451D01*
X56452143Y-127032415D01*
X56181734Y-127213097D01*
X55881271Y-127337553D01*
X55774948Y-127358702D01*
X55562303Y-127401000D01*
X55237081Y-127401000D01*
X55024436Y-127358702D01*
X54918113Y-127337553D01*
X54617650Y-127213097D01*
X54347241Y-127032415D01*
X54117277Y-126802451D01*
X53936595Y-126532042D01*
X53812139Y-126231579D01*
X53748692Y-125912609D01*
X53748692Y-125587391D01*
X53812139Y-125268421D01*
X53936595Y-124967958D01*
X54117277Y-124697549D01*
X54347241Y-124467585D01*
X54617650Y-124286903D01*
X54918113Y-124162447D01*
X55024436Y-124141298D01*
X55237081Y-124099000D01*
X55562303Y-124099000D01*
X55774948Y-124141298D01*
G37*
G36*
X144975564Y-124141298D02*
G01*
X145081887Y-124162447D01*
X145382350Y-124286903D01*
X145652759Y-124467585D01*
X145882723Y-124697549D01*
X146063405Y-124967958D01*
X146187861Y-125268421D01*
X146251308Y-125587391D01*
X146251308Y-125912609D01*
X146187861Y-126231579D01*
X146063405Y-126532042D01*
X145882723Y-126802451D01*
X145652759Y-127032415D01*
X145382350Y-127213097D01*
X145081887Y-127337553D01*
X144975564Y-127358702D01*
X144762919Y-127401000D01*
X144437697Y-127401000D01*
X144225052Y-127358702D01*
X144118729Y-127337553D01*
X143818266Y-127213097D01*
X143547857Y-127032415D01*
X143317893Y-126802451D01*
X143137211Y-126532042D01*
X143012755Y-126231579D01*
X142949308Y-125912609D01*
X142949308Y-125587391D01*
X143012755Y-125268421D01*
X143137211Y-124967958D01*
X143317893Y-124697549D01*
X143547857Y-124467585D01*
X143818266Y-124286903D01*
X144118729Y-124162447D01*
X144225052Y-124141298D01*
X144437697Y-124099000D01*
X144762919Y-124099000D01*
X144975564Y-124141298D01*
G37*
G36*
X76363312Y-125388727D02*
G01*
X76512612Y-125418424D01*
X76676584Y-125486344D01*
X76824154Y-125584947D01*
X76949653Y-125710446D01*
X77048256Y-125858016D01*
X77116176Y-126021988D01*
X77150800Y-126196059D01*
X77150800Y-126373541D01*
X77116176Y-126547612D01*
X77048256Y-126711584D01*
X76949653Y-126859154D01*
X76824154Y-126984653D01*
X76676584Y-127083256D01*
X76512612Y-127151176D01*
X76363312Y-127180873D01*
X76338542Y-127185800D01*
X76161058Y-127185800D01*
X76136288Y-127180873D01*
X75986988Y-127151176D01*
X75823016Y-127083256D01*
X75675446Y-126984653D01*
X75549947Y-126859154D01*
X75451344Y-126711584D01*
X75383424Y-126547612D01*
X75348800Y-126373541D01*
X75348800Y-126196059D01*
X75383424Y-126021988D01*
X75451344Y-125858016D01*
X75549947Y-125710446D01*
X75675446Y-125584947D01*
X75823016Y-125486344D01*
X75986988Y-125418424D01*
X76136288Y-125388727D01*
X76161058Y-125383800D01*
X76338542Y-125383800D01*
X76363312Y-125388727D01*
G37*
G36*
X76363312Y-122848727D02*
G01*
X76512612Y-122878424D01*
X76676584Y-122946344D01*
X76824154Y-123044947D01*
X76949653Y-123170446D01*
X77048256Y-123318016D01*
X77116176Y-123481988D01*
X77150800Y-123656059D01*
X77150800Y-123833541D01*
X77116176Y-124007612D01*
X77048256Y-124171584D01*
X76949653Y-124319154D01*
X76824154Y-124444653D01*
X76676584Y-124543256D01*
X76512612Y-124611176D01*
X76363312Y-124640873D01*
X76338542Y-124645800D01*
X76161058Y-124645800D01*
X76136288Y-124640873D01*
X75986988Y-124611176D01*
X75823016Y-124543256D01*
X75675446Y-124444653D01*
X75549947Y-124319154D01*
X75451344Y-124171584D01*
X75383424Y-124007612D01*
X75348800Y-123833541D01*
X75348800Y-123656059D01*
X75383424Y-123481988D01*
X75451344Y-123318016D01*
X75549947Y-123170446D01*
X75675446Y-123044947D01*
X75823016Y-122946344D01*
X75986988Y-122878424D01*
X76136288Y-122848727D01*
X76161058Y-122843800D01*
X76338542Y-122843800D01*
X76363312Y-122848727D01*
G37*
G36*
X76363312Y-120308727D02*
G01*
X76512612Y-120338424D01*
X76676584Y-120406344D01*
X76824154Y-120504947D01*
X76949653Y-120630446D01*
X77048256Y-120778016D01*
X77116176Y-120941988D01*
X77150800Y-121116059D01*
X77150800Y-121293541D01*
X77116176Y-121467612D01*
X77048256Y-121631584D01*
X76949653Y-121779154D01*
X76824154Y-121904653D01*
X76676584Y-122003256D01*
X76512612Y-122071176D01*
X76363312Y-122100873D01*
X76338542Y-122105800D01*
X76161058Y-122105800D01*
X76136288Y-122100873D01*
X75986988Y-122071176D01*
X75823016Y-122003256D01*
X75675446Y-121904653D01*
X75549947Y-121779154D01*
X75451344Y-121631584D01*
X75383424Y-121467612D01*
X75348800Y-121293541D01*
X75348800Y-121116059D01*
X75383424Y-120941988D01*
X75451344Y-120778016D01*
X75549947Y-120630446D01*
X75675446Y-120504947D01*
X75823016Y-120406344D01*
X75986988Y-120338424D01*
X76136288Y-120308727D01*
X76161058Y-120303800D01*
X76338542Y-120303800D01*
X76363312Y-120308727D01*
G37*
G36*
X148413312Y-118983727D02*
G01*
X148562612Y-119013424D01*
X148726584Y-119081344D01*
X148874154Y-119179947D01*
X148999653Y-119305446D01*
X149098256Y-119453016D01*
X149166176Y-119616988D01*
X149200800Y-119791059D01*
X149200800Y-119968541D01*
X149166176Y-120142612D01*
X149098256Y-120306584D01*
X148999653Y-120454154D01*
X148874154Y-120579653D01*
X148726584Y-120678256D01*
X148562612Y-120746176D01*
X148413312Y-120775873D01*
X148388542Y-120780800D01*
X148211058Y-120780800D01*
X148186288Y-120775873D01*
X148036988Y-120746176D01*
X147873016Y-120678256D01*
X147725446Y-120579653D01*
X147599947Y-120454154D01*
X147501344Y-120306584D01*
X147433424Y-120142612D01*
X147398800Y-119968541D01*
X147398800Y-119791059D01*
X147433424Y-119616988D01*
X147501344Y-119453016D01*
X147599947Y-119305446D01*
X147725446Y-119179947D01*
X147873016Y-119081344D01*
X148036988Y-119013424D01*
X148186288Y-118983727D01*
X148211058Y-118978800D01*
X148388542Y-118978800D01*
X148413312Y-118983727D01*
G37*
G36*
X76363312Y-117768727D02*
G01*
X76512612Y-117798424D01*
X76676584Y-117866344D01*
X76824154Y-117964947D01*
X76949653Y-118090446D01*
X77048256Y-118238016D01*
X77116176Y-118401988D01*
X77150800Y-118576059D01*
X77150800Y-118753541D01*
X77116176Y-118927612D01*
X77048256Y-119091584D01*
X76949653Y-119239154D01*
X76824154Y-119364653D01*
X76676584Y-119463256D01*
X76512612Y-119531176D01*
X76363312Y-119560873D01*
X76338542Y-119565800D01*
X76161058Y-119565800D01*
X76136288Y-119560873D01*
X75986988Y-119531176D01*
X75823016Y-119463256D01*
X75675446Y-119364653D01*
X75549947Y-119239154D01*
X75451344Y-119091584D01*
X75383424Y-118927612D01*
X75348800Y-118753541D01*
X75348800Y-118576059D01*
X75383424Y-118401988D01*
X75451344Y-118238016D01*
X75549947Y-118090446D01*
X75675446Y-117964947D01*
X75823016Y-117866344D01*
X75986988Y-117798424D01*
X76136288Y-117768727D01*
X76161058Y-117763800D01*
X76338542Y-117763800D01*
X76363312Y-117768727D01*
G37*
G36*
X148413312Y-116443727D02*
G01*
X148562612Y-116473424D01*
X148726584Y-116541344D01*
X148874154Y-116639947D01*
X148999653Y-116765446D01*
X149098256Y-116913016D01*
X149166176Y-117076988D01*
X149200800Y-117251059D01*
X149200800Y-117428541D01*
X149166176Y-117602612D01*
X149098256Y-117766584D01*
X148999653Y-117914154D01*
X148874154Y-118039653D01*
X148726584Y-118138256D01*
X148562612Y-118206176D01*
X148413312Y-118235873D01*
X148388542Y-118240800D01*
X148211058Y-118240800D01*
X148186288Y-118235873D01*
X148036988Y-118206176D01*
X147873016Y-118138256D01*
X147725446Y-118039653D01*
X147599947Y-117914154D01*
X147501344Y-117766584D01*
X147433424Y-117602612D01*
X147398800Y-117428541D01*
X147398800Y-117251059D01*
X147433424Y-117076988D01*
X147501344Y-116913016D01*
X147599947Y-116765446D01*
X147725446Y-116639947D01*
X147873016Y-116541344D01*
X148036988Y-116473424D01*
X148186288Y-116443727D01*
X148211058Y-116438800D01*
X148388542Y-116438800D01*
X148413312Y-116443727D01*
G37*
G36*
X77150800Y-117025800D02*
G01*
X75348800Y-117025800D01*
X75348800Y-115223800D01*
X77150800Y-115223800D01*
X77150800Y-117025800D01*
G37*
G36*
X149200800Y-115700800D02*
G01*
X147398800Y-115700800D01*
X147398800Y-113898800D01*
X149200800Y-113898800D01*
X149200800Y-115700800D01*
G37*
G36*
X100375256Y-46891298D02*
G01*
X100481579Y-46912447D01*
X100782042Y-47036903D01*
X101052451Y-47217585D01*
X101282415Y-47447549D01*
X101463097Y-47717958D01*
X101587553Y-48018421D01*
X101651000Y-48337391D01*
X101651000Y-48662609D01*
X101587553Y-48981579D01*
X101463097Y-49282042D01*
X101282415Y-49552451D01*
X101052451Y-49782415D01*
X100782042Y-49963097D01*
X100481579Y-50087553D01*
X100375256Y-50108702D01*
X100162611Y-50151000D01*
X99837389Y-50151000D01*
X99624744Y-50108702D01*
X99518421Y-50087553D01*
X99217958Y-49963097D01*
X98947549Y-49782415D01*
X98717585Y-49552451D01*
X98536903Y-49282042D01*
X98412447Y-48981579D01*
X98349000Y-48662609D01*
X98349000Y-48337391D01*
X98412447Y-48018421D01*
X98536903Y-47717958D01*
X98717585Y-47447549D01*
X98947549Y-47217585D01*
X99217958Y-47036903D01*
X99518421Y-46912447D01*
X99624744Y-46891298D01*
X99837389Y-46849000D01*
X100162611Y-46849000D01*
X100375256Y-46891298D01*
G37*
M02*
